<svg width="70" height="70" viewBox="0 0 70 70" fill="none" xmlns="http://www.w3.org/2000/svg">
<mask id="mask0_260_14383" style="mask-type:alpha" maskUnits="userSpaceOnUse" x="0" y="0" width="70" height="70">
<circle cx="35" cy="35" r="35" fill="#F3ECDA"/>
</mask>
<g mask="url(#mask0_260_14383)">
<path d="M23.6551 13.4115C23.6551 13.4115 16.7613 14.2245 15.4646 24.5987C14.1678 34.9729 13.5228 48.5117 14.4097 50.682C15.2966 52.8522 17.2518 56.5947 27.0549 56.5947C36.858 56.5947 43.1806 57.2666 48.2938 55.5465C53.4069 53.8265 55.51 50.8432 55.51 46.3012C55.4171 39.4192 54.9574 32.547 54.1326 25.714C53.239 18.827 49.9937 12.276 39.7807 9.83024C29.5678 7.38451 23.8163 10.8784 23.6551 13.3913" fill="#2B2B2B"/>
<path d="M43.0793 55.889C38.7321 54.6594 29.3456 54.6594 24.9984 55.889C22.7738 56.6409 20.8367 58.0632 19.4531 59.9605C18.0696 61.8578 17.3074 64.137 17.2715 66.4849V82.3149H50.8062V66.4849C50.7702 64.137 50.0081 61.8578 48.6245 59.9605C47.241 58.0632 45.3038 56.6409 43.0793 55.889Z" fill="#AA7CE5"/>
<path d="M30.3398 51.7969V54.9951C30.3398 56.6211 31.9793 57.7499 34.0084 57.7499C36.0376 57.7499 37.677 56.6211 37.677 54.9951V51.7969H30.3398Z" fill="#DBA183"/>
<path d="M21.6322 37.7007C21.6322 37.7007 21.7598 34.798 18.8706 34.704C15.9814 34.6099 14.127 37.3916 15.6119 40.9258C17.0968 44.46 22.5191 43.0289 22.4317 41.7186C22.2572 40.3582 21.99 39.0113 21.6322 37.6872" fill="#DBA183"/>
<path d="M46.8101 38.0095C46.8101 38.0095 47.6433 34.9591 50.4317 34.865C53.2201 34.771 54.8125 37.6601 53.3814 41.1473C51.9502 44.6345 46.7094 43.2437 46.79 41.9469C46.8706 40.6501 46.79 38.0163 46.79 38.0163" fill="#DBA183"/>
<path d="M16.9227 38.5004C16.9227 38.5004 16.8488 38.3862 16.8354 38.1577C16.824 37.8439 16.8837 37.5315 17.0101 37.2439C17.1119 37.033 17.2671 36.8523 17.4602 36.7199C17.6864 36.5822 17.9482 36.5144 18.2128 36.525C18.4877 36.5587 18.7514 36.6541 18.9841 36.8042C19.2168 36.9543 19.4125 37.1552 19.5566 37.3918C19.8986 37.8743 20.1345 38.4239 20.2486 39.0043C20.2889 39.2664 20.2486 39.2932 20.168 39.3134C20.0874 39.3336 20.0471 39.3134 19.9261 39.1051C19.7051 38.6006 19.4468 38.1132 19.1534 37.6471C19.0495 37.4739 18.9102 37.3245 18.7446 37.2088C18.5791 37.093 18.391 37.0134 18.1926 36.9752C18.0297 36.956 17.8648 36.9837 17.7172 37.0551C17.5696 37.1265 17.4454 37.2387 17.3594 37.3783C17.0369 37.9562 17.0571 38.5004 16.9496 38.5004" fill="#351C17"/>
<path d="M52.1033 38.4603C52.0294 38.4603 51.9555 37.9631 51.5792 37.3852C51.4963 37.234 51.3681 37.1126 51.2127 37.0379C51.0573 36.9632 50.8824 36.939 50.7125 36.9686C50.3116 37.099 49.9723 37.3714 49.7584 37.7346C49.464 38.2013 49.2035 38.6886 48.979 39.1927C48.858 39.4144 48.8043 39.4077 48.7371 39.3942C48.6699 39.3808 48.6162 39.3472 48.6565 39.0851C48.7799 38.5 49.0223 37.9466 49.3687 37.4591C49.5067 37.2281 49.6895 37.027 49.9065 36.8678C50.1234 36.7085 50.3701 36.5943 50.6319 36.5319C50.901 36.484 51.1784 36.5366 51.4113 36.6797C51.6111 36.8017 51.7737 36.9759 51.8816 37.1837C52.2511 37.9093 52.1772 38.4468 52.1033 38.4603Z" fill="#351C17"/>
<path d="M45.7472 20.6339C44.8468 20.083 24.0716 20.083 23.1712 20.6339C21.4579 21.6888 20.3828 24.6653 20.3828 27.1111V43.4988C20.3828 51.0846 26.6853 55.2907 34.4928 55.2907C42.3003 55.2907 48.6028 51.0846 48.6028 43.4988V27.1044C48.6028 24.6721 47.5277 21.6888 45.8144 20.6339" fill="#F4CFA2"/>
<path d="M23.332 32.0563C24.0782 31.4329 24.6966 30.6708 25.1529 29.8121C25.3497 29.2593 25.5739 28.7166 25.8248 28.1861C26.1338 27.6553 26.8931 27.9778 27.2962 28.1324C28.5004 28.6304 29.7346 29.0523 30.9917 29.3955C36.7365 30.8939 42.7433 31.5255 48.5082 30.3631V27.1044C48.5082 24.6721 47.4332 21.6888 45.7198 20.6339C44.8195 20.083 24.0442 20.083 23.1439 20.6339C21.4305 21.6888 20.3555 24.6653 20.3555 27.1111V34.0182C21.4752 33.582 22.4897 32.9133 23.332 32.0563Z" fill="#DBA183"/>
<path d="M42.7169 41.9471C42.6363 41.88 42.979 41.4096 43.3888 41.0065C43.7987 40.6033 43.839 40.6504 43.9062 40.7176C43.9734 40.7847 44.0271 40.8519 43.6441 41.2551C43.2612 41.6582 42.8513 42.0412 42.7438 41.927" fill="#DBA183"/>
<path d="M44.0411 42.0751C43.9605 42.0079 44.3032 41.5375 44.713 41.1344C45.1229 40.7313 45.1632 40.7783 45.2304 40.8455C45.2976 40.9127 45.3514 40.9799 44.9684 41.383C44.5854 41.7862 44.1755 42.1691 44.068 42.0549" fill="#DBA183"/>
<path d="M24.2603 41.9471C24.1863 41.88 24.5223 41.4096 24.9322 41.0065C25.342 40.6033 25.3823 40.6504 25.4562 40.7176C25.5302 40.7847 25.5772 40.8519 25.1942 41.2551C24.8112 41.6582 24.3946 42.0412 24.2871 41.927" fill="#DBA183"/>
<path d="M25.5845 42.0209C25.5106 41.9537 25.8465 41.4833 26.2564 41.0802C26.6662 40.6771 26.7066 40.7241 26.7805 40.7913C26.8544 40.8585 26.9014 40.9257 26.5184 41.3288C26.1354 41.732 25.7189 42.1149 25.6114 42.0007" fill="#DBA183"/>
<path d="M25.8259 36.4643C25.7654 36.4643 25.7654 36.686 25.8998 36.9615C26.0735 37.2957 26.3488 37.5662 26.686 37.7342C26.8877 37.8575 27.1215 37.9183 27.3579 37.9089C27.3947 37.9055 27.4289 37.8884 27.4538 37.8611C27.4787 37.8337 27.4924 37.798 27.4922 37.761C27.4922 37.6065 27.4922 37.5796 26.901 37.3109C26.6341 37.1747 26.3949 36.9902 26.1955 36.7666C26.0275 36.5785 25.9133 36.4307 25.8192 36.4643" fill="#351C17"/>
<path d="M26.3301 37.7414C26.3301 36.9755 26.7399 36.3506 27.2506 36.3506C27.7612 36.3506 28.1711 36.9755 28.1711 37.7414C28.1711 38.5074 27.7612 39.1255 27.2506 39.1255C26.7399 39.1255 26.3301 38.5007 26.3301 37.7414Z" fill="#351C17"/>
<path d="M44.0539 36.4643C44.1076 36.4643 44.1077 36.686 43.9733 36.9615C43.7996 37.2957 43.5243 37.5662 43.1871 37.7342C42.9854 37.8575 42.7516 37.9183 42.5152 37.9089C42.479 37.9041 42.4456 37.8866 42.421 37.8596C42.3963 37.8325 42.3821 37.7976 42.3809 37.761C42.3809 37.6065 42.3809 37.5796 42.9789 37.3109C43.2434 37.1712 43.4821 36.9871 43.6844 36.7666C43.8523 36.5785 43.9598 36.4307 44.0606 36.4643" fill="#351C17"/>
<path d="M43.5645 37.7414C43.5645 36.9755 43.148 36.3506 42.6373 36.3506C42.1267 36.3506 41.7168 36.9755 41.7168 37.7414C41.7168 38.5074 42.1267 39.1255 42.6373 39.1255C43.148 39.1255 43.5645 38.5007 43.5645 37.7414Z" fill="#351C17"/>
<path d="M25.1134 32.7891C25.0664 32.7891 25.2948 32.2852 25.8659 31.8686C26.1803 31.634 26.5562 31.4962 26.9477 31.4722C27.336 31.4489 27.7235 31.5301 28.0698 31.7073C28.4477 31.8685 28.7717 32.1342 29.0037 32.4733C29.0978 32.6413 29.0575 32.7017 29.0037 32.7488C28.95 32.7958 28.8895 32.8227 28.735 32.7488C28.4457 32.546 28.145 32.3598 27.8346 32.1911C27.5632 32.0541 27.265 31.9784 26.9611 31.9694C26.6466 31.9685 26.3369 32.0471 26.0608 32.1978C25.5233 32.4733 25.1806 32.8697 25.1134 32.7958" fill="#351C17"/>
<path d="M44.6451 32.7893C44.5779 32.8498 44.2218 32.4668 43.6641 32.198C43.3753 32.0573 43.0582 31.9841 42.7369 31.9841C42.4156 31.9841 42.0985 32.0573 41.8097 32.198C41.4844 32.3624 41.1681 32.544 40.8623 32.7423C40.7078 32.8229 40.6473 32.7893 40.5935 32.7423C40.5398 32.6952 40.4995 32.6281 40.5935 32.4601C40.8451 32.1238 41.1846 31.8635 41.5745 31.7075C41.9313 31.541 42.3236 31.4649 42.7168 31.4858C43.1157 31.5027 43.502 31.6307 43.8321 31.8554C44.4301 32.2719 44.672 32.749 44.6317 32.7826" fill="#351C17"/>
<path d="M34.7143 44.7015C34.7143 44.762 34.4725 44.7822 34.1298 44.7015C33.9215 44.6479 33.7239 44.5593 33.5452 44.4395C33.4105 44.3654 33.2937 44.2626 33.2031 44.1384C33.1126 44.0142 33.0504 43.8715 33.0212 43.7206C32.9917 43.4169 33.0808 43.1135 33.2698 42.874C33.3992 42.7024 33.5532 42.5507 33.7267 42.4238C34.0156 42.2088 34.2306 42.1483 34.2709 42.2021C34.3112 42.2558 34.1701 42.4238 33.9618 42.6724C33.7535 42.921 33.4848 43.2906 33.4848 43.6332C33.4848 43.9759 33.982 44.2111 34.244 44.3656C34.5061 44.5201 34.7143 44.6344 34.6942 44.7015" fill="#351C17"/>
<path d="M37.6768 47.376C37.744 47.376 37.6768 47.8933 37.1594 48.3905C36.4399 49.0039 35.5248 49.3399 34.5793 49.3379C34.1104 49.3839 33.6371 49.3331 33.1887 49.1886C32.7402 49.0442 32.3262 48.8091 31.9723 48.4981C31.455 47.9673 31.408 47.4768 31.4751 47.47C31.5423 47.4633 31.7036 47.8463 32.2008 48.236C32.8944 48.7084 33.7299 48.9268 34.5659 48.8542C35.4093 48.8482 36.233 48.5985 36.9377 48.1352C37.4752 47.7657 37.6096 47.376 37.6768 47.3894" fill="#351C17"/>
<path d="M54.1327 25.7345C53.239 18.8475 49.9937 12.2965 39.7808 9.85074C29.5679 7.40501 23.8164 10.8989 23.6551 13.4118C23.6551 13.4118 16.7614 14.2248 15.4646 24.599C15.2765 26.0974 15.1085 27.6629 14.9473 29.2486C15.9753 32.3998 17.7021 34.3954 19.6506 33.6227C22.8421 32.3797 23.682 22.9797 23.682 22.9797C24.5958 24.9954 29.9509 28.8656 38.867 29.8399C45.1964 30.5118 50.8135 29.7324 54.3544 27.6293C54.2872 26.9574 54.2066 26.346 54.1327 25.7345Z" fill="#2B2B2B"/>
<path d="M44.9681 16.9461C44.3902 16.6034 43.2413 15.992 42.6567 16.6773C41.9848 17.5037 42.1931 18.8476 42.3611 19.8151C42.3769 19.8837 42.3703 19.9555 42.3423 20.0201C42.3143 20.0846 42.2664 20.1385 42.2055 20.1738C42.1446 20.2092 42.0741 20.224 42.0041 20.2163C41.9342 20.2086 41.8685 20.1786 41.8168 20.1309C40.9635 19.4052 36.9254 16.1532 37.1807 18.9282C37.18 18.9845 37.1647 19.0396 37.1361 19.0881C37.1075 19.1366 37.0667 19.1768 37.0178 19.2046C36.9689 19.2325 36.9135 19.247 36.8572 19.2469C36.801 19.2467 36.7457 19.2318 36.6969 19.2037C34.6275 17.8599 28.5669 16.1801 29.7159 20.6214C29.7289 20.6642 29.7321 20.7094 29.7251 20.7537C29.7181 20.7979 29.7012 20.84 29.6755 20.8767C30.2671 21.7069 31.0762 22.3579 32.0138 22.758C32.7797 23.1074 35.6421 24.0682 34.9231 22.2541C34.908 22.1992 34.9078 22.1412 34.9223 22.0862C34.9369 22.0311 34.9658 21.9809 35.0061 21.9406C35.0463 21.9003 35.0966 21.8715 35.1516 21.8569C35.2067 21.8423 35.2646 21.8426 35.3195 21.8577C36.1693 22.2987 36.9787 22.8136 37.7384 23.3963C38.277 23.7865 38.8615 24.1092 39.4786 24.3572C40.594 24.7334 40.3252 23.6853 40.1102 22.9058C40.0945 22.8437 40.0973 22.7784 40.1182 22.7179C40.1391 22.6573 40.1772 22.6042 40.2278 22.565C40.2784 22.5257 40.3394 22.5021 40.4033 22.497C40.4671 22.4919 40.531 22.5056 40.5873 22.5363C42.0923 23.2082 49.322 25.8958 48.3007 21.898C47.8479 19.8888 46.6589 18.122 44.9681 16.9461Z" fill="#353535"/>
<path d="M26.7062 18.5111C26.659 18.3473 26.5801 18.1945 26.4738 18.0614C26.3676 17.9282 26.2362 17.8172 26.087 17.7349C25.9379 17.6525 25.774 17.6003 25.6047 17.5813C25.4354 17.5623 25.264 17.5769 25.1003 17.6241C22.8961 18.3476 20.8903 19.5736 19.2413 21.2054C19.1209 21.3258 19.0253 21.4688 18.9601 21.6262C18.8949 21.7835 18.8613 21.9522 18.8613 22.1225C18.8613 22.2929 18.8949 22.4615 18.9601 22.6189C19.0253 22.7763 19.1209 22.9193 19.2413 23.0397C19.3618 23.1602 19.5047 23.2557 19.6621 23.3209C19.8195 23.3861 19.9881 23.4197 20.1585 23.4197C20.3288 23.4197 20.4975 23.3861 20.6549 23.3209C20.8122 23.2557 20.9552 23.1602 21.0756 23.0397C22.4066 21.7325 24.0138 20.7406 25.779 20.1371C26.1083 20.0404 26.386 19.8171 26.551 19.5161C26.7159 19.215 26.7549 18.8609 26.6591 18.5312" fill="#BF1B37"/>
<path d="M24.8711 18.8874C24.8711 18.8116 24.8936 18.7376 24.9356 18.6746C24.9777 18.6116 25.0375 18.5625 25.1075 18.5335C25.1775 18.5046 25.2545 18.497 25.3288 18.5118C25.4031 18.5265 25.4713 18.563 25.5249 18.6166C25.5785 18.6701 25.6149 18.7384 25.6297 18.8127C25.6445 18.887 25.6369 18.964 25.6079 19.0339C25.5789 19.1039 25.5298 19.1637 25.4669 19.2058C25.4039 19.2479 25.3298 19.2704 25.2541 19.2704C25.1525 19.2704 25.0551 19.23 24.9833 19.1582C24.9114 19.0864 24.8711 18.989 24.8711 18.8874Z" fill="#FFEEF4"/>
<path d="M19.9454 21.7902C19.9454 21.7145 19.9678 21.6404 20.0099 21.5774C20.052 21.5145 20.1118 21.4654 20.1818 21.4364C20.2518 21.4074 20.3288 21.3998 20.4031 21.4146C20.4774 21.4294 20.5456 21.4658 20.5992 21.5194C20.6527 21.573 20.6892 21.6412 20.704 21.7155C20.7188 21.7898 20.7112 21.8668 20.6822 21.9368C20.6532 22.0068 20.6041 22.0666 20.5411 22.1087C20.4782 22.1507 20.4041 22.1732 20.3284 22.1732C20.2778 22.1741 20.2276 22.1648 20.1807 22.1459C20.1338 22.127 20.0913 22.0988 20.0555 22.0631C20.0198 22.0273 19.9916 21.9847 19.9727 21.9378C19.9537 21.891 19.9445 21.8408 19.9454 21.7902Z" fill="#FFEEF4"/>
</g>
</svg>
