<svg width="70" height="70" viewBox="0 0 70 70" fill="none" xmlns="http://www.w3.org/2000/svg">
<mask id="mask0_260_14355" style="mask-type:alpha" maskUnits="userSpaceOnUse" x="0" y="0" width="70" height="70">
<circle cx="35" cy="35" r="35" fill="#F3ECDA"/>
</mask>
<g mask="url(#mask0_260_14355)">
<path d="M23.5515 54.8692H45.9225C48.442 54.866 50.8599 55.8622 52.646 57.6392C54.432 59.4163 55.4404 61.8291 55.4499 64.3486V77.3603H14V64.3486C14.0047 63.099 14.2555 61.8626 14.7381 60.71C15.2207 59.5573 15.9255 58.511 16.8125 57.6307C17.6994 56.7505 18.7511 56.0535 19.9073 55.5797C21.0636 55.1059 22.3019 54.8645 23.5515 54.8692Z" fill="#F9ED32"/>
<path d="M28.9822 61.8016C28.9822 61.8016 31.7816 59.3386 32.7487 59.3987H36.4192C36.4192 59.3987 38.9783 60.7503 40.0235 61.8617C40.0235 61.8617 42.6367 59.2545 42.5405 55.9686C42.4444 52.6826 39.6391 50.1235 34.3707 50.1235C29.1024 50.1235 26.6154 53.013 26.5132 55.0855C26.4111 57.158 26.5132 58.4676 28.9822 61.8016Z" fill="#FFEEF4"/>
<path d="M29.4629 54.9414H39.6091C39.6091 54.9414 39.3688 58.3715 36.4193 59.3868L34.6832 63.7841L32.7488 59.3868C31.8954 58.9494 31.1547 58.3205 30.5847 57.5494C30.0146 56.7782 29.6307 55.8856 29.4629 54.9414Z" fill="#F4CFA2"/>
<path d="M22.8899 16.3389C21.0658 16.7589 19.4263 17.7573 18.216 19.1853C17.0056 20.6132 16.2893 22.3941 16.1738 24.2624C16.2219 26.8756 19.1774 37.9349 19.1774 37.9349L48.1143 36.7334C48.1143 36.7334 53.4788 30.5039 55.5092 23.8839C55.5092 23.8839 51.4964 22.3881 49.9525 19.5347C49.9525 19.5347 52.4155 18.3333 53.6229 16.447C53.6229 16.447 50.7274 16.6873 44.1555 11.9536C37.5836 7.21987 24.6801 7.83862 22.8899 16.3389Z" fill="#2B2B2B"/>
<path d="M37.7953 50.9585H31.2715V56.395H37.7953V50.9585Z" fill="#F4CFA2"/>
<path d="M37.7953 53.836V50.9585H31.2715V55.3378C33.5422 56.5092 36.4437 56.1788 37.7953 53.836Z" fill="#DBA183"/>
<path d="M46.5779 34.9915C46.5779 34.9915 46.4698 31.8077 48.9328 31.7056C51.3957 31.6035 52.9876 34.7092 51.7201 38.5238C50.4526 42.3384 45.839 40.8366 45.8871 39.3948C46.0379 37.9157 46.2685 36.4458 46.5779 34.9915Z" fill="#DBA183"/>
<path d="M22.8839 34.8654C22.8839 34.8654 22.992 31.7116 20.481 31.6094C17.97 31.5073 16.4021 34.553 17.6877 38.3616C18.9732 42.1702 23.6528 40.6443 23.5808 39.2266C23.426 37.7615 23.1933 36.3057 22.8839 34.8654Z" fill="#DBA183"/>
<path d="M30.0626 21.5107H39.0735C43.3446 21.5107 46.8048 23.2468 46.8048 27.554V41.3707C46.8048 48.321 41.3322 52.1837 34.5861 52.1837C27.8399 52.1837 22.3613 48.303 22.3613 41.3707V27.554C22.3613 23.2468 25.8215 21.5107 30.0926 21.5107" fill="#F4CFA2"/>
<path d="M22.7284 27.0795C23.4132 26.5748 24.2962 26.8151 25.0051 27.1515C26.5847 27.896 28.2376 28.4738 29.937 28.8756C33.5774 29.7407 37.6684 30.858 41.4289 30.5937C43.2364 30.4593 45.0267 30.1516 46.7753 29.6746V27.554C46.7753 23.2468 43.3152 21.5107 39.044 21.5107H30.0632C25.8221 21.5107 22.3859 23.2228 22.3379 27.4639C22.4511 27.3196 22.5823 27.1904 22.7284 27.0795Z" fill="#DBA183"/>
<path d="M42.3354 34.7754C42.3354 33.8082 41.963 33.4058 41.5124 33.4058C41.0619 33.4058 40.6895 33.8082 40.6895 34.7754V35.5564C40.6895 36.5235 41.0559 36.926 41.5124 36.926C41.969 36.926 42.3354 36.5235 42.3354 35.5564V34.7754Z" fill="#351C17"/>
<path d="M29.06 34.7754C29.06 33.8082 28.6936 33.4058 28.2371 33.4058C27.7805 33.4058 27.4141 33.8082 27.4141 34.7754V35.5564C27.4141 36.5235 27.7805 36.926 28.2371 36.926C28.6936 36.926 29.06 36.5235 29.06 35.5564V34.7754Z" fill="#351C17"/>
<path d="M35.4039 42.6386C35.4039 42.6866 35.0254 42.6386 34.4848 42.3562C34.1586 42.204 33.8586 42.0013 33.5957 41.7555C33.4207 41.5947 33.2974 41.3857 33.2413 41.1548C33.2103 40.9163 33.2225 40.6741 33.2773 40.4399C33.4334 39.687 33.6669 38.9522 33.9742 38.2473C34.2084 37.7066 34.3947 37.3943 34.4487 37.4183C34.5028 37.4423 34.4487 37.7907 34.2685 38.3494C34.0883 38.9081 33.866 39.677 33.7038 40.512C33.6621 40.7093 33.6479 40.9115 33.6618 41.1127C33.6957 41.2685 33.7752 41.4107 33.8901 41.5212C34.1166 41.7495 34.3685 41.9511 34.641 42.1219C35.1155 42.4343 35.4279 42.6085 35.4039 42.6686" fill="#351C17"/>
<path d="M37.7953 45.3302C37.8494 45.3302 37.6751 45.7567 37.1225 46.1472C36.3724 46.5825 35.5047 46.7716 34.6415 46.6879C33.7753 46.6988 32.9258 46.4498 32.2026 45.973C31.6559 45.5465 31.6018 45.0659 31.6619 45.0659C31.722 45.0659 31.8661 45.4143 32.3828 45.7207C33.0883 46.077 33.8692 46.2583 34.6595 46.2493C35.447 46.3226 36.2403 46.1966 36.9663 45.8829C37.5009 45.6006 37.7472 45.2822 37.7953 45.3302Z" fill="#351C17"/>
<path d="M26.1041 30.978C26.026 30.942 26.2663 30.4374 26.879 30.089C27.2117 29.8952 27.5876 29.7878 27.9724 29.7766C28.3456 29.7722 28.7163 29.8374 29.0657 29.9688C29.4566 30.0939 29.8016 30.3322 30.0569 30.6536C30.165 30.8158 30.123 30.8819 30.0569 30.93C29.9908 30.978 29.9427 31.0141 29.7926 30.93C29.4906 30.7593 29.1798 30.6049 28.8614 30.4674C28.5711 30.3538 28.2653 30.285 27.9543 30.2632C27.6404 30.2498 27.3272 30.3031 27.0352 30.4194C26.7114 30.5848 26.3966 30.7673 26.0921 30.966" fill="#351C17"/>
<path d="M43.5433 31.1707C43.4712 31.2127 43.2429 30.7141 42.6783 30.4318C42.3825 30.2834 42.0537 30.213 41.7231 30.2275C41.3942 30.2412 41.0715 30.3209 40.774 30.4618C40.2093 30.7141 39.9329 30.9123 39.7647 30.9784C39.5965 31.0445 39.5365 31.0145 39.4884 30.9784C39.4404 30.9424 39.4043 30.8583 39.5245 30.7021C39.8081 30.3861 40.162 30.1413 40.5577 29.9872C40.9235 29.8221 41.3219 29.742 41.7231 29.7529C42.1368 29.7608 42.5386 29.8926 42.8765 30.1314C43.5133 30.588 43.6034 31.1947 43.5433 31.1947" fill="#351C17"/>
<path d="M25.6298 39.6769C25.6959 39.7309 26.0563 39.3585 26.3446 38.956C26.633 38.5535 26.5849 38.4994 26.5128 38.4454C26.4408 38.3913 26.3807 38.3673 26.0863 38.7698C25.792 39.1722 25.5277 39.5988 25.6298 39.6769Z" fill="#DBA183"/>
<path d="M26.7645 39.7726C26.8306 39.8266 27.1911 39.4542 27.4794 39.0517C27.7678 38.6492 27.7197 38.5951 27.6476 38.5471C27.5755 38.499 27.5154 38.463 27.2211 38.8655C26.9267 39.2679 26.6624 39.6945 26.7645 39.7726Z" fill="#DBA183"/>
<path d="M41.5259 39.6769C41.592 39.7309 41.9524 39.3585 42.2408 38.956C42.5291 38.5535 42.4811 38.4994 42.409 38.4454C42.3369 38.3913 42.2708 38.3673 41.9825 38.7698C41.6941 39.1722 41.4238 39.5988 41.5259 39.6769Z" fill="#DBA183"/>
<path d="M42.661 39.7726C42.7271 39.8266 43.0875 39.4542 43.3759 39.0517C43.6642 38.6492 43.6162 38.5951 43.5441 38.5471C43.472 38.499 43.4119 38.463 43.1176 38.8655C42.8232 39.2679 42.5589 39.6945 42.661 39.7726Z" fill="#DBA183"/>
<path d="M50.4159 34.6608C50.4159 34.6608 50.476 34.4506 50.2417 34.1622C50.1635 34.0853 50.0686 34.0274 49.9644 33.993C49.8603 33.9587 49.7496 33.9487 49.641 33.964C49.5025 33.9821 49.3705 34.0336 49.2565 34.1142C49.1349 34.2016 49.0293 34.3093 48.9441 34.4325C48.5864 34.9752 48.3545 35.5909 48.2653 36.2347C48.211 36.6032 48.211 36.9776 48.2653 37.3461C48.2912 37.5566 48.3564 37.7603 48.4575 37.9468C48.5121 38.0613 48.5969 38.1587 48.7027 38.2286C48.8086 38.2985 48.9315 38.3381 49.0583 38.3433C49.1752 38.3388 49.2898 38.3084 49.3936 38.2544C49.4975 38.2004 49.5881 38.1241 49.659 38.0309C49.7707 37.8944 49.8544 37.7372 49.9053 37.5683C49.996 37.2933 49.996 36.9964 49.9053 36.7213C49.8655 36.6111 49.7992 36.5124 49.7122 36.4338C49.6253 36.3552 49.5203 36.2992 49.4067 36.2708C49.2704 36.2388 49.1285 36.2388 48.9922 36.2708C48.5837 36.3489 48.5957 36.445 48.6077 36.487C48.6197 36.5291 48.6618 36.5651 49.0102 36.5711C49.1724 36.5711 49.4547 36.6012 49.5388 36.8775C49.5983 37.0733 49.5983 37.2824 49.5388 37.4782C49.4788 37.6825 49.2805 37.9588 49.0943 37.9528C48.9081 37.9468 48.7459 37.6344 48.7098 37.3521C48.6647 37.0252 48.6647 36.6937 48.7098 36.3669C48.7727 35.7721 48.9546 35.196 49.2445 34.6728C49.342 34.4825 49.5102 34.338 49.713 34.2704C49.7886 34.2444 49.8692 34.2363 49.9484 34.2467C50.0276 34.2571 50.1033 34.2858 50.1696 34.3304C50.3919 34.4986 50.4399 34.7089 50.488 34.7029" fill="#351C17"/>
<path d="M18.9267 34.3065C18.9567 34.3065 18.9927 34.1203 19.215 33.934C19.2972 33.8855 19.3888 33.8551 19.4837 33.845C19.5786 33.8349 19.6746 33.8453 19.7652 33.8755C19.8557 33.9057 19.9387 33.9549 20.0086 34.02C20.0785 34.085 20.1336 34.1643 20.1702 34.2524C20.4678 34.7809 20.6501 35.3665 20.7048 35.9705C20.7529 36.2992 20.7529 36.633 20.7048 36.9617C20.6628 37.2681 20.4825 37.6165 20.3203 37.5624C20.1581 37.5084 19.9359 37.2921 19.8758 37.0878C19.8163 36.892 19.8163 36.6829 19.8758 36.4871C19.9599 36.2108 20.2422 36.1928 20.4044 36.1808C20.7529 36.1808 20.7829 36.1808 20.8009 36.0967C20.8189 36.0126 20.831 35.9585 20.4165 35.8804C20.2801 35.8484 20.1383 35.8484 20.002 35.8804C19.8896 35.9102 19.7861 35.9668 19.7004 36.0452C19.6146 36.1237 19.5491 36.2217 19.5094 36.3309C19.3958 36.6183 19.381 36.9353 19.4673 37.232C19.5229 37.4001 19.6084 37.5568 19.7196 37.6946C19.7899 37.7884 19.8804 37.8652 19.9844 37.9193C20.0884 37.9733 20.2032 38.0033 20.3203 38.007C20.4467 38.0005 20.5691 37.9604 20.6748 37.8906C20.7804 37.8209 20.8655 37.7242 20.9211 37.6105C21.0219 37.4239 21.0871 37.2202 21.1133 37.0098C21.1675 36.6413 21.1675 36.2669 21.1133 35.8984C21.0336 35.256 20.8098 34.64 20.4585 34.0962C20.3807 33.9733 20.2779 33.868 20.1568 33.7873C20.0358 33.7066 19.8991 33.6522 19.7557 33.6277C19.6415 33.6013 19.5227 33.6035 19.4095 33.6338C19.2964 33.6642 19.1925 33.7219 19.1069 33.8019C18.8486 34.0902 18.8966 34.3245 18.9267 34.3305" fill="#351C17"/>
<path d="M49.9472 19.5287C49.9472 19.5287 52.4102 18.3272 53.6176 16.4409C53.6176 16.4409 50.7221 16.6812 44.1502 11.9475C37.5783 7.21382 24.6808 7.83858 22.8906 16.3388C22.8906 16.3388 22.8906 24.5087 33.133 27.0197C43.3753 29.5307 52.6985 28.4674 55.5039 23.8779C55.5039 23.8779 51.4911 22.3821 49.9472 19.5287Z" fill="#2B2B2B"/>
<path d="M41.7839 19.6246C41.7831 19.6756 41.7691 19.7256 41.7433 19.7695C41.7174 19.8135 41.6805 19.85 41.6363 19.8754C41.5921 19.9009 41.542 19.9144 41.491 19.9147C41.44 19.9149 41.3898 19.9019 41.3453 19.8769C40.5644 19.4384 39.8315 18.9158 39.0446 18.4832C38.2576 18.0507 36.4014 17.0415 36.8459 18.8737C36.906 19.132 36.5576 19.3903 36.3593 19.156C35.977 18.6431 35.4804 18.2263 34.909 17.9385C34.3377 17.6507 33.7071 17.4999 33.0674 17.498C33.0543 18.1778 32.9596 18.8534 32.785 19.5105C32.7726 19.553 32.7508 19.5921 32.7211 19.625C32.6915 19.6579 32.6548 19.6837 32.6138 19.7004C32.5728 19.7172 32.5285 19.7245 32.4843 19.7217C32.4401 19.719 32.3971 19.7063 32.3585 19.6847C30.7366 18.9037 28.0033 16.9814 26.117 17.8825C25.8166 20.0571 29.9856 22.436 31.4094 23.2229C32.3489 23.7207 33.3202 24.1562 34.3169 24.5265C34.9867 24.8678 35.7178 25.072 36.4675 25.1272C37.5007 25.0672 36.4675 23.1268 36.3834 22.7243C36.3705 22.6751 36.3706 22.6233 36.3837 22.574C36.3969 22.5248 36.4225 22.4798 36.4583 22.4435C36.494 22.4072 36.5385 22.3808 36.5875 22.3668C36.6365 22.3529 36.6883 22.3519 36.7378 22.3639C38.54 22.6823 40.1018 23.7816 41.862 24.2982C43.848 24.9752 46.0106 24.9198 47.9593 24.142C46.9432 23.5988 45.9729 22.974 45.0578 22.2738C45.0182 22.2327 44.9913 22.1809 44.9806 22.1248C44.9698 22.0687 44.9756 22.0107 44.9973 21.9579C45.0189 21.905 45.0555 21.8596 45.1025 21.8272C45.1495 21.7947 45.205 21.7767 45.262 21.7752C46.866 21.9314 48.3978 22.6282 50.0078 22.5321C47.677 20.4296 45.0518 18.249 41.91 17.6662C41.7917 18.3119 41.7493 18.9691 41.7839 19.6246Z" fill="#353535"/>
</g>
</svg>
