<svg width="70" height="72" viewBox="0 0 70 72" fill="none" xmlns="http://www.w3.org/2000/svg">
<mask id="mask0_260_10503" style="mask-type:alpha" maskUnits="userSpaceOnUse" x="-2" y="-2" width="74" height="74">
<circle cx="35" cy="35" r="36" fill="#F3ECDA" stroke="#7F886B" stroke-width="2"/>
</mask>
<g mask="url(#mask0_260_10503)">
<path d="M46.1736 15.014C46.1736 15.014 44.8802 7.96331 32.6016 9.13041C22.6633 10.0689 22.4226 17.5467 15.1133 21.0299C16.2828 22.2304 17.6935 23.1695 19.2522 23.7852L16.9301 25.4577C16.9301 25.4577 17.7964 33.2243 22.7355 37.8746C27.6746 42.5249 45.4517 41.9353 47.1903 40.9968C48.9289 40.0584 51.3293 33.4468 51.4736 25.1749C51.618 16.903 47.9904 15.2246 46.1736 15.014Z" fill="#898989"/>
<path d="M46.1723 15.0137C46.1723 15.0137 46.1723 14.9175 46.1061 14.749C45.6863 15.1508 45.229 15.5114 44.7405 15.8259C43.266 16.7847 41.6978 17.591 40.0601 18.2323C37.8126 19.0739 35.4928 19.7082 33.1297 20.1273C31.8724 20.3799 29.9052 20.9575 28.7561 20.1273C28.6898 20.0883 28.6414 20.0249 28.6212 19.9508C28.601 19.8766 28.6105 19.7975 28.6478 19.7302C28.9301 19.3595 29.2815 19.0469 29.6826 18.8098C27.8778 19.5858 25.7782 20.4521 24.184 19.5437C22.9808 18.8699 23.7689 18.0097 24.545 17.2095C22.8966 18.124 21.2783 19.0985 19.5818 19.9287C18.6069 20.4907 17.5246 20.8412 16.4054 20.9575C16.0047 20.9808 15.6029 20.9808 15.2022 20.9575L15.0879 21.0176C16.2574 22.2181 17.6681 23.1572 19.2269 23.7729L16.9288 25.4574C16.9288 25.4574 17.7951 33.224 22.7342 37.8743C27.6732 42.5246 45.4503 41.9351 47.189 40.9966C48.9276 40.0581 51.3279 33.4466 51.4723 25.1747C51.6167 16.9027 47.9891 15.2243 46.1723 15.0137Z" fill="#636363"/>
<path d="M45.9687 53.8345H23.5653C22.3139 53.8298 21.0739 54.0716 19.9159 54.5461C18.7579 55.0206 17.7048 55.7185 16.8166 56.6001C15.9283 57.4816 15.2224 58.5294 14.7392 59.6838C14.2559 60.8381 14.0047 62.0763 14 63.3277L14 76.9358H55.51V63.3277C55.5053 62.0763 55.2541 60.8381 54.7708 59.6838C54.2876 58.5294 53.5817 57.4816 52.6934 56.6001C51.8052 55.7185 50.7521 55.0206 49.5941 54.5461C48.4361 54.0716 47.196 53.8298 45.9446 53.8345" fill="#FFEEF4"/>
<path d="M23.5653 53.8345C22.3139 53.8298 21.0739 54.0716 19.9159 54.5461C18.7579 55.0206 17.7048 55.7185 16.8166 56.6001C15.9283 57.4816 15.2224 58.5294 14.7392 59.6838C14.2559 60.8381 14.0047 62.0763 14 63.3277L14 76.9358H28.33V53.8345H23.5653Z" fill="#206CB7"/>
<path d="M45.9678 53.8345H41.2031V76.9358H55.509V63.3277C55.5043 62.0763 55.2531 60.8381 54.7699 59.6838C54.2866 58.5294 53.5807 57.4816 52.6925 56.6001C51.8042 55.7185 50.7511 55.0206 49.5931 54.5461C48.4352 54.0716 47.1951 53.8298 45.9437 53.8345" fill="#206CB7"/>
<path d="M34.1782 59.4233C39.9535 59.4233 40.6814 55.904 40.7296 53.8345H29.215C28.9263 55.6393 28.9203 59.4233 34.1782 59.4233Z" fill="#DBA183"/>
<path d="M38.5997 51.2959H32.0664V56.7403H38.5997V51.2959Z" fill="#DBA183"/>
<path d="M23.2518 35.7153C23.2518 35.7153 23.3601 32.5329 20.8936 32.4246C18.4271 32.3163 16.8268 35.4326 18.0962 39.2527C19.3655 43.0728 24.0098 41.5628 23.9377 40.125C23.7872 38.644 23.5582 37.1721 23.2518 35.7153Z" fill="#DBA183"/>
<path d="M46.9545 35.8831C46.9545 35.8831 46.8402 32.7307 49.3609 32.6224C51.8816 32.5141 53.4638 35.5702 52.1824 39.3843C50.901 43.1984 46.1845 41.6704 46.2567 40.2807C46.4092 38.8132 46.6421 37.3551 46.9545 35.9131" fill="#DBA183"/>
<path d="M39.4473 21.5893H30.4535C26.1761 21.5893 22.7109 23.3099 22.7109 27.6053V41.3156C22.7109 48.2159 28.1915 53.2272 34.9474 53.2272C41.7033 53.2272 47.1898 48.2159 47.1898 41.3156V27.5872C47.1898 23.3099 43.7246 21.5713 39.4473 21.5713" fill="#F4CFA2"/>
<path d="M26.4474 27.3704C28.2811 27.5397 30.1237 27.592 31.964 27.5268C36.808 27.2019 41.5492 25.9779 45.945 23.9172C44.5674 22.3049 42.1731 21.6011 39.4478 21.6011H30.454C26.4835 21.6011 23.2349 23.087 22.7656 26.7206C23.9588 27.0988 25.1968 27.3173 26.4474 27.3704Z" fill="#DBA183"/>
<path d="M27.8848 36.1661C27.8848 35.4081 28.2517 34.7944 28.709 34.7944C29.1662 34.7944 29.5331 35.396 29.5331 36.1661C29.5331 36.9361 29.1662 37.5377 28.709 37.5377C28.2517 37.5377 27.8848 36.9361 27.8848 36.1661Z" fill="#351C17"/>
<path d="M42.7026 36.1661C42.7026 35.4081 42.3296 34.7944 41.8724 34.7944C41.4152 34.7944 41.0723 35.4081 41.0723 36.1661C41.0723 36.9241 41.4453 37.5377 41.8964 37.5377C42.3476 37.5377 42.7266 36.9361 42.7266 36.1661" fill="#351C17"/>
<path d="M25.4787 38.079C25.4787 37.9887 26.0262 37.9827 26.5435 38.0429C27.0609 38.103 27.0609 38.1752 27.0489 38.2655C27.0369 38.3557 27.0188 38.4219 26.5014 38.3617C25.9841 38.3016 25.4667 38.2053 25.4787 38.079Z" fill="#DBA183"/>
<path d="M25.5742 39.3721C25.5742 39.2879 26.0615 39.1555 26.5548 39.0954C27.0481 39.0352 27.0662 39.0954 27.0782 39.1916C27.0902 39.2879 27.0782 39.3541 26.5909 39.4142C26.1036 39.4744 25.5923 39.4984 25.5742 39.3721Z" fill="#DBA183"/>
<path d="M19.4148 35.3843C19.4148 35.3843 19.3547 35.1738 19.5893 34.885C19.6674 34.8079 19.7625 34.7502 19.8671 34.7168C19.9716 34.6833 20.0826 34.675 20.1909 34.6925C20.3482 34.7036 20.4979 34.7648 20.618 34.867C20.7407 34.951 20.8468 35.0571 20.9309 35.1798C21.2933 35.7321 21.5258 36.3595 21.6107 37.0147C21.665 37.3857 21.665 37.7626 21.6107 38.1336C21.5844 38.3444 21.5192 38.5484 21.4182 38.7352C21.3641 38.8503 21.2793 38.9482 21.1732 39.0183C21.067 39.0883 20.9436 39.1278 20.8166 39.1323C20.6996 39.1269 20.5852 39.0962 20.4813 39.0422C20.3774 38.9882 20.2865 38.9121 20.215 38.8194C20.0691 38.638 19.9707 38.4231 19.9287 38.1941C19.8867 37.9652 19.9024 37.7294 19.9743 37.508C20.0151 37.3981 20.0818 37.2997 20.1687 37.2212C20.2556 37.1426 20.3603 37.0862 20.4737 37.0568C20.6102 37.0247 20.7522 37.0247 20.8888 37.0568C21.2978 37.135 21.2858 37.2312 21.2738 37.2733C21.2617 37.3155 21.2196 37.2733 20.8587 37.2733C20.6962 37.2733 20.4075 37.3034 20.3293 37.5802C20.2724 37.7767 20.2724 37.9852 20.3293 38.1817C20.3954 38.3923 20.588 38.663 20.7744 38.663C20.9609 38.663 21.1234 38.3382 21.1655 38.0614C21.2106 37.7341 21.2106 37.4021 21.1655 37.0748C21.1053 36.4786 20.923 35.9011 20.6301 35.3783C20.5304 35.1893 20.3627 35.0452 20.1608 34.9753C20.0851 34.9497 20.0045 34.9418 19.9252 34.9523C19.846 34.9627 19.7702 34.9911 19.7036 35.0354C19.481 35.2039 19.4329 35.4144 19.3848 35.4084" fill="#351C17"/>
<path d="M45.0599 37.983C45.0599 38.0672 44.5786 38.2657 44.0793 38.386C43.5799 38.5064 43.5438 38.4402 43.5258 38.356C43.5077 38.2717 43.5258 38.1996 44.001 38.0732C44.4763 37.9469 45.0238 37.8627 45.0599 37.983Z" fill="#DBA183"/>
<path d="M45.0793 39.3907C45.0793 39.4809 44.5499 39.4869 44.0566 39.4328C43.5633 39.3786 43.5633 39.3004 43.5753 39.2102C43.5873 39.12 43.6054 39.0538 44.0987 39.1139C44.592 39.1741 45.0853 39.2643 45.0793 39.3907Z" fill="#DBA183"/>
<path d="M50.92 35.3303C50.92 35.3303 50.8538 35.1438 50.6312 34.9513C50.5481 34.9027 50.4555 34.8726 50.3598 34.8628C50.264 34.8531 50.1673 34.8639 50.076 34.8947C49.9848 34.9255 49.9013 34.9755 49.831 35.0413C49.7607 35.1071 49.7054 35.1871 49.6687 35.2761C49.3724 35.8039 49.19 36.388 49.1333 36.9907C49.0881 37.32 49.0881 37.654 49.1333 37.9833C49.1754 38.2901 49.3619 38.639 49.5243 38.5849C49.6867 38.5307 49.9093 38.3142 49.9695 38.1036C50.029 37.9075 50.029 37.6981 49.9695 37.502C49.9153 37.2734 49.6326 37.2734 49.4942 37.2734C49.1453 37.2734 49.1092 37.2734 49.0911 37.1892C49.0731 37.105 49.0911 37.0508 49.4762 36.9726C49.6127 36.9406 49.7547 36.9406 49.8913 36.9726C50.0051 37.0011 50.1102 37.0572 50.1972 37.1359C50.2843 37.2146 50.3507 37.3134 50.3906 37.4238C50.4815 37.6993 50.4815 37.9966 50.3906 38.2721C50.3397 38.4412 50.2558 38.5986 50.1439 38.7353C50.073 38.8286 49.9822 38.9051 49.8782 38.9591C49.7742 39.0132 49.6595 39.0436 49.5423 39.0481C49.4154 39.043 49.2923 39.0032 49.1863 38.9333C49.0803 38.8633 48.9954 38.7657 48.9407 38.6511C48.8388 38.4646 48.7735 38.2604 48.7482 38.0495C48.6907 37.6807 48.6907 37.3053 48.7482 36.9365C48.8265 36.2835 49.0506 35.6564 49.404 35.1017C49.4807 34.9788 49.5816 34.8728 49.7006 34.7901C49.8195 34.7074 49.9539 34.6496 50.0958 34.6204C50.2101 34.594 50.3291 34.5961 50.4424 34.6265C50.5557 34.657 50.6598 34.7148 50.7455 34.7948C51.0042 35.0896 50.9561 35.3182 50.926 35.3303" fill="#351C17"/>
<path d="M38.418 45.8279C38.418 45.8279 38.418 45.9422 38.3759 46.1287C38.268 46.3991 38.0705 46.6242 37.8164 46.7664C36.9691 47.1297 36.0464 47.2824 35.1273 47.2115C34.1987 47.2862 33.2721 47.0445 32.4983 46.5257C31.9268 46.0625 31.8606 45.5752 31.8967 45.5752C31.9328 45.5752 32.1193 45.9362 32.6607 46.273C33.4135 46.667 34.2623 46.8401 35.1092 46.7724C35.9613 46.8363 36.8179 46.7425 37.6359 46.4956C38.1954 46.237 38.3157 45.7858 38.3939 45.8279" fill="#351C17"/>
<path d="M31.6144 26.2876H38.5267C39.0922 26.2876 39.5434 26.3478 39.5434 26.426C39.5434 26.5042 39.0922 26.5583 38.5267 26.5583H31.6144C31.0489 26.5583 30.5977 26.4982 30.5977 26.426C30.5977 26.3538 31.0489 26.2876 31.6144 26.2876Z" fill="#B7826A"/>
<path d="M30.5852 28.2491H39.555C40.001 28.2038 40.4515 28.2509 40.8785 28.3875C40.45 28.5168 40.0006 28.5618 39.555 28.5199H30.5852C30.1396 28.5618 29.6902 28.5168 29.2617 28.3875C29.6887 28.2509 30.1392 28.2038 30.5852 28.2491Z" fill="#B7826A"/>
<path d="M26.5553 31.943C26.5132 31.9008 26.7538 31.5218 27.2893 31.2511C27.8786 30.9857 28.549 30.9641 29.1542 31.191C29.4826 31.2855 29.7796 31.4662 30.0145 31.7144C30.1168 31.8407 30.0867 31.9069 30.0145 31.967C29.9889 32.0033 29.9513 32.0293 29.9083 32.0404C29.8653 32.0514 29.8197 32.0467 29.7799 32.0272C29.6355 31.9971 29.4069 31.8648 28.9497 31.7023C28.4566 31.5103 27.9156 31.4788 27.4036 31.6121C26.9223 31.7444 26.5914 32.0031 26.5312 31.943" fill="#351C17"/>
<path d="M44.0799 31.9667C44.0137 32.0208 43.7189 31.702 43.2256 31.5636C42.9596 31.5016 42.685 31.4853 42.4135 31.5155C42.1375 31.5548 41.8656 31.6193 41.6013 31.708C41.1201 31.8764 40.8674 31.9968 40.717 32.0208C40.5666 32.0449 40.5185 32.0208 40.4764 31.9426C40.4342 31.8644 40.4102 31.8103 40.5245 31.6899C40.7848 31.4558 41.0957 31.2849 41.4329 31.1906C41.738 31.0884 42.0559 31.0297 42.3774 31.0162C42.7137 31.0091 43.0477 31.0726 43.358 31.2026C43.9596 31.4854 44.134 31.9366 44.0799 31.9667Z" fill="#351C17"/>
<path d="M35.965 42.4649C35.965 42.5191 35.574 42.6274 34.9182 42.5191C34.5181 42.4499 34.1475 42.2636 33.8534 41.9837C33.6795 41.8009 33.5498 41.5807 33.4744 41.3399C33.4086 41.0868 33.3902 40.8237 33.4203 40.5639C33.5492 39.7205 33.8524 38.9133 34.3106 38.1936C34.6415 37.6522 34.9122 37.3514 34.9543 37.3815C34.9964 37.4115 34.84 37.7725 34.5813 38.338C34.2301 39.0526 33.9849 39.8146 33.8534 40.6C33.8198 40.7944 33.8282 40.9938 33.878 41.1847C33.9278 41.3756 34.0179 41.5537 34.1422 41.7069C34.3768 41.9467 34.6688 42.1227 34.9904 42.2183C35.3205 42.2784 35.6461 42.3608 35.965 42.4649Z" fill="#351C17"/>
<path d="M39.8697 46.652C39.645 46.16 39.4657 45.6485 39.3343 45.1239C39.1538 44.5223 39.2019 44.4802 39.2861 44.4501C39.3704 44.4201 39.4546 44.4501 39.6411 45.0517C39.8238 45.5644 39.9015 46.1086 39.8697 46.652Z" fill="#DBA183"/>
<path d="M30.3266 46.7243C30.3021 46.1375 30.3983 45.5518 30.6094 45.0037C30.8139 44.354 30.8982 44.348 30.9824 44.4021C31.0666 44.4563 31.1147 44.4864 30.9102 45.124C30.7508 45.6799 30.5497 46.2228 30.3086 46.7484" fill="#DBA183"/>
<path d="M45.6677 19.7245C45.6677 19.7245 43.129 24.2244 33.4012 24.5373C23.6734 24.8501 21.0625 22.7325 21.0625 22.7325C21.0625 22.7325 36.8844 17.8656 45.6677 19.7245Z" fill="#636363"/>
<path d="M28.4689 13.0465C28.4689 13.0465 28.6013 12.9141 28.884 12.7397C29.2815 12.4874 29.6978 12.2661 30.1293 12.0779C31.5484 11.4195 33.0794 11.0357 34.6413 10.9469C36.2057 10.8497 37.7742 11.0539 39.2615 11.5485C39.8914 11.7069 40.4801 11.9982 40.9881 12.4028C40.9881 12.4629 40.3023 12.1381 39.1833 11.8493C37.7139 11.4546 36.1896 11.3042 34.6713 11.4041C33.1535 11.4865 31.6587 11.8115 30.2436 12.3667C29.6841 12.5411 29.269 12.7758 28.9562 12.8901C28.6434 13.0044 28.4749 13.0705 28.4629 13.0465" fill="#FFEEF4"/>
<path d="M23.0234 20.8129C23.1248 20.5936 23.2587 20.3908 23.4205 20.2113C23.5709 20.0248 23.7454 19.7962 23.9439 19.5375L24.756 18.7555C26.4069 17.3292 28.3222 16.2417 30.393 15.555C32.4481 14.8652 34.5792 14.4268 36.7398 14.2495C37.6301 14.1291 38.5326 14.1291 39.4229 14.2495C39.4229 14.3097 38.4062 14.3518 36.7759 14.5624C34.6553 14.8292 32.5658 15.3027 30.5373 15.9761C28.5176 16.6467 26.6303 17.6646 24.9606 18.9841L24.1244 19.706L23.5528 20.3076C23.234 20.6385 23.0475 20.8189 23.0234 20.8009" fill="#FFEEF4"/>
<path d="M28.6133 21.5776C28.8256 21.5001 29.0491 21.4574 29.275 21.4512C29.7022 21.3911 30.3158 21.373 31.0798 21.2347C33.0479 20.9733 34.9757 20.4681 36.819 19.7307C38.666 19.0059 40.4175 18.0584 42.0348 16.9092C43.2801 16.0309 43.9599 15.3631 44.0021 15.4052C43.5104 16.0923 42.8991 16.6854 42.1973 17.1558C40.6073 18.4096 38.8418 19.4231 36.9574 20.1638C35.0812 20.9161 33.1051 21.3904 31.0918 21.5715C30.4925 21.6352 29.8897 21.6613 29.2871 21.6498C29.0633 21.6695 28.8379 21.6533 28.6193 21.6016" fill="#FFEEF4"/>
</g>
</svg>
