<svg width="70" height="70" viewBox="0 0 70 70" fill="none" xmlns="http://www.w3.org/2000/svg">
<mask id="mask0_260_10619" style="mask-type:alpha" maskUnits="userSpaceOnUse" x="0" y="0" width="70" height="70">
<circle cx="35" cy="35" r="35" fill="#F3ECDA"/>
</mask>
<g mask="url(#mask0_260_10619)">
<path d="M45.8848 13.4999C45.8848 13.4999 45.8848 9 36.2111 9C26.5375 9 23.2889 12.2667 20.1726 16.3274C17.0564 20.3882 16.4668 24.094 16.4668 30.6995V47.8269C16.4668 51.4365 18.2716 55.5213 27.6444 55.5213H43.9717C49.7771 55.5213 53.1881 51.9659 53.1881 48.26V27.505C53.1881 20.8273 51.5939 14.0053 45.8607 13.4999" fill="#2B2B2B"/>
<path d="M45.9687 54.4805H23.5653C22.3139 54.4758 21.0739 54.7176 19.9159 55.1921C18.7579 55.6666 17.7048 56.3645 16.8166 57.246C15.9283 58.1276 15.2224 59.1754 14.7392 60.3297C14.2559 61.4841 14.0047 62.7223 14 63.9737L14 76.4207H55.51V63.9737C55.5004 61.4506 54.4906 59.0342 52.702 57.2546C50.9133 55.4749 48.4919 54.4773 45.9687 54.4805Z" fill="#FFA9E0"/>
<path d="M42.6422 54.4805H26.2969C27.0068 57.9757 29.5635 63.6067 34.8997 63.7931C36.542 64.3947 42.1188 60.0813 42.6422 54.4805Z" fill="#FFEEF4"/>
<path d="M34.827 61.6879C36.0783 62.1511 40.7767 58.7401 40.4699 54.4688H28.6426C28.7268 56.4901 29.6593 60.0215 34.827 61.6879Z" fill="#F4CFA2"/>
<path d="M37.4203 49.1323H31.1035V54.5768H37.4203V49.1323Z" fill="#F4CFA2"/>
<path d="M35.5192 53.8789C36.2015 53.6789 36.8445 53.3635 37.4203 52.9464V49.1323H31.1035V53.6142C32.2345 54.3301 34.5747 54.1617 35.5192 53.8789Z" fill="#DBA183"/>
<path d="M22.7104 34.0383C22.7104 34.0383 22.8247 30.8498 20.304 30.7476C17.7833 30.6453 16.159 33.7555 17.4585 37.5757C18.7579 41.3958 23.4744 39.8858 23.4142 38.448C23.2606 36.9663 23.0257 35.4942 22.7104 34.0383Z" fill="#DBA183"/>
<path d="M45.7396 34.2305C45.7396 34.2305 46.4855 30.8977 48.9822 30.7954C51.4788 30.6931 52.9045 33.8455 51.6232 37.6596C50.3418 41.4737 45.6493 39.9456 45.7275 38.5259C45.8057 37.1061 45.7275 34.2305 45.7275 34.2305" fill="#DBA183"/>
<path d="M44.2369 20.6171C43.4549 20.1237 25.4131 20.1237 24.631 20.6171C23.145 21.5555 22.2246 24.2266 22.2246 26.3803V40.963C22.2246 47.7129 27.6931 51.4548 34.449 51.4548C41.2049 51.4548 46.6734 47.7129 46.6734 40.963V26.3743C46.6734 24.2086 45.7409 21.5616 44.267 20.6171" fill="#F4CFA2"/>
<path d="M24.5343 28.2092C26.0262 28.2092 27.5422 28.2814 29.0101 28.1671C31.3104 28.0711 33.5965 27.7589 35.8382 27.2346C37.643 26.7533 39.2733 25.9773 40.9939 25.3396C41.0559 25.3225 41.1218 25.3262 41.1816 25.3501C41.2413 25.374 41.2916 25.4168 41.3248 25.4719C42.1369 27.012 44.3869 30.7058 46.6609 31.4518V26.3743C46.6609 24.2086 45.7284 21.5616 44.2545 20.6171C43.4724 20.1237 25.4306 20.1237 24.6486 20.6171C23.1626 21.5555 22.2422 24.2266 22.2422 26.3803V28.0768C23.0016 28.1801 23.768 28.2244 24.5343 28.2092Z" fill="#DBA183"/>
<path d="M18.92 33.8035C18.92 33.8035 18.8598 33.5929 19.0945 33.3041C19.1731 33.2278 19.2683 33.1707 19.3727 33.1373C19.477 33.1039 19.5877 33.0951 19.6961 33.1116C19.8361 33.1242 19.9696 33.1763 20.0811 33.262C20.2013 33.3491 20.3069 33.4547 20.3939 33.5749C20.7526 34.1175 20.9831 34.7347 21.0677 35.3796C21.1252 35.7504 21.1252 36.1278 21.0677 36.4986C21.0415 36.7094 20.9762 36.9134 20.8752 37.1002C20.8193 37.2144 20.7342 37.3118 20.6286 37.3826C20.5229 37.4534 20.4005 37.495 20.2736 37.5033C20.156 37.4976 20.0412 37.4661 19.9372 37.411C19.8332 37.3559 19.7427 37.2785 19.672 37.1844C19.5588 37.0486 19.4749 36.8909 19.4253 36.7212C19.3345 36.4457 19.3345 36.1484 19.4253 35.8729C19.4652 35.7626 19.5316 35.6637 19.6187 35.585C19.7058 35.5063 19.8108 35.4503 19.9247 35.4218C20.0618 35.3959 20.2026 35.3959 20.3398 35.4218C20.7489 35.5 20.7368 35.5962 20.7248 35.6383C20.7128 35.6804 20.6706 35.7165 20.3217 35.7225C20.1593 35.7225 19.8765 35.7526 19.7923 36.0294C19.7327 36.2255 19.7327 36.4349 19.7923 36.631C19.8525 36.8415 20.051 37.1122 20.2375 37.1122C20.424 37.1122 20.5864 36.7874 20.6225 36.5106C20.6677 36.1833 20.6677 35.8513 20.6225 35.524C20.5595 34.9284 20.3774 34.3514 20.0871 33.8275C19.9875 33.6385 19.8197 33.4944 19.6179 33.4245C19.5419 33.4002 19.4616 33.393 19.3825 33.4034C19.3035 33.4138 19.2277 33.4416 19.1606 33.4846C18.9381 33.6531 18.8899 33.8636 18.8418 33.8576" fill="#351C17"/>
<path d="M42.8339 32.7567C42.888 32.7567 42.888 32.9553 42.7677 33.2079C42.6086 33.5045 42.3632 33.7458 42.0639 33.8998C41.8831 34.0095 41.6734 34.0619 41.4623 34.0502C41.4457 34.0494 41.4294 34.0453 41.4144 34.0383C41.3993 34.0312 41.3858 34.0212 41.3747 34.0089C41.3635 33.9966 41.3548 33.9823 41.3492 33.9666C41.3436 33.951 41.3411 33.9344 41.3419 33.9178C41.3419 33.7794 41.3419 33.7554 41.8714 33.5207C42.0986 33.3919 42.3021 33.225 42.4729 33.0274C42.6233 32.859 42.7256 32.7266 42.8098 32.7567" fill="#351C17"/>
<path d="M41.4818 38.8455C41.4157 38.7854 41.7165 38.3643 42.0834 38.0033C42.4504 37.6423 42.4865 37.6845 42.5527 37.7446C42.6189 37.8048 42.661 37.8649 42.3181 38.2259C41.9751 38.5869 41.6022 38.9298 41.5059 38.8275" fill="#DBA183"/>
<path d="M42.6654 38.9412C42.5993 38.8811 42.9001 38.46 43.267 38.099C43.634 37.738 43.6701 37.7802 43.7363 37.8403C43.8024 37.9005 43.8446 37.9606 43.5016 38.3216C43.1587 38.6826 42.7858 39.0255 42.6895 38.9232" fill="#DBA183"/>
<path d="M25.4662 38.8695C25.4 38.8093 25.7008 38.3882 26.0678 38.0272C26.4348 37.6663 26.4709 37.7084 26.5371 37.7685C26.6032 37.8287 26.6453 37.8889 26.3024 38.2498C25.9595 38.6108 25.5865 38.9537 25.4903 38.8514" fill="#DBA183"/>
<path d="M26.6342 38.9652C26.568 38.905 26.8688 38.4839 27.2358 38.1229C27.6028 37.762 27.6388 37.8041 27.705 37.8642C27.7712 37.9244 27.8133 37.9846 27.4704 38.3455C27.1275 38.7065 26.7485 39.0795 26.6342 38.9652Z" fill="#DBA183"/>
<path d="M42.1661 34.4713C42.1661 33.4847 41.7991 32.6665 41.3419 32.6665C40.8847 32.6665 40.5117 33.4666 40.5117 34.4713C40.5117 35.4759 40.8847 36.2761 41.3419 36.2761C41.7991 36.2761 42.1661 35.4759 42.1661 34.4713Z" fill="#351C17"/>
<path d="M26.6871 32.7567C26.6329 32.7567 26.6329 32.9553 26.7533 33.2079C26.9123 33.5045 27.1578 33.7458 27.4571 33.8998C27.6379 34.0095 27.8476 34.0619 28.0587 34.0502C28.0753 34.0494 28.0916 34.0453 28.1066 34.0383C28.1217 34.0312 28.1352 34.0212 28.1463 34.0089C28.1575 33.9966 28.1662 33.9823 28.1718 33.9666C28.1774 33.951 28.1799 33.9344 28.179 33.9178C28.179 33.7794 28.179 33.7554 27.6436 33.5207C27.417 33.391 27.2136 33.2243 27.042 33.0274C26.8916 32.859 26.7894 32.7266 26.7051 32.7567" fill="#351C17"/>
<path d="M27.3555 34.4713C27.3555 33.4847 27.7224 32.6665 28.1797 32.6665C28.6369 32.6665 29.0399 33.4847 29.0399 34.4713C29.0399 35.4579 28.6669 36.2761 28.2097 36.2761C27.7525 36.2761 27.3855 35.4759 27.3855 34.4713" fill="#351C17"/>
<path d="M34.4897 41.3655C34.4476 41.4016 34.2852 41.2632 34.0626 41.0166C33.9309 40.8698 33.8084 40.7151 33.6956 40.5533C33.5352 40.3542 33.4036 40.1334 33.3046 39.8976C33.2889 39.8422 33.285 39.7841 33.2933 39.727C33.3016 39.67 33.3219 39.6154 33.3527 39.5667C33.3889 39.5064 33.4313 39.4499 33.4791 39.3983C33.5607 39.3076 33.6471 39.2212 33.7378 39.1396C33.888 39.0115 34.0446 38.891 34.207 38.7786C34.4837 38.5861 34.6762 38.4959 34.7063 38.538C34.7364 38.5801 34.6101 38.7425 34.3815 38.9832L33.9844 39.3923C33.9122 39.4705 33.834 39.5547 33.7678 39.6389C33.734 39.676 33.7037 39.7163 33.6776 39.7592C33.846 40.1443 34.1348 40.5533 34.2792 40.8361C34.4236 41.1188 34.5319 41.3114 34.4897 41.3414" fill="#351C17"/>
<path d="M25.9051 30.3142C25.8449 30.3142 25.9833 29.863 26.5067 29.496C26.8327 29.284 27.2038 29.1512 27.5903 29.1084C27.9769 29.0656 28.3681 29.1139 28.7326 29.2494C29.198 29.4147 29.6013 29.7193 29.8876 30.1217C30.0019 30.3082 29.9598 30.3503 29.8876 30.3864C29.8154 30.4225 29.7974 30.4405 29.641 30.3262C29.3154 30.0476 28.9505 29.8185 28.5581 29.6464C28.2497 29.5361 27.9221 29.4898 27.5952 29.5105C27.2683 29.5312 26.9491 29.6184 26.6571 29.7668C26.1698 30.0194 25.9532 30.3684 25.875 30.3142" fill="#351C17"/>
<path d="M43.4415 30.3625C43.3873 30.3926 43.2009 30.0256 42.7015 29.7609C42.4099 29.5931 42.0839 29.494 41.7482 29.471C41.4126 29.4481 41.0761 29.502 40.7644 29.6286C40.3488 29.7987 39.9466 29.9998 39.5612 30.2302C39.3807 30.3264 39.3386 30.2963 39.2965 30.2302C39.2544 30.164 39.2303 30.1339 39.3687 29.9715C39.7084 29.6238 40.1187 29.353 40.5719 29.1774C40.9474 29.0221 41.3566 28.966 41.7601 29.0145C42.1636 29.0629 42.5479 29.2143 42.876 29.4541C43.4054 29.8451 43.5257 30.3144 43.4475 30.3445" fill="#351C17"/>
<path d="M50.3781 33.6653C50.3781 33.6653 50.3119 33.4788 50.0893 33.2923C50.0073 33.2427 49.9154 33.2114 49.8201 33.2008C49.7248 33.1901 49.6283 33.2003 49.5373 33.2307C49.4464 33.261 49.3631 33.3107 49.2932 33.3764C49.2234 33.4421 49.1686 33.5222 49.1328 33.6112C48.8352 34.1389 48.6508 34.7228 48.5913 35.3257C48.5431 35.6549 48.5431 35.9892 48.5913 36.3184C48.6274 36.6252 48.8139 36.9801 48.9764 36.92C49.1388 36.8598 49.3614 36.6492 49.4215 36.4387C49.4811 36.2426 49.4811 36.0332 49.4215 35.8371C49.3373 35.5664 49.0546 35.5483 48.8921 35.5303C48.5432 35.5303 48.5131 35.5303 48.4891 35.4521C48.465 35.3739 48.4891 35.3077 48.8741 35.2295C49.0133 35.2035 49.156 35.2035 49.2952 35.2295C49.4075 35.2617 49.5106 35.3199 49.5963 35.3993C49.682 35.4788 49.7478 35.5772 49.7885 35.6867C49.8794 35.9601 49.8794 36.2555 49.7885 36.5289C49.7391 36.7005 49.6552 36.8602 49.5419 36.9982C49.4715 37.0921 49.3809 37.169 49.2767 37.2232C49.1726 37.2773 49.0576 37.3073 48.9403 37.311C48.8135 37.3022 48.6913 37.2603 48.5858 37.1896C48.4803 37.1189 48.3951 37.0218 48.3387 36.9079C48.2358 36.7219 48.1703 36.5175 48.1462 36.3063C48.0919 35.9394 48.0919 35.5664 48.1462 35.1994C48.2296 34.556 48.4557 33.9394 48.8079 33.3946C48.8835 33.2695 48.9838 33.1612 49.1028 33.0764C49.2218 32.9916 49.3569 32.932 49.4998 32.9013C49.6146 32.8773 49.7335 32.8811 49.8466 32.9125C49.9596 32.9439 50.0635 33.002 50.1495 33.0818C50.4082 33.3706 50.36 33.6052 50.33 33.6112" fill="#351C17"/>
<path d="M37.6918 44.6321C37.6918 44.6321 37.6918 44.7525 37.6557 44.9329C37.5505 45.2027 37.3577 45.4294 37.1083 45.5766C36.2902 45.9378 35.3947 46.0888 34.5034 46.0158C33.5973 46.0919 32.693 45.8493 31.9466 45.33C31.3932 44.8668 31.345 44.3855 31.3932 44.3795C31.4413 44.3735 31.6097 44.7464 32.1331 45.0833C32.8589 45.4736 33.6822 45.6449 34.5034 45.5766C35.3332 45.6386 36.1674 45.5468 36.9639 45.3059C37.5053 45.0472 37.6197 44.59 37.6918 44.6321Z" fill="#351C17"/>
<path d="M21.3333 26.3442C21.3333 26.3442 34.3217 28.8108 43.1049 22.2354C43.1049 22.2354 42.9606 28.0407 47.3823 29.3462C51.804 30.6517 52.6823 20.4667 44.6811 17.7836C39.4155 16.1041 33.9571 15.1034 28.4381 14.8057C28.4381 14.8057 21.3994 17.7114 21.3272 17.9279C21.2551 18.1445 20.3105 21.4834 20.3105 21.4834L21.3333 26.3442Z" fill="#2B2B2B"/>
<path d="M39.7304 16.3274C40.7771 14.7993 37.8835 15.5092 37.1375 15.6776C36.2087 15.8797 35.2943 16.143 34.4002 16.4657C34.3382 16.4818 34.2726 16.4776 34.2131 16.4538C34.1536 16.43 34.1032 16.3878 34.0694 16.3334C33.1549 14.667 31.3983 15.076 30.1109 16.0025C30.0436 16.0398 29.9645 16.0493 29.8903 16.0291C29.8161 16.0089 29.7528 15.9605 29.7138 15.8942C29.0521 14.7873 27.7707 14.7692 26.4712 15.2926C26.473 15.3694 26.4453 15.444 26.3939 15.5011C26.3424 15.5581 26.2711 15.5933 26.1945 15.5994C25.8695 15.647 25.5569 15.7573 25.2741 15.9243C23.8062 16.8868 22.5729 18.3788 22.5669 19.5339C22.569 19.5884 22.5539 19.6421 22.5236 19.6875C22.4934 19.7329 22.4496 19.7675 22.3984 19.7865C22.4727 20.026 22.6199 20.2364 22.8196 20.3881C24.2995 21.5913 26.9826 19.7865 28.4384 19.2451C28.7392 19.1248 28.8836 19.5278 28.7212 19.7264C28.3676 20.2061 28.0821 20.7325 27.8729 21.2905C29.9605 22.4576 32.3608 20.5686 34.1777 19.5639C34.2332 19.5353 34.2964 19.5251 34.3581 19.5347C34.4198 19.5444 34.4769 19.5734 34.5211 19.6175C34.5653 19.6617 34.5943 19.7188 34.6039 19.7805C34.6135 19.8423 34.6033 19.9054 34.5747 19.961C34.322 20.4062 33.8287 21.3086 34.7191 21.3507C35.2028 21.3719 35.6871 21.3233 36.1569 21.2063C37.0777 20.9885 37.9822 20.7071 38.8641 20.3641C41.1922 19.4737 43.9897 18.1261 44.8138 15.6054C43.1354 15.6054 41.6495 16.207 40.0612 16.7545C40.0056 16.7685 39.9471 16.7661 39.8929 16.7474C39.8387 16.7287 39.7911 16.6945 39.756 16.6492C39.7209 16.6039 39.6998 16.5493 39.6952 16.4921C39.6907 16.4349 39.7029 16.3777 39.7304 16.3274Z" fill="#353535"/>
</g>
</svg>
