<svg width="70" height="70" viewBox="0 0 70 70" fill="none" xmlns="http://www.w3.org/2000/svg">
<mask id="mask0_260_10580" style="mask-type:alpha" maskUnits="userSpaceOnUse" x="0" y="0" width="70" height="70">
<circle cx="35" cy="35" r="35" fill="#F3ECDA"/>
</mask>
<g mask="url(#mask0_260_10580)">
<path d="M45.9687 52.5855H23.5653C22.3139 52.5808 21.0739 52.8226 19.9159 53.2971C18.7579 53.7716 17.7048 54.4695 16.8166 55.351C15.9283 56.2326 15.2224 57.2804 14.7392 58.4347C14.2559 59.5891 14.0047 60.8273 14 62.0787L14 75.6928H55.51V62.0787C55.5053 60.8273 55.2541 59.5891 54.7708 58.4347C54.2876 57.2804 53.5817 56.2326 52.6934 55.351C51.8052 54.4695 50.7521 53.7716 49.5941 53.2971C48.4361 52.8226 47.196 52.5808 45.9446 52.5855" fill="#B5DAE5"/>
<path d="M28.9973 56.4841C28.9973 56.4841 30.5013 61.6578 35.3381 61.6578C40.1749 61.6578 41.5766 56.3878 41.5766 56.3878L41.2879 54.9861L33.5935 54.1198C33.5935 54.1198 27.74 53.44 28.9973 56.4901" fill="#C8CBCE"/>
<path d="M29.6417 59.4315L33.125 57.0252H36.9812C36.9812 57.0252 39.5981 58.3306 40.7592 59.6902C42.2308 58.046 43.0819 55.9394 43.1656 53.7344C43.2257 50.191 39.8688 48.1035 35.6577 48.1035C31.4465 48.1035 27.3918 49.7158 27.0489 52.9945C26.9182 54.1979 27.0864 55.415 27.5387 56.5379C27.991 57.6608 28.7134 58.6547 29.6417 59.4315Z" fill="#FFEEF4"/>
<path d="M22.6819 40.0844C23.7253 40.5927 24.9066 40.7448 26.0448 40.5175C29.0389 40.0027 32.0729 39.7551 35.1108 39.7776C38.1468 39.7553 41.1787 40.003 44.1708 40.5175C45.309 40.7453 46.4905 40.5931 47.5338 40.0844C48.4589 39.6689 49.2423 38.992 49.7875 38.1368C50.3327 37.2816 50.6157 36.2857 50.6019 35.2716V21.2063C50.6019 14.1376 43.6655 9 35.1108 9C26.5562 9 19.6138 14.1376 19.6138 21.2063V35.2656C19.5999 36.2797 19.883 37.2756 20.4282 38.1308C20.9733 38.9859 21.7567 39.6629 22.6819 40.0784" fill="#898989"/>
<path d="M38.3831 50.0469H32.0664V55.4913H38.3831V50.0469Z" fill="#DBA183"/>
<path d="M23.2518 34.4719C23.2518 34.4719 23.3601 31.2835 20.8936 31.1812C18.4271 31.0789 16.8268 34.1531 18.0962 38.0033C19.3655 41.8535 24.0098 40.3134 23.9377 38.8816C23.7877 37.4005 23.5587 35.9286 23.2518 34.4719Z" fill="#DBA183"/>
<path d="M46.9559 34.6341C46.9559 34.6341 46.8476 31.4817 49.3622 31.3795C51.8769 31.2772 53.4651 34.3213 52.1837 38.1354C50.9023 41.9495 46.2099 40.4274 46.2821 39.0017C46.4346 37.5341 46.6675 36.0761 46.9799 34.6341" fill="#DBA183"/>
<path d="M44.7652 21.6336C44.3737 21.3894 43.9371 21.2263 43.4814 21.154C43.0257 21.0816 42.5601 21.1015 42.1122 21.2125C39.759 21.7106 37.3585 21.9506 34.9532 21.9283C32.546 21.9511 30.1434 21.711 27.7882 21.2125C27.3403 21.1015 26.8747 21.0816 26.419 21.154C25.9633 21.2263 25.5267 21.3894 25.1352 21.6336C24.3533 22.1342 23.7184 22.8336 23.2956 23.6603C22.8727 24.4869 22.6772 25.411 22.7288 26.338V40.0664C22.7288 46.9667 28.2093 51.984 34.9713 51.984C41.7332 51.984 47.2077 46.9667 47.2077 40.0664V26.338C47.2583 25.412 47.0622 24.4891 46.6394 23.6636C46.2166 22.8382 45.5823 22.1397 44.8013 21.6396" fill="#F4CFA2"/>
<path d="M27.8848 34.9164C27.8848 34.1644 28.2517 33.5508 28.709 33.5508C29.1662 33.5508 29.5331 34.1524 29.5331 34.9164C29.5331 35.6804 29.1662 36.288 28.709 36.288C28.2517 36.288 27.8848 35.6864 27.8848 34.9164Z" fill="#351C17"/>
<path d="M42.7026 34.9164C42.7026 34.1644 42.3296 33.5508 41.8724 33.5508C41.4152 33.5508 41.0723 34.1644 41.0723 34.9164C41.0723 35.6684 41.4453 36.288 41.8964 36.288C42.3476 36.288 42.7266 35.6864 42.7266 34.9164" fill="#351C17"/>
<path d="M25.4787 36.83C25.4787 36.7457 26.0262 36.7337 26.5435 36.83C27.0609 36.9262 27.0609 36.9623 27.0489 37.0465C27.0369 37.1308 27.0188 37.209 26.5014 37.1428C25.9841 37.0766 25.4667 36.9924 25.4787 36.86" fill="#DBA183"/>
<path d="M25.5742 38.129C25.5742 38.0387 26.0615 37.9064 26.5548 37.8462C27.0481 37.7861 27.0662 37.8462 27.0782 37.9485C27.0902 38.0508 27.0782 38.1049 26.5909 38.1651C26.1036 38.2252 25.5923 38.2553 25.5742 38.129Z" fill="#DBA183"/>
<path d="M19.4148 34.1345C19.4148 34.1345 19.3547 33.9239 19.5953 33.6412C19.6728 33.563 19.7677 33.5042 19.8723 33.4697C19.9769 33.4352 20.0881 33.4259 20.1969 33.4427C20.3372 33.4616 20.4711 33.5131 20.588 33.5931C20.7063 33.6803 20.8098 33.7859 20.8948 33.9059C21.2608 34.4586 21.4935 35.0888 21.5746 35.7468C21.626 36.116 21.626 36.4905 21.5746 36.8597C21.5434 37.0694 21.4784 37.2725 21.3821 37.4613C21.3267 37.5759 21.2417 37.6737 21.136 37.7445C21.0302 37.8154 20.9075 37.8567 20.7805 37.8644C20.6631 37.8607 20.5481 37.8307 20.444 37.7765C20.3399 37.7224 20.2492 37.6455 20.1789 37.5515C20.0638 37.4138 19.9779 37.2542 19.9262 37.0823C19.8383 36.8084 19.8383 36.5139 19.9262 36.2401C19.965 36.1301 20.0304 36.0315 20.1164 35.9528C20.2025 35.8741 20.3066 35.8178 20.4195 35.7889C20.5564 35.7605 20.6977 35.7605 20.8346 35.7889C21.2497 35.8671 21.2317 35.9633 21.2196 36.0115C21.2076 36.0596 21.2196 36.0716 20.8587 36.0716C20.6962 36.0716 20.4135 36.1077 20.3293 36.3784C20.2737 36.5751 20.2737 36.7833 20.3293 36.98C20.3954 37.1846 20.594 37.4613 20.7744 37.4553C20.9549 37.4493 21.1234 37.1304 21.1655 36.8537C21.2136 36.5266 21.2136 36.1942 21.1655 35.8671C21.1081 35.2703 20.9256 34.6922 20.6301 34.1706C20.5834 34.075 20.5177 33.99 20.437 33.9207C20.3563 33.8514 20.2623 33.7993 20.1608 33.7675C20.0855 33.7415 20.0052 33.7329 19.926 33.7423C19.8469 33.7517 19.7708 33.7788 19.7036 33.8217C19.481 33.9901 19.4329 34.2067 19.3848 34.1947" fill="#351C17"/>
<path d="M45.0599 36.7392C45.0599 36.8234 44.5786 37.0159 44.0793 37.1422C43.5799 37.2686 43.5438 37.1964 43.5258 37.1122C43.5077 37.0279 43.5258 36.9497 44.001 36.8294C44.4763 36.7091 45.0238 36.6128 45.0599 36.7392Z" fill="#DBA183"/>
<path d="M45.0793 38.1473C45.0793 38.2315 44.5499 38.2435 44.0566 38.1834C43.5633 38.1232 43.5633 38.051 43.5753 37.9668C43.5873 37.8826 43.6054 37.8043 44.0987 37.8645C44.592 37.9247 45.0913 38.0149 45.0793 38.1473Z" fill="#DBA183"/>
<path d="M50.9194 34.0804C50.9194 34.0804 50.8533 33.8939 50.6307 33.7074C50.5486 33.6578 50.4568 33.6265 50.3615 33.6159C50.2662 33.6052 50.1697 33.6154 50.0787 33.6458C49.9877 33.6761 49.9044 33.7258 49.8346 33.7915C49.7647 33.8572 49.71 33.9373 49.6741 34.0263C49.3765 34.554 49.1922 35.1379 49.1327 35.7408C49.0876 36.0722 49.0876 36.4081 49.1327 36.7395C49.1748 37.0403 49.3613 37.3952 49.5237 37.3411C49.6862 37.2869 49.9088 37.0704 49.9689 36.8598C50.0285 36.6637 50.0285 36.4543 49.9689 36.2582C49.8847 35.9875 49.602 35.9694 49.4395 35.9514C49.0906 35.9514 49.0545 35.9514 49.0365 35.8732C49.0184 35.795 49.0365 35.7288 49.4215 35.6506C49.5584 35.622 49.6997 35.622 49.8366 35.6506C49.9504 35.6791 50.0555 35.7352 50.1426 35.8139C50.2296 35.8925 50.296 35.9914 50.3359 36.1018C50.4267 36.3752 50.4267 36.6706 50.3359 36.944C50.2865 37.1156 50.2025 37.2753 50.0892 37.4133C50.0183 37.5066 49.9275 37.583 49.8235 37.6371C49.7195 37.6912 49.6048 37.7216 49.4876 37.7261C49.3604 37.7191 49.2374 37.678 49.1316 37.607C49.0257 37.5361 48.9409 37.438 48.8861 37.323C48.7834 37.1369 48.718 36.9326 48.6935 36.7214C48.636 36.3527 48.636 35.9772 48.6935 35.6085C48.7726 34.9547 48.9988 34.3273 49.3553 33.7736C49.4445 33.6594 49.5562 33.5646 49.6835 33.4953C49.8107 33.426 49.9509 33.3835 50.0953 33.3706C50.2101 33.3465 50.329 33.3504 50.4421 33.3818C50.5551 33.4132 50.659 33.4712 50.745 33.551C51.0037 33.8398 50.9555 34.0744 50.9255 34.0804" fill="#351C17"/>
<path d="M38.4183 44.5784C38.4183 44.5784 38.4183 44.6987 38.3762 44.8792C38.2674 45.1506 38.0703 45.3774 37.8167 45.5229C36.9717 45.8865 36.0504 46.0373 35.1336 45.9621C34.2028 46.0406 33.2731 45.7986 32.4986 45.2763C31.9271 44.813 31.8609 44.3318 31.9271 44.3258C31.9933 44.3197 32.1437 44.6927 32.6851 45.0296C33.4376 45.424 34.2871 45.5952 35.1336 45.5229C35.9853 45.5853 36.8412 45.4936 37.6603 45.2522C38.2198 44.9935 38.3401 44.5423 38.4183 44.5784Z" fill="#351C17"/>
<path d="M31.6144 25.0444H38.5267C39.0922 25.0444 39.5494 25.1046 39.5494 25.1768C39.5494 25.249 39.0922 25.3152 38.5267 25.3152H31.6144C31.0489 25.3152 30.5977 25.255 30.5977 25.1768C30.5977 25.0986 31.0489 25.0444 31.6144 25.0444Z" fill="#B7826A"/>
<path d="M30.5851 27.0479H39.5548C40.0008 27.0054 40.4508 27.0524 40.8783 27.1862C40.4515 27.3235 40.0008 27.3707 39.5548 27.3246H30.5851C30.1411 27.3703 29.6924 27.3232 29.2676 27.1862C29.6931 27.0527 30.1411 27.0057 30.5851 27.0479Z" fill="#B7826A"/>
<path d="M26.5552 30.6937C26.513 30.6576 26.7537 30.2725 27.2891 30.0078C27.8776 29.7405 28.548 29.7167 29.154 29.9417C29.4839 30.0368 29.7827 30.2174 30.0203 30.4651C30.1166 30.5974 30.0865 30.6636 30.0203 30.7177C29.9957 30.7551 29.9584 30.7823 29.9153 30.7944C29.8723 30.8066 29.8263 30.8029 29.7857 30.7839C29.6413 30.7538 29.4127 30.6215 28.9555 30.459C28.4631 30.2651 27.9221 30.2314 27.4094 30.3628C26.9281 30.5011 26.5973 30.7598 26.5371 30.6937" fill="#351C17"/>
<path d="M44.08 30.7177C44.0078 30.7779 43.713 30.453 43.2197 30.3146C42.9533 30.2546 42.6787 30.2404 42.4075 30.2725C42.1317 30.3099 41.8599 30.3724 41.5954 30.459C41.1141 30.6335 40.8614 30.7478 40.7111 30.7779C40.5607 30.8079 40.5125 30.7779 40.4704 30.6936C40.4283 30.6094 40.4103 30.5673 40.5185 30.441C40.782 30.2127 41.092 30.0443 41.4269 29.9477C41.732 29.8455 42.05 29.7868 42.3715 29.7732C42.7081 29.7622 43.043 29.8259 43.352 29.9597C43.9536 30.2424 44.1281 30.6936 44.08 30.7177Z" fill="#351C17"/>
<path d="M35.9651 41.2156C35.9651 41.2698 35.5741 41.3841 34.9183 41.2698C34.5177 41.202 34.1468 41.0155 33.8535 40.7343C33.6804 40.551 33.5509 40.331 33.4745 40.0906C33.4085 39.8375 33.3902 39.5744 33.4203 39.3146C33.5492 38.4731 33.8525 37.6678 34.3107 36.9503C34.6416 36.4029 34.9123 36.1021 34.9604 36.1382C35.0086 36.1743 34.8401 36.5232 34.5874 37.0947C34.2323 37.8083 33.985 38.5706 33.8535 39.3567C33.8196 39.5502 33.8279 39.7487 33.8777 39.9387C33.9276 40.1287 34.0178 40.3057 34.1423 40.4576C34.3754 40.6994 34.6679 40.8757 34.9905 40.969C35.3198 41.0326 35.6452 41.1149 35.9651 41.2156Z" fill="#351C17"/>
<path d="M39.8685 45.4026C39.6504 44.9167 39.4792 44.4111 39.3571 43.8926C39.1706 43.291 39.2188 43.2429 39.303 43.2128C39.3872 43.1827 39.4774 43.2128 39.6579 43.8144C39.8363 44.3238 39.908 44.8644 39.8685 45.4026Z" fill="#DBA183"/>
<path d="M30.3266 45.4746C30.3024 44.8878 30.3987 44.3022 30.6094 43.754C30.8139 43.1103 30.9042 43.0983 30.9824 43.1525C31.0606 43.2066 31.1147 43.2367 30.9102 43.8744C30.7578 44.4324 30.5565 44.976 30.3086 45.4987" fill="#DBA183"/>
<path d="M34.5633 13.939C34.6054 13.939 34.5633 14.5767 34.5272 15.5272C34.4904 16.6816 34.5548 17.8371 34.7197 18.9803C34.8245 19.7038 34.9936 20.4165 35.225 21.11C35.3273 21.4168 35.3213 21.4408 35.2912 21.4529C35.2611 21.4649 35.225 21.4529 35.0806 21.1641C34.7924 20.4758 34.6001 19.7511 34.5091 19.0104C34.3436 17.8632 34.2952 16.7022 34.3647 15.5452C34.3707 15.0041 34.4373 14.4653 34.5633 13.939Z" fill="#FFEEF4"/>
<path d="M30.5734 17.0254C30.6458 17.3403 30.6961 17.66 30.7238 17.9819C30.8415 18.6716 31.031 19.347 31.2893 19.9973C31.464 20.4107 31.6649 20.8126 31.8909 21.2005C31.9811 21.3809 31.9691 21.399 31.945 21.417C31.921 21.4351 31.8909 21.4471 31.7645 21.2847C31.4961 20.9149 31.2795 20.5101 31.1208 20.0815C30.8454 19.4234 30.6592 18.7315 30.5674 18.024C30.5062 17.696 30.5062 17.3595 30.5674 17.0314" fill="#FFEEF4"/>
<path d="M27.0537 14.8115C27.0958 14.8115 27.0116 15.365 27.0537 16.1892C27.1122 17.187 27.3528 18.1656 27.7636 19.0768C28.0246 19.6547 28.3495 20.2015 28.7322 20.7071C28.9006 20.9358 28.8946 20.9598 28.8705 20.9839C28.8465 21.0079 28.8164 20.9839 28.6179 20.8034C28.1797 20.3205 27.8258 19.7673 27.5711 19.1671C27.1449 18.2414 26.9135 17.2381 26.8913 16.2193C26.8601 15.746 26.9151 15.2711 27.0537 14.8175" fill="#FFEEF4"/>
<path d="M24.3659 17.5371C24.4056 17.7859 24.4277 18.0372 24.4321 18.2891C24.4911 18.8257 24.646 19.3473 24.8893 19.8292C25.045 20.1365 25.2261 20.4303 25.4307 20.7075C25.515 20.8278 25.5089 20.8519 25.4849 20.876C25.4608 20.9 25.4368 20.9121 25.3164 20.8038C25.0641 20.5523 24.8602 20.2566 24.7148 19.9315C24.4628 19.425 24.3174 18.8721 24.2877 18.3072C24.2549 18.0465 24.288 17.7817 24.384 17.5371" fill="#FFEEF4"/>
<path d="M22.0435 22.5059C22.1036 22.5059 22.2962 22.951 22.603 23.2939C22.9098 23.6369 22.9399 23.5947 22.9158 23.6669C22.8917 23.7391 22.9158 23.7211 22.8195 23.709C22.6631 23.6606 22.5248 23.5663 22.4225 23.4383C22.0796 23.0413 21.9532 22.5299 22.0254 22.5059" fill="#FFEEF4"/>
<path d="M37.1732 17.9697C37.4569 18.6968 37.58 19.4767 37.5341 20.2558C37.5341 21.4048 37.4018 21.4229 37.3597 21.4169C37.3176 21.4108 37.2935 21.3808 37.3236 20.2558C37.3537 19.1308 37.101 18.0058 37.1732 17.9697Z" fill="#FFEEF4"/>
<path d="M40.6631 14.667C40.7188 14.7758 40.7613 14.8909 40.7894 15.0099C40.8871 15.3224 40.9595 15.6423 41.006 15.9664C41.1512 16.9416 41.1512 17.933 41.006 18.9082C40.9266 19.5242 40.7793 20.1294 40.5668 20.713C40.4585 20.9717 40.4284 20.9717 40.3984 20.9657C40.3683 20.9596 40.3562 20.9356 40.3984 20.6649C40.5553 20.0705 40.6799 19.468 40.7713 18.8601C40.909 17.9074 40.9252 16.9412 40.8195 15.9845C40.7292 15.1964 40.5848 14.673 40.633 14.6489" fill="#FFEEF4"/>
<path d="M43.8509 17.5728C43.9316 17.7919 43.9644 18.0257 43.9472 18.2586C43.9551 18.7643 43.9025 19.2692 43.7908 19.7626C43.5321 20.8214 43.4238 20.8214 43.3817 20.7973C43.3396 20.7732 43.3336 20.7492 43.5802 19.7204C43.8269 18.6917 43.7787 17.5908 43.8509 17.5728Z" fill="#FFEEF4"/>
<path d="M46.8645 18.0239C46.9212 18.2917 46.9212 18.5683 46.8645 18.8361C46.8005 19.4326 46.6207 20.011 46.3351 20.5386C46.1641 20.8815 45.9385 21.1944 45.6673 21.465C45.541 21.5793 45.5109 21.5673 45.4929 21.5433C45.4748 21.5192 45.4568 21.5011 45.553 21.3688C45.7724 21.0726 45.9733 20.7632 46.1546 20.4423C46.4259 19.9366 46.6128 19.39 46.7081 18.824C46.7337 18.5528 46.7861 18.2848 46.8645 18.0239Z" fill="#FFEEF4"/>
<path d="M48.6037 21.2365C48.6037 21.2365 48.6037 21.4711 48.4353 21.7659C48.2208 22.1138 47.936 22.4129 47.5991 22.6442C46.8832 23.1375 46.811 23.0533 46.7929 23.0112C46.7749 22.9691 46.7929 22.945 47.4727 22.4697C47.7825 22.2485 48.0582 21.9829 48.2909 21.6816C48.4774 21.429 48.5496 21.2304 48.5917 21.2365" fill="#FFEEF4"/>
<path d="M30.0137 52.6099H40.2709C40.2709 52.6099 39.2662 55.9968 36.9801 57.0135L35.2415 61.706C35.2415 61.706 33.5932 58.4634 33.1119 57.0135C32.2374 56.6397 31.4843 56.0297 30.9371 55.2519C30.3899 54.4741 30.0701 53.5592 30.0137 52.6099Z" fill="#DBA183"/>
</g>
</svg>
