<svg width="70" height="70" viewBox="0 0 70 70" fill="none" xmlns="http://www.w3.org/2000/svg">
<mask id="mask0_260_10538" style="mask-type:alpha" maskUnits="userSpaceOnUse" x="0" y="0" width="70" height="70">
<circle cx="35" cy="35" r="35" fill="#F3ECDA"/>
</mask>
<g mask="url(#mask0_260_10538)">
<path d="M17.1107 52.6471C16.0989 51.6592 15.4035 50.3929 15.113 49.0089C14.8225 47.625 14.95 46.1859 15.4793 44.8746C16.0086 43.5633 16.9158 42.4389 18.0855 41.6444C19.2553 40.8498 20.6349 40.4209 22.049 40.4122C23.463 40.4036 24.8478 40.8154 26.0272 41.5956C27.2067 42.3757 28.1276 43.4888 28.6729 44.7936C29.2183 46.0983 29.3635 47.5357 29.09 48.9231C28.8165 50.3105 28.1368 51.5853 27.1372 52.5855C26.4829 53.248 25.7046 53.7752 24.8466 54.1369C23.9886 54.4985 23.0678 54.6876 22.1367 54.6933C21.2056 54.6991 20.2825 54.5213 19.4201 54.1702C18.5578 53.8191 17.773 53.3015 17.1107 52.6471Z" fill="#636363"/>
<path d="M21.6054 16.2796C21.6054 16.2796 18.1873 17.3944 17.7439 23.2637C17.3005 29.133 17.5222 38.2726 21.4392 40.1325C25.3561 41.9924 46.0249 42.0602 49.1043 40.2803C52.1837 38.5004 52.3684 27.1314 51.4077 21.5577C50.4469 15.984 47.6816 9 34.9761 9C22.2706 9 21.6054 16.2796 21.6054 16.2796Z" fill="#636363"/>
<path d="M45.9455 55.0122H23.5584C22.3026 55.0122 21.0592 55.2596 19.8991 55.7404C18.739 56.2211 17.6851 56.9257 16.7974 57.814C15.9098 58.7022 15.2058 59.7566 14.7258 60.917C14.2458 62.0774 13.9992 63.321 14 64.5768V78.1938H55.51V64.5768C55.51 63.3207 55.2626 62.077 54.7819 60.9166C54.3013 59.7561 53.5968 58.7017 52.7086 57.8136C51.8205 56.9254 50.7661 56.2209 49.6056 55.7403C48.4452 55.2596 47.2015 55.0122 45.9455 55.0122Z" fill="#C8CBCE"/>
<path d="M25.9117 62.1256C33.567 67.6192 34.8296 58.7814 34.8296 58.7814C34.8296 64.7985 45.6012 66.7262 45.0839 59.077C45.0289 57.6995 44.8034 56.3342 44.4126 55.0122H23.5591C23.4174 55.0122 23.2819 55.0122 23.1403 55.0122C21.8469 57.02 22.3889 59.5635 25.9117 62.1009" fill="#FFEEF4"/>
<path d="M23.5584 55.0122C22.3026 55.0122 21.0592 55.2596 19.8991 55.7404C18.739 56.2211 17.6851 56.9257 16.7974 57.814C15.9098 58.7022 15.2058 59.7566 14.7258 60.917C14.2458 62.0774 13.9992 63.321 14 64.5768V78.1938H26.5823V55.0122H23.5584Z" fill="#8B5E3C"/>
<path d="M45.9446 55.0122H42.9453V78.1938H55.5092V64.5768C55.5092 63.3207 55.2618 62.077 54.7811 60.9166C54.3004 59.7561 53.5959 58.7017 52.7078 57.8136C51.8196 56.9254 50.7652 56.2209 49.6048 55.7403C48.4444 55.2596 47.2007 55.0122 45.9446 55.0122Z" fill="#8B5E3C"/>
<path d="M34.3848 60.2656C41.2149 60.2656 42.0155 56.9214 42.0524 55.0122H28.5894C28.2384 56.6381 28.1521 60.2656 34.3848 60.2656Z" fill="#DBA183"/>
<path d="M37.9755 51.9453H31.2871V57.519H37.9755V51.9453Z" fill="#DBA183"/>
<path d="M48.4279 39.239H48.2862C48.0528 39.2012 47.8439 39.0723 47.7053 38.8807C47.5668 38.689 47.5099 38.4502 47.5472 38.2167C47.6272 37.7178 47.7504 37.1512 47.8798 36.523C48.5819 33.1603 49.6473 28.0917 46.9929 22.6104C45.8535 20.2516 43.1683 18.4532 39.4423 17.5479C34.2628 16.3161 28.4304 17.0675 25.2771 19.4448C20.2577 23.2078 20.6026 28.4735 21.0399 35.1434C21.083 35.8332 21.1323 36.5415 21.1692 37.2559C21.1741 37.3736 21.1557 37.4911 21.1152 37.6016C21.0746 37.7122 21.0127 37.8137 20.9329 37.9004C20.8531 37.987 20.7571 38.0571 20.6502 38.1066C20.5433 38.1561 20.4278 38.1841 20.3101 38.189C20.1924 38.1938 20.0749 38.1754 19.9644 38.1349C19.8538 38.0943 19.7523 38.0324 19.6656 37.9526C19.579 37.8728 19.5089 37.7768 19.4594 37.6699C19.4099 37.5631 19.3819 37.4475 19.377 37.3298C19.3401 36.6215 19.2908 35.9195 19.2477 35.2358C18.7981 28.3134 18.404 22.3332 24.1747 17.9913C27.7591 15.3431 34.2012 14.4377 39.8672 15.8111C44.1229 16.852 47.2269 18.989 48.6065 21.8344C51.5257 27.87 50.3864 33.2897 49.6288 36.8741C49.5057 37.4899 49.3887 38.0134 49.3147 38.4877C49.2798 38.6976 49.1714 38.8883 49.009 39.0259C48.8467 39.1635 48.6407 39.239 48.4279 39.239Z" fill="#BF1B37"/>
<path d="M22.6216 36.431C22.6216 36.431 22.7324 33.1668 20.1581 33.0621C17.5837 32.9574 16.0009 36.0984 17.3127 40.0461C18.6246 43.9939 23.4284 42.4111 23.3545 40.9453C23.1927 39.4283 22.9481 37.9212 22.6216 36.431Z" fill="#DBA183"/>
<path d="M47.0102 36.431C47.0102 36.431 46.8993 33.1668 49.4737 33.0621C52.048 32.9574 53.6493 36.0984 52.3375 40.0461C51.0257 43.9939 46.2219 42.4111 46.2958 40.9453C46.4514 39.4286 46.6899 37.9216 47.0102 36.431Z" fill="#DBA183"/>
<path d="M44.6025 24.8526L27.8815 23.0666C24.1554 22.4507 22.123 26.3122 22.123 28.8004V43.2611C22.123 50.3252 27.7829 54.273 34.7547 54.273C41.7264 54.273 47.3863 50.3252 47.3863 43.2611V27.6117C47.3855 27.2475 47.3127 26.8871 47.1722 26.5511C47.0317 26.2151 46.8263 25.9102 46.5676 25.6538C46.309 25.3974 46.0022 25.1947 45.665 25.0572C45.3277 24.9197 44.9667 24.8502 44.6025 24.8526Z" fill="#F4CFA2"/>
<path d="M22.8803 26.916C22.9264 26.8703 22.9858 26.8403 23.0499 26.8304C23.1141 26.8204 23.1797 26.831 23.2375 26.8606C30.1107 31.0485 39.6321 33.6352 47.3798 30.5928V27.6119C47.379 27.2478 47.3063 26.8873 47.1658 26.5513C47.0253 26.2153 46.8198 25.9104 46.5612 25.654C46.3025 25.3977 45.9958 25.1949 45.6585 25.0574C45.3213 24.9199 44.9602 24.8504 44.5961 24.8528L27.875 23.0668C24.6047 22.5248 22.6401 25.4379 22.209 27.846C22.3952 27.5105 22.6205 27.1983 22.8803 26.916Z" fill="#DBA183"/>
<path d="M37.3286 38.9192C37.2834 38.9181 37.239 38.907 37.1986 38.8868C37.1581 38.8665 37.1226 38.8377 37.0946 38.8022C36.8309 38.3918 36.4779 38.0463 36.062 37.7915C35.6461 37.5366 35.178 37.3789 34.6927 37.3302C33.7282 37.4038 32.8288 37.8447 32.1799 38.562C32.1285 38.6216 32.0554 38.6583 31.9769 38.6641C31.8984 38.6699 31.8208 38.6442 31.7611 38.5928C31.7015 38.5413 31.6648 38.4683 31.659 38.3898C31.6532 38.3112 31.6789 38.2336 31.7303 38.174C32.0986 37.7386 32.553 37.3842 33.065 37.133C33.5769 36.8818 34.1353 36.7392 34.705 36.7144C35.2811 36.7605 35.8389 36.9384 36.3354 37.2342C36.8319 37.5299 37.2539 37.9357 37.5688 38.4203C37.6162 38.4835 37.637 38.5627 37.6266 38.641C37.6163 38.7193 37.5756 38.7905 37.5134 38.8391C37.4593 38.8776 37.395 38.8991 37.3286 38.9007" fill="#351C17"/>
<path d="M23.9344 36.1658C23.8954 36.167 23.8565 36.1599 23.8205 36.1451C23.7844 36.1302 23.7518 36.1079 23.725 36.0796L21.3169 33.6161C21.2627 33.5599 21.2324 33.4848 21.2324 33.4067C21.2324 33.3286 21.2627 33.2535 21.3169 33.1973C21.3444 33.1697 21.377 33.1479 21.4129 33.133C21.4489 33.118 21.4874 33.1104 21.5263 33.1104C21.5652 33.1104 21.6037 33.118 21.6397 33.133C21.6756 33.1479 21.7082 33.1697 21.7357 33.1973L24.1438 35.6608C24.1856 35.7025 24.2141 35.7558 24.2254 35.8139C24.2366 35.8719 24.2303 35.932 24.2071 35.9863C24.1839 36.0407 24.1449 36.0869 24.0952 36.1189C24.0455 36.1509 23.9873 36.1672 23.9282 36.1658" fill="#351C17"/>
<path d="M45.502 36.191C45.5423 36.1915 45.5824 36.1836 45.6195 36.1677C45.6566 36.1517 45.69 36.1282 45.7175 36.0987L48.1194 33.6352C48.175 33.5788 48.2058 33.5027 48.2053 33.4236C48.2047 33.3445 48.1727 33.2688 48.1163 33.2133C48.06 33.1577 47.9839 33.1269 47.9048 33.1274C47.8257 33.128 47.75 33.16 47.6945 33.2164L45.2926 35.6799C45.2365 35.7364 45.2051 35.8128 45.2051 35.8923C45.2051 35.9719 45.2365 36.0483 45.2926 36.1048C45.3195 36.1309 45.3513 36.1515 45.3862 36.1652C45.421 36.179 45.4583 36.1856 45.4958 36.1849" fill="#351C17"/>
<path d="M50.9535 36.0123C50.9535 36.0123 50.8858 35.8213 50.6579 35.6304C50.5739 35.5796 50.4799 35.5476 50.3823 35.5367C50.2847 35.5258 50.1859 35.5362 50.0928 35.5673C49.9997 35.5983 49.9144 35.6492 49.8429 35.7165C49.7714 35.7838 49.7153 35.8658 49.6786 35.9568C49.374 36.4971 49.1852 37.0949 49.1243 37.7121C49.0751 38.0511 49.0751 38.3954 49.1243 38.7344C49.1613 39.0424 49.3522 39.4057 49.5185 39.3503C49.6848 39.2949 49.9127 39.0732 49.9743 38.8576C50.0353 38.6569 50.0353 38.4425 49.9743 38.2417C49.888 37.9646 49.5986 37.9461 49.4323 37.9276C49.0751 37.9276 49.0443 37.9276 49.0258 37.8476C49.0073 37.7675 49.0258 37.6998 49.4138 37.6197C49.556 37.5907 49.7027 37.5907 49.8449 37.6197C49.9601 37.6503 50.0662 37.7082 50.1541 37.7887C50.2421 37.8691 50.3092 37.9696 50.3499 38.0816C50.4429 38.3615 50.4429 38.6639 50.3499 38.9438C50.2993 39.1195 50.2134 39.2829 50.0974 39.4242C50.0254 39.5204 49.9326 39.5991 49.826 39.6546C49.7194 39.71 49.6017 39.7407 49.4816 39.7445C49.3515 39.7367 49.2259 39.6943 49.1176 39.6218C49.0093 39.5492 48.9224 39.4492 48.8657 39.3318C48.7606 39.1413 48.6937 38.9321 48.6686 38.716C48.6131 38.3382 48.6131 37.9544 48.6686 37.5766C48.754 36.9179 48.9855 36.2867 49.3461 35.729C49.4234 35.6009 49.5262 35.4901 49.648 35.4032C49.7698 35.3163 49.9081 35.2553 50.0543 35.2239C50.1719 35.1993 50.2936 35.2033 50.4094 35.2354C50.5251 35.2676 50.6314 35.327 50.7195 35.4087C50.9843 35.7043 50.935 35.9445 50.9042 35.9507" fill="#351C17"/>
<path d="M32.9266 37.3308C32.9266 33.9681 29.9643 33.4692 28.1967 33.4692C26.4292 33.4692 23.4668 33.9681 23.4668 37.3308C23.4668 40.6935 26.4292 41.1985 28.1967 41.1985C29.9643 41.1985 32.9266 40.6935 32.9266 37.3308Z" fill="#F4CFA2"/>
<path d="M28.1951 33.0498C24.9064 33.0498 23.0156 34.6203 23.0156 37.3609C23.0156 40.1016 24.9064 41.6721 28.1951 41.6721C31.4839 41.6721 33.3685 40.1016 33.3685 37.3609C33.3685 34.6203 31.4839 33.0498 28.1951 33.0498ZM23.4652 37.3609C23.4652 33.9983 26.4276 33.4994 28.1951 33.4994C29.9627 33.4994 32.9251 33.9983 32.9251 37.3609C32.9251 40.7236 29.9627 41.2286 28.1951 41.2286C26.4276 41.2286 23.4652 40.7175 23.4652 37.3301" fill="#351C17"/>
<path d="M46.0255 37.3308C46.0255 33.9681 43.0631 33.4692 41.2956 33.4692C39.528 33.4692 36.541 33.9927 36.541 37.3308C36.541 40.6688 39.5034 41.1985 41.2709 41.1985C43.0385 41.1985 46.0255 40.7181 46.0255 37.3308Z" fill="#F4CFA2"/>
<path d="M41.2713 33.0498C37.9825 33.0498 36.0918 34.6203 36.0918 37.3609C36.0918 40.1016 37.9825 41.6721 41.2713 41.6721C44.5601 41.6721 46.4447 40.1016 46.4447 37.3609C46.4447 34.6203 44.5601 33.0498 41.2713 33.0498ZM36.5414 37.3301C36.5414 33.9675 39.5037 33.4686 41.2713 33.4686C43.0389 33.4686 46.0259 33.9921 46.0259 37.3301C46.0259 40.6682 43.0635 41.1978 41.2959 41.1978C39.5284 41.1978 36.5414 40.7175 36.5414 37.3301Z" fill="#351C17"/>
<path d="M18.6744 36.0122C18.6744 36.0122 18.7422 35.8213 18.97 35.6304C19.054 35.5795 19.1481 35.5475 19.2456 35.5366C19.3432 35.5257 19.442 35.5362 19.5351 35.5672C19.6283 35.5982 19.7135 35.6492 19.7851 35.7164C19.8566 35.7837 19.9126 35.8657 19.9493 35.9568C20.2539 36.497 20.4427 37.0948 20.5036 37.712C20.5529 38.051 20.5529 38.3954 20.5036 38.7344C20.4666 39.0423 20.2757 39.4057 20.1094 39.3502C19.9431 39.2948 19.7153 39.0731 19.6537 38.8575C19.5927 38.6568 19.5927 38.4424 19.6537 38.2417C19.7399 37.9645 20.0294 37.9461 20.1956 37.9276C20.5528 37.9276 20.5836 37.9276 20.6021 37.8475C20.6206 37.7675 20.6329 37.6997 20.2141 37.6196C20.0719 37.5906 19.9252 37.5906 19.783 37.6196C19.6678 37.6502 19.5617 37.7082 19.4738 37.7886C19.3859 37.869 19.3187 37.9695 19.278 38.0815C19.185 38.3614 19.185 38.6639 19.278 38.9438C19.3286 39.1194 19.4145 39.2829 19.5305 39.4242C19.6025 39.5203 19.6953 39.5991 19.8019 39.6545C19.9085 39.7099 20.0263 39.7407 20.1464 39.7444C20.2764 39.7366 20.4021 39.6942 20.5103 39.6217C20.6186 39.5492 20.7055 39.4491 20.7622 39.3318C20.8673 39.1412 20.9343 38.932 20.9593 38.7159C21.0149 38.3381 21.0149 37.9543 20.9593 37.5765C20.8739 36.9179 20.6425 36.2866 20.2819 35.7289C20.195 35.6089 20.0848 35.5077 19.9577 35.4315C19.8307 35.3553 19.6896 35.3056 19.5428 35.2855C19.4252 35.2609 19.3035 35.2648 19.1878 35.2969C19.072 35.3291 18.9657 35.3885 18.8777 35.4702C18.6128 35.7659 18.6621 36.006 18.6929 36.0122" fill="#351C17"/>
<path d="M26.8282 35.5563C26.9267 35.5009 27.3209 35.9628 27.8259 36.2523C28.3309 36.5417 28.3186 36.6033 28.2755 36.7265C28.2324 36.8497 28.1646 36.9605 27.5919 36.6218C27.3278 36.4653 27.0992 36.2556 26.9206 36.0059C26.7851 35.7904 26.7543 35.6118 26.8282 35.5686" fill="#351C17"/>
<path d="M27.5488 37.0526C27.5488 36.2766 27.9307 35.6484 28.3926 35.6484C28.8545 35.6484 29.2363 36.2643 29.2363 37.0526C29.2363 37.841 28.8606 38.4507 28.3926 38.4507C27.9245 38.4507 27.5488 37.8225 27.5488 37.0526Z" fill="#351C17"/>
<path d="M43.3455 35.5319C43.2408 35.4765 42.8466 35.9384 42.3416 36.2278C41.8366 36.5173 41.8489 36.5789 41.892 36.7021C41.9352 36.8252 42.0029 36.9361 42.5757 36.5974C42.8398 36.4409 43.0684 36.2312 43.247 35.9815C43.3825 35.7659 43.4133 35.5873 43.3455 35.5442" fill="#351C17"/>
<path d="M42.6191 37.0287C42.6191 36.2527 42.2373 35.6245 41.7754 35.6245C41.3135 35.6245 40.9316 36.2404 40.9316 37.0287C40.9316 37.817 41.3073 38.4267 41.7754 38.4267C42.2435 38.4267 42.6191 37.8109 42.6191 37.0287Z" fill="#351C17"/>
<path d="M44.9055 38.562C44.9486 38.6421 44.499 38.9623 44.0309 39.2148C43.5629 39.4673 43.5197 39.4058 43.4766 39.3257C43.4335 39.2456 43.4089 39.1717 43.877 38.9254C44.345 38.679 44.8377 38.4512 44.9055 38.562Z" fill="#DBA183"/>
<path d="M45.0894 40.2496C45.0894 40.3358 44.5536 40.3481 44.0485 40.2865C43.5435 40.2249 43.5374 40.151 43.5497 40.0648C43.562 39.9786 43.5805 39.9047 44.0855 39.9601C44.5905 40.0155 45.1017 40.1202 45.0894 40.2496Z" fill="#DBA183"/>
<path d="M25.24 38.562C25.1907 38.6421 25.6465 38.9623 26.1145 39.2148C26.5826 39.4673 26.6257 39.4058 26.6688 39.3257C26.7119 39.2456 26.7366 39.1717 26.2685 38.9254C25.8004 38.679 25.3077 38.4512 25.24 38.562Z" fill="#DBA183"/>
<path d="M25.0862 40.2251C25.0862 40.3114 25.622 40.3237 26.127 40.2621C26.632 40.2005 26.6382 40.1266 26.6258 40.0404C26.6135 39.9542 26.595 39.8803 26.09 39.9357C25.585 39.9911 25.0738 40.0897 25.0862 40.2251Z" fill="#DBA183"/>
<path d="M35.9442 43.9512C35.9442 44.0005 35.5931 44.1729 34.9526 44.0682C34.5659 44.0027 34.2171 43.7965 33.9734 43.4893C33.7009 43.1025 33.5605 42.6381 33.573 42.1652C33.576 41.3691 33.7242 40.5801 34.0103 39.8372C34.2197 39.2706 34.4106 38.9503 34.4661 38.975C34.5215 38.9996 34.4661 39.3506 34.3121 39.9234C34.1275 40.6525 34.0304 41.4009 34.0226 42.1529C34.0132 42.5362 34.1183 42.9136 34.3244 43.2368C34.502 43.4869 34.7576 43.6711 35.0511 43.7603C35.5808 43.9266 35.9565 43.8835 35.9626 43.9512" fill="#351C17"/>
<path d="M29.5192 48.4164C29.4444 47.8862 29.5059 47.3458 29.6978 46.8459C29.7851 46.3233 29.9963 45.8291 30.3137 45.4048C30.2787 45.9147 30.1773 46.4178 30.0119 46.9014C29.9085 47.4242 29.7431 47.9328 29.5192 48.4164Z" fill="#DBA183"/>
<path d="M38.0612 47.1166C38.0612 47.1166 38.0612 47.2336 38.0243 47.4245C37.9181 47.6983 37.7229 47.9282 37.47 48.0773C36.635 48.4487 35.7204 48.6053 34.8094 48.5331C33.8858 48.6091 32.9646 48.3608 32.2042 47.831C31.6376 47.3568 31.5884 46.8579 31.6376 46.8579C31.6869 46.8579 31.8532 47.2274 32.389 47.5723C33.1292 47.9738 33.9701 48.1514 34.8094 48.0835C35.6553 48.1455 36.5053 48.0494 37.316 47.8002C37.8703 47.5354 37.9873 47.0735 38.0612 47.1166Z" fill="#351C17"/>
<path d="M40.5498 47.9416C40.2369 47.5314 40.0049 47.0653 39.8662 46.5682C39.6465 46.102 39.517 45.5984 39.4844 45.084C39.7939 45.4961 40.0198 45.9647 40.1495 46.4635C40.3687 46.9275 40.4963 47.4294 40.5252 47.9416" fill="#DBA183"/>
<path d="M43.7888 32.7052H40.537C40.2722 32.7052 40.0566 32.582 40.0566 32.428C40.0566 32.2741 40.2722 32.1509 40.537 32.1509H43.7888C44.0537 32.1509 44.2631 32.2741 44.2631 32.428C44.2631 32.582 44.0537 32.7052 43.7888 32.7052Z" fill="#351C17"/>
<path d="M29.6736 32.7052H26.4156C26.157 32.7052 25.9414 32.582 25.9414 32.428C25.9414 32.2741 26.157 32.1509 26.4156 32.1509H29.6736C29.9384 32.1509 30.1478 32.2741 30.1478 32.428C30.1478 32.582 29.9384 32.7052 29.6736 32.7052Z" fill="#351C17"/>
<path d="M24.4263 22.3707C24.4263 22.3707 29.5565 31.6581 48.0574 29.2808C48.0574 29.2808 47.9835 19.7717 36.9717 18.4352C23.9644 16.8524 24.414 22.3707 24.414 22.3707" fill="#636363"/>
<path d="M42.496 21.8898C42.4344 21.8282 40.7777 20.5965 41.3258 22.0438C41.4305 22.3271 41.5475 22.6042 41.6584 22.8875C41.7692 23.1708 41.295 23.3618 41.1103 23.1154C40.1433 21.8221 38.0309 21.2678 37.5443 23.2447C37.5294 23.2943 37.5019 23.3391 37.4646 23.375C37.4272 23.4108 37.3813 23.4365 37.3312 23.4495C37.2811 23.4625 37.2285 23.4624 37.1785 23.4492C37.1285 23.4359 37.0826 23.4101 37.0455 23.3741C36.4296 22.8075 33.1963 20.3748 33.7321 22.9368C33.7469 23.0058 33.7371 23.0778 33.7044 23.1403C33.6717 23.2029 33.6181 23.2519 33.5529 23.279C33.4877 23.3061 33.4151 23.3095 33.3477 23.2886C33.2803 23.2677 33.2224 23.2239 33.1839 23.1647C32.5681 22.2717 28.1769 20.3563 27.6411 21.9329C27.6283 21.9636 27.6118 21.9926 27.5918 22.0192C28.1619 23.1046 28.9068 24.0888 29.7966 24.9322C30.3945 25.6138 31.1126 26.1796 31.9152 26.6013C33.2702 27.174 32.8698 25.7267 32.7159 25.154C32.7022 25.1028 32.7022 25.0489 32.7159 24.9978C32.7296 24.9467 32.7566 24.9 32.794 24.8626C32.8315 24.8251 32.8781 24.7982 32.9292 24.7845C32.9804 24.7708 33.0342 24.7707 33.0854 24.7844C34.3172 25.1601 35.204 26.0531 36.3064 26.6813C36.5897 26.8415 38.4127 27.7345 37.8523 26.7491C37.6614 26.4103 37.4643 26.0716 37.3042 25.7206C37.2749 25.6637 37.2644 25.599 37.2743 25.5358C37.2841 25.4726 37.3138 25.4142 37.359 25.369C37.4043 25.3237 37.4627 25.2941 37.5259 25.2842C37.5891 25.2743 37.6538 25.2848 37.7106 25.3141C38.8192 25.8068 39.7738 26.5458 40.8639 27.0693C41.3443 27.291 43.2166 27.9993 42.5452 26.669C42.379 26.3364 42.2065 26.01 42.0587 25.6713C42.027 25.6088 42.0181 25.5372 42.0335 25.4688C42.0488 25.4004 42.0875 25.3395 42.1429 25.2965C42.1982 25.2536 42.2668 25.2312 42.3369 25.2333C42.4069 25.2354 42.4741 25.2617 42.5268 25.3079C43.2702 25.9758 44.1606 26.459 45.1258 26.7183C46.0989 26.8846 44.6146 24.378 44.4114 24.0947C43.8446 23.3004 43.2032 22.5621 42.496 21.8898Z" fill="#898989"/>
</g>
</svg>
