<svg width="70" height="72" viewBox="0 0 70 72" fill="none" xmlns="http://www.w3.org/2000/svg">
<mask id="mask0_260_10649" style="mask-type:alpha" maskUnits="userSpaceOnUse" x="-2" y="-2" width="74" height="74">
<circle cx="35" cy="35" r="36" fill="#F3ECDA" stroke="#7F886B" stroke-width="2"/>
</mask>
<g mask="url(#mask0_260_10649)">
<path d="M56.7544 68.0016C56.0357 64.2063 54.2136 60.7071 51.5163 57.942C50.1045 56.6643 36.3458 54.1794 34.8351 53.9111H34.7645H34.6939C33.1761 54.1794 19.3962 56.6643 18.0056 57.942C15.3135 60.71 13.4945 64.2082 12.7746 68.0016C11.7157 73.1761 11.9274 72.9996 11.9274 72.9996H57.5803C57.5803 72.9996 57.8133 73.1761 56.7544 68.0016Z" fill="#5A7D2D"/>
<path d="M34.1851 62.8969C34.1851 62.8969 27.0833 59.9461 26.8151 59.5931C26.5468 59.2402 27.521 55.174 28.227 53.8115C28.9329 52.4491 31.4531 50.896 34.4533 50.896C37.4535 50.896 39.6137 52.0467 40.8067 53.5009C41.9998 54.9551 42.6986 59.6778 42.6986 59.6778L35.2228 62.8122L34.1851 62.8969Z" fill="white"/>
<path d="M29.6895 55.5913H39.6149C39.6149 55.5913 35.3369 62.4107 35.224 62.813C35.111 63.2154 34.6945 64.3096 34.6945 64.3096L34.2074 62.8977L29.6895 55.5913Z" fill="#DBA183"/>
<path d="M39.0078 49.4136H30.1836V56H39.0078V49.4136Z" fill="#DBA183"/>
<path d="M49.9496 18.9387C47.8318 11.3499 38.9511 9.70507 38.9511 9.70507C34.892 8.11672 25.0653 8.87913 20.6532 15.4655C16.2411 22.0519 18.8319 37.9425 18.8319 37.9425L20.5403 38.0555L47.7753 38.472L48.7142 38.8249C48.7142 38.8249 52.0674 26.5275 49.9496 18.9387Z" fill="#24383D"/>
<path d="M21.4795 34.8227C21.1043 34.4375 20.6371 34.1543 20.122 33.9999C19.6069 33.8455 19.061 33.825 18.5357 33.9403C16.5379 34.2368 15.832 38.1759 17.2439 40.9431C18.6557 43.7104 21.7124 42.5315 21.7124 42.5315L21.4795 34.8227Z" fill="#DBA183"/>
<path d="M47.3306 34.7656C47.7058 34.3803 48.173 34.0972 48.6881 33.9427C49.2032 33.7883 49.7491 33.7678 50.2744 33.8831C52.2722 34.1726 52.9781 38.1188 51.5662 40.879C50.1544 43.6392 47.0977 42.4673 47.0977 42.4673L47.3306 34.7656Z" fill="#DBA183"/>
<path d="M18.4787 37.5894C18.4081 37.5894 18.3587 37.067 18.6129 36.4034C18.6843 36.2135 18.7978 36.0422 18.9447 35.9022C19.0333 35.8171 19.1392 35.752 19.2553 35.7116C19.3909 35.6697 19.5361 35.6697 19.6718 35.7116C20.045 35.8537 20.3705 36.0984 20.6107 36.4175C21.4013 37.4764 21.246 37.6388 21.126 37.7023C21.006 37.7659 20.8789 37.7517 20.1659 36.7917C19.9939 36.5566 19.7752 36.3595 19.5235 36.2128C19.3965 36.121 19.1211 36.3258 18.98 36.587C18.6764 37.1023 18.5635 37.6035 18.4787 37.5894Z" fill="#351C17"/>
<path d="M50.2446 37.8793C50.2023 37.8793 50.2093 37.7099 50.1952 37.4416C50.1895 37.1214 50.1021 36.8079 49.9411 36.531C49.8356 36.3874 49.6873 36.2811 49.5175 36.2274C49.4349 36.1999 49.3472 36.1907 49.2607 36.2004C49.1741 36.2102 49.0907 36.2387 49.0163 36.2839C48.6603 36.4985 48.3526 36.7845 48.1127 37.124C47.6326 37.7593 47.4068 38.1334 47.2514 38.3029C47.0961 38.4723 47.0255 38.4652 46.9479 38.4299C46.8702 38.3946 46.8208 38.3452 46.8914 38.1123C47.0641 37.6199 47.3248 37.163 47.6609 36.7639C47.9525 36.3512 48.3433 36.0186 48.7974 35.7968C48.9373 35.7341 49.0889 35.7017 49.2422 35.7017C49.3955 35.7017 49.547 35.7341 49.6869 35.7968C49.9462 35.9021 50.1608 36.0943 50.294 36.3404C50.4635 36.704 50.5082 37.1135 50.4211 37.5052C50.3646 37.7805 50.2799 37.9358 50.2446 37.9217" fill="#351C17"/>
<path d="M20.3984 22.4972V41.9034C20.3984 49.0545 26.1236 52.7677 33.2747 52.9936C41.1106 53.2125 47.5981 49.944 47.5981 42.1787V22.4972C47.5981 21.8134 47.4633 21.1363 47.2014 20.5046C46.9395 19.8729 46.5557 19.299 46.0718 18.8158C45.5879 18.3326 45.0135 17.9495 44.3815 17.6885C43.7495 17.4274 43.0722 17.2935 42.3883 17.2945H25.6294C24.9441 17.2917 24.2649 17.4242 23.6308 17.6843C22.9968 17.9444 22.4203 18.3271 21.9343 18.8104C21.4484 19.2937 21.0626 19.8681 20.7991 20.5008C20.5355 21.1334 20.3994 21.8119 20.3984 22.4972Z" fill="#F4CFA2"/>
<path d="M45.3109 16.5241H25.6506C22.7633 16.5241 19.7207 19.5808 19.7207 22.4751L19.8337 23.9294C19.8337 23.9294 20.3631 28.0167 21.189 24.1623C22.015 20.3079 27.9872 21.2609 33.7194 21.2045C39.4516 21.148 40.454 18.0066 40.454 18.0066C41.04 22.1434 47.2875 23.8023 47.7181 24.5718C48.0595 23.9057 48.2975 23.1916 48.4241 22.454C48.2687 20.3362 48.1982 16.5029 45.3109 16.5029" fill="#24383D"/>
<path d="M36.8669 14.2866C36.4462 14.501 36.0151 14.6942 35.575 14.8655C35.3491 14.9572 35.1374 14.7384 35.1232 14.5266C35.0597 13.2347 32.8995 14.449 32.3983 14.576C32.3076 14.5982 32.2119 14.585 32.1306 14.5391C32.0493 14.4932 31.9885 14.4181 31.9607 14.3289C31.3818 12.2747 26.8214 13.9972 25.459 15.5079L25.6284 16.3479C26.2451 16.3048 26.8569 16.2079 27.4568 16.0585C28.0145 15.9455 28.791 15.7691 29.2499 16.1926C29.7087 16.6162 27.9933 18.1763 29.9558 17.6821C30.9017 17.4421 31.8759 16.9339 32.8572 16.9409C32.9508 16.9409 33.0406 16.9781 33.1068 17.0443C33.173 17.1105 33.2102 17.2003 33.2102 17.2939C33.2102 19.5317 37.4458 16.6585 38.1517 15.9597C38.4917 15.6609 38.7887 15.3164 39.0341 14.9361L38.1164 13.7854C37.6814 13.902 37.2619 14.0703 36.8669 14.2866Z" fill="#2C4247"/>
<path d="M44.3022 28.4122C44.2316 28.4898 43.7304 27.8968 42.8903 27.5651C42.4415 27.3897 41.9531 27.3409 41.4784 27.4239C41.0124 27.5158 40.5657 27.6878 40.1583 27.9321C39.7093 28.2222 39.2757 28.5356 38.8594 28.871C38.6476 29.0193 38.6053 28.9558 38.5206 28.9416C38.4359 28.9275 38.3723 28.7934 38.5206 28.5604C38.8572 28.0552 39.313 27.6407 39.8477 27.3533C40.326 27.0637 40.86 26.8784 41.4149 26.8097C41.9897 26.7424 42.5713 26.8533 43.0809 27.1274C44.0128 27.6498 44.3657 28.3628 44.3022 28.3981" fill="#351C17"/>
<path d="M24.2461 28.4694C24.4923 27.9124 24.9344 27.4653 25.4885 27.2128C25.7322 27.0797 25.9937 26.9822 26.2651 26.9234C26.56 26.881 26.8596 26.881 27.1545 26.9234C27.7123 26.989 28.2493 27.1744 28.7288 27.467C29.2505 27.7606 29.7012 28.1655 30.0489 28.6529C30.1901 28.8929 30.1407 28.9706 30.0489 29.0271C29.9571 29.0836 29.9006 29.1188 29.6889 28.9777C29.4771 28.8365 29.1171 28.5047 28.3688 28.0317C27.9776 27.7616 27.5283 27.5876 27.0573 27.5238C26.5863 27.46 26.1068 27.5083 25.658 27.6646C24.8179 28.0035 24.3096 28.5823 24.2461 28.4976" fill="#351C17"/>
<path d="M35.2241 42.5309C34.7492 42.608 34.2624 42.5594 33.8122 42.3898C33.5725 42.3346 33.3367 42.2639 33.1063 42.178C32.8206 42.0739 32.574 41.884 32.4003 41.6344C32.2737 41.3156 32.2491 40.9654 32.3297 40.632C32.3767 40.3141 32.4475 40.0003 32.5415 39.6931C32.7251 39.0789 32.9368 38.5071 33.1416 37.9918C33.3416 37.566 33.4909 37.1182 33.5863 36.6576C33.6327 36.2238 33.6539 35.7878 33.6498 35.3516C33.7134 35.3092 34.024 35.8175 33.9604 36.6999C33.9103 37.2016 33.7891 37.6936 33.6004 38.1612C33.4239 38.6836 33.2263 39.2483 33.0568 39.8484C32.9688 40.1309 32.8981 40.4185 32.8451 40.7096C32.7868 40.9413 32.7868 41.1839 32.8451 41.4156C32.9752 41.5757 33.1424 41.7016 33.3322 41.7826C33.5439 41.8815 33.7487 41.9662 33.9393 42.0368C34.7017 42.3192 35.2029 42.4603 35.1888 42.538" fill="#351C17"/>
<path d="M37.7721 45.4119C37.8215 45.4119 37.6662 45.906 37.0662 46.4073C36.2392 46.984 35.2504 47.2831 34.2424 47.2614C33.2404 47.3495 32.2359 47.1224 31.3693 46.612C30.7198 46.1884 30.4868 45.7437 30.5433 45.7084C30.5998 45.6731 30.9175 45.9837 31.5528 46.2802C32.3907 46.6506 33.3085 46.8036 34.2212 46.7249C35.1353 46.7459 36.0395 46.532 36.8473 46.1037C37.4332 45.7366 37.7086 45.3554 37.7791 45.3978" fill="#351C17"/>
<path d="M26.2441 34.8014C26.2441 34.039 26.6677 33.4248 27.183 33.4248C27.6984 33.4248 28.1643 34.039 28.1643 34.8014C28.1643 35.5638 27.7407 36.2133 27.2183 36.2133C26.6959 36.2133 26.2794 35.5991 26.2794 34.8014" fill="#351C17"/>
<path d="M40.2773 34.8014C40.2773 34.039 40.6938 33.4248 41.2162 33.4248C41.7386 33.4248 42.1551 34.039 42.1551 34.8014C42.1551 35.5638 41.7386 36.2133 41.2162 36.2133C40.6938 36.2133 40.2773 35.5991 40.2773 34.8014Z" fill="#351C17"/>
</g>
</svg>
