<svg width="70" height="72" viewBox="0 0 70 72" fill="none" xmlns="http://www.w3.org/2000/svg">
<mask id="mask0_260_10467" style="mask-type:alpha" maskUnits="userSpaceOnUse" x="-2" y="-2" width="74" height="74">
<circle cx="35" cy="35" r="36" fill="#F3ECDA" stroke="#7F886B" stroke-width="2"/>
</mask>
<g mask="url(#mask0_260_10467)">
<path d="M45.9455 55.0518H23.5584C22.3032 55.0518 21.0602 55.299 19.9005 55.7794C18.7409 56.2597 17.6872 56.9638 16.7996 57.8513C15.912 58.7389 15.2079 59.7926 14.7276 60.9523C14.2472 62.112 14 63.3549 14 64.6101V77.6359H55.51V64.6101C55.51 63.3544 55.2626 62.111 54.7818 60.9509C54.3011 59.7908 53.5965 58.7368 52.7082 57.8492C51.82 56.9615 50.7656 56.2576 49.6052 55.7776C48.4448 55.2976 47.2012 55.051 45.9455 55.0518Z" fill="#C8CBCE"/>
<path d="M25.9117 62.159C33.567 67.6526 34.8296 58.8148 34.8296 58.8148C34.8296 64.8319 45.6012 66.7657 45.0839 59.1104C45.029 57.7349 44.8035 56.3716 44.4126 55.0518H23.5591C23.4174 55.0518 23.2819 55.0518 23.1403 55.0518C21.8469 57.0595 22.3889 59.6031 25.9117 62.1405" fill="#FFEEF4"/>
<path d="M23.5584 55.0518C22.3032 55.0518 21.0602 55.299 19.9005 55.7794C18.7409 56.2597 17.6872 56.9638 16.7996 57.8513C15.912 58.7389 15.2079 59.7926 14.7276 60.9523C14.2472 62.112 14 63.3549 14 64.6101V77.6359H26.5823V55.0518H23.5584Z" fill="#385673"/>
<path d="M45.9446 55.0518H42.9453V77.6359H55.5092V64.6101C55.5092 63.3544 55.2617 62.111 54.781 60.9509C54.3003 59.7908 53.5956 58.7368 52.7074 57.8492C51.8192 56.9615 50.7647 56.2576 49.6044 55.7776C48.444 55.2976 47.2004 55.051 45.9446 55.0518Z" fill="#385673"/>
<path d="M34.3799 60.299C41.2161 60.299 42.0167 56.961 42.0537 55.0518H28.5845C28.2396 56.6715 28.1534 60.299 34.3799 60.299Z" fill="#DBA183"/>
<path d="M38.1728 51.9785H31.4844V57.5522H38.1728V51.9785Z" fill="#DBA183"/>
<path d="M23.2385 14.5453C23.2385 14.5453 19.3769 14.9888 17.5909 19.9712C15.8049 24.9536 17.2214 26.8013 16.1066 30.1455C14.9919 33.4897 14.3206 33.6991 14.7702 37.1911C15.2198 40.6831 16.2052 41.7239 15.6078 44.7232C15.0104 47.7226 15.848 51.6334 25.123 51.929C34.3981 52.2246 38.1488 51.929 43.8457 51.929C49.5425 51.929 52.3632 51.3131 54.1924 46.1829C56.0215 41.0526 51.8644 39.0018 53.8967 35.713C54.6485 34.493 54.9873 33.0633 54.8631 31.6357C54.7389 30.2081 54.1581 28.8585 53.207 27.7867C51.9752 26.4995 52.0676 25.5572 52.1661 21.4493C52.2647 17.3414 50.3801 15.8017 49.0436 13.523C47.7072 11.2443 43.6917 10.3512 40.9695 10.5052C38.2474 10.6592 36.5599 10.1234 33.191 9.18107C29.8222 8.23879 23.8543 11.1149 23.2385 14.5453Z" fill="#636363"/>
<path d="M22.9063 36.366C22.9063 36.366 23.0172 33.1019 20.4921 32.9972C17.967 32.8925 16.3287 36.0396 17.6282 39.9812C18.9277 43.9228 23.6823 42.3462 23.6084 40.8804C23.4549 39.3642 23.2205 37.8572 22.9063 36.366Z" fill="#DBA183"/>
<path d="M47.2074 36.366C47.2074 36.366 47.0904 33.1019 49.6709 32.9972C52.2515 32.8925 53.8466 36.0396 52.5348 39.9812C51.223 43.9228 46.4191 42.3462 46.493 40.8804C46.6487 39.3637 46.8872 37.8566 47.2074 36.366Z" fill="#DBA183"/>
<path d="M44.7448 19.7805H25.086C24.7187 19.7756 24.354 19.8437 24.0132 19.9807C23.6723 20.1177 23.362 20.321 23.1002 20.5787C22.8385 20.8365 22.6304 21.1436 22.4882 21.4823C22.3459 21.821 22.2723 22.1846 22.2715 22.552V42.9498C22.2715 50.0138 27.9252 53.9616 34.9031 53.9616C41.881 53.9616 47.5347 50.0138 47.5347 42.9498V22.552C47.5331 22.1872 47.4596 21.8263 47.3186 21.49C47.1775 21.1536 46.9715 20.8483 46.7125 20.5915C46.4534 20.3347 46.1463 20.1315 45.8087 19.9934C45.471 19.8553 45.1095 19.7851 44.7448 19.7867" fill="#F4CFA2"/>
<path d="M25.4432 31.6235C26.2041 30.4095 26.7519 29.0743 27.063 27.6757C27.0808 27.6213 27.1136 27.573 27.1578 27.5365C27.202 27.5001 27.2556 27.4769 27.3125 27.4698C27.3693 27.4627 27.427 27.472 27.4788 27.4964C27.5306 27.5209 27.5743 27.5596 27.605 27.608C28.886 29.4556 30.8198 29.394 32.8522 29.3324C33.9139 29.2738 34.9785 29.2985 36.0363 29.4064C36.6765 29.5503 37.3078 29.7312 37.927 29.9483C39.8486 30.4287 41.7455 31.0261 43.7409 31.0261C44.9727 31.0261 46.383 31.0877 47.5347 30.5888V22.5517C47.5331 22.1869 47.4596 21.826 47.3186 21.4897C47.1775 21.1533 46.9715 20.848 46.7125 20.5912C46.4534 20.3344 46.1463 20.1312 45.8087 19.9931C45.471 19.855 45.1095 19.7848 44.7448 19.7864H25.086C24.7192 19.7815 24.3551 19.8493 24.0146 19.986C23.6741 20.1226 23.3641 20.3253 23.1024 20.5824C22.8407 20.8395 22.6326 21.1459 22.4899 21.4839C22.3473 21.8219 22.2731 22.1848 22.2715 22.5517V33.8283C23.534 33.7606 24.8274 32.5843 25.4432 31.6235Z" fill="#DBA183"/>
<path d="M44.2634 32.4737C44.2634 32.6461 43.5367 32.7816 42.2741 32.7816C41.0116 32.7816 40.291 32.6461 40.291 32.4737C40.291 32.3012 41.0116 32.1719 42.2741 32.1719C43.5367 32.1719 44.2634 32.3074 44.2634 32.4737Z" fill="#351C17"/>
<path d="M30.26 32.4737C30.26 32.6461 29.5332 32.7816 28.2707 32.7816C27.0081 32.7816 26.3184 32.6461 26.3184 32.4737C26.3184 32.3012 27.0389 32.1719 28.3015 32.1719C29.564 32.1719 30.2908 32.3074 30.2908 32.4737" fill="#351C17"/>
<path d="M26.9705 35.5403C27.0752 35.491 27.4632 35.9468 27.9682 36.2362C28.4732 36.5257 28.4671 36.5873 28.4178 36.7105C28.3685 36.8336 28.3069 36.9445 27.7342 36.6058C27.4719 36.4492 27.2453 36.2394 27.069 35.9899C26.9274 35.7743 26.8966 35.5957 26.9705 35.5526" fill="#351C17"/>
<path d="M27.6973 37.037C27.6973 36.261 28.073 35.6328 28.541 35.6328C29.0091 35.6328 29.3848 36.2487 29.3848 37.037C29.3848 37.8253 29.0091 38.435 28.541 38.435C28.073 38.435 27.6973 37.8192 27.6973 37.037Z" fill="#351C17"/>
<path d="M43.562 35.5403C43.4635 35.491 43.0693 35.9468 42.5643 36.2362C42.0593 36.5257 42.0716 36.5873 42.1147 36.7105C42.1578 36.8336 42.2256 36.9445 42.7983 36.6058C43.0619 36.4509 43.2888 36.2408 43.4635 35.9899C43.6051 35.7743 43.6359 35.5957 43.562 35.5526" fill="#351C17"/>
<path d="M42.8159 37.037C42.8159 36.261 42.4341 35.6328 41.966 35.6328C41.498 35.6328 41.0977 36.261 41.0977 37.037C41.0977 37.813 41.4795 38.435 41.9414 38.435C42.4033 38.435 42.7913 37.8192 42.7913 37.037" fill="#351C17"/>
<path d="M25.4127 38.6446C25.4497 38.5584 25.9732 38.7555 26.4413 39.0018C26.9093 39.2482 26.8847 39.3221 26.8416 39.4021C26.7985 39.4822 26.7553 39.5438 26.2873 39.2913C25.8192 39.0388 25.3573 38.7616 25.4127 38.6754" fill="#DBA183"/>
<path d="M25.2285 40.3317C25.2285 40.2454 25.7274 40.1038 26.2324 40.0484C26.7374 39.9929 26.7559 40.0484 26.7682 40.1469C26.7805 40.2454 26.7682 40.3132 26.2693 40.3686C25.7705 40.424 25.247 40.461 25.2285 40.3317Z" fill="#DBA183"/>
<path d="M18.927 35.9473C18.927 35.9473 18.8654 35.7318 19.1056 35.4423C19.1858 35.3634 19.283 35.3041 19.3898 35.2689C19.4966 35.2336 19.6101 35.2234 19.7215 35.2391C19.8634 35.2576 19.9987 35.3104 20.1156 35.393C20.2401 35.4805 20.3484 35.5889 20.4359 35.7133C20.8078 36.2806 21.0458 36.925 21.1318 37.5979C21.1875 37.9756 21.1875 38.3595 21.1318 38.7372C21.106 38.9532 21.0391 39.1623 20.9348 39.3531C20.8802 39.4721 20.7938 39.5736 20.6851 39.6464C20.5764 39.7193 20.4496 39.7606 20.3189 39.7657C20.1991 39.7603 20.082 39.7288 19.9756 39.6735C19.8693 39.6182 19.7762 39.5404 19.703 39.4455C19.5893 39.3027 19.5036 39.1397 19.4505 38.9651C19.3575 38.6852 19.3575 38.3828 19.4505 38.1029C19.4922 37.9904 19.5605 37.8897 19.6495 37.8093C19.7385 37.7289 19.8456 37.6711 19.9617 37.641C20.1018 37.6119 20.2465 37.6119 20.3866 37.641C20.8054 37.7272 20.7931 37.8196 20.7808 37.8688C20.7685 37.9181 20.7254 37.9489 20.3681 37.9489C20.2019 37.9489 19.9124 37.9859 19.8323 38.263C19.7755 38.4644 19.7755 38.6775 19.8323 38.8789C19.9001 39.0883 20.0972 39.3716 20.2881 39.3654C20.479 39.3593 20.6453 39.0329 20.6822 38.7496C20.7285 38.4145 20.7285 38.0746 20.6822 37.7395C20.6177 37.1297 20.4313 36.5391 20.1341 36.0027C20.1051 35.8926 20.0534 35.7896 19.9824 35.7006C19.9113 35.6115 19.8225 35.5382 19.7215 35.4854C19.6444 35.4584 19.5621 35.4493 19.481 35.4589C19.3999 35.4685 19.322 35.4965 19.2534 35.5408C19.0255 35.7133 18.9763 35.935 18.927 35.9227" fill="#351C17"/>
<path d="M44.9536 38.645C44.9967 38.7189 44.5471 39.0453 44.079 39.2608C43.6109 39.4764 43.5617 39.4517 43.5186 39.3717C43.4755 39.2916 43.457 39.2239 43.925 38.9714C44.3931 38.7189 44.8858 38.4971 44.9536 38.6142" fill="#DBA183"/>
<path d="M45.1388 40.3324C45.1388 40.4247 44.5968 40.4309 44.0918 40.3693C43.5868 40.3077 43.5868 40.24 43.593 40.1476C43.5991 40.0552 43.6299 39.9875 44.1349 40.0491C44.6399 40.1106 45.145 40.203 45.1388 40.3324Z" fill="#DBA183"/>
<path d="M51.174 35.9468C51.137 35.9468 51.1001 35.7559 50.8784 35.5649C50.7936 35.5151 50.6992 35.4839 50.6015 35.4735C50.5038 35.4631 50.4049 35.4737 50.3116 35.5046C50.2183 35.5355 50.1327 35.586 50.0605 35.6527C49.9883 35.7194 49.9311 35.8008 49.8929 35.8913C49.5904 36.4321 49.4038 37.0298 49.3448 37.6466C49.2986 37.9858 49.2986 38.3297 49.3448 38.6689C49.3879 38.9769 49.5789 39.3402 49.7451 39.2848C49.9114 39.2294 50.1393 39.0077 50.2009 38.7983C50.2611 38.5974 50.2611 38.3833 50.2009 38.1824C50.1208 37.9053 49.8314 37.8868 49.6651 37.8683C49.3079 37.8683 49.2709 37.8683 49.2524 37.7882C49.234 37.7082 49.2524 37.6466 49.6466 37.5604C49.7868 37.5313 49.9314 37.5313 50.0716 37.5604C50.1881 37.5896 50.2957 37.647 50.3848 37.7275C50.4739 37.8081 50.5419 37.9093 50.5827 38.0223C50.6757 38.3022 50.6757 38.6046 50.5827 38.8845C50.5296 39.0591 50.4439 39.2221 50.3302 39.3649C50.257 39.4598 50.164 39.5376 50.0576 39.5929C49.9512 39.6482 49.8341 39.6797 49.7143 39.6851C49.5838 39.6793 49.4573 39.6377 49.3487 39.565C49.2401 39.4922 49.1536 39.391 49.0985 39.2725C48.9949 39.0808 48.9261 38.8723 48.8952 38.6566C48.8396 38.2789 48.8396 37.895 48.8952 37.5173C48.9769 36.8587 49.2064 36.2271 49.5665 35.6696C49.6567 35.5455 49.7718 35.4414 49.9043 35.364C50.0368 35.2866 50.1839 35.2376 50.3364 35.22C50.4539 35.1954 50.5757 35.1994 50.6914 35.2315C50.8072 35.2637 50.9135 35.3231 51.0015 35.4048C51.2664 35.7004 51.2109 35.9406 51.1863 35.9468" fill="#351C17"/>
<path d="M36.0924 44.0398C36.0924 44.089 35.7352 44.2553 35.1009 44.1506C34.7069 44.076 34.3552 43.8562 34.1155 43.5348C33.8526 43.1614 33.7107 42.7164 33.709 42.2599C33.7127 41.4638 33.8608 40.675 34.1463 39.9319C34.3557 39.3714 34.5527 39.045 34.6082 39.0697C34.6636 39.0943 34.6082 39.4515 34.4542 40.0243C34.2709 40.7557 34.1738 41.506 34.1647 42.2599C34.1542 42.6427 34.2525 43.0207 34.448 43.35C34.6272 43.6012 34.8852 43.7855 35.1809 43.8735C35.7044 44.0398 36.0863 43.9967 36.0924 44.0706" fill="#351C17"/>
<path d="M29.6618 48.4491C29.587 47.921 29.6485 47.3825 29.8404 46.8848C29.9329 46.3618 30.1436 45.8668 30.4562 45.4375C30.4114 45.9606 30.2932 46.4747 30.1052 46.9649C30.0106 47.4769 29.8534 47.9754 29.6371 48.4491" fill="#DBA183"/>
<path d="M38.2099 47.0759C38.2099 47.0759 38.2099 47.193 38.1668 47.3839C38.0629 47.6589 37.8671 47.8895 37.6125 48.0367C36.7796 48.4075 35.8671 48.5642 34.9581 48.4925C34.0342 48.5709 33.1115 48.3272 32.3468 47.8027C31.7802 47.3284 31.7309 46.8296 31.7802 46.8296C31.8295 46.8296 32.0019 47.1991 32.5377 47.544C33.2773 47.9472 34.1187 48.1249 34.9581 48.0552C35.8041 48.1198 36.6546 48.0237 37.4647 47.7719C38.0129 47.5071 38.136 47.0451 38.2099 47.0883" fill="#351C17"/>
<path d="M40.699 48.0054C40.3917 47.5928 40.1679 47.1242 40.04 46.6259C39.8169 46.1609 39.6871 45.6566 39.6582 45.1416C39.9655 45.5542 40.1894 46.0228 40.3172 46.5212C40.541 46.9859 40.6707 47.4904 40.699 48.0054Z" fill="#DBA183"/>
<path d="M52.11 23.8389C52.11 23.1861 52.11 22.4101 52.1654 21.4678C52.264 17.3537 50.3794 15.8202 49.0429 13.5415C47.7065 11.2627 43.691 10.3697 40.9688 10.5237C38.2467 10.6777 36.5592 10.1234 33.1903 9.18107C29.8215 8.23879 23.8536 11.1149 23.2378 14.5453C23.2378 14.5453 19.3762 14.9888 17.5902 19.9712C16.8279 22.0596 16.4887 24.2788 16.5925 26.4995C16.5649 28.2634 17.1751 29.978 18.3108 31.328C18.7753 31.9565 19.44 32.4083 20.1953 32.609C22.4741 32.9108 22.9237 31.8699 24.2109 28.3533C24.9273 26.2153 25.1257 23.9377 24.7898 21.708C25.3502 24.0237 28.485 27.5034 34.0279 27.4603C39.9711 27.411 35.7647 28.5504 43.0936 30.3857C48.113 31.6174 51.1 27.9222 52.1038 23.8389" fill="#636363"/>
<path d="M32.5993 13.0484C32.1924 13.1153 31.7794 13.138 31.3676 13.1161C30.4944 13.1567 29.6315 13.3227 28.8056 13.6088C28.2892 13.8036 27.7871 14.0341 27.3028 14.2986C27.0811 14.4095 27.0441 14.3787 27.001 14.3355C26.9579 14.2924 26.9333 14.2308 27.1242 14.0461C27.5748 13.6617 28.0985 13.3726 28.6639 13.1962C29.5297 12.8924 30.4444 12.7524 31.3614 12.7835C32.1128 12.8267 32.5932 12.9683 32.5932 13.0484" fill="#FFEEF4"/>
<path d="M20.6641 22.6564C20.5418 22.328 20.5099 21.9729 20.5717 21.6279C20.636 20.8657 20.874 20.1283 21.2676 19.4724C21.497 19.0382 21.8238 18.663 22.2222 18.3761C22.4132 18.2591 22.4624 18.2961 22.4932 18.3453C22.524 18.3946 22.5548 18.4377 22.4316 18.604C22.1442 18.9489 21.8808 19.3131 21.6433 19.6941C21.2846 20.3039 21.0326 20.9704 20.8981 21.6649C20.7872 22.2377 20.7564 22.6441 20.6641 22.6564Z" fill="#FFEEF4"/>
<path d="M48.1006 25.2308C48.1006 25.2308 47.8912 24.7935 47.4847 23.999C46.9269 22.926 46.229 21.9319 45.4092 21.0428C44.2701 19.7874 42.7358 18.9594 41.0611 18.6963C40.083 18.5956 39.1186 18.3891 38.185 18.0805C37.7146 17.8961 37.263 17.6672 36.8362 17.3968C36.4213 17.151 35.9842 16.9448 35.5306 16.781C34.7227 16.4995 33.8785 16.3356 33.024 16.2944C32.2788 16.239 31.6198 16.2328 31.0593 16.2452C29.9384 16.2452 29.1747 16.3252 28.6574 16.356C27.6104 16.393 27.5488 16.393 27.5488 16.3129C27.5488 16.2328 27.5796 16.1836 28.6143 16.0358C29.1316 15.968 29.8953 15.8756 31.0347 15.8325C31.6074 15.8325 32.2664 15.8325 33.0424 15.8325C33.9373 15.8734 34.8213 16.0456 35.6661 16.3437C36.145 16.5188 36.6051 16.7416 37.0395 17.0088C37.4442 17.2676 37.8733 17.4862 38.3205 17.6617C39.2153 17.9658 40.1404 18.1723 41.0796 18.2775C42.8303 18.559 44.4286 19.4408 45.6001 20.7718C46.4269 21.6903 47.11 22.7285 47.6264 23.8512C47.8591 24.2776 48.0193 24.7396 48.1006 25.2185" fill="#FFEEF4"/>
<path d="M47.5595 28.7105C47.2719 28.4137 47.0083 28.0945 46.7712 27.7559C46.0777 26.9091 45.2716 26.1611 44.3755 25.5326C43.0924 24.6844 41.6646 24.079 40.1629 23.7466C38.5308 23.3462 36.7386 23.1307 34.9711 22.8782C31.3928 22.3793 29.6807 21.4555 28.9047 20.9012C28.1287 20.3469 28.2026 20.156 28.2395 20.1437C28.2765 20.1314 28.3073 20.1437 29.0771 20.6425C29.847 21.1414 31.5098 21.9544 35.0265 22.4471C36.7807 22.6495 38.5222 22.9497 40.2429 23.3462C41.7861 23.6966 43.2489 24.3361 44.5541 25.2308C45.4606 25.8869 46.2568 26.6831 46.9129 27.5896C47.1788 27.9318 47.3964 28.309 47.5595 28.7105Z" fill="#FFEEF4"/>
</g>
</svg>
