<svg width="680" height="284" viewBox="0 0 680 284" fill="none" xmlns="http://www.w3.org/2000/svg">
<path fill-rule="evenodd" clip-rule="evenodd" d="M218.031 23.952C201.585 27.4259 178.238 37.0449 154.907 49.9573C142.219 56.9788 141.633 57.4452 142.253 60.0386C142.61 61.5341 143.299 63.534 143.786 64.4831C145.754 68.326 144.715 69.8995 137.816 73.5199C133.889 75.5813 127.978 80.0515 123.924 84.0266C120.042 87.8325 116.719 90.9456 116.537 90.9456C116.356 90.9456 115.621 88.8535 114.905 86.295C114.188 83.7375 113.089 81.8104 112.463 82.0134C110.695 82.5833 107.649 89.7032 106.476 96.0042L105.415 101.709L86.3096 101.711C69.6079 101.712 66.1081 102.008 58.4837 104.064C40.7251 108.854 14.8548 123.962 15.5926 129.112C15.8501 130.912 14.8446 131.705 9.74728 133.72C3.03807 136.374 0 139.142 0 142.599C0 143.823 16.9931 170.869 37.763 202.703C66.9361 247.414 76.1437 260.797 78.2409 261.534C80.5628 262.35 87.7378 259.68 127.947 243.04L174.938 223.593L175.248 218.853C175.422 216.174 176.241 213.547 177.132 212.807C178.462 211.705 179.212 212.093 181.953 215.303L185.198 219.105L234.37 202.718C261.414 193.705 283.916 185.741 284.373 185.022C284.831 184.301 285.211 182.082 285.221 180.09C285.233 177.076 283.089 173.49 272.411 158.68C265.357 148.896 259.585 140.57 259.585 140.178C259.585 139.238 278.813 133.308 287.288 131.635C290.956 130.91 293.957 129.804 293.957 129.175C293.957 128.548 279.644 104.239 262.15 75.1579C233.471 27.4792 230.091 22.2884 227.778 22.3581C226.368 22.4001 221.981 23.1177 218.031 23.952ZM137.146 23.9766C136.127 24.9945 136.318 41.7437 137.348 41.7437C138.371 41.7437 139.54 34.2865 139.54 27.7621C139.54 23.5861 138.764 22.3591 137.146 23.9766ZM217.005 26.3486C203.367 29.4955 188.252 35.455 168.269 45.5609C157.829 50.8409 148.146 56.0266 146.751 57.0854L144.215 59.0094L146.532 66.2001C148.562 72.4928 149.189 73.4307 151.555 73.7116C153.851 73.9842 154.559 74.9324 156.242 79.9951C157.414 83.5192 158.705 85.7599 159.4 85.4739C164.865 83.2291 164.546 82.9205 163.831 89.7483L163.17 96.0708H172.731C177.989 96.0708 182.573 96.3516 182.916 96.695C183.26 97.0384 182.644 99.5928 181.548 102.371C180.452 105.149 179.555 107.641 179.555 107.909C179.555 108.176 181.35 108.109 183.543 107.758L187.531 107.121L189.581 112.615C190.709 115.637 192.915 121.728 194.482 126.15C196.87 132.886 197.962 134.606 201.222 136.761C205.43 139.544 205.359 139.038 203.095 149.858C202.626 152.097 202.404 154.09 202.599 154.286C202.795 154.481 204.847 153.677 207.158 152.498C211.283 150.397 211.362 150.394 211.362 152.361C211.362 153.463 210.889 155.608 210.31 157.127C209.292 159.803 209.355 159.87 212.306 159.281C213.981 158.946 219.452 156.343 224.464 153.497C242.14 143.456 264.381 134.707 283.441 130.295C287.813 129.283 291.359 128.203 291.32 127.894C291.28 127.587 277.294 104.271 260.238 76.0825C237.344 38.2452 228.703 24.7813 227.22 24.6419C226.116 24.5384 221.52 25.3061 217.005 26.3486ZM104.209 32.4096C103.407 33.7053 113.072 49.944 114.644 49.944C116.604 49.944 116.338 49.2049 111.068 40.0062C106.269 31.6316 105.332 30.5933 104.209 32.4096ZM80.0303 56.8907C80.0303 57.7486 96.8366 66.3446 98.5142 66.3446C101.689 66.3446 98.4495 63.6918 90.9482 60.1472C82.3717 56.0942 80.0303 55.3951 80.0303 56.8907ZM229.157 66.0884C228.28 68.203 227.431 70.0747 227.268 70.249C227.106 70.4222 225.252 69.8462 223.147 68.9677C218.745 67.1298 217.518 66.9873 217.518 68.3147C217.518 68.8355 219.128 69.7918 221.095 70.4397C225.631 71.9352 226.217 72.9377 224.696 76.6053C222.748 81.303 224.214 82.6776 226.326 78.1326C227.373 75.8775 228.337 73.8633 228.465 73.6573C228.68 73.3128 231.791 74.2846 236.243 76.0876C237.314 76.5212 238.039 76.3531 238.039 75.6715C238.039 75.0431 236.192 73.7905 233.935 72.8875C229.281 71.027 229.272 71.0055 231.383 65.9572C232.361 63.6201 232.531 62.2445 231.844 62.2445C231.243 62.2445 230.035 63.9747 229.157 66.0884ZM138.75 75.5105C127.575 81.6649 117.104 92.681 118.438 96.8795C118.888 98.2982 119.746 98.7226 121.489 98.3894C123.653 97.9763 124.132 98.5729 125.938 103.917C127.966 109.924 128.732 110.475 132.766 108.829C134.596 108.083 134.669 108.417 133.997 114.353L133.282 120.672H142.909C148.204 120.672 152.81 120.944 153.143 121.279C153.478 121.612 152.862 123.957 151.775 126.489C150.689 129.021 149.8 131.472 149.8 131.935C149.8 132.398 151.594 132.537 153.786 132.243L157.771 131.709L159.807 137.21C160.926 140.235 163.165 146.296 164.783 150.677C167.227 157.297 168.391 159.085 171.67 161.253C173.863 162.702 175.394 164.444 175.115 165.17C174.188 167.584 173.155 178.074 173.844 178.074C174.22 178.074 175.902 177.364 177.584 176.494C181.84 174.296 182.788 175.329 181.045 180.263L179.566 184.451L183.151 183.778C187.299 183.001 187.549 183.74 184.76 188.522C182.598 192.229 179.259 204.106 179.756 206.316C179.929 207.081 182.13 205.107 184.685 201.899C197.884 185.32 225.63 171.26 258.398 164.544L264.905 163.211L258.024 153.473C254.238 148.117 250.995 143.575 250.818 143.379C250.294 142.803 230.989 152.179 222.648 157.063C214.043 162.101 205.38 164.344 206.579 161.223C208.004 157.515 208.541 154.246 207.659 154.654C207.156 154.887 205.474 155.713 203.919 156.492C202.365 157.27 200.806 157.619 200.455 157.269C200.104 156.919 200.429 152.876 201.175 148.287C202.344 141.091 202.327 139.825 201.046 139.09C196.572 136.521 195.135 134.2 190.82 122.57L186.122 109.909L181.299 110.257C178.647 110.449 176.477 110.351 176.477 110.039C176.477 109.727 177.374 107.199 178.47 104.421C179.566 101.643 180.182 99.0885 179.838 98.7451C179.495 98.4017 175.075 98.1209 170.018 98.1209H160.822L161.508 92.9506C162.194 87.7936 162.189 87.7803 159.413 88.0816C156.835 88.3604 156.48 87.9156 154.566 82.0042C152.675 76.1625 152.296 75.6766 150.062 76.2373C148.158 76.715 147.498 76.3716 147.053 74.672C146.309 71.8306 145.234 71.9393 138.75 75.5105ZM198.188 78.8911C196.175 83.4741 195.901 83.6924 193.381 82.735C190.016 81.4578 186.429 81.4178 187.201 82.6663C187.523 83.187 189.282 83.9333 191.109 84.3248C195.925 85.356 196 85.4821 194.432 89.9205C193.567 92.3714 193.387 94.2042 193.976 94.5681C194.831 95.096 195.44 93.9787 197.551 88.0181C197.889 87.0617 198.919 86.8413 200.854 87.3139C202.402 87.6911 204.705 88.2507 205.975 88.5583C210.384 89.6264 208.257 87.1048 203.667 85.8204C198.573 84.3956 198.578 84.4038 200.168 79.8444C202.044 74.4691 200.466 73.7095 198.188 78.8911ZM110.418 89.3691C109.463 91.6026 108.621 95.7746 108.545 98.6406C108.408 103.832 108.531 104.039 142.638 155.958L176.868 208.066L178.28 201.087C179.056 197.248 180.353 192.829 181.163 191.267C183.318 187.105 183.038 186.134 179.913 186.917C177.226 187.591 177.201 187.547 177.873 183.349C178.642 178.547 178.571 178.494 174.278 180.712C172.562 181.599 170.909 182.078 170.606 181.776C170.303 181.474 170.727 177.528 171.547 173.006L173.037 164.785L169.45 162.407C166.335 160.342 165.242 158.353 161.132 147.269L156.4 134.51L151.561 134.851C148.793 135.046 146.722 134.753 146.722 134.166C146.722 133.604 147.611 131.071 148.697 128.539C149.784 126.007 150.399 123.662 150.065 123.329C149.731 122.994 145.321 122.722 140.264 122.722H131.071L131.565 117.581C132.044 112.604 131.978 112.449 129.512 112.712C127.262 112.952 126.69 112.261 124.64 106.834C122.613 101.465 122.006 100.721 119.866 100.984C117.647 101.255 117.163 100.525 114.784 93.296L112.154 85.3079L110.418 89.3691ZM70.796 87.8705C70.796 88.4732 74.3666 88.8955 79.4567 88.8955C84.2206 88.8955 88.4027 88.4342 88.7515 87.8705C89.1568 87.2155 86.0264 86.8454 80.0908 86.8454C74.5779 86.8454 70.796 87.2626 70.796 87.8705ZM224.638 90.2947C217.48 92.2228 210.994 97.5407 206.341 105.296C203.95 109.279 203.692 110.421 205.185 110.421C205.737 110.421 207.083 108.692 208.176 106.577C210.546 101.99 216.716 95.9334 221.439 93.5574C225.747 91.3894 236.488 91.2961 241.487 93.3821C243.516 94.2298 245.424 94.5209 245.728 94.0299C246.49 92.7989 245.383 92.2535 238.469 90.4546C231.476 88.6351 230.827 88.6269 224.638 90.2947ZM63.6138 105.172C48.5373 108.456 31.0015 116.71 21.324 125.075L17.5256 128.36L32.6185 151.151C40.9191 163.687 56.7979 187.747 67.9057 204.618L88.101 235.296L101.765 228.436C124.337 217.103 143.456 211.872 163.389 211.57C170.016 211.47 175.442 211.069 175.445 210.68C175.448 210.291 169.753 201.296 162.79 190.692C155.826 180.087 140.767 157.112 129.326 139.635C117.884 122.158 107.657 106.954 106.599 105.848C104.872 104.043 103.02 103.808 88.5053 103.555C75.7733 103.332 70.481 103.677 63.6138 105.172ZM9.63851 135.966C4.37704 137.988 2.05206 139.888 2.05206 142.168C2.05206 143.755 11.5161 158.544 62.3949 236.464C70.4718 248.835 77.9474 259.229 79.0083 259.566C80.2303 259.953 97.8791 253.154 127.218 240.993C172.23 222.336 173.493 221.736 173.194 219.161C172.829 216.027 172.287 216.029 156.037 219.223C135.865 223.189 112.982 232.487 93.1419 244.781L85.0537 249.792L66.3122 221.365C10.7825 137.134 11.9235 138.954 13.2583 136.819C14.9236 134.155 14.5717 134.072 9.63851 135.966ZM16.4278 136.547C15.7311 137.385 15.4325 138.778 15.7639 139.642C16.3313 141.118 49.194 191.498 74.383 229.505L85.7104 246.598L93.3871 241.894C104.746 234.933 124.292 225.877 135.949 222.171C146.452 218.834 162.905 215.021 166.926 214.992C168.162 214.983 169.499 214.45 169.897 213.807C170.431 212.944 168.095 212.829 160.98 213.369C140.361 214.932 121.678 220.591 99.8921 231.871L87.4331 238.321L69.1431 210.504C59.0839 195.204 43.8002 171.962 35.1795 158.854C26.5588 145.747 19.0985 135.022 18.5999 135.022C18.1012 135.022 17.1234 135.708 16.4278 136.547ZM253.984 142.13C253.619 142.719 256.625 147.824 260.663 153.474C265.446 160.168 267.782 164.324 267.368 165.402C267.018 166.314 267.254 167.686 267.891 168.453C268.528 169.22 268.793 170.516 268.479 171.332C268.165 172.149 268.806 173.958 269.903 175.351C272.501 178.651 272.421 179.975 269.589 180.569C238.025 187.181 217.083 194.714 194.432 207.599C189.918 210.168 185.416 212.215 184.427 212.148C182.958 212.05 182.824 212.391 183.693 214.014C184.279 215.107 185.295 216 185.951 216C186.88 216 276.362 186.62 281.9 184.497C282.606 184.226 283.184 182.503 283.184 180.668C283.184 178.029 280.497 173.601 270.345 159.508C258.089 142.495 255.476 139.719 253.984 142.13ZM251.89 168.366C233.116 172.67 215.78 179.807 202.641 188.641C196.391 192.843 183.659 205.119 183.659 206.943C183.659 207.492 186.315 205.662 189.559 202.877C205.867 188.878 227.882 178.307 251.89 172.949C257.533 171.689 262.995 170.355 264.026 169.984C265.843 169.332 265.843 169.26 264.026 167.662C262.297 166.141 261.35 166.197 251.89 168.366ZM249.838 175.454C235.398 179.215 228.19 181.946 215.338 188.526C204.663 193.993 185.821 207.226 187.014 208.419C187.271 208.674 190.814 206.965 194.887 204.618C210.643 195.543 237.266 185.334 255.994 181.188C270.114 178.062 269.172 178.538 267.198 175.53C265.059 172.268 262.124 172.255 249.838 175.454Z" fill="#484848"/>
<path d="M398.451 201.83V186.789L436.163 127.376H449.13V148.195H441.456L417.682 185.819V186.525H471.272V201.83H398.451ZM441.809 217.709V197.243L442.161 190.583V127.376H460.069V217.709H441.809ZM519.416 219.694C511.83 219.664 505.302 217.797 499.832 214.092C494.392 210.387 490.202 205.021 487.262 197.993C484.35 190.965 482.91 182.511 482.939 172.631C482.939 162.78 484.395 154.385 487.306 147.445C490.246 140.506 494.436 135.228 499.876 131.611C505.346 127.964 511.859 126.141 519.416 126.141C526.973 126.141 533.472 127.964 538.912 131.611C544.381 135.257 548.586 140.55 551.526 147.49C554.467 154.4 555.923 162.78 555.893 172.631C555.893 182.54 554.423 191.009 551.482 198.037C548.571 205.065 544.396 210.431 538.956 214.136C533.516 217.841 527.003 219.694 519.416 219.694ZM519.416 203.859C524.591 203.859 528.723 201.257 531.81 196.052C534.898 190.847 536.427 183.04 536.398 172.631C536.398 165.78 535.692 160.075 534.28 155.517C532.898 150.959 530.928 147.534 528.37 145.24C525.841 142.946 522.856 141.8 519.416 141.8C514.27 141.8 510.153 144.373 507.066 149.518C503.978 154.664 502.42 162.369 502.39 172.631C502.39 179.571 503.081 185.363 504.464 190.009C505.875 194.626 507.86 198.096 510.418 200.419C512.976 202.712 515.976 203.859 519.416 203.859ZM568.144 201.83V186.789L605.856 127.376H618.824V148.195H611.149L587.375 185.819V186.525H640.966V201.83H568.144ZM611.502 217.709V197.243L611.855 190.583V127.376H629.763V217.709H611.502Z" fill="#D3D3D3"/>
<mask id="path-3-outside-1_2525_7067" maskUnits="userSpaceOnUse" x="392.184" y="18" width="256" height="64" fill="black">
<rect fill="white" x="392.184" y="18" width="256" height="64"/>
<path d="M449.758 49.8891C449.758 56.4563 448.513 62.0433 446.024 66.6501C443.554 71.2569 440.182 74.7757 435.908 77.2065C431.654 79.6177 426.871 80.8233 421.559 80.8233C416.207 80.8233 411.404 79.6079 407.15 77.1771C402.896 74.7463 399.534 71.2275 397.064 66.6207C394.594 62.0139 393.359 56.4367 393.359 49.8891C393.359 43.322 394.594 37.735 397.064 33.1282C399.534 28.5214 402.896 25.0124 407.15 22.6012C411.404 20.1703 416.207 18.9549 421.559 18.9549C426.871 18.9549 431.654 20.1703 435.908 22.6012C440.182 25.0124 443.554 28.5214 446.024 33.1282C448.513 37.735 449.758 43.322 449.758 49.8891ZM436.849 49.8891C436.849 45.6352 436.212 42.0478 434.938 39.1269C433.683 36.2059 431.909 33.9908 429.616 32.4813C427.322 30.9718 424.636 30.2171 421.559 30.2171C418.481 30.2171 415.795 30.9718 413.502 32.4813C411.208 33.9908 409.424 36.2059 408.15 39.1269C406.895 42.0478 406.268 45.6352 406.268 49.8891C406.268 54.1431 406.895 57.7305 408.15 60.6514C409.424 63.5723 411.208 65.7875 413.502 67.297C415.795 68.8064 418.481 69.5612 421.559 69.5612C424.636 69.5612 427.322 68.8064 429.616 67.297C431.909 65.7875 433.683 63.5723 434.938 60.6514C436.212 57.7305 436.849 54.1431 436.849 49.8891ZM514.53 49.8891C514.53 56.4563 513.286 62.0433 510.796 66.6501C508.326 71.2569 504.954 74.7757 500.681 77.2065C496.427 79.6177 491.643 80.8233 486.331 80.8233C480.979 80.8233 476.176 79.6079 471.922 77.1771C467.668 74.7463 464.306 71.2275 461.836 66.6207C459.366 62.0139 458.131 56.4367 458.131 49.8891C458.131 43.322 459.366 37.735 461.836 33.1282C464.306 28.5214 467.668 25.0124 471.922 22.6012C476.176 20.1703 480.979 18.9549 486.331 18.9549C491.643 18.9549 496.427 20.1703 500.681 22.6012C504.954 25.0124 508.326 28.5214 510.796 33.1282C513.286 37.735 514.53 43.322 514.53 49.8891ZM501.622 49.8891C501.622 45.6352 500.984 42.0478 499.71 39.1269C498.456 36.2059 496.681 33.9908 494.388 32.4813C492.094 30.9718 489.409 30.2171 486.331 30.2171C483.253 30.2171 480.567 30.9718 478.274 32.4813C475.98 33.9908 474.196 36.2059 472.922 39.1269C471.667 42.0478 471.04 45.6352 471.04 49.8891C471.04 54.1431 471.667 57.7305 472.922 60.6514C474.196 63.5723 475.98 65.7875 478.274 67.297C480.567 68.8064 483.253 69.5612 486.331 69.5612C489.409 69.5612 492.094 68.8064 494.388 67.297C496.681 65.7875 498.456 63.5723 499.71 60.6514C500.984 57.7305 501.622 54.1431 501.622 49.8891ZM523.962 80V19.7783H547.721C552.289 19.7783 556.18 20.6506 559.395 22.3953C562.61 24.1204 565.061 26.5218 566.747 29.5996C568.452 32.6577 569.305 36.1863 569.305 40.1854C569.305 44.1845 568.442 47.7132 566.717 50.7713C564.992 53.8294 562.493 56.2112 559.219 57.9167C555.965 59.6222 552.024 60.475 547.398 60.475H532.254V50.2714H545.34C547.79 50.2714 549.809 49.8499 551.397 49.007C553.005 48.1444 554.2 46.9584 554.984 45.449C555.788 43.9199 556.19 42.1654 556.19 40.1854C556.19 38.1859 555.788 36.4412 554.984 34.9513C554.2 33.4419 553.005 32.2755 551.397 31.4521C549.79 30.6092 547.751 30.1877 545.281 30.1877H536.694V80H523.962ZM610.244 37.0979C610.009 34.7259 608.999 32.8832 607.215 31.5697C605.431 30.2563 603.01 29.5996 599.952 29.5996C597.874 29.5996 596.12 29.8936 594.689 30.4817C593.258 31.0502 592.16 31.8442 591.395 32.8636C590.65 33.8829 590.278 35.0395 590.278 36.3334C590.239 37.4116 590.464 38.3525 590.954 39.1563C591.464 39.96 592.16 40.6559 593.042 41.244C593.924 41.8125 594.944 42.3124 596.1 42.7437C597.257 43.1554 598.492 43.5082 599.805 43.8023L605.216 45.0961C607.843 45.6842 610.254 46.4683 612.449 47.4485C614.645 48.4287 616.547 49.6343 618.154 51.0653C619.762 52.4964 621.006 54.1823 621.889 56.123C622.79 58.0638 623.251 60.2888 623.271 62.798C623.251 66.4834 622.31 69.6788 620.448 72.3841C618.605 75.0697 615.939 77.1575 612.449 78.6474C608.98 80.1176 604.794 80.8527 599.894 80.8527C595.032 80.8527 590.798 80.1078 587.19 78.618C583.603 77.1281 580.8 74.9227 578.781 72.0018C576.781 69.0613 575.732 65.4249 575.634 61.0925H587.955C588.092 63.1116 588.671 64.7975 589.69 66.1502C590.729 67.4832 592.111 68.4928 593.836 69.1789C595.581 69.8454 597.551 70.1787 599.746 70.1787C601.903 70.1787 603.775 69.865 605.363 69.2377C606.97 68.6104 608.215 67.7381 609.097 66.6207C609.979 65.5033 610.421 64.2192 610.421 62.7686C610.421 61.416 610.019 60.279 609.215 59.3576C608.431 58.4362 607.274 57.6521 605.745 57.0052C604.236 56.3583 602.383 55.7702 600.188 55.2409L593.63 53.5942C588.553 52.3592 584.544 50.4282 581.604 47.8014C578.663 45.1745 577.203 41.6361 577.222 37.1861C577.203 33.5399 578.173 30.3543 580.133 27.6294C582.113 24.9046 584.828 22.7776 588.278 21.2485C591.729 19.7195 595.649 18.9549 600.041 18.9549C604.51 18.9549 608.411 19.7195 611.744 21.2485C615.096 22.7776 617.703 24.9046 619.566 27.6294C621.428 30.3543 622.388 33.5105 622.447 37.0979H610.244ZM646.567 19.7783L645.42 61.9452H634.658L633.482 19.7783H646.567ZM640.039 80.7645C638.098 80.7645 636.432 80.0784 635.04 78.7062C633.648 77.3143 632.962 75.648 632.982 73.7073C632.962 71.7862 633.648 70.1395 635.04 68.7672C636.432 67.395 638.098 66.7089 640.039 66.7089C641.901 66.7089 643.538 67.395 644.95 68.7672C646.361 70.1395 647.076 71.7862 647.096 73.7073C647.076 75.0011 646.733 76.1871 646.067 77.2653C645.42 78.3239 644.567 79.1767 643.509 79.8236C642.45 80.4509 641.293 80.7645 640.039 80.7645Z"/>
</mask>
<path d="M446.024 66.6501L445.295 66.2564L445.294 66.2588L446.024 66.6501ZM435.908 77.2065L436.317 77.9269L436.318 77.9263L435.908 77.2065ZM407.15 77.1771L407.561 76.4582L407.15 77.1771ZM397.064 66.6207L396.334 67.0119L397.064 66.6207ZM397.064 33.1282L397.794 33.5195H397.794L397.064 33.1282ZM407.15 22.6012L407.558 23.3215L407.561 23.3201L407.15 22.6012ZM435.908 22.6012L435.498 23.3201L435.501 23.3223L435.908 22.6012ZM446.024 33.1282L445.294 33.5195L445.295 33.5219L446.024 33.1282ZM434.938 39.1269L434.177 39.4537L434.179 39.4579L434.938 39.1269ZM429.616 32.4813L429.16 33.173V33.173L429.616 32.4813ZM413.502 32.4813L413.957 33.173V33.173L413.502 32.4813ZM408.15 39.1269L407.391 38.7957L407.389 38.8001L408.15 39.1269ZM408.15 60.6514L407.389 60.9782L407.391 60.9825L408.15 60.6514ZM413.502 67.297L413.957 66.6053L413.502 67.297ZM429.616 67.297L429.16 66.6053L429.616 67.297ZM434.938 60.6514L434.179 60.3203L434.177 60.3246L434.938 60.6514ZM448.93 49.8891C448.93 56.3531 447.705 61.7975 445.295 66.2564L446.752 67.0438C449.322 62.2891 450.586 56.5595 450.586 49.8891H448.93ZM445.294 66.2588C442.893 70.7372 439.628 74.138 435.499 76.4868L436.318 77.9263C440.736 75.4134 444.215 71.7766 446.754 67.0413L445.294 66.2588ZM435.5 76.4861C431.381 78.8208 426.741 79.9953 421.559 79.9953V81.6514C427.002 81.6514 431.928 80.4147 436.317 77.9269L435.5 76.4861ZM421.559 79.9953C416.337 79.9953 411.678 78.811 407.561 76.4582L406.739 77.8961C411.13 80.4049 416.076 81.6514 421.559 81.6514V79.9953ZM407.561 76.4582C403.451 74.1097 400.196 70.7088 397.794 66.2294L396.334 67.0119C398.873 71.7462 402.341 75.3829 406.739 77.8961L407.561 76.4582ZM397.794 66.2294C395.403 61.7696 394.187 56.334 394.187 49.8891H392.531C392.531 56.5394 393.786 62.2581 396.334 67.0119L397.794 66.2294ZM394.187 49.8891C394.187 43.4242 395.403 37.979 397.794 33.5195L396.334 32.7369C393.785 37.4911 392.531 43.2198 392.531 49.8891H394.187ZM397.794 33.5195C400.195 29.0406 403.45 25.6502 407.558 23.3215L406.742 21.8808C402.342 24.3745 398.873 28.0022 396.334 32.7369L397.794 33.5195ZM407.561 23.3201C411.678 20.9673 416.337 19.783 421.559 19.783V18.1269C416.076 18.1269 411.13 19.3734 406.739 21.8822L407.561 23.3201ZM421.559 19.783C426.74 19.783 431.379 20.9667 435.498 23.3201L436.319 21.8822C431.93 19.3739 427.003 18.1269 421.559 18.1269V19.783ZM435.501 23.3223C439.629 25.6513 442.893 29.0416 445.294 33.5195L446.754 32.7369C444.214 28.0012 440.735 24.3734 436.315 21.88L435.501 23.3223ZM445.295 33.5219C447.705 37.9808 448.93 43.4252 448.93 49.8891H450.586C450.586 43.2188 449.322 37.4892 446.752 32.7345L445.295 33.5219ZM437.677 49.8891C437.677 45.5574 437.029 41.8498 435.697 38.7958L434.179 39.4579C435.395 42.2457 436.021 45.713 436.021 49.8891H437.677ZM435.699 38.8001C434.391 35.7543 432.52 33.4016 430.071 31.7896L429.16 33.173C431.298 34.58 432.976 36.6576 434.177 39.4537L435.699 38.8001ZM430.071 31.7896C427.626 30.1807 424.778 29.389 421.559 29.389V31.0451C424.495 31.0451 427.018 31.763 429.16 33.173L430.071 31.7896ZM421.559 29.389C418.339 29.389 415.491 30.1807 413.046 31.7896L413.957 33.173C416.099 31.763 418.622 31.0451 421.559 31.0451V29.389ZM413.046 31.7896C410.598 33.4007 408.719 35.7519 407.391 38.7958L408.909 39.4579C410.129 36.66 411.818 34.5808 413.957 33.173L413.046 31.7896ZM407.389 38.8001C406.078 41.8528 405.44 45.5588 405.44 49.8891H407.096C407.096 45.7116 407.713 42.2428 408.911 39.4537L407.389 38.8001ZM405.44 49.8891C405.44 54.2195 406.078 57.9255 407.389 60.9782L408.911 60.3246C407.713 57.5355 407.096 54.0667 407.096 49.8891H405.44ZM407.391 60.9825C408.719 64.0264 410.598 66.3775 413.046 67.9887L413.957 66.6053C411.818 65.1975 410.129 63.1183 408.909 60.3203L407.391 60.9825ZM413.046 67.9887C415.491 69.5976 418.339 70.3892 421.559 70.3892V68.7331C418.622 68.7331 416.099 68.0153 413.957 66.6053L413.046 67.9887ZM421.559 70.3892C424.778 70.3892 427.626 69.5976 430.071 67.9887L429.16 66.6053C427.018 68.0153 424.495 68.7331 421.559 68.7331V70.3892ZM430.071 67.9887C432.52 66.3767 434.391 64.024 435.699 60.9782L434.177 60.3246C432.976 63.1207 431.298 65.1983 429.16 66.6053L430.071 67.9887ZM435.697 60.9825C437.029 57.9285 437.677 54.2209 437.677 49.8891H436.021C436.021 54.0653 435.395 57.5325 434.179 60.3203L435.697 60.9825ZM510.796 66.6501L510.067 66.2564L510.066 66.2588L510.796 66.6501ZM500.681 77.2065L501.089 77.9269L501.09 77.9263L500.681 77.2065ZM471.922 77.1771L472.333 76.4582L471.922 77.1771ZM461.836 66.6207L461.107 67.0119L461.836 66.6207ZM461.836 33.1282L462.566 33.5195L461.836 33.1282ZM471.922 22.6012L472.331 23.3215L472.333 23.3201L471.922 22.6012ZM500.681 22.6012L500.27 23.3201L500.274 23.3223L500.681 22.6012ZM510.796 33.1282L510.066 33.5195L510.067 33.5219L510.796 33.1282ZM499.71 39.1269L498.949 39.4537L498.951 39.4579L499.71 39.1269ZM494.388 32.4813L493.933 33.173V33.173L494.388 32.4813ZM478.274 32.4813L478.729 33.173V33.173L478.274 32.4813ZM472.922 39.1269L472.163 38.7957L472.161 38.8001L472.922 39.1269ZM472.922 60.6514L472.161 60.9782L472.163 60.9825L472.922 60.6514ZM478.274 67.297L478.729 66.6053L478.274 67.297ZM494.388 67.297L493.933 66.6053L494.388 67.297ZM499.71 60.6514L498.951 60.3203L498.949 60.3246L499.71 60.6514ZM513.702 49.8891C513.702 56.3531 512.477 61.7975 510.067 66.2564L511.524 67.0438C514.094 62.2891 515.358 56.5595 515.358 49.8891H513.702ZM510.066 66.2588C507.665 70.7372 504.4 74.138 500.271 76.4868L501.09 77.9263C505.508 75.4134 508.987 71.7766 511.526 67.0413L510.066 66.2588ZM500.272 76.4861C496.153 78.8208 491.513 79.9953 486.331 79.9953V81.6514C491.774 81.6514 496.7 80.4147 501.089 77.9269L500.272 76.4861ZM486.331 79.9953C481.11 79.9953 476.451 78.811 472.333 76.4582L471.511 77.8961C475.902 80.4049 480.849 81.6514 486.331 81.6514V79.9953ZM472.333 76.4582C468.223 74.1097 464.968 70.7088 462.566 66.2294L461.107 67.0119C463.645 71.7462 467.113 75.3829 471.511 77.8961L472.333 76.4582ZM462.566 66.2294C460.175 61.7696 458.959 56.334 458.959 49.8891H457.303C457.303 56.5394 458.558 62.2581 461.107 67.0119L462.566 66.2294ZM458.959 49.8891C458.959 43.4242 460.175 37.979 462.566 33.5195L461.107 32.7369C458.558 37.4911 457.303 43.2198 457.303 49.8891H458.959ZM462.566 33.5195C464.968 29.0406 468.222 25.6502 472.331 23.3215L471.514 21.8808C467.114 24.3745 463.645 28.0022 461.107 32.7369L462.566 33.5195ZM472.333 23.3201C476.451 20.9673 481.11 19.783 486.331 19.783V18.1269C480.849 18.1269 475.902 19.3734 471.511 21.8822L472.333 23.3201ZM486.331 19.783C491.512 19.783 496.151 20.9667 500.27 23.3201L501.091 21.8822C496.702 19.3739 491.775 18.1269 486.331 18.1269V19.783ZM500.274 23.3223C504.401 25.6513 507.665 29.0416 510.066 33.5195L511.526 32.7369C508.987 28.0012 505.507 24.3734 501.087 21.88L500.274 23.3223ZM510.067 33.5219C512.477 37.9808 513.702 43.4252 513.702 49.8891H515.358C515.358 43.2188 514.094 37.4892 511.524 32.7345L510.067 33.5219ZM502.45 49.8891C502.45 45.5574 501.801 41.8498 500.469 38.7958L498.951 39.4579C500.167 42.2457 500.793 45.713 500.793 49.8891H502.45ZM500.471 38.8001C499.163 35.7543 497.292 33.4016 494.843 31.7896L493.933 33.173C496.07 34.58 497.748 36.6576 498.949 39.4537L500.471 38.8001ZM494.843 31.7896C492.398 30.1807 489.55 29.389 486.331 29.389V31.0451C489.267 31.0451 491.79 31.763 493.933 33.173L494.843 31.7896ZM486.331 29.389C483.112 29.389 480.263 30.1807 477.819 31.7896L478.729 33.173C480.872 31.763 483.395 31.0451 486.331 31.0451V29.389ZM477.819 31.7896C475.371 33.4007 473.491 35.7519 472.163 38.7958L473.681 39.4579C474.902 36.66 476.59 34.5808 478.729 33.173L477.819 31.7896ZM472.161 38.8001C470.85 41.8528 470.212 45.5588 470.212 49.8891H471.868C471.868 45.7116 472.485 42.2428 473.683 39.4537L472.161 38.8001ZM470.212 49.8891C470.212 54.2195 470.85 57.9255 472.161 60.9782L473.683 60.3246C472.485 57.5355 471.868 54.0667 471.868 49.8891H470.212ZM472.163 60.9825C473.491 64.0264 475.371 66.3775 477.819 67.9887L478.729 66.6053C476.59 65.1975 474.902 63.1183 473.681 60.3203L472.163 60.9825ZM477.819 67.9887C480.263 69.5976 483.112 70.3892 486.331 70.3892V68.7331C483.395 68.7331 480.872 68.0153 478.729 66.6053L477.819 67.9887ZM486.331 70.3892C489.55 70.3892 492.398 69.5976 494.843 67.9887L493.933 66.6053C491.79 68.0153 489.267 68.7331 486.331 68.7331V70.3892ZM494.843 67.9887C497.292 66.3767 499.163 64.024 500.471 60.9782L498.949 60.3246C497.748 63.1207 496.07 65.1983 493.933 66.6053L494.843 67.9887ZM500.469 60.9825C501.801 57.9285 502.45 54.2209 502.45 49.8891H500.793C500.793 54.0653 500.167 57.5325 498.951 60.3203L500.469 60.9825ZM523.962 80H523.134V80.828H523.962V80ZM523.962 19.7783V18.9502H523.134V19.7783H523.962ZM559.395 22.3953L559 23.1231L559.004 23.125L559.395 22.3953ZM566.747 29.5996L566.02 29.9974L566.023 30.0029L566.747 29.5996ZM559.219 57.9167L558.836 57.1824L558.834 57.1833L559.219 57.9167ZM532.254 60.475H531.426V61.303H532.254V60.475ZM532.254 50.2714V49.4434H531.426V50.2714H532.254ZM551.397 49.007L551.785 49.7384L551.789 49.7366L551.397 49.007ZM554.984 45.449L554.252 45.0637L554.25 45.0672L554.984 45.449ZM554.984 34.9513L554.25 35.3331L554.256 35.3445L554.984 34.9513ZM551.397 31.4521L551.012 32.1855L551.02 32.1891L551.397 31.4521ZM536.694 30.1877V29.3596H535.866V30.1877H536.694ZM536.694 80V80.828H537.523V80H536.694ZM524.79 80V19.7783H523.134V80H524.79ZM523.962 20.6063H547.721V18.9502H523.962V20.6063ZM547.721 20.6063C552.185 20.6063 555.933 21.4586 559 23.1231L559.79 21.6675C556.427 19.8426 552.393 18.9502 547.721 18.9502V20.6063ZM559.004 23.125C562.083 24.7774 564.415 27.0661 566.02 29.9974L567.473 29.2018C565.707 25.9776 563.137 23.4635 559.787 21.6657L559.004 23.125ZM566.023 30.0029C567.651 32.9211 568.477 36.3072 568.477 40.1854H570.133C570.133 36.0655 569.253 32.3943 567.47 29.1963L566.023 30.0029ZM568.477 40.1854C568.477 44.0621 567.642 47.4469 565.996 50.3644L567.438 51.1781C569.243 47.9794 570.133 44.307 570.133 40.1854H568.477ZM565.996 50.3644C564.354 53.2756 561.975 55.547 558.836 57.1824L559.601 58.6511C563.01 56.8755 565.63 54.3833 567.438 51.1781L565.996 50.3644ZM558.834 57.1833C555.726 58.8126 551.924 59.6469 547.398 59.6469V61.303C552.124 61.303 556.204 60.4319 559.603 58.6502L558.834 57.1833ZM547.398 59.6469H532.254V61.303H547.398V59.6469ZM533.082 60.475V50.2714H531.426V60.475H533.082ZM532.254 51.0994H545.34V49.4434H532.254V51.0994ZM545.34 51.0994C547.879 51.0994 550.042 50.6636 551.785 49.7384L551.009 48.2756C549.576 49.0362 547.701 49.4434 545.34 49.4434V51.0994ZM551.789 49.7366C553.532 48.8013 554.853 47.4989 555.719 45.8307L554.25 45.0672C553.548 46.4179 552.477 47.4876 551.006 48.2773L551.789 49.7366ZM555.717 45.8342C556.592 44.17 557.018 42.2799 557.018 40.1854H555.362C555.362 42.0509 554.984 43.6698 554.252 45.0637L555.717 45.8342ZM557.018 40.1854C557.018 38.0735 556.593 36.189 555.713 34.5582L554.256 35.3445C554.983 36.6934 555.362 38.2983 555.362 40.1854H557.018ZM555.719 34.5696C554.851 32.8978 553.525 31.6118 551.775 30.7151L551.02 32.1891C552.484 32.9392 553.55 33.9859 554.25 35.333L555.719 34.5696ZM551.782 30.7188C550.021 29.7953 547.839 29.3596 545.281 29.3596V31.0157C547.663 31.0157 549.559 31.4231 551.013 32.1854L551.782 30.7188ZM545.281 29.3596H536.694V31.0157H545.281V29.3596ZM535.866 30.1877V80H537.523V30.1877H535.866ZM536.694 79.172H523.962V80.828H536.694V79.172ZM610.244 37.0979L609.42 37.1796L609.494 37.9259H610.244V37.0979ZM594.689 30.4817L594.995 31.2513L595.004 31.2476L594.689 30.4817ZM591.395 32.8636L590.733 32.3667L590.727 32.375L591.395 32.8636ZM590.278 36.3334L591.106 36.3635L591.106 36.3484V36.3334H590.278ZM590.954 39.1563L590.247 39.5873L590.251 39.5936L590.255 39.5997L590.954 39.1563ZM593.042 41.244L592.583 41.9331L592.594 41.9401L593.042 41.244ZM596.1 42.7437L595.811 43.5196L595.823 43.5238L596.1 42.7437ZM599.805 43.8023L599.998 42.9968L599.986 42.9942L599.805 43.8023ZM605.216 45.0961L605.023 45.9015L605.035 45.9041L605.216 45.0961ZM612.449 47.4485L612.112 48.2046L612.449 47.4485ZM618.154 51.0653L618.705 50.4469L618.154 51.0653ZM621.889 56.123L621.135 56.4657L621.138 56.4719L621.889 56.123ZM623.271 62.798L624.099 62.8024L624.099 62.7915L623.271 62.798ZM620.448 72.3841L619.766 71.9145L619.765 71.9156L620.448 72.3841ZM612.449 78.6474L612.773 79.4098L612.775 79.4089L612.449 78.6474ZM587.19 78.618L586.873 79.3827L586.874 79.3833L587.19 78.618ZM578.781 72.0018L578.096 72.4674L578.099 72.4727L578.781 72.0018ZM575.634 61.0925V60.2644H574.787L574.806 61.1112L575.634 61.0925ZM587.955 61.0925L588.781 61.0363L588.729 60.2644H587.955V61.0925ZM589.69 66.1502L589.029 66.6486L589.037 66.6592L589.69 66.1502ZM593.836 69.1789L593.53 69.9484L593.541 69.9524L593.836 69.1789ZM605.363 69.2377L605.062 68.4663L605.059 68.4676L605.363 69.2377ZM609.097 66.6207L609.747 67.1338H609.747L609.097 66.6207ZM609.215 59.3576L608.584 59.8943L608.591 59.9019L609.215 59.3576ZM605.745 57.0052L605.419 57.7663L605.422 57.7678L605.745 57.0052ZM600.188 55.2409L599.986 56.044L599.993 56.0459L600.188 55.2409ZM593.63 53.5942L593.832 52.791L593.826 52.7896L593.63 53.5942ZM581.604 47.8014L581.052 48.4189L581.604 47.8014ZM577.222 37.1861L578.05 37.1898L578.05 37.1817L577.222 37.1861ZM580.133 27.6294L579.463 27.1427L579.461 27.1459L580.133 27.6294ZM611.744 21.2485L611.398 22.0011L611.4 22.0019L611.744 21.2485ZM619.566 27.6294L618.882 28.0967V28.0967L619.566 27.6294ZM622.447 37.0979V37.9259H623.289L623.275 37.0843L622.447 37.0979ZM611.068 37.0162C610.812 34.4307 609.695 32.3669 607.706 30.9029L606.724 32.2365C608.304 33.3995 609.206 35.0211 609.42 37.1796L611.068 37.0162ZM607.706 30.9029C605.735 29.4515 603.121 28.7715 599.952 28.7715V30.4276C602.9 30.4276 605.128 31.0611 606.724 32.2365L607.706 30.9029ZM599.952 28.7715C597.801 28.7715 595.933 29.0752 594.374 29.7158L595.004 31.2476C596.307 30.712 597.947 30.4276 599.952 30.4276V28.7715ZM594.383 29.7122C592.84 30.3252 591.606 31.2021 590.733 32.3667L592.058 33.3604C592.713 32.4863 593.676 31.7753 594.995 31.2513L594.383 29.7122ZM590.727 32.375C589.876 33.5399 589.45 34.8686 589.45 36.3334H591.106C591.106 35.2105 591.425 34.226 592.064 33.3521L590.727 32.375ZM589.451 36.3033C589.406 37.5193 589.661 38.6256 590.247 39.5873L591.661 38.7252C591.268 38.0795 591.071 37.3038 591.106 36.3635L589.451 36.3033ZM590.255 39.5997C590.833 40.5118 591.615 41.2881 592.583 41.933L593.501 40.555C592.705 40.0238 592.095 39.4082 591.654 38.7128L590.255 39.5997ZM592.594 41.9401C593.534 42.5459 594.608 43.071 595.811 43.5196L596.39 41.9678C595.279 41.5538 594.315 41.0792 593.491 40.548L592.594 41.9401ZM595.823 43.5238C597.014 43.9477 598.281 44.3096 599.624 44.6103L599.986 42.9942C598.702 42.7068 597.5 42.363 596.378 41.9636L595.823 43.5238ZM599.613 44.6076L605.023 45.9014L605.408 44.2908L599.998 42.9969L599.613 44.6076ZM605.035 45.9041C607.614 46.4816 609.972 47.2494 612.112 48.2046L612.787 46.6924C610.536 45.6872 608.071 44.8868 605.397 44.2881L605.035 45.9041ZM612.112 48.2046C614.239 49.1541 616.066 50.3155 617.604 51.6838L618.705 50.4469C617.027 48.9531 615.051 47.7032 612.787 46.6924L612.112 48.2046ZM617.604 51.6838C619.126 53.0389 620.301 54.6311 621.135 56.4657L622.642 55.7804C621.712 53.7335 620.398 51.9539 618.705 50.4469L617.604 51.6838ZM621.138 56.4719C621.982 58.2884 622.424 60.3933 622.443 62.8045L624.099 62.7915C624.078 60.1842 623.599 57.8391 622.639 55.7741L621.138 56.4719ZM622.443 62.7936C622.424 66.3339 621.522 69.3625 619.766 71.9145L621.13 72.8536C623.098 69.9951 624.078 66.6329 624.099 62.8024L622.443 62.7936ZM619.765 71.9156C618.025 74.4514 615.493 76.4473 612.124 77.8858L612.775 79.4089C616.384 77.8677 619.185 75.6881 621.13 72.8525L619.765 71.9156ZM612.126 77.8849C608.785 79.301 604.715 80.0247 599.893 80.0247V81.6808C604.874 81.6808 609.175 80.9342 612.773 79.4098L612.126 77.8849ZM599.893 80.0247C595.115 80.0247 590.992 79.2923 587.507 77.8526L586.874 79.3833C590.603 80.9234 594.949 81.6808 599.893 81.6808V80.0247ZM587.508 77.8532C584.053 76.4184 581.382 74.3088 579.462 71.5309L578.099 72.4727C580.218 75.5366 583.153 77.8378 586.873 79.3827L587.508 77.8532ZM579.465 71.5362C577.574 68.7541 576.557 65.2816 576.462 61.0738L574.806 61.1112C574.907 65.5681 575.989 69.3685 578.096 72.4674L579.465 71.5362ZM575.634 61.9205H587.955V60.2644H575.634V61.9205ZM587.129 61.1486C587.275 63.2964 587.895 65.1444 589.029 66.6485L590.351 65.6518C589.446 64.4507 588.91 62.9269 588.781 61.0363L587.129 61.1486ZM589.037 66.6592C590.175 68.1196 591.682 69.2133 593.53 69.9483L594.142 68.4095C592.54 67.7723 591.283 66.8468 590.343 65.6411L589.037 66.6592ZM593.541 69.9524C595.395 70.6607 597.467 71.0067 599.746 71.0067V69.3506C597.635 69.3506 595.767 69.0301 594.132 68.4054L593.541 69.9524ZM599.746 71.0067C601.981 71.0067 603.961 70.682 605.667 70.0078L605.059 68.4676C603.589 69.048 601.825 69.3506 599.746 69.3506V71.0067ZM605.664 70.0091C607.379 69.3396 608.756 68.389 609.747 67.1338L608.447 66.1076C607.674 67.0871 606.561 67.8812 605.062 68.4663L605.664 70.0091ZM609.747 67.1338C610.747 65.8672 611.249 64.4016 611.249 62.7686H609.592C609.592 64.0369 609.212 65.1393 608.447 66.1076L609.747 67.1338ZM611.249 62.7686C611.249 61.2387 610.789 59.9018 609.839 58.8133L608.591 59.9019C609.249 60.6561 609.592 61.5932 609.592 62.7686H611.249ZM609.846 58.8209C608.953 57.7717 607.674 56.922 606.068 56.2426L605.422 57.7678C606.875 58.3821 607.909 59.1008 608.584 59.8943L609.846 58.8209ZM606.071 56.2441C604.507 55.5735 602.607 54.9723 600.382 54.4359L599.993 56.0459C602.159 56.568 603.965 57.143 605.419 57.7663L606.071 56.2441ZM600.389 54.4378L593.832 52.7911L593.429 54.3973L599.986 56.044L600.389 54.4378ZM593.826 52.7896C588.839 51.5767 584.967 49.6954 582.155 47.1838L581.052 48.4189C584.121 51.1611 588.266 53.1417 593.434 54.3988L593.826 52.7896ZM582.155 47.1838C579.415 44.7362 578.031 41.4366 578.05 37.1898L576.394 37.1825C576.374 41.8356 577.911 45.6128 581.052 48.4189L582.155 47.1838ZM578.05 37.1817C578.031 33.6945 578.956 30.6834 580.805 28.113L579.461 27.1459C577.39 30.0253 576.374 33.3852 576.394 37.1906L578.05 37.1817ZM580.803 28.1162C582.687 25.523 585.281 23.4828 588.614 22.0056L587.943 20.4915C584.376 22.0724 581.539 24.2861 579.463 27.1427L580.803 28.1162ZM588.614 22.0056C591.943 20.5304 595.746 19.783 600.041 19.783V18.1269C595.553 18.1269 591.515 18.9086 587.943 20.4915L588.614 22.0056ZM600.041 19.783C604.416 19.783 608.195 20.5314 611.398 22.0011L612.089 20.4959C608.627 18.9075 604.604 18.1269 600.041 18.1269V19.783ZM611.4 22.0019C614.631 23.4758 617.114 25.5105 618.882 28.0967L620.249 27.1622C618.292 24.2987 615.56 22.0794 612.087 20.4952L611.4 22.0019ZM618.882 28.0967C620.645 30.676 621.563 33.6714 621.619 37.1115L623.275 37.0843C623.214 33.3495 622.211 30.0326 620.249 27.1622L618.882 28.0967ZM622.447 36.2698H610.244V37.9259H622.447V36.2698ZM646.567 19.7783L647.395 19.8008L647.418 18.9502H646.567V19.7783ZM645.42 61.9452V62.7733H646.226L646.248 61.9678L645.42 61.9452ZM634.658 61.9452L633.83 61.9683L633.852 62.7733H634.658V61.9452ZM633.482 19.7783V18.9502H632.63L632.654 19.8014L633.482 19.7783ZM635.04 78.7062L634.454 79.2917L634.459 79.2958L635.04 78.7062ZM632.982 73.7073L633.81 73.7157L633.81 73.7073L633.81 73.6989L632.982 73.7073ZM635.04 68.7672L635.621 69.3569L635.04 68.7672ZM644.95 68.7672L644.372 69.3609L644.95 68.7672ZM647.096 73.7073L647.924 73.7198L647.924 73.7094L647.924 73.6989L647.096 73.7073ZM646.067 77.2653L645.363 76.8299L645.36 76.8335L646.067 77.2653ZM643.509 79.8236L643.931 80.536L643.94 80.5301L643.509 79.8236ZM645.739 19.7558L644.592 61.9227L646.248 61.9678L647.395 19.8008L645.739 19.7558ZM645.42 61.1172H634.658V62.7733H645.42V61.1172ZM635.485 61.9222L634.309 19.7552L632.654 19.8014L633.83 61.9683L635.485 61.9222ZM633.482 20.6063H646.567V18.9502H633.482V20.6063ZM640.039 79.9365C638.317 79.9365 636.859 79.3372 635.621 78.1165L634.459 79.2958C636.004 80.8196 637.879 81.5926 640.039 81.5926V79.9365ZM635.626 78.1207C634.388 76.8836 633.792 75.4304 633.81 73.7157L632.154 73.6989C632.132 75.8657 632.908 77.745 634.454 79.2917L635.626 78.1207ZM633.81 73.6989C633.792 72.0066 634.386 70.5745 635.621 69.3569L634.459 68.1776C632.91 69.7044 632.132 71.5657 632.154 73.7158L633.81 73.6989ZM635.621 69.3569C636.859 68.1362 638.317 67.5369 640.039 67.5369V65.8808C637.879 65.8808 636.004 66.6538 634.459 68.1776L635.621 69.3569ZM640.039 67.5369C641.672 67.5369 643.106 68.1295 644.372 69.3609L645.527 68.1735C643.97 66.6605 642.13 65.8808 640.039 65.8808V67.5369ZM644.372 69.3609C645.63 70.5836 646.251 72.0213 646.268 73.7158L647.924 73.6989C647.902 71.551 647.092 69.6954 645.527 68.1735L644.372 69.3609ZM646.268 73.6948C646.251 74.8423 645.949 75.8817 645.363 76.8299L646.771 77.7007C647.518 76.4926 647.902 75.1599 647.924 73.7198L646.268 73.6948ZM645.36 76.8335C644.782 77.78 644.023 78.5386 643.077 79.117L643.94 80.5301C645.111 79.8147 646.058 78.8678 646.773 77.6971L645.36 76.8335ZM643.087 79.1112C642.158 79.6612 641.148 79.9365 640.039 79.9365V81.5926C641.439 81.5926 642.742 81.2405 643.931 80.5359L643.087 79.1112Z" fill="#484848" mask="url(#path-3-outside-1_2525_7067)"/>
<path d="M367.988 273.51V243.399H378.162C380.524 243.399 382.455 243.825 383.955 244.678C385.464 245.521 386.582 246.663 387.307 248.104C388.033 249.545 388.395 251.152 388.395 252.926C388.395 254.7 388.033 256.313 387.307 257.763C386.592 259.214 385.484 260.371 383.984 261.233C382.485 262.086 380.564 262.512 378.221 262.512H370.929V259.278H378.103C379.721 259.278 381.019 258.998 382 258.44C382.98 257.881 383.69 257.126 384.131 256.175C384.582 255.215 384.808 254.132 384.808 252.926C384.808 251.721 384.582 250.642 384.131 249.692C383.69 248.741 382.975 247.996 381.985 247.457C380.995 246.908 379.681 246.633 378.045 246.633H371.634V273.51H367.988ZM400.444 274.039C399.013 274.039 397.714 273.77 396.548 273.23C395.381 272.682 394.455 271.892 393.769 270.863C393.083 269.824 392.74 268.57 392.74 267.099C392.74 265.806 392.995 264.757 393.504 263.953C394.014 263.14 394.695 262.502 395.548 262.042C396.401 261.581 397.342 261.238 398.371 261.013C399.41 260.777 400.454 260.591 401.503 260.454C402.875 260.277 403.987 260.145 404.84 260.057C405.703 259.959 406.33 259.797 406.722 259.572C407.124 259.346 407.325 258.954 407.325 258.396V258.278C407.325 256.827 406.928 255.7 406.134 254.896C405.35 254.093 404.159 253.691 402.561 253.691C400.905 253.691 399.606 254.053 398.665 254.779C397.724 255.504 397.062 256.278 396.68 257.102L393.387 255.925C393.975 254.553 394.759 253.485 395.739 252.72C396.729 251.946 397.807 251.407 398.974 251.103C400.15 250.789 401.307 250.633 402.444 250.633C403.169 250.633 404.002 250.721 404.943 250.897C405.894 251.064 406.81 251.412 407.692 251.941C408.584 252.47 409.324 253.269 409.912 254.338C410.501 255.406 410.795 256.837 410.795 258.631V273.51H407.325V270.452H407.148C406.913 270.942 406.521 271.466 405.972 272.025C405.423 272.584 404.693 273.059 403.781 273.451C402.87 273.843 401.757 274.039 400.444 274.039ZM400.973 270.922C402.345 270.922 403.502 270.653 404.443 270.113C405.394 269.574 406.109 268.878 406.59 268.026C407.08 267.173 407.325 266.276 407.325 265.335V262.159C407.178 262.336 406.854 262.498 406.354 262.645C405.864 262.782 405.296 262.904 404.649 263.012C404.012 263.11 403.389 263.198 402.782 263.277C402.184 263.345 401.699 263.404 401.326 263.453C400.424 263.571 399.581 263.762 398.797 264.027C398.023 264.281 397.396 264.669 396.915 265.188C396.445 265.698 396.21 266.394 396.21 267.276C396.21 268.481 396.656 269.393 397.548 270.011C398.449 270.618 399.591 270.922 400.973 270.922ZM426.243 282.449C424.567 282.449 423.126 282.233 421.921 281.802C420.715 281.381 419.71 280.822 418.907 280.126C418.113 279.44 417.481 278.705 417.01 277.921L419.774 275.98C420.088 276.391 420.485 276.862 420.965 277.391C421.445 277.93 422.102 278.396 422.935 278.788C423.778 279.19 424.881 279.391 426.243 279.391C428.066 279.391 429.571 278.95 430.757 278.068C431.943 277.185 432.536 275.803 432.536 273.921V269.334H432.242C431.987 269.746 431.624 270.256 431.154 270.863C430.693 271.461 430.027 271.995 429.154 272.466C428.292 272.927 427.125 273.157 425.655 273.157C423.832 273.157 422.195 272.726 420.745 271.863C419.304 271.001 418.162 269.746 417.319 268.099C416.486 266.453 416.069 264.453 416.069 262.101C416.069 259.787 416.476 257.773 417.289 256.058C418.103 254.333 419.235 253 420.686 252.059C422.136 251.108 423.812 250.633 425.714 250.633C427.184 250.633 428.351 250.878 429.213 251.368C430.086 251.848 430.752 252.397 431.213 253.014C431.683 253.622 432.046 254.122 432.301 254.514H432.654V250.927H436.006V274.157C436.006 276.097 435.565 277.675 434.683 278.891C433.81 280.116 432.634 281.013 431.154 281.581C429.684 282.16 428.047 282.449 426.243 282.449ZM426.126 270.04C427.518 270.04 428.694 269.721 429.654 269.084C430.615 268.447 431.345 267.531 431.845 266.335C432.345 265.139 432.595 263.708 432.595 262.042C432.595 260.415 432.35 258.979 431.86 257.734C431.37 256.489 430.644 255.514 429.684 254.808C428.723 254.102 427.537 253.75 426.126 253.75C424.655 253.75 423.43 254.122 422.45 254.867C421.48 255.612 420.749 256.612 420.259 257.866C419.779 259.121 419.539 260.513 419.539 262.042C419.539 263.61 419.784 264.997 420.274 266.203C420.774 267.398 421.509 268.339 422.479 269.025C423.46 269.702 424.675 270.04 426.126 270.04ZM451.826 273.98C449.65 273.98 447.773 273.5 446.195 272.539C444.626 271.569 443.416 270.216 442.563 268.481C441.72 266.737 441.299 264.708 441.299 262.395C441.299 260.081 441.72 258.043 442.563 256.278C443.416 254.504 444.602 253.122 446.121 252.132C447.65 251.132 449.434 250.633 451.473 250.633C452.649 250.633 453.811 250.829 454.957 251.221C456.104 251.613 457.148 252.25 458.089 253.132C459.03 254.004 459.78 255.161 460.339 256.602C460.897 258.043 461.177 259.817 461.177 261.924V263.394H443.769V260.395H457.648C457.648 259.121 457.393 257.984 456.883 256.984C456.384 255.984 455.668 255.195 454.737 254.617C453.816 254.039 452.728 253.75 451.473 253.75C450.091 253.75 448.895 254.093 447.885 254.779C446.886 255.455 446.116 256.337 445.577 257.425C445.038 258.513 444.769 259.68 444.769 260.924V262.924C444.769 264.629 445.063 266.075 445.651 267.261C446.249 268.437 447.077 269.334 448.135 269.952C449.194 270.559 450.424 270.863 451.826 270.863C452.737 270.863 453.561 270.736 454.296 270.481C455.041 270.216 455.683 269.824 456.222 269.305C456.761 268.776 457.178 268.119 457.472 267.335L460.824 268.276C460.471 269.413 459.878 270.412 459.045 271.275C458.212 272.128 457.182 272.794 455.957 273.275C454.732 273.745 453.355 273.98 451.826 273.98ZM502.447 243.399V273.51H498.918L482.51 249.868H482.216V273.51H478.57V243.399H482.098L498.565 267.099H498.859V243.399H502.447ZM518.447 273.98C516.408 273.98 514.619 273.495 513.08 272.525C511.551 271.554 510.355 270.197 509.493 268.452C508.64 266.707 508.214 264.669 508.214 262.336C508.214 259.983 508.64 257.93 509.493 256.175C510.355 254.421 511.551 253.058 513.08 252.088C514.619 251.118 516.408 250.633 518.447 250.633C520.486 250.633 522.269 251.118 523.799 252.088C525.337 253.058 526.533 254.421 527.386 256.175C528.249 257.93 528.68 259.983 528.68 262.336C528.68 264.669 528.249 266.707 527.386 268.452C526.533 270.197 525.337 271.554 523.799 272.525C522.269 273.495 520.486 273.98 518.447 273.98ZM518.447 270.863C519.995 270.863 521.27 270.466 522.269 269.672C523.269 268.878 524.009 267.835 524.49 266.541C524.97 265.247 525.21 263.845 525.21 262.336C525.21 260.826 524.97 259.42 524.49 258.116C524.009 256.813 523.269 255.759 522.269 254.955C521.27 254.151 519.995 253.75 518.447 253.75C516.898 253.75 515.624 254.151 514.624 254.955C513.624 255.759 512.884 256.813 512.404 258.116C511.924 259.42 511.684 260.826 511.684 262.336C511.684 263.845 511.924 265.247 512.404 266.541C512.884 267.835 513.624 268.878 514.624 269.672C515.624 270.466 516.898 270.863 518.447 270.863ZM543.798 250.927V253.867H532.094V250.927H543.798ZM535.505 245.516H538.975V267.041C538.975 268.021 539.117 268.756 539.402 269.246C539.696 269.726 540.068 270.05 540.519 270.216C540.98 270.373 541.465 270.452 541.975 270.452C542.357 270.452 542.671 270.432 542.916 270.393C543.161 270.344 543.357 270.305 543.504 270.275L544.209 273.392C543.974 273.48 543.646 273.569 543.224 273.657C542.803 273.755 542.269 273.804 541.622 273.804C540.642 273.804 539.681 273.593 538.74 273.172C537.809 272.75 537.035 272.108 536.417 271.246C535.809 270.383 535.505 269.295 535.505 267.982V245.516ZM561.132 273.51V243.399H579.187V246.633H564.778V256.808H577.834V260.042H564.778V273.51H561.132ZM592.478 273.98C590.439 273.98 588.65 273.495 587.111 272.525C585.582 271.554 584.387 270.197 583.524 268.452C582.671 266.707 582.245 264.669 582.245 262.336C582.245 259.983 582.671 257.93 583.524 256.175C584.387 254.421 585.582 253.058 587.111 252.088C588.65 251.118 590.439 250.633 592.478 250.633C594.517 250.633 596.301 251.118 597.83 252.088C599.369 253.058 600.564 254.421 601.417 256.175C602.28 257.93 602.711 259.983 602.711 262.336C602.711 264.669 602.28 266.707 601.417 268.452C600.564 270.197 599.369 271.554 597.83 272.525C596.301 273.495 594.517 273.98 592.478 273.98ZM592.478 270.863C594.027 270.863 595.301 270.466 596.301 269.672C597.3 268.878 598.04 267.835 598.521 266.541C599.001 265.247 599.241 263.845 599.241 262.336C599.241 260.826 599.001 259.42 598.521 258.116C598.04 256.813 597.3 255.759 596.301 254.955C595.301 254.151 594.027 253.75 592.478 253.75C590.929 253.75 589.655 254.151 588.655 254.955C587.655 255.759 586.915 256.813 586.435 258.116C585.955 259.42 585.715 260.826 585.715 262.336C585.715 263.845 585.955 265.247 586.435 266.541C586.915 267.835 587.655 268.878 588.655 269.672C589.655 270.466 590.929 270.863 592.478 270.863ZM622.24 264.277V250.927H625.709V273.51H622.24V269.687H622.004C621.475 270.834 620.652 271.809 619.534 272.613C618.417 273.407 617.005 273.804 615.3 273.804C613.889 273.804 612.634 273.495 611.536 272.878C610.438 272.25 609.576 271.309 608.948 270.055C608.321 268.79 608.007 267.197 608.007 265.276V250.927H611.477V265.041C611.477 266.688 611.938 268.001 612.859 268.981C613.791 269.962 614.977 270.452 616.417 270.452C617.28 270.452 618.157 270.231 619.049 269.79C619.951 269.349 620.706 268.673 621.313 267.761C621.931 266.85 622.24 265.688 622.24 264.277ZM635.534 259.925V273.51H632.065V250.927H635.417V254.455H635.711C636.24 253.308 637.044 252.387 638.122 251.691C639.2 250.985 640.592 250.633 642.298 250.633C643.827 250.633 645.165 250.946 646.311 251.574C647.458 252.191 648.35 253.132 648.987 254.396C649.624 255.651 649.943 257.239 649.943 259.16V273.51H646.473V259.395C646.473 257.621 646.012 256.239 645.091 255.249C644.17 254.249 642.905 253.75 641.298 253.75C640.19 253.75 639.2 253.99 638.328 254.47C637.465 254.95 636.784 255.651 636.284 256.572C635.784 257.494 635.534 258.611 635.534 259.925ZM664.811 273.98C662.929 273.98 661.268 273.505 659.827 272.554C658.386 271.594 657.259 270.241 656.445 268.496C655.632 266.742 655.225 264.669 655.225 262.277C655.225 259.905 655.632 257.847 656.445 256.102C657.259 254.357 658.391 253.009 659.841 252.059C661.292 251.108 662.968 250.633 664.87 250.633C666.34 250.633 667.501 250.878 668.354 251.368C669.217 251.848 669.873 252.397 670.324 253.014C670.785 253.622 671.143 254.122 671.398 254.514H671.692V243.399H675.161V273.51H671.809V270.04H671.398C671.143 270.452 670.78 270.971 670.31 271.598C669.839 272.216 669.168 272.77 668.295 273.26C667.423 273.74 666.262 273.98 664.811 273.98ZM665.281 270.863C666.673 270.863 667.849 270.501 668.81 269.775C669.771 269.04 670.501 268.026 671.001 266.732C671.501 265.428 671.75 263.924 671.75 262.218C671.75 260.532 671.505 259.057 671.015 257.793C670.525 256.518 669.8 255.529 668.839 254.823C667.879 254.107 666.693 253.75 665.281 253.75C663.811 253.75 662.586 254.127 661.606 254.882C660.635 255.627 659.905 256.641 659.415 257.925C658.935 259.199 658.695 260.63 658.695 262.218C658.695 263.826 658.94 265.286 659.43 266.6C659.93 267.903 660.665 268.942 661.635 269.717C662.615 270.481 663.831 270.863 665.281 270.863Z" fill="#484848"/>
</svg>
