<svg width="69" height="69" viewBox="0 0 69 69" fill="none" xmlns="http://www.w3.org/2000/svg">
<path d="M26.3428 43.0332C26.3428 34.9899 26.3428 30.9682 28.8415 28.4694C31.3403 25.9707 35.3619 25.9707 43.4053 25.9707L46.249 25.9707C54.2924 25.9707 58.314 25.9707 60.8128 28.4694C63.3115 30.9682 63.3115 34.9899 63.3115 43.0332V45.877C63.3115 53.9203 63.3115 57.942 60.8128 60.4407C58.314 62.9395 54.2924 62.9395 46.249 62.9395H43.4053C35.3619 62.9394 31.3403 62.9394 28.8415 60.4407C26.3428 57.942 26.3428 53.9203 26.3428 45.8769L26.3428 43.0332Z" stroke="#3E4F3C" stroke-width="4.26562" stroke-linecap="round" stroke-linejoin="round"/>
<path d="M49.0924 25.9707C49.0858 17.5615 48.9584 13.2057 46.5108 10.2232C46.0381 9.64727 45.51 9.11914 44.934 8.64646C41.7878 6.06445 37.1134 6.06445 27.7647 6.06445C18.4159 6.06445 13.7415 6.06445 10.5953 8.64646C10.0193 9.11914 9.49121 9.64727 9.01853 10.2232C6.43652 13.3694 6.43652 18.0438 6.43652 27.3926C6.43652 36.7414 6.43652 41.4157 9.01853 44.5619C9.49121 45.1379 10.0193 45.666 10.5953 46.1387C13.5778 48.5863 17.9335 48.7137 26.3428 48.7203" stroke="#3E4F3C" stroke-width="4.26562" stroke-linecap="round" stroke-linejoin="round"/>
<path d="M51.9365 44.4551L37.7178 44.4551M44.8271 37.3457V51.5645" stroke="#3E4F3C" stroke-width="4.26562" stroke-linecap="round"/>
</svg>
