<svg width="23" height="23" viewBox="0 0 23 23" fill="none" xmlns="http://www.w3.org/2000/svg">
<path fill-rule="evenodd" clip-rule="evenodd" d="M11.42 0.665379C11.1478 0.697931 10.8613 0.995597 10.8169 1.29183C10.7987 1.41373 10.7992 1.58391 10.8181 1.67008C10.8603 1.86253 11.0918 2.13491 11.2748 2.20734C11.3496 2.23697 11.7859 2.29589 12.2443 2.33834C13.205 2.42724 13.8136 2.54874 14.517 2.79208C17.7433 3.90815 20.051 6.70296 20.551 10.0997C20.6493 10.7675 20.6218 12.2384 20.4984 12.9118C20.2406 14.319 19.6138 15.7321 18.7324 16.8934C18.2657 17.5083 18.2495 17.5406 18.2498 17.8571C18.2501 18.3396 18.5485 18.6389 19.0297 18.6393C19.4531 18.6396 19.647 18.488 20.2148 17.713C22.254 14.9292 22.8347 11.3356 21.7766 8.04738C20.6347 4.49834 17.6787 1.77659 14.0278 0.912833C13.2266 0.723211 11.9493 0.602057 11.42 0.665379ZM4.2887 3.54533C3.99841 3.77522 3.41961 4.41151 3.21721 4.72333C2.88229 5.23911 3.16507 5.90811 3.75553 5.99681C4.13988 6.05459 4.26436 5.9784 4.90779 5.29185C5.60673 4.54607 5.6805 4.42304 5.64356 4.06448C5.59547 3.59747 5.30681 3.35298 4.80361 3.35298C4.5621 3.35298 4.50433 3.37455 4.2887 3.54533ZM11.3028 6.27409C11.1125 6.33257 10.8534 6.63365 10.8163 6.8394C10.8015 6.92172 10.7847 7.77939 10.7791 8.74531L10.7689 10.5015L8.91727 10.5263C7.28284 10.5481 7.04726 10.5611 6.90905 10.6368C6.69436 10.7545 6.5522 10.9704 6.51626 11.2332C6.47592 11.528 6.56144 11.7646 6.78057 11.9644C6.95354 12.1221 6.98327 12.1306 7.48247 12.1655C7.7692 12.1856 8.63153 12.2034 9.3987 12.2052L10.7936 12.2083V14.0561C10.7936 15.8909 10.7944 15.9051 10.9047 16.0675C11.1212 16.3863 11.4246 16.513 11.8016 16.4421C12.0006 16.4047 12.2474 16.2148 12.3451 16.024C12.4101 15.8971 12.4678 14.427 12.4712 12.8143L12.4724 12.2083H13.7238C15.5345 12.2083 16.1468 12.1687 16.336 12.0397C16.5786 11.8741 16.6838 11.6938 16.7053 11.4064C16.7295 11.0834 16.6189 10.8565 16.3434 10.6639L16.151 10.5295L14.3117 10.5279L12.4724 10.5263L12.4704 9.84604C12.4692 9.47194 12.4565 8.63153 12.4421 7.97851C12.4167 6.82723 12.4123 6.78562 12.2962 6.60688C12.2302 6.50552 12.1236 6.38793 12.059 6.34558C11.9114 6.24862 11.5094 6.21062 11.3028 6.27409ZM1.82586 7.6527C1.58021 7.76445 1.49336 7.88111 1.36389 8.27296C1.08328 9.12243 0.891448 10.6415 0.925864 11.742C0.941615 12.2455 0.954305 12.3071 1.08229 12.5008C1.41391 13.0028 2.10909 13.0165 2.44347 12.5276C2.54904 12.3732 2.56005 12.2877 2.60069 11.3079C2.65278 10.0502 2.65807 10.0073 2.87232 9.08943C3.05457 8.30898 3.0515 8.19643 2.83992 7.89872C2.715 7.723 2.39637 7.56019 2.17728 7.56019C2.09581 7.56019 1.93765 7.60179 1.82586 7.6527ZM2.44886 14.8659C2.14385 14.9808 1.90571 15.3328 1.90571 15.6688C1.90571 16.0181 2.56144 17.1672 3.2581 18.0388C3.6779 18.564 4.23843 19.1453 4.61281 19.4438C4.88409 19.6601 4.96616 19.699 5.19038 19.7176C5.7633 19.7653 6.19565 19.2678 6.05058 18.728C6.00708 18.5661 5.85988 18.3832 5.34523 17.8518C4.57519 17.0565 4.29448 16.6912 3.73266 15.7535C3.35957 15.1307 3.28847 15.0405 3.09264 14.9415C2.88412 14.8362 2.61259 14.8043 2.44886 14.8659ZM15.9288 19.3303C15.8609 19.3518 15.6388 19.4461 15.4351 19.5399C14.2238 20.0975 13.3282 20.3071 11.9491 20.3557C10.9512 20.3909 10.2417 20.3249 9.39688 20.1182C8.68258 19.9434 8.44478 19.937 8.2255 20.0865C7.94074 20.2807 7.85566 20.4409 7.85566 20.7827C7.85566 21.3338 8.10378 21.5289 9.11478 21.7726C10.0122 21.989 10.3583 22.0235 11.6083 22.0217C12.9041 22.0198 13.3425 21.9692 14.3241 21.7079C15.3269 21.4409 16.5606 20.9263 16.7787 20.6839C17.3397 20.0606 16.7231 19.0784 15.9288 19.3303Z" fill="#197065"/>
</svg>
