<svg width="131" height="131" viewBox="0 0 131 131" fill="none" xmlns="http://www.w3.org/2000/svg">
<g filter="url(#filter0_d_803_16811)">
<circle cx="61.5" cy="61.5" r="57.5" fill="white"/>
<g clip-path="url(#clip0_803_16811)">
<path d="M89.4756 75.2608L72.3573 49.6911V47.8423C72.3573 46.8805 71.5268 46.1435 70.5848 46.2435H66.3207C65.7877 46.2435 65.2547 46.2684 64.7216 46.3434L49.4131 49.054C48.6074 49.1414 48 49.8285 48 50.6529V52.9263L64.7588 50.8028C65.0315 50.8652 65.1927 51.2025 65.0191 51.4648L49.0288 75.3482C49.004 75.3732 48.9793 75.4107 48.9669 75.4481L48.8553 75.6105H49.1032C49.128 75.6105 49.1404 75.6105 49.1652 75.6105H49.4255L51.8054 75.6355H51.9046L66.7917 75.623C66.7917 75.623 67.5107 75.0859 67.523 74.4738C67.523 74.3739 67.5106 74.274 67.4859 74.1615L71.5268 71.3635V70.9138C71.031 69.902 69.3328 69.6647 69.3328 69.6647C69.3328 69.6647 68.9485 68.9776 67.4487 68.7903L64.6969 71.276C64.4985 71.2136 64.4861 71.326 64.2134 71.3885C63.8911 71.4634 63.8292 71.5259 63.6184 71.5259C63.4077 71.5259 63.4201 71.351 63.2094 71.351C62.9987 71.351 63.0358 71.1511 62.9491 71.0387C62.8623 70.9138 62.6392 71.0512 62.4533 70.7639C62.2301 70.4141 62.0194 70.2268 61.8211 70.0519C61.6599 69.902 61.4988 69.7521 61.3129 69.6147C61.1765 69.5148 61.1269 69.4398 61.2137 69.2899C61.3129 69.1026 61.1517 68.9901 61.0897 68.9402C61.0402 68.9027 61.0278 68.7903 61.1889 68.7403C61.35 68.6903 61.1889 66.0672 61.1889 65.6674C61.1889 65.2677 61.4988 64.9804 61.536 64.6182C61.5732 64.2559 61.8459 63.9686 62.0194 63.5314C62.2053 63.0942 62.0318 62.1699 62.0318 62.1699C62.0318 62.1699 62.3541 60.7084 62.6764 61.7577C62.9987 62.8069 63.4945 62.9943 63.7424 62.9943C63.7548 62.9943 63.7548 62.9818 63.7672 62.9818C63.8911 63.0068 64.0399 62.9693 64.1267 62.8569C64.2506 62.6945 64.3002 62.4697 64.5109 62.3822C64.5481 62.3697 64.5605 62.2698 64.5853 62.1824C64.7588 62.4822 64.9572 62.2823 65.1431 62.2323C65.453 62.6695 65.6265 62.657 65.8868 62.1824C65.9488 62.0699 65.9736 61.945 66.0356 61.8326C66.0976 61.7327 66.1719 61.6452 66.2959 61.5078C66.395 61.8826 66.581 62.1199 66.8413 62.2698C66.9033 62.3073 66.9776 62.3448 67.052 62.3572C67.2999 62.4072 67.3743 62.3323 67.3371 62.0824C67.3123 61.945 67.2751 61.8201 67.4363 61.7452C67.4735 61.7327 67.4859 61.6827 67.4983 61.6452C67.7462 60.9707 67.8949 60.2587 67.7834 59.5592C67.6594 58.8222 67.4115 58.1227 66.8661 57.5731C66.6058 57.3108 66.3207 57.1234 65.9488 57.0734C65.8372 57.0609 65.7505 56.986 65.6389 56.961C65.5769 56.9485 65.5026 56.9485 65.4406 56.936C65.453 56.9485 65.4654 56.961 65.4778 56.986C65.0687 56.8861 64.6969 56.9735 64.1019 57.0859C63.6308 57.1734 63.197 57.4357 62.8871 57.7979L66.99 51.215H67.1636C67.0148 51.7022 66.4198 53.5634 65.2051 56.2115C65.3538 56.249 65.5026 56.299 65.6265 56.3614C66.2091 54.75 66.7421 53.0262 67.1636 51.215H67.9817C67.8081 52.1643 67.4239 54.113 66.8041 56.911C67.176 56.9735 67.4859 57.1359 67.7214 57.3607C68.0189 55.537 68.2172 53.5259 68.118 51.2275H69.0353C69.1221 52.8639 69.2584 59.2969 67.2132 68.1282C67.4363 68.0408 67.6842 67.9908 67.9693 67.9908C68.3659 67.9908 68.7006 68.0908 68.9733 68.2656C69.5683 65.1553 69.8906 60.8083 69.0477 51.24H71.2541L76.3611 58.7348L78.3692 61.7452L87.6163 75.5606L89.3021 75.5731C89.4756 75.5855 89.5748 75.3982 89.4756 75.2608ZM66.8041 48.1546C66.8041 47.63 67.2256 47.1928 67.7586 47.1928H70.3492C70.8699 47.1928 71.3037 47.6175 71.3037 48.1546V49.7036H66.8165V48.1546H66.8041ZM56.0075 71.326C56.2555 71.0137 57.4082 68.6779 57.4082 68.6779L57.4702 70.0394C57.4826 70.2268 57.5694 70.3892 57.7181 70.4891L58.6354 71.1386C57.5942 70.689 56.0075 71.326 56.0075 71.326Z" fill="#30422E"/>
<path d="M62.4657 51.69L54.5945 52.7892C53.3921 52.9141 52.1897 52.9516 50.9874 52.8891L48 52.9141L32.8154 75.5858H47.6529L62.8623 52.3645C63.0731 52.0522 62.8251 51.6525 62.4657 51.69Z" fill="#30422E"/>
<path d="M74.8233 60.6754C72.0095 55.1668 70.3867 51.2773 70.3867 51.2773C71.0065 55.3245 72.432 58.6597 73.5476 61.3703C73.7583 61.058 74.4266 60.8253 74.8233 60.6754Z" fill="#30422E"/>
<path d="M81.6167 72.1133C81.4432 71.3263 81.1705 71.2889 80.6127 70.0023C80.0549 68.7157 78.9021 67.9037 78.4682 67.5665C78.3071 67.4415 78.1707 67.2916 78.0468 67.1293C77.96 67.0168 77.8856 66.842 77.7493 66.767C77.6005 66.6796 77.3898 66.7295 77.2287 66.7295C77.2287 66.7295 76.956 66.5297 77.2411 66.03C77.5262 65.5304 78.1088 65.1931 77.7245 64.0439C77.3526 62.8822 76.6089 62.52 75.828 62.2951C75.0347 62.0828 74.8115 62.0703 73.8571 62.7823C72.9026 63.4818 72.3944 63.7316 72.5555 64.5685C72.7167 65.4055 73.4232 65.7677 73.3984 66.0675C73.3612 66.3673 73.2993 66.6671 73.1877 66.9169C73.0761 67.1667 73.5844 67.1667 73.6587 67.2167C73.7331 67.2667 73.634 67.3916 73.7083 67.479C73.7827 67.5665 73.9314 67.504 73.9686 67.579C74.0058 67.6539 74.1174 67.8787 74.2041 67.9162C74.3033 67.9537 74.9107 67.9787 75.3693 67.7288C75.7164 67.5415 75.8404 67.9912 75.7164 68.2035C75.5925 68.4159 75.3321 68.8905 75.3074 69.4152C75.2702 69.9398 75.3693 70.0647 75.3693 70.2146C75.3693 70.3645 75.5057 70.6018 75.3941 70.8517C75.2702 71.1015 75.1834 71.1265 75.1462 71.4637C75.109 71.801 74.8487 71.5512 74.7619 71.9009C74.6752 72.2507 74.514 72.3007 74.4025 72.3256C74.2909 72.3506 73.981 72.488 73.9314 72.6379C73.8819 72.7878 73.8819 73.2 73.5224 72.9877C73.1629 72.7628 72.4936 72.6879 72.0721 73.1126C71.6631 73.5373 71.7374 74.5866 72.2332 75.0238C72.7291 75.461 73.0761 75.6109 73.5348 75.6234C73.9934 75.6358 80.6127 75.5859 80.6127 75.5859C80.6127 75.5859 80.6622 75.5984 80.8606 75.3361C81.0589 75.0737 81.3192 74.7864 81.2944 74.2618C81.2696 73.7372 80.9969 73.6372 81.1581 73.3499C81.3068 73.0626 81.7902 72.9002 81.6167 72.1133Z" fill="#30422E"/>
</g>
<circle cx="60.9349" cy="61.7741" r="35.6752" transform="rotate(1.76741 60.9349 61.7741)" stroke="#E1683B" stroke-width="4" stroke-linecap="round" stroke-linejoin="round" stroke-dasharray="0.5 10"/>
<circle cx="60.9353" cy="61.7744" r="42.7131" transform="rotate(1.9878 60.9353 61.7744)" stroke="#E1683B" stroke-width="6" stroke-linecap="round" stroke-linejoin="round" stroke-dasharray="0.5 10"/>
<circle cx="60.9352" cy="61.7741" r="50.9374" transform="rotate(1.53309 60.9352 61.7741)" stroke="#E1683B" stroke-width="8" stroke-linecap="round" stroke-linejoin="round" stroke-dasharray="0.5 10"/>
</g>
<defs>
<filter id="filter0_d_803_16811" x="0.3" y="0.3" width="130.4" height="130.4" filterUnits="userSpaceOnUse" color-interpolation-filters="sRGB">
<feFlood flood-opacity="0" result="BackgroundImageFix"/>
<feColorMatrix in="SourceAlpha" type="matrix" values="0 0 0 0 0 0 0 0 0 0 0 0 0 0 0 0 0 0 127 0" result="hardAlpha"/>
<feOffset dx="4" dy="4"/>
<feGaussianBlur stdDeviation="3.85"/>
<feComposite in2="hardAlpha" operator="out"/>
<feColorMatrix type="matrix" values="0 0 0 0 0 0 0 0 0 0 0 0 0 0 0 0 0 0 0.25 0"/>
<feBlend mode="normal" in2="BackgroundImageFix" result="effect1_dropShadow_803_16811"/>
<feBlend mode="normal" in="SourceGraphic" in2="effect1_dropShadow_803_16811" result="shape"/>
</filter>
<clipPath id="clip0_803_16811">
<rect width="56.6974" height="29.3796" fill="white" transform="translate(32.8154 46.2441)"/>
</clipPath>
</defs>
</svg>
