<svg width="131" height="131" viewBox="0 0 131 131" fill="none" xmlns="http://www.w3.org/2000/svg">
<g filter="url(#filter0_d_229_22903)">
<circle cx="61.5" cy="61.5" r="57.5" fill="white"/>
<g clip-path="url(#clip0_229_22903)">
<path d="M89.4756 75.2627L72.3573 49.693V47.8443C72.3573 46.8825 71.5268 46.1455 70.5848 46.2454H66.3207C65.7877 46.2454 65.2547 46.2704 64.7216 46.3453L49.4131 49.056C48.6074 49.1434 48 49.8304 48 50.6548V52.9283L64.7588 50.8047C65.0315 50.8672 65.1927 51.2045 65.0191 51.4668L49.0288 75.3502C49.004 75.3751 48.9793 75.4126 48.9669 75.4501L48.8553 75.6125H49.1032C49.128 75.6125 49.1404 75.6125 49.1652 75.6125H49.4255L51.8054 75.6375H51.9046L66.7917 75.625C66.7917 75.625 67.5107 75.0878 67.523 74.4758C67.523 74.3758 67.5106 74.2759 67.4859 74.1635L71.5268 71.3654V70.9157C71.031 69.904 69.3328 69.6666 69.3328 69.6666C69.3328 69.6666 68.9485 68.9796 67.4487 68.7922L64.6969 71.278C64.4985 71.2155 64.4861 71.328 64.2134 71.3904C63.8911 71.4654 63.8292 71.5278 63.6184 71.5278C63.4077 71.5278 63.4201 71.3529 63.2094 71.3529C62.9987 71.3529 63.0358 71.1531 62.9491 71.0407C62.8623 70.9158 62.6392 71.0532 62.4533 70.7659C62.2301 70.4161 62.0194 70.2287 61.8211 70.0538C61.6599 69.904 61.4988 69.7541 61.3129 69.6167C61.1765 69.5167 61.1269 69.4418 61.2137 69.2919C61.3129 69.1045 61.1517 68.9921 61.0897 68.9421C61.0402 68.9046 61.0278 68.7922 61.1889 68.7423C61.35 68.6923 61.1889 66.0691 61.1889 65.6694C61.1889 65.2697 61.4988 64.9824 61.536 64.6201C61.5732 64.2579 61.8459 63.9706 62.0194 63.5334C62.2053 63.0962 62.0318 62.1718 62.0318 62.1718C62.0318 62.1718 62.3541 60.7103 62.6764 61.7596C62.9987 62.8089 63.4945 62.9963 63.7424 62.9963C63.7548 62.9963 63.7548 62.9838 63.7672 62.9838C63.8911 63.0087 64.0399 62.9713 64.1267 62.8589C64.2506 62.6965 64.3002 62.4716 64.5109 62.3842C64.5481 62.3717 64.5605 62.2718 64.5853 62.1843C64.7588 62.4841 64.9572 62.2843 65.1431 62.2343C65.453 62.6715 65.6265 62.659 65.8868 62.1843C65.9488 62.0719 65.9736 61.947 66.0356 61.8346C66.0976 61.7346 66.1719 61.6472 66.2959 61.5098C66.395 61.8845 66.581 62.1219 66.8413 62.2718C66.9033 62.3092 66.9776 62.3467 67.052 62.3592C67.2999 62.4092 67.3743 62.3342 67.3371 62.0844C67.3123 61.947 67.2751 61.8221 67.4363 61.7471C67.4735 61.7346 67.4859 61.6847 67.4983 61.6472C67.7462 60.9727 67.8949 60.2607 67.7834 59.5611C67.6594 58.8242 67.4115 58.1246 66.8661 57.575C66.6058 57.3127 66.3207 57.1253 65.9488 57.0754C65.8372 57.0629 65.7505 56.9879 65.6389 56.963C65.5769 56.9505 65.5026 56.9505 65.4406 56.938C65.453 56.9505 65.4654 56.963 65.4778 56.9879C65.0687 56.888 64.6969 56.9754 64.1019 57.0879C63.6308 57.1753 63.197 57.4376 62.8871 57.7999L66.99 51.217H67.1636C67.0148 51.7041 66.4198 53.5653 65.2051 56.2135C65.3538 56.251 65.5026 56.3009 65.6265 56.3634C66.2091 54.752 66.7421 53.0282 67.1636 51.217H67.9817C67.8081 52.1663 67.4239 54.1149 66.8041 56.913C67.176 56.9754 67.4859 57.1378 67.7214 57.3627C68.0189 55.5389 68.2172 53.5278 68.118 51.2294H69.0353C69.1221 52.8658 69.2584 59.2988 67.2132 68.1302C67.4363 68.0427 67.6842 67.9928 67.9693 67.9928C68.3659 67.9928 68.7006 68.0927 68.9733 68.2676C69.5683 65.1573 69.8906 60.8103 69.0477 51.2419H71.2541L76.3611 58.7367L78.3692 61.7471L87.6163 75.5625L89.3021 75.575C89.4756 75.5875 89.5748 75.4001 89.4756 75.2627ZM66.8041 48.1566C66.8041 47.6319 67.2256 47.1948 67.7586 47.1948H70.3492C70.8699 47.1948 71.3037 47.6195 71.3037 48.1566V49.7055H66.8165V48.1566H66.8041ZM56.0075 71.328C56.2555 71.0157 57.4082 68.6798 57.4082 68.6798L57.4702 70.0414C57.4826 70.2287 57.5694 70.3911 57.7181 70.491L58.6354 71.1406C57.5942 70.6909 56.0075 71.328 56.0075 71.328Z" fill="#30422E"/>
<path d="M62.4657 51.6919L54.5945 52.7911C53.3921 52.9161 52.1897 52.9535 50.9874 52.8911L48 52.9161L32.8154 75.5878H47.6529L62.8623 52.3664C63.0731 52.0542 62.8251 51.6544 62.4657 51.6919Z" fill="#30422E"/>
<path d="M74.8233 60.6774C72.0095 55.1687 70.3867 51.2793 70.3867 51.2793C71.0065 55.3265 72.432 58.6617 73.5476 61.3723C73.7583 61.06 74.4266 60.8273 74.8233 60.6774Z" fill="#30422E"/>
<path d="M81.6167 72.1152C81.4432 71.3283 81.1705 71.2908 80.6127 70.0042C80.0549 68.7176 78.9021 67.9057 78.4682 67.5684C78.3071 67.4435 78.1707 67.2936 78.0468 67.1312C77.96 67.0188 77.8856 66.8439 77.7493 66.769C77.6005 66.6815 77.3898 66.7315 77.2287 66.7315C77.2287 66.7315 76.956 66.5316 77.2411 66.032C77.5262 65.5323 78.1088 65.1951 77.7245 64.0459C77.3526 62.8842 76.6089 62.5219 75.828 62.2971C75.0347 62.0847 74.8115 62.0722 73.8571 62.7842C72.9026 63.4838 72.3944 63.7336 72.5555 64.5705C72.7167 65.4074 73.4232 65.7697 73.3984 66.0695C73.3612 66.3692 73.2993 66.669 73.1877 66.9189C73.0761 67.1687 73.5844 67.1687 73.6587 67.2187C73.7331 67.2686 73.634 67.3935 73.7083 67.481C73.7827 67.5684 73.9314 67.506 73.9686 67.5809C74.0058 67.6559 74.1174 67.8807 74.2041 67.9182C74.3033 67.9556 74.9107 67.9806 75.3693 67.7308C75.7164 67.5434 75.8404 67.9931 75.7164 68.2055C75.5925 68.4178 75.3321 68.8925 75.3074 69.4171C75.2702 69.9418 75.3693 70.0667 75.3693 70.2166C75.3693 70.3665 75.5057 70.6038 75.3941 70.8536C75.2702 71.1035 75.1834 71.1284 75.1462 71.4657C75.109 71.803 74.8487 71.5531 74.7619 71.9029C74.6752 72.2527 74.514 72.3026 74.4025 72.3276C74.2909 72.3526 73.981 72.49 73.9314 72.6399C73.8819 72.7898 73.8819 73.202 73.5224 72.9896C73.1629 72.7648 72.4936 72.6898 72.0721 73.1146C71.6631 73.5393 71.7374 74.5885 72.2332 75.0257C72.7291 75.4629 73.0761 75.6128 73.5348 75.6253C73.9934 75.6378 80.6127 75.5878 80.6127 75.5878C80.6127 75.5878 80.6622 75.6003 80.8606 75.338C81.0589 75.0757 81.3192 74.7884 81.2944 74.2638C81.2696 73.7391 80.9969 73.6392 81.1581 73.3519C81.3068 73.0646 81.7902 72.9022 81.6167 72.1152Z" fill="#30422E"/>
</g>
<circle cx="60.9349" cy="61.7741" r="35.6752" transform="rotate(1.76741 60.9349 61.7741)" stroke="#E1683B" stroke-width="4" stroke-linecap="round" stroke-linejoin="round" stroke-dasharray="0.5 10"/>
<circle cx="60.9353" cy="61.7735" r="42.7131" transform="rotate(1.9878 60.9353 61.7735)" stroke="#E1683B" stroke-width="6" stroke-linecap="round" stroke-linejoin="round" stroke-dasharray="0.5 10"/>
<circle cx="60.9352" cy="61.7741" r="50.9374" transform="rotate(1.53309 60.9352 61.7741)" stroke="#E1683B" stroke-width="8" stroke-linecap="round" stroke-linejoin="round" stroke-dasharray="0.5 10"/>
</g>
<defs>
<filter id="filter0_d_229_22903" x="0.3" y="0.3" width="130.4" height="130.4" filterUnits="userSpaceOnUse" color-interpolation-filters="sRGB">
<feFlood flood-opacity="0" result="BackgroundImageFix"/>
<feColorMatrix in="SourceAlpha" type="matrix" values="0 0 0 0 0 0 0 0 0 0 0 0 0 0 0 0 0 0 127 0" result="hardAlpha"/>
<feOffset dx="4" dy="4"/>
<feGaussianBlur stdDeviation="3.85"/>
<feComposite in2="hardAlpha" operator="out"/>
<feColorMatrix type="matrix" values="0 0 0 0 0 0 0 0 0 0 0 0 0 0 0 0 0 0 0.25 0"/>
<feBlend mode="normal" in2="BackgroundImageFix" result="effect1_dropShadow_229_22903"/>
<feBlend mode="normal" in="SourceGraphic" in2="effect1_dropShadow_229_22903" result="shape"/>
</filter>
<clipPath id="clip0_229_22903">
<rect width="56.6974" height="29.3796" fill="white" transform="translate(32.8154 46.2451)"/>
</clipPath>
</defs>
</svg>
