<svg width="176" height="44" viewBox="0 0 176 44" fill="none" xmlns="http://www.w3.org/2000/svg">
<rect x="0.5" y="0.5" width="175" height="43" rx="21.5" fill="white"/>
<rect x="0.5" y="0.5" width="175" height="43" rx="21.5" stroke="#197065"/>
<path d="M55 22L70 22" stroke="#197065" stroke-width="1.5" stroke-linecap="round" stroke-linejoin="round"/>
<path d="M59 27L54.7071 22.7071C54.3738 22.3738 54.2071 22.2071 54.2071 22C54.2071 21.7929 54.3738 21.6262 54.7071 21.2929L59 17" stroke="#197065" stroke-width="1.5" stroke-linecap="round" stroke-linejoin="round"/>
<path d="M83.9333 29V15.3625H88.7011C89.6511 15.3625 90.4346 15.5267 91.0517 15.8553C91.6688 16.1793 92.1282 16.6166 92.4301 17.1671C92.732 17.7131 92.8829 18.3191 92.8829 18.985C92.8829 19.5709 92.7786 20.0548 92.5699 20.4366C92.3657 20.8184 92.0949 21.1203 91.7575 21.3422C91.4246 21.5642 91.0628 21.7284 90.6721 21.835V21.9682C91.0894 21.9948 91.5089 22.1413 91.9307 22.4076C92.3524 22.674 92.7053 23.0558 92.9894 23.553C93.2736 24.0502 93.4156 24.6584 93.4156 25.3775C93.4156 26.0612 93.2602 26.676 92.9495 27.2221C92.6387 27.7681 92.1482 28.2009 91.4779 28.5206C90.8075 28.8402 89.9352 29 88.8609 29H83.9333ZM85.5847 27.535H88.8609C89.9396 27.535 90.7054 27.3264 91.1582 26.9091C91.6155 26.4874 91.8441 25.9768 91.8441 25.3775C91.8441 24.9158 91.7265 24.4897 91.4912 24.099C91.2559 23.7039 90.9207 23.3887 90.4857 23.1534C90.0506 22.9137 89.5357 22.7939 88.9408 22.7939H85.5847V27.535ZM85.5847 21.3555H88.6478C89.145 21.3555 89.5934 21.2579 89.9929 21.0625C90.3969 20.8672 90.7165 20.592 90.9518 20.2368C91.1915 19.8817 91.3114 19.4644 91.3114 18.985C91.3114 18.3856 91.1027 17.8773 90.6854 17.4601C90.2682 17.0383 89.6067 16.8275 88.7011 16.8275H85.5847V21.3555ZM98.9259 29.2397C98.2778 29.2397 97.6895 29.1176 97.1613 28.8735C96.633 28.6249 96.2135 28.2675 95.9027 27.8014C95.592 27.3308 95.4366 26.7626 95.4366 26.0967C95.4366 25.5107 95.552 25.0357 95.7829 24.6717C96.0137 24.3032 96.3222 24.0147 96.7085 23.806C97.0947 23.5974 97.5209 23.442 97.987 23.3399C98.4575 23.2334 98.9303 23.149 99.4053 23.0869C100.027 23.007 100.531 22.947 100.917 22.9071C101.308 22.8627 101.592 22.7894 101.769 22.6873C101.951 22.5852 102.042 22.4076 102.042 22.1546V22.1013C102.042 21.4443 101.862 20.9338 101.503 20.5698C101.148 20.2058 100.608 20.0237 99.8848 20.0237C99.1345 20.0237 98.5463 20.188 98.1202 20.5165C97.694 20.845 97.3943 21.1957 97.2212 21.5686L95.7296 21.0359C95.996 20.4144 96.3511 19.9305 96.795 19.5843C97.2434 19.2336 97.7317 18.9894 98.26 18.8518C98.7927 18.7097 99.3165 18.6387 99.8315 18.6387C100.16 18.6387 100.537 18.6786 100.964 18.7585C101.394 18.834 101.809 18.9916 102.209 19.2313C102.613 19.4711 102.948 19.8329 103.214 20.3167C103.481 20.8006 103.614 21.4488 103.614 22.2612V29H102.042V27.6149H101.962C101.856 27.8369 101.678 28.0744 101.43 28.3274C101.181 28.5805 100.85 28.7958 100.437 28.9734C100.025 29.1509 99.5208 29.2397 98.9259 29.2397ZM99.1656 27.828C99.7871 27.828 100.311 27.7059 100.737 27.4618C101.168 27.2176 101.492 26.9024 101.709 26.5162C101.931 26.13 102.042 25.7238 102.042 25.2976V23.8593C101.976 23.9392 101.829 24.0125 101.603 24.079C101.381 24.1412 101.123 24.1967 100.83 24.2455C100.542 24.2899 100.26 24.3299 99.9847 24.3654C99.7139 24.3965 99.4941 24.4231 99.3254 24.4453C98.917 24.4986 98.5352 24.5851 98.1801 24.705C97.8294 24.8204 97.5453 24.9958 97.3277 25.231C97.1147 25.4619 97.0081 25.7771 97.0081 26.1766C97.0081 26.7226 97.2101 27.1355 97.6141 27.4152C98.0225 27.6904 98.5397 27.828 99.1656 27.828ZM110.637 29.2131C109.678 29.2131 108.853 28.9867 108.16 28.5339C107.468 28.0811 106.935 27.4573 106.562 26.6627C106.189 25.8681 106.003 24.9602 106.003 23.9392C106.003 22.9004 106.194 21.9837 106.575 21.1891C106.962 20.39 107.499 19.7663 108.187 19.3179C108.879 18.8651 109.687 18.6387 110.611 18.6387C111.33 18.6387 111.978 18.7719 112.555 19.0382C113.132 19.3046 113.605 19.6775 113.973 20.1569C114.342 20.6364 114.571 21.1957 114.659 21.835H113.088C112.968 21.3689 112.702 20.956 112.289 20.5964C111.88 20.2324 111.33 20.0504 110.637 20.0504C110.025 20.0504 109.488 20.2102 109.026 20.5298C108.569 20.845 108.211 21.2912 107.954 21.8683C107.701 22.4409 107.574 23.1135 107.574 23.8859C107.574 24.6761 107.698 25.3642 107.947 25.9502C108.2 26.5362 108.555 26.9912 109.013 27.3153C109.474 27.6394 110.016 27.8014 110.637 27.8014C111.046 27.8014 111.416 27.7304 111.749 27.5883C112.082 27.4462 112.364 27.242 112.595 26.9757C112.826 26.7093 112.99 26.3897 113.088 26.0168H114.659C114.571 26.6205 114.351 27.1644 114 27.6482C113.654 28.1277 113.194 28.5095 112.622 28.7936C112.053 29.0732 111.392 29.2131 110.637 29.2131ZM118.422 25.271L118.395 23.3266H118.715L123.189 18.7719H125.134L120.366 23.5929H120.233L118.422 25.271ZM116.957 29V15.3625H118.528V29H116.957ZM123.456 29L119.46 23.9392L120.579 22.8471L125.453 29H123.456Z" fill="#197065"/>
</svg>
