<svg width="799" height="409" viewBox="0 0 799 409" fill="none" xmlns="http://www.w3.org/2000/svg">
<path d="M797.818 409.399L556.913 49.0606V23.0078C556.913 9.45331 545.225 -0.932591 531.967 0.475667H471.959C464.458 0.475667 456.957 0.827732 449.456 1.88393L234.019 40.0829C222.681 41.3151 214.133 50.9969 214.133 62.615V94.6529L449.979 64.7274C453.817 65.6076 456.085 70.3605 453.643 74.0571L228.612 410.631C228.263 410.983 227.914 411.511 227.739 412.039L226.169 414.327H229.658C230.007 414.327 230.182 414.327 230.53 414.327H234.194L267.687 414.68H269.082L478.588 414.504C478.588 414.504 488.706 406.934 488.88 398.309C488.88 396.9 488.706 395.492 488.357 393.908L545.225 354.477V348.139C538.247 333.881 514.349 330.536 514.349 330.536C514.349 330.536 508.941 320.854 487.833 318.214L449.107 353.244C446.316 352.364 446.142 353.948 442.304 354.829C437.768 355.885 436.896 356.765 433.931 356.765C430.965 356.765 431.14 354.3 428.174 354.3C425.208 354.3 425.732 351.484 424.511 349.9C423.29 348.139 420.15 350.076 417.533 346.027C414.393 341.098 411.427 338.458 408.636 335.993C406.369 333.881 404.101 331.768 401.484 329.832C399.565 328.424 398.868 327.368 400.089 325.255C401.484 322.615 399.216 321.03 398.344 320.326C397.647 319.798 397.472 318.214 399.74 317.51C402.008 316.806 399.74 279.839 399.74 274.206C399.74 268.573 404.101 264.524 404.624 259.419C405.148 254.314 408.985 250.265 411.427 244.104C414.044 237.943 411.602 224.917 411.602 224.917C411.602 224.917 416.137 204.321 420.673 219.108C425.208 233.894 432.186 236.535 435.675 236.535C435.849 236.535 435.849 236.359 436.024 236.359C437.768 236.711 439.862 236.183 441.083 234.599C442.827 232.31 443.525 229.142 446.49 227.909C447.014 227.733 447.188 226.325 447.537 225.093C449.979 229.318 452.77 226.501 455.387 225.797C459.748 231.958 462.19 231.782 465.854 225.093C466.726 223.509 467.075 221.748 467.947 220.164C468.819 218.756 469.866 217.523 471.61 215.587C473.006 220.868 475.622 224.213 479.286 226.325C480.158 226.853 481.205 227.381 482.251 227.557C485.74 228.261 486.787 227.205 486.263 223.685C485.915 221.748 485.391 219.988 487.659 218.932C488.182 218.756 488.357 218.052 488.531 217.523C492.02 208.018 494.113 197.984 492.543 188.126C490.799 177.74 487.31 167.882 479.635 160.137C475.971 156.44 471.959 153.8 466.726 153.096C465.156 152.92 463.935 151.863 462.365 151.511C461.493 151.335 460.446 151.335 459.574 151.159C459.748 151.335 459.923 151.511 460.097 151.863C454.34 150.455 449.107 151.687 440.734 153.272C434.105 154.504 428 158.201 423.638 163.305L481.379 70.5365H483.821C481.728 77.4018 473.355 103.631 456.259 140.949C458.353 141.477 460.446 142.182 462.19 143.062C470.389 120.354 477.89 96.0612 483.821 70.5365H495.334C492.892 83.9149 487.484 111.376 478.762 150.807C483.996 151.687 488.357 153.976 491.671 157.144C495.858 131.444 498.649 103.102 497.253 70.7125H510.162C511.383 93.7728 513.302 184.429 484.519 308.884C487.659 307.652 491.148 306.948 495.16 306.948C500.742 306.948 505.452 308.356 509.29 310.82C517.663 266.988 522.199 205.729 510.336 70.8886H541.387L613.258 176.508L641.517 218.932L771.652 413.623L795.376 413.799C797.818 413.975 799.214 411.335 797.818 409.399ZM478.762 27.4086C478.762 20.0152 484.693 13.8541 492.194 13.8541H528.653C535.98 13.8541 542.085 19.8392 542.085 27.4086V49.2366H478.937V27.4086H478.762ZM326.823 353.948C330.312 349.548 346.535 316.63 346.535 316.63L347.407 335.817C347.581 338.458 348.803 340.746 350.896 342.154L363.805 351.308C349.151 344.971 326.823 353.948 326.823 353.948Z" fill="#30422E" fill-opacity="0.4"/>
<path d="M417.709 77.2264L306.938 92.7173C290.017 94.4776 273.096 95.0057 256.175 94.1255L214.135 94.4776L0.442383 413.976H209.25L423.292 86.7322C426.257 82.3314 422.768 76.6984 417.709 77.2264Z" fill="#30422E" fill-opacity="0.4"/>
<path d="M591.613 203.858C552.014 126.228 529.178 71.4165 529.178 71.4165C537.9 128.451 557.961 175.452 573.661 213.651C576.626 209.25 586.031 205.97 591.613 203.858Z" fill="#30422E" fill-opacity="0.4"/>
<path d="M687.221 365.039C684.779 353.949 680.941 353.421 673.091 335.29C665.241 317.158 649.018 305.716 642.912 300.963C640.645 299.203 638.726 297.091 636.981 294.802C635.76 293.218 634.714 290.753 632.795 289.697C630.701 288.465 627.736 289.169 625.468 289.169C625.468 289.169 621.63 286.353 625.642 279.311C629.655 272.27 637.853 267.517 632.446 251.322C627.212 234.951 616.746 229.846 605.756 226.678C594.592 223.685 591.452 223.509 578.02 233.543C564.588 243.401 557.435 246.921 559.703 258.716C561.971 270.51 571.914 275.615 571.565 279.839C571.042 284.064 570.17 288.289 568.6 291.81C567.03 295.33 574.182 295.33 575.229 296.034C576.275 296.739 574.88 298.499 575.926 299.731C576.973 300.963 579.066 300.083 579.59 301.139C580.113 302.196 581.683 305.364 582.904 305.892C584.3 306.42 592.847 306.772 599.302 303.252C604.186 300.611 605.93 306.948 604.186 309.941C602.442 312.933 598.778 319.623 598.429 327.016C597.906 334.409 599.302 336.17 599.302 338.282C599.302 340.395 601.22 343.739 599.65 347.26C597.906 350.78 596.685 351.133 596.162 355.885C595.638 360.638 591.975 357.118 590.754 362.047C589.533 366.975 587.265 367.68 585.695 368.032C584.125 368.384 579.764 370.32 579.066 372.432C578.368 374.545 578.369 380.354 573.31 377.361C568.251 374.193 558.831 373.137 552.9 379.122C547.143 385.107 548.19 399.893 555.168 406.055C562.145 412.216 567.03 414.328 573.484 414.504C579.938 414.68 673.091 413.976 673.091 413.976C673.091 413.976 673.789 414.152 676.58 410.455C679.371 406.759 683.034 402.71 682.685 395.317C682.336 387.923 678.499 386.515 680.766 382.466C682.86 378.418 689.663 376.129 687.221 365.039Z" fill="#30422E" fill-opacity="0.4"/>
</svg>
