<svg width="799" height="414" viewBox="0 0 799 414" fill="none" xmlns="http://www.w3.org/2000/svg">
<path d="M797.818 414.469L556.913 54.1309V28.0781C556.913 14.5236 545.225 4.13772 531.967 5.54598H471.959C464.458 5.54598 456.957 5.89804 449.456 6.95424L234.019 45.1532C222.681 46.3855 214.133 56.0672 214.133 67.6854V99.7232L449.979 69.7977C453.817 70.6779 456.085 75.4308 453.643 79.1275L228.612 415.701C228.263 416.053 227.914 416.581 227.739 417.109L226.169 419.398H229.658C230.007 419.398 230.182 419.398 230.53 419.398H234.194L267.687 419.75H269.082L478.588 419.574C478.588 419.574 488.706 412.004 488.88 403.379C488.88 401.971 488.706 400.562 488.357 398.978L545.225 359.547V353.21C538.247 338.951 514.349 335.606 514.349 335.606C514.349 335.606 508.941 325.925 487.833 323.284L449.107 358.315C446.316 357.434 446.142 359.019 442.304 359.899C437.768 360.955 436.896 361.835 433.931 361.835C430.965 361.835 431.14 359.371 428.174 359.371C425.208 359.371 425.732 356.554 424.511 354.97C423.29 353.21 420.15 355.146 417.533 351.097C414.393 346.168 411.427 343.528 408.636 341.063C406.369 338.951 404.101 336.839 401.484 334.902C399.565 333.494 398.868 332.438 400.089 330.325C401.484 327.685 399.216 326.101 398.344 325.397C397.647 324.868 397.472 323.284 399.74 322.58C402.008 321.876 399.74 284.909 399.74 279.276C399.74 273.643 404.101 269.594 404.624 264.489C405.148 259.384 408.985 255.336 411.427 249.175C414.044 243.013 411.602 229.987 411.602 229.987C411.602 229.987 416.137 209.391 420.673 224.178C425.208 238.965 432.186 241.605 435.675 241.605C435.849 241.605 435.849 241.429 436.024 241.429C437.768 241.781 439.862 241.253 441.083 239.669C442.827 237.38 443.525 234.212 446.49 232.98C447.014 232.804 447.188 231.395 447.537 230.163C449.979 234.388 452.77 231.571 455.387 230.867C459.748 237.028 462.19 236.852 465.854 230.163C466.726 228.579 467.075 226.818 467.947 225.234C468.819 223.826 469.866 222.594 471.61 220.657C473.006 225.938 475.622 229.283 479.286 231.395C480.158 231.923 481.205 232.452 482.251 232.628C485.74 233.332 486.787 232.275 486.263 228.755C485.915 226.818 485.391 225.058 487.659 224.002C488.182 223.826 488.357 223.122 488.531 222.594C492.02 213.088 494.113 203.054 492.543 193.196C490.799 182.81 487.31 172.953 479.635 165.207C475.971 161.511 471.959 158.87 466.726 158.166C465.156 157.99 463.935 156.934 462.365 156.582C461.493 156.406 460.446 156.406 459.574 156.23C459.748 156.406 459.923 156.582 460.097 156.934C454.34 155.525 449.107 156.758 440.734 158.342C434.105 159.574 428 163.271 423.638 168.376L481.379 75.6068H483.821C481.728 82.4721 473.355 108.701 456.259 146.02C458.353 146.548 460.446 147.252 462.19 148.132C470.389 125.424 477.89 101.131 483.821 75.6068H495.334C492.892 88.9853 487.484 116.446 478.762 155.878C483.996 156.758 488.357 159.046 491.671 162.215C495.858 136.514 498.649 108.173 497.253 75.7828H510.162C511.383 98.8431 513.302 189.5 484.519 313.954C487.659 312.722 491.148 312.018 495.16 312.018C500.742 312.018 505.452 313.426 509.29 315.891C517.663 272.059 522.199 210.8 510.336 75.9589H541.387L613.258 181.578L641.517 224.002L771.652 418.694L795.376 418.87C797.818 419.046 799.214 416.405 797.818 414.469ZM478.762 32.4789C478.762 25.0856 484.693 18.9244 492.194 18.9244H528.653C535.98 18.9244 542.085 24.9095 542.085 32.4789V54.3069H478.937V32.4789H478.762ZM326.823 359.019C330.312 354.618 346.535 321.7 346.535 321.7L347.407 340.887C347.581 343.528 348.803 345.816 350.896 347.225L363.805 356.378C349.151 350.041 326.823 359.019 326.823 359.019Z" fill="#30422E" fill-opacity="0.4"/>
<path d="M417.709 82.2968L306.938 97.7876C290.017 99.5479 273.096 100.076 256.175 99.1959L214.135 99.5479L0.442383 419.046H209.25L423.292 91.8025C426.257 87.4017 422.768 81.7687 417.709 82.2968Z" fill="#30422E" fill-opacity="0.4"/>
<path d="M591.613 208.928C552.014 131.298 529.178 76.4868 529.178 76.4868C537.9 133.521 557.961 180.522 573.661 218.721C576.626 214.32 586.031 211.041 591.613 208.928Z" fill="#30422E" fill-opacity="0.4"/>
<path d="M687.221 370.109C684.779 359.019 680.941 358.491 673.091 340.36C665.241 322.229 649.018 310.786 642.912 306.034C640.645 304.273 638.726 302.161 636.981 299.872C635.76 298.288 634.714 295.824 632.795 294.768C630.701 293.535 627.736 294.239 625.468 294.239C625.468 294.239 621.63 291.423 625.642 284.382C629.655 277.34 637.853 272.587 632.446 256.393C627.212 240.022 616.746 234.917 605.756 231.748C594.592 228.755 591.452 228.579 578.02 238.613C564.588 248.471 557.435 251.992 559.703 263.786C561.971 275.58 571.914 280.685 571.565 284.91C571.042 289.135 570.17 293.359 568.6 296.88C567.03 300.401 574.182 300.401 575.229 301.105C576.275 301.809 574.88 303.569 575.926 304.801C576.973 306.034 579.066 305.153 579.59 306.21C580.113 307.266 581.683 310.434 582.904 310.963C584.3 311.491 592.847 311.843 599.302 308.322C604.186 305.682 605.93 312.019 604.186 315.011C602.442 318.004 598.778 324.693 598.429 332.086C597.906 339.48 599.302 341.24 599.302 343.352C599.302 345.465 601.22 348.809 599.65 352.33C597.906 355.851 596.685 356.203 596.162 360.956C595.638 365.709 591.975 362.188 590.754 367.117C589.533 372.046 587.265 372.75 585.695 373.102C584.125 373.454 579.764 375.39 579.066 377.503C578.368 379.615 578.369 385.424 573.31 382.432C568.251 379.263 558.831 378.207 552.9 384.192C547.143 390.177 548.19 404.964 555.168 411.125C562.145 417.286 567.03 419.398 573.484 419.574C579.938 419.75 673.091 419.046 673.091 419.046C673.091 419.046 673.789 419.222 676.58 415.526C679.371 411.829 683.034 407.78 682.685 400.387C682.336 392.994 678.499 391.585 680.766 387.537C682.86 383.488 689.663 381.199 687.221 370.109Z" fill="#30422E" fill-opacity="0.4"/>
<path d="M798.04 409.712L798.035 409.705L556.868 48.9752L556.826 48.9121V48.8362V22.7551C556.826 9.33462 545.254 -0.947062 532.13 0.447064L532.116 0.448463H532.103H472.03C464.53 0.448463 457.034 0.800442 449.541 1.85519C449.54 1.8554 449.538 1.8556 449.537 1.85581L233.875 40.095L233.866 40.0964L233.858 40.0973C222.637 41.3167 214.173 50.8986 214.173 62.4054V94.1945L449.995 64.2721L450.039 64.2665L450.082 64.2765C454.084 65.1942 456.449 70.1428 453.902 73.9978L453.901 73.9989L228.625 410.939L228.612 410.959L228.595 410.976C228.27 411.304 227.943 411.8 227.782 412.288L227.77 412.322L227.75 412.351L226.447 414.251H229.465H229.467H229.469H229.471H229.473H229.475H229.477H229.479H229.481H229.483H229.485H229.487H229.489H229.491H229.493H229.495H229.497H229.499H229.501H229.503H229.505H229.507H229.509H229.511H229.513H229.515H229.517H229.519H229.521H229.523H229.525H229.527H229.529H229.531H229.533H229.534H229.536H229.538H229.54H229.542H229.544H229.546H229.548H229.55H229.552H229.553H229.555H229.557H229.559H229.561H229.563H229.565H229.567H229.568H229.57H229.572H229.574H229.576H229.578H229.579H229.581H229.583H229.585H229.587H229.589H229.59H229.592H229.594H229.596H229.598H229.6H229.601H229.603H229.605H229.607H229.608H229.61H229.612H229.614H229.616H229.617H229.619H229.621H229.623H229.624H229.626H229.628H229.63H229.632H229.633H229.635H229.637H229.639H229.64H229.642H229.644H229.645H229.647H229.649H229.651H229.652H229.654H229.656H229.658H229.659H229.661H229.663H229.664H229.666H229.668H229.67H229.671H229.673H229.675H229.676H229.678H229.68H229.681H229.683H229.685H229.686H229.688H229.69H229.691H229.693H229.695H229.696H229.698H229.7H229.701H229.703H229.705H229.706H229.708H229.71H229.711H229.713H229.715H229.716H229.718H229.72H229.721H229.723H229.725H229.726H229.728H229.729H229.731H229.733H229.734H229.736H229.738H229.739H229.741H229.742H229.744H229.746H229.747H229.749H229.75H229.752H229.754H229.755H229.757H229.758H229.76H229.762H229.763H229.765H229.766H229.768H229.77H229.771H229.773H229.774H229.776H229.778H229.779H229.781H229.782H229.784H229.786H229.787H229.789H229.79H229.792H229.793H229.795H229.797H229.798H229.8H229.801H229.803H229.804H229.806H229.808H229.809H229.811H229.812H229.814H229.815H229.817H229.818H229.82H229.822H229.823H229.825H229.826H229.828H229.829H229.831H229.832H229.834H229.836H229.837H229.839H229.84H229.842H229.843H229.845H229.846H229.848H229.849H229.851H229.853H229.854H229.856H229.857H229.859H229.86H229.862H229.863H229.865H229.866H229.868H229.869H229.871H229.873H229.874H229.876H229.877H229.879H229.88H229.882H229.883H229.885H229.886H229.888H229.889H229.891H229.893H229.894H229.896H229.897H229.899H229.9H229.902H229.903H229.905H229.906H229.908H229.909H229.911H229.912H229.914H229.916H229.917H229.919H229.92H229.922H229.923H229.925H229.926H229.928H229.929H229.931H229.932H229.934H229.936H229.937H229.939H229.94H229.942H229.943H229.945H229.946H229.948H229.949H229.951H229.952H229.954H229.956H229.957H229.959H229.96H229.962H229.963H229.965H229.966H229.968H229.969H229.971H229.973H229.974H229.976H229.977H229.979H229.98H229.982H229.983H229.985H229.987H229.988H229.99H229.991H229.993H229.994H229.996H229.998H229.999H230.001H230.002H230.004H230.005H230.007H230.008H230.01H230.012H230.013H230.015H230.016H230.018H230.02H230.021H230.023H230.024H230.026H230.027H230.029H230.031H230.032H230.034H230.035H230.037H230.039H230.04H230.042H230.043H230.045H230.047H230.048H230.05H230.051H230.053H230.055H230.056H230.058H230.059H230.061H230.063H230.064H230.066H230.068H230.069H230.071H230.072H230.074H230.076H230.077H230.079H230.081H230.082H230.084H230.085H230.087H230.089H230.09H230.092H230.094H230.095H230.097H230.099H230.1H230.102H230.104H230.105H230.107H230.109H230.11H230.112H230.114H230.115H230.117H230.119H230.12H230.122H230.124H230.125H230.127H230.129H230.131H230.132H230.134H230.136H230.137H230.139H230.141H230.142H230.144H230.146H230.148H230.149H230.151H230.153H230.154H230.156H230.158H230.16H230.161H230.163H230.165H230.167H230.168H230.17H230.172H230.174H230.175H230.177H230.179H230.181H230.182H230.184H230.186H230.188H230.19H230.191H230.193H230.195H230.197H230.199H230.2H230.202H230.204H230.206H230.208H230.209H230.211H230.213H230.215H230.217H230.218H230.22H230.222H230.224H230.226H230.228H230.23H230.231H230.233H230.235H230.237H230.239H230.241H230.243H230.244H230.246H230.248H230.25H230.252H230.254H230.256H230.258H230.259H230.261H230.263H230.265H230.267H230.269H230.271H230.273H230.275H230.277H230.279H230.281H230.283H230.284H230.286H230.288H230.29H230.292H230.294H230.296H230.298H230.3H230.302H230.304H230.306H230.308H230.31H230.312H230.314H230.316H230.318H230.32H230.322H230.324H230.326H230.328H230.33H230.332H230.334H230.336H230.338H234.006H234.008L267.535 414.603H267.538H268.932L478.581 414.427C478.594 414.417 478.609 414.405 478.626 414.392C478.699 414.335 478.807 414.251 478.944 414.14C479.219 413.918 479.612 413.591 480.085 413.171C481.031 412.331 482.294 411.122 483.562 409.646C486.105 406.685 488.632 402.689 488.719 398.462C488.719 397.075 488.547 395.684 488.201 394.112L488.165 393.949L488.303 393.853L545.125 354.454V348.298C541.664 341.281 534.035 336.919 527.212 334.31C523.798 333.005 520.601 332.143 518.257 331.608C517.085 331.34 516.127 331.155 515.463 331.036C515.131 330.976 514.872 330.934 514.697 330.906C514.652 330.899 514.612 330.893 514.578 330.888C514.546 330.883 514.519 330.879 514.497 330.875L514.447 330.868L514.435 330.866L514.432 330.866L514.431 330.866C514.431 330.866 514.431 330.866 514.439 330.81L514.431 330.866L514.308 330.848L798.04 409.712ZM798.04 409.712C799.318 411.485 798.042 413.883 795.816 413.722L795.808 413.722L795.8 413.722L772.182 413.547L641.981 218.754L798.04 409.712ZM478.59 27.1607V27.4107H478.765V49.0124V49.2624H479.015H542.232H542.482V49.0124V27.1607C542.482 19.445 536.258 13.3415 528.785 13.3415H492.287C484.636 13.3415 478.59 19.6255 478.59 27.1607ZM326.54 353.9L325.954 354.64L326.829 354.288L326.735 354.056C326.829 354.288 326.829 354.288 326.829 354.288L326.829 354.287L326.832 354.286L326.844 354.282L326.892 354.263C326.934 354.246 326.997 354.222 327.08 354.19C327.131 354.17 327.19 354.148 327.256 354.123C327.404 354.066 327.59 353.997 327.81 353.917C328.447 353.685 329.375 353.359 330.533 352.989C332.852 352.247 336.094 351.325 339.794 350.6C347.204 349.149 356.396 348.501 363.658 351.642L363.902 351.208L350.979 342.045L350.974 342.041C348.95 340.68 347.762 338.464 347.592 335.891C347.592 335.89 347.592 335.889 347.592 335.888L346.719 316.685L346.245 316.586L346.261 316.594C346.245 316.586 346.245 316.586 346.244 316.586L346.244 316.587L346.242 316.592L346.233 316.61L346.198 316.68L346.062 316.957C345.942 317.199 345.766 317.555 345.54 318.01C345.089 318.919 344.441 320.224 343.653 321.803C342.076 324.96 339.937 329.216 337.689 333.61C335.441 338.004 333.085 342.534 331.073 346.24C329.055 349.957 327.396 352.82 326.54 353.9Z" stroke="#30422E" stroke-width="0.5"/>
<path d="M0.467966 413.9L214.059 94.5529L256.006 94.2016C272.956 95.0829 289.906 94.5537 306.855 92.7906L306.864 92.7894L417.747 77.2828C417.748 77.2826 417.75 77.2825 417.751 77.2823C422.601 76.7794 425.952 82.1814 423.102 86.4105L423.1 86.4133L208.9 413.9H0.467966Z" stroke="#30422E" stroke-width="0.5"/>
<path d="M571.911 208.252C556.749 171.438 538.351 126.769 529.873 73.1889C529.957 73.3857 530.047 73.5977 530.143 73.8246C530.846 75.4774 531.894 77.9249 533.276 81.1048C536.039 87.4644 540.136 96.7532 545.472 108.471C556.121 131.855 571.704 164.914 591.467 203.668C591.156 203.785 590.834 203.906 590.502 204.03C587.892 205.009 584.695 206.208 581.741 207.62C578.506 209.166 575.512 210.988 573.905 213.094C573.247 211.495 572.583 209.881 571.911 208.252Z" stroke="#30422E" stroke-width="0.5"/>
<path d="M599.862 347.36C600.939 344.945 600.375 342.612 599.914 340.702C599.703 339.826 599.512 339.038 599.512 338.373C599.512 337.701 599.372 337.065 599.196 336.273C598.819 334.57 598.282 332.145 598.639 327.094C598.988 319.693 602.656 312.997 604.402 310.001C606.148 307.005 604.402 300.661 599.512 303.304L599.862 347.36ZM599.862 347.36C599.346 348.4 598.877 349.164 598.457 349.847M599.862 347.36L598.457 349.847M598.457 349.847C597.455 351.476 596.738 352.641 596.369 355.995M598.457 349.847L596.369 355.995M596.369 355.995C596.107 358.378 595.056 358.684 593.919 359.014M596.369 355.995L593.919 359.014M593.919 359.014C592.785 359.344 591.566 359.7 590.955 362.163M593.919 359.014L590.955 362.163M590.955 362.163C589.733 367.097 587.463 367.802 585.891 368.155M590.955 362.163L585.891 368.155M585.891 368.155C584.319 368.507 579.954 370.445 579.255 372.56M585.891 368.155L579.255 372.56M579.255 372.56C579.132 372.931 579.031 373.417 578.92 373.949M579.255 372.56L578.92 373.949M578.92 373.949C578.4 376.445 577.667 379.964 573.492 377.494L578.92 373.949ZM673.38 413.899L673.382 414.149C673.38 413.899 673.38 413.899 673.379 413.899L673.376 413.899L673.363 413.899L673.312 413.9L673.112 413.901L672.331 413.907L669.361 413.929C666.798 413.948 663.13 413.975 658.708 414.006C649.865 414.07 638.006 414.152 625.946 414.229C601.82 414.384 576.899 414.516 573.674 414.428C570.471 414.34 567.667 413.774 564.799 412.468C561.926 411.16 558.979 409.107 555.496 406.032C552.068 403.005 550.076 397.833 549.664 392.652C549.252 387.467 550.429 382.355 553.239 379.431C556.153 376.492 559.927 375.276 563.61 375.189C567.296 375.102 570.871 376.148 573.359 377.706L573.365 377.71C574.655 378.473 575.672 378.705 576.484 378.529C577.305 378.351 577.852 377.769 578.231 377.062C578.609 376.358 578.838 375.497 579.016 374.699C579.071 374.451 579.121 374.211 579.169 373.982C579.278 373.458 579.374 372.996 579.492 372.639C579.648 372.168 580.016 371.686 580.534 371.214C581.048 370.745 581.693 370.304 582.37 369.913C583.73 369.129 585.19 368.568 585.946 368.399C586.744 368.22 587.757 367.943 588.723 367.062C589.687 366.181 590.579 364.722 591.198 362.223C591.495 361.025 591.931 360.373 592.404 359.979C592.882 359.579 593.421 359.42 593.994 359.253L594.013 359.248C594.566 359.087 595.164 358.912 595.646 358.453C596.141 357.982 596.483 357.245 596.618 356.023C596.877 353.668 597.306 352.422 597.878 351.331C598.116 350.879 598.377 350.453 598.668 349.98C598.733 349.875 598.799 349.768 598.866 349.658C599.236 349.052 599.644 348.362 600.086 347.471L600.086 347.471L600.09 347.462C600.905 345.634 600.81 343.857 600.522 342.293C600.416 341.714 600.281 341.156 600.156 340.638C600.113 340.459 600.071 340.285 600.031 340.117C599.876 339.45 599.762 338.87 599.762 338.373C599.762 337.817 599.67 337.289 599.547 336.707C599.513 336.548 599.477 336.384 599.439 336.214C599.339 335.76 599.228 335.262 599.126 334.673C598.846 333.065 598.628 330.794 598.889 327.112H598.889L598.889 327.106C599.235 319.77 602.874 313.119 604.618 310.127C605.538 308.548 605.533 306.122 604.669 304.424C604.233 303.568 603.566 302.872 602.663 302.577C601.756 302.28 600.658 302.401 599.394 303.084L599.393 303.085C596.203 304.825 592.485 305.612 589.383 305.897C587.833 306.039 586.442 306.055 585.354 306.004C584.261 305.952 583.503 305.832 583.191 305.716C582.942 305.606 582.647 305.347 582.328 304.969C582.011 304.594 581.691 304.126 581.389 303.636C580.784 302.655 580.265 301.608 580.003 301.079C579.831 300.731 579.53 300.554 579.204 300.457C578.909 300.369 578.565 300.338 578.236 300.308C578.212 300.306 578.188 300.304 578.165 300.302C577.43 300.234 576.751 300.146 576.302 299.618C575.859 299.097 575.921 298.462 576.01 297.763L576.016 297.72C576.057 297.401 576.101 297.059 576.065 296.753C576.026 296.415 575.889 296.098 575.553 295.872C575.382 295.757 575.116 295.671 574.824 295.597C574.523 295.521 574.157 295.448 573.761 295.371C573.711 295.361 573.661 295.352 573.611 295.342C572.848 295.194 571.98 295.026 571.186 294.783C570.332 294.521 569.607 294.184 569.187 293.729C568.983 293.507 568.855 293.26 568.816 292.98C568.776 292.698 568.823 292.36 569.005 291.952C570.592 288.394 571.469 284.137 571.994 279.897L571.994 279.897L571.995 279.887C572.09 278.732 571.482 277.554 570.559 276.291C569.943 275.449 569.163 274.538 568.312 273.543C567.883 273.042 567.436 272.52 566.983 271.975C564.263 268.703 561.239 264.513 560.116 258.672C559.554 255.747 559.579 253.352 560.129 251.252C560.679 249.154 561.758 247.332 563.332 245.559C564.909 243.783 566.977 242.06 569.501 240.16C570.936 239.079 572.51 237.947 574.22 236.717C575.521 235.781 576.899 234.79 578.355 233.721L578.357 233.72C585.082 228.696 589.19 226.262 592.995 225.437C596.791 224.615 600.314 225.389 605.907 226.888C611.395 228.47 616.727 230.53 621.338 234.221C625.945 237.91 629.848 243.242 632.454 251.394L632.455 251.397C635.146 259.454 634.443 264.63 632.596 268.66C631.669 270.684 630.449 272.429 629.201 274.117C629.003 274.384 628.805 274.65 628.607 274.916C627.558 276.323 626.517 277.718 625.665 279.214C623.631 282.783 623.567 285.32 624.048 286.985C624.288 287.814 624.659 288.415 624.974 288.811C625.131 289.009 625.274 289.156 625.379 289.254C625.432 289.303 625.475 289.34 625.506 289.366C625.522 289.379 625.534 289.389 625.543 289.396L625.554 289.404L625.557 289.406L625.559 289.407L625.559 289.408C625.559 289.408 625.559 289.408 625.707 289.206L625.559 289.408L625.625 289.456H625.707C626.286 289.456 626.906 289.411 627.535 289.365L627.597 289.36C628.209 289.315 628.83 289.269 629.444 289.258C630.719 289.236 631.928 289.369 632.915 289.95L632.915 289.951L632.921 289.954C633.829 290.454 634.545 291.295 635.194 292.234C635.461 292.621 635.714 293.019 635.964 293.413C636.017 293.496 636.069 293.578 636.122 293.661C636.422 294.132 636.722 294.592 637.035 294.998C638.789 297.299 640.725 299.431 643.017 301.211C643.474 301.566 643.986 301.959 644.547 302.388C651.508 307.718 665.908 318.743 673.153 335.476C676.754 343.796 679.516 348.423 681.682 352.052C681.883 352.389 682.079 352.717 682.27 353.039C684.511 356.816 686.069 359.698 687.283 365.213C688.492 370.701 687.41 373.979 685.792 376.386C685.029 377.52 684.144 378.465 683.298 379.369C683.239 379.433 683.18 379.496 683.121 379.56C682.23 380.513 681.388 381.439 680.846 382.487C680.26 383.533 680.06 384.427 680.109 385.298C680.158 386.161 680.452 386.982 680.812 387.875C680.88 388.044 680.951 388.216 681.024 388.393C681.721 390.086 682.581 392.174 682.737 395.481C683.053 402.168 680.054 406.071 677.392 409.535C677.149 409.851 676.909 410.164 676.675 410.474C675.283 412.318 674.424 413.18 673.924 413.579C673.675 413.779 673.523 413.856 673.446 413.885C673.425 413.893 673.41 413.897 673.402 413.899L673.38 413.899Z" stroke="#30422E" stroke-width="0.5"/>
</svg>
