<svg width="144" height="144" viewBox="0 0 144 144" fill="none" xmlns="http://www.w3.org/2000/svg">
<g clip-path="url(#clip0_3584_13075)">
<path fill-rule="evenodd" clip-rule="evenodd" d="M0 72C0 52.9044 7.58569 34.5909 21.0883 21.0883C34.5909 7.58569 52.9044 0 72 0C91.0956 0 109.409 7.58569 122.912 21.0883C136.414 34.5909 144 52.9044 144 72C144 91.0956 136.414 109.409 122.912 122.912C109.409 136.414 91.0956 144 72 144C52.9044 144 34.5909 136.414 21.0883 122.912C7.58569 109.409 0 91.0956 0 72ZM67.8912 102.816L109.344 50.9952L101.856 45.0048L66.5088 89.1744L41.472 68.3136L35.328 75.6864L67.8912 102.816Z" fill="#30422E"/>
</g>
<defs>
<clipPath id="clip0_3584_13075">
<rect width="144" height="144" fill="white"/>
</clipPath>
</defs>
</svg>
