<svg width="794" height="770" viewBox="0 0 794 770" fill="none" xmlns="http://www.w3.org/2000/svg">
<path fill-rule="evenodd" clip-rule="evenodd" d="M589.669 9.15694C589.669 15.9209 583.82 30.0742 573.065 49.3244C560.04 72.645 556.173 82.7908 555.116 96.4324C553.601 116.009 559.021 139.189 565.117 139.189C570.083 139.189 590.63 119.436 596.23 109.278C598.492 105.172 602.138 95.744 604.332 88.3277C607.926 76.1616 608.346 75.7456 608.605 84.0927C609.006 97.0699 601.907 117.478 591.78 132.455C587.052 139.452 584.714 145.174 586.584 145.174C593.552 145.174 608.244 136.178 617.688 126.131C643.588 98.5693 639.927 56.1063 608.051 14.4094C595.023 -2.63502 589.669 -4.16439 589.669 9.15694ZM951.67 12.4641C951.67 15.4689 946.483 24.9594 940.147 33.5579C924.356 54.972 921.073 70.2327 927.855 90.6591C930.065 97.3273 947.694 86.4062 954.684 74.0396C958.157 67.8952 961.059 64.9622 961.139 67.5211C961.216 70.0801 956.988 78.499 951.74 86.2267C941.015 102.026 944.212 104.381 961.562 93.4575C976.782 83.8743 981.097 74.8058 979.294 56.1961C977.048 33.0431 951.67 -7.13332 951.67 12.4641ZM714.608 26.6593C714.608 28.9638 711.016 38.0562 706.631 46.8613C697.952 64.2739 696.93 71.8698 701.691 83.569C705.359 92.5806 710.907 91.4373 718.977 80.0075C724.225 72.5821 724.253 74.8447 719.07 86.8133C716.014 93.8675 723.69 92.0688 732.749 83.6049C740.034 76.7991 740.825 74.0456 739.57 59.8773C738.554 48.4445 735.642 40.7827 729.417 33.1569C720.316 22.0084 714.608 19.5033 714.608 26.6593ZM829.612 34.8748C805.934 50.2732 792.108 75.4313 797.563 93.2001C800.821 103.816 810.243 118.239 813.917 118.239C815.272 118.239 815.884 109.146 815.276 98.0366C814.222 78.8223 814.305 78.5379 817.009 92.2394C818.572 100.162 822.022 109.742 824.678 113.528C829.105 119.837 828.856 121.614 821.712 134.798C817.425 142.708 813.917 154.342 813.917 160.645C813.917 170.294 814.981 172.11 820.642 172.11C831.434 172.11 848.355 163.278 858.748 152.22C864.043 146.584 868.378 143.056 868.378 144.375C868.378 150.113 851.626 169.052 841.253 175.04C827.372 183.058 826.834 187.075 839.648 187.075C852.543 187.075 870.514 179.835 878.501 171.422C883.723 165.924 883.562 166.624 877.678 175.103C865.607 192.483 849.198 208.417 820.433 230.693C805.396 242.335 789.052 256.824 784.108 262.882C762.651 289.192 746.992 335.157 741.078 389.193L738.468 413.038L729.19 399.57C711.209 373.469 708.043 353.572 716.482 319.695C722.367 296.073 721.005 283.473 711.18 270.582C704.494 261.81 680.977 243.94 676.12 243.94C674.861 243.94 677.241 250.228 681.406 257.913C690.972 275.568 691.385 299.006 682.588 325.181C679.071 335.642 675.089 345.784 673.737 347.718C672.177 349.951 662.793 339.556 648.064 319.285C610.454 267.524 573.056 233.839 516.404 200.689C476.975 177.62 440.81 159.54 438.469 161.728C437.697 162.449 431.453 160.369 424.591 157.101C417.732 153.833 405.578 151.023 397.582 150.855L383.041 150.55L393.324 147.464C401.026 145.154 408.464 145.522 422.957 148.931C444.597 154.024 446.814 151.917 433.202 139.201C405.184 113.028 354.19 126.322 323.676 167.756C318.445 174.861 314.165 181.272 314.165 182.008C314.165 182.744 320.29 182.735 327.78 181.984C335.27 181.236 349.987 182.747 360.488 185.345C388.311 192.226 406.154 191.397 425.661 182.319C434.816 178.054 442.306 172.631 442.306 170.267C442.306 167.286 447.118 168.992 457.988 175.834C492.064 197.272 549.071 245.918 545.842 250.802C544.736 252.475 545.348 252.966 547.206 251.895C554.078 247.926 614.715 318.914 643.931 365.124C658.007 387.391 675.502 420.095 682.992 438.151C685.75 444.798 685.529 445.01 679.884 441.144C609.474 392.913 579.943 379.035 537.077 374.031C513.646 371.296 514.005 376.135 537.612 381.247C572.389 388.777 601.596 404.735 631.405 432.491C662.473 461.417 678.004 485.929 689.332 523.909C701.117 563.415 698.157 614.788 682.524 642.077C679.269 647.757 680.057 649.858 688.499 658.026C693.845 663.201 702.505 676.187 707.736 686.886C721.486 715.004 723.372 724.71 710.587 701.536C679.615 645.408 633.039 611.181 563.522 593.46C539.893 587.439 529.42 586.655 472.74 586.652C424.101 586.649 400.955 587.98 376.634 592.18C269.635 610.658 142.785 651.388 25.8458 704.814C-13.7564 722.906 -5.43679 721.691 40.2617 702.707C149.515 657.32 244.504 628.791 338.191 613.222C382.823 605.806 481.832 605.641 516.792 612.929C598.55 629.968 660.519 670.925 692.09 728.787C697.193 738.145 693.935 734.877 676.338 712.99C651.088 681.586 612.056 656.838 564.284 641.942C473.278 613.567 356.029 626.125 210.623 679.823C164.207 696.966 109.788 720.805 104.333 726.389C100.357 730.46 99.6298 730.72 153.988 708.402C370.864 619.355 535.568 617.622 628.362 703.416C638.19 712.502 649.563 725.474 653.635 732.243L661.035 744.547L644.13 732.061C622.08 715.78 581.366 697.52 549.452 689.607C514.05 680.829 453.202 678.68 414.788 684.854C383.691 689.852 310.016 710.892 316.372 712.96C318.464 713.64 331.502 710.856 345.345 706.771C381.987 695.958 407.253 692.369 447.035 692.324C510.398 692.252 560.421 705.14 607.362 733.626L626.51 745.247L331.784 746.768C51.0224 748.216 31.7211 748.701 153.988 751.251C376.941 755.899 448.178 758.712 536.811 766.368C621.195 773.656 694.191 786.178 689.921 792.637C688.857 794.241 689.604 794.621 691.577 793.484C695.857 791.012 717.193 800.679 724.795 808.532C727.758 811.591 731.75 817.957 733.672 822.676L737.164 831.254L744.545 818.181C755.574 798.649 777.038 788.779 831.213 778.328C913.881 762.379 1144.84 749.737 1353.5 749.737C1402.69 749.737 1441.81 748.561 1441.81 747.085C1441.81 745.565 1316.88 744.221 1149.59 743.94C988.872 743.667 856.919 743.024 856.364 742.503C854.823 741.063 896.928 717.863 913.227 711.171C950.488 695.871 976.199 691.621 1031.76 691.576C1079.23 691.54 1087.99 692.369 1117.74 699.723C1135.95 704.227 1153.74 709.351 1157.25 711.108C1160.77 712.867 1164.47 713.541 1165.47 712.607C1167.73 710.497 1151.14 703.928 1122.49 695.593C1110.47 692.094 1098.47 688.532 1095.83 687.676C1093.19 686.817 1088.14 685.836 1084.62 685.492C1081.09 685.15 1063.79 683.172 1046.17 681.098C971.916 672.356 898.978 688.942 840.084 727.97L819.799 741.411L825.309 731.358C835.176 713.361 874.512 680.41 902.569 666.642C939.881 648.332 969.757 641.778 1024.96 639.799C1113.08 636.642 1208.02 657.49 1324.88 705.667C1373.68 725.782 1375.28 726.35 1372.83 722.633C1369.42 717.494 1308.74 691.582 1257.61 673.442C1177.52 645.025 1125.16 632.85 1056.73 626.72C945.189 616.733 845.037 653.019 795.859 721.242C783.66 738.166 781.523 737.87 792.149 720.727C844.796 635.795 951.106 594.559 1088.43 605.809C1197.79 614.77 1317.04 647.689 1454.26 706.798C1467.28 712.407 1478.6 716.363 1479.42 715.597C1483.37 711.913 1339.55 653.731 1276.83 633.637C1163.09 597.202 1090.04 583.776 1006.13 583.892C959.15 583.955 945.397 585.047 921.236 590.626C851.716 606.677 799.549 644.283 771.099 698.858C754.716 730.28 753.367 731.576 762.308 707.295C770.186 685.905 775.933 675.738 789.631 658.975L800.86 645.231L794.699 632.224C773.912 588.322 780.44 507.457 809.682 446.672C821.196 422.734 844.63 387.598 849.079 387.598C850.287 387.598 853.206 384.234 855.56 380.122C857.918 376.007 860.321 373.086 860.9 373.627C861.48 374.172 868.121 369.117 875.659 362.401C891.123 348.616 917.69 335.6 942.434 329.683C951.606 327.492 957.795 324.936 956.187 324.008C954.579 323.08 940.156 321.362 924.138 320.192C878.562 316.861 846.517 327.761 811.79 358.414C792.479 375.459 791.948 374.815 795.129 338.287C799.123 292.481 812.3 269.885 861.368 224.713C898.795 190.256 909.264 172.742 912.24 139.596C914.646 112.765 909.665 110.092 900.397 133.242C896.453 143.097 893.013 151.16 892.753 151.16C892.494 151.16 892.728 141.394 893.276 129.462C894.32 106.767 888.56 79.0797 882.4 77.1941C880.423 76.5896 878.1 78.6008 877.245 81.6685C876.386 84.7332 867.096 93.3437 856.598 100.802L837.515 114.36L843.579 103.579C848.701 94.4691 849.259 89.5518 847.183 71.8489C845.831 60.3263 844.819 45.1733 844.937 38.1789C845.053 31.1846 844.909 25.4592 844.62 25.4592C844.329 25.4592 837.576 29.6971 829.612 34.8748ZM481.896 61.7269C469.44 81.447 463.411 100.925 463.411 121.438C463.411 138.859 464.606 142.963 472.503 152.633C481.742 163.949 497.391 172.11 509.85 172.11C516.094 172.11 515.645 170.985 505.006 159.983C492.964 147.53 487.002 136.648 487.358 127.771C487.492 124.482 488.668 125.329 490.747 130.21C497.103 145.151 524.525 165.954 532.099 161.581C536.286 159.163 536.061 126.711 531.785 116.188C529.901 111.555 521.19 100.063 512.429 90.6471C503.667 81.2345 494.665 68.5776 492.423 62.526L488.341 51.5182L481.896 61.7269ZM653.939 107.838C643.034 128.534 638.62 152.199 642.272 170.384C645.104 184.501 660.842 201.064 673.897 203.67C679.548 204.799 685.977 207.079 688.178 208.737C696.152 214.738 692.295 203.18 683.87 195.826C674.272 187.449 668.316 177.384 665.408 164.628C663.38 155.739 663.421 155.754 669.46 166.182C680.807 185.773 703.52 201.438 710.754 194.659C715.11 190.574 712.753 155.769 707.499 146.671C704.648 141.733 695.633 130.426 687.464 121.546C679.298 112.666 671.792 101.553 670.786 96.8544C669.78 92.1556 667.893 88.3097 666.593 88.3097C665.295 88.3097 659.6 97.0968 653.939 107.838ZM762.968 117.757C735.411 143.822 726.694 171.874 739.294 193.958C742.299 199.226 744.461 204.544 744.099 205.78C743.737 207.013 744.522 207.738 745.842 207.391C747.165 207.04 751.612 208.495 755.728 210.626C765.573 215.72 767.36 213.472 761.748 203.066C755.936 192.291 752.486 172.11 756.455 172.11C758.105 172.11 759.457 174.894 759.457 178.294C759.457 188.712 775.231 211.018 782.596 211.018C787.405 211.018 797.755 186.126 797.829 174.388C797.868 168.232 794.911 156.11 791.255 147.452C787.603 138.791 783.545 124.973 782.237 116.742L779.86 101.778L762.968 117.757ZM998.121 110.245C981.902 117.167 969.408 128.959 961.421 144.893C957.221 153.27 954.703 160.977 955.825 162.024C956.946 163.072 962.994 159.717 969.27 154.569C983.122 143.208 1000.68 134.637 1015.74 131.886C1025.7 130.066 1025.01 130.779 1009.49 138.255C999.883 142.885 989.661 147.91 986.768 149.421C980.434 152.737 963.068 180.766 965.778 183.298C966.832 184.282 975.261 185.659 984.509 186.357C1008.31 188.152 1032.83 178.749 1061.38 156.886C1074.16 147.099 1090.13 137.689 1096.87 135.971C1112.43 132.009 1109.46 128.091 1082.17 116.569C1058.31 106.497 1014.61 103.208 998.121 110.245ZM578.62 153.198C580.062 156.191 582.112 172.11 583.173 188.571C584.236 205.032 586.729 221.194 588.715 224.486C594.612 234.273 611.312 247.738 614.952 245.637C620.266 242.566 625.104 221.819 623.102 210.674C621.506 201.818 621.772 201.276 625.206 206.367C627.365 209.569 629.054 220.056 628.958 229.67C628.807 244.67 629.445 246.633 633.462 243.518C641.426 237.34 647.333 223.815 647.333 211.751C647.333 188.727 625.93 167.232 588.439 152.606C576.57 147.976 576.118 148.003 578.62 153.198ZM921.236 194.704C915.95 197.236 909.825 201.524 907.621 204.236C902.841 210.126 902.165 227.173 906.82 224.486C908.582 223.468 910.024 224.737 910.024 227.302C910.024 233.291 919.388 233.291 928.537 227.305C932.458 224.74 937.462 223.609 939.663 224.791C941.861 225.973 942.623 225.869 941.354 224.555C938.868 221.987 949.411 205.999 957.756 199.678C962.241 196.278 962.28 195.479 958.061 192.989C950.77 188.682 931.987 189.559 921.236 194.704ZM434.74 211.057C419.651 223.432 413.052 240.423 412.939 267.17C412.888 279.31 413.587 289.937 414.493 290.784C415.403 291.631 419.007 289.65 422.505 286.382C426.004 283.113 438.35 276.212 449.944 271.043C462.264 265.548 474.185 257.656 478.644 252.044C487.271 241.183 494.364 223.63 491.734 219.652C486.877 212.311 458.01 220.272 445.568 232.387C439.503 238.292 438.853 238.463 441.614 233.432C446.41 224.689 455.319 217.872 468.854 212.589C485.711 206.008 483.603 202.039 463.242 202.039C448.339 202.039 444.097 203.38 434.74 211.057ZM1062.98 206.211C1059.9 208.402 1046.4 211.123 1033 212.257C1001.41 214.933 986.137 220.879 972.419 235.853C966.294 242.539 961.28 248.899 961.28 249.982C961.28 253.84 977.791 258.904 990.365 258.904C997.388 258.904 1008.13 256.953 1014.24 254.567C1029.27 248.701 1028.32 251.38 1012.75 258.805C1005.81 262.109 993.2 265.165 984.714 265.599C976.231 266.033 969.491 267.673 969.734 269.247C970.51 274.198 991.157 282.847 1002.2 282.847C1014.42 282.847 1034.81 273.898 1044.83 264.139C1053.89 255.307 1073.4 217.563 1073.4 208.857C1073.4 201.111 1071.03 200.507 1062.98 206.211ZM728.94 234.542C714.761 254.558 714.399 276.858 728.066 288.749C737.952 297.357 744.871 296.968 739.884 288.085C736.212 281.551 736.286 281.506 742.424 286.588C751.913 294.445 755.725 293.005 758.211 280.635C759.774 272.851 758.746 265.336 754.838 255.944C751.746 248.519 747.562 238.065 745.544 232.716C743.523 227.368 740.803 222.989 739.496 222.989C738.192 222.989 733.441 228.188 728.94 234.542ZM926.041 245.684C921.636 247.968 911.712 249.857 903.988 249.88C896.264 249.904 884.469 251.458 877.777 253.331C863.435 257.345 841.048 277.382 843.697 283.835C846.142 289.782 868.118 292.906 879.379 288.908C884.389 287.13 889.207 286.346 890.088 287.169C892.6 289.515 874.586 295.336 859.526 297.048C842.653 298.964 845.623 304.249 866.667 309.753C879.484 313.108 882.262 312.827 895.524 306.829C912.638 299.089 924.058 286.244 932.686 265.033C942.399 241.15 941.249 237.801 926.041 245.684ZM647.333 271.6C647.333 286.564 648.909 295.591 652.321 300.137C658.831 308.822 661.333 308.529 665.814 298.56C668.32 292.99 668.967 292.505 667.82 297.063C666.888 300.765 667.612 303.797 669.428 303.797C674.086 303.797 679.369 293.618 679.369 284.646C679.369 276.867 664.02 258.057 653.301 252.7C647.734 249.913 647.333 251.179 647.333 271.6ZM1151.6 255.809C1150 257.267 1138.04 259.823 1125.02 261.487C1104.93 264.058 1099.73 265.985 1090.58 274.267C1074.53 288.806 1077.23 294.819 1099.83 294.819C1105.26 294.819 1108.85 295.627 1107.79 296.614C1106.73 297.602 1100.72 298.41 1094.44 298.41C1088.16 298.41 1083.02 299.586 1083.02 301.026C1083.02 304.384 1100.29 312.776 1107.2 312.776C1124.98 312.776 1145.26 293.999 1154.79 268.709C1159.36 256.605 1157.77 250.201 1151.6 255.809ZM494.364 263.286C477.113 270.789 472.5 276.861 484.052 276.861C487.633 276.861 491.314 278.699 492.237 280.944C493.159 283.191 501.405 288.558 510.558 292.87C523.417 298.931 529.93 300.293 539.214 298.871C545.822 297.856 551.227 295.77 551.227 294.229C551.227 288.264 544.275 279.773 535.93 275.541C531.128 273.108 528.802 271.061 530.756 270.995C532.714 270.929 539.563 274.201 545.973 278.268C557.282 285.436 557.634 285.475 557.634 279.534C557.634 276.164 553.421 269.472 548.27 264.659C536.221 253.403 518.144 252.942 494.364 263.286ZM1115.05 291.826C1112.16 293.568 1111.77 294.744 1114.06 294.774C1116.16 294.798 1118.77 293.472 1119.86 291.826C1122.31 288.109 1121.2 288.109 1115.05 291.826ZM1001.61 301.319C994.719 302.741 983.907 306.91 977.583 310.585L966.086 317.265L992.175 319.285C1008.49 320.551 1023.11 323.616 1031.2 327.474C1050.04 336.456 1050.36 340.053 1031.72 333.439C1011.78 326.358 989.202 326.262 972.704 333.187L960.101 338.476L972.188 350.977C990.929 370.356 1012.16 378.521 1052.97 382.055C1088.94 385.168 1108.61 390.504 1108.69 397.172C1108.73 400.168 1109.39 400.105 1111.56 396.897C1114.95 391.908 1105.78 365.343 1094.44 347.26C1084.88 332.026 1060.51 310.654 1046.78 305.467C1031.91 299.847 1015.88 298.374 1001.61 301.319ZM455.627 335.07C456.527 351.722 458.516 359.489 463.495 365.747C472.849 377.515 484.266 382.938 494.585 380.52C503.6 378.407 506.499 372.634 498.548 372.634C496.001 372.634 490.526 369.605 486.378 365.9C482.229 362.194 481.066 360.689 483.795 362.554C491.167 367.585 501.617 370.012 507.239 367.995C511.141 366.597 511.602 364.25 509.389 357.041C505.576 344.623 498.051 337.44 479.797 328.791C471.347 324.786 463.623 319.546 462.636 317.143C461.649 314.742 459.397 312.776 457.632 312.776C455.665 312.776 454.887 321.419 455.627 335.07ZM592.418 340.538C584.326 344.04 560.837 362.063 560.837 364.768C560.837 367.875 582.304 372.634 596.323 372.634C609.044 372.634 612.751 371.302 618.267 364.747C624.767 357.029 627.074 348.691 622.711 348.691C621.503 348.691 616.829 351.719 612.325 355.424C604.428 361.913 604.345 361.922 609.996 355.646C621.99 342.328 610.701 332.622 592.418 340.538ZM913.227 370.688C913.227 378.808 927.736 398.666 940.544 408.078C953.771 417.799 944.942 415.833 930.02 405.738C922.873 400.898 914.416 392.818 911.231 387.781C908.044 382.741 904.123 378.619 902.518 378.619C897.642 378.619 903.351 403.472 910.267 412.352C913.817 416.916 915.864 421.95 914.81 423.542C913.756 425.135 914.899 425.718 917.353 424.838C919.804 423.958 923.674 425.335 925.948 427.897C937.055 440.401 980.928 444.286 1008.73 435.23C1020.41 431.429 1021.8 427.753 1012.58 425.021C1009.07 423.982 997.304 412.954 986.425 400.512C965.185 376.231 943.895 363.742 923.639 363.685C914.839 363.661 913.227 364.741 913.227 370.688ZM427.198 388.729L415.39 398.842L431.866 400.958C440.926 402.122 451.148 402.242 454.579 401.225C463.216 398.666 465.615 385.258 458.113 381.507C447.871 376.387 439.269 378.398 427.198 388.729ZM488.367 390.543C477.795 394.532 467.935 416.698 467.935 436.472V453.525L479.948 446.665C486.557 442.894 496.254 437.789 501.498 435.323C512.381 430.211 526.287 412.607 524.871 405.741C523.523 399.189 514.415 398.372 502.853 403.76C495.341 407.261 493.803 407.393 496.552 404.301C498.548 402.054 504.558 398.522 509.904 396.451C516.975 393.715 518.474 392.009 515.402 390.19C510.077 387.035 497.218 387.203 488.367 390.543ZM560.837 408.509C560.837 410.131 565.707 413.361 571.659 415.686C577.611 418.009 583.535 421.504 584.826 423.456C586.226 425.569 583.214 425.09 577.368 422.265C566.328 416.931 555.744 416.114 552.922 420.379C551.884 421.947 553.601 428.346 556.737 434.595C561.007 443.11 566.79 448.018 579.777 454.163C589.311 458.676 599.761 464.608 603.003 467.346C606.241 470.085 608.996 471.782 609.128 471.114C609.259 470.447 610.018 466.583 610.816 462.528C613.433 449.2 605.818 424.279 596.192 414.648C588.923 407.381 584.464 405.555 573.969 405.555C566.745 405.555 560.837 406.884 560.837 408.509ZM858.767 413.232C858.767 417.673 861.769 425.847 865.437 431.39C869.102 436.933 871.325 441.47 870.377 441.47C869.425 441.47 864.623 435.074 859.702 427.254C850.889 413.247 850.742 413.163 849.707 421.63C846.571 447.273 868.31 464.641 904.228 465.185C921.633 465.449 925.253 462.399 916.408 454.917C912.955 451.999 905.792 442.431 900.493 433.658C891.424 418.646 882.874 412.098 865.975 407.228C859.731 405.43 858.767 406.232 858.767 413.232Z" fill="#197065" fill-opacity="0.04"/>
</svg>
