<svg width="15" height="15" viewBox="0 0 15 15" fill="none" xmlns="http://www.w3.org/2000/svg">
<g clip-path="url(#clip0_2070_10089)">
<mask id="path-1-outside-1_2070_10089" maskUnits="userSpaceOnUse" x="-0.232422" y="-0.464844" width="15" height="15" fill="black">
<rect fill="white" x="-0.232422" y="-0.464844" width="15" height="15"/>
<path fill-rule="evenodd" clip-rule="evenodd" d="M13.537 0.561523C13.4938 0.574473 13.4186 0.615664 13.3699 0.653067C13.3211 0.690497 12.9868 1.1488 12.6269 1.67155L11.9727 2.62197H8.47615C4.6554 2.62197 4.82515 2.61509 4.51041 2.78255C4.31621 2.88588 3.99647 3.21225 3.89016 3.4157C3.70206 3.77566 3.71317 3.43388 3.72125 8.60111L3.72852 13.2747L3.79397 13.4369C3.93478 13.786 4.2347 14.078 4.59188 14.2138L4.75898 14.2773L8.86419 14.2847C12.6674 14.2916 12.9732 14.2887 13.0208 14.2456C13.0633 14.2071 13.0723 14.1569 13.0723 13.9568C13.0723 13.7519 13.0626 13.7 13.0094 13.62C12.9235 13.4908 12.7356 13.4 12.5539 13.4H12.4094L12.3751 13.2569C12.3379 13.1019 12.3523 12.8031 12.4039 12.6582C12.4337 12.5744 12.4425 12.5703 12.6141 12.5594C12.8124 12.5468 12.9048 12.4959 13.0096 12.342L13.0723 12.2499V8.59604C13.0723 5.09159 13.0702 4.94028 13.0213 4.89608C12.9589 4.83954 12.8778 4.83706 12.8061 4.88951C12.7531 4.92822 12.7518 4.99937 12.7447 8.27331L12.7374 11.6176H8.84007C6.10239 11.6176 4.89884 11.6268 4.79516 11.6484C4.586 11.692 4.31106 11.8286 4.16928 11.9592L4.04807 12.071L4.0554 7.9522L4.06272 3.83345L4.15187 3.64521C4.2704 3.39501 4.4827 3.17407 4.71411 3.06016L4.89703 2.97009L8.31757 2.96271L11.7381 2.95531L11.6196 3.12982C11.5545 3.22579 10.7917 4.33314 9.92458 5.59058L8.34807 7.87686L8.21271 8.52182L8.07739 9.16677H7.76728C7.42104 9.16677 7.35601 9.19106 7.35601 9.32045C7.35601 9.47349 7.43313 9.50097 7.86233 9.50097H8.24407L8.41365 9.39654C8.5069 9.33911 8.7915 9.16051 9.04608 8.99967L9.50895 8.70724L11.9749 5.13406C13.3313 3.16881 14.4589 1.51804 14.4807 1.46568C14.5346 1.33662 14.5298 1.18244 14.4675 1.04843C14.4022 0.907841 14.3373 0.840499 14.1372 0.705648C13.8913 0.539883 13.7345 0.50223 13.537 0.561523ZM13.5951 0.895726C13.5686 0.911935 13.509 0.980307 13.4627 1.04768L13.3784 1.17019L13.6878 1.38458L13.9972 1.599L14.0625 1.51865C14.236 1.30521 14.2196 1.19336 13.9886 1.01395C13.8269 0.888373 13.6795 0.844091 13.5951 0.895726ZM13.0371 1.66704C12.9536 1.78635 11.9481 3.24328 10.8027 4.90468L8.72012 7.92543L8.8577 8.05195C8.97926 8.16375 9.33246 8.38042 9.3514 8.35483C9.51402 8.13498 13.7962 1.89675 13.7957 1.88032C13.7952 1.85946 13.705 1.79498 13.2635 1.49994L13.189 1.45017L13.0371 1.66704ZM1.15265 1.54461C1.01749 1.58764 0.828335 1.78451 0.791796 1.9202C0.770908 1.99779 0.764112 3.80975 0.769181 7.96125L0.776394 13.8915L0.853233 14.0076C0.895482 14.0714 0.982263 14.1582 1.04607 14.2005L1.16209 14.2773L2.04701 14.2857C2.90797 14.2939 2.93345 14.2926 2.98904 14.237L3.04619 14.1798V7.89959C3.04619 1.65648 3.04585 1.61902 2.99049 1.56366C2.9371 1.51027 2.89967 1.50807 2.09232 1.5108C1.55924 1.51261 1.21414 1.525 1.15265 1.54461ZM1.24587 1.86979C1.21303 1.88302 1.16605 1.92262 1.14143 1.95777C1.10065 2.01595 1.09667 2.54658 1.09667 7.90791V13.7942L1.17808 13.8756L1.25948 13.957H1.98574H2.71199V13.581V13.2051H2.53717C2.32866 13.2051 2.23853 13.1555 2.23853 13.0407C2.23853 12.9154 2.31403 12.8709 2.5262 12.8709H2.71199V12.6081V12.3455L2.25015 12.3366C1.83089 12.3286 1.78468 12.3228 1.74884 12.2737C1.69687 12.2025 1.69874 12.1057 1.75313 12.0512C1.78936 12.015 1.87564 12.0075 2.25443 12.0075H2.71199V11.729V11.4505H2.51901C2.3008 11.4505 2.23853 11.4133 2.23853 11.283C2.23853 11.1657 2.32704 11.1163 2.53717 11.1163H2.71199V10.8517V10.5871H2.52135C2.30988 10.5871 2.23853 10.5438 2.23853 10.4152C2.23853 10.2975 2.3176 10.2529 2.5262 10.2529H2.71199V9.98835V9.72378H2.27259C1.78198 9.72378 1.70938 9.70258 1.70938 9.5594C1.70938 9.40651 1.76441 9.38957 2.26162 9.38957H2.71199V9.125V8.86042L2.55185 8.86C2.34241 8.85947 2.25494 8.81491 2.24399 8.70315C2.23062 8.56688 2.29384 8.52622 2.51901 8.52622H2.71199V8.24771V7.96921H2.51901C2.3008 7.96921 2.23853 7.93203 2.23853 7.80169C2.23853 7.68441 2.32704 7.63501 2.53717 7.63501H2.71199V7.37043V7.10585H2.25677C1.85113 7.10585 1.79655 7.10031 1.75547 7.05492C1.68969 6.98223 1.69729 6.86684 1.77129 6.81501C1.82095 6.7802 1.91995 6.77165 2.27259 6.77165H2.71199V6.50707V6.2425H2.53717C2.32866 6.2425 2.23853 6.1929 2.23853 6.07813C2.23853 5.95288 2.31403 5.90829 2.5262 5.90829H2.71199V5.64372V5.37914L2.55185 5.37872C2.34241 5.37819 2.25494 5.33363 2.24399 5.22187C2.23062 5.0856 2.29384 5.04494 2.51901 5.04494H2.71199V4.76644V4.48793H2.25443C1.87564 4.48793 1.78936 4.48041 1.75313 4.44418C1.69286 4.38388 1.69832 4.27619 1.76508 4.20943C1.81613 4.15838 1.8579 4.15373 2.26638 4.15373H2.71199V3.88915V3.62458H2.52135C2.30869 3.62458 2.23853 3.58124 2.23853 3.4499C2.23853 3.34039 2.33214 3.29037 2.53717 3.29037H2.71199V3.0258V2.76122H2.53717C2.32866 2.76122 2.23853 2.71162 2.23853 2.59685C2.23853 2.4716 2.31403 2.42702 2.5262 2.42702H2.71199V2.13459V1.84216L2.00877 1.84391C1.62198 1.84489 1.2787 1.85653 1.24587 1.86979ZM8.51104 6.20231C8.43752 6.25378 8.42794 6.38442 8.49289 6.4494C8.55636 6.51284 8.78896 6.50816 8.84865 6.44221C8.96233 6.31661 8.86399 6.15895 8.67194 6.15895C8.61749 6.15895 8.54508 6.17847 8.51104 6.20231ZM7.73191 6.35476C7.58179 6.42146 7.53116 6.5178 7.59502 6.61522C7.66504 6.72211 7.73299 6.72762 7.91193 6.64089C8.05193 6.57308 8.07427 6.5513 8.08162 6.47574C8.09833 6.30391 7.95669 6.25489 7.73191 6.35476ZM6.97187 6.87294C6.89595 6.94396 6.83382 7.02439 6.83382 7.05169C6.83382 7.19901 6.95235 7.27165 7.08272 7.20425C7.28221 7.10106 7.37047 6.87478 7.24536 6.78716C7.1529 6.72238 7.12271 6.73185 6.97187 6.87294ZM6.53165 7.48729C6.48527 7.50576 6.36101 7.7668 6.36064 7.84653C6.36003 7.97651 6.55883 8.04789 6.64416 7.94832C6.69204 7.89246 6.77812 7.68183 6.77812 7.62053C6.77812 7.52144 6.63717 7.44524 6.53165 7.48729ZM8.53463 8.61244C8.50077 8.78241 8.47932 8.92773 8.48698 8.93542C8.49467 8.94308 8.62161 8.87117 8.76911 8.77564C8.9166 8.68009 9.02714 8.59331 9.01474 8.58281C8.96631 8.54176 8.61949 8.30341 8.60819 8.30341C8.60159 8.30341 8.5685 8.44247 8.53463 8.61244ZM6.31859 8.36455C6.23596 8.41142 6.22201 8.44339 6.22153 8.58729C6.2212 8.69109 6.23387 8.72693 6.28303 8.76136C6.42275 8.85925 6.5556 8.76815 6.5549 8.57495C6.5544 8.44083 6.53886 8.40863 6.45272 8.36329C6.38033 8.32519 6.38811 8.32511 6.31859 8.36455ZM6.34803 9.22868C6.28968 9.31198 6.29344 9.37835 6.36037 9.44527C6.40546 9.49036 6.45319 9.50097 6.61102 9.50097C6.76885 9.50097 6.81658 9.49036 6.86167 9.44527C6.92859 9.37835 6.93235 9.31198 6.87401 9.22868C6.83544 9.17359 6.80642 9.16677 6.61102 9.16677C6.41562 9.16677 6.3866 9.17359 6.34803 9.22868ZM4.79878 11.9899C4.50295 12.0696 4.20966 12.3316 4.106 12.6087C3.94748 13.0324 4.11475 13.5479 4.48752 13.7846C4.77485 13.967 4.52233 13.957 8.83018 13.957H12.7381V13.8751C12.7381 13.83 12.7224 13.7831 12.7033 13.7707C12.6841 13.7583 10.9013 13.7419 8.74156 13.7342L4.81468 13.7203L4.70138 13.6596C4.56258 13.5854 4.3996 13.4092 4.3393 13.2683C4.31454 13.2106 4.29391 13.0872 4.29341 12.9941C4.29182 12.7029 4.44032 12.4564 4.69994 12.3194L4.84253 12.2442L8.75309 12.2369C11.5651 12.2316 12.6741 12.2209 12.7009 12.1987C12.7213 12.1817 12.7381 12.1192 12.7381 12.0598V11.9518L8.83208 11.9537C5.82946 11.9551 4.89664 11.9635 4.79878 11.9899ZM4.85604 12.6272C4.70216 12.7052 4.62427 12.833 4.62683 13.0033C4.62897 13.1455 4.6864 13.2408 4.82833 13.3373L4.9204 13.4H8.49801C11.5877 13.4 12.0735 13.3946 12.0604 13.3602C12.052 13.3383 12.0367 13.2757 12.0264 13.221L12.0078 13.1215H9.33725C6.70384 13.1215 6.66594 13.1207 6.61102 13.0658C6.58038 13.0352 6.55532 12.985 6.55532 12.9544C6.55532 12.9238 6.58038 12.8736 6.61102 12.843C6.66594 12.7881 6.70384 12.7873 9.35427 12.7873C11.8951 12.7873 12.0418 12.7846 12.0422 12.7386C12.0424 12.7118 12.0501 12.6616 12.0594 12.6272L12.0762 12.5645H8.52792H4.97966L4.85604 12.6272ZM5.78665 12.8086C5.7698 12.8199 5.74031 12.8588 5.72115 12.8952C5.64308 13.0433 5.89897 13.1948 6.02878 13.0774C6.09607 13.0165 6.09715 12.8933 6.03093 12.8334C5.97868 12.7861 5.84124 12.7722 5.78665 12.8086Z"/>
</mask>
<path fill-rule="evenodd" clip-rule="evenodd" d="M13.537 0.561523C13.4938 0.574473 13.4186 0.615664 13.3699 0.653067C13.3211 0.690497 12.9868 1.1488 12.6269 1.67155L11.9727 2.62197H8.47615C4.6554 2.62197 4.82515 2.61509 4.51041 2.78255C4.31621 2.88588 3.99647 3.21225 3.89016 3.4157C3.70206 3.77566 3.71317 3.43388 3.72125 8.60111L3.72852 13.2747L3.79397 13.4369C3.93478 13.786 4.2347 14.078 4.59188 14.2138L4.75898 14.2773L8.86419 14.2847C12.6674 14.2916 12.9732 14.2887 13.0208 14.2456C13.0633 14.2071 13.0723 14.1569 13.0723 13.9568C13.0723 13.7519 13.0626 13.7 13.0094 13.62C12.9235 13.4908 12.7356 13.4 12.5539 13.4H12.4094L12.3751 13.2569C12.3379 13.1019 12.3523 12.8031 12.4039 12.6582C12.4337 12.5744 12.4425 12.5703 12.6141 12.5594C12.8124 12.5468 12.9048 12.4959 13.0096 12.342L13.0723 12.2499V8.59604C13.0723 5.09159 13.0702 4.94028 13.0213 4.89608C12.9589 4.83954 12.8778 4.83706 12.8061 4.88951C12.7531 4.92822 12.7518 4.99937 12.7447 8.27331L12.7374 11.6176H8.84007C6.10239 11.6176 4.89884 11.6268 4.79516 11.6484C4.586 11.692 4.31106 11.8286 4.16928 11.9592L4.04807 12.071L4.0554 7.9522L4.06272 3.83345L4.15187 3.64521C4.2704 3.39501 4.4827 3.17407 4.71411 3.06016L4.89703 2.97009L8.31757 2.96271L11.7381 2.95531L11.6196 3.12982C11.5545 3.22579 10.7917 4.33314 9.92458 5.59058L8.34807 7.87686L8.21271 8.52182L8.07739 9.16677H7.76728C7.42104 9.16677 7.35601 9.19106 7.35601 9.32045C7.35601 9.47349 7.43313 9.50097 7.86233 9.50097H8.24407L8.41365 9.39654C8.5069 9.33911 8.7915 9.16051 9.04608 8.99967L9.50895 8.70724L11.9749 5.13406C13.3313 3.16881 14.4589 1.51804 14.4807 1.46568C14.5346 1.33662 14.5298 1.18244 14.4675 1.04843C14.4022 0.907841 14.3373 0.840499 14.1372 0.705648C13.8913 0.539883 13.7345 0.50223 13.537 0.561523ZM13.5951 0.895726C13.5686 0.911935 13.509 0.980307 13.4627 1.04768L13.3784 1.17019L13.6878 1.38458L13.9972 1.599L14.0625 1.51865C14.236 1.30521 14.2196 1.19336 13.9886 1.01395C13.8269 0.888373 13.6795 0.844091 13.5951 0.895726ZM13.0371 1.66704C12.9536 1.78635 11.9481 3.24328 10.8027 4.90468L8.72012 7.92543L8.8577 8.05195C8.97926 8.16375 9.33246 8.38042 9.3514 8.35483C9.51402 8.13498 13.7962 1.89675 13.7957 1.88032C13.7952 1.85946 13.705 1.79498 13.2635 1.49994L13.189 1.45017L13.0371 1.66704ZM1.15265 1.54461C1.01749 1.58764 0.828335 1.78451 0.791796 1.9202C0.770908 1.99779 0.764112 3.80975 0.769181 7.96125L0.776394 13.8915L0.853233 14.0076C0.895482 14.0714 0.982263 14.1582 1.04607 14.2005L1.16209 14.2773L2.04701 14.2857C2.90797 14.2939 2.93345 14.2926 2.98904 14.237L3.04619 14.1798V7.89959C3.04619 1.65648 3.04585 1.61902 2.99049 1.56366C2.9371 1.51027 2.89967 1.50807 2.09232 1.5108C1.55924 1.51261 1.21414 1.525 1.15265 1.54461ZM1.24587 1.86979C1.21303 1.88302 1.16605 1.92262 1.14143 1.95777C1.10065 2.01595 1.09667 2.54658 1.09667 7.90791V13.7942L1.17808 13.8756L1.25948 13.957H1.98574H2.71199V13.581V13.2051H2.53717C2.32866 13.2051 2.23853 13.1555 2.23853 13.0407C2.23853 12.9154 2.31403 12.8709 2.5262 12.8709H2.71199V12.6081V12.3455L2.25015 12.3366C1.83089 12.3286 1.78468 12.3228 1.74884 12.2737C1.69687 12.2025 1.69874 12.1057 1.75313 12.0512C1.78936 12.015 1.87564 12.0075 2.25443 12.0075H2.71199V11.729V11.4505H2.51901C2.3008 11.4505 2.23853 11.4133 2.23853 11.283C2.23853 11.1657 2.32704 11.1163 2.53717 11.1163H2.71199V10.8517V10.5871H2.52135C2.30988 10.5871 2.23853 10.5438 2.23853 10.4152C2.23853 10.2975 2.3176 10.2529 2.5262 10.2529H2.71199V9.98835V9.72378H2.27259C1.78198 9.72378 1.70938 9.70258 1.70938 9.5594C1.70938 9.40651 1.76441 9.38957 2.26162 9.38957H2.71199V9.125V8.86042L2.55185 8.86C2.34241 8.85947 2.25494 8.81491 2.24399 8.70315C2.23062 8.56688 2.29384 8.52622 2.51901 8.52622H2.71199V8.24771V7.96921H2.51901C2.3008 7.96921 2.23853 7.93203 2.23853 7.80169C2.23853 7.68441 2.32704 7.63501 2.53717 7.63501H2.71199V7.37043V7.10585H2.25677C1.85113 7.10585 1.79655 7.10031 1.75547 7.05492C1.68969 6.98223 1.69729 6.86684 1.77129 6.81501C1.82095 6.7802 1.91995 6.77165 2.27259 6.77165H2.71199V6.50707V6.2425H2.53717C2.32866 6.2425 2.23853 6.1929 2.23853 6.07813C2.23853 5.95288 2.31403 5.90829 2.5262 5.90829H2.71199V5.64372V5.37914L2.55185 5.37872C2.34241 5.37819 2.25494 5.33363 2.24399 5.22187C2.23062 5.0856 2.29384 5.04494 2.51901 5.04494H2.71199V4.76644V4.48793H2.25443C1.87564 4.48793 1.78936 4.48041 1.75313 4.44418C1.69286 4.38388 1.69832 4.27619 1.76508 4.20943C1.81613 4.15838 1.8579 4.15373 2.26638 4.15373H2.71199V3.88915V3.62458H2.52135C2.30869 3.62458 2.23853 3.58124 2.23853 3.4499C2.23853 3.34039 2.33214 3.29037 2.53717 3.29037H2.71199V3.0258V2.76122H2.53717C2.32866 2.76122 2.23853 2.71162 2.23853 2.59685C2.23853 2.4716 2.31403 2.42702 2.5262 2.42702H2.71199V2.13459V1.84216L2.00877 1.84391C1.62198 1.84489 1.2787 1.85653 1.24587 1.86979ZM8.51104 6.20231C8.43752 6.25378 8.42794 6.38442 8.49289 6.4494C8.55636 6.51284 8.78896 6.50816 8.84865 6.44221C8.96233 6.31661 8.86399 6.15895 8.67194 6.15895C8.61749 6.15895 8.54508 6.17847 8.51104 6.20231ZM7.73191 6.35476C7.58179 6.42146 7.53116 6.5178 7.59502 6.61522C7.66504 6.72211 7.73299 6.72762 7.91193 6.64089C8.05193 6.57308 8.07427 6.5513 8.08162 6.47574C8.09833 6.30391 7.95669 6.25489 7.73191 6.35476ZM6.97187 6.87294C6.89595 6.94396 6.83382 7.02439 6.83382 7.05169C6.83382 7.19901 6.95235 7.27165 7.08272 7.20425C7.28221 7.10106 7.37047 6.87478 7.24536 6.78716C7.1529 6.72238 7.12271 6.73185 6.97187 6.87294ZM6.53165 7.48729C6.48527 7.50576 6.36101 7.7668 6.36064 7.84653C6.36003 7.97651 6.55883 8.04789 6.64416 7.94832C6.69204 7.89246 6.77812 7.68183 6.77812 7.62053C6.77812 7.52144 6.63717 7.44524 6.53165 7.48729ZM8.53463 8.61244C8.50077 8.78241 8.47932 8.92773 8.48698 8.93542C8.49467 8.94308 8.62161 8.87117 8.76911 8.77564C8.9166 8.68009 9.02714 8.59331 9.01474 8.58281C8.96631 8.54176 8.61949 8.30341 8.60819 8.30341C8.60159 8.30341 8.5685 8.44247 8.53463 8.61244ZM6.31859 8.36455C6.23596 8.41142 6.22201 8.44339 6.22153 8.58729C6.2212 8.69109 6.23387 8.72693 6.28303 8.76136C6.42275 8.85925 6.5556 8.76815 6.5549 8.57495C6.5544 8.44083 6.53886 8.40863 6.45272 8.36329C6.38033 8.32519 6.38811 8.32511 6.31859 8.36455ZM6.34803 9.22868C6.28968 9.31198 6.29344 9.37835 6.36037 9.44527C6.40546 9.49036 6.45319 9.50097 6.61102 9.50097C6.76885 9.50097 6.81658 9.49036 6.86167 9.44527C6.92859 9.37835 6.93235 9.31198 6.87401 9.22868C6.83544 9.17359 6.80642 9.16677 6.61102 9.16677C6.41562 9.16677 6.3866 9.17359 6.34803 9.22868ZM4.79878 11.9899C4.50295 12.0696 4.20966 12.3316 4.106 12.6087C3.94748 13.0324 4.11475 13.5479 4.48752 13.7846C4.77485 13.967 4.52233 13.957 8.83018 13.957H12.7381V13.8751C12.7381 13.83 12.7224 13.7831 12.7033 13.7707C12.6841 13.7583 10.9013 13.7419 8.74156 13.7342L4.81468 13.7203L4.70138 13.6596C4.56258 13.5854 4.3996 13.4092 4.3393 13.2683C4.31454 13.2106 4.29391 13.0872 4.29341 12.9941C4.29182 12.7029 4.44032 12.4564 4.69994 12.3194L4.84253 12.2442L8.75309 12.2369C11.5651 12.2316 12.6741 12.2209 12.7009 12.1987C12.7213 12.1817 12.7381 12.1192 12.7381 12.0598V11.9518L8.83208 11.9537C5.82946 11.9551 4.89664 11.9635 4.79878 11.9899ZM4.85604 12.6272C4.70216 12.7052 4.62427 12.833 4.62683 13.0033C4.62897 13.1455 4.6864 13.2408 4.82833 13.3373L4.9204 13.4H8.49801C11.5877 13.4 12.0735 13.3946 12.0604 13.3602C12.052 13.3383 12.0367 13.2757 12.0264 13.221L12.0078 13.1215H9.33725C6.70384 13.1215 6.66594 13.1207 6.61102 13.0658C6.58038 13.0352 6.55532 12.985 6.55532 12.9544C6.55532 12.9238 6.58038 12.8736 6.61102 12.843C6.66594 12.7881 6.70384 12.7873 9.35427 12.7873C11.8951 12.7873 12.0418 12.7846 12.0422 12.7386C12.0424 12.7118 12.0501 12.6616 12.0594 12.6272L12.0762 12.5645H8.52792H4.97966L4.85604 12.6272ZM5.78665 12.8086C5.7698 12.8199 5.74031 12.8588 5.72115 12.8952C5.64308 13.0433 5.89897 13.1948 6.02878 13.0774C6.09607 13.0165 6.09715 12.8933 6.03093 12.8334C5.97868 12.7861 5.84124 12.7722 5.78665 12.8086Z" fill="#197065"/>
<path fill-rule="evenodd" clip-rule="evenodd" d="M13.537 0.561523C13.4938 0.574473 13.4186 0.615664 13.3699 0.653067C13.3211 0.690497 12.9868 1.1488 12.6269 1.67155L11.9727 2.62197H8.47615C4.6554 2.62197 4.82515 2.61509 4.51041 2.78255C4.31621 2.88588 3.99647 3.21225 3.89016 3.4157C3.70206 3.77566 3.71317 3.43388 3.72125 8.60111L3.72852 13.2747L3.79397 13.4369C3.93478 13.786 4.2347 14.078 4.59188 14.2138L4.75898 14.2773L8.86419 14.2847C12.6674 14.2916 12.9732 14.2887 13.0208 14.2456C13.0633 14.2071 13.0723 14.1569 13.0723 13.9568C13.0723 13.7519 13.0626 13.7 13.0094 13.62C12.9235 13.4908 12.7356 13.4 12.5539 13.4H12.4094L12.3751 13.2569C12.3379 13.1019 12.3523 12.8031 12.4039 12.6582C12.4337 12.5744 12.4425 12.5703 12.6141 12.5594C12.8124 12.5468 12.9048 12.4959 13.0096 12.342L13.0723 12.2499V8.59604C13.0723 5.09159 13.0702 4.94028 13.0213 4.89608C12.9589 4.83954 12.8778 4.83706 12.8061 4.88951C12.7531 4.92822 12.7518 4.99937 12.7447 8.27331L12.7374 11.6176H8.84007C6.10239 11.6176 4.89884 11.6268 4.79516 11.6484C4.586 11.692 4.31106 11.8286 4.16928 11.9592L4.04807 12.071L4.0554 7.9522L4.06272 3.83345L4.15187 3.64521C4.2704 3.39501 4.4827 3.17407 4.71411 3.06016L4.89703 2.97009L8.31757 2.96271L11.7381 2.95531L11.6196 3.12982C11.5545 3.22579 10.7917 4.33314 9.92458 5.59058L8.34807 7.87686L8.21271 8.52182L8.07739 9.16677H7.76728C7.42104 9.16677 7.35601 9.19106 7.35601 9.32045C7.35601 9.47349 7.43313 9.50097 7.86233 9.50097H8.24407L8.41365 9.39654C8.5069 9.33911 8.7915 9.16051 9.04608 8.99967L9.50895 8.70724L11.9749 5.13406C13.3313 3.16881 14.4589 1.51804 14.4807 1.46568C14.5346 1.33662 14.5298 1.18244 14.4675 1.04843C14.4022 0.907841 14.3373 0.840499 14.1372 0.705648C13.8913 0.539883 13.7345 0.50223 13.537 0.561523ZM13.5951 0.895726C13.5686 0.911935 13.509 0.980307 13.4627 1.04768L13.3784 1.17019L13.6878 1.38458L13.9972 1.599L14.0625 1.51865C14.236 1.30521 14.2196 1.19336 13.9886 1.01395C13.8269 0.888373 13.6795 0.844091 13.5951 0.895726ZM13.0371 1.66704C12.9536 1.78635 11.9481 3.24328 10.8027 4.90468L8.72012 7.92543L8.8577 8.05195C8.97926 8.16375 9.33246 8.38042 9.3514 8.35483C9.51402 8.13498 13.7962 1.89675 13.7957 1.88032C13.7952 1.85946 13.705 1.79498 13.2635 1.49994L13.189 1.45017L13.0371 1.66704ZM1.15265 1.54461C1.01749 1.58764 0.828335 1.78451 0.791796 1.9202C0.770908 1.99779 0.764112 3.80975 0.769181 7.96125L0.776394 13.8915L0.853233 14.0076C0.895482 14.0714 0.982263 14.1582 1.04607 14.2005L1.16209 14.2773L2.04701 14.2857C2.90797 14.2939 2.93345 14.2926 2.98904 14.237L3.04619 14.1798V7.89959C3.04619 1.65648 3.04585 1.61902 2.99049 1.56366C2.9371 1.51027 2.89967 1.50807 2.09232 1.5108C1.55924 1.51261 1.21414 1.525 1.15265 1.54461ZM1.24587 1.86979C1.21303 1.88302 1.16605 1.92262 1.14143 1.95777C1.10065 2.01595 1.09667 2.54658 1.09667 7.90791V13.7942L1.17808 13.8756L1.25948 13.957H1.98574H2.71199V13.581V13.2051H2.53717C2.32866 13.2051 2.23853 13.1555 2.23853 13.0407C2.23853 12.9154 2.31403 12.8709 2.5262 12.8709H2.71199V12.6081V12.3455L2.25015 12.3366C1.83089 12.3286 1.78468 12.3228 1.74884 12.2737C1.69687 12.2025 1.69874 12.1057 1.75313 12.0512C1.78936 12.015 1.87564 12.0075 2.25443 12.0075H2.71199V11.729V11.4505H2.51901C2.3008 11.4505 2.23853 11.4133 2.23853 11.283C2.23853 11.1657 2.32704 11.1163 2.53717 11.1163H2.71199V10.8517V10.5871H2.52135C2.30988 10.5871 2.23853 10.5438 2.23853 10.4152C2.23853 10.2975 2.3176 10.2529 2.5262 10.2529H2.71199V9.98835V9.72378H2.27259C1.78198 9.72378 1.70938 9.70258 1.70938 9.5594C1.70938 9.40651 1.76441 9.38957 2.26162 9.38957H2.71199V9.125V8.86042L2.55185 8.86C2.34241 8.85947 2.25494 8.81491 2.24399 8.70315C2.23062 8.56688 2.29384 8.52622 2.51901 8.52622H2.71199V8.24771V7.96921H2.51901C2.3008 7.96921 2.23853 7.93203 2.23853 7.80169C2.23853 7.68441 2.32704 7.63501 2.53717 7.63501H2.71199V7.37043V7.10585H2.25677C1.85113 7.10585 1.79655 7.10031 1.75547 7.05492C1.68969 6.98223 1.69729 6.86684 1.77129 6.81501C1.82095 6.7802 1.91995 6.77165 2.27259 6.77165H2.71199V6.50707V6.2425H2.53717C2.32866 6.2425 2.23853 6.1929 2.23853 6.07813C2.23853 5.95288 2.31403 5.90829 2.5262 5.90829H2.71199V5.64372V5.37914L2.55185 5.37872C2.34241 5.37819 2.25494 5.33363 2.24399 5.22187C2.23062 5.0856 2.29384 5.04494 2.51901 5.04494H2.71199V4.76644V4.48793H2.25443C1.87564 4.48793 1.78936 4.48041 1.75313 4.44418C1.69286 4.38388 1.69832 4.27619 1.76508 4.20943C1.81613 4.15838 1.8579 4.15373 2.26638 4.15373H2.71199V3.88915V3.62458H2.52135C2.30869 3.62458 2.23853 3.58124 2.23853 3.4499C2.23853 3.34039 2.33214 3.29037 2.53717 3.29037H2.71199V3.0258V2.76122H2.53717C2.32866 2.76122 2.23853 2.71162 2.23853 2.59685C2.23853 2.4716 2.31403 2.42702 2.5262 2.42702H2.71199V2.13459V1.84216L2.00877 1.84391C1.62198 1.84489 1.2787 1.85653 1.24587 1.86979ZM8.51104 6.20231C8.43752 6.25378 8.42794 6.38442 8.49289 6.4494C8.55636 6.51284 8.78896 6.50816 8.84865 6.44221C8.96233 6.31661 8.86399 6.15895 8.67194 6.15895C8.61749 6.15895 8.54508 6.17847 8.51104 6.20231ZM7.73191 6.35476C7.58179 6.42146 7.53116 6.5178 7.59502 6.61522C7.66504 6.72211 7.73299 6.72762 7.91193 6.64089C8.05193 6.57308 8.07427 6.5513 8.08162 6.47574C8.09833 6.30391 7.95669 6.25489 7.73191 6.35476ZM6.97187 6.87294C6.89595 6.94396 6.83382 7.02439 6.83382 7.05169C6.83382 7.19901 6.95235 7.27165 7.08272 7.20425C7.28221 7.10106 7.37047 6.87478 7.24536 6.78716C7.1529 6.72238 7.12271 6.73185 6.97187 6.87294ZM6.53165 7.48729C6.48527 7.50576 6.36101 7.7668 6.36064 7.84653C6.36003 7.97651 6.55883 8.04789 6.64416 7.94832C6.69204 7.89246 6.77812 7.68183 6.77812 7.62053C6.77812 7.52144 6.63717 7.44524 6.53165 7.48729ZM8.53463 8.61244C8.50077 8.78241 8.47932 8.92773 8.48698 8.93542C8.49467 8.94308 8.62161 8.87117 8.76911 8.77564C8.9166 8.68009 9.02714 8.59331 9.01474 8.58281C8.96631 8.54176 8.61949 8.30341 8.60819 8.30341C8.60159 8.30341 8.5685 8.44247 8.53463 8.61244ZM6.31859 8.36455C6.23596 8.41142 6.22201 8.44339 6.22153 8.58729C6.2212 8.69109 6.23387 8.72693 6.28303 8.76136C6.42275 8.85925 6.5556 8.76815 6.5549 8.57495C6.5544 8.44083 6.53886 8.40863 6.45272 8.36329C6.38033 8.32519 6.38811 8.32511 6.31859 8.36455ZM6.34803 9.22868C6.28968 9.31198 6.29344 9.37835 6.36037 9.44527C6.40546 9.49036 6.45319 9.50097 6.61102 9.50097C6.76885 9.50097 6.81658 9.49036 6.86167 9.44527C6.92859 9.37835 6.93235 9.31198 6.87401 9.22868C6.83544 9.17359 6.80642 9.16677 6.61102 9.16677C6.41562 9.16677 6.3866 9.17359 6.34803 9.22868ZM4.79878 11.9899C4.50295 12.0696 4.20966 12.3316 4.106 12.6087C3.94748 13.0324 4.11475 13.5479 4.48752 13.7846C4.77485 13.967 4.52233 13.957 8.83018 13.957H12.7381V13.8751C12.7381 13.83 12.7224 13.7831 12.7033 13.7707C12.6841 13.7583 10.9013 13.7419 8.74156 13.7342L4.81468 13.7203L4.70138 13.6596C4.56258 13.5854 4.3996 13.4092 4.3393 13.2683C4.31454 13.2106 4.29391 13.0872 4.29341 12.9941C4.29182 12.7029 4.44032 12.4564 4.69994 12.3194L4.84253 12.2442L8.75309 12.2369C11.5651 12.2316 12.6741 12.2209 12.7009 12.1987C12.7213 12.1817 12.7381 12.1192 12.7381 12.0598V11.9518L8.83208 11.9537C5.82946 11.9551 4.89664 11.9635 4.79878 11.9899ZM4.85604 12.6272C4.70216 12.7052 4.62427 12.833 4.62683 13.0033C4.62897 13.1455 4.6864 13.2408 4.82833 13.3373L4.9204 13.4H8.49801C11.5877 13.4 12.0735 13.3946 12.0604 13.3602C12.052 13.3383 12.0367 13.2757 12.0264 13.221L12.0078 13.1215H9.33725C6.70384 13.1215 6.66594 13.1207 6.61102 13.0658C6.58038 13.0352 6.55532 12.985 6.55532 12.9544C6.55532 12.9238 6.58038 12.8736 6.61102 12.843C6.66594 12.7881 6.70384 12.7873 9.35427 12.7873C11.8951 12.7873 12.0418 12.7846 12.0422 12.7386C12.0424 12.7118 12.0501 12.6616 12.0594 12.6272L12.0762 12.5645H8.52792H4.97966L4.85604 12.6272ZM5.78665 12.8086C5.7698 12.8199 5.74031 12.8588 5.72115 12.8952C5.64308 13.0433 5.89897 13.1948 6.02878 13.0774C6.09607 13.0165 6.09715 12.8933 6.03093 12.8334C5.97868 12.7861 5.84124 12.7722 5.78665 12.8086Z" stroke="#197065" stroke-width="0.300196" mask="url(#path-1-outside-1_2070_10089)"/>
</g>
<defs>
<clipPath id="clip0_2070_10089">
<rect width="14.2593" height="14.2593" fill="white" transform="translate(0.512695 0.285156)"/>
</clipPath>
</defs>
</svg>
