<svg width="76" height="76" viewBox="0 0 76 76" fill="none" xmlns="http://www.w3.org/2000/svg">
<circle cx="37.6568" cy="37.5826" r="37.483" fill="#FB8B5A"/>
<path fill-rule="evenodd" clip-rule="evenodd" d="M3.1972 31.509L49.6298 4.70117C54.1621 6.35202 58.2569 8.91326 61.693 12.1637L3.61702 45.6938C2.999 43.0906 2.67188 40.3748 2.67188 37.5825C2.67188 35.511 2.85191 33.4816 3.1972 31.509Z" fill="#FFD2BE"/>
<path fill-rule="evenodd" clip-rule="evenodd" d="M72.1133 43.657C72.4589 41.6835 72.6391 39.653 72.6391 37.5805C72.6391 30.3126 70.4229 23.5624 66.6293 17.9688L6.17969 52.8694C10.1298 60.9864 17.1274 67.347 25.6841 70.4629L72.1133 43.657Z" fill="#FFD2BE"/>
<circle cx="37.6555" cy="37.5832" r="27.4875" fill="#E36128"/>
<circle cx="37.6556" cy="37.5824" r="24.9886" fill="#FB8B5A"/>
<mask id="mask0_1880_7098" style="mask-type:alpha" maskUnits="userSpaceOnUse" x="12" y="12" width="51" height="51">
<circle cx="37.6576" cy="37.5824" r="24.9886" fill="#E0632C"/>
</mask>
<g mask="url(#mask0_1880_7098)">
<path d="M96.3815 79.4386L52.0266 34.459L37.0334 37.5826L28.9121 50.7016L73.8917 95.6812L96.3815 79.4386Z" fill="#E36128"/>
<path d="M82.6358 68.8194L37.6562 23.8398V37.5836L82.6358 82.5632V68.8194Z" fill="#E36128"/>
</g>
<path d="M37.6568 23.8379L42.0632 32.7662L52.0253 34.4581L44.7865 41.1477L46.4029 50.7007L37.6568 46.3277L28.9108 50.7007L30.5271 41.1477L23.3975 34.1979L33.2504 32.7662L37.6568 23.8379Z" fill="white"/>
</svg>
