<svg width="69" height="61" viewBox="0 0 69 61" fill="none" xmlns="http://www.w3.org/2000/svg">
<path d="M6.08844 2.64893H62.0186C63.6192 2.64893 65.1543 3.28247 66.2861 4.41019C67.4179 5.53791 68.0537 7.06743 68.0537 8.66227V56.9805C68.0537 59.1896 66.2629 60.9805 64.0537 60.9805H4.05371C1.84457 60.9805 0.0537109 59.1896 0.0537109 56.9805V8.66227C0.0537109 7.06749 0.689499 5.53803 1.82122 4.41032C2.95294 3.28261 4.48789 2.64902 6.08844 2.64893Z" fill="#7F886B"/>
<path d="M6.5703 2.61963H61.3292C62.9249 2.61963 64.4552 3.25318 65.5835 4.3809C66.7119 5.50862 67.3457 7.03813 67.3457 8.63297V13.3233H0.553711V8.63315C0.553687 7.84346 0.709292 7.06149 1.01164 6.33189C1.31399 5.6023 1.75717 4.93937 2.31586 4.38096C2.87456 3.82255 3.53783 3.3796 4.26781 3.07738C4.99779 2.77517 5.78018 2.61963 6.5703 2.61963Z" fill="#F3ECDA"/>
<path d="M6.12541 2.25H61.8746C63.4247 2.25 64.9168 2.92751 66.0209 4.1427C67.1257 5.35868 67.75 7.01262 67.75 8.74163V13.75H0.25V8.74184C0.249976 7.88617 0.403109 7.03935 0.700195 6.24992C0.997275 5.4605 1.43219 4.74467 1.97906 4.14277C2.52588 3.54091 3.17375 3.06491 3.88498 2.74067C4.59611 2.41647 5.35733 2.25 6.12541 2.25Z" fill="#F3ECDA" stroke="#30422E" stroke-width="0.5"/>
<path d="M58.0611 0H57.9389C57.4203 0 57 0.366856 57 0.819396V5.1806C57 5.63314 57.4203 6 57.9389 6H58.0611C58.5797 6 59 5.63314 59 5.1806V0.819396C59 0.366856 58.5797 0 58.0611 0Z" fill="#30422E"/>
<path d="M52.0611 0H51.9389C51.4203 0 51 0.366856 51 0.819396V5.1806C51 5.63314 51.4203 6 51.9389 6H52.0611C52.5797 6 53 5.63314 53 5.1806V0.819396C53 0.366856 52.5797 0 52.0611 0Z" fill="#30422E"/>
<path d="M46.0611 0H45.9389C45.4203 0 45 0.366856 45 0.819396V5.1806C45 5.63314 45.4203 6 45.9389 6H46.0611C46.5797 6 47 5.63314 47 5.1806V0.819396C47 0.366856 46.5797 0 46.0611 0Z" fill="#30422E"/>
<path d="M40.0611 0H39.9389C39.4203 0 39 0.366856 39 0.819396V5.1806C39 5.63314 39.4203 6 39.9389 6H40.0611C40.5797 6 41 5.63314 41 5.1806V0.819396C41 0.366856 40.5797 0 40.0611 0Z" fill="#30422E"/>
<path d="M34.0611 0H33.9389C33.4203 0 33 0.366856 33 0.819396V5.1806C33 5.63314 33.4203 6 33.9389 6H34.0611C34.5797 6 35 5.63314 35 5.1806V0.819396C35 0.366856 34.5797 0 34.0611 0Z" fill="#30422E"/>
<path d="M28.0611 0H27.9389C27.4203 0 27 0.366856 27 0.819396V5.1806C27 5.63314 27.4203 6 27.9389 6H28.0611C28.5797 6 29 5.63314 29 5.1806V0.819396C29 0.366856 28.5797 0 28.0611 0Z" fill="#30422E"/>
<path d="M22.0611 0H21.9389C21.4203 0 21 0.366856 21 0.819396V5.1806C21 5.63314 21.4203 6 21.9389 6H22.0611C22.5797 6 23 5.63314 23 5.1806V0.819396C23 0.366856 22.5797 0 22.0611 0Z" fill="#30422E"/>
<path d="M16.0611 0H15.9389C15.4203 0 15 0.366856 15 0.819396V5.1806C15 5.63314 15.4203 6 15.9389 6H16.0611C16.5797 6 17 5.63314 17 5.1806V0.819396C17 0.366856 16.5797 0 16.0611 0Z" fill="#30422E"/>
<path d="M10.0611 0H9.93888C9.42035 0 9 0.366856 9 0.819396V5.1806C9 5.63314 9.42035 6 9.93888 6H10.0611C10.5797 6 11 5.63314 11 5.1806V0.819396C11 0.366856 10.5797 0 10.0611 0Z" fill="#30422E"/>
</svg>
