<svg xmlns="http://www.w3.org/2000/svg" width="15" height="15" viewBox="0 0 15 15" fill="none">
  <path fill-rule="evenodd" clip-rule="evenodd" d="M6.28282 12.4275H8.71644C10.4256 12.4275 11.2804 12.4275 11.8943 12.025C12.1591 11.8514 12.3873 11.6273 12.5657 11.3656C12.9758 10.7633 12.9758 9.92377 12.9758 8.24586C12.9758 6.56741 12.9758 5.72846 12.5657 5.12608C12.3873 4.86437 12.1592 4.64034 11.8943 4.46674C11.5 4.20772 11.006 4.11517 10.2498 4.08231C9.88889 4.08231 9.57839 3.81398 9.50775 3.46624C9.45376 3.21153 9.31349 2.98326 9.11064 2.82003C8.90779 2.65679 8.6548 2.56859 8.39444 2.57034H6.60482C6.06377 2.57034 5.59775 2.94546 5.49151 3.46624C5.42087 3.81398 5.11037 4.08231 4.74949 4.08231C3.99377 4.11517 3.49982 4.20827 3.10499 4.46674C2.84028 4.64037 2.61233 4.86441 2.43415 5.12608C2.02344 5.72846 2.02344 6.56741 2.02344 8.24586C2.02344 9.92377 2.02344 10.7627 2.4336 11.3656C2.61103 11.6263 2.83884 11.8503 3.10499 12.025C3.71887 12.4275 4.5737 12.4275 6.28282 12.4275ZM7.49963 6.00555C6.23956 6.00555 5.2177 7.00824 5.2177 8.24531C5.2177 9.48293 6.23956 10.4862 7.49963 10.4862C8.7597 10.4862 9.78156 9.48293 9.78156 8.24586C9.78156 7.00824 8.7597 6.00555 7.49963 6.00555ZM7.49963 6.90146C6.74391 6.90146 6.13058 7.50329 6.13058 8.24586C6.13058 8.98789 6.74391 9.58972 7.49963 9.58972C8.25534 9.58972 8.86868 8.98789 8.86868 8.24586C8.86868 7.50329 8.25534 6.90146 7.49963 6.90146ZM10.0855 6.4535C10.0855 6.20598 10.2897 6.00555 10.5422 6.00555H11.1501C11.402 6.00555 11.6068 6.20598 11.6068 6.4535C11.6056 6.57338 11.5569 6.68789 11.4714 6.77188C11.3859 6.85587 11.2705 6.90248 11.1506 6.90146H10.5422C10.4828 6.90204 10.4239 6.89091 10.3688 6.86871C10.3137 6.84651 10.2635 6.81367 10.2211 6.77208C10.1787 6.73048 10.1448 6.68094 10.1216 6.62628C10.0983 6.57161 10.0861 6.51291 10.0855 6.4535Z" fill="white"/>
</svg>