<svg width="12" height="10" viewBox="0 0 14 10" fill="none" xmlns="http://www.w3.org/2000/svg">
<path d="M12.2662 0.750282L12.2662 0.750284C12.0856 0.755269 11.9106 0.824889 11.779 0.949598L4.76528 7.44656L1.98034 4.86681C1.91357 4.80291 1.83486 4.7528 1.74919 4.7185C1.66266 4.68386 1.57017 4.66579 1.47699 4.66491C1.38381 4.66403 1.291 4.68036 1.20383 4.71333C1.11664 4.7463 1.03621 4.79551 0.967726 4.85895C0.899198 4.92243 0.84389 4.99901 0.80609 5.08477C0.768263 5.1706 0.749007 5.26332 0.750039 5.35729C0.751071 5.45125 0.772357 5.54351 0.812007 5.62849C0.851232 5.71256 0.907382 5.7873 0.97622 5.84901L4.26322 8.89383L4.26326 8.89386C4.39945 9.01997 4.58032 9.08784 4.76528 9.08784C4.95024 9.08784 5.13111 9.01997 5.2673 8.89386L5.26734 8.89383L12.7832 1.93178C12.8876 1.83724 12.9614 1.71335 12.9917 1.57488C13.0221 1.43555 13.0062 1.2912 12.947 1.16172C12.888 1.03256 12.7898 0.926169 12.6684 0.854019L12.5409 1.06851L12.6684 0.854018C12.5471 0.781963 12.4071 0.746435 12.2662 0.750282Z" fill="#E1683B" stroke="#E1683B" stroke-width="0.5"/>
</svg>
