<svg width="30" height="26" viewBox="0 0 30 26" fill="none" xmlns="http://www.w3.org/2000/svg">
<path fill-rule="evenodd" clip-rule="evenodd" d="M28.9458 0.830708C26.6095 1.73822 23.591 3.52028 20.899 5.5816C19.923 6.32887 17.6848 8.3273 16.8157 9.22751C15.3183 10.7785 13.5942 12.9402 12.7814 14.2859C12.6255 14.544 12.4715 14.7556 12.4391 14.7561C12.4068 14.7566 12.0151 14.5192 11.5687 14.2287C8.6587 12.3343 5.68286 11.2967 3.42679 11.3897C2.32725 11.435 1.72157 11.6237 1.1811 12.0891C0.593243 12.5954 0.720808 12.6807 1.78385 12.4919C2.20228 12.4176 2.39782 12.4232 2.9557 12.5251C5.3395 12.9607 7.75269 15.1054 9.83197 18.6363C10.7261 20.1545 11.9673 22.8986 12.5812 24.7143C12.7051 25.0807 12.8353 25.3516 12.8703 25.3161C12.9055 25.2807 13.1125 24.7269 13.3305 24.0856C13.8233 22.6351 14.8701 20.1024 15.6935 18.368C19.1659 11.0544 24.2401 4.49256 28.9458 1.23071C29.8511 0.603135 29.8094 0.637139 29.7273 0.592452C29.6888 0.571537 29.3371 0.678742 28.9458 0.830708Z" fill="#197065"/>
</svg>
