<svg width="293" height="210" viewBox="0 0 293 210" fill="none" xmlns="http://www.w3.org/2000/svg">
<g clip-path="url(#clip0_2794_8319)">
<path d="M40.8996 75.6866L40.335 76.1464C37.9441 78.0935 37.5844 81.6099 39.5317 84.0005L73.9146 126.212C75.8618 128.603 79.3787 128.962 81.7696 127.015L82.3342 126.555C84.7251 124.608 85.0847 121.092 83.1375 118.701L48.7546 76.4898C46.8073 74.0992 43.2905 73.7396 40.8996 75.6866Z" fill="#56BEB0"/>
<path d="M32.9107 94.6276C48.4715 94.6276 61.086 82.0145 61.086 66.4554C61.086 50.8963 48.4715 38.2832 32.9107 38.2832C17.3499 38.2832 4.73535 50.8963 4.73535 66.4554C4.73535 82.0145 17.3499 94.6276 32.9107 94.6276Z" fill="#56BEB0"/>
<path d="M32.9098 87.0513C44.2859 87.0513 53.508 77.8302 53.508 66.4553C53.508 55.0805 44.2859 45.8594 32.9098 45.8594C21.5337 45.8594 12.3115 55.0805 12.3115 66.4553C12.3115 77.8302 21.5337 87.0513 32.9098 87.0513Z" fill="white"/>
<path d="M32.9511 87.8675C32.2102 87.8673 31.4697 87.8295 30.7327 87.7541C25.1963 87.1812 20.1025 84.4691 16.5369 80.1956C12.9713 75.9222 11.2158 70.4253 11.6445 64.8765C12.0732 59.3277 14.6522 54.1657 18.8319 50.4905C23.0116 46.8153 28.4615 44.9176 34.0202 45.2017C39.579 45.4858 44.8069 47.9293 48.59 52.0115C52.3731 56.0937 54.4123 61.4918 54.2728 67.0554C54.1334 72.619 51.8265 77.9082 47.8436 81.7958C43.8608 85.6834 38.517 87.8621 32.9511 87.8675ZM32.874 46.6704C28.3839 46.6778 24.0298 48.2119 20.5269 51.0207C17.024 53.8295 14.5806 57.7459 13.5981 62.1268C12.6156 66.5076 13.1523 71.0923 15.1202 75.1278C17.088 79.1632 20.3699 82.4096 24.4269 84.3335C28.4839 86.2574 33.0746 86.7446 37.445 85.7149C41.8155 84.6852 45.7057 82.2 48.4768 78.6674C51.248 75.1348 52.7351 70.7648 52.6941 66.2754C52.653 61.786 51.0861 57.444 48.2509 53.9626C46.6149 51.9432 44.5947 50.2682 42.3071 49.0345C40.0195 47.8008 37.51 47.033 34.9237 46.7754C34.2427 46.7057 33.5586 46.6706 32.874 46.6704Z" fill="#164640"/>
<path d="M41.4556 57.7233H23.5844C23.3685 57.7233 23.1615 57.6376 23.0089 57.4849C22.8563 57.3323 22.7705 57.1253 22.7705 56.9095C22.7705 56.6937 22.8563 56.4867 23.0089 56.3341C23.1615 56.1814 23.3685 56.0957 23.5844 56.0957H41.4556C41.6714 56.0957 41.8785 56.1814 42.0311 56.3341C42.1837 56.4867 42.2695 56.6937 42.2695 56.9095C42.2695 57.1253 42.1837 57.3323 42.0311 57.4849C41.8785 57.6376 41.6714 57.7233 41.4556 57.7233Z" fill="black"/>
<path d="M31.0656 67.0729H20.8832C20.6674 67.0729 20.4604 66.9872 20.3077 66.8346C20.1551 66.6819 20.0693 66.4749 20.0693 66.2591C20.0693 66.0433 20.1551 65.8363 20.3077 65.6837C20.4604 65.5311 20.6674 65.4453 20.8832 65.4453H31.0656C31.2814 65.4453 31.4884 65.5311 31.6411 65.6837C31.7937 65.8363 31.8795 66.0433 31.8795 66.2591C31.8795 66.4749 31.7937 66.6819 31.6411 66.8346C31.4884 66.9872 31.2814 67.0729 31.0656 67.0729Z" fill="black"/>
<path d="M44.7816 67.0729H39.7944C39.5785 67.0729 39.3715 66.9872 39.2189 66.8346C39.0662 66.6819 38.9805 66.4749 38.9805 66.2591C38.9805 66.0433 39.0662 65.8363 39.2189 65.6837C39.3715 65.5311 39.5785 65.4453 39.7944 65.4453H44.7816C44.9975 65.4453 45.2045 65.5311 45.3571 65.6837C45.5098 65.8363 45.5955 66.0433 45.5955 66.2591C45.5955 66.4749 45.5098 66.6819 45.3571 66.8346C45.2045 66.9872 44.9975 67.0729 44.7816 67.0729Z" fill="black"/>
<path d="M38.5464 76.4225H26.9096C26.6937 76.4225 26.4867 76.3368 26.3341 76.1842C26.1815 76.0315 26.0957 75.8246 26.0957 75.6087C26.0957 75.3929 26.1815 75.1859 26.3341 75.0333C26.4867 74.8807 26.6937 74.7949 26.9096 74.7949H38.5464C38.7622 74.7949 38.9692 74.8807 39.1219 75.0333C39.2745 75.1859 39.3603 75.3929 39.3603 75.6087C39.3603 75.8246 39.2745 76.0315 39.1219 76.1842C38.9692 76.3368 38.7622 76.4225 38.5464 76.4225Z" fill="black"/>
</g>
<g clip-path="url(#clip1_2794_8319)">
<path d="M256.235 102.806L270.924 72.0977L238.866 83.7098L236.378 85.9657L253.748 105.062L256.235 102.806Z" fill="white"/>
<path d="M253.748 105.87C253.735 105.87 253.721 105.87 253.709 105.87C253.602 105.865 253.498 105.839 253.401 105.793C253.305 105.748 253.218 105.684 253.147 105.605L235.778 86.5077C235.706 86.4289 235.651 86.3368 235.614 86.2366C235.578 86.1364 235.562 86.03 235.567 85.9237C235.572 85.8173 235.598 85.7129 235.644 85.6166C235.689 85.5202 235.753 85.4337 235.832 85.362L238.32 83.1065C238.398 83.0354 238.489 82.9803 238.589 82.9443L270.648 71.3318C270.799 71.2769 270.964 71.2683 271.12 71.307C271.277 71.3458 271.418 71.4302 271.526 71.5495C271.635 71.6687 271.705 71.8175 271.728 71.9768C271.752 72.1361 271.727 72.2987 271.657 72.4439L256.97 103.153C256.924 103.248 256.861 103.333 256.783 103.404L254.295 105.659C254.145 105.795 253.95 105.87 253.748 105.87ZM237.525 86.0176L253.803 103.913L255.571 102.309L269.337 73.5323L239.294 84.4146L237.525 86.0176Z" fill="#164640"/>
<path d="M243.638 91.0137L249.414 97.3645L160.88 177.639L155.104 171.288L243.638 91.0137Z" fill="white"/>
<path d="M160.862 178.503C160.849 178.503 160.835 178.503 160.823 178.503C160.716 178.497 160.612 178.471 160.515 178.426C160.419 178.381 160.332 178.317 160.26 178.238L154.482 171.885C154.337 171.726 154.261 171.516 154.271 171.301C154.282 171.086 154.377 170.884 154.536 170.74L243.105 90.4279C243.183 90.3563 243.276 90.3008 243.376 90.2647C243.476 90.2287 243.583 90.2127 243.69 90.2177C243.796 90.2227 243.901 90.2486 243.997 90.294C244.094 90.3393 244.18 90.4032 244.252 90.482L250.031 96.8345C250.175 96.9936 250.251 97.2036 250.241 97.4184C250.231 97.6332 250.136 97.8352 249.976 97.9799L161.408 178.292C161.258 178.427 161.064 178.503 160.862 178.503ZM156.23 171.393L160.917 176.547L248.282 97.3263L243.595 92.1737L156.23 171.393Z" fill="#164640"/>
<path d="M160.861 177.693L167.667 183.115L256.235 102.805L249.429 97.3828L160.861 177.693Z" fill="white"/>
<path d="M167.667 183.925C167.483 183.925 167.305 183.862 167.161 183.748L160.356 178.325C160.264 178.252 160.189 178.16 160.136 178.055C160.083 177.95 160.054 177.835 160.05 177.717C160.046 177.6 160.068 177.483 160.114 177.375C160.16 177.267 160.229 177.17 160.316 177.091L248.884 96.781C249.026 96.6514 249.211 96.5769 249.404 96.5707C249.597 96.5646 249.786 96.6273 249.937 96.7475L256.742 102.17C256.834 102.243 256.909 102.335 256.962 102.44C257.014 102.545 257.044 102.66 257.047 102.778C257.051 102.895 257.029 103.012 256.983 103.12C256.938 103.228 256.869 103.325 256.782 103.404L168.214 183.714C168.064 183.85 167.869 183.925 167.667 183.925ZM162.114 177.652L167.634 182.049L254.983 102.843L249.464 98.4459L162.114 177.652Z" fill="#164640"/>
<path d="M155.051 171.302L150.299 164.017L238.867 83.707L243.618 90.9916L155.051 171.302Z" fill="white"/>
<path d="M155.05 172.114C155.015 172.114 154.981 172.112 154.946 172.107C154.83 172.092 154.718 172.052 154.618 171.99C154.519 171.927 154.434 171.844 154.37 171.746L149.618 164.46C149.512 164.299 149.468 164.105 149.493 163.914C149.518 163.723 149.61 163.547 149.753 163.417L238.32 83.1072C238.407 83.0282 238.51 82.9691 238.622 82.9339C238.735 82.8986 238.853 82.8881 238.97 82.9031C239.086 82.9181 239.198 82.9582 239.298 83.0207C239.398 83.0831 239.482 83.1664 239.547 83.2648L244.298 90.5491C244.404 90.7107 244.448 90.9044 244.423 91.0955C244.398 91.2866 244.306 91.4626 244.163 91.592L155.596 171.902C155.447 172.038 155.252 172.114 155.05 172.114ZM151.356 164.154L155.21 170.062L242.56 90.8554L238.706 84.9481L151.356 164.154Z" fill="#164640"/>
<path d="M264.675 84.8459L270.651 72.3535L257.616 77.0747C258.274 78.7458 259.231 80.2832 260.441 81.6115C261.644 82.9368 263.079 84.0327 264.675 84.8459Z" fill="#164640"/>
</g>
<path d="M146.113 192.418C192.642 192.418 230.361 154.742 230.361 108.267C230.361 61.7912 192.642 24.1152 146.113 24.1152C99.5843 24.1152 61.8652 61.7912 61.8652 108.267C61.8652 154.742 99.5843 192.418 146.113 192.418Z" fill="#197065"/>
<path d="M146.428 185.521C189.001 185.521 223.513 151.049 223.513 108.524C223.513 66.0001 189.001 31.5273 146.428 31.5273C103.855 31.5273 69.3428 66.0001 69.3428 108.524C69.3428 151.049 103.855 185.521 146.428 185.521Z" fill="white"/>
<path d="M146.429 186.2C128.437 186.201 111.001 179.969 97.0929 168.569C83.1846 157.168 73.6643 141.303 70.1539 123.677C66.6435 106.051 69.3603 87.7541 77.8414 71.9046C86.3225 56.055 100.043 43.633 116.665 36.7554C133.288 29.8777 151.783 28.9697 169.001 34.1862C186.218 39.4027 201.092 50.421 211.088 65.3635C221.084 80.3061 225.584 98.2484 223.821 116.133C222.058 134.018 214.141 150.739 201.419 163.447C194.214 170.683 185.644 176.42 176.205 180.326C166.766 184.231 156.645 186.228 146.429 186.2ZM146.429 32.2063C128.752 32.2062 111.623 38.3281 97.959 49.5289C84.2951 60.7297 74.942 76.3164 71.4934 93.6332C68.0449 110.95 70.7143 128.925 79.0467 144.497C87.3792 160.068 100.859 172.272 117.19 179.028C133.521 185.785 151.692 186.677 168.607 181.551C185.522 176.426 200.134 165.601 209.955 150.921C219.775 136.24 224.196 118.613 222.463 101.042C220.731 83.4707 212.952 67.0433 200.453 54.5586C193.375 47.4498 184.956 41.8139 175.683 37.9771C166.409 34.1403 156.466 32.1789 146.429 32.2063Z" fill="#164640"/>
<path d="M146.113 47.0004C145.932 47.0004 145.759 46.9285 145.631 46.8006C145.503 46.6728 145.431 46.4993 145.431 46.3185V32.2053C145.431 32.0245 145.503 31.851 145.631 31.7232C145.759 31.5953 145.932 31.5234 146.113 31.5234C146.294 31.5234 146.468 31.5953 146.596 31.7232C146.724 31.851 146.796 32.0245 146.796 32.2053V46.3185C146.796 46.4993 146.724 46.6728 146.596 46.8006C146.468 46.9285 146.294 47.0004 146.113 47.0004Z" fill="#164640"/>
<path d="M222.867 109.149H214.697C214.516 109.149 214.343 109.077 214.215 108.949C214.087 108.821 214.015 108.648 214.015 108.467C214.015 108.286 214.087 108.113 214.215 107.985C214.343 107.857 214.516 107.785 214.697 107.785H222.867C223.048 107.785 223.221 107.857 223.35 107.985C223.478 108.113 223.549 108.286 223.549 108.467C223.549 108.648 223.478 108.821 223.35 108.949C223.221 109.077 223.048 109.149 222.867 109.149Z" fill="#164640"/>
<path d="M146.113 185.97C145.932 185.97 145.759 185.898 145.631 185.77C145.503 185.643 145.431 185.469 145.431 185.288V170.985C145.431 170.804 145.503 170.63 145.631 170.502C145.759 170.375 145.932 170.303 146.113 170.303C146.294 170.303 146.468 170.375 146.596 170.502C146.724 170.63 146.796 170.804 146.796 170.985V185.288C146.796 185.469 146.724 185.643 146.596 185.77C146.468 185.898 146.294 185.97 146.113 185.97Z" fill="#164640"/>
<rect x="151.978" y="101.682" width="59.1408" height="7.11508" transform="rotate(-32.3516 151.978 101.682)" fill="#238176"/>
<g clip-path="url(#clip2_2794_8319)">
<path d="M0.408203 143.496V141.039H79.9003V154.506H0.408203V152.049H32.9345V143.496H0.408203Z" fill="#56BEB0"/>
<path d="M34.4932 143.451H2.35059V152.092H34.4932V143.451Z" fill="white"/>
<path d="M34.4927 152.731H2.34966C2.18026 152.731 2.0178 152.664 1.89801 152.544C1.77823 152.424 1.71094 152.262 1.71094 152.093V143.452C1.71094 143.283 1.77823 143.121 1.89801 143.001C2.0178 142.882 2.18026 142.814 2.34966 142.814H34.4927C34.6621 142.814 34.8246 142.882 34.9444 143.001C35.0641 143.121 35.1314 143.283 35.1314 143.452V152.093C35.1314 152.262 35.0641 152.424 34.9444 152.544C34.8246 152.664 34.6621 152.731 34.4927 152.731ZM2.9888 151.455H33.854V144.09H2.98837L2.9888 151.455Z" fill="#164640"/>
<path d="M3.61914 191.855V178.257L102.868 178.191V191.751L3.61914 191.855Z" fill="white"/>
<path d="M3.61821 192.494C3.44881 192.494 3.28635 192.427 3.16657 192.307C3.04679 192.187 2.97949 192.025 2.97949 191.856V178.258C2.97949 178.089 3.04679 177.926 3.16657 177.807C3.28635 177.687 3.44881 177.62 3.61821 177.62L102.867 177.555C103.036 177.555 103.199 177.622 103.319 177.742C103.438 177.861 103.506 178.023 103.506 178.193V191.752C103.506 191.922 103.438 192.084 103.319 192.203C103.199 192.323 103.036 192.39 102.867 192.39L3.61885 192.494H3.61821ZM4.25693 178.895V191.218L102.228 191.116V178.831L4.25693 178.895Z" fill="#164640"/>
<path d="M104.125 176.701V193.263H0.0917969V190.681H101.765V179.284H0.0917969V176.701H104.125Z" fill="#56BEB0"/>
<path d="M65.591 176.703H63.9746V193.265H65.591V176.703Z" fill="#56BEB0"/>
<path d="M48.6059 158.715H16.7402V173.087H48.6059V158.715Z" fill="#238176"/>
<path d="M109.87 155.115V176.684H14.5843L14.5792 173.085H48.6064V158.713H14.5598L14.5547 155.143H109.702" fill="white"/>
<path d="M109.869 177.323H14.5834C14.414 177.323 14.2515 177.255 14.1317 177.136C14.0119 177.016 13.9446 176.854 13.9446 176.685L13.9395 173.087C13.9395 172.917 14.0068 172.755 14.1266 172.636C14.2464 172.516 14.4088 172.449 14.5782 172.449H47.967V159.353H14.5589C14.3895 159.353 14.227 159.285 14.1072 159.166C13.9874 159.046 13.9201 158.884 13.9201 158.715L13.915 155.145C13.915 154.975 13.9823 154.813 14.1021 154.694C14.2219 154.574 14.3844 154.507 14.5538 154.507H109.681C109.777 154.477 109.878 154.471 109.977 154.488C110.075 154.504 110.168 154.544 110.249 154.603C110.329 154.663 110.394 154.74 110.44 154.829C110.485 154.918 110.508 155.017 110.508 155.117V176.685C110.508 176.854 110.441 177.016 110.321 177.136C110.201 177.255 110.039 177.323 109.869 177.323ZM15.2212 176.047H109.231V155.782H15.1935L15.1965 158.077H48.6057C48.7751 158.077 48.9376 158.144 49.0574 158.264C49.1772 158.383 49.2445 158.546 49.2445 158.715V173.087C49.2445 173.256 49.1772 173.418 49.0574 173.538C48.9376 173.657 48.7751 173.724 48.6057 173.724H15.218L15.2212 176.047Z" fill="#164640"/>
<path d="M63.4698 177.325C63.3004 177.325 63.1379 177.258 63.0181 177.138C62.8984 177.018 62.8311 176.856 62.8311 176.687V155.71C62.8311 155.541 62.8984 155.379 63.0181 155.259C63.1379 155.139 63.3004 155.072 63.4698 155.072C63.6392 155.072 63.8016 155.139 63.9214 155.259C64.0412 155.379 64.1085 155.541 64.1085 155.71V176.687C64.1085 176.856 64.0412 177.018 63.9214 177.138C63.8016 177.258 63.6392 177.325 63.4698 177.325Z" fill="#164640"/>
</g>
<g clip-path="url(#clip3_2794_8319)">
<path d="M202.55 108.836H283.529C285.846 108.836 288.069 109.756 289.707 111.394C291.346 113.032 292.267 115.253 292.267 117.569V193.551H193.812V117.569C193.812 115.253 194.733 113.032 196.372 111.394C198.01 109.756 200.233 108.836 202.55 108.836Z" fill="#197065"/>
<path d="M203.277 108.793H282.804C285.121 108.793 287.344 109.713 288.982 111.351C290.621 112.989 291.542 115.21 291.542 117.526V124.338H194.539V117.526C194.539 116.38 194.765 115.244 195.204 114.184C195.643 113.125 196.287 112.162 197.098 111.351C197.91 110.54 198.873 109.897 199.933 109.458C200.993 109.019 202.129 108.793 203.277 108.793Z" fill="white"/>
<path d="M291.543 125.142H194.54C194.327 125.142 194.122 125.058 193.97 124.906C193.819 124.755 193.734 124.55 193.734 124.337V117.525C193.737 114.996 194.744 112.572 196.533 110.783C198.322 108.995 200.748 107.989 203.278 107.986H282.805C285.335 107.989 287.761 108.995 289.55 110.783C291.34 112.572 292.346 114.996 292.349 117.525V124.337C292.349 124.55 292.264 124.755 292.113 124.906C291.962 125.058 291.757 125.142 291.543 125.142ZM195.346 123.531H290.737V117.525C290.735 115.423 289.898 113.408 288.411 111.922C286.924 110.436 284.908 109.6 282.805 109.597H203.278C201.175 109.6 199.159 110.436 197.672 111.922C196.185 113.408 195.349 115.423 195.346 117.525V123.531Z" fill="#164640"/>
<path d="M205.693 103.535H205.503C204.697 103.535 204.044 104.188 204.044 104.993V112.753C204.044 113.559 204.697 114.211 205.503 114.211H205.693C206.498 114.211 207.151 113.559 207.151 112.753V104.993C207.151 104.188 206.498 103.535 205.693 103.535Z" fill="#56BEB0"/>
<path d="M218.122 103.535H217.932C217.127 103.535 216.474 104.188 216.474 104.993V112.753C216.474 113.559 217.127 114.211 217.932 114.211H218.122C218.928 114.211 219.581 113.559 219.581 112.753V104.993C219.581 104.188 218.928 103.535 218.122 103.535Z" fill="#56BEB0"/>
<path d="M230.553 103.535H230.363C229.557 103.535 228.904 104.188 228.904 104.993V112.753C228.904 113.559 229.557 114.211 230.363 114.211H230.553C231.359 114.211 232.012 113.559 232.012 112.753V104.993C232.012 104.188 231.359 103.535 230.553 103.535Z" fill="#56BEB0"/>
<path d="M242.983 103.535H242.793C241.987 103.535 241.334 104.188 241.334 104.993V112.753C241.334 113.559 241.987 114.211 242.793 114.211H242.983C243.788 114.211 244.441 113.559 244.441 112.753V104.993C244.441 104.188 243.788 103.535 242.983 103.535Z" fill="#56BEB0"/>
<path d="M255.412 103.535H255.222C254.417 103.535 253.764 104.188 253.764 104.993V112.753C253.764 113.559 254.417 114.211 255.222 114.211H255.412C256.218 114.211 256.871 113.559 256.871 112.753V104.993C256.871 104.188 256.218 103.535 255.412 103.535Z" fill="#56BEB0"/>
<path d="M267.842 103.535H267.652C266.846 103.535 266.193 104.188 266.193 104.993V112.753C266.193 113.559 266.846 114.211 267.652 114.211H267.842C268.648 114.211 269.301 113.559 269.301 112.753V104.993C269.301 104.188 268.648 103.535 267.842 103.535Z" fill="#56BEB0"/>
<path d="M280.273 103.535H280.083C279.277 103.535 278.624 104.188 278.624 104.993V112.753C278.624 113.559 279.277 114.211 280.083 114.211H280.273C281.078 114.211 281.732 113.559 281.732 112.753V104.993C281.732 104.188 281.078 103.535 280.273 103.535Z" fill="#56BEB0"/>
<path d="M215.691 185.411C215.137 185.411 214.651 185.279 214.233 185.016C213.817 184.752 213.492 184.383 213.258 183.909C213.026 183.435 212.91 182.881 212.91 182.247C212.91 181.608 213.026 181.05 213.258 180.573C213.492 180.096 213.817 179.726 214.233 179.462C214.651 179.199 215.137 179.067 215.691 179.067C216.245 179.067 216.729 179.199 217.145 179.462C217.563 179.726 217.888 180.096 218.12 180.573C218.354 181.05 218.471 181.608 218.471 182.247C218.471 182.881 218.354 183.435 218.12 183.909C217.888 184.383 217.563 184.752 217.145 185.016C216.729 185.279 216.245 185.411 215.691 185.411ZM215.691 184.564C216.112 184.564 216.458 184.456 216.729 184.241C217.001 184.025 217.202 183.741 217.333 183.39C217.463 183.038 217.528 182.657 217.528 182.247C217.528 181.837 217.463 181.455 217.333 181.1C217.202 180.746 217.001 180.46 216.729 180.241C216.458 180.023 216.112 179.914 215.691 179.914C215.27 179.914 214.924 180.023 214.652 180.241C214.38 180.46 214.179 180.746 214.049 181.1C213.918 181.455 213.853 181.837 213.853 182.247C213.853 182.657 213.918 183.038 214.049 183.39C214.179 183.741 214.38 184.025 214.652 184.241C214.924 184.456 215.27 184.564 215.691 184.564ZM220.853 181.592V185.283H219.911V179.147H220.821V180.106H220.901C221.045 179.794 221.264 179.544 221.556 179.355C221.849 179.163 222.228 179.067 222.691 179.067C223.107 179.067 223.47 179.152 223.782 179.323C224.093 179.49 224.336 179.746 224.509 180.09C224.682 180.431 224.768 180.862 224.768 181.384V185.283H223.826V181.448C223.826 180.966 223.7 180.59 223.45 180.321C223.2 180.05 222.856 179.914 222.419 179.914C222.118 179.914 221.849 179.979 221.612 180.11C221.378 180.24 221.193 180.431 221.057 180.681C220.921 180.931 220.853 181.235 220.853 181.592ZM230.598 177.101V185.283H229.655V177.101H230.598ZM232.325 185.283V179.147H233.268V185.283H232.325ZM232.804 178.124C232.621 178.124 232.462 178.062 232.329 177.936C232.199 177.811 232.133 177.661 232.133 177.485C232.133 177.309 232.199 177.159 232.329 177.033C232.462 176.908 232.621 176.846 232.804 176.846C232.988 176.846 233.145 176.908 233.276 177.033C233.409 177.159 233.476 177.309 233.476 177.485C233.476 177.661 233.409 177.811 233.276 177.936C233.145 178.062 232.988 178.124 232.804 178.124ZM237.727 179.147V179.946H234.419V179.147H237.727ZM235.41 185.283V178.3C235.41 177.948 235.493 177.655 235.658 177.421C235.823 177.187 236.037 177.011 236.301 176.894C236.565 176.776 236.843 176.718 237.136 176.718C237.368 176.718 237.557 176.737 237.703 176.774C237.85 176.811 237.959 176.846 238.031 176.878L237.759 177.693C237.711 177.677 237.645 177.657 237.56 177.633C237.477 177.609 237.368 177.597 237.232 177.597C236.92 177.597 236.695 177.675 236.557 177.832C236.421 177.99 236.353 178.22 236.353 178.524V185.283H235.41ZM241.369 185.411C240.778 185.411 240.268 185.281 239.839 185.02C239.413 184.756 239.084 184.388 238.852 183.917C238.623 183.443 238.508 182.892 238.508 182.263C238.508 181.634 238.623 181.08 238.852 180.601C239.084 180.119 239.406 179.743 239.819 179.474C240.234 179.203 240.719 179.067 241.273 179.067C241.593 179.067 241.908 179.12 242.22 179.227C242.531 179.333 242.815 179.506 243.071 179.746C243.326 179.983 243.53 180.297 243.682 180.689C243.834 181.08 243.91 181.563 243.91 182.135V182.535H239.18V181.72H242.951C242.951 181.373 242.882 181.064 242.743 180.793C242.607 180.521 242.413 180.307 242.16 180.15C241.909 179.992 241.614 179.914 241.273 179.914C240.897 179.914 240.572 180.007 240.298 180.194C240.026 180.377 239.817 180.617 239.671 180.913C239.524 181.208 239.451 181.525 239.451 181.863V182.407C239.451 182.87 239.531 183.263 239.691 183.585C239.853 183.905 240.078 184.149 240.366 184.316C240.654 184.482 240.988 184.564 241.369 184.564C241.617 184.564 241.84 184.529 242.04 184.46C242.242 184.388 242.417 184.282 242.563 184.141C242.71 183.997 242.823 183.818 242.903 183.605L243.814 183.861C243.718 184.17 243.557 184.442 243.33 184.676C243.104 184.908 242.824 185.089 242.491 185.219C242.159 185.347 241.784 185.411 241.369 185.411ZM249.69 180.521L248.844 180.761C248.79 180.62 248.712 180.483 248.608 180.349C248.507 180.214 248.368 180.102 248.192 180.014C248.017 179.926 247.791 179.882 247.517 179.882C247.142 179.882 246.829 179.968 246.578 180.142C246.331 180.312 246.207 180.529 246.207 180.793C246.207 181.027 246.292 181.212 246.462 181.348C246.633 181.484 246.899 181.597 247.261 181.688L248.172 181.911C248.721 182.045 249.13 182.248 249.399 182.523C249.668 182.794 249.802 183.145 249.802 183.573C249.802 183.925 249.701 184.239 249.499 184.516C249.299 184.793 249.019 185.012 248.66 185.171C248.3 185.331 247.882 185.411 247.405 185.411C246.779 185.411 246.261 185.275 245.851 185.004C245.441 184.732 245.181 184.335 245.072 183.813L245.967 183.589C246.052 183.92 246.213 184.167 246.451 184.332C246.69 184.498 247.003 184.58 247.389 184.58C247.829 184.58 248.178 184.487 248.436 184.3C248.697 184.111 248.828 183.885 248.828 183.621C248.828 183.408 248.753 183.23 248.604 183.086C248.455 182.939 248.226 182.83 247.917 182.758L246.894 182.519C246.332 182.385 245.919 182.179 245.655 181.899C245.394 181.617 245.264 181.264 245.264 180.841C245.264 180.494 245.361 180.188 245.556 179.922C245.753 179.656 246.02 179.446 246.359 179.295C246.7 179.143 247.086 179.067 247.517 179.067C248.124 179.067 248.601 179.2 248.947 179.466C249.296 179.733 249.544 180.084 249.69 180.521ZM253.714 185.411C253.139 185.411 252.644 185.275 252.228 185.004C251.813 184.732 251.493 184.358 251.27 183.881C251.046 183.404 250.934 182.86 250.934 182.247C250.934 181.624 251.048 181.074 251.277 180.597C251.509 180.118 251.831 179.743 252.244 179.474C252.66 179.203 253.145 179.067 253.698 179.067C254.13 179.067 254.519 179.147 254.865 179.307C255.211 179.466 255.495 179.69 255.716 179.978C255.937 180.265 256.074 180.601 256.127 180.985H255.185C255.113 180.705 254.953 180.457 254.705 180.241C254.46 180.023 254.13 179.914 253.714 179.914C253.347 179.914 253.025 180.01 252.748 180.202C252.473 180.391 252.259 180.658 252.104 181.005C251.953 181.348 251.877 181.752 251.877 182.215C251.877 182.689 251.951 183.102 252.1 183.453C252.252 183.805 252.465 184.078 252.74 184.272C253.017 184.467 253.342 184.564 253.714 184.564C253.959 184.564 254.182 184.521 254.382 184.436C254.581 184.351 254.751 184.229 254.889 184.069C255.027 183.909 255.126 183.717 255.185 183.493H256.127C256.074 183.856 255.942 184.182 255.732 184.472C255.524 184.76 255.249 184.989 254.905 185.159C254.564 185.327 254.167 185.411 253.714 185.411ZM257.506 185.283V179.147H258.417V180.074H258.481C258.592 179.77 258.795 179.524 259.088 179.335C259.381 179.146 259.711 179.051 260.079 179.051C260.148 179.051 260.234 179.052 260.338 179.055C260.442 179.058 260.521 179.062 260.574 179.067V180.026C260.542 180.018 260.469 180.006 260.354 179.99C260.242 179.971 260.124 179.962 259.999 179.962C259.7 179.962 259.434 180.024 259.2 180.15C258.968 180.272 258.784 180.443 258.648 180.661C258.515 180.877 258.449 181.123 258.449 181.4V185.283H257.506ZM261.692 185.283V179.147H262.634V185.283H261.692ZM262.171 178.124C261.987 178.124 261.829 178.062 261.696 177.936C261.565 177.811 261.5 177.661 261.5 177.485C261.5 177.309 261.565 177.159 261.696 177.033C261.829 176.908 261.987 176.846 262.171 176.846C262.355 176.846 262.512 176.908 262.642 177.033C262.776 177.159 262.842 177.309 262.842 177.485C262.842 177.661 262.776 177.811 262.642 177.936C262.512 178.062 262.355 178.124 262.171 178.124ZM264.361 187.584V179.147H265.272V180.122H265.384C265.453 180.015 265.549 179.879 265.672 179.714C265.797 179.546 265.975 179.397 266.207 179.267C266.441 179.134 266.758 179.067 267.158 179.067C267.674 179.067 268.13 179.196 268.524 179.454C268.918 179.713 269.226 180.079 269.447 180.553C269.668 181.027 269.778 181.586 269.778 182.231C269.778 182.881 269.668 183.444 269.447 183.921C269.226 184.395 268.92 184.763 268.528 185.024C268.137 185.282 267.685 185.411 267.174 185.411C266.78 185.411 266.464 185.346 266.227 185.215C265.99 185.082 265.807 184.932 265.68 184.764C265.552 184.593 265.453 184.452 265.384 184.34H265.304V187.584H264.361ZM265.288 182.215C265.288 182.678 265.356 183.087 265.492 183.441C265.628 183.793 265.826 184.069 266.087 184.268C266.348 184.466 266.668 184.564 267.046 184.564C267.44 184.564 267.769 184.46 268.033 184.252C268.299 184.042 268.499 183.76 268.632 183.406C268.768 183.049 268.836 182.652 268.836 182.215C268.836 181.784 268.769 181.395 268.636 181.048C268.505 180.7 268.307 180.424 268.041 180.222C267.777 180.016 267.445 179.914 267.046 179.914C266.662 179.914 266.34 180.011 266.079 180.206C265.818 180.397 265.621 180.666 265.488 181.013C265.355 181.356 265.288 181.757 265.288 182.215ZM273.885 179.147V179.946H270.705V179.147H273.885ZM271.632 177.677H272.575V183.525C272.575 183.792 272.614 183.991 272.691 184.125C272.771 184.255 272.872 184.343 272.994 184.388C273.12 184.431 273.251 184.452 273.39 184.452C273.494 184.452 273.579 184.447 273.646 184.436C273.712 184.423 273.766 184.412 273.805 184.404L273.997 185.251C273.933 185.275 273.844 185.299 273.73 185.323C273.615 185.35 273.47 185.363 273.294 185.363C273.028 185.363 272.767 185.306 272.511 185.191C272.258 185.077 272.048 184.902 271.88 184.668C271.715 184.434 271.632 184.138 271.632 183.781V177.677Z" fill="white"/>
</g>
<path fill-rule="evenodd" clip-rule="evenodd" d="M144.296 101.443C144.296 101.564 144.22 101.817 144.079 102.162C143.908 102.58 143.858 102.762 143.844 103.006C143.824 103.357 143.895 103.772 143.975 103.772C144.04 103.772 144.309 103.418 144.382 103.237C144.412 103.163 144.459 102.994 144.488 102.861C144.535 102.643 144.541 102.636 144.544 102.785C144.549 103.018 144.456 103.383 144.324 103.652C144.262 103.777 144.231 103.88 144.256 103.88C144.347 103.88 144.539 103.718 144.663 103.538C145.002 103.045 144.954 102.284 144.537 101.537C144.366 101.231 144.296 101.204 144.296 101.443ZM149.033 101.502C149.033 101.556 148.966 101.726 148.883 101.88C148.676 102.264 148.633 102.537 148.722 102.903C148.751 103.022 148.981 102.827 149.073 102.605C149.118 102.495 149.156 102.443 149.157 102.488C149.158 102.534 149.103 102.685 149.034 102.824C148.894 103.107 148.936 103.149 149.163 102.953C149.362 102.781 149.419 102.619 149.395 102.285C149.366 101.871 149.033 101.151 149.033 101.502ZM145.931 101.756C145.931 101.798 145.884 101.96 145.827 102.118C145.713 102.43 145.7 102.566 145.762 102.776C145.81 102.937 145.883 102.917 145.988 102.712C146.057 102.579 146.057 102.62 145.99 102.834C145.95 102.96 146.05 102.928 146.169 102.777C146.264 102.655 146.274 102.605 146.258 102.351C146.244 102.147 146.206 102.009 146.125 101.873C146.006 101.673 145.931 101.628 145.931 101.756ZM147.436 101.903C147.126 102.179 146.945 102.63 147.017 102.948C147.059 103.139 147.183 103.397 147.231 103.397C147.248 103.397 147.256 103.234 147.249 103.035C147.235 102.691 147.236 102.686 147.271 102.931C147.292 103.073 147.337 103.245 147.372 103.313C147.429 103.426 147.426 103.458 147.333 103.694C147.277 103.835 147.231 104.044 147.231 104.157C147.231 104.33 147.245 104.362 147.319 104.362C147.46 104.362 147.681 104.204 147.817 104.006C147.887 103.905 147.943 103.842 147.943 103.865C147.943 103.968 147.724 104.307 147.588 104.415C147.407 104.558 147.4 104.63 147.567 104.63C147.736 104.63 147.971 104.501 148.076 104.35C148.144 104.251 148.142 104.264 148.065 104.416C147.907 104.727 147.692 105.013 147.316 105.412C147.119 105.62 146.905 105.88 146.841 105.989C146.56 106.46 146.355 107.283 146.278 108.252L146.243 108.679L146.122 108.437C145.887 107.97 145.845 107.613 145.956 107.006C146.033 106.583 146.015 106.357 145.886 106.126C145.799 105.969 145.491 105.649 145.427 105.649C145.411 105.649 145.442 105.762 145.497 105.9C145.622 106.216 145.627 106.636 145.512 107.105C145.466 107.292 145.414 107.474 145.396 107.508C145.376 107.548 145.253 107.362 145.06 106.999C144.568 106.072 144.079 105.468 143.337 104.874C142.821 104.461 142.348 104.137 142.317 104.176C142.307 104.189 142.226 104.152 142.136 104.093C142.046 104.035 141.887 103.984 141.782 103.981L141.592 103.976L141.727 103.921C141.827 103.879 141.925 103.886 142.114 103.947C142.398 104.038 142.427 104 142.248 103.773C141.882 103.304 141.214 103.542 140.815 104.284C140.747 104.412 140.691 104.526 140.691 104.54C140.691 104.553 140.771 104.553 140.869 104.539C140.967 104.526 141.159 104.553 141.297 104.599C141.661 104.723 141.895 104.708 142.15 104.545C142.27 104.469 142.368 104.372 142.368 104.329C142.368 104.276 142.431 104.306 142.573 104.429C143.019 104.813 143.765 105.685 143.723 105.772C143.708 105.802 143.716 105.811 143.74 105.792C143.83 105.721 144.624 106.992 145.006 107.82C145.19 108.219 145.419 108.805 145.517 109.129C145.553 109.248 145.551 109.252 145.477 109.182C144.555 108.318 144.169 108.07 143.608 107.98C143.301 107.931 143.306 108.018 143.615 108.109C144.07 108.244 144.452 108.53 144.842 109.027C145.249 109.546 145.452 109.985 145.6 110.665C145.755 111.373 145.716 112.293 145.511 112.782C145.469 112.884 145.479 112.922 145.589 113.068C145.659 113.161 145.773 113.393 145.841 113.585C146.021 114.089 146.046 114.263 145.879 113.848C145.473 112.842 144.864 112.229 143.954 111.911C143.645 111.803 143.508 111.789 142.766 111.789C142.129 111.789 141.826 111.813 141.508 111.888C140.108 112.219 138.448 112.949 136.918 113.906C136.399 114.23 136.508 114.209 137.106 113.869C138.536 113.055 139.779 112.544 141.005 112.265C141.589 112.132 142.885 112.13 143.342 112.26C144.412 112.565 145.223 113.299 145.636 114.336C145.703 114.503 145.661 114.445 145.43 114.053C145.1 113.49 144.589 113.047 143.964 112.78C142.773 112.271 141.239 112.496 139.336 113.459C138.728 113.766 138.016 114.193 137.945 114.293C137.893 114.366 137.883 114.37 138.595 113.971C141.433 112.375 143.588 112.344 144.802 113.881C144.931 114.044 145.08 114.276 145.133 114.398L145.23 114.618L145.009 114.394C144.72 114.103 144.187 113.776 143.77 113.634C143.307 113.477 142.51 113.438 142.008 113.549C141.601 113.638 140.636 114.015 140.72 114.052C140.747 114.064 140.918 114.015 141.099 113.941C141.578 113.748 141.909 113.683 142.43 113.683C143.259 113.681 143.913 113.912 144.528 114.423L144.778 114.631L140.921 114.658C137.247 114.684 136.995 114.693 138.595 114.738C141.512 114.822 142.444 114.872 143.604 115.009C144.709 115.14 145.664 115.364 145.608 115.48C145.594 115.509 145.604 115.515 145.63 115.495C145.686 115.451 145.965 115.624 146.064 115.765C146.103 115.819 146.155 115.933 146.181 116.018L146.226 116.172L146.323 115.937C146.467 115.587 146.748 115.411 147.457 115.223C148.539 114.938 151.561 114.711 154.292 114.711C154.936 114.711 155.448 114.69 155.448 114.664C155.448 114.636 153.813 114.612 151.624 114.607C149.52 114.602 147.793 114.591 147.786 114.582C147.766 114.556 148.317 114.14 148.53 114.02C149.018 113.746 149.354 113.67 150.082 113.669C150.703 113.668 150.817 113.683 151.207 113.815C151.445 113.896 151.678 113.988 151.724 114.019C151.77 114.051 151.818 114.063 151.831 114.046C151.861 114.008 151.644 113.89 151.269 113.741C151.112 113.678 150.955 113.615 150.92 113.599C150.885 113.584 150.819 113.566 150.773 113.56C150.727 113.554 150.501 113.519 150.27 113.481C149.298 113.325 148.344 113.622 147.573 114.321L147.308 114.562L147.38 114.382C147.509 114.059 148.024 113.469 148.391 113.222C148.879 112.894 149.27 112.777 149.993 112.741C151.146 112.685 152.388 113.058 153.917 113.922C154.556 114.282 154.577 114.292 154.545 114.226C154.5 114.134 153.706 113.669 153.037 113.344C151.989 112.835 151.304 112.617 150.408 112.507C148.949 112.328 147.638 112.978 146.994 114.201C146.835 114.504 146.807 114.499 146.946 114.191C147.635 112.67 149.026 111.931 150.823 112.133C152.254 112.293 153.815 112.883 155.611 113.942C155.781 114.042 155.929 114.113 155.94 114.1C155.992 114.033 154.11 112.991 153.289 112.631C151.8 111.978 150.844 111.738 149.746 111.74C149.131 111.741 148.951 111.761 148.635 111.86C147.725 112.148 147.043 112.822 146.67 113.8C146.456 114.363 146.438 114.386 146.555 113.951C146.658 113.568 146.734 113.385 146.913 113.085L147.06 112.839L146.979 112.606C146.707 111.819 146.793 110.37 147.175 109.281C147.326 108.852 147.633 108.223 147.691 108.223C147.707 108.223 147.745 108.163 147.776 108.089C147.807 108.015 147.838 107.963 147.846 107.973C147.853 107.982 147.94 107.892 148.039 107.772C148.241 107.525 148.589 107.291 148.913 107.185C149.033 107.146 149.114 107.1 149.093 107.084C149.072 107.067 148.883 107.036 148.673 107.015C148.077 106.956 147.657 107.151 147.203 107.7C146.95 108.005 146.943 107.994 146.985 107.34C147.037 106.519 147.21 106.114 147.852 105.305C148.341 104.687 148.478 104.374 148.517 103.78C148.549 103.299 148.484 103.251 148.362 103.666C148.311 103.842 148.266 103.987 148.262 103.987C148.259 103.987 148.262 103.812 148.269 103.598C148.283 103.192 148.208 102.695 148.127 102.662C148.101 102.651 148.071 102.687 148.059 102.742C148.048 102.797 147.927 102.951 147.789 103.085L147.54 103.328L147.619 103.134C147.686 102.971 147.693 102.883 147.666 102.566C147.648 102.359 147.635 102.088 147.637 101.963C147.638 101.837 147.636 101.735 147.633 101.735C147.629 101.735 147.54 101.811 147.436 101.903ZM142.886 102.385C142.723 102.738 142.644 103.087 142.644 103.454C142.644 103.767 142.659 103.84 142.763 104.013C142.884 104.216 143.089 104.362 143.252 104.362C143.333 104.362 143.327 104.342 143.188 104.145C143.031 103.922 142.953 103.727 142.957 103.568C142.959 103.509 142.974 103.524 143.002 103.612C143.085 103.879 143.444 104.252 143.543 104.174C143.597 104.13 143.595 103.549 143.539 103.36C143.514 103.277 143.4 103.071 143.285 102.903C143.171 102.734 143.053 102.507 143.023 102.399L142.97 102.202L142.886 102.385ZM145.137 103.211C144.994 103.582 144.937 104.005 144.984 104.331C145.022 104.584 145.228 104.881 145.398 104.928C145.472 104.948 145.556 104.989 145.585 105.018C145.69 105.126 145.639 104.919 145.529 104.787C145.403 104.637 145.325 104.457 145.287 104.228C145.261 104.069 145.261 104.069 145.34 104.256C145.489 104.607 145.786 104.888 145.881 104.766C145.938 104.693 145.907 104.069 145.838 103.906C145.801 103.818 145.683 103.615 145.576 103.456C145.469 103.297 145.371 103.098 145.358 103.014C145.344 102.93 145.32 102.861 145.303 102.861C145.286 102.861 145.211 103.018 145.137 103.211ZM146.564 103.388C146.203 103.855 146.089 104.358 146.254 104.754C146.294 104.848 146.322 104.943 146.317 104.965C146.312 104.988 146.323 105.001 146.34 104.994C146.357 104.988 146.415 105.014 146.469 105.052C146.598 105.144 146.621 105.103 146.548 104.917C146.472 104.724 146.427 104.362 146.479 104.362C146.5 104.362 146.518 104.412 146.518 104.473C146.518 104.66 146.724 105.059 146.821 105.059C146.884 105.059 147.019 104.613 147.02 104.403C147.021 104.293 146.982 104.076 146.934 103.92C146.886 103.765 146.833 103.518 146.816 103.37L146.785 103.102L146.564 103.388ZM149.641 103.254C149.429 103.378 149.266 103.589 149.161 103.875C149.106 104.025 149.073 104.163 149.088 104.182C149.102 104.2 149.182 104.14 149.264 104.048C149.445 103.844 149.675 103.691 149.872 103.642C150.002 103.609 149.993 103.622 149.79 103.756C149.664 103.839 149.531 103.929 149.493 103.956C149.41 104.015 149.183 104.517 149.218 104.563C149.232 104.58 149.342 104.605 149.463 104.617C149.775 104.65 150.096 104.481 150.469 104.089C150.636 103.914 150.845 103.746 150.934 103.715C151.137 103.644 151.098 103.574 150.741 103.367C150.429 103.187 149.857 103.128 149.641 103.254ZM144.152 104.023C144.17 104.077 144.197 104.362 144.211 104.657C144.225 104.952 144.258 105.242 144.284 105.301C144.361 105.476 144.579 105.717 144.627 105.68C144.697 105.625 144.76 105.253 144.734 105.053C144.713 104.894 144.716 104.885 144.761 104.976C144.789 105.033 144.812 105.221 144.81 105.393C144.808 105.662 144.817 105.697 144.869 105.642C144.973 105.531 145.051 105.289 145.051 105.072C145.051 104.66 144.771 104.275 144.28 104.013C144.125 103.93 144.119 103.93 144.152 104.023ZM148.635 104.767C148.566 104.812 148.486 104.889 148.457 104.938C148.394 105.043 148.386 105.349 148.447 105.301C148.47 105.282 148.488 105.305 148.488 105.351C148.488 105.458 148.611 105.458 148.731 105.351C148.782 105.305 148.848 105.285 148.876 105.306C148.905 105.327 148.915 105.325 148.898 105.302C148.866 105.256 149.004 104.969 149.113 104.856C149.172 104.795 149.172 104.781 149.117 104.736C149.022 104.659 148.776 104.675 148.635 104.767ZM142.269 105.06C142.071 105.282 141.985 105.586 141.983 106.065C141.983 106.283 141.992 106.473 142.004 106.488C142.016 106.504 142.063 106.468 142.109 106.41C142.154 106.351 142.316 106.227 142.468 106.135C142.629 106.036 142.785 105.895 142.843 105.794C142.956 105.6 143.049 105.285 143.014 105.214C142.951 105.082 142.573 105.225 142.41 105.442C142.331 105.548 142.322 105.551 142.359 105.461C142.421 105.304 142.538 105.182 142.715 105.087C142.936 104.97 142.908 104.898 142.642 104.898C142.447 104.898 142.391 104.922 142.269 105.06ZM150.49 104.973C150.45 105.012 150.273 105.061 150.098 105.082C149.684 105.129 149.484 105.236 149.305 105.504C149.225 105.624 149.159 105.738 149.159 105.757C149.159 105.827 149.375 105.917 149.54 105.917C149.632 105.917 149.772 105.882 149.852 105.84C150.049 105.734 150.037 105.782 149.833 105.915C149.742 105.975 149.577 106.029 149.466 106.037C149.355 106.045 149.267 106.074 149.27 106.103C149.28 106.191 149.55 106.346 149.695 106.346C149.855 106.346 150.121 106.186 150.253 106.011C150.371 105.853 150.627 105.177 150.627 105.021C150.627 104.882 150.595 104.871 150.49 104.973ZM146.119 105.481C145.933 105.839 145.928 106.239 146.107 106.452C146.237 106.606 146.327 106.599 146.262 106.44C146.214 106.323 146.215 106.322 146.295 106.413C146.419 106.554 146.469 106.528 146.502 106.307C146.522 106.167 146.509 106.032 146.458 105.864C146.417 105.731 146.362 105.544 146.336 105.448C146.31 105.352 146.274 105.274 146.257 105.274C146.24 105.274 146.178 105.367 146.119 105.481ZM148.698 105.68C148.64 105.721 148.511 105.755 148.409 105.756C148.308 105.756 148.154 105.784 148.066 105.817C147.879 105.889 147.586 106.248 147.62 106.364C147.652 106.47 147.94 106.526 148.087 106.455C148.153 106.423 148.216 106.409 148.228 106.424C148.26 106.466 148.025 106.57 147.828 106.601C147.607 106.635 147.646 106.73 147.921 106.828C148.089 106.888 148.125 106.883 148.299 106.776C148.523 106.637 148.672 106.407 148.785 106.027C148.912 105.599 148.897 105.539 148.698 105.68ZM145.051 106.145C145.051 106.413 145.071 106.575 145.116 106.656C145.201 106.812 145.234 106.806 145.293 106.628C145.325 106.528 145.334 106.519 145.319 106.601C145.307 106.667 145.316 106.722 145.34 106.722C145.401 106.722 145.47 106.539 145.47 106.378C145.47 106.239 145.269 105.902 145.129 105.806C145.056 105.756 145.051 105.779 145.051 106.145ZM151.65 105.862C151.629 105.888 151.472 105.934 151.302 105.964C151.039 106.01 150.971 106.044 150.851 106.192C150.641 106.453 150.677 106.561 150.972 106.561C151.043 106.561 151.09 106.575 151.076 106.593C151.063 106.611 150.984 106.625 150.902 106.625C150.82 106.625 150.752 106.646 150.752 106.672C150.752 106.732 150.978 106.882 151.069 106.882C151.301 106.882 151.567 106.546 151.692 106.093C151.751 105.876 151.731 105.761 151.65 105.862ZM143.049 105.996C142.823 106.13 142.763 106.239 142.914 106.239C142.961 106.239 143.009 106.272 143.021 106.312C143.033 106.352 143.141 106.449 143.261 106.526C143.429 106.634 143.514 106.659 143.636 106.633C143.722 106.615 143.793 106.578 143.793 106.55C143.793 106.443 143.702 106.291 143.593 106.215C143.53 106.172 143.5 106.135 143.525 106.134C143.551 106.133 143.64 106.191 143.724 106.264C143.872 106.393 143.877 106.393 143.877 106.287C143.877 106.226 143.822 106.107 143.754 106.02C143.597 105.819 143.36 105.81 143.049 105.996ZM151.172 106.507C151.134 106.538 151.129 106.559 151.159 106.56C151.186 106.56 151.22 106.537 151.234 106.507C151.267 106.44 151.252 106.44 151.172 106.507ZM149.687 106.677C149.597 106.703 149.455 106.777 149.373 106.843L149.222 106.963L149.564 106.999C149.777 107.022 149.968 107.077 150.074 107.146C150.321 107.307 150.325 107.371 150.081 107.253C149.82 107.126 149.525 107.124 149.309 107.248L149.144 107.343L149.302 107.567C149.547 107.914 149.825 108.06 150.359 108.124C150.83 108.179 151.087 108.275 151.088 108.395C151.089 108.448 151.097 108.447 151.126 108.39C151.17 108.3 151.05 107.824 150.902 107.5C150.777 107.227 150.458 106.844 150.278 106.751C150.083 106.651 149.874 106.624 149.687 106.677ZM142.542 107.282C142.554 107.58 142.58 107.719 142.645 107.831C142.767 108.042 142.917 108.139 143.052 108.096C143.17 108.058 143.208 107.955 143.104 107.955C143.07 107.955 142.999 107.901 142.944 107.834C142.89 107.768 142.875 107.741 142.911 107.774C143.007 107.864 143.144 107.908 143.217 107.872C143.268 107.847 143.274 107.805 143.246 107.676C143.196 107.453 143.097 107.324 142.858 107.169C142.748 107.098 142.647 107.004 142.634 106.961C142.621 106.918 142.591 106.882 142.568 106.882C142.542 106.882 142.532 107.037 142.542 107.282ZM144.332 107.38C144.226 107.443 143.919 107.765 143.919 107.814C143.919 107.87 144.2 107.955 144.383 107.955C144.55 107.955 144.598 107.931 144.67 107.814C144.755 107.675 144.786 107.526 144.729 107.526C144.713 107.526 144.652 107.58 144.593 107.647C144.489 107.763 144.488 107.763 144.562 107.651C144.719 107.412 144.571 107.238 144.332 107.38ZM148.53 107.92C148.53 108.065 148.72 108.421 148.888 108.59C149.061 108.764 148.945 108.729 148.75 108.548C148.657 108.461 148.546 108.316 148.504 108.226C148.463 108.136 148.411 108.062 148.39 108.062C148.326 108.062 148.401 108.507 148.492 108.666C148.538 108.748 148.565 108.838 148.551 108.867C148.537 108.895 148.552 108.906 148.584 108.89C148.616 108.874 148.667 108.899 148.697 108.945C148.842 109.169 149.416 109.239 149.78 109.076C149.933 109.008 149.951 108.942 149.83 108.893C149.785 108.875 149.631 108.677 149.488 108.454C149.21 108.019 148.932 107.796 148.667 107.795C148.551 107.794 148.53 107.813 148.53 107.92ZM142.17 108.243L142.015 108.424L142.231 108.462C142.35 108.483 142.483 108.485 142.528 108.467C142.641 108.421 142.673 108.181 142.574 108.114C142.44 108.022 142.328 108.058 142.17 108.243ZM142.97 108.276C142.832 108.347 142.703 108.744 142.703 109.099V109.404L142.86 109.281C142.947 109.214 143.074 109.122 143.142 109.078C143.285 108.986 143.467 108.671 143.448 108.548C143.43 108.431 143.311 108.416 143.16 108.513C143.062 108.575 143.042 108.578 143.078 108.522C143.104 108.482 143.182 108.419 143.252 108.382C143.345 108.333 143.364 108.302 143.324 108.269C143.255 108.213 143.086 108.216 142.97 108.276ZM143.919 108.598C143.919 108.627 143.983 108.685 144.06 108.726C144.138 108.768 144.216 108.83 144.233 108.865C144.251 108.903 144.212 108.895 144.135 108.844C143.991 108.749 143.852 108.734 143.815 108.81C143.802 108.838 143.824 108.953 143.865 109.065C143.921 109.218 143.997 109.305 144.167 109.416C144.291 109.496 144.428 109.603 144.471 109.652C144.513 109.701 144.549 109.731 144.551 109.719C144.552 109.707 144.562 109.638 144.573 109.565C144.607 109.327 144.507 108.88 144.381 108.708C144.286 108.577 144.228 108.545 144.091 108.545C143.996 108.545 143.919 108.569 143.919 108.598ZM147.818 108.682C147.818 108.762 147.857 108.908 147.905 109.008C147.953 109.107 147.982 109.188 147.97 109.188C147.957 109.188 147.894 109.074 147.83 108.933C147.715 108.683 147.713 108.681 147.699 108.833C147.658 109.292 147.943 109.603 148.413 109.613C148.64 109.618 148.688 109.563 148.572 109.429C148.527 109.377 148.433 109.205 148.364 109.048C148.245 108.779 148.133 108.662 147.912 108.575C147.83 108.542 147.818 108.557 147.818 108.682Z" fill="#197065"/>
<path d="M98.3957 78.7557L97.06 80.7448C96.7669 81.1813 96.8119 81.7244 97.1604 81.9579L136.746 108.473C137.094 108.707 137.615 108.542 137.908 108.106L139.243 106.117C139.536 105.68 139.491 105.137 139.143 104.903L99.5575 78.3881C99.2089 78.1546 98.6888 78.3192 98.3957 78.7557Z" fill="#238176"/>
<path d="M92.6038 77.2664L97.255 86.7328C97.3253 86.8756 97.432 86.9975 97.5643 87.0861C97.6967 87.1747 97.8501 87.227 98.0091 87.2376C98.1681 87.2483 98.3272 87.2169 98.4703 87.1468C98.6134 87.0766 98.7355 86.9701 98.8244 86.8379L104.707 78.0767C104.796 77.9445 104.848 77.7912 104.859 77.6323C104.87 77.4734 104.839 77.3145 104.768 77.1716C104.698 77.0286 104.591 76.9067 104.459 76.8181C104.327 76.7294 104.173 76.6772 104.014 76.6666L93.4805 75.9622C93.3216 75.9516 93.1626 75.983 93.0196 76.0531C92.8766 76.1233 92.7545 76.2298 92.6657 76.3619C92.5769 76.494 92.5244 76.6472 92.5135 76.8059C92.5026 76.9647 92.5338 77.1235 92.6038 77.2664Z" fill="#238176"/>
<defs>
<clipPath id="clip0_2794_8319">
<rect width="79.651" height="89.9812" fill="white" transform="translate(4.73535 38.2832)"/>
</clipPath>
<clipPath id="clip1_2794_8319">
<rect width="122.25" height="112.641" fill="white" transform="translate(149.486 71.2832)"/>
</clipPath>
<clipPath id="clip2_2794_8319">
<rect width="110.418" height="52.2246" fill="white" transform="translate(0.0878906 141.035)"/>
</clipPath>
<clipPath id="clip3_2794_8319">
<rect width="98.6147" height="90.0162" fill="white" transform="translate(193.734 103.533)"/>
</clipPath>
</defs>
</svg>
