<svg width="344" height="197" viewBox="0 0 344 197" fill="none" xmlns="http://www.w3.org/2000/svg">
<path opacity="0.66" d="M174.463 183.312C268.096 183.312 344 179.433 344 174.648C344 169.862 268.096 165.983 174.463 165.983C80.8308 165.983 4.92676 169.862 4.92676 174.648C4.92676 179.433 80.8308 183.312 174.463 183.312Z" fill="url(#paint0_linear_934_7536)"/>
<path d="M264.486 60.0238V165.582C264.485 166.857 263.979 168.079 263.077 168.98C262.176 169.882 260.954 170.388 259.679 170.389H140.367C139.736 170.389 139.111 170.265 138.528 170.023C137.945 169.781 137.415 169.427 136.969 168.981C136.522 168.535 136.168 168.005 135.927 167.422C135.686 166.839 135.561 166.214 135.562 165.582V60.0238C135.561 59.3927 135.686 58.7677 135.927 58.1845C136.168 57.6014 136.522 57.0715 136.969 56.6251C137.415 56.1788 137.945 55.8247 138.528 55.5832C139.111 55.3416 139.736 55.2173 140.367 55.2173H259.679C260.954 55.2178 262.176 55.7244 263.077 56.6257C263.979 57.527 264.485 58.7492 264.486 60.0238Z" fill="#7F886B"/>
<path d="M144.714 163.562H257.357V51.044L144.714 51.044V163.562Z" fill="#30422E"/>
<path d="M257.359 51.0435L144.717 51.0435V45.7288C144.717 44.0899 145.368 42.5182 146.526 41.3593C147.685 40.2005 149.257 39.5494 150.896 39.5494L251.182 39.5494C252.821 39.5494 254.393 40.2005 255.551 41.3593C256.71 42.5182 257.361 44.0899 257.361 45.7288V51.0435H257.359Z" fill="#7F886B"/>
<path d="M173.383 51.0435H171.356V163.562H173.383V51.0435Z" fill="#7F886B"/>
<path d="M144.715 134.895V136.921H257.359V134.895H144.715Z" fill="#7F886B"/>
<path d="M144.715 106.226V108.252H257.359V106.226H144.715Z" fill="#7F886B"/>
<path d="M144.715 77.6858V79.7119H257.359V77.6858H144.715Z" fill="#7F886B"/>
<path d="M202.05 51.0435H200.023V163.562H202.05V51.0435Z" fill="#7F886B"/>
<path d="M230.718 51.0435H228.691V163.562H230.718V51.0435Z" fill="#7F886B"/>
<path d="M257.358 136.921C257.358 136.921 257.339 149.253 254.45 159.707L248.288 163.564H226.563C230.691 152.58 230.716 136.921 230.716 136.921H257.358Z" fill="#F3ECDA"/>
<path d="M248.288 163.563V159.618H254.45L248.288 163.563Z" fill="#7F886B"/>
<path d="M228.692 108.251C228.692 108.251 228.673 120.584 225.782 131.039L219.621 134.894H197.897C202.024 123.911 202.05 108.251 202.05 108.251H228.692Z" fill="#F3ECDA"/>
<path d="M219.619 134.895V130.95H225.781L219.619 134.895Z" fill="#7F886B"/>
<path d="M228.692 51.0435C228.692 51.0435 228.673 63.3759 225.782 73.8295L219.621 77.6861H197.897C202.024 66.7023 202.05 51.0435 202.05 51.0435H228.692Z" fill="#F3ECDA"/>
<path d="M219.619 77.6862V73.7402H225.781L219.619 77.6862Z" fill="#7F886B"/>
<path d="M200.022 79.7119C200.022 79.7119 200.003 92.0444 197.113 102.498L190.951 106.355H169.228C173.354 95.3707 173.38 79.7119 173.38 79.7119H200.022Z" fill="#F3ECDA"/>
<path d="M190.952 106.354V102.408H197.114L190.952 106.354Z" fill="#7F886B"/>
<path d="M185.794 97.9343C185.63 97.9343 185.472 97.869 185.356 97.7528C185.24 97.6366 185.175 97.479 185.175 97.3147V88.7505C185.175 88.5861 185.24 88.4285 185.356 88.3123C185.472 88.1961 185.63 88.1309 185.794 88.1309C185.959 88.1309 186.116 88.1961 186.233 88.3123C186.349 88.4285 186.414 88.5861 186.414 88.7505V97.3147C186.414 97.479 186.349 97.6366 186.233 97.7528C186.116 97.869 185.959 97.9343 185.794 97.9343Z" fill="#A3A3A3"/>
<path d="M242.603 124.945L238.734 121.571C238.659 121.505 238.597 121.426 238.552 121.336C238.508 121.246 238.481 121.149 238.474 121.049C238.468 120.949 238.481 120.849 238.512 120.754C238.544 120.659 238.595 120.572 238.66 120.496C238.726 120.421 238.806 120.359 238.896 120.314C238.985 120.27 239.083 120.243 239.183 120.237C239.282 120.23 239.383 120.243 239.477 120.275C239.572 120.306 239.66 120.357 239.735 120.422L242.471 122.808L246.373 118.455C246.44 118.378 246.52 118.315 246.611 118.269C246.702 118.223 246.801 118.196 246.903 118.19C247.004 118.183 247.106 118.197 247.202 118.23C247.298 118.263 247.387 118.315 247.463 118.383C247.538 118.451 247.6 118.533 247.643 118.625C247.687 118.717 247.711 118.817 247.715 118.919C247.72 119.02 247.704 119.122 247.668 119.217C247.633 119.312 247.578 119.4 247.509 119.474L242.603 124.945Z" fill="#F3ECDA"/>
<path d="M98.3192 30.6825C97.8119 28.7251 97.0329 26.8483 96.0049 25.107L98.3603 21.5681L95.0991 18.3069L91.8379 15.0458L88.2896 17.3917C86.5486 16.363 84.6718 15.5839 82.714 15.0773L81.8725 10.9136H72.6423L71.8007 15.0773C69.843 15.5839 67.9662 16.363 66.2252 17.3917L62.6853 15.0374L59.4241 18.2985L56.1629 21.5597L58.5162 25.0996C57.4877 26.8407 56.7087 28.7175 56.2019 30.6752L52.0381 31.5168V40.7564L56.2019 41.5979C56.7087 43.5556 57.4877 45.4324 58.5162 47.1735L56.1598 50.7082L59.4209 53.9693L62.6821 57.2305L66.222 54.8772C67.9632 55.9055 69.84 56.6845 71.7976 57.1916L72.6392 61.3553H81.8746L82.7161 57.1916C84.6737 56.6845 86.5505 55.9055 88.2917 54.8772L91.8316 57.2305L95.0928 53.9693L98.3539 50.7082L96.007 47.1735C97.035 45.4322 97.814 43.5554 98.3213 41.5979L102.485 40.7564V31.5199L98.3192 30.6825ZM77.2605 52.3188C74.0603 52.3188 70.932 51.3698 68.2711 49.5918C65.6102 47.8139 63.5363 45.2868 62.3116 42.3302C61.0869 39.3736 60.7665 36.1202 61.3908 32.9814C62.0152 29.8427 63.5562 26.9596 65.8191 24.6967C68.082 22.4338 70.9651 20.8928 74.1039 20.2684C77.2426 19.6441 80.496 19.9645 83.4526 21.1892C86.4092 22.4139 88.9363 24.4878 90.7142 27.1487C92.4922 29.8095 93.4412 32.9379 93.4412 36.1381C93.4412 38.263 93.0226 40.3671 92.2095 42.3302C91.3963 44.2933 90.2045 46.077 88.702 47.5796C87.1995 49.0821 85.4157 50.2739 83.4526 51.0871C81.4895 51.9002 79.3854 52.3188 77.2605 52.3188Z" fill="#30422E"/>
<path d="M119.754 9.3167C119.522 8.41959 119.165 7.55945 118.694 6.76143L119.773 5.13821L118.276 3.64123L116.779 2.14846L115.156 3.2278C114.358 2.75708 113.498 2.4005 112.601 2.16845L112.216 0.254883H107.983L107.598 2.16424C106.701 2.39629 105.841 2.75287 105.043 3.22359L103.421 2.14846L101.924 3.64123L100.427 5.13821L101.506 6.76143C101.034 7.55918 100.677 8.41939 100.445 9.3167L98.5361 9.70068V13.9307L100.445 14.3147C100.677 15.2143 101.034 16.0767 101.506 16.8763L100.427 18.4995L101.924 19.9965L103.421 21.4935L105.043 20.4141C105.841 20.8852 106.701 21.2421 107.598 21.4745L107.983 23.3828H112.216L112.601 21.4745C113.498 21.2421 114.358 20.8852 115.156 20.4141L116.779 21.4935L118.276 19.9965L119.773 18.4995L118.694 16.8763C119.165 16.0784 119.522 15.2182 119.754 14.321L121.663 13.937V9.70068L119.754 9.3167ZM110.1 19.2359C108.632 19.2359 107.198 18.8008 105.978 17.9856C104.758 17.1703 103.807 16.0117 103.246 14.656C102.684 13.3004 102.537 11.8087 102.824 10.3696C103.11 8.93049 103.817 7.60862 104.854 6.57115C105.892 5.53368 107.214 4.82721 108.653 4.54108C110.092 4.25495 111.584 4.40201 112.939 4.96367C114.295 5.52533 115.453 6.47636 116.268 7.69648C117.083 8.9166 117.518 10.351 117.518 11.8183C117.518 12.7925 117.326 13.7571 116.953 14.6572C116.581 15.5572 116.034 16.3749 115.345 17.0637C114.656 17.7525 113.839 18.2989 112.938 18.6716C112.038 19.0443 111.074 19.236 110.1 19.2359Z" fill="#30422E"/>
<path d="M169.909 156.75C198.766 127.893 198.766 81.1069 169.909 52.25C141.052 23.3931 94.2661 23.3931 65.4092 52.25C36.5523 81.1069 36.5523 127.893 65.4092 156.75C94.2661 185.607 141.052 185.607 169.909 156.75Z" fill="#7F886B"/>
<path d="M49.8496 108.555C49.8496 132.913 61.6318 154.517 79.8144 167.977C58.2244 155.078 43.7617 131.479 43.7617 104.501C43.7617 63.6899 76.8499 30.607 117.66 30.607C133.481 30.5813 148.89 35.6583 161.597 45.0845C150.156 38.2439 137.071 34.6418 123.741 34.6635C82.9314 34.6635 49.8496 67.7443 49.8496 108.555Z" fill="#30422E"/>
<path d="M164.918 151.759C191.018 125.658 191.018 83.3416 164.918 57.2413C138.817 31.1411 96.5005 31.1411 70.4003 57.2414C44.3 83.3416 44.3 125.658 70.4003 151.759C96.5005 177.859 138.817 177.859 164.918 151.759Z" fill="white"/>
<path d="M118.611 42.9224H116.709V49.8308H118.611V42.9224Z" fill="#30422E"/>
<path d="M118.611 159.167H116.709V166.076H118.611V159.167Z" fill="#30422E"/>
<path d="M179.236 105.452V103.55H172.328V105.452H179.236Z" fill="#30422E"/>
<path d="M62.9922 105.451V103.549H56.0838V105.451H62.9922Z" fill="#30422E"/>
<path d="M160.529 148.714L161.874 147.369L156.989 142.484L155.644 143.829L160.529 148.714Z" fill="#30422E"/>
<path d="M78.3309 66.5183L79.6758 65.1733L74.7908 60.2884L73.4459 61.6333L78.3309 66.5183Z" fill="#30422E"/>
<path d="M73.4461 147.368L74.791 148.713L79.676 143.828L78.3311 142.483L73.4461 147.368Z" fill="#30422E"/>
<path d="M155.648 65.1702L156.993 66.5151L161.878 61.6302L160.533 60.2852L155.648 65.1702Z" fill="#30422E"/>
<path d="M117.661 162.711C102.112 162.711 87.4931 156.656 76.4988 145.662C65.5045 134.668 59.4492 120.049 59.4492 104.5C59.4492 88.9503 65.5045 74.3329 76.4988 63.3386C87.4931 52.3443 102.112 46.2891 117.661 46.2891C133.21 46.2891 147.828 52.3432 158.822 63.3386C169.816 74.334 175.872 88.9514 175.872 104.5C175.872 120.048 169.816 134.667 158.822 145.662C147.828 156.657 133.209 162.711 117.661 162.711ZM117.661 46.4668C85.6605 46.4668 59.627 72.5004 59.627 104.5C59.627 136.499 85.6605 162.534 117.661 162.534C149.661 162.534 175.694 136.5 175.694 104.5C175.694 72.4993 149.66 46.4668 117.661 46.4668Z" fill="#30422E"/>
<path d="M77.3848 104.205C80.7438 103.877 84.1017 103.662 87.4597 103.476C90.8176 103.29 94.1745 103.16 97.5324 103.055C100.889 102.963 104.246 102.882 107.602 102.85C109.285 102.826 110.959 102.82 112.637 102.814C114.315 102.809 115.994 102.814 117.672 102.814L116.476 103.301C119.249 100.538 122.047 97.7977 124.868 95.0801C127.694 92.367 130.53 89.6655 133.406 87.004C136.282 84.3425 139.172 81.6946 142.108 79.0941L144.317 77.149C145.06 76.5073 145.797 75.8592 146.543 75.2217C148.029 73.9397 149.534 72.6773 151.059 71.4346C149.8 72.9459 148.523 74.4387 147.226 75.9129C146.581 76.6493 145.926 77.3857 145.276 78.1221L143.308 80.3112C140.676 83.221 138.011 86.0965 135.312 88.9375C132.621 91.7853 129.892 94.5951 127.151 97.3934C124.411 100.192 121.638 102.957 118.84 105.704L118.338 106.2L117.644 106.191C115.966 106.17 114.288 106.16 112.611 106.122C110.933 106.084 109.255 106.061 107.577 106.017C104.221 105.937 100.865 105.806 97.5093 105.664C94.1534 105.522 90.7997 105.325 87.4449 105.095C84.0901 104.865 80.7385 104.583 77.3848 104.205Z" fill="#30422E"/>
<path opacity="0.69" d="M164.466 65.1191C154.18 57.8561 141.893 53.966 129.301 53.9859C95.5702 53.9859 68.2248 81.3313 68.2248 115.063C68.2038 129.698 73.4588 143.85 83.0263 154.924C67.3517 143.869 57.1074 125.618 57.1074 104.975C57.1074 71.2438 84.4528 43.8984 118.184 43.8984C136.685 43.8984 153.265 52.126 164.466 65.1191Z" fill="#F3ECDA"/>
<path d="M215.606 32.0254C215.606 32.0254 223.632 34.9373 231.71 42.0035L222.432 48.9035C222.432 48.9035 215.12 41.6974 207.143 38.1248L215.606 32.0254Z" fill="#F3ECDA"/>
<path d="M225.871 84.0907C225.871 84.0907 230.337 70.014 241.975 55.5576L254.556 71.1018C254.556 71.1018 242.619 84.2516 237.011 98.2851L225.871 84.0907Z" fill="#F3ECDA"/>
<path d="M283.196 68.7705C283.196 68.7705 272.96 58.543 266 41.3388L286.128 36C286.128 36 291.773 52.9286 301.399 64.2269L283.196 68.7705Z" fill="#F3ECDA"/>
<path d="M152.388 1.37793C152.388 1.37793 143.853 8.04017 135.855 22.4692L149.502 29.3145C149.502 29.3145 158.571 12.4164 166.261 6.69678L152.388 1.37793Z" fill="#F3ECDA"/>
<path d="M25.4584 122.802L25.248 122.413C26.266 121.824 27.2495 121.177 28.1936 120.476L28.4556 120.834C27.4947 121.546 26.494 122.204 25.4584 122.802ZM31.2444 118.604L30.9519 118.27C31.8503 117.481 32.7045 116.656 33.4883 115.819L33.8123 116.122C33.0191 116.967 32.1554 117.801 31.2444 118.604ZM36.1077 113.385L35.7532 113.121C36.4549 112.182 37.0938 111.198 37.6657 110.175L38.0528 110.386C37.472 111.426 36.8225 112.427 36.1088 113.382L36.1077 113.385ZM39.5435 107.134L39.1227 106.982C39.5237 105.884 39.8268 104.753 40.0285 103.601L40.465 103.677C40.2603 104.853 39.9523 106.009 39.5446 107.131L39.5435 107.134ZM40.3051 100.116C40.2856 98.9466 40.1613 97.7813 39.9338 96.634L40.3683 96.5488C40.601 97.7217 40.7285 98.9131 40.7491 100.109L40.3051 100.116ZM38.9765 93.2582C38.5673 92.1593 38.0854 91.0888 37.5342 90.0538L37.9255 89.8434C38.4865 90.8966 38.9764 91.9861 39.392 93.1046L38.9765 93.2582ZM35.7153 87.043C35.4727 86.684 35.2184 86.3235 34.9526 85.9616C34.5108 85.3588 34.0847 84.7434 33.6902 84.1322L34.0605 83.8892C34.4561 84.4941 34.8779 85.1032 35.3156 85.6996C35.5842 86.0671 35.8416 86.4318 36.0877 86.7937L35.7153 87.043ZM31.865 81.0635C31.3033 80.0116 30.792 78.9217 30.3449 77.8381L30.7541 77.6688C31.196 78.7386 31.7009 79.8117 32.2564 80.8563L31.865 81.0635ZM29.153 74.476C28.8133 73.3346 28.5352 72.1757 28.3199 71.0044L28.7554 70.9245C28.9684 72.0794 29.243 73.2221 29.578 74.3477L29.153 74.476ZM27.8685 67.4666C27.8138 66.7123 27.7865 65.9454 27.7865 65.1869C27.7865 64.7556 27.7953 64.3261 27.8128 63.8983L28.2557 63.9161C28.2381 64.3369 28.2294 64.7605 28.2294 65.1869C28.2294 65.9349 28.2567 66.6902 28.3104 67.435L27.8685 67.4666ZM28.5976 60.4183L28.1599 60.3499C28.3428 59.1706 28.5929 58.0028 28.909 56.852L29.3361 56.9699C29.0247 58.103 28.7781 59.2529 28.5976 60.4141V60.4183ZM30.4638 53.6456L30.0525 53.4794C30.4989 52.3751 31.0093 51.2978 31.581 50.2529L31.9702 50.4633C31.407 51.4926 30.904 52.5538 30.4638 53.6414V53.6456ZM33.8407 47.4873L33.4798 47.2285C34.173 46.2595 34.9256 45.3344 35.7332 44.4586L36.0593 44.7594C35.2637 45.6202 34.5227 46.5298 33.8407 47.483V47.4873ZM38.6083 42.3346L38.3253 41.9938C39.2429 41.2303 40.2128 40.5318 41.2277 39.9035L41.4613 40.2811C40.4632 40.8978 39.5099 41.584 38.6083 42.3346ZM44.5773 38.6653L44.4037 38.2582C45.5025 37.7905 46.6375 37.4126 47.7974 37.1283L47.9026 37.5586C46.7654 37.8368 45.6527 38.2065 44.5752 38.6642L44.5773 38.6653ZM51.3626 37.0189L51.3321 36.5771C51.5046 36.5655 51.6782 36.555 51.8528 36.5476C52.8701 36.5034 53.8789 36.4172 54.8489 36.2909L54.9057 36.7307C53.9231 36.858 52.9069 36.9411 51.8717 36.9905C51.6992 36.9968 51.5299 37.0063 51.3605 37.0179L51.3626 37.0189ZM58.4109 36.0795L58.3057 35.6492C59.4444 35.3707 60.5645 35.0211 61.6594 34.6025L61.8183 35.017C60.7054 35.4415 59.567 35.796 58.4098 36.0784L58.4109 36.0795ZM65.0595 33.5169L64.8491 33.1287C65.8766 32.5655 66.8627 31.9299 67.7999 31.2267L68.066 31.5812C67.1108 32.2968 66.1057 32.9433 65.0584 33.5158L65.0595 33.5169ZM70.7591 29.2321L70.4435 28.9165C71.2696 28.0841 72.0333 27.1921 72.7285 26.2476L73.0851 26.5106C72.3768 27.473 71.5991 28.3823 70.7581 29.2311L70.7591 29.2321ZM74.9776 23.4693L74.5863 23.2673C74.7978 22.8615 74.9868 22.4443 75.1522 22.0176L75.573 22.1691C75.3992 22.6132 75.2001 23.047 74.9766 23.4683L74.9776 23.4693Z" fill="#30422E"/>
<path d="M92.3996 5.9292L77.3057 20.0805L78.7953 14.0411L92.3996 5.9292Z" fill="#D6D6D6"/>
<path d="M92.3997 5.9292L82.1986 8.51814L80.668 12.9239L92.3997 5.9292Z" fill="#E8E8E8"/>
<path d="M80.7773 16.8257L82.8371 17.8598L92.4008 5.9292L80.7773 16.8257Z" fill="#C2C2C2"/>
<path d="M225.449 53.916H205.281C205.097 53.916 204.948 54.0648 204.948 54.2484V54.4557C204.948 54.6393 205.097 54.7881 205.281 54.7881H225.449C225.633 54.7881 225.782 54.6393 225.782 54.4557V54.2484C225.782 54.0648 225.633 53.916 225.449 53.916Z" fill="#30422E"/>
<path d="M217.72 57.7251H204.914C204.731 57.7251 204.582 57.8739 204.582 58.0575V58.2648C204.582 58.4484 204.731 58.5972 204.914 58.5972H217.72C217.904 58.5972 218.053 58.4484 218.053 58.2648V58.0575C218.053 57.8739 217.904 57.7251 217.72 57.7251Z" fill="#30422E"/>
<path d="M219.693 61.5356H204.409C204.225 61.5356 204.076 61.6845 204.076 61.8681V62.0753C204.076 62.2589 204.225 62.4077 204.409 62.4077H219.693C219.877 62.4077 220.025 62.2589 220.025 62.0753V61.8681C220.025 61.6845 219.877 61.5356 219.693 61.5356Z" fill="#30422E"/>
<path d="M225.629 110.784H205.238C205.116 110.784 205.017 110.883 205.017 111.005V111.435C205.017 111.557 205.116 111.656 205.238 111.656H225.629C225.751 111.656 225.85 111.557 225.85 111.435V111.005C225.85 110.883 225.751 110.784 225.629 110.784Z" fill="#30422E"/>
<path d="M214.34 114.593H204.87C204.748 114.593 204.649 114.692 204.649 114.814V115.244C204.649 115.366 204.748 115.465 204.87 115.465H214.34C214.462 115.465 214.561 115.366 214.561 115.244V114.814C214.561 114.692 214.462 114.593 214.34 114.593Z" fill="#30422E"/>
<path d="M220.917 118.403H204.365C204.243 118.403 204.145 118.502 204.145 118.624V119.054C204.145 119.176 204.243 119.275 204.365 119.275H220.917C221.039 119.275 221.138 119.176 221.138 119.054V118.624C221.138 118.502 221.039 118.403 220.917 118.403Z" fill="#30422E"/>
<path d="M251.031 139.378H234.06C233.874 139.378 233.723 139.529 233.723 139.716V139.912C233.723 140.099 233.874 140.25 234.06 140.25H251.031C251.218 140.25 251.369 140.099 251.369 139.912V139.716C251.369 139.529 251.218 139.378 251.031 139.378Z" fill="#30422E"/>
<path d="M243.067 143.188H233.572C233.386 143.188 233.234 143.339 233.234 143.525V143.722C233.234 143.908 233.386 144.06 233.572 144.06H243.067C243.254 144.06 243.405 143.908 243.405 143.722V143.525C243.405 143.339 243.254 143.188 243.067 143.188Z" fill="#30422E"/>
<path d="M245.087 146.998H232.895C232.709 146.998 232.558 147.149 232.558 147.336V147.532C232.558 147.719 232.709 147.87 232.895 147.87H245.087C245.273 147.87 245.424 147.719 245.424 147.532V147.336C245.424 147.149 245.273 146.998 245.087 146.998Z" fill="#30422E"/>
<path d="M264.486 60.0238V165.582C264.487 166.74 264.069 167.858 263.311 168.732C262.552 169.606 261.504 170.177 260.358 170.34V55.2656C261.504 55.4288 262.552 55.9999 263.311 56.874C264.069 57.7481 264.487 58.8665 264.486 60.0238Z" fill="#30422E"/>
<path d="M75.6846 152.718V174.645H16.3946C15.3034 174.645 14.2569 174.212 13.4853 173.44C12.7137 172.669 12.2803 171.622 12.2803 170.531V156.831C12.2803 156.72 12.2855 156.607 12.295 156.497C12.3731 155.535 12.7866 154.632 13.4631 153.945C14.1396 153.258 15.0361 152.83 15.9959 152.737C16.1274 152.725 16.261 152.718 16.3946 152.718H75.6846Z" fill="#30422E"/>
<path d="M86.871 152.72V154.977H85.8348V172.39H86.871V174.648H43.8447C43.3045 174.648 42.7695 174.541 42.2704 174.335C41.7713 174.128 41.3178 173.825 40.9358 173.443C40.5539 173.061 40.2509 172.607 40.0442 172.108C39.8376 171.609 39.7313 171.074 39.7314 170.534V156.831C39.7314 156.72 39.7367 156.607 39.7451 156.497C39.8235 155.532 40.2402 154.625 40.9217 153.937C41.6032 153.249 42.5058 152.824 43.4702 152.737C43.5943 152.725 43.7185 152.72 43.8447 152.72H86.871Z" fill="#7F886B"/>
<path d="M46.9495 154.975H85.831V172.389H46.9495C45.872 172.389 44.8386 171.961 44.0767 171.199C43.3148 170.437 42.8867 169.403 42.8867 168.326V159.037C42.887 157.959 43.3152 156.926 44.077 156.165C44.8389 155.403 45.8722 154.975 46.9495 154.975Z" fill="#F3ECDA"/>
<path d="M78.9419 163.595H62.209V164.027H78.9419V163.595Z" fill="url(#paint1_linear_934_7536)"/>
<path d="M72.2323 164.904H54.3633V165.335H72.2323V164.904Z" fill="url(#paint2_linear_934_7536)"/>
<path d="M70.3187 152.783H11.1907V135.854H70.3187C71.4517 135.854 72.5384 136.304 73.3395 137.105C74.1407 137.907 74.5908 138.993 74.5908 140.126V148.511C74.5908 149.644 74.1407 150.73 73.3395 151.531C72.5384 152.333 71.4517 152.783 70.3187 152.783Z" fill="#7F886B"/>
<path d="M47.1438 140.128V148.511C47.1438 149.644 46.6938 150.731 45.8929 151.532C45.0919 152.333 44.0056 152.783 42.8727 152.783H0V151.042H1.03726V137.599H0V135.856H42.8727C43.9169 135.856 44.925 136.238 45.7062 136.931C46.4875 137.624 46.9877 138.579 47.1122 139.616C47.1334 139.786 47.144 139.957 47.1438 140.128Z" fill="#30422E"/>
<path d="M40.5093 151.042H1.03871V137.598H40.5082C41.6374 137.598 42.7202 138.046 43.5187 138.845C44.3171 139.643 44.7656 140.726 44.7656 141.855V146.787C44.7651 147.915 44.3164 148.997 43.5183 149.795C42.7202 150.593 41.6379 151.042 40.5093 151.042Z" fill="#F3ECDA"/>
<path d="M7.92334 144.581H24.6562V144.248H7.92334V144.581Z" fill="url(#paint3_linear_934_7536)"/>
<path d="M14.6358 145.596H32.5049V145.264H14.6358V145.596Z" fill="url(#paint4_linear_934_7536)"/>
<path d="M22.6344 124.127H90.8632V135.856H22.6344C21.9277 135.856 21.2499 135.575 20.7502 135.076C20.2505 134.576 19.9697 133.898 19.9697 133.191V126.793C19.9696 126.443 20.0384 126.097 20.1723 125.773C20.3061 125.45 20.5024 125.156 20.7498 124.908C20.9973 124.661 21.2911 124.464 21.6144 124.33C21.9378 124.196 22.2844 124.127 22.6344 124.127Z" fill="#30422E"/>
<path d="M101.011 125.336V134.649H102.043V135.856H57.4754C56.7934 135.856 56.1394 135.585 55.657 135.103C55.1747 134.621 54.9036 133.967 54.9033 133.285V126.703C54.9033 126.021 55.1743 125.367 55.6567 124.885C56.139 124.402 56.7933 124.131 57.4754 124.131H102.043V125.336H101.011Z" fill="#7F886B"/>
<path d="M59.5418 125.336H101.009V134.649H59.5418C58.8597 134.649 58.2054 134.378 57.7231 133.896C57.2407 133.413 56.9697 132.759 56.9697 132.077V127.908C56.9697 127.226 57.2407 126.572 57.7231 126.089C58.2054 125.607 58.8597 125.336 59.5418 125.336Z" fill="#F3ECDA"/>
<path d="M94.1187 127.324H77.3857V127.656H94.1187V127.324Z" fill="url(#paint5_linear_934_7536)"/>
<path d="M87.4091 130.646H69.54V130.876H87.4091V130.646Z" fill="url(#paint6_linear_934_7536)"/>
<path style="mix-blend-mode:color-burn" d="M86.87 152.737V154.977H85.8337V156.497H12.2998C12.3779 155.535 12.7914 154.632 13.4679 153.945C14.1444 153.258 15.0409 152.83 16.0007 152.737H86.87Z" fill="url(#paint7_linear_934_7536)"/>
<path style="mix-blend-mode:color-burn" d="M74.5859 139.616H1.05198V138.095H1.03726V137.599H0.0136719V135.856H70.8882C71.8475 135.95 72.7434 136.378 73.4193 137.065C74.0952 137.752 74.5081 138.655 74.5859 139.616Z" fill="url(#paint8_linear_934_7536)"/>
<path d="M187.995 141.245C187.995 141.245 179.264 142.552 166.519 149.32C153.774 156.089 176.502 151.359 187.995 141.245Z" fill="#757D28"/>
<path d="M164.796 150.303C164.796 150.303 171.135 138.223 180.987 132.707C180.987 132.707 178.126 141.091 167.732 150.093C157.337 159.095 164.796 150.303 164.796 150.303Z" fill="#5C9E33"/>
<path d="M159.733 142.04C159.733 142.04 153.19 134.045 150.572 130.407C147.955 126.769 156.065 147.412 156.736 149.597C157.407 151.782 160.169 153.673 159.733 142.04Z" fill="#4D8B33"/>
<path d="M165.991 154.399C168.899 150.037 170.936 130.407 170.936 130.407C165.847 134.623 161.047 153.586 161.047 153.586C161.047 153.586 163.077 158.761 165.991 154.399Z" fill="#B1C265"/>
<path d="M165.328 152.421C166.2 150.567 165.036 126.502 164.341 128.683C163.646 130.863 159.68 139.879 159.68 139.879C159.093 145.344 164.455 154.275 165.328 152.421Z" fill="#92A05B"/>
<path d="M158.628 147.087C157.086 144.283 141.848 129.243 141.848 129.243C141.994 133.896 151.445 144.947 151.445 144.947C151.445 144.947 160.17 149.892 158.628 147.087Z" fill="#C7CA7F"/>
<path d="M165.991 154.081C148.397 147.597 131.819 150.968 131.819 150.968C134.239 154.297 157.266 154.081 157.266 154.081H165.991Z" fill="#5C9E33"/>
<path d="M162.293 154.651C153.351 144.914 132.272 140.222 132.272 140.222C138.5 146.582 147.442 152.159 147.442 152.159C147.442 152.159 171.236 164.389 162.293 154.651Z" fill="#518330"/>
<path d="M164.098 153.586C158.863 143.908 138.934 134.335 138.934 134.335C138.934 137.386 155.083 151.594 155.083 151.594C155.083 151.594 169.331 163.269 164.098 153.586Z" fill="#6C9F44"/>
<path d="M163.95 154.545C167.87 153.827 182.418 139.568 182.418 139.568C178.637 140.295 163.95 149.598 163.95 149.598C163.95 149.598 160.03 155.264 163.95 154.545Z" fill="#4A8A33"/>
<path d="M170.93 154.608C175.874 154.818 191.724 144.947 191.724 144.947C186.983 144.947 176.096 147.821 170.773 149.31C168.767 149.872 167.065 151.205 166.039 153.019C163.199 158.045 166.623 154.426 170.93 154.608Z" fill="#689C2F"/>
<path d="M189.252 150.323C187.779 150.206 178.261 150.63 174.174 150.821C172.556 150.889 171.008 151.497 169.777 152.548C168.015 154.07 168.53 155.212 170.934 155.699C174.13 156.349 191.143 150.479 189.252 150.323Z" fill="#478B33"/>
<path d="M163.539 152.899C163.887 151.406 163.958 149.862 163.75 148.344C163.057 143.164 160.649 127.126 157.122 124.694C157.122 124.694 155.529 145.475 158.868 152.466C161.363 157.707 162.863 155.767 163.539 152.899Z" fill="#61A23E"/>
<path d="M163.513 155.749C165.512 153.847 173.661 135.353 173.661 135.353C166.034 139.812 162.639 148.861 162.639 148.861C162.639 148.861 161.51 157.65 163.513 155.749Z" fill="#5C9B3B"/>
<path d="M144.735 157.153L147.251 173.498H176.92L179.436 157.153H144.735Z" fill="#30422E"/>
<path d="M179.437 157.153H144.741L147.257 173.498H153.498C153.498 173.498 158.833 163.031 178.714 161.879L179.437 157.153Z" fill="#30422E"/>
<g filter="url(#filter0_d_934_7536)">
<path d="M180.813 153.634H143.357V159.093H180.813V153.634Z" fill="#30422E"/>
</g>
<path d="M105.402 77.4206L103.341 76.5243C103.3 76.5069 103.264 76.4818 103.234 76.4503C103.203 76.4189 103.179 76.3817 103.163 76.341C103.147 76.3002 103.139 76.2567 103.14 76.2129C103.14 76.1691 103.15 76.1259 103.167 76.0857C103.185 76.0455 103.21 76.0091 103.241 75.9786C103.273 75.9481 103.31 75.9241 103.351 75.908C103.391 75.8919 103.435 75.884 103.479 75.8847C103.522 75.8854 103.566 75.8947 103.606 75.9121L105.064 76.5433L106.116 74.21C106.152 74.1293 106.219 74.0665 106.302 74.0352C106.385 74.0039 106.477 74.0068 106.557 74.0432C106.638 74.0796 106.701 74.1466 106.732 74.2294C106.763 74.3121 106.76 74.4039 106.724 74.4845L105.402 77.4206Z" fill="white"/>
<path d="M53.9557 159.155L42.002 152.752L46.0647 152.409L53.9557 159.155Z" fill="#D6D6D6"/>
<path d="M53.9557 159.154L50.2075 153.363L47.1504 153.338L53.9557 159.154Z" fill="#E8E8E8"/>
<path d="M44.7504 154.224L44.541 155.72L53.9553 159.155L44.7504 154.224Z" fill="#C2C2C2"/>
<path d="M41.2719 149.419C40.3081 148.834 39.381 148.192 38.4957 147.495L38.7555 147.165C39.6282 147.851 40.5416 148.484 41.4907 149.059L41.2719 149.419ZM35.9877 145.233C35.2016 144.422 34.4871 143.544 33.8522 142.61L34.1994 142.377C34.8221 143.291 35.5229 144.149 36.2939 144.942L35.9877 145.233ZM32.2711 139.613C32.2342 139.517 32.1985 139.422 32.1659 139.325C31.8134 138.354 31.5816 137.343 31.4758 136.315L31.8966 136.273C31.999 137.267 32.2229 138.244 32.5635 139.183C32.5972 139.276 32.6319 139.37 32.6687 139.463L32.2711 139.613ZM32.0102 132.995L31.5978 132.924C31.7949 131.808 32.1186 130.719 32.5625 129.677L32.9485 129.839C32.5171 130.852 32.2023 131.911 32.0102 132.995ZM34.5055 126.92L34.1531 126.694C34.414 126.29 34.6959 125.878 34.9947 125.472C35.3586 124.974 35.7121 124.455 36.0466 123.932L36.4001 124.157C36.0635 124.683 35.7048 125.209 35.3345 125.72C35.0315 126.118 34.758 126.522 34.5055 126.92ZM38.0339 121.211L37.6562 121.029C38.1365 120.03 38.558 119.004 38.9186 117.956L39.3141 118.092C38.9475 119.155 38.519 120.197 38.0307 121.211H38.0339ZM40.2178 114.844L39.8086 114.756C40.041 113.673 40.2078 112.577 40.3082 111.473L40.729 111.511C40.6252 112.632 40.4534 113.745 40.2146 114.844H40.2178ZM40.8153 108.141L40.3945 108.157C40.3545 107.05 40.2395 105.947 40.0505 104.856L40.4629 104.785C40.6565 105.894 40.775 107.015 40.8174 108.141H40.8153ZM39.6465 101.513L39.2499 101.645C39.1889 101.46 39.1248 101.277 39.0595 101.095C38.7507 100.238 38.3856 99.4025 37.9665 98.594L38.3379 98.4015C38.7646 99.2249 39.136 100.076 39.4498 100.948C39.52 101.134 39.5845 101.32 39.6434 101.509L39.6465 101.513ZM36.1887 95.7999C35.5165 94.925 34.7638 94.1149 33.9406 93.3804L34.2193 93.0648C35.0623 93.8169 35.8326 94.6467 36.52 95.5432L36.1887 95.7999ZM31.2748 91.43C30.325 90.868 29.3252 90.395 28.2882 90.0172L28.4324 89.6237C29.4914 90.011 30.5126 90.4949 31.4831 91.0691L31.2748 91.43ZM25.0976 89.1482C24.0093 88.9505 22.9081 88.8328 21.8027 88.7958L21.8175 88.375C22.9433 88.4133 24.0649 88.5336 25.1733 88.7348L25.0976 89.1482Z" fill="#30422E"/>
<defs>
<filter id="filter0_d_934_7536" x="139.357" y="153.634" width="45.4561" height="13.459" filterUnits="userSpaceOnUse" color-interpolation-filters="sRGB">
<feFlood flood-opacity="0" result="BackgroundImageFix"/>
<feColorMatrix in="SourceAlpha" type="matrix" values="0 0 0 0 0 0 0 0 0 0 0 0 0 0 0 0 0 0 127 0" result="hardAlpha"/>
<feOffset dy="4"/>
<feGaussianBlur stdDeviation="2"/>
<feComposite in2="hardAlpha" operator="out"/>
<feColorMatrix type="matrix" values="0 0 0 0 0 0 0 0 0 0 0 0 0 0 0 0 0 0 0.25 0"/>
<feBlend mode="normal" in2="BackgroundImageFix" result="effect1_dropShadow_934_7536"/>
<feBlend mode="normal" in="SourceGraphic" in2="effect1_dropShadow_934_7536" result="shape"/>
</filter>
<linearGradient id="paint0_linear_934_7536" x1="174.463" y1="191.863" x2="174.463" y2="154.759" gradientUnits="userSpaceOnUse">
<stop stop-color="#30422E"/>
<stop offset="1" stop-color="#7F886B"/>
</linearGradient>
<linearGradient id="paint1_linear_934_7536" x1="70.5754" y1="170.2" x2="70.5754" y2="142.637" gradientUnits="userSpaceOnUse">
<stop stop-color="#BFB0AA"/>
<stop offset="1" stop-color="#FAE7E0"/>
</linearGradient>
<linearGradient id="paint2_linear_934_7536" x1="63.2968" y1="170.198" x2="63.2968" y2="142.635" gradientUnits="userSpaceOnUse">
<stop stop-color="#BFB0AA"/>
<stop offset="1" stop-color="#FAE7E0"/>
</linearGradient>
<linearGradient id="paint3_linear_934_7536" x1="16.2898" y1="150.435" x2="16.2898" y2="119.018" gradientUnits="userSpaceOnUse">
<stop stop-color="#BFB0AA"/>
<stop offset="1" stop-color="#FAE7E0"/>
</linearGradient>
<linearGradient id="paint4_linear_934_7536" x1="23.5704" y1="150.439" x2="23.5704" y2="119.022" gradientUnits="userSpaceOnUse">
<stop stop-color="#BFB0AA"/>
<stop offset="1" stop-color="#FAE7E0"/>
</linearGradient>
<linearGradient id="paint5_linear_934_7536" x1="85.7533" y1="139.426" x2="85.7533" y2="92.2848" gradientUnits="userSpaceOnUse">
<stop stop-color="#BFB0AA"/>
<stop offset="1" stop-color="#FAE7E0"/>
</linearGradient>
<linearGradient id="paint6_linear_934_7536" x1="78.4746" y1="139.426" x2="78.4746" y2="92.2799" gradientUnits="userSpaceOnUse">
<stop stop-color="#BFB0AA"/>
<stop offset="1" stop-color="#FAE7E0"/>
</linearGradient>
<linearGradient id="paint7_linear_934_7536" x1="49.5823" y1="155.947" x2="49.5823" y2="151.618" gradientUnits="userSpaceOnUse">
<stop stop-color="white"/>
<stop offset="1" stop-color="#9C9C9C"/>
</linearGradient>
<linearGradient id="paint8_linear_934_7536" x1="37.3014" y1="139.286" x2="37.3014" y2="136.119" gradientUnits="userSpaceOnUse">
<stop stop-color="white"/>
<stop offset="1" stop-color="#9C9C9C"/>
</linearGradient>
</defs>
</svg>
