<svg width="19" height="17" viewBox="0 0 19 17" fill="none" xmlns="http://www.w3.org/2000/svg">
<path fill-rule="evenodd" clip-rule="evenodd" d="M17.9322 0.164842C16.5063 0.785923 14.6639 2.00553 13.0208 3.41626C12.4251 3.92767 11.0591 5.29536 10.5286 5.91144C9.61465 6.97289 8.56238 8.4523 8.06626 9.37329C7.97113 9.54994 7.87713 9.69477 7.85735 9.69508C7.83763 9.69544 7.59859 9.533 7.32613 9.33416C5.54998 8.03768 3.73368 7.32753 2.35668 7.39122C1.68558 7.42221 1.3159 7.55134 0.986023 7.86988C0.627227 8.21639 0.705087 8.27472 1.35391 8.14554C1.60931 8.09467 1.72865 8.09848 2.06916 8.16825C3.52411 8.46635 4.997 9.93413 6.26609 12.3506C6.81182 13.3896 7.56937 15.2677 7.9441 16.5103C8.01971 16.7611 8.09916 16.9464 8.12056 16.9222C8.14202 16.8979 8.26836 16.5189 8.4014 16.08C8.70221 15.0874 9.34112 13.354 9.84368 12.167C11.963 7.16174 15.0601 2.67094 17.9322 0.438596C18.4848 0.0090962 18.4593 0.0323676 18.4092 0.0017847C18.3857 -0.0125285 18.171 0.06084 17.9322 0.164842Z" fill="#186F65"/>
</svg>
