<svg width="36" height="36" viewBox="0 0 36 36" fill="none" xmlns="http://www.w3.org/2000/svg">
<circle cx="18" cy="18.001" r="17.275" fill="#7F886B" stroke="#7F886B" stroke-width="1.45"/>
<path d="M26.5879 10.9233L26.5878 10.9233C26.3359 10.9315 26.1018 11.0462 25.933 11.2351C25.9326 11.2355 25.9321 11.236 25.9317 11.2365L15.4976 22.6277L11.3132 18.0594C11.2277 17.9628 11.1244 17.8842 11.0084 17.8295C10.8916 17.7744 10.7649 17.7449 10.636 17.7434C10.5071 17.742 10.3799 17.7687 10.2619 17.8213C10.144 17.8738 10.0384 17.9509 9.95072 18.0466C9.86305 18.1423 9.79481 18.255 9.74901 18.3775L9.98194 18.4646L9.749 18.3775C9.7032 18.5 9.68046 18.6305 9.68169 18.7617C9.68291 18.8929 9.70808 19.023 9.75619 19.1445L9.98864 19.0525L9.75619 19.1445C9.80398 19.2652 9.87374 19.3758 9.96241 19.4693L14.8223 24.7749L14.8223 24.7749C14.9974 24.966 15.2398 25.078 15.4976 25.078C15.7555 25.078 15.9979 24.966 16.173 24.7749L16.173 24.7749L27.2825 12.6463C27.2829 12.6458 27.2833 12.6454 27.2838 12.6449C27.4177 12.5022 27.507 12.3214 27.543 12.127C27.5791 11.9321 27.5606 11.7296 27.4891 11.5452C27.4176 11.3608 27.2953 11.2005 27.1349 11.0882C26.9741 10.9756 26.7834 10.917 26.5879 10.9233Z" fill="white" stroke="white" stroke-width="0.5"/>
</svg>
