<svg width="26" height="24" viewBox="0 0 30 29" fill="none" xmlns="http://www.w3.org/2000/svg">
<path fill-rule="evenodd" clip-rule="evenodd" d="M28.8606 0.382415C26.4649 1.42587 23.3696 3.4749 20.6092 5.84501C19.6083 6.70422 17.3133 9.00202 16.4221 10.0371C14.8865 11.8204 13.1186 14.3059 12.2851 15.8532C12.1253 16.15 11.9674 16.3933 11.9342 16.3938C11.901 16.3944 11.4994 16.1215 11.0417 15.7875C8.05762 13.6093 5.00611 12.4162 2.69267 12.5232C1.56518 12.5753 0.944093 12.7922 0.389873 13.3274C-0.212928 13.9095 -0.082119 14.0075 1.00795 13.7905C1.43703 13.7051 1.63753 13.7115 2.20961 13.8287C4.65403 14.3295 7.12857 16.7955 9.26074 20.8554C10.1776 22.6009 11.4503 25.7561 12.0799 27.8438C12.2069 28.2652 12.3404 28.5766 12.3764 28.5358C12.4124 28.4951 12.6247 27.8584 12.8482 27.1209C13.3536 25.4532 14.427 22.5411 15.2713 20.5469C18.832 12.1377 24.0352 4.59283 28.8606 0.842338C29.7889 0.120751 29.7462 0.159848 29.662 0.108467C29.6225 0.08442 29.2618 0.207684 28.8606 0.382415Z" fill="white"/>
</svg>
