<svg xmlns="http://www.w3.org/2000/svg" width="17" height="17" viewBox="0 0 17 17" fill="none">
  <path d="M3.56081 4.41406H2.70721C2.25443 4.41406 1.82019 4.59393 1.50003 4.91409C1.17987 5.23425 1 5.66849 1 6.12127V13.8037C1 14.2565 1.17987 14.6907 1.50003 15.0109C1.82019 15.331 2.25443 15.5109 2.70721 15.5109H10.3896C10.8424 15.5109 11.2766 15.331 11.5968 15.0109C11.917 14.6907 12.0968 14.2565 12.0968 13.8037V12.9501" stroke="#30422E" stroke-width="1.10738" stroke-linecap="round" stroke-linejoin="round"/>
  <path d="M11.2448 2.7073L13.8056 5.26811M14.9878 4.06026C15.324 3.72407 15.5129 3.2681 15.5129 2.79266C15.5129 2.31722 15.324 1.86125 14.9878 1.52506C14.6516 1.18887 14.1956 1 13.7202 1C13.2448 1 12.7888 1.18887 12.4526 1.52506L5.26953 8.68252V11.2433H7.83034L14.9878 4.06026Z" stroke="#30422E" stroke-width="1.10738" stroke-linecap="round" stroke-linejoin="round"/>
</svg>