<svg width="22" height="22" viewBox="0 0 21 21" fill="none" xmlns="http://www.w3.org/2000/svg">
<path d="M6.47487 6.4375H5.62127C5.16849 6.4375 4.73425 6.61737 4.41409 6.93753C4.09393 7.25769 3.91406 7.69193 3.91406 8.14471V15.8271C3.91406 16.2799 4.09393 16.7141 4.41409 17.0343C4.73425 17.3545 5.16849 17.5343 5.62127 17.5343H13.3037C13.7565 17.5343 14.1907 17.3545 14.5109 17.0343C14.831 16.7141 15.0109 16.2799 15.0109 15.8271V14.9735" stroke="#30422E" stroke-width="1.10738" stroke-linecap="round" stroke-linejoin="round"/>
<path d="M14.1588 4.73074L16.7196 7.29154M17.9019 6.0837C18.2381 5.74751 18.4269 5.29154 18.4269 4.8161C18.4269 4.34065 18.2381 3.88468 17.9019 3.54849C17.5657 3.21231 17.1097 3.02344 16.6343 3.02344C16.1588 3.02344 15.7029 3.21231 15.3667 3.54849L8.18359 10.706V13.2668H10.7444L17.9019 6.0837Z" stroke="#30422E" stroke-width="1.10738" stroke-linecap="round" stroke-linejoin="round"/>
</svg>
