<svg width="72" height="72" viewBox="0 0 72 72" fill="none" xmlns="http://www.w3.org/2000/svg">
<circle cx="35.7861" cy="36.0009" r="35.7861" fill="#F1F1F5"/>
<path fill-rule="evenodd" clip-rule="evenodd" d="M28.3296 19.5859H40.4792C41.3787 19.5859 42.2301 19.9919 42.7963 20.6908L48.5397 27.7798C48.97 28.3109 49.2048 28.9736 49.2048 29.6571V46.4255C49.2048 49.7195 46.5345 52.3898 43.2404 52.3898H28.3296C25.0356 52.3898 22.3652 49.7195 22.3652 46.4255V25.5503C22.3652 22.2563 25.0356 19.5859 28.3296 19.5859ZM41.1902 23.4488V27.6409H44.5866L41.1902 23.4488ZM28.3296 22.5681C26.6826 22.5681 25.3474 23.9033 25.3474 25.5503V46.4255C25.3474 48.0725 26.6826 49.4077 28.3296 49.4077H43.2404C44.8874 49.4077 46.2226 48.0725 46.2226 46.4255V30.62H41.1902C39.5432 30.62 38.208 29.2848 38.208 27.6378V22.5681H28.3296Z" fill="#B5B5BE"/>
</svg>
