<svg width="29" height="28" viewBox="0 0 29 28" fill="none" xmlns="http://www.w3.org/2000/svg">
<path d="M8.93541 8.875H7.79727C7.19357 8.875 6.61459 9.11482 6.1877 9.54171C5.76082 9.96859 5.521 10.5476 5.521 11.1513V21.3945C5.521 21.9982 5.76082 22.5772 6.1877 23.0041C6.61459 23.431 7.19357 23.6708 7.79727 23.6708H18.0405C18.6442 23.6708 19.2232 23.431 19.6501 23.0041C20.077 22.5772 20.3168 21.9982 20.3168 21.3945V20.2564" stroke="#fff" stroke-width="1.4765" stroke-linecap="round" stroke-linejoin="round"/>
<path d="M19.1789 6.59866L22.5933 10.0131M24.1696 8.40261C24.6179 7.95436 24.8697 7.3464 24.8697 6.71248C24.8697 6.07855 24.6179 5.47059 24.1696 5.02234C23.7214 4.57409 23.1134 4.32227 22.4795 4.32227C21.8456 4.32227 21.2376 4.57409 20.7893 5.02234L11.2119 14.5656V17.98H14.6263L24.1696 8.40261Z" stroke="#fff" stroke-width="1.4765" stroke-linecap="round" stroke-linejoin="round"/>
</svg>
