<svg xmlns="http://www.w3.org/2000/svg" width="153" height="152" viewBox="0 0 153 152" fill="none">
  <mask id="path-1-inside-1_260_10018" fill="white">
    <path fill-rule="evenodd" clip-rule="evenodd" d="M71.7956 0.602132C68.409 1.48545 65.629 3.09049 63.0348 5.6598C57.4526 11.1886 55.8618 19.5382 59.0307 26.6729C59.659 28.0872 60.3728 28.7892 60.3728 27.9925C60.3728 27.3714 63.4811 24.045 65.1684 22.8602C66.4545 21.9569 66.9077 21.47 66.7663 21.1426C65.9458 19.2403 65.6801 18.0293 65.6864 16.2213C65.6965 13.4067 66.5723 11.1734 68.4823 9.09279C72.9338 4.24285 80.1131 4.26458 84.5894 9.1413C87.2715 12.0633 88.1141 16.3555 86.7095 19.9414L86.0684 21.5783L86.7343 22.0247C88.7576 23.381 90.4416 24.9435 91.5523 26.4949C92.2404 27.4562 92.9117 28.2497 93.0441 28.2586C93.4829 28.2878 94.7114 25.0827 95.2204 22.5816C96.4847 16.3683 94.5864 10.2463 89.9699 5.64998C85.1233 0.823855 78.2563 -1.08356 71.7956 0.602132ZM73.9728 11.5698C72.0198 12.7776 71.1329 14.3064 71.1338 16.4638C71.135 20.2959 75.4105 22.9069 78.8353 21.1673C82.8588 19.1233 82.8818 13.5073 78.875 11.4442C77.6738 10.8258 75.0679 10.8925 73.9728 11.5698ZM16.0629 24.6935C9.58039 25.8702 4.23606 29.988 1.65774 35.7927C0.744006 37.8501 -0.00653292 41.4144 4.28837e-05 43.6637C0.00721649 46.011 0.709034 49.1303 1.70676 51.2499L2.53561 53.0103L3.83075 51.2327C4.95192 49.6937 5.85759 48.8541 9.03102 46.4113C9.61028 45.9655 9.61417 45.9089 9.12905 44.9753C8.37941 43.5316 8.0554 41.0266 8.36985 39.1037C8.92341 35.7153 10.9724 32.9047 14.0968 31.2463C15.6872 30.4023 16.3723 30.2234 18.4257 30.116C20.1797 30.0243 21.3137 30.1291 22.4609 30.4886C25.5835 31.4678 28.4249 34.2463 29.4773 37.3501C30.1949 39.4656 30.1217 42.6855 29.315 44.5012C28.9635 45.2923 28.78 46.0259 28.907 46.131C29.0337 46.2363 30.0198 47.0071 31.0979 47.844C32.1761 48.6809 33.6556 50.1857 34.3858 51.1877L35.7135 53.0103L36.5424 51.2499C38.1959 47.7375 38.6266 43.7346 37.7864 39.6852C36.369 32.852 31.5645 27.5026 24.9764 25.4226C22.3171 24.583 18.4257 24.2646 16.0629 24.6935ZM130.465 24.8271C122.702 26.328 117.005 31.8237 115.26 39.4939C114.37 43.4051 114.818 47.6976 116.491 51.2764L117.326 53.0633L118.174 51.7868C119.195 50.2499 121.266 48.2074 123.019 47.0059L124.305 46.1256L123.849 45.0414C121.668 39.8433 123.823 33.9273 128.874 31.2463C130.465 30.4023 131.15 30.2234 133.203 30.116C134.957 30.0243 136.091 30.1291 137.239 30.4886C140.361 31.4678 143.203 34.2463 144.255 37.3501C144.973 39.4656 144.899 42.6855 144.093 44.5012C143.741 45.2923 143.558 46.0259 143.685 46.131C143.811 46.2363 144.797 47.0071 145.876 47.844C146.954 48.6809 148.433 50.1857 149.164 51.1877L150.491 53.0103L151.32 51.2499C155.556 42.2533 151.49 30.9606 142.41 26.5068C138.806 24.7387 134.242 24.0967 130.465 24.8271ZM69.1366 26.7482C67.1393 28.0339 65.3839 29.9202 64.4716 31.7621C63.8681 32.9802 63.8661 33.0356 64.3963 33.6189C65.2497 34.5579 67.5919 35.9579 69.6581 36.7641C73.913 38.4245 79.3075 38.4266 83.4225 36.7698C85.664 35.8671 89.0672 33.6555 89.0672 33.1014C89.0672 31.6565 86.3658 28.3416 83.8903 26.7482L82.1304 25.6158L80.8911 26.2756C79.8372 26.8366 79.1826 26.9354 76.5134 26.9354C73.8442 26.9354 73.1897 26.8366 72.1357 26.2756L70.8965 25.6158L69.1366 26.7482ZM16.8828 35.8856C13.4547 37.6608 12.639 41.7694 15.1833 44.4468C16.3571 45.6822 17.4086 46.1316 19.1246 46.1316C24.801 46.1316 26.5564 38.6629 21.5131 35.9695C20.252 35.2963 18.0964 35.257 16.8828 35.8856ZM131.661 35.8856C128.232 37.6608 127.417 41.7694 129.961 44.4468C131.135 45.6822 132.186 46.1316 133.902 46.1316C139.579 46.1316 141.334 38.6629 136.291 35.9695C135.03 35.2963 132.874 35.257 131.661 35.8856ZM72.1489 44.12C72.2392 44.5688 72.4636 46.7408 72.6483 48.9467C73.3505 57.3403 71.8688 62.8435 68.4377 64.5864C64.5105 66.5813 56.5035 63.626 44.9146 55.9043C43.2351 54.7853 41.7552 53.8695 41.6264 53.8695C41.4973 53.8695 41.0555 54.5038 40.6448 55.2787C40.2341 56.054 39.4609 57.2606 38.9267 57.96C38.3926 58.6594 37.9553 59.2962 37.9553 59.3751C37.9553 59.4537 39.1996 60.1376 40.7201 60.8947C45.4299 63.2393 54.6429 68.1366 59.0278 70.6261C64.9561 73.9925 68.7085 76.5091 70.1992 78.1192C74.1536 82.3909 74.0263 88.0988 69.8937 91.7982C67.8839 93.5975 65.49 94.3452 61.7391 94.3452C58.4993 94.3452 54.286 93.6815 51.0041 92.6544C49.7146 92.2508 48.6126 91.9678 48.5549 92.0252C48.4972 92.0827 48.5737 92.6618 48.725 93.3118C48.8765 93.9621 49.0035 95.0719 49.0074 95.7785C49.0185 97.7704 49.3891 98.2141 51.0426 98.2144C52.9296 98.215 57.0828 98.96 59.4761 99.7272C65.4281 101.635 69.3563 105.069 70.6586 109.503C71.0564 110.858 71.1332 113.004 71.1332 122.781C71.1332 129.468 71.0032 135.125 70.828 136.044C70.1498 139.605 67.9407 142.926 65.001 144.804C62.8429 146.183 61.0361 146.705 57.4268 146.994C53.794 147.285 52.2116 147.878 50.0709 149.755C49.3255 150.408 48.7157 151.039 48.7157 151.156C48.7157 151.274 49.8255 151.208 51.1816 151.011C61.2351 149.551 69.5287 149.66 74.5293 151.319L76.5804 152L78.0785 151.433C82.6098 149.719 91.824 149.555 101.845 151.011C103.202 151.208 104.311 151.278 104.311 151.165C104.311 150.733 101.869 148.793 100.377 148.04C99.1396 147.416 98.1424 147.197 95.6027 146.994C90.9536 146.622 87.958 145.35 85.5124 142.708C84.0143 141.089 82.6292 138.304 82.1988 136.044C82.0237 135.125 81.8936 129.468 81.8936 122.781C81.8936 113.004 81.9705 110.858 82.3683 109.503C84.1955 103.282 91.1802 99.1082 101.173 98.2668L103.564 98.0653L103.77 97.0237C104.1 95.3532 104.539 92.1217 104.449 92.0169C104.404 91.9639 103.312 92.252 102.023 92.6568C96.26 94.4663 88.7881 94.8588 85.7285 93.5127C80.5055 91.2148 78.4781 85.2914 81.2065 80.3001C83.1203 76.7987 88.7268 73.1755 106.777 63.7751C111.339 61.3992 115.072 59.4049 115.072 59.3436C115.072 59.282 114.583 58.5945 113.985 57.8156C113.388 57.0365 112.621 55.8302 112.282 55.1344C111.942 54.4386 111.558 53.8695 111.428 53.8695C111.298 53.8695 109.812 54.7859 108.125 55.9058C96.4088 63.6852 88.5331 66.5899 84.5891 64.5864C81.158 62.8435 79.6764 57.3403 80.3785 48.9467C80.5632 46.7408 80.7877 44.5688 80.878 44.12L81.0418 43.3042H76.5134H71.9851L72.1489 44.12ZM12.3993 50.7949C10.0243 52.0475 6.57077 55.9918 6.57077 57.4519C6.57077 58.2418 10.1988 60.5266 13.0085 61.5063C15.1157 62.2411 15.8164 62.337 19.1246 62.3438C22.0224 62.3498 23.2297 62.2254 24.5048 61.7897C27.9643 60.6069 31.6784 58.3472 31.6784 57.4243C31.6784 56.615 29.3586 53.3713 27.9918 52.2693C27.307 51.7169 26.3024 51.0404 25.7596 50.766C24.8156 50.2886 24.6985 50.2958 23.0695 50.9264C20.7494 51.8246 17.5015 51.8321 15.2389 50.9437C13.3119 50.1875 13.5298 50.1988 12.3993 50.7949ZM127.177 50.7949C124.802 52.0475 121.348 55.9918 121.348 57.4519C121.348 58.2418 124.977 60.5266 127.786 61.5063C129.893 62.2411 130.594 62.337 133.902 62.3438C136.8 62.3498 138.007 62.2254 139.282 61.7897C142.742 60.6069 146.456 58.3472 146.456 57.4243C146.456 56.615 144.136 53.3713 142.769 52.2693C142.085 51.7169 141.08 51.0404 140.537 50.766C139.593 50.2886 139.476 50.2958 137.847 50.9264C135.527 51.8246 132.279 51.8321 130.017 50.9437C128.09 50.1875 128.307 50.1988 127.177 50.7949ZM20.0213 79.4844C12.3389 81.4805 7.02061 87.2884 5.74222 95.0782C5.32316 97.6305 5.32196 98.1954 5.73056 100.685C6.15709 103.283 7.56222 107.143 8.08171 107.143C8.21023 107.143 8.58984 106.7 8.9255 106.16C9.53646 105.175 12.5957 102.16 14.1183 101.041L14.9283 100.446L14.3461 98.8094C12.3237 93.1234 15.4741 86.7375 21.1852 84.9471C25.0213 83.7444 28.9784 84.6346 31.9426 87.367C34.4402 89.6693 35.4009 91.8672 35.383 95.238C35.3728 97.1618 35.2168 98.1058 34.7311 99.1796L34.0923 100.592L34.9029 101.01C36.2265 101.693 38.5743 103.896 39.9236 105.721L41.184 107.426L41.7758 106.168C43.6027 102.286 44.1366 97.5734 43.1917 93.6714C41.8335 88.0628 38.1705 83.451 33.0952 80.9599C28.8272 78.8653 24.3491 78.36 20.0213 79.4844ZM124.539 79.3088C117.51 80.7697 111.483 86.5944 109.846 93.5083C108.938 97.3427 109.398 102.143 111.024 105.803L111.781 107.509L113.074 105.763C114.447 103.909 115.888 102.539 117.758 101.306L118.904 100.551L118.269 99.1594C117.271 96.9728 117.365 93.2877 118.481 90.8565C121.132 85.0783 128.02 82.7751 133.674 85.7756C138.255 88.2071 140.426 93.7505 138.719 98.6621L138.099 100.446L138.909 101.041C140.432 102.161 143.491 105.176 144.101 106.16C144.437 106.7 144.817 107.143 144.945 107.143C145.465 107.143 146.87 103.283 147.296 100.685C147.704 98.1975 147.703 97.6296 147.287 95.091C145.787 85.956 138.535 79.46 129.342 79.0177C127.594 78.9335 125.83 79.0403 124.539 79.3088ZM22.2636 90.3497C20.9159 91.0494 20.2927 91.6919 19.6868 93.0059C17.5542 97.6299 22.3934 102.242 27.0314 100.007C30.7769 98.2014 30.9458 92.711 27.3213 90.5958C25.8711 89.7497 23.6299 89.6405 22.2636 90.3497ZM125.676 90.5869C123.134 92.1407 122.325 95.4353 123.85 98.0264C125.223 100.358 128.411 101.271 130.851 100.031C132.22 99.3353 132.849 98.6594 133.443 97.2457C134.38 95.0121 133.648 92.4122 131.657 90.9C130.055 89.6827 127.384 89.5431 125.676 90.5869ZM17.57 105.359C15.9849 106.208 13.7369 108.554 12.7236 110.415L11.8523 112.016L13.0225 113.025C14.6139 114.398 18.0572 116.003 20.5249 116.524C25.8588 117.649 31.5083 116.438 35.9494 113.218L37.3805 112.18L36.4222 110.39C35.4179 108.513 32.8324 105.909 31.2085 105.138C30.3345 104.723 30.1316 104.739 28.505 105.358C26.3236 106.188 23.1708 106.257 21.2169 105.519C19.15 104.738 18.7611 104.721 17.57 105.359ZM120.982 105.662C119.16 106.864 117.372 108.837 116.433 110.682L115.664 112.193L117.086 113.224C121.518 116.438 127.173 117.648 132.502 116.524C134.97 116.003 138.413 114.398 140.004 113.025L141.175 112.016L140.303 110.411C139.227 108.428 136.753 105.951 135.112 105.214C133.964 104.699 133.813 104.694 132.873 105.14C130.34 106.343 126.944 106.374 124.168 105.219C122.692 104.605 122.557 104.624 120.982 105.662Z"/>
  </mask>
  <path fill-rule="evenodd" clip-rule="evenodd" d="M71.7956 0.602132C68.409 1.48545 65.629 3.09049 63.0348 5.6598C57.4526 11.1886 55.8618 19.5382 59.0307 26.6729C59.659 28.0872 60.3728 28.7892 60.3728 27.9925C60.3728 27.3714 63.4811 24.045 65.1684 22.8602C66.4545 21.9569 66.9077 21.47 66.7663 21.1426C65.9458 19.2403 65.6801 18.0293 65.6864 16.2213C65.6965 13.4067 66.5723 11.1734 68.4823 9.09279C72.9338 4.24285 80.1131 4.26458 84.5894 9.1413C87.2715 12.0633 88.1141 16.3555 86.7095 19.9414L86.0684 21.5783L86.7343 22.0247C88.7576 23.381 90.4416 24.9435 91.5523 26.4949C92.2404 27.4562 92.9117 28.2497 93.0441 28.2586C93.4829 28.2878 94.7114 25.0827 95.2204 22.5816C96.4847 16.3683 94.5864 10.2463 89.9699 5.64998C85.1233 0.823855 78.2563 -1.08356 71.7956 0.602132ZM73.9728 11.5698C72.0198 12.7776 71.1329 14.3064 71.1338 16.4638C71.135 20.2959 75.4105 22.9069 78.8353 21.1673C82.8588 19.1233 82.8818 13.5073 78.875 11.4442C77.6738 10.8258 75.0679 10.8925 73.9728 11.5698ZM16.0629 24.6935C9.58039 25.8702 4.23606 29.988 1.65774 35.7927C0.744006 37.8501 -0.00653292 41.4144 4.28837e-05 43.6637C0.00721649 46.011 0.709034 49.1303 1.70676 51.2499L2.53561 53.0103L3.83075 51.2327C4.95192 49.6937 5.85759 48.8541 9.03102 46.4113C9.61028 45.9655 9.61417 45.9089 9.12905 44.9753C8.37941 43.5316 8.0554 41.0266 8.36985 39.1037C8.92341 35.7153 10.9724 32.9047 14.0968 31.2463C15.6872 30.4023 16.3723 30.2234 18.4257 30.116C20.1797 30.0243 21.3137 30.1291 22.4609 30.4886C25.5835 31.4678 28.4249 34.2463 29.4773 37.3501C30.1949 39.4656 30.1217 42.6855 29.315 44.5012C28.9635 45.2923 28.78 46.0259 28.907 46.131C29.0337 46.2363 30.0198 47.0071 31.0979 47.844C32.1761 48.6809 33.6556 50.1857 34.3858 51.1877L35.7135 53.0103L36.5424 51.2499C38.1959 47.7375 38.6266 43.7346 37.7864 39.6852C36.369 32.852 31.5645 27.5026 24.9764 25.4226C22.3171 24.583 18.4257 24.2646 16.0629 24.6935ZM130.465 24.8271C122.702 26.328 117.005 31.8237 115.26 39.4939C114.37 43.4051 114.818 47.6976 116.491 51.2764L117.326 53.0633L118.174 51.7868C119.195 50.2499 121.266 48.2074 123.019 47.0059L124.305 46.1256L123.849 45.0414C121.668 39.8433 123.823 33.9273 128.874 31.2463C130.465 30.4023 131.15 30.2234 133.203 30.116C134.957 30.0243 136.091 30.1291 137.239 30.4886C140.361 31.4678 143.203 34.2463 144.255 37.3501C144.973 39.4656 144.899 42.6855 144.093 44.5012C143.741 45.2923 143.558 46.0259 143.685 46.131C143.811 46.2363 144.797 47.0071 145.876 47.844C146.954 48.6809 148.433 50.1857 149.164 51.1877L150.491 53.0103L151.32 51.2499C155.556 42.2533 151.49 30.9606 142.41 26.5068C138.806 24.7387 134.242 24.0967 130.465 24.8271ZM69.1366 26.7482C67.1393 28.0339 65.3839 29.9202 64.4716 31.7621C63.8681 32.9802 63.8661 33.0356 64.3963 33.6189C65.2497 34.5579 67.5919 35.9579 69.6581 36.7641C73.913 38.4245 79.3075 38.4266 83.4225 36.7698C85.664 35.8671 89.0672 33.6555 89.0672 33.1014C89.0672 31.6565 86.3658 28.3416 83.8903 26.7482L82.1304 25.6158L80.8911 26.2756C79.8372 26.8366 79.1826 26.9354 76.5134 26.9354C73.8442 26.9354 73.1897 26.8366 72.1357 26.2756L70.8965 25.6158L69.1366 26.7482ZM16.8828 35.8856C13.4547 37.6608 12.639 41.7694 15.1833 44.4468C16.3571 45.6822 17.4086 46.1316 19.1246 46.1316C24.801 46.1316 26.5564 38.6629 21.5131 35.9695C20.252 35.2963 18.0964 35.257 16.8828 35.8856ZM131.661 35.8856C128.232 37.6608 127.417 41.7694 129.961 44.4468C131.135 45.6822 132.186 46.1316 133.902 46.1316C139.579 46.1316 141.334 38.6629 136.291 35.9695C135.03 35.2963 132.874 35.257 131.661 35.8856ZM72.1489 44.12C72.2392 44.5688 72.4636 46.7408 72.6483 48.9467C73.3505 57.3403 71.8688 62.8435 68.4377 64.5864C64.5105 66.5813 56.5035 63.626 44.9146 55.9043C43.2351 54.7853 41.7552 53.8695 41.6264 53.8695C41.4973 53.8695 41.0555 54.5038 40.6448 55.2787C40.2341 56.054 39.4609 57.2606 38.9267 57.96C38.3926 58.6594 37.9553 59.2962 37.9553 59.3751C37.9553 59.4537 39.1996 60.1376 40.7201 60.8947C45.4299 63.2393 54.6429 68.1366 59.0278 70.6261C64.9561 73.9925 68.7085 76.5091 70.1992 78.1192C74.1536 82.3909 74.0263 88.0988 69.8937 91.7982C67.8839 93.5975 65.49 94.3452 61.7391 94.3452C58.4993 94.3452 54.286 93.6815 51.0041 92.6544C49.7146 92.2508 48.6126 91.9678 48.5549 92.0252C48.4972 92.0827 48.5737 92.6618 48.725 93.3118C48.8765 93.9621 49.0035 95.0719 49.0074 95.7785C49.0185 97.7704 49.3891 98.2141 51.0426 98.2144C52.9296 98.215 57.0828 98.96 59.4761 99.7272C65.4281 101.635 69.3563 105.069 70.6586 109.503C71.0564 110.858 71.1332 113.004 71.1332 122.781C71.1332 129.468 71.0032 135.125 70.828 136.044C70.1498 139.605 67.9407 142.926 65.001 144.804C62.8429 146.183 61.0361 146.705 57.4268 146.994C53.794 147.285 52.2116 147.878 50.0709 149.755C49.3255 150.408 48.7157 151.039 48.7157 151.156C48.7157 151.274 49.8255 151.208 51.1816 151.011C61.2351 149.551 69.5287 149.66 74.5293 151.319L76.5804 152L78.0785 151.433C82.6098 149.719 91.824 149.555 101.845 151.011C103.202 151.208 104.311 151.278 104.311 151.165C104.311 150.733 101.869 148.793 100.377 148.04C99.1396 147.416 98.1424 147.197 95.6027 146.994C90.9536 146.622 87.958 145.35 85.5124 142.708C84.0143 141.089 82.6292 138.304 82.1988 136.044C82.0237 135.125 81.8936 129.468 81.8936 122.781C81.8936 113.004 81.9705 110.858 82.3683 109.503C84.1955 103.282 91.1802 99.1082 101.173 98.2668L103.564 98.0653L103.77 97.0237C104.1 95.3532 104.539 92.1217 104.449 92.0169C104.404 91.9639 103.312 92.252 102.023 92.6568C96.26 94.4663 88.7881 94.8588 85.7285 93.5127C80.5055 91.2148 78.4781 85.2914 81.2065 80.3001C83.1203 76.7987 88.7268 73.1755 106.777 63.7751C111.339 61.3992 115.072 59.4049 115.072 59.3436C115.072 59.282 114.583 58.5945 113.985 57.8156C113.388 57.0365 112.621 55.8302 112.282 55.1344C111.942 54.4386 111.558 53.8695 111.428 53.8695C111.298 53.8695 109.812 54.7859 108.125 55.9058C96.4088 63.6852 88.5331 66.5899 84.5891 64.5864C81.158 62.8435 79.6764 57.3403 80.3785 48.9467C80.5632 46.7408 80.7877 44.5688 80.878 44.12L81.0418 43.3042H76.5134H71.9851L72.1489 44.12ZM12.3993 50.7949C10.0243 52.0475 6.57077 55.9918 6.57077 57.4519C6.57077 58.2418 10.1988 60.5266 13.0085 61.5063C15.1157 62.2411 15.8164 62.337 19.1246 62.3438C22.0224 62.3498 23.2297 62.2254 24.5048 61.7897C27.9643 60.6069 31.6784 58.3472 31.6784 57.4243C31.6784 56.615 29.3586 53.3713 27.9918 52.2693C27.307 51.7169 26.3024 51.0404 25.7596 50.766C24.8156 50.2886 24.6985 50.2958 23.0695 50.9264C20.7494 51.8246 17.5015 51.8321 15.2389 50.9437C13.3119 50.1875 13.5298 50.1988 12.3993 50.7949ZM127.177 50.7949C124.802 52.0475 121.348 55.9918 121.348 57.4519C121.348 58.2418 124.977 60.5266 127.786 61.5063C129.893 62.2411 130.594 62.337 133.902 62.3438C136.8 62.3498 138.007 62.2254 139.282 61.7897C142.742 60.6069 146.456 58.3472 146.456 57.4243C146.456 56.615 144.136 53.3713 142.769 52.2693C142.085 51.7169 141.08 51.0404 140.537 50.766C139.593 50.2886 139.476 50.2958 137.847 50.9264C135.527 51.8246 132.279 51.8321 130.017 50.9437C128.09 50.1875 128.307 50.1988 127.177 50.7949ZM20.0213 79.4844C12.3389 81.4805 7.02061 87.2884 5.74222 95.0782C5.32316 97.6305 5.32196 98.1954 5.73056 100.685C6.15709 103.283 7.56222 107.143 8.08171 107.143C8.21023 107.143 8.58984 106.7 8.9255 106.16C9.53646 105.175 12.5957 102.16 14.1183 101.041L14.9283 100.446L14.3461 98.8094C12.3237 93.1234 15.4741 86.7375 21.1852 84.9471C25.0213 83.7444 28.9784 84.6346 31.9426 87.367C34.4402 89.6693 35.4009 91.8672 35.383 95.238C35.3728 97.1618 35.2168 98.1058 34.7311 99.1796L34.0923 100.592L34.9029 101.01C36.2265 101.693 38.5743 103.896 39.9236 105.721L41.184 107.426L41.7758 106.168C43.6027 102.286 44.1366 97.5734 43.1917 93.6714C41.8335 88.0628 38.1705 83.451 33.0952 80.9599C28.8272 78.8653 24.3491 78.36 20.0213 79.4844ZM124.539 79.3088C117.51 80.7697 111.483 86.5944 109.846 93.5083C108.938 97.3427 109.398 102.143 111.024 105.803L111.781 107.509L113.074 105.763C114.447 103.909 115.888 102.539 117.758 101.306L118.904 100.551L118.269 99.1594C117.271 96.9728 117.365 93.2877 118.481 90.8565C121.132 85.0783 128.02 82.7751 133.674 85.7756C138.255 88.2071 140.426 93.7505 138.719 98.6621L138.099 100.446L138.909 101.041C140.432 102.161 143.491 105.176 144.101 106.16C144.437 106.7 144.817 107.143 144.945 107.143C145.465 107.143 146.87 103.283 147.296 100.685C147.704 98.1975 147.703 97.6296 147.287 95.091C145.787 85.956 138.535 79.46 129.342 79.0177C127.594 78.9335 125.83 79.0403 124.539 79.3088ZM22.2636 90.3497C20.9159 91.0494 20.2927 91.6919 19.6868 93.0059C17.5542 97.6299 22.3934 102.242 27.0314 100.007C30.7769 98.2014 30.9458 92.711 27.3213 90.5958C25.8711 89.7497 23.6299 89.6405 22.2636 90.3497ZM125.676 90.5869C123.134 92.1407 122.325 95.4353 123.85 98.0264C125.223 100.358 128.411 101.271 130.851 100.031C132.22 99.3353 132.849 98.6594 133.443 97.2457C134.38 95.0121 133.648 92.4122 131.657 90.9C130.055 89.6827 127.384 89.5431 125.676 90.5869ZM17.57 105.359C15.9849 106.208 13.7369 108.554 12.7236 110.415L11.8523 112.016L13.0225 113.025C14.6139 114.398 18.0572 116.003 20.5249 116.524C25.8588 117.649 31.5083 116.438 35.9494 113.218L37.3805 112.18L36.4222 110.39C35.4179 108.513 32.8324 105.909 31.2085 105.138C30.3345 104.723 30.1316 104.739 28.505 105.358C26.3236 106.188 23.1708 106.257 21.2169 105.519C19.15 104.738 18.7611 104.721 17.57 105.359ZM120.982 105.662C119.16 106.864 117.372 108.837 116.433 110.682L115.664 112.193L117.086 113.224C121.518 116.438 127.173 117.648 132.502 116.524C134.97 116.003 138.413 114.398 140.004 113.025L141.175 112.016L140.303 110.411C139.227 108.428 136.753 105.951 135.112 105.214C133.964 104.699 133.813 104.694 132.873 105.14C130.34 106.343 126.944 106.374 124.168 105.219C122.692 104.605 122.557 104.624 120.982 105.662Z" fill="#30422E" stroke="#30422E" stroke-width="0.2" mask="url(#path-1-inside-1_260_10018)"/>
</svg>