<svg width="39" height="39" viewBox="0 0 39 39" fill="none" xmlns="http://www.w3.org/2000/svg">
<g clip-path="url(#clip0_2499_13107)">
<circle cx="19.2166" cy="19.7166" r="19.2166" fill="white"/>
<path fill-rule="evenodd" clip-rule="evenodd" d="M16.0854 8.42123C14.6402 8.71316 14.3758 8.8471 14.0404 9.4572C13.8821 9.74585 13.614 9.98184 13.4448 9.98184C12.7831 9.98184 11.7096 10.7423 11.3894 11.438C10.8802 12.5444 10.7426 15.6034 11.124 17.3361C11.5024 19.0554 11.4982 18.9111 11.1695 18.9111C10.4903 18.9111 10.5105 20.0602 11.2223 21.9194C12.0102 23.9771 12.016 23.9878 12.4207 24.1087C12.6445 24.1755 12.87 24.5128 13.0038 24.9803C13.1238 25.3996 13.3871 26.0474 13.5888 26.4199C13.813 26.8332 13.9558 27.4743 13.9558 28.066C13.9558 29.0174 14.6896 30.7201 13.5932 31.6286C12.2427 32.7476 11.8137 32.9628 8.71218 34.0772C7.35587 34.5645 8.71218 33.9469 8.71218 34.0772C8.71218 34.405 8.61648 35.6386 10.1321 36.4884C11.7039 37.3696 13.4026 38.2931 15.515 38.696C17.6488 39.1029 21.3393 38.9744 23.5387 38.4166C26.3892 37.6937 29.2483 36.1564 31.6098 34.0772C32.1218 33.6263 30.6984 34.8096 31.0956 33.1272C30.5942 34.313 30.6566 33.7472 28.9663 33.1272C26.3971 32.1847 25.7784 31.8831 25.1936 31.2881C24.8087 30.8965 24.3404 30.4955 24.1528 30.3967C23.6293 30.121 24.2194 27.4433 24.8507 25.9869C25.1407 25.3185 25.3778 24.6009 25.3778 24.3924C25.3778 24.1365 25.5019 24.0135 25.7606 24.0135C26.2595 24.0135 26.6331 23.4315 26.9305 22.1912C27.0627 21.64 27.2981 20.7965 27.4537 20.3166C27.7664 19.3534 27.6862 18.9111 27.1988 18.9111C26.9399 18.9111 26.9028 18.797 27.0056 18.3189C27.4801 16.1139 27.2323 14.1773 26.2395 12.3333C25.6131 11.1694 24.3731 9.99186 23.222 9.46722C22.2827 9.03917 19.7964 8.524 18.6704 8.524C18.2718 8.524 18.047 8.44984 18.1181 8.34177C18.2701 8.11016 17.4709 8.1415 16.0854 8.42123Z" fill="#F9F9F9"/>
<path fill-rule="evenodd" clip-rule="evenodd" d="M19.0049 6.2334C16.1048 6.6313 13.0124 8.19705 11.6837 9.9402C10.7936 11.1078 10.2512 12.5782 9.90139 14.7717C9.56792 16.8629 9.47217 18.3076 9.358 22.9653C9.21548 28.7788 9.03751 31.6346 8.80164 31.8926C8.7529 31.946 8.34277 32.1505 7.89034 32.3474C6.9679 32.7484 6.45073 33.4545 6.29022 33.7544C6.06514 34.175 9.3699 36.5233 11.5311 37.535C17.684 40.4152 26.7611 39.2106 32.3466 34.0144C32.9029 33.497 32.9213 33.4624 32.7451 33.2678C32.4464 32.9378 31.7256 32.6523 30.5623 32.403C29.9634 32.2747 29.1354 32.0643 28.7222 31.9354L27.971 31.7011L28.0371 29.6765C28.0735 28.5629 28.1824 26.4497 28.2792 24.9803C28.4931 21.7332 28.5243 16.7454 28.3405 15.1665C28.0486 12.6574 27.4827 10.662 26.6837 9.3252C26.1624 8.45297 25.1252 7.43484 24.3279 7.01284C23.0055 6.3129 20.7899 5.98849 19.0049 6.2334ZM23.054 11.8632C22.6881 13.3461 22.1778 13.7503 19.786 14.4518C18.9365 14.701 17.9543 15.037 17.6032 15.1985C16.081 15.8984 14.3855 17.3408 13.3044 18.8557L12.7892 19.5778L12.6919 19.1168C12.6066 18.7126 12.5583 18.6559 12.2999 18.6559C11.7926 18.6559 11.5952 19.0044 11.5511 19.9778C11.5168 20.731 11.5477 20.9146 11.7918 21.4137C12.1438 22.1331 12.45 22.4645 12.8338 22.5413C13.0963 22.5937 13.1659 22.7004 13.3834 23.382C13.6582 24.243 14.1744 25.242 14.8488 26.2179C15.2261 26.7638 15.2891 26.9365 15.2866 27.4173C15.2833 28.0624 15.0565 28.57 14.5214 29.1291L14.1513 29.5159L14.4618 30.0014C15.1747 31.1163 16.5049 32.0153 17.9417 32.3536C20.1171 32.8655 22.6761 31.7654 23.8099 29.8307L24.0971 29.3407L23.7518 28.9476C23.3009 28.4341 23.2032 28.1539 23.2032 27.3744C23.2032 26.7906 23.2445 26.675 23.6392 26.1547C24.164 25.4629 24.7407 24.317 25.0642 23.3231C25.2675 22.699 25.3454 22.5833 25.6004 22.5273C25.9439 22.4519 26.3608 22.0409 26.6515 21.491C26.9465 20.933 26.9446 19.2132 26.6486 18.8857C26.3221 18.5246 26.0115 18.5912 25.8122 19.0653L25.6405 19.4737L25.5597 18.8194C25.4289 17.7604 24.964 15.7907 24.5495 14.5387C24.2133 13.5236 23.3454 11.24 23.2643 11.1572C23.2485 11.1411 23.1539 11.4588 23.054 11.8632Z" fill="#B6B6B6"/>
<circle cx="19.2166" cy="19.7166" r="18.8672" stroke="#EE4BA8" stroke-width="0.698786"/>
</g>
<defs>
<clipPath id="clip0_2499_13107">
<rect width="38.4333" height="38.4333" fill="white" transform="translate(0 0.5)"/>
</clipPath>
</defs>
</svg>
