<svg width="105" height="105" viewBox="0 0 105 105" fill="none" xmlns="http://www.w3.org/2000/svg">
<circle cx="52.3501" cy="52.6001" r="48.7095" fill="white"/>
<path fill-rule="evenodd" clip-rule="evenodd" d="M45.0158 29.6551C45.0158 30.04 44.7303 30.8455 44.2056 31.941C43.5701 33.2681 43.3814 33.8455 43.3299 34.6218C43.2559 35.7359 43.5204 37.0551 43.8178 37.0551C44.0601 37.0551 45.0627 35.9309 45.3359 35.3529C45.4462 35.1192 45.6241 34.5827 45.7312 34.1606C45.9065 33.4683 45.927 33.4446 45.9397 33.9196C45.9592 34.6581 45.6128 35.8195 45.1188 36.6718C44.8881 37.07 44.774 37.3957 44.8652 37.3957C45.2052 37.3957 45.922 36.8837 46.3828 36.3119C47.6465 34.7435 47.4679 32.3269 45.9126 29.954C45.2769 28.984 45.0158 28.897 45.0158 29.6551ZM62.6782 29.8433C62.6782 30.0143 62.4251 30.5544 62.116 31.0437C61.3455 32.2624 61.1853 33.1308 61.5162 34.2933C61.6241 34.6728 62.4842 34.0513 62.8253 33.3475C62.9947 32.9978 63.1363 32.8309 63.1402 32.9765C63.144 33.1222 62.9377 33.6013 62.6816 34.041C62.1583 34.9402 62.3143 35.0742 63.1609 34.4525C63.9035 33.9072 64.114 33.3911 64.026 32.332C63.9164 31.0144 62.6782 28.728 62.6782 29.8433ZM51.1116 30.6511C51.1116 30.7823 50.9364 31.2997 50.7224 31.8008C50.299 32.7917 50.2491 33.224 50.4814 33.8898C50.6604 34.4026 50.9311 34.3376 51.3248 33.6871C51.5809 33.2646 51.5823 33.3933 51.3294 34.0744C51.1803 34.4759 51.5548 34.3735 51.9968 33.8918C52.3522 33.5045 52.3908 33.3478 52.3296 32.5415C52.28 31.8909 52.1379 31.4549 51.8342 31.0209C51.3902 30.3865 51.1116 30.2439 51.1116 30.6511ZM56.7228 31.1187C55.5676 31.995 54.893 33.4267 55.1591 34.4379C55.3181 35.042 55.7778 35.8628 55.9571 35.8628C56.0232 35.8628 56.0531 35.3454 56.0234 34.7131C55.9719 33.6197 55.976 33.6035 56.1079 34.3832C56.1842 34.8341 56.3525 35.3793 56.4821 35.5947C56.6981 35.9538 56.6859 36.0549 56.3374 36.8052C56.1282 37.2554 55.9571 37.9174 55.9571 38.2761C55.9571 38.8252 56.009 38.9286 56.2852 38.9286C56.8118 38.9286 57.6374 38.426 58.1444 37.7966C58.4028 37.4759 58.6143 37.2751 58.6143 37.3502C58.6143 37.6767 57.7969 38.7545 57.2908 39.0953C56.6136 39.5516 56.5873 39.7802 57.2125 39.7802C57.8417 39.7802 58.7185 39.3682 59.1082 38.8894C59.363 38.5765 59.3552 38.6164 59.068 39.0989C58.4791 40.088 57.6785 40.9948 56.275 42.2625C55.5413 42.925 54.7439 43.7495 54.5027 44.0943C53.4557 45.5916 52.6917 48.2074 52.4032 51.2825L52.2758 52.6395L51.8231 51.873C50.9458 50.3876 50.7914 49.2554 51.2031 47.3275C51.4902 45.9831 51.4238 45.2661 50.9444 44.5325C50.6182 44.0333 49.4708 43.0163 49.2338 43.0163C49.1724 43.0163 49.2885 43.3742 49.4917 43.8115C49.9584 44.8163 49.9786 46.1501 49.5494 47.6397C49.3778 48.235 49.1835 48.8122 49.1175 48.9222C49.0414 49.0493 48.5836 48.4577 47.8649 47.3041C46.0299 44.3584 44.2052 42.4415 41.4411 40.555C39.5173 39.2422 37.7527 38.2132 37.6385 38.3377C37.6008 38.3788 37.2962 38.2604 36.9614 38.0744C36.6267 37.8884 36.0337 37.7285 35.6436 37.719L34.9341 37.7016L35.4358 37.526C35.8116 37.3945 36.1745 37.4155 36.8817 37.6095C37.9375 37.8993 38.0457 37.7794 37.3815 37.0557C36.0145 35.5663 33.5264 36.3228 32.0376 38.6808C31.7824 39.0851 31.5736 39.4499 31.5736 39.4918C31.5736 39.5337 31.8724 39.5332 32.2379 39.4905C32.6033 39.4479 33.3214 39.5339 33.8337 39.6818C35.1912 40.0733 36.0618 40.0261 37.0136 39.5096C37.4603 39.2668 37.8257 38.9582 37.8257 38.8237C37.8257 38.654 38.0605 38.7511 38.5909 39.1405C40.2535 40.3605 43.0349 43.1289 42.8774 43.4069C42.8234 43.5021 42.8533 43.53 42.9439 43.469C43.2792 43.2432 46.2377 47.283 47.6632 49.9128C48.35 51.18 49.2036 53.0411 49.5691 54.0686C49.7036 54.4469 49.6929 54.459 49.4175 54.239C45.982 51.4942 44.5412 50.7044 42.4497 50.4197C41.3065 50.264 41.324 50.5394 42.4758 50.8303C44.1727 51.2588 45.5977 52.167 47.0521 53.7466C48.5679 55.3927 49.3257 56.7876 49.8784 58.949C50.4534 61.1973 50.309 64.1208 49.5462 65.6738C49.3874 65.9971 49.4259 66.1167 49.8378 66.5815C50.0986 66.876 50.5211 67.615 50.7764 68.2239C51.4472 69.8241 51.5393 70.3764 50.9155 69.0576C49.4043 65.8634 47.1318 63.9156 43.74 62.9071C42.5871 62.5644 42.0761 62.5198 39.3106 62.5196C36.9375 62.5195 35.8082 62.5953 34.6215 62.8342C29.4009 63.8858 23.2117 66.2037 17.5061 69.2441C15.5739 70.2737 15.9798 70.2046 18.2095 69.1242C23.5401 66.5413 28.1747 64.9178 32.7458 64.0318C34.9235 63.6097 39.7542 63.6003 41.46 64.0151C45.449 64.9847 48.4726 67.3156 50.013 70.6084C50.262 71.141 50.103 70.955 49.2444 69.7094C48.0124 67.9222 46.108 66.5139 43.7772 65.6662C39.3369 64.0513 33.6161 64.766 26.5216 67.8219C24.2569 68.7975 21.6018 70.1541 21.3356 70.472C21.1416 70.7036 21.1061 70.7184 23.7583 69.4483C34.34 64.3807 42.3761 64.2821 46.9036 69.1646C47.3831 69.6817 47.938 70.4198 48.1367 70.8051L48.4978 71.5053L47.6729 70.7947C46.5971 69.8682 44.6106 68.829 43.0535 68.3787C41.3262 67.8792 38.3573 67.7569 36.4831 68.1082C34.9658 68.3927 31.3711 69.59 31.6812 69.7077C31.7833 69.7464 32.4195 69.588 33.0949 69.3555C34.8827 68.7401 36.1155 68.5359 38.0564 68.5334C41.148 68.5293 43.5887 69.2627 45.879 70.8838L46.8133 71.5451L32.4332 71.6317C18.7345 71.7141 17.7928 71.7417 23.7583 71.8868C34.6365 72.1513 38.1122 72.3114 42.4367 72.7471C46.554 73.1618 50.1155 73.8745 49.9072 74.242C49.8553 74.3333 49.8917 74.3549 49.988 74.2902C50.1968 74.1495 51.2378 74.6997 51.6087 75.1466C51.7533 75.3207 51.948 75.6829 52.0418 75.9515L52.2122 76.4397L52.5723 75.6957C53.1105 74.5842 54.1577 74.0225 56.801 73.4277C60.8344 72.5201 72.1034 71.8006 82.2841 71.8006C84.6839 71.8006 86.5928 71.7337 86.5928 71.6497C86.5928 71.5632 80.4971 71.4867 72.3352 71.4707C64.4934 71.4552 58.0552 71.4186 58.0281 71.389C57.9529 71.307 60.0073 69.9867 60.8025 69.6059C62.6205 68.7352 63.875 68.4933 66.5858 68.4908C68.9019 68.4887 69.3296 68.5359 70.7809 68.9544C71.6696 69.2107 72.5373 69.5023 72.7089 69.6023C72.8807 69.7024 73.061 69.7408 73.1098 69.6876C73.22 69.5675 72.4103 69.1937 71.0128 68.7193C70.4262 68.5202 69.8408 68.3176 69.7119 68.2688C69.5829 68.22 69.3368 68.1641 69.1648 68.1445C68.9929 68.1251 68.1488 68.0125 67.2892 67.8945C63.666 67.397 60.1073 68.3409 57.2338 70.5619L56.2441 71.3268L56.5129 70.7547C56.9943 69.7305 58.9136 67.8553 60.2825 67.0718C62.103 66.0298 63.5607 65.6568 66.254 65.5442C70.5536 65.3645 75.1857 66.551 80.8877 69.2926C83.2684 70.4374 83.3468 70.4697 83.2269 70.2582C83.0609 69.9658 80.0999 68.4911 77.6053 67.4588C73.6975 65.8416 71.143 65.1487 67.8044 64.7999C62.362 64.2315 57.4754 66.2965 55.076 70.179C54.4808 71.1422 54.3765 71.1253 54.895 70.1497C57.4637 65.3163 62.6507 62.9696 69.3507 63.6099C74.6864 64.1198 80.5049 65.9932 87.2004 69.357C87.8354 69.6762 88.3878 69.9014 88.4278 69.8578C88.6204 69.6481 81.6036 66.3371 78.5431 65.1935C72.9935 63.12 69.4293 62.356 65.3354 62.3626C63.0432 62.3662 62.3721 62.4284 61.1933 62.7458C57.8013 63.6593 55.2561 65.7994 53.8679 68.9052C53.0686 70.6934 53.0028 70.7671 53.439 69.3853C53.8234 68.168 54.1038 67.5894 54.7721 66.6355L55.32 65.8533L55.0194 65.1131C54.0052 62.6147 54.3237 58.0128 55.7505 54.5535C56.3122 53.1913 57.4556 51.1917 57.6727 51.1917C57.7316 51.1917 57.874 51.0003 57.9889 50.7663C58.1039 50.5321 58.2212 50.3658 58.2494 50.3967C58.2777 50.4277 58.6018 50.14 58.9695 49.7578C59.724 48.9733 61.0203 48.2326 62.2276 47.8958C62.6751 47.7712 62.977 47.6257 62.8986 47.5729C62.8201 47.5201 62.1164 47.4224 61.3349 47.3558C59.1112 47.1662 57.5476 47.7865 55.8533 49.5309C54.9111 50.5009 54.8851 50.4643 55.0404 48.3855C55.2353 45.7787 55.8782 44.4928 58.2723 41.9222C60.0984 39.9612 60.6092 38.9645 60.7544 37.0782C60.8718 35.5513 60.6287 35.3992 60.1765 36.7166C59.9841 37.2775 59.8162 37.7363 59.8036 37.7363C59.7909 37.7363 59.8023 37.1806 59.8291 36.5015C59.88 35.21 59.599 33.6343 59.2984 33.527C59.202 33.4926 59.0886 33.6071 59.0469 33.7816C59.005 33.9561 58.5517 34.4461 58.0395 34.8705L57.1084 35.6421L57.4043 35.0286C57.6542 34.5101 57.6814 34.2303 57.5802 33.2228C57.5142 32.5671 57.4648 31.7047 57.4706 31.3067C57.4762 30.9087 57.4692 30.5828 57.4551 30.5828C57.4409 30.5828 57.1114 30.824 56.7228 31.1187ZM39.7574 32.6468C39.1496 33.769 38.8555 34.8775 38.8555 36.0449C38.8555 37.0363 38.9138 37.2698 39.2991 37.8201C39.7499 38.4641 40.5134 38.9286 41.1213 38.9286C41.4259 38.9286 41.404 38.8645 40.8849 38.2384C40.2974 37.5297 40.0065 36.9105 40.0239 36.4053C40.0304 36.2181 40.0878 36.2663 40.1892 36.5441C40.4993 37.3943 41.8373 38.5782 42.2068 38.3294C42.4111 38.1918 42.4002 36.345 42.1915 35.7461C42.0996 35.4825 41.6746 34.8284 41.2471 34.2926C40.8196 33.7569 40.3804 33.0367 40.271 32.6923L40.0718 32.0658L39.7574 32.6468ZM48.1515 35.2709C47.6195 36.4487 47.4041 37.7954 47.5823 38.8303C47.7205 39.6337 48.4884 40.5763 49.1253 40.7246C49.401 40.7888 49.7147 40.9186 49.8221 41.013C50.2112 41.3545 50.023 40.6967 49.6119 40.2782C49.1436 39.8015 48.853 39.2287 48.7111 38.5028C48.6122 37.9969 48.6142 37.9978 48.9088 38.5912C49.4625 39.7061 50.5707 40.5976 50.9236 40.2118C51.1362 39.9793 51.0211 37.9986 50.7648 37.4809C50.6257 37.1998 50.1858 36.5564 49.7873 36.051C49.3889 35.5457 49.0226 34.9133 48.9735 34.6459C48.9245 34.3785 48.8324 34.1596 48.7689 34.1596C48.7056 34.1596 48.4277 34.6597 48.1515 35.2709ZM53.4712 35.8354C52.1267 37.3187 51.7014 38.9151 52.3161 40.1719C52.4627 40.4717 52.5682 40.7744 52.5506 40.8447C52.5329 40.9149 52.5712 40.9561 52.6356 40.9363C52.7002 40.9164 52.9171 40.9992 53.118 41.1205C53.5983 41.4103 53.6855 41.2824 53.4117 40.6902C53.1281 40.0771 52.9598 38.9286 53.1534 38.9286C53.2339 38.9286 53.2999 39.087 53.2999 39.2805C53.2999 39.8734 54.0695 41.1428 54.4289 41.1428C54.6635 41.1428 55.1685 39.7262 55.1721 39.0582C55.174 38.7079 55.0297 38.0181 54.8514 37.5253C54.6732 37.0324 54.4752 36.246 54.4114 35.7776L54.2954 34.926L53.4712 35.8354ZM64.9446 35.4079C64.1532 35.8018 63.5436 36.4729 63.154 37.3797C62.9491 37.8564 62.8262 38.295 62.8809 38.3546C62.9356 38.4142 63.2307 38.2233 63.5369 37.9303C64.2128 37.2838 65.0696 36.796 65.8043 36.6395C66.2902 36.5359 66.2563 36.5765 65.4992 37.0019C65.0306 37.2654 64.5318 37.5514 64.3907 37.6374C64.0816 37.8261 63.2343 39.4212 63.3666 39.5653C63.418 39.6213 63.8292 39.6996 64.2805 39.7393C65.4415 39.8415 66.6383 39.3064 68.0313 38.0622C68.6546 37.5052 69.4338 36.9697 69.7625 36.872C70.5217 36.6465 70.3768 36.4235 69.0453 35.7678C67.8813 35.1946 65.7493 35.0074 64.9446 35.4079ZM44.4767 37.8523C44.547 38.0227 44.647 38.9286 44.6988 39.8654C44.7507 40.8021 44.8723 41.7219 44.9692 41.9092C45.2569 42.4662 46.0718 43.2324 46.2493 43.1129C46.5086 42.9381 46.7446 41.7575 46.647 41.1232C46.5691 40.6192 46.5821 40.5884 46.7496 40.8781C46.855 41.0603 46.9374 41.6571 46.9327 42.2042C46.9253 43.0579 46.9564 43.1696 47.1524 42.9923C47.541 42.6407 47.8292 41.8711 47.8292 41.1845C47.8292 39.8742 46.785 38.651 44.9557 37.8186C44.3766 37.5551 44.3546 37.5567 44.4767 37.8523ZM61.1933 40.2143C60.9354 40.3584 60.6365 40.6025 60.529 40.7568C60.2958 41.092 60.2628 42.0622 60.4899 41.9092C60.5759 41.8513 60.6462 41.9235 60.6462 42.0695C60.6462 42.4103 61.1031 42.4103 61.5495 42.0697C61.7408 41.9237 61.985 41.8593 62.0924 41.9266C62.1996 41.9939 62.2368 41.9879 62.1749 41.9131C62.0536 41.767 62.568 40.8571 62.9752 40.4974C63.194 40.3039 63.1959 40.2585 62.99 40.1168C62.6343 39.8717 61.7178 39.9216 61.1933 40.2143ZM37.4566 41.145C36.7204 41.8493 36.3984 42.8162 36.3929 44.3383C36.3904 45.0292 36.4245 45.634 36.4687 45.6822C36.5131 45.7304 36.6889 45.6176 36.8596 45.4316C37.0303 45.2456 37.6327 44.8529 38.1984 44.5587C38.7995 44.246 39.3811 43.7969 39.5987 43.4775C40.0196 42.8594 40.3657 41.8605 40.2374 41.6341C40.0004 41.2163 38.5919 41.6694 37.9849 42.3589C37.689 42.6949 37.6572 42.7046 37.792 42.4183C38.026 41.9208 38.4607 41.5328 39.121 41.2322C39.9435 40.8577 39.8407 40.6318 38.8472 40.6318C38.1201 40.6318 37.9131 40.7081 37.4566 41.145ZM68.1093 40.8692C67.9586 40.9939 67.3004 41.1487 66.6466 41.2133C65.1051 41.3656 64.3599 41.704 63.6906 42.5561C63.3917 42.9366 63.1471 43.2985 63.1471 43.3602C63.1471 43.5797 63.9527 43.8679 64.5662 43.8679C64.9088 43.8679 65.4331 43.7569 65.7311 43.6211C66.4644 43.2873 66.4182 43.4397 65.6581 43.8623C65.3199 44.0503 64.7045 44.2242 64.2905 44.2489C63.8766 44.2736 63.5477 44.367 63.5596 44.4565C63.5974 44.7383 64.6048 45.2305 65.1437 45.2305C65.74 45.2305 66.7348 44.7212 67.2235 44.1658C67.6659 43.6632 68.6178 41.5153 68.6178 41.0198C68.6178 40.579 68.5018 40.5446 68.1093 40.8692ZM51.8109 42.4815C51.1191 43.6206 51.1015 44.8897 51.7683 45.5664C52.2506 46.0562 52.5883 46.0341 52.3449 45.5285C52.1658 45.1567 52.1694 45.1542 52.4688 45.4434C52.9318 45.8905 53.1178 45.8086 53.2391 45.1046C53.3154 44.6616 53.2652 44.2339 53.0745 43.6995C52.9237 43.2769 52.7195 42.682 52.6211 42.3776C52.5224 42.0732 52.3897 41.8241 52.326 41.8241C52.2624 41.8241 52.0306 42.1199 51.8109 42.4815ZM61.4277 43.1156C61.2128 43.2456 60.7286 43.353 60.3517 43.3544C59.9749 43.3558 59.3994 43.4442 59.0729 43.5508C58.3731 43.7792 57.2808 44.9195 57.4101 45.2867C57.5294 45.6251 58.6016 45.8029 59.151 45.5754C59.3955 45.4742 59.6306 45.4296 59.6735 45.4764C59.7961 45.61 58.9172 45.9412 58.1824 46.0387C57.3591 46.1477 57.504 46.4485 58.5308 46.7617C59.1562 46.9526 59.2917 46.9366 59.9388 46.5953C60.7738 46.1548 61.331 45.4238 61.7519 44.2167C62.2258 42.8576 62.1697 42.667 61.4277 43.1156ZM47.8292 44.5904C47.8292 45.442 47.9061 45.9557 48.0726 46.2144C48.3902 46.7087 48.5123 46.692 48.731 46.1247C48.8532 45.8077 48.8848 45.7801 48.8288 46.0395C48.7833 46.2502 48.8186 46.4227 48.9073 46.4227C49.1345 46.4227 49.3923 45.8435 49.3923 45.3328C49.3923 44.8902 48.6434 43.8197 48.1204 43.5148C47.8488 43.3563 47.8292 43.4283 47.8292 44.5904ZM72.4332 43.6918C72.355 43.7747 71.7714 43.9202 71.1361 44.0149C70.1558 44.1612 69.9021 44.2709 69.4559 44.7422C68.6726 45.5696 68.8045 45.9118 69.907 45.9118C70.1722 45.9118 70.347 45.9578 70.2954 46.014C70.2438 46.0702 69.9507 46.1162 69.6442 46.1162C69.3375 46.1162 69.0867 46.1831 69.0867 46.265C69.0867 46.4561 69.9295 46.9337 70.2666 46.9337C71.1341 46.9337 72.1237 45.8651 72.5887 44.4259C72.8114 43.7371 72.734 43.3726 72.4332 43.6918ZM40.3657 44.1173C39.524 44.5443 39.2989 44.8898 39.8626 44.8898C40.0373 44.8898 40.2169 44.9944 40.2619 45.1222C40.3069 45.2501 40.7092 45.5555 41.1558 45.8009C41.7832 46.1458 42.101 46.2233 42.554 46.1424C42.8764 46.0846 43.1401 45.9659 43.1401 45.8782C43.1401 45.5388 42.8009 45.0556 42.3937 44.8147C42.1594 44.6763 42.046 44.5598 42.1413 44.556C42.2368 44.5523 42.571 44.7384 42.8838 44.9699C43.4355 45.3778 43.4527 45.38 43.4527 45.0419C43.4527 44.8502 43.2472 44.4693 42.9958 44.1954C42.408 43.5549 41.5259 43.5286 40.3657 44.1173ZM70.6497 45.7414C70.5089 45.8406 70.4895 45.9075 70.6014 45.9092C70.7038 45.9106 70.831 45.8351 70.8842 45.7414C71.0041 45.5299 70.95 45.5299 70.6497 45.7414ZM65.1148 46.2817C64.7786 46.3626 64.2511 46.5999 63.9425 46.809L63.3816 47.1892L64.6545 47.3041C65.4507 47.3762 66.1638 47.5506 66.5586 47.7701C67.478 48.2813 67.4933 48.486 66.5841 48.1096C65.6111 47.7066 64.5095 47.7012 63.7045 48.0953L63.0896 48.3962L63.6793 49.1077C64.5937 50.2105 65.6294 50.6751 67.6205 50.8763C69.3757 51.0534 70.3354 51.3571 70.3395 51.7366C70.3413 51.9071 70.3737 51.9035 70.4797 51.7209C70.6447 51.437 70.1975 49.9252 69.6441 48.8961C69.1778 48.0292 67.9886 46.8129 67.3189 46.5178C66.593 46.1979 65.8108 46.1141 65.1148 46.2817ZM38.4757 48.2024C38.5196 49.1501 38.6166 49.5921 38.8595 49.9482C39.316 50.6179 39.873 50.9265 40.3765 50.7889C40.8163 50.6687 40.9578 50.3401 40.5698 50.3401C40.4456 50.3401 40.1784 50.1678 39.976 49.9569C39.7736 49.746 39.7169 49.6604 39.85 49.7665C40.2097 50.0528 40.7196 50.1909 40.9939 50.0761C41.1843 49.9966 41.2068 49.8631 41.0988 49.4528C40.9128 48.7461 40.5456 48.3373 39.655 47.8451C39.2426 47.6172 38.8658 47.319 38.8177 47.1822C38.7695 47.0456 38.6596 46.9337 38.5735 46.9337C38.4775 46.9337 38.4396 47.4256 38.4757 48.2024ZM45.1499 48.5136C44.755 48.7129 43.609 49.7386 43.609 49.8925C43.609 50.0693 44.6564 50.3401 45.3404 50.3401C45.9611 50.3401 46.1419 50.2643 46.4111 49.8913C46.7282 49.4521 46.8408 48.9776 46.6279 48.9776C46.569 48.9776 46.3409 49.1499 46.1211 49.3608C45.7359 49.73 45.7318 49.7305 46.0075 49.3734C46.5927 48.6155 46.0419 48.0631 45.1499 48.5136ZM60.8025 50.2294C60.8025 50.6915 61.5104 51.8216 62.1353 52.3572C62.7807 52.9104 62.3499 52.7985 61.6219 52.2241C61.2732 51.9486 60.8605 51.4888 60.7052 51.2021C60.5496 50.9153 60.3583 50.6808 60.28 50.6808C60.0421 50.6808 60.3206 52.0951 60.6581 52.6005C60.8313 52.8602 60.9312 53.1467 60.8797 53.2373C60.8283 53.3279 60.8841 53.3611 61.0038 53.311C61.1234 53.261 61.3122 53.3393 61.4232 53.4851C61.9651 54.1967 64.1057 54.4178 65.4624 53.9024C66.0322 53.6861 66.0997 53.4769 65.6498 53.3214C65.479 53.2623 64.9047 52.6347 64.3739 51.9267C63.3376 50.5449 62.2988 49.8341 61.3105 49.8309C60.8811 49.8295 60.8025 49.891 60.8025 50.2294ZM37.0886 51.2561L36.5125 51.8316L37.3163 51.9521C37.7584 52.0183 38.2571 52.0251 38.4245 51.9672C38.8459 51.8216 38.963 51.0585 38.597 50.8451C38.0972 50.5537 37.6776 50.6682 37.0886 51.2561ZM40.0731 51.3593C39.5573 51.5864 39.0762 52.8478 39.0762 53.9731V54.9436L39.6623 54.5532C39.9848 54.3386 40.4579 54.048 40.7138 53.9077C41.2448 53.6168 41.9233 52.6149 41.8542 52.2242C41.7884 51.8514 41.344 51.8049 40.7799 52.1115C40.4134 52.3107 40.3383 52.3182 40.4725 52.1423C40.5698 52.0144 40.8631 51.8134 41.1239 51.6955C41.4689 51.5399 41.542 51.4428 41.3921 51.3392C41.1324 51.1597 40.505 51.1693 40.0731 51.3593ZM43.609 52.3818C43.609 52.4741 43.8466 52.6579 44.137 52.7902C44.4274 52.9224 44.7164 53.1213 44.7794 53.2324C44.8477 53.3526 44.7008 53.3254 44.4155 53.1646C43.8769 52.8611 43.3605 52.8146 43.2228 53.0573C43.1721 53.1465 43.2559 53.5107 43.4089 53.8663C43.6173 54.3509 43.8994 54.6302 44.5331 54.9799C44.9983 55.2367 45.5081 55.5743 45.6663 55.7301C45.8243 55.886 45.9587 55.9825 45.9652 55.9446C45.9716 55.9066 46.0086 55.6867 46.0475 55.4559C46.1752 54.6975 45.8037 53.2792 45.334 52.7311C44.9793 52.3176 44.7618 52.2137 44.2497 52.2137C43.8972 52.2137 43.609 52.2893 43.609 52.3818ZM58.1454 52.6505C58.1454 52.9033 58.2918 53.3684 58.4708 53.6839C58.6496 53.9993 58.7581 54.2575 58.7118 54.2575C58.6654 54.2575 58.4311 53.8935 58.191 53.4485C57.761 52.6514 57.7538 52.6466 57.7033 53.1285C57.5503 54.5878 58.611 55.5761 60.3635 55.6071C61.2127 55.6221 61.3893 55.4486 60.9577 55.0228C60.7892 54.8567 60.4397 54.3122 60.1812 53.813C59.7387 52.9587 59.3215 52.586 58.497 52.3089C58.1924 52.2065 58.1454 52.2522 58.1454 52.6505Z" fill="#A1A1A1"/>
</svg>
