<svg width="145" height="76" viewBox="0 0 145 76" fill="none" xmlns="http://www.w3.org/2000/svg">
<g clip-path="url(#clip0_803_16421)">
<path d="M144.595 74.0955L101.089 9.11033V4.41184C101.089 1.96736 98.9787 0.094309 96.5845 0.348281H85.7474C84.3927 0.348281 83.0381 0.411775 81.6834 0.602254L42.7769 7.49126C40.7292 7.71348 39.1855 9.45954 39.1855 11.5548V17.3327L81.778 11.9358C82.471 12.0945 82.8806 12.9517 82.4395 13.6183L41.8003 74.3177C41.7373 74.3812 41.6743 74.4765 41.6428 74.5717L41.3593 74.9844H41.9893C42.0523 74.9844 42.0838 74.9844 42.1469 74.9844H42.8084L48.857 75.0479H49.1091L86.9445 75.0162C86.9445 75.0162 88.7717 73.6511 88.8032 72.0955C88.8032 71.8415 88.7717 71.5875 88.7087 71.3018L98.9787 64.1906V63.0477C97.7186 60.4763 93.4027 59.8731 93.4027 59.8731C93.4027 59.8731 92.4261 58.127 88.6142 57.6508L81.6204 63.9684C81.1164 63.8096 81.0849 64.0954 80.3918 64.2541C79.5727 64.4446 79.4152 64.6033 78.8797 64.6033C78.3441 64.6033 78.3756 64.1589 77.8401 64.1589C77.3045 64.1589 77.399 63.6509 77.1785 63.3652C76.958 63.0477 76.3909 63.3969 75.9184 62.6668C75.3513 61.7779 74.8157 61.3017 74.3117 60.8572C73.9021 60.4762 73.4926 60.0953 73.0201 59.7461C72.6735 59.4921 72.5475 59.3016 72.768 58.9207C73.0201 58.4445 72.6105 58.1588 72.453 58.0318C72.327 57.9365 72.2955 57.6508 72.705 57.5238C73.1146 57.3968 72.705 50.7301 72.705 49.7142C72.705 48.6983 73.4926 47.9681 73.5871 47.0475C73.6816 46.1268 74.3747 45.3966 74.8157 44.2855C75.2883 43.1744 74.8472 40.8251 74.8472 40.8251C74.8472 40.8251 75.6663 37.1108 76.4854 39.7775C77.3045 42.4442 78.5646 42.9204 79.1947 42.9204C79.2262 42.9204 79.2262 42.8887 79.2577 42.8887C79.5727 42.9522 79.9508 42.8569 80.1713 42.5712C80.4863 42.1585 80.6123 41.5871 81.1479 41.3648C81.2424 41.3331 81.2739 41.0791 81.3369 40.8569C81.778 41.6188 82.282 41.1109 82.7546 40.9839C83.5421 42.095 83.9832 42.0633 84.6448 40.8569C84.8023 40.5712 84.8653 40.2537 85.0228 39.968C85.1803 39.714 85.3693 39.4918 85.6844 39.1426C85.9364 40.095 86.4089 40.6981 87.0705 41.0791C87.228 41.1743 87.417 41.2696 87.6061 41.3013C88.2361 41.4283 88.4252 41.2378 88.3306 40.6029C88.2676 40.2537 88.1731 39.9362 88.5827 39.7458C88.6772 39.714 88.7087 39.587 88.7402 39.4918C89.3702 37.7775 89.7483 35.9679 89.4648 34.1901C89.1497 32.3171 88.5197 30.5393 87.1335 29.1424C86.4719 28.4757 85.7474 27.9995 84.8023 27.8725C84.5187 27.8408 84.2982 27.6503 84.0147 27.5868C83.8572 27.5551 83.6682 27.5551 83.5106 27.5233C83.5421 27.5551 83.5736 27.5868 83.6052 27.6503C82.5655 27.3963 81.6204 27.6186 80.1083 27.9043C78.9112 28.1265 77.8086 28.7932 77.021 29.7138L87.4485 12.9834H87.8896C87.5116 14.2215 85.9994 18.9518 82.9121 25.682C83.2901 25.7773 83.6682 25.9043 83.9832 26.063C85.4638 21.9677 86.8185 17.5867 87.8896 12.9834H89.9688C89.5278 15.3961 88.5512 20.3486 86.976 27.4598C87.9211 27.6186 88.7087 28.0313 89.3072 28.6027C90.0633 23.9677 90.5674 18.8565 90.3153 13.0152H92.6466C92.8671 17.174 93.2136 33.5234 88.0156 55.9682C88.5827 55.746 89.2127 55.619 89.9373 55.619C90.9454 55.619 91.796 55.873 92.4891 56.3175C94.0012 48.4126 94.8203 37.3648 92.6781 13.0469H98.2857L111.265 32.0948L116.369 39.7458L139.87 74.8574L144.154 74.8892C144.595 74.9209 144.847 74.4447 144.595 74.0955ZM86.976 5.2055C86.976 3.87215 88.0471 2.76102 89.4018 2.76102H95.9859C97.3091 2.76102 98.4117 3.8404 98.4117 5.2055V9.14208H87.0075V5.2055H86.976ZM59.5367 64.0954C60.1667 63.3017 63.0965 57.3651 63.0965 57.3651L63.254 60.8255C63.2855 61.3017 63.5061 61.7144 63.8841 61.9683L66.2153 63.6192C63.5691 62.4763 59.5367 64.0954 59.5367 64.0954Z" fill="#30422E"/>
<path d="M75.9505 14.1898L55.946 16.9835C52.8901 17.301 49.8343 17.3962 46.7785 17.2375L39.1862 17.301L0.594727 74.921H38.3041L76.9586 15.9041C77.4942 15.1105 76.8641 14.0946 75.9505 14.1898Z" fill="#30422E"/>
<path d="M107.356 37.0277C100.205 23.0275 96.0811 13.1426 96.0811 13.1426C97.6562 23.4285 101.279 31.9048 104.114 38.7938C104.65 38.0001 106.348 37.4087 107.356 37.0277Z" fill="#30422E"/>
<path d="M124.623 66.0963C124.182 64.0962 123.489 64.001 122.071 60.7311C120.654 57.4612 117.724 55.3977 116.621 54.5405C116.212 54.2231 115.865 53.8421 115.55 53.4294C115.33 53.1437 115.141 52.6992 114.794 52.5087C114.416 52.2865 113.88 52.4135 113.471 52.4135C113.471 52.4135 112.778 51.9056 113.502 50.6357C114.227 49.3658 115.708 48.5087 114.731 45.588C113.786 42.6356 111.896 41.7149 109.911 41.1435C107.895 40.6038 107.328 40.572 104.902 42.3816C102.476 44.1594 101.185 44.7943 101.594 46.9214C102.004 49.0484 103.799 49.969 103.736 50.7309C103.642 51.4929 103.484 52.2548 103.201 52.8897C102.917 53.5246 104.209 53.5246 104.398 53.6516C104.587 53.7786 104.335 54.0961 104.524 54.3183C104.713 54.5405 105.091 54.3818 105.186 54.5723C105.28 54.7628 105.564 55.3342 105.784 55.4294C106.036 55.5247 107.58 55.5882 108.745 54.9532C109.628 54.477 109.943 55.6199 109.628 56.1596C109.312 56.6993 108.651 57.9057 108.588 59.239C108.493 60.5724 108.745 60.8898 108.745 61.2708C108.745 61.6518 109.092 62.2549 108.808 62.8899C108.493 63.5248 108.273 63.5883 108.178 64.4455C108.084 65.3026 107.422 64.6677 107.202 65.5566C106.981 66.4455 106.572 66.5725 106.288 66.636C106.005 66.6995 105.217 67.0487 105.091 67.4296C104.965 67.8106 104.965 68.8582 104.051 68.3185C103.138 67.7471 101.437 67.5566 100.366 68.636C99.3259 69.7154 99.515 72.3821 100.775 73.4932C102.035 74.6044 102.917 74.9853 104.083 75.0171C105.249 75.0488 122.071 74.9218 122.071 74.9218C122.071 74.9218 122.197 74.9536 122.701 74.2869C123.205 73.6202 123.867 72.89 123.804 71.5567C123.741 70.2233 123.048 69.9694 123.457 69.2392C123.835 68.509 125.064 68.0963 124.623 66.0963Z" fill="#30422E"/>
</g>
<defs>
<clipPath id="clip0_803_16421">
<rect width="144.096" height="74.6679" fill="white" transform="translate(0.594727 0.348633)"/>
</clipPath>
</defs>
</svg>
