<svg width="176" height="119" viewBox="0 0 176 119" fill="none" xmlns="http://www.w3.org/2000/svg">
<g filter="url(#filter0_d_373_12407)">
<path d="M7.96269 48.5001C3.8206 48.5207 0.479486 51.8952 0.500093 56.0373C0.5207 60.1794 3.89523 63.5205 8.03731 63.4999L7.96269 48.5001ZM163.328 60.5306C166.242 57.5871 166.218 52.8384 163.275 49.9241L115.308 2.43246C112.365 -0.481861 107.616 -0.458235 104.702 2.48523C101.788 5.4287 101.811 10.1774 104.755 13.0917L147.392 55.3065L105.177 97.9435C102.263 100.887 102.286 105.636 105.23 108.55C108.173 111.464 112.922 111.441 115.836 108.497L163.328 60.5306ZM8.03731 63.4999L158.035 62.7536L157.961 47.7538L7.96269 48.5001L8.03731 63.4999Z" fill="#E1683B"/>
</g>
<defs>
<filter id="filter0_d_373_12407" x="0.5" y="0.262207" width="174.998" height="118.458" filterUnits="userSpaceOnUse" color-interpolation-filters="sRGB">
<feFlood flood-opacity="0" result="BackgroundImageFix"/>
<feColorMatrix in="SourceAlpha" type="matrix" values="0 0 0 0 0 0 0 0 0 0 0 0 0 0 0 0 0 0 127 0" result="hardAlpha"/>
<feOffset dx="6" dy="4"/>
<feGaussianBlur stdDeviation="2"/>
<feComposite in2="hardAlpha" operator="out"/>
<feColorMatrix type="matrix" values="0 0 0 0 0 0 0 0 0 0 0 0 0 0 0 0 0 0 0.25 0"/>
<feBlend mode="normal" in2="BackgroundImageFix" result="effect1_dropShadow_373_12407"/>
<feBlend mode="normal" in="SourceGraphic" in2="effect1_dropShadow_373_12407" result="shape"/>
</filter>
</defs>
</svg>
