<svg width="100" height="101" viewBox="0 0 100 101" fill="none" xmlns="http://www.w3.org/2000/svg">
<path d="M58.0225 30.7903L56.5584 31.7133H58.2892H90.7008V56H84.8563H84.3563V56.5V100.252H6.8444V56.5001V56.0001H6.3444H0.5V31.7132H36.0837H37.5131L36.3954 30.8222L21.0711 18.6067L38.9889 6.70423L45.9193 27.4209L46.3244 28.6318L46.8493 27.4678L58.8445 0.864124L76.9217 18.8766L58.0225 30.7903ZM60.6438 7.95036L60.1339 7.44228L59.8358 8.09747L49.4796 30.8577L48.786 32.382L50.2018 31.4875L70.5173 18.6509L71.0469 18.3162L70.6031 17.874L60.6438 7.95036ZM37.186 13.1562L36.9789 12.5372L36.4351 12.8984L27.9998 18.5017L27.4282 18.8815L27.9648 19.3092L42.0237 30.5159L43.346 31.57L42.8095 29.9663L37.186 13.1562ZM39.256 94.9301H39.756V94.4301V54.5198V54.0198H39.256H12.6888H12.1888V54.5198V94.4301V94.9301H12.6888H39.256ZM39.256 50.6782H39.756V50.1782V37.535V37.035H39.256H6.3444H5.8444V37.535V50.1782V50.6782H6.3444H39.256ZM78.512 94.9301H79.012V94.4301V54.5198V54.0198H78.512H51.9447H51.4447V54.5198V94.4301V94.9301H51.9447H78.512ZM84.8563 50.6782H85.3563V50.1782V37.535V37.035H84.8563H51.9447H51.4447V37.535V50.1782V50.6782H51.9447H84.8563Z" fill="#7F886B" stroke="white"/>
<path d="M82 15.7865C82.6075 15.758 83.1215 15.5205 83.5421 15.074C83.9626 14.6275 84.1776 14.0955 84.1776 13.478C84.1776 14.0955 84.3832 14.6275 84.8038 15.074C85.2243 15.5205 85.7384 15.758 86.3458 15.7865C85.7384 15.815 85.2243 16.0525 84.8038 16.499C84.6004 16.7094 84.4403 16.959 84.3328 17.233C84.2253 17.507 84.1726 17.8 84.1776 18.0949C84.1776 17.4774 83.972 16.9455 83.5421 16.499C83.1215 16.0525 82.6075 15.815 82 15.7865ZM84.1776 8.94653C85.3552 8.88953 86.3552 8.42404 87.1776 7.55005C88.0001 6.67606 88.4113 5.64057 88.4113 4.43408C88.4113 5.64057 88.8225 6.67606 89.6449 7.55005C90.4674 8.42404 91.4674 8.88003 92.6543 8.94653C91.8786 8.98453 91.1683 9.20303 90.5141 9.62103C89.8692 10.0295 89.3552 10.5805 88.972 11.2645C88.5982 11.9485 88.4113 12.68 88.4113 13.478C88.4113 12.2715 88.0001 11.2265 87.1776 10.3525C86.3552 9.46903 85.3552 9.00353 84.1776 8.94653ZM87.2804 19.1779C88.1683 19.1399 88.9253 18.7884 89.5421 18.1329C90.1589 17.4774 90.4674 16.6985 90.4674 15.7865C90.4674 16.6985 90.7758 17.4774 91.3926 18.1329C92.0094 18.7884 92.7571 19.1399 93.645 19.1779C92.7571 19.2159 92.0094 19.5674 91.3926 20.2229C90.7758 20.8784 90.4674 21.6574 90.4674 22.5694C90.4674 21.6574 90.1589 20.8784 89.5421 20.2229C88.9526 19.5861 88.1401 19.2107 87.2804 19.1779ZM93.645 14.675C94.5328 14.637 95.2805 14.2855 95.8973 13.63C96.5141 12.9745 96.8132 12.1955 96.8132 11.274C96.8132 12.186 97.1216 12.965 97.7385 13.6205C98.3553 14.276 99.1123 14.6275 100 14.6655C99.1123 14.7035 98.3553 15.055 97.7385 15.7105C97.1216 16.366 96.8132 17.1449 96.8132 18.0569C96.8132 17.1449 96.5048 16.366 95.8973 15.7105C95.2805 15.0645 94.5328 14.713 93.645 14.675Z" fill="#7F886B"/>
</svg>
