<svg width="76" height="76" viewBox="0 0 76 76" fill="none" xmlns="http://www.w3.org/2000/svg">
<circle cx="37.7466" cy="37.5826" r="37.483" fill="#FECC06"/>
<path fill-rule="evenodd" clip-rule="evenodd" d="M3.28899 31.509L49.7216 4.70117C54.2539 6.35202 58.3487 8.91326 61.7848 12.1637L3.70882 45.6938C3.0908 43.0906 2.76367 40.3748 2.76367 37.5825C2.76367 35.511 2.94371 33.4816 3.28899 31.509Z" fill="#FFFC77"/>
<path fill-rule="evenodd" clip-rule="evenodd" d="M72.2051 43.657C72.5507 41.6835 72.7309 39.653 72.7309 37.5805C72.7309 30.3126 70.5147 23.5624 66.7211 17.9688L6.27148 52.8694C10.2216 60.9864 17.2192 67.347 25.7759 70.4629L72.2051 43.657Z" fill="#FFFC77"/>
<circle cx="37.7473" cy="37.5832" r="27.4875" fill="#EE9F07"/>
<circle cx="37.7474" cy="37.5824" r="24.9886" fill="#FECC06"/>
<mask id="mask0_1880_7096" style="mask-type:alpha" maskUnits="userSpaceOnUse" x="12" y="12" width="51" height="51">
<circle cx="37.7455" cy="37.5824" r="24.9886" fill="#FECC06"/>
</mask>
<g mask="url(#mask0_1880_7096)">
<path d="M96.4693 79.4386L52.1145 34.459L37.1213 37.5826L29 50.7016L73.9796 95.6812L96.4693 79.4386Z" fill="#EE9F07"/>
<path d="M82.7237 68.8194L37.7441 23.8398V37.5836L82.7237 82.5632V68.8194Z" fill="#EE9F07"/>
</g>
<path d="M37.7467 23.8379L42.1531 32.7662L52.1151 34.4581L44.8764 41.1477L46.4927 50.7007L37.7467 46.3277L29.0006 50.7007L30.617 41.1477L23.4873 34.1979L33.3403 32.7662L37.7467 23.8379Z" fill="white"/>
</svg>
