<svg width="298" height="255" viewBox="0 0 298 255" fill="none" xmlns="http://www.w3.org/2000/svg">
<path fill-rule="evenodd" clip-rule="evenodd" d="M288.705 2.97396C264.724 12.2951 233.74 30.599 206.108 51.7712C196.09 59.4465 173.116 79.9728 164.195 89.219C148.824 105.149 131.127 127.352 122.784 141.174C121.184 143.826 119.603 145.999 119.271 146.004C118.939 146.009 114.919 143.571 110.337 140.587C80.4664 121.13 49.9206 110.472 26.763 111.427C15.4767 111.893 9.25965 113.831 3.71189 118.611C-2.32218 123.812 -1.01277 124.687 9.89889 122.748C14.194 121.985 16.201 122.042 21.9275 123.089C46.3963 127.563 71.1666 149.591 92.5096 185.858C101.687 201.452 114.427 229.637 120.73 248.286C122.001 252.05 123.337 254.832 123.697 254.468C124.058 254.104 126.183 248.416 128.42 241.829C133.479 226.931 144.224 200.917 152.676 183.103C188.318 107.983 240.403 40.5855 288.705 7.08245C297.998 0.636516 297.57 0.985773 296.727 0.526785C296.332 0.311972 292.721 1.41309 288.705 2.97396Z" fill="#197065" fill-opacity="0.1"/>
</svg>
