<svg width="24" height="25" viewBox="0 0 24 25" fill="none" xmlns="http://www.w3.org/2000/svg">
<path d="M5.81025 10.325C5.80911 9.52445 5.96987 8.73155 6.28328 7.99211C6.59668 7.25267 7.05653 6.58123 7.63628 6.01652C8.2161 5.45182 8.90438 5.005 9.66143 4.70183C10.4185 4.39867 11.2293 4.24514 12.0473 4.25012C15.4604 4.27495 18.1904 7.05149 18.1904 10.4012V11C18.1904 14.0219 18.8365 15.7755 19.4054 16.734C19.4667 16.8363 19.4993 16.9528 19.5 17.0715C19.5006 17.1901 19.4693 17.3069 19.4091 17.4099C19.349 17.513 19.2621 17.5987 19.1573 17.6584C19.0525 17.7181 18.9335 17.7497 18.8122 17.75H5.18784C5.06656 17.7497 4.94751 17.7181 4.84269 17.6583C4.73787 17.5986 4.651 17.5129 4.59084 17.4099C4.53067 17.3068 4.49934 17.19 4.50001 17.0713C4.50069 16.9527 4.53333 16.8362 4.59465 16.7338C5.16393 15.7753 5.81024 14.0217 5.81024 11L5.81025 10.325Z" stroke="white" stroke-width="1.5" stroke-linecap="round" stroke-linejoin="round"/>
<path d="M9 17.75V18.5C9 19.2957 9.31605 20.0587 9.8787 20.6213C10.4413 21.1839 11.2043 21.5 12 21.5C12.7957 21.5 13.5587 21.1839 14.1213 20.6213C14.6839 20.0587 15 19.2957 15 18.5V17.75" stroke="white" stroke-width="1.5" stroke-linecap="round" stroke-linejoin="round"/>
</svg>
