<svg width="288" height="78" viewBox="0 0 288 78" fill="none" xmlns="http://www.w3.org/2000/svg">
<rect x="1" y="1" width="286" height="76" rx="38" fill="white"/>
<circle cx="59" cy="39" r="25" fill="#186F65"/>
<path d="M56.6878 30.5312C56.6878 31.733 56.2104 32.8856 55.3606 33.7353C54.5108 34.5851 53.3583 35.0625 52.1565 35.0625C50.9548 35.0625 49.8022 34.5851 48.9525 33.7353C48.1027 32.8856 47.6253 31.733 47.6253 30.5312C47.6253 29.3295 48.1027 28.1769 48.9525 27.3272C49.8022 26.4774 50.9548 26 52.1565 26C53.3583 26 54.5108 26.4774 55.3606 27.3272C56.2104 28.1769 56.6878 29.3295 56.6878 30.5312ZM64.3456 37.8773C64.1756 37.7922 63.9832 37.7626 63.7955 37.7929C63.6078 37.8231 63.4344 37.9116 63.2998 38.0459L56.5754 46.5828L51.7542 41.5585C51.5801 41.4426 51.3713 41.3905 51.1632 41.411C50.9551 41.4314 50.7604 41.5233 50.6123 41.6709L44.0039 49.5625V53.1875C44.0039 53.6682 44.1949 54.1292 44.5348 54.4691C44.8747 54.809 45.3357 55 45.8164 55H71.1914C71.4294 55 71.6651 54.9531 71.885 54.862C72.1049 54.7709 72.3047 54.6374 72.473 54.4691C72.6413 54.3008 72.7749 54.101 72.8659 53.8811C72.957 53.6612 73.0039 53.4255 73.0039 53.1875V45.0312L64.3456 37.8773Z" fill="white"/>
<path d="M104.9 49.5H102.13L110.142 27.6818H112.869L120.88 49.5H118.11L111.591 31.1335H111.42L104.9 49.5ZM105.923 40.9773H117.088V43.321H105.923V40.9773ZM130.117 49.8409C128.753 49.8409 127.549 49.4964 126.505 48.8075C125.461 48.1115 124.645 47.1314 124.055 45.8672C123.466 44.5959 123.171 43.0938 123.171 41.3608C123.171 39.642 123.466 38.1506 124.055 36.8864C124.645 35.6222 125.465 34.6456 126.516 33.9567C127.567 33.2678 128.782 32.9233 130.159 32.9233C131.225 32.9233 132.066 33.1009 132.684 33.456C133.309 33.804 133.785 34.2017 134.112 34.6491C134.446 35.0895 134.705 35.4517 134.89 35.7358H135.103V27.6818H137.617V49.5H135.188V46.9858H134.89C134.705 47.2841 134.442 47.6605 134.101 48.1151C133.76 48.5625 133.274 48.9638 132.642 49.3189C132.01 49.6669 131.168 49.8409 130.117 49.8409ZM130.458 47.5824C131.466 47.5824 132.319 47.3196 133.015 46.794C133.711 46.2614 134.24 45.5263 134.602 44.5888C134.964 43.6442 135.145 42.554 135.145 41.3182C135.145 40.0966 134.968 39.0277 134.613 38.1115C134.257 37.1882 133.732 36.4709 133.036 35.9595C132.34 35.4411 131.48 35.1818 130.458 35.1818C129.392 35.1818 128.505 35.4553 127.794 36.0021C127.091 36.5419 126.562 37.277 126.207 38.2074C125.859 39.1307 125.685 40.1676 125.685 41.3182C125.685 42.483 125.863 43.5412 126.218 44.4929C126.58 45.4375 127.113 46.1903 127.816 46.7514C128.526 47.3054 129.407 47.5824 130.458 47.5824ZM148.75 49.8409C147.386 49.8409 146.182 49.4964 145.138 48.8075C144.094 48.1115 143.277 47.1314 142.688 45.8672C142.098 44.5959 141.804 43.0938 141.804 41.3608C141.804 39.642 142.098 38.1506 142.688 36.8864C143.277 35.6222 144.098 34.6456 145.149 33.9567C146.2 33.2678 147.414 32.9233 148.792 32.9233C149.858 32.9233 150.699 33.1009 151.317 33.456C151.942 33.804 152.418 34.2017 152.745 34.6491C153.078 35.0895 153.338 35.4517 153.522 35.7358H153.735V27.6818H156.25V49.5H153.821V46.9858H153.522C153.338 47.2841 153.075 47.6605 152.734 48.1151C152.393 48.5625 151.907 48.9638 151.275 49.3189C150.642 49.6669 149.801 49.8409 148.75 49.8409ZM149.091 47.5824C150.099 47.5824 150.951 47.3196 151.647 46.794C152.343 46.2614 152.873 45.5263 153.235 44.5888C153.597 43.6442 153.778 42.554 153.778 41.3182C153.778 40.0966 153.6 39.0277 153.245 38.1115C152.89 37.1882 152.365 36.4709 151.669 35.9595C150.973 35.4411 150.113 35.1818 149.091 35.1818C148.025 35.1818 147.137 35.4553 146.427 36.0021C145.724 36.5419 145.195 37.277 144.84 38.2074C144.492 39.1307 144.318 40.1676 144.318 41.3182C144.318 42.483 144.495 43.5412 144.85 44.4929C145.213 45.4375 145.745 46.1903 146.449 46.7514C147.159 47.3054 148.039 47.5824 149.091 47.5824ZM172.624 27.6818V49.5H169.982V27.6818H172.624ZM177.58 49.5V33.1364H180.009V35.6932H180.222C180.563 34.8196 181.114 34.1413 181.874 33.6584C182.634 33.1683 183.546 32.9233 184.612 32.9233C185.691 32.9233 186.59 33.1683 187.307 33.6584C188.031 34.1413 188.596 34.8196 189.001 35.6932H189.171C189.59 34.848 190.219 34.1768 191.057 33.6797C191.895 33.1754 192.9 32.9233 194.072 32.9233C195.535 32.9233 196.732 33.3814 197.662 34.2976C198.593 35.2067 199.058 36.6236 199.058 38.5483V49.5H196.544V38.5483C196.544 37.3409 196.213 36.478 195.553 35.9595C194.892 35.4411 194.115 35.1818 193.22 35.1818C192.069 35.1818 191.178 35.5298 190.546 36.2259C189.914 36.9148 189.597 37.7884 189.597 38.8466V49.5H187.041V38.2926C187.041 37.3622 186.739 36.6129 186.135 36.0447C185.531 35.4695 184.754 35.1818 183.802 35.1818C183.149 35.1818 182.538 35.3558 181.97 35.7038C181.409 36.0518 180.954 36.5348 180.606 37.1527C180.265 37.7635 180.095 38.4702 180.095 39.2727V49.5H177.58ZM208.47 49.8835C207.433 49.8835 206.492 49.6882 205.647 49.2976C204.802 48.8999 204.131 48.3281 203.633 47.5824C203.136 46.8295 202.888 45.9205 202.888 44.8551C202.888 43.9176 203.072 43.1577 203.442 42.5753C203.811 41.9858 204.305 41.5241 204.922 41.1903C205.54 40.8565 206.222 40.608 206.968 40.4446C207.721 40.2741 208.477 40.1392 209.237 40.0398C210.231 39.9119 211.037 39.8161 211.655 39.7521C212.28 39.6811 212.735 39.5639 213.019 39.4006C213.31 39.2372 213.456 38.9531 213.456 38.5483V38.4631C213.456 37.4119 213.168 36.5952 212.593 36.0128C212.025 35.4304 211.162 35.1392 210.004 35.1392C208.804 35.1392 207.863 35.402 207.181 35.9276C206.499 36.4531 206.02 37.0142 205.743 37.6108L203.356 36.7585C203.782 35.7642 204.351 34.9901 205.061 34.4361C205.778 33.875 206.559 33.4844 207.405 33.2642C208.257 33.0369 209.095 32.9233 209.919 32.9233C210.444 32.9233 211.048 32.9872 211.73 33.1151C212.419 33.2358 213.083 33.4879 213.722 33.8714C214.368 34.255 214.905 34.8338 215.331 35.608C215.757 36.3821 215.97 37.419 215.97 38.7188V49.5H213.456V47.2841H213.328C213.157 47.6392 212.873 48.0192 212.476 48.424C212.078 48.8288 211.549 49.1733 210.888 49.4574C210.228 49.7415 209.422 49.8835 208.47 49.8835ZM208.854 47.625C209.848 47.625 210.686 47.4297 211.368 47.0391C212.057 46.6484 212.575 46.1442 212.923 45.5263C213.278 44.9084 213.456 44.2585 213.456 43.5767V41.2756C213.349 41.4034 213.115 41.5206 212.753 41.6271C212.398 41.7266 211.986 41.8153 211.517 41.8935C211.055 41.9645 210.604 42.0284 210.164 42.0852C209.731 42.1349 209.379 42.1776 209.109 42.2131C208.456 42.2983 207.845 42.4368 207.277 42.6286C206.716 42.8132 206.261 43.0937 205.913 43.4702C205.572 43.8395 205.402 44.3437 205.402 44.983C205.402 45.8565 205.725 46.517 206.371 46.9645C207.025 47.4048 207.852 47.625 208.854 47.625ZM227.164 55.9773C225.95 55.9773 224.906 55.821 224.032 55.5085C223.158 55.2031 222.43 54.7983 221.848 54.294C221.273 53.7969 220.815 53.2642 220.474 52.696L222.477 51.2898C222.704 51.5881 222.991 51.929 223.339 52.3125C223.688 52.7031 224.163 53.0405 224.767 53.3246C225.378 53.6158 226.177 53.7614 227.164 53.7614C228.485 53.7614 229.575 53.4418 230.435 52.8026C231.294 52.1634 231.724 51.1619 231.724 49.7983V46.4744H231.511C231.326 46.7727 231.063 47.142 230.722 47.5824C230.388 48.0156 229.906 48.4027 229.273 48.7436C228.648 49.0774 227.803 49.2443 226.738 49.2443C225.417 49.2443 224.231 48.9318 223.18 48.3068C222.136 47.6818 221.308 46.7727 220.697 45.5795C220.094 44.3864 219.792 42.9375 219.792 41.233C219.792 39.5568 220.087 38.0973 220.676 36.8544C221.266 35.6044 222.086 34.6385 223.137 33.9567C224.188 33.2678 225.403 32.9233 226.781 32.9233C227.846 32.9233 228.691 33.1009 229.316 33.456C229.948 33.804 230.431 34.2017 230.765 34.6491C231.106 35.0895 231.369 35.4517 231.553 35.7358H231.809V33.1364H234.238V49.9688C234.238 51.375 233.918 52.5185 233.279 53.3991C232.647 54.2869 231.795 54.9368 230.722 55.3487C229.657 55.7678 228.471 55.9773 227.164 55.9773ZM227.079 46.9858C228.087 46.9858 228.94 46.755 229.636 46.2933C230.332 45.8317 230.861 45.1676 231.223 44.3011C231.585 43.4347 231.766 42.3977 231.766 41.1903C231.766 40.0114 231.589 38.9709 231.234 38.0689C230.879 37.1669 230.353 36.4602 229.657 35.9489C228.961 35.4375 228.102 35.1818 227.079 35.1818C226.013 35.1818 225.126 35.4517 224.415 35.9915C223.712 36.5312 223.183 37.2557 222.828 38.1648C222.48 39.0739 222.306 40.0824 222.306 41.1903C222.306 42.3267 222.484 43.3317 222.839 44.2053C223.201 45.0717 223.734 45.7536 224.437 46.2507C225.147 46.7408 226.028 46.9858 227.079 46.9858ZM245.701 49.8409C244.124 49.8409 242.764 49.4929 241.621 48.7969C240.484 48.0938 239.607 47.1136 238.989 45.8565C238.379 44.5923 238.073 43.1222 238.073 41.446C238.073 39.7699 238.379 38.2926 238.989 37.0142C239.607 35.7287 240.467 34.7273 241.567 34.0099C242.675 33.2855 243.968 32.9233 245.445 32.9233C246.298 32.9233 247.139 33.0653 247.97 33.3494C248.801 33.6335 249.558 34.0952 250.239 34.7344C250.921 35.3665 251.464 36.2045 251.869 37.2486C252.274 38.2926 252.477 39.5781 252.477 41.1051V42.1705H239.863V39.9972H249.92C249.92 39.0739 249.735 38.25 249.366 37.5256C249.004 36.8011 248.485 36.2294 247.81 35.8104C247.143 35.3913 246.354 35.1818 245.445 35.1818C244.444 35.1818 243.577 35.4304 242.846 35.9276C242.121 36.4176 241.564 37.0568 241.173 37.8452C240.783 38.6335 240.587 39.4787 240.587 40.3807V41.8295C240.587 43.0653 240.8 44.1129 241.227 44.9723C241.66 45.8246 242.26 46.4744 243.027 46.9219C243.794 47.3622 244.685 47.5824 245.701 47.5824C246.362 47.5824 246.958 47.4901 247.491 47.3054C248.031 47.1136 248.496 46.8295 248.886 46.4531C249.277 46.0696 249.579 45.5937 249.792 45.0256L252.221 45.7074C251.965 46.5312 251.536 47.2557 250.932 47.8807C250.328 48.4986 249.582 48.9815 248.695 49.3295C247.807 49.6705 246.809 49.8409 245.701 49.8409Z" fill="#197065" fill-opacity="0.9"/>
<rect x="1" y="1" width="286" height="76" rx="38" stroke="#197065" stroke-width="2"/>
</svg>
