<svg width="495" height="72" viewBox="0 0 495 72" fill="none" xmlns="http://www.w3.org/2000/svg">
<path d="M188.643 69.9085H158.968C159.826 69.1319 160.462 68.126 160.787 67.0091C161.231 65.7665 161.46 64.4499 161.46 63.1259V7.22284C161.46 5.89886 161.231 4.58967 160.787 3.33966C160.462 2.23018 159.833 1.23164 158.968 0.462402H173.014C172.156 1.23904 171.527 2.23018 171.194 3.33966C170.765 4.58967 170.543 5.89886 170.536 7.22284V63.9765H183.287C184.611 63.9617 185.921 63.7324 187.171 63.3034C188.273 62.9632 189.271 62.3345 190.048 61.4839L188.643 69.9012V69.9085Z" fill="#30422E"/>
<path d="M195.906 13.9172C195.906 12.5932 195.677 11.284 195.233 10.034C194.908 8.92452 194.279 7.92598 193.414 7.15674H207.46C206.602 7.93338 205.973 8.92452 205.64 10.034C205.211 11.284 204.989 12.5932 204.982 13.9172V63.0968C204.982 64.4208 205.211 65.73 205.64 66.98C205.98 68.0895 206.609 69.088 207.46 69.8794H193.414C194.272 69.1028 194.908 68.0969 195.233 66.98C195.677 65.7374 195.906 64.4208 195.906 63.0968V13.9172Z" fill="#30422E"/>
<path d="M213.281 13.9172C213.281 12.5932 213.051 11.284 212.607 10.034C212.282 8.92452 211.653 7.92598 210.788 7.15674H240.463L241.957 15.4261C241.188 14.5607 240.189 13.932 239.08 13.6065C237.837 13.1627 236.52 12.9408 235.197 12.9335H222.445V28.015H230.463C231.794 28.015 233.111 27.7857 234.361 27.3419C235.47 27.0091 236.461 26.3804 237.238 25.5224V36.2178C236.461 35.3598 235.47 34.7311 234.361 34.3982C233.111 33.9544 231.794 33.7251 230.463 33.7251H222.445V62.8675C222.445 64.1915 222.674 65.5007 223.118 66.7507C223.451 67.8676 224.079 68.8661 224.937 69.6502H210.891C211.749 68.8735 212.386 67.8676 212.711 66.7507C213.155 65.5081 213.384 64.1915 213.384 62.8675L213.273 13.9246L213.281 13.9172Z" fill="#30422E"/>
<path d="M246.963 13.9172C246.963 12.5932 246.734 11.284 246.29 10.034C245.965 8.92452 245.336 7.92598 244.471 7.15674H274.146L275.64 15.4261C274.87 14.5607 273.872 13.932 272.762 13.6065C271.52 13.1627 270.203 12.9408 268.879 12.9334H256.128V28.015H264.146C265.477 28.015 266.793 27.7857 268.043 27.3419C269.153 27.0091 270.144 26.3804 270.921 25.5224V36.2178C270.144 35.3598 269.153 34.7311 268.043 34.3982C266.793 33.9544 265.477 33.7251 264.146 33.7251H256.128V63.9992H268.879C270.203 63.9844 271.512 63.7551 272.762 63.3261C273.865 62.9859 274.863 62.3572 275.64 61.5066L274.22 69.9238H244.545C245.403 69.1472 246.039 68.1413 246.364 67.0244C246.808 65.7818 247.037 64.4652 247.037 63.1412L246.963 13.9246V13.9172Z" fill="#30422E"/>
<path d="M324.939 52.1118C324.976 54.671 324.502 57.2154 323.555 59.5971C322.69 61.7199 321.403 63.6578 319.783 65.2777C318.171 66.8827 316.233 68.1253 314.103 68.9242C311.817 69.7822 309.398 70.2038 306.965 70.1816C304.339 70.2112 301.728 69.7452 299.28 68.7984C296.514 67.6298 293.954 66.0395 291.684 64.0794L295.633 54.3012C297.638 61.5868 301.336 65.2333 306.728 65.2333C307.594 65.1963 308.452 65.0558 309.28 64.8117C310.382 64.4936 311.403 63.9537 312.283 63.2288C313.341 62.319 314.177 61.1874 314.739 59.9152C315.478 58.1326 315.819 56.2169 315.737 54.2864C315.737 50.8988 314.776 47.5703 312.971 44.7079C310.545 41.0984 307.527 37.9178 304.043 35.3069C300.426 32.5849 297.312 29.2491 294.842 25.4547C292.934 22.3999 291.92 18.8717 291.913 15.2696C291.661 10.9944 293.333 6.82276 296.469 3.90113C299.968 1.07565 304.413 -0.300106 308.888 0.0549278C311.647 0.0179451 314.384 0.520913 316.935 1.54903C317.971 1.97064 318.962 2.48839 319.901 3.09491C320.796 3.65705 321.662 4.26356 322.49 4.91445L318.577 13.4353C317.594 11.1719 316.255 9.07872 314.628 7.22218C313.178 5.77246 311.211 4.97363 309.162 5.00322C306.958 4.89227 304.835 5.82423 303.422 7.51804C301.824 9.55949 301.026 12.1113 301.181 14.6927C301.307 17.0152 302.157 19.2342 303.607 21.0463C305.789 23.9236 308.341 26.505 311.181 28.7313C313.481 30.6175 315.641 32.6589 317.646 34.8483C319.273 36.5939 320.693 38.5096 321.891 40.5658C322.927 42.3484 323.718 44.2567 324.258 46.2463C324.739 48.1547 324.968 50.1221 324.931 52.0896L324.939 52.1118Z" fill="#30422E"/>
<path d="M337.692 38.4889C337.692 47.8529 338.616 54.6356 340.458 58.8368C341.745 62.6682 345.362 65.2274 349.4 65.1609C352.026 65.1756 354.57 64.2215 356.538 62.4833C358.957 60.1608 360.68 57.2096 361.508 53.9625L363.602 64.7466C361.59 66.507 359.282 67.9124 356.789 68.8813C354.334 69.7615 351.745 70.2053 349.141 70.1757C335.199 70.1757 328.239 59.6208 328.246 38.5037C328.246 28.1485 329.999 20.2564 333.512 14.8274C336.789 9.53883 342.669 6.43967 348.882 6.72074C351.434 6.62458 353.979 7.0314 356.368 7.92638C358.291 8.79178 360.081 9.93085 361.671 11.314L357.152 19.4206C355.658 14.3022 352.832 11.7356 348.72 11.7356C341.36 11.7578 337.684 20.6854 337.684 38.5111L337.692 38.4889Z" fill="#30422E"/>
<path d="M398.215 21.0236C398.289 23.8861 397.564 26.7116 396.122 29.182C394.635 31.5341 392.52 33.4276 390.02 34.6481C391.913 41.3863 393.57 46.9855 394.99 51.4382C396.122 55.1069 397.431 58.7164 398.925 62.2593C399.798 64.4339 400.937 66.4976 402.313 68.3985C403.185 69.5967 404.325 70.5657 405.648 71.2388C404.48 71.4015 403.319 71.5272 402.15 71.5864C400.981 71.6456 399.805 71.5272 398.674 71.2388C397.49 70.9503 396.366 70.4695 395.338 69.8186C394.169 69.079 393.148 68.1174 392.335 66.9931C389.931 63.4354 388.156 59.493 387.068 55.3362C385.589 50.2696 383.762 44.2044 381.602 37.1185C381.114 37.1185 380.604 37.2294 380.108 37.2442C379.613 37.259 379.073 37.2442 378.503 37.2442H377.756V63.0508C377.756 64.3748 377.985 65.6839 378.429 66.934C378.762 68.0508 379.391 69.0494 380.249 69.8334H366.203C367.061 69.0494 367.689 68.0508 368.022 66.934C368.451 65.6839 368.673 64.3748 368.681 63.0508V13.8711C368.673 12.5546 368.451 11.238 368.022 9.98796C367.689 8.87848 367.061 7.88734 366.203 7.1107H380.774C383.733 7.02194 386.684 7.44356 389.502 8.36812C391.469 9.04861 393.259 10.1507 394.746 11.6078C395.996 12.8504 396.928 14.3889 397.461 16.0679C397.949 17.6656 398.2 19.3298 398.208 21.0014L398.215 21.0236ZM377.764 33.0652C379.642 33.1317 381.506 32.7767 383.23 32.0297C384.576 31.4084 385.767 30.4986 386.706 29.3521C387.549 28.2722 388.17 27.037 388.525 25.7056C388.866 24.3668 389.043 22.9911 389.051 21.6079C389.199 18.9008 388.341 16.2307 386.625 14.1226C384.909 12.2735 382.46 11.275 379.938 11.4081H377.749V33.0652H377.764Z" fill="#30422E"/>
<path d="M409.748 13.9172C409.741 12.6006 409.519 11.284 409.09 10.034C408.757 8.92452 408.128 7.93338 407.27 7.15674H421.316C420.451 7.92598 419.822 8.92452 419.497 10.034C419.053 11.2766 418.831 12.5932 418.823 13.9172V63.0968C418.823 64.4208 419.053 65.73 419.497 66.98C419.829 68.0969 420.458 69.0954 421.316 69.8794H407.27C408.128 69.0954 408.757 68.0969 409.09 66.98C409.519 65.73 409.741 64.4208 409.748 63.0968V13.9172Z" fill="#30422E"/>
<path d="M456.789 21.023C456.974 25.5571 455.066 29.921 451.619 32.8648C448.158 35.7791 443.298 37.2362 437.048 37.2362H436.301V63.0649C436.301 64.3889 436.53 65.6981 436.974 66.9481C437.307 68.065 437.936 69.0635 438.794 69.8476H424.748C425.606 69.0635 426.234 68.065 426.567 66.9481C426.996 65.6981 427.218 64.3889 427.225 63.0649V13.8853C427.218 12.5687 426.996 11.2521 426.567 10.0021C426.234 8.89264 425.606 7.9015 424.748 7.12486H439.319C442.277 7.0361 445.229 7.45771 448.047 8.38227C450.029 9.05536 451.834 10.1648 453.328 11.622C454.6 12.8794 455.547 14.4327 456.079 16.1413C456.553 17.7241 456.789 19.3661 456.789 21.023ZM436.316 33.0645C438.194 33.1311 440.058 32.7761 441.782 32.029C443.091 31.3929 444.237 30.4832 445.155 29.3515C445.998 28.2716 446.619 27.0364 446.974 25.705C447.329 24.3662 447.514 22.9905 447.522 21.6073C447.706 18.878 446.863 16.1856 445.155 14.048C443.431 12.1989 440.976 11.2078 438.453 11.3335H436.286L436.323 33.0645H436.316Z" fill="#30422E"/>
<path d="M469.741 69.9064C470.599 69.1224 471.228 68.1238 471.561 67.007C471.99 65.757 472.212 64.4478 472.219 63.1238V12.9974H465.185C463.854 12.9974 462.537 13.2267 461.287 13.6705C460.178 14.0033 459.179 14.632 458.41 15.49L459.919 7.2207H493.506L495.001 15.49C494.231 14.6246 493.233 13.9959 492.123 13.6705C490.881 13.2267 489.564 13.0048 488.24 12.9974H481.302V63.0498C481.302 64.3738 481.532 65.683 481.975 66.933C482.308 68.0499 482.937 69.0484 483.795 69.8325L469.734 69.9064H469.741Z" fill="#30422E"/>
<g clip-path="url(#clip0_428_6342)">
<path d="M135.465 69.3751L94.5377 8.24236V3.82241C94.5377 1.52284 92.5521 -0.239172 90.2998 -0.000255087H80.1051C78.8308 -0.000255087 77.5564 0.0594741 76.2821 0.238661L39.682 6.71927C37.7557 6.92832 36.3035 8.57088 36.3035 10.5419V15.9773L76.371 10.9003C77.023 11.0496 77.4082 11.856 76.9933 12.4831L38.7633 69.5842C38.704 69.6439 38.6447 69.7335 38.6151 69.8231L38.3484 70.2113H38.9411C39.0004 70.2113 39.03 70.2113 39.0893 70.2113H39.7116L45.4017 70.2711H45.6388L81.2313 70.2412C81.2313 70.2412 82.9501 68.957 82.9798 67.4937C82.9798 67.2548 82.9501 67.0158 82.8908 66.7471L92.5521 60.0574V58.9823C91.3667 56.5632 87.3066 55.9958 87.3066 55.9958C87.3066 55.9958 86.3879 54.3533 82.8019 53.9053L76.2228 59.8483C75.7486 59.699 75.719 59.9678 75.067 60.1171C74.2965 60.2963 74.1483 60.4456 73.6445 60.4456C73.1407 60.4456 73.1703 60.0275 72.6665 60.0275C72.1627 60.0275 72.2516 59.5497 72.0442 59.2809C71.8367 58.9823 71.3033 59.3108 70.8588 58.6239C70.3253 57.7877 69.8215 57.3397 69.3473 56.9216C68.9621 56.5632 68.5768 56.2049 68.1323 55.8763C67.8063 55.6374 67.6877 55.4582 67.8952 55.0999C68.1323 54.6519 67.747 54.3831 67.5988 54.2637C67.4803 54.1741 67.4506 53.9053 67.8359 53.7858C68.2212 53.6664 67.8359 47.3948 67.8359 46.4391C67.8359 45.4835 68.5768 44.7966 68.6657 43.9305C68.7546 43.0644 69.4066 42.3776 69.8215 41.3323C70.266 40.287 69.8511 38.0771 69.8511 38.0771C69.8511 38.0771 70.6217 34.5829 71.3922 37.0915C72.1627 39.6002 73.3482 40.0481 73.9409 40.0481C73.9705 40.0481 73.9705 40.0183 74.0001 40.0183C74.2965 40.078 74.6521 39.9884 74.8596 39.7196C75.1559 39.3314 75.2745 38.7938 75.7783 38.5848C75.8672 38.5549 75.8968 38.316 75.9561 38.1069C76.371 38.8237 76.8452 38.3458 77.2897 38.2264C78.0306 39.2716 78.4455 39.2418 79.0678 38.1069C79.216 37.8382 79.2753 37.5395 79.4235 37.2707C79.5716 37.0318 79.7495 36.8228 80.0458 36.4942C80.2829 37.3902 80.7274 37.9576 81.3498 38.316C81.498 38.4056 81.6758 38.4952 81.8536 38.525C82.4463 38.6445 82.6241 38.4653 82.5352 37.868C82.476 37.5395 82.387 37.2409 82.7723 37.0617C82.8612 37.0318 82.8909 36.9123 82.9205 36.8228C83.5132 35.2101 83.8688 33.5078 83.6021 31.8354C83.3057 30.0734 82.713 28.4009 81.4091 27.0869C80.7867 26.4597 80.1051 26.0118 79.216 25.8923C78.9493 25.8625 78.7419 25.6833 78.4751 25.6235C78.327 25.5937 78.1491 25.5937 78.001 25.5638C78.0306 25.5937 78.0602 25.6235 78.0899 25.6833C77.1119 25.4444 76.2228 25.6534 74.8003 25.9222C73.6741 26.1312 72.6369 26.7584 71.896 27.6245L81.7054 11.8858H82.1203C81.7647 13.0506 80.3422 17.5004 77.4379 23.8317C77.7935 23.9213 78.1491 24.0407 78.4455 24.19C79.8384 20.3375 81.1127 16.2162 82.1203 11.8858H84.0763C83.6614 14.1555 82.7427 18.8144 81.2609 25.5041C82.15 25.6534 82.8909 26.0416 83.4539 26.5792C84.1652 22.219 84.6394 17.4108 84.4023 11.9157H86.5953C86.8028 15.828 87.1288 31.2082 82.2389 52.3225C82.7723 52.1134 83.365 51.994 84.0466 51.994C84.995 51.994 85.7952 52.2329 86.4471 52.651C87.8696 45.2147 88.6402 34.8218 86.6249 11.9456H91.9001L104.11 29.8643L108.911 37.0617L131.019 70.0919L135.05 70.1217C135.465 70.1516 135.702 69.7036 135.465 69.3751ZM81.2609 4.56902C81.2609 3.31471 82.2685 2.26945 83.5428 2.26945H89.7367C90.9814 2.26945 92.0186 3.28485 92.0186 4.56902V8.27223H81.2905V4.56902H81.2609ZM55.4482 59.9678C56.0409 59.2212 58.797 53.6365 58.797 53.6365L58.9452 56.8917C58.9748 57.3397 59.1823 57.728 59.5379 57.9669L61.731 59.5198C59.2416 58.4447 55.4482 59.9678 55.4482 59.9678Z" fill="#30422E"/>
<path d="M70.8886 13.021L52.0699 15.6491C49.1953 15.9477 46.3206 16.0373 43.4459 15.888L36.3037 15.9477L0 70.1519H35.4739L71.8369 14.6337C72.3407 13.8871 71.748 12.9314 70.8886 13.021Z" fill="#30422E"/>
<path d="M100.433 34.5044C93.7058 21.3341 89.8261 12.0352 89.8261 12.0352C91.3079 21.7113 94.716 29.6851 97.3832 36.1657C97.887 35.4191 99.4847 34.8627 100.433 34.5044Z" fill="#30422E"/>
<path d="M116.676 61.8498C116.261 59.9684 115.609 59.8788 114.275 56.8027C112.941 53.7267 110.185 51.7855 109.148 50.9791C108.763 50.6805 108.437 50.3221 108.14 49.9339C107.933 49.6651 107.755 49.247 107.429 49.0678C107.074 48.8587 106.57 48.9782 106.184 48.9782C106.184 48.9782 105.533 48.5004 106.214 47.3058C106.896 46.1112 108.289 45.3049 107.37 42.5573C106.481 39.7799 104.703 38.9138 102.836 38.3763C100.939 37.8686 100.406 37.8387 98.1236 39.541C95.8416 41.2134 94.6266 41.8107 95.0118 43.8116C95.3971 45.8126 97.0863 46.6786 97.0271 47.3954C96.9382 48.1121 96.79 48.8289 96.5233 49.4262C96.2565 50.0235 97.4716 50.0235 97.6494 50.1429C97.8272 50.2624 97.5901 50.561 97.768 50.7701C97.9458 50.9791 98.3014 50.8298 98.3903 51.009C98.4792 51.1882 98.7459 51.7257 98.9534 51.8153C99.1905 51.9049 100.643 51.9647 101.739 51.3674C102.569 50.9194 102.865 51.9945 102.569 52.5022C102.273 53.0099 101.65 54.1448 101.591 55.3991C101.502 56.6534 101.739 56.952 101.739 57.3104C101.739 57.6688 102.065 58.2362 101.798 58.8335C101.502 59.4308 101.295 59.4905 101.206 60.2969C101.117 61.1032 100.494 60.5059 100.287 61.3421C100.08 62.1783 99.6943 62.2978 99.4275 62.3575C99.1608 62.4173 98.4199 62.7458 98.3014 63.1041C98.1828 63.4625 98.1829 64.448 97.3234 63.9403C96.464 63.4028 94.8637 63.2236 93.856 64.239C92.8781 65.2544 93.0559 67.763 94.2413 68.8083C95.4267 69.8535 96.2565 70.2119 97.353 70.2418C98.4496 70.2716 114.275 70.1522 114.275 70.1522C114.275 70.1522 114.394 70.182 114.868 69.5549C115.342 68.9277 115.964 68.2408 115.905 66.9865C115.846 65.7322 115.194 65.4933 115.579 64.8064C115.935 64.1195 117.09 63.7313 116.676 61.8498Z" fill="#30422E"/>
</g>
<defs>
<clipPath id="clip0_428_6342">
<rect width="135.554" height="70.2415" fill="white"/>
</clipPath>
</defs>
</svg>
