<svg width="262" height="262" viewBox="0 0 262 262" fill="none" xmlns="http://www.w3.org/2000/svg">
<circle cx="131.042" cy="131.411" r="121.464" fill="white"/>
<path fill-rule="evenodd" clip-rule="evenodd" d="M112.749 74.1931C112.749 75.153 112.037 77.1615 110.729 79.8933C109.144 83.2027 108.674 84.6425 108.545 86.5784C108.361 89.3565 109.02 92.646 109.762 92.646C110.366 92.646 112.866 89.8428 113.547 88.4013C113.823 87.8186 114.266 86.4807 114.533 85.4283C114.97 83.7018 115.022 83.6427 115.053 84.8273C115.102 86.6689 114.238 89.565 113.006 91.6903C112.431 92.6833 112.146 93.4954 112.374 93.4954C113.222 93.4954 115.009 92.2187 116.158 90.7929C119.309 86.8817 118.864 80.8557 114.986 74.9385C113.401 72.5197 112.749 72.3027 112.749 74.1931ZM156.793 74.6624C156.793 75.0889 156.162 76.4356 155.391 77.6559C153.47 80.6947 153.07 82.8604 153.895 85.7591C154.164 86.7054 156.309 85.1556 157.16 83.4006C157.582 82.5287 157.935 82.1125 157.945 82.4756C157.954 82.8387 157.44 84.0335 156.802 85.1301C155.497 87.3722 155.886 87.7065 157.997 86.1562C159.848 84.7963 160.373 83.5094 160.154 80.8685C159.881 77.5828 156.793 71.8814 156.793 74.6624ZM127.95 76.6769C127.95 77.0039 127.513 78.2942 126.98 79.5438C125.924 82.0148 125.799 83.0927 126.379 84.7529C126.825 86.0318 127.5 85.8695 128.482 84.2475C129.12 83.1938 129.124 83.5149 128.493 85.2133C128.121 86.2144 129.055 85.9592 130.157 84.758C131.044 83.7922 131.14 83.4015 130.987 81.3909C130.864 79.7684 130.509 78.6811 129.752 77.599C128.645 76.0169 127.95 75.6614 127.95 76.6769ZM141.942 77.8427C139.062 80.0279 137.379 83.5981 138.043 86.1197C138.44 87.6262 139.586 89.6729 140.033 89.6729C140.198 89.6729 140.272 88.3826 140.198 86.806C140.07 84.0793 140.08 84.039 140.409 85.9834C140.599 87.1076 141.019 88.4671 141.342 89.0044C141.881 89.8997 141.85 90.152 140.981 92.0229C140.46 93.1454 140.033 94.7963 140.033 95.6908C140.033 97.0601 140.162 97.3179 140.851 97.3179C142.164 97.3179 144.223 96.0645 145.487 94.4952C146.132 93.6954 146.659 93.1947 146.659 93.382C146.659 94.1962 144.621 96.8838 143.359 97.7337C141.67 98.8715 141.604 99.4415 143.164 99.4415C144.732 99.4415 146.919 98.4141 147.891 97.2202C148.526 96.44 148.507 96.5394 147.791 97.7426C146.322 100.209 144.325 102.47 140.826 105.631C138.996 107.284 137.008 109.34 136.406 110.199C133.795 113.933 131.89 120.456 131.171 128.124L130.853 131.508L129.724 129.597C127.537 125.893 127.152 123.069 128.178 118.262C128.894 114.909 128.729 113.121 127.533 111.292C126.72 110.047 123.858 107.511 123.267 107.511C123.114 107.511 123.404 108.404 123.911 109.494C125.074 112 125.125 115.326 124.054 119.04C123.626 120.525 123.142 121.964 122.977 122.238C122.788 122.555 121.646 121.08 119.854 118.204C115.278 110.858 110.728 106.078 103.835 101.374C99.0379 98.0998 94.6379 95.5341 94.3529 95.8445C94.259 95.9469 93.4993 95.6517 92.6645 95.1879C91.83 94.7241 90.3512 94.3253 89.3783 94.3015L87.6092 94.2582L88.8603 93.8203C89.7973 93.4924 90.7024 93.5447 92.4657 94.0284C95.0986 94.7513 95.3683 94.4523 93.7122 92.6477C90.3032 88.9335 84.0989 90.8201 80.3864 96.6999C79.7499 97.7082 79.2292 98.618 79.2292 98.7224C79.2292 98.8269 79.9744 98.8256 80.8857 98.719C81.797 98.6129 83.5875 98.8273 84.8652 99.196C88.2503 100.172 90.4213 100.055 92.7946 98.7666C93.9086 98.1614 94.8199 97.3918 94.8199 97.0563C94.8199 96.6332 95.4053 96.8753 96.7278 97.8462C100.874 100.889 107.81 107.792 107.417 108.485C107.282 108.722 107.357 108.792 107.583 108.64C108.419 108.077 115.796 118.151 119.351 124.709C121.064 127.868 123.192 132.509 124.104 135.072C124.439 136.015 124.412 136.045 123.725 135.496C115.159 128.652 111.566 126.683 106.35 125.973C103.5 125.584 103.543 126.271 106.415 126.997C110.647 128.065 114.2 130.33 117.827 134.269C121.607 138.374 123.497 141.852 124.875 147.242C126.309 152.848 125.949 160.138 124.047 164.011C123.651 164.817 123.746 165.115 124.774 166.274C125.424 167.009 126.478 168.851 127.114 170.37C128.787 174.36 129.017 175.737 127.461 172.449C123.693 164.484 118.026 159.627 109.568 157.112C106.693 156.257 105.419 156.146 98.5227 156.146C92.6048 156.145 89.7888 156.334 86.8296 156.93C73.8114 159.552 58.3778 165.332 44.1501 172.914C39.3317 175.481 40.344 175.309 45.904 172.615C59.1967 166.174 70.7537 162.126 82.1524 159.916C87.5827 158.864 99.6288 158.84 103.882 159.875C113.83 162.293 121.369 168.105 125.21 176.316C125.831 177.644 125.435 177.18 123.294 174.074C120.222 169.618 115.473 166.106 109.661 163.992C98.5882 159.965 84.3226 161.747 66.6315 169.368C60.9841 171.8 54.3631 175.183 53.6994 175.976C53.2157 176.553 53.1272 176.59 59.7408 173.423C86.1277 160.786 106.167 160.541 117.457 172.716C118.653 174.005 120.036 175.846 120.532 176.806L121.432 178.553L119.375 176.781C116.692 174.47 111.739 171.879 107.856 170.756C103.549 169.51 96.1455 169.205 91.4718 170.081C87.6883 170.791 78.7244 173.777 79.4977 174.07C79.7522 174.166 81.3386 173.771 83.0228 173.192C87.4809 171.657 90.555 171.148 95.3952 171.142C103.104 171.131 109.191 172.96 114.902 177.003L117.232 178.652L81.3729 178.868C47.2132 179.073 44.8649 179.142 59.7408 179.504C86.8671 180.163 95.5343 180.563 106.318 181.649C116.585 182.683 125.466 184.46 124.947 185.377C124.817 185.605 124.908 185.659 125.148 185.497C125.669 185.146 128.265 186.518 129.19 187.633C129.55 188.067 130.036 188.97 130.27 189.64L130.694 190.857L131.593 189.002C132.934 186.23 135.546 184.829 142.137 183.346C152.195 181.083 180.296 179.289 205.683 179.289C211.667 179.289 216.427 179.122 216.427 178.913C216.427 178.697 201.227 178.506 180.874 178.466C161.319 178.428 145.265 178.336 145.197 178.262C145.01 178.058 150.133 174.766 152.116 173.816C156.649 171.645 159.777 171.042 166.537 171.035C172.313 171.03 173.379 171.148 176.998 172.191C179.214 172.831 181.378 173.558 181.806 173.807C182.234 174.057 182.684 174.152 182.806 174.02C183.08 173.72 181.061 172.788 177.577 171.605C176.114 171.109 174.654 170.603 174.333 170.482C174.011 170.36 173.397 170.221 172.968 170.172C172.54 170.124 170.435 169.843 168.291 169.548C159.256 168.308 150.382 170.662 143.217 176.2L140.749 178.107L141.419 176.681C142.619 174.127 147.405 169.451 150.819 167.497C155.359 164.899 158.994 163.968 165.71 163.688C176.431 163.24 187.982 166.198 202.201 173.035C208.137 175.89 208.333 175.97 208.034 175.443C207.62 174.713 200.236 171.036 194.016 168.462C184.271 164.429 177.901 162.702 169.576 161.832C156.004 160.414 143.819 165.564 137.836 175.245C136.352 177.647 136.092 177.605 137.384 175.172C143.79 163.119 156.724 157.268 173.432 158.864C186.737 160.136 201.246 164.807 217.942 173.196C219.526 173.991 220.904 174.553 221.003 174.444C221.484 173.921 203.986 165.665 196.354 162.813C182.516 157.643 173.628 155.737 163.419 155.754C157.703 155.763 156.03 155.918 153.09 156.71C144.632 158.987 138.285 164.324 134.823 172.069C132.83 176.528 132.666 176.712 133.754 173.266C134.712 170.231 135.411 168.788 137.078 166.409L138.444 164.459L137.695 162.613C135.166 156.383 135.96 144.907 139.518 136.281C140.919 132.884 143.77 127.898 144.311 127.898C144.458 127.898 144.813 127.42 145.1 126.837C145.386 126.253 145.679 125.838 145.749 125.915C145.82 125.992 146.628 125.275 147.545 124.322C149.426 122.366 152.659 120.519 155.669 119.679C156.785 119.368 157.538 119.005 157.343 118.874C157.147 118.742 155.392 118.498 153.443 118.332C147.898 117.86 143.999 119.406 139.774 123.756C137.425 126.175 137.36 126.084 137.747 120.9C138.233 114.4 139.836 111.193 145.806 104.783C150.36 99.893 151.634 97.4075 151.996 92.7037C152.288 88.8961 151.682 88.5168 150.555 91.802C150.075 93.2006 149.656 94.3448 149.625 94.3448C149.593 94.3448 149.622 92.959 149.688 91.2656C149.815 88.045 149.115 84.1159 148.365 83.8483C148.125 83.7625 147.842 84.0479 147.738 84.4833C147.633 84.9182 146.503 86.1401 145.226 87.1985L142.904 89.1225L143.642 87.5926C144.265 86.2998 144.333 85.602 144.08 83.0897C143.916 81.4546 143.793 79.3042 143.807 78.3116C143.821 77.3191 143.804 76.5066 143.768 76.5066C143.733 76.5066 142.911 77.108 141.942 77.8427ZM99.6366 81.6533C98.1212 84.4518 97.3877 87.2159 97.3877 90.1269C97.3877 92.5992 97.533 93.1815 98.4938 94.5538C99.6179 96.1597 101.522 97.3179 103.038 97.3179C103.797 97.3179 103.743 97.1582 102.448 95.5969C100.983 93.8297 100.258 92.2854 100.301 91.0256C100.318 90.5589 100.461 90.6791 100.714 91.3718C101.487 93.492 104.823 96.4442 105.745 95.8237C106.254 95.4805 106.227 90.8753 105.706 89.382C105.477 88.7245 104.418 87.0936 103.352 85.7574C102.285 84.4217 101.19 82.6255 100.917 81.7667L100.421 80.2046L99.6366 81.6533ZM120.569 88.197C119.242 91.134 118.705 94.4922 119.149 97.0728C119.494 99.0762 121.409 101.427 122.997 101.797C123.685 101.957 124.467 102.28 124.735 102.516C125.705 103.367 125.235 101.727 124.21 100.683C123.043 99.4946 122.318 98.0662 121.964 96.2561C121.717 94.9947 121.722 94.9968 122.457 96.4765C123.838 99.2567 126.601 101.48 127.481 100.518C128.011 99.938 127.724 94.9989 127.085 93.7078C126.738 93.007 125.642 91.4024 124.648 90.1422C123.654 88.8821 122.741 87.3051 122.619 86.6383C122.496 85.9715 122.267 85.4257 122.108 85.4257C121.95 85.4257 121.257 86.6727 120.569 88.197ZM133.834 89.6045C130.481 93.3034 129.421 97.2843 130.954 100.418C131.319 101.166 131.582 101.921 131.538 102.096C131.494 102.271 131.59 102.374 131.75 102.324C131.911 102.275 132.452 102.481 132.953 102.784C134.151 103.506 134.368 103.188 133.686 101.711C132.979 100.182 132.559 97.3179 133.042 97.3179C133.242 97.3179 133.407 97.7129 133.407 98.1954C133.407 99.6738 135.326 102.839 136.222 102.839C136.807 102.839 138.067 99.3069 138.076 97.6411C138.08 96.7674 137.72 95.0473 137.276 93.8186C136.831 92.5895 136.338 90.6285 136.179 89.4606L135.889 87.337L133.834 89.6045ZM162.445 88.5385C160.471 89.5209 158.951 91.1943 157.979 93.4555C157.468 94.6443 157.162 95.7379 157.298 95.8866C157.435 96.0352 158.171 95.5591 158.934 94.8286C160.62 93.2164 162.756 92 164.588 91.6096C165.8 91.3514 165.716 91.4525 163.827 92.5134C162.659 93.1705 161.415 93.8836 161.063 94.0981C160.293 94.5687 158.18 98.5462 158.509 98.9055C158.638 99.0452 159.663 99.2406 160.788 99.3396C163.684 99.5944 166.668 98.2599 170.142 95.1573C171.696 93.7685 173.639 92.4332 174.459 92.1894C176.352 91.6271 175.991 91.0711 172.67 89.4359C169.768 88.0067 164.451 87.54 162.445 88.5385ZM111.405 94.6341C111.58 95.0588 111.83 97.3179 111.959 99.6539C112.088 101.99 112.391 104.283 112.633 104.751C113.351 106.139 115.382 108.05 115.825 107.752C116.472 107.316 117.06 104.372 116.817 102.79C116.623 101.534 116.655 101.457 117.073 102.179C117.336 102.634 117.541 104.122 117.529 105.486C117.511 107.615 117.589 107.893 118.077 107.451C119.046 106.575 119.765 104.655 119.765 102.943C119.765 99.6759 117.161 96.6256 112.6 94.55C111.155 93.8929 111.1 93.8968 111.405 94.6341ZM153.09 100.524C152.447 100.883 151.702 101.492 151.434 101.877C150.852 102.713 150.77 105.132 151.336 104.751C151.551 104.606 151.726 104.786 151.726 105.15C151.726 106 152.865 106 153.978 105.151C154.456 104.787 155.064 104.626 155.332 104.794C155.6 104.962 155.692 104.947 155.538 104.76C155.235 104.396 156.518 102.127 157.534 101.23C158.079 100.748 158.084 100.634 157.571 100.281C156.683 99.6696 154.398 99.794 153.09 100.524ZM93.8992 102.845C92.0634 104.601 91.2605 107.012 91.2469 110.808C91.2406 112.531 91.3256 114.039 91.4359 114.159C91.5466 114.279 91.9851 113.998 92.4107 113.534C92.8363 113.07 94.3385 112.091 95.7491 111.357C97.2481 110.578 98.6985 109.458 99.241 108.661C100.291 107.12 101.154 104.629 100.834 104.065C100.243 103.023 96.7305 104.152 95.2167 105.872C94.4788 106.71 94.3997 106.734 94.7357 106.02C95.3192 104.779 96.4031 103.812 98.0499 103.062C100.101 102.128 99.8444 101.565 97.367 101.565C95.5538 101.565 95.0378 101.755 93.8992 102.845ZM170.336 102.157C169.96 102.468 168.319 102.854 166.689 103.015C162.845 103.395 160.986 104.239 159.317 106.364C158.572 107.312 157.962 108.215 157.962 108.369C157.962 108.916 159.971 109.635 161.501 109.635C162.355 109.635 163.663 109.358 164.406 109.019C166.234 108.187 166.119 108.567 164.224 109.621C163.38 110.09 161.846 110.523 160.813 110.585C159.781 110.646 158.961 110.879 158.991 111.103C159.085 111.805 161.597 113.033 162.941 113.033C164.428 113.033 166.909 111.763 168.127 110.378C169.23 109.124 171.604 103.768 171.604 102.533C171.604 101.433 171.315 101.348 170.336 102.157ZM129.694 106.178C127.969 109.018 127.925 112.183 129.588 113.87C130.79 115.092 131.632 115.036 131.025 113.776C130.579 112.849 130.588 112.842 131.335 113.563C132.489 114.678 132.953 114.474 133.255 112.719C133.445 111.614 133.32 110.548 132.845 109.215C132.469 108.161 131.96 106.677 131.714 105.918C131.468 105.16 131.137 104.538 130.978 104.538C130.82 104.538 130.242 105.276 129.694 106.178ZM153.675 107.759C153.139 108.083 151.931 108.351 150.992 108.354C150.052 108.358 148.617 108.578 147.803 108.844C146.058 109.414 143.334 112.257 143.656 113.173C143.954 114.017 146.627 114.46 147.997 113.893C148.607 113.64 149.193 113.529 149.3 113.646C149.606 113.979 147.414 114.805 145.582 115.048C143.529 115.32 143.89 116.07 146.451 116.851C148.01 117.327 148.348 117.287 149.962 116.436C152.044 115.338 153.434 113.515 154.483 110.505C155.665 107.115 155.525 106.64 153.675 107.759ZM119.765 111.436C119.765 113.56 119.957 114.841 120.372 115.486C121.164 116.719 121.468 116.677 122.014 115.262C122.318 114.472 122.397 114.403 122.258 115.05C122.144 115.575 122.232 116.006 122.453 116.006C123.02 116.006 123.663 114.561 123.663 113.288C123.663 112.184 121.795 109.515 120.491 108.754C119.814 108.359 119.765 108.539 119.765 111.436ZM181.118 109.196C180.923 109.402 179.468 109.765 177.884 110.001C175.439 110.366 174.807 110.64 173.694 111.815C171.741 113.878 172.07 114.731 174.819 114.731C175.48 114.731 175.916 114.846 175.788 114.986C175.659 115.126 174.928 115.241 174.164 115.241C173.399 115.241 172.773 115.408 172.773 115.612C172.773 116.089 174.875 117.28 175.716 117.28C177.879 117.28 180.347 114.615 181.506 111.026C182.062 109.309 181.869 108.4 181.118 109.196ZM101.154 110.257C99.0547 111.321 98.4934 112.183 99.8989 112.183C100.335 112.183 100.783 112.444 100.895 112.762C101.007 113.081 102.01 113.843 103.124 114.455C104.688 115.315 105.481 115.508 106.61 115.307C107.414 115.163 108.072 114.866 108.072 114.648C108.072 113.801 107.226 112.596 106.211 111.996C105.627 111.651 105.344 111.36 105.581 111.351C105.82 111.341 106.653 111.806 107.433 112.383C108.809 113.4 108.852 113.405 108.852 112.562C108.852 112.084 108.339 111.134 107.712 110.452C106.246 108.854 104.047 108.789 101.154 110.257ZM176.671 114.307C176.32 114.554 176.272 114.721 176.551 114.725C176.806 114.728 177.123 114.54 177.256 114.307C177.555 113.779 177.42 113.779 176.671 114.307ZM162.869 115.654C162.031 115.856 160.715 116.447 159.946 116.969L158.547 117.917L161.721 118.204C163.707 118.383 165.485 118.818 166.469 119.366C168.762 120.64 168.8 121.151 166.533 120.212C164.107 119.207 161.359 119.194 159.352 120.176L157.819 120.927L159.289 122.701C161.57 125.451 164.152 126.61 169.117 127.111C173.494 127.553 175.887 128.31 175.897 129.256C175.902 129.682 175.983 129.673 176.247 129.217C176.659 128.509 175.544 124.74 174.163 122.173C173.001 120.012 170.035 116.979 168.365 116.243C166.555 115.445 164.605 115.236 162.869 115.654ZM96.4405 120.444C96.5501 122.807 96.7921 123.909 97.3978 124.797C98.5359 126.467 99.9251 127.236 101.18 126.893C102.277 126.593 102.63 125.774 101.663 125.774C101.353 125.774 100.687 125.344 100.182 124.819C99.6772 124.293 99.5357 124.079 99.8678 124.344C100.765 125.058 102.036 125.402 102.72 125.116C103.195 124.918 103.251 124.585 102.982 123.561C102.518 121.799 101.602 120.78 99.3813 119.552C98.3531 118.984 97.4134 118.24 97.2933 117.899C97.1733 117.559 96.8993 117.28 96.6845 117.28C96.4452 117.28 96.3505 118.506 96.4405 120.444ZM113.084 121.219C112.099 121.716 109.241 124.274 109.241 124.658C109.241 125.099 111.853 125.774 113.559 125.774C115.107 125.774 115.557 125.585 116.229 124.655C117.019 123.56 117.3 122.376 116.769 122.376C116.622 122.376 116.054 122.806 115.506 123.332C114.545 124.253 114.535 124.254 115.222 123.363C116.682 121.473 115.308 120.096 113.084 121.219ZM152.116 125.498C152.116 126.65 153.881 129.468 155.439 130.804C157.049 132.184 155.974 131.905 154.159 130.472C153.289 129.785 152.26 128.638 151.873 127.924C151.485 127.208 151.008 126.624 150.813 126.624C150.22 126.624 150.914 130.15 151.756 131.411C152.187 132.058 152.437 132.773 152.308 132.999C152.18 133.225 152.319 133.307 152.618 133.183C152.916 133.058 153.387 133.253 153.664 133.617C155.015 135.391 160.353 135.942 163.736 134.657C165.157 134.118 165.325 133.596 164.203 133.208C163.777 133.061 162.345 131.496 161.022 129.73C158.437 126.285 155.847 124.512 153.382 124.504C152.312 124.501 152.116 124.654 152.116 125.498ZM92.9817 128.058L91.545 129.493L93.5496 129.794C94.6519 129.959 95.8956 129.976 96.3131 129.832C97.3639 129.468 97.6558 127.566 96.743 127.033C95.4969 126.307 94.4504 126.592 92.9817 128.058ZM100.424 128.316C99.1377 128.882 97.938 132.027 97.938 134.833V137.254L99.3996 136.28C100.204 135.745 101.384 135.02 102.022 134.67C103.346 133.945 105.038 131.447 104.865 130.472C104.701 129.543 103.593 129.427 102.186 130.191C101.272 130.688 101.085 130.707 101.42 130.268C101.663 129.949 102.394 129.448 103.044 129.154C103.905 128.766 104.087 128.524 103.713 128.266C103.065 127.818 101.501 127.842 100.424 128.316ZM109.241 130.865C109.241 131.096 109.834 131.554 110.558 131.884C111.282 132.213 112.003 132.709 112.16 132.986C112.33 133.286 111.964 133.218 111.252 132.817C109.909 132.06 108.622 131.945 108.278 132.55C108.152 132.772 108.361 133.68 108.742 134.567C109.262 135.775 109.965 136.472 111.546 137.344C112.706 137.984 113.977 138.826 114.371 139.215C114.765 139.604 115.101 139.844 115.117 139.75C115.133 139.655 115.225 139.107 115.322 138.531C115.64 136.64 114.714 133.103 113.543 131.736C112.658 130.705 112.116 130.446 110.839 130.446C109.96 130.446 109.241 130.635 109.241 130.865ZM145.49 131.536C145.49 132.166 145.855 133.326 146.301 134.112C146.747 134.899 147.018 135.543 146.902 135.543C146.786 135.543 146.202 134.635 145.604 133.525C144.531 131.538 144.513 131.526 144.387 132.727C144.006 136.366 146.651 138.831 151.021 138.908C153.139 138.946 153.579 138.513 152.503 137.451C152.083 137.037 151.211 135.679 150.566 134.434C149.463 132.304 148.423 131.375 146.367 130.684C145.607 130.428 145.49 130.542 145.49 131.536Z" fill="#197065"/>
</svg>
