<svg width="179" height="26" viewBox="0 0 179 26" fill="none" xmlns="http://www.w3.org/2000/svg">
<path d="M68.2163 25.2799H57.4854C57.7956 24.999 58.0256 24.6353 58.1433 24.2314C58.3038 23.782 58.3867 23.3059 58.3867 22.8271V2.61168C58.3867 2.1329 58.3038 1.65948 58.1433 1.20745C58.0256 0.806248 57.7983 0.445162 57.4854 0.166992H62.5646C62.2544 0.447837 62.027 0.806248 61.9066 1.20745C61.7515 1.65948 61.6713 2.1329 61.6686 2.61168V23.1347H66.2798C66.7586 23.1294 67.232 23.0465 67.684 22.8913C68.0826 22.7683 68.4436 22.541 68.7245 22.2334L68.2163 25.2772V25.2799Z" fill="#F3ECDA"/>
<path d="M70.8428 5.03209C70.8428 4.55332 70.7599 4.0799 70.5994 3.62787C70.4817 3.22666 70.2543 2.86557 69.9414 2.5874H75.0207C74.7104 2.86825 74.4831 3.22666 74.3627 3.62787C74.2076 4.0799 74.1273 4.55332 74.1247 5.03209V22.8162C74.1247 23.295 74.2076 23.7684 74.3627 24.2205C74.4857 24.6217 74.7131 24.9828 75.0207 25.269H69.9414C70.2517 24.9881 70.4817 24.6243 70.5994 24.2205C70.7599 23.7711 70.8428 23.295 70.8428 22.8162V5.03209Z" fill="#F3ECDA"/>
<path d="M77.126 5.03209C77.126 4.55332 77.0431 4.0799 76.8826 3.62787C76.7649 3.22666 76.5376 2.86557 76.2246 2.5874H86.9556L87.4958 5.57773C87.2177 5.26479 86.8566 5.03744 86.4554 4.91975C86.006 4.75927 85.5299 4.67903 85.0512 4.67636H80.44V10.1301H83.3393C83.8208 10.1301 84.2969 10.0472 84.7489 9.88669C85.1501 9.76633 85.5085 9.53898 85.7894 9.22871V13.0963C85.5085 12.7861 85.1501 12.5587 84.7489 12.4384C84.2969 12.2779 83.8208 12.195 83.3393 12.195H80.44V22.7333C80.44 23.2121 80.5229 23.6855 80.6834 24.1376C80.8037 24.5414 81.0311 24.9025 81.3413 25.186H76.2621C76.5723 24.9052 76.8023 24.5414 76.92 24.1376C77.0805 23.6882 77.1634 23.2121 77.1634 22.7333L77.1233 5.03477L77.126 5.03209Z" fill="#F3ECDA"/>
<path d="M89.3057 5.03209C89.3057 4.55332 89.2228 4.0799 89.0623 3.62787C88.9446 3.22666 88.7172 2.86557 88.4043 2.5874H99.1352L99.6755 5.57773C99.3974 5.26479 99.0363 5.03744 98.6351 4.91975C98.1857 4.75927 97.7096 4.67903 97.2308 4.67636H92.6196V10.1301H95.519C96.0005 10.1301 96.4766 10.0472 96.9286 9.88669C97.3298 9.76633 97.6882 9.53898 97.9691 9.22871V13.0963C97.6882 12.7861 97.3298 12.5587 96.9286 12.4384C96.4766 12.2779 96.0005 12.195 95.519 12.195H92.6196V23.1426H97.2308C97.7096 23.1372 98.183 23.0543 98.6351 22.8992C99.0336 22.7761 99.3947 22.5488 99.6755 22.2412L99.162 25.285H88.431C88.7413 25.0042 88.9713 24.6404 89.089 24.2365C89.2495 23.7872 89.3324 23.3111 89.3324 22.8323L89.3057 5.03477V5.03209Z" fill="#F3ECDA"/>
<path d="M117.503 18.8445C117.516 19.7699 117.345 20.69 117.003 21.5513C116.69 22.3189 116.225 23.0197 115.639 23.6055C115.056 24.1859 114.355 24.6352 113.585 24.9241C112.758 25.2344 111.883 25.3868 111.004 25.3788C110.054 25.3895 109.11 25.221 108.224 24.8786C107.224 24.456 106.299 23.881 105.478 23.1722L106.906 19.6362C107.631 22.2708 108.968 23.5894 110.918 23.5894C111.231 23.576 111.541 23.5252 111.841 23.437C112.239 23.3219 112.608 23.1267 112.927 22.8646C113.309 22.5356 113.611 22.1264 113.815 21.6663C114.082 21.0217 114.205 20.3289 114.176 19.6308C114.176 18.4058 113.828 17.2022 113.175 16.1671C112.298 14.8618 111.207 13.7117 109.947 12.7675C108.639 11.7832 107.513 10.5769 106.62 9.20482C105.93 8.10016 105.563 6.82433 105.56 5.52174C105.47 3.97576 106.074 2.46722 107.208 1.41071C108.473 0.388972 110.081 -0.108523 111.699 0.0198628C112.697 0.00648923 113.686 0.188371 114.609 0.560156C114.983 0.712614 115.342 0.899843 115.682 1.11917C116.005 1.32245 116.318 1.54177 116.618 1.77715L115.203 4.85841C114.847 4.03995 114.363 3.28301 113.774 2.61166C113.25 2.08742 112.539 1.79855 111.798 1.80925C111.001 1.76912 110.233 2.10614 109.722 2.71865C109.145 3.45687 108.856 4.37964 108.912 5.31311C108.957 6.15297 109.265 6.95539 109.789 7.61069C110.578 8.65116 111.501 9.58463 112.528 10.3897C113.36 11.0718 114.141 11.81 114.866 12.6017C115.454 13.2329 115.968 13.9257 116.401 14.6693C116.776 15.3139 117.062 16.0039 117.257 16.7234C117.431 17.4135 117.514 18.125 117.5 18.8365L117.503 18.8445Z" fill="#F3ECDA"/>
<path d="M122.115 13.9176C122.115 17.3038 122.449 19.7565 123.115 21.2757C123.581 22.6612 124.889 23.5867 126.349 23.5626C127.298 23.568 128.219 23.2229 128.93 22.5944C129.805 21.7545 130.428 20.6873 130.727 19.5131L131.484 23.4128C130.757 24.0494 129.922 24.5576 129.021 24.908C128.133 25.2263 127.197 25.3868 126.255 25.3761C121.213 25.3761 118.697 21.5592 118.699 13.9229C118.699 10.1783 119.333 7.32443 120.604 5.3612C121.789 3.44878 123.915 2.32807 126.162 2.42971C127.084 2.39494 128.005 2.54205 128.868 2.86569C129.564 3.17863 130.211 3.59054 130.786 4.09071L129.152 7.02219C128.612 5.17129 127.59 4.24316 126.103 4.24316C123.441 4.25119 122.112 7.47957 122.112 13.9256L122.115 13.9176Z" fill="#F3ECDA"/>
<path d="M144.001 7.6027C144.028 8.63782 143.766 9.65956 143.244 10.5529C142.706 11.4035 141.941 12.0882 141.037 12.5295C141.722 14.9662 142.321 16.9909 142.835 18.6011C143.244 19.9278 143.717 21.233 144.258 22.5142C144.573 23.3006 144.985 24.0468 145.483 24.7342C145.798 25.1675 146.21 25.5179 146.689 25.7613C146.266 25.8202 145.846 25.8656 145.424 25.887C145.001 25.9084 144.576 25.8656 144.167 25.7613C143.739 25.657 143.332 25.4832 142.96 25.2478C142.538 24.9803 142.169 24.6326 141.875 24.226C141.005 22.9395 140.363 21.5139 139.97 20.0107C139.435 18.1785 138.775 15.9853 137.994 13.4229C137.817 13.4229 137.632 13.463 137.453 13.4683C137.274 13.4737 137.079 13.4683 136.873 13.4683H136.603V22.8004C136.603 23.2792 136.686 23.7526 136.846 24.2046C136.966 24.6085 137.194 24.9696 137.504 25.2531H132.425C132.735 24.9696 132.962 24.6085 133.083 24.2046C133.238 23.7526 133.318 23.2792 133.321 22.8004V5.01626C133.318 4.54016 133.238 4.06406 133.083 3.61203C132.962 3.21083 132.735 2.85242 132.425 2.57157H137.694C138.764 2.53947 139.831 2.69194 140.85 3.02628C141.562 3.27235 142.209 3.67088 142.747 4.1978C143.199 4.64715 143.536 5.20349 143.728 5.81065C143.905 6.38838 143.996 6.99019 143.998 7.59468L144.001 7.6027ZM136.605 11.9571C137.285 11.9812 137.959 11.8528 138.582 11.5827C139.069 11.358 139.499 11.029 139.839 10.6144C140.144 10.2239 140.369 9.77724 140.497 9.2958C140.62 8.81167 140.684 8.31418 140.687 7.81401C140.74 6.83506 140.43 5.86949 139.81 5.1072C139.189 4.43852 138.304 4.07743 137.392 4.12558H136.6V11.9571H136.605Z" fill="#F3ECDA"/>
<path d="M148.171 5.03209C148.169 4.55599 148.088 4.0799 147.933 3.62787C147.813 3.22666 147.586 2.86825 147.275 2.5874H152.355C152.042 2.86557 151.814 3.22666 151.697 3.62787C151.536 4.07722 151.456 4.55332 151.453 5.03209V22.8162C151.453 23.295 151.536 23.7684 151.697 24.2205C151.817 24.6243 152.044 24.9854 152.355 25.269H147.275C147.586 24.9854 147.813 24.6243 147.933 24.2205C148.088 23.7684 148.169 23.295 148.171 22.8162V5.03209Z" fill="#F3ECDA"/>
<path d="M165.183 7.60272C165.249 9.24232 164.559 10.8204 163.313 11.8849C162.061 12.9388 160.304 13.4657 158.044 13.4657H157.774V22.8058C157.774 23.2846 157.857 23.758 158.017 24.21C158.137 24.6139 158.365 24.975 158.675 25.2585H153.596C153.906 24.975 154.133 24.6139 154.254 24.21C154.409 23.758 154.489 23.2846 154.492 22.8058V5.02163C154.489 4.54553 154.409 4.06943 154.254 3.6174C154.133 3.2162 153.906 2.85779 153.596 2.57694H158.865C159.935 2.54485 161.002 2.6973 162.021 3.03164C162.738 3.27504 163.39 3.67625 163.931 4.20317C164.391 4.65787 164.733 5.21956 164.926 5.83742C165.097 6.4098 165.183 7.00359 165.183 7.60272ZM157.779 11.9572C158.458 11.9812 159.132 11.8528 159.756 11.5827C160.229 11.3527 160.644 11.0237 160.975 10.6145C161.28 10.2239 161.505 9.77726 161.633 9.29582C161.762 8.81169 161.828 8.3142 161.831 7.81403C161.898 6.82706 161.593 5.85346 160.975 5.08047C160.352 4.41179 159.464 4.05338 158.552 4.09885H157.768L157.782 11.9572H157.779Z" fill="#F3ECDA"/>
<path d="M169.866 25.28C170.176 24.9965 170.404 24.6354 170.524 24.2315C170.679 23.7795 170.76 23.3061 170.762 22.8273V4.70077H168.219C167.737 4.70077 167.261 4.78368 166.809 4.94416C166.408 5.06453 166.047 5.29188 165.769 5.60214L166.314 2.61182H178.46L179 5.60214C178.722 5.2892 178.361 5.06185 177.96 4.94416C177.511 4.78368 177.034 4.70344 176.556 4.70077H174.047V22.8005C174.047 23.2793 174.13 23.7527 174.29 24.2048C174.411 24.6086 174.638 24.9697 174.948 25.2533L169.864 25.28H169.866Z" fill="#F3ECDA"/>
<g clip-path="url(#clip0_386_12312)">
<path d="M48.9862 25.0873L34.1863 2.98071V1.38238C34.1863 0.550816 33.4683 -0.0863552 32.6539 4.0926e-05H28.9673C28.5065 4.0926e-05 28.0456 0.02164 27.5848 0.086437L14.3496 2.42993C13.6531 2.50553 13.1279 3.0995 13.1279 3.81227V5.77778L27.617 3.94186C27.8527 3.99586 27.9921 4.28745 27.842 4.51424L14.0174 25.1629C13.996 25.1845 13.9746 25.2169 13.9638 25.2493L13.8674 25.3897H14.0817C14.1032 25.3897 14.1139 25.3897 14.1353 25.3897H14.3604L16.418 25.4113H16.5037L29.3745 25.4005C29.3745 25.4005 29.9961 24.9361 30.0068 24.4069C30.0068 24.3205 29.9961 24.2341 29.9747 24.137L33.4683 21.7179V21.3291C33.0397 20.4543 31.5715 20.2491 31.5715 20.2491C31.5715 20.2491 31.2392 19.6552 29.9425 19.4932L27.5634 21.6423C27.3919 21.5883 27.3812 21.6855 27.1454 21.7395C26.8668 21.8043 26.8132 21.8583 26.631 21.8583C26.4489 21.8583 26.4596 21.7071 26.2774 21.7071C26.0952 21.7071 26.1274 21.5343 26.0523 21.4371C25.9773 21.3291 25.7844 21.4479 25.6237 21.1995C25.4308 20.8971 25.2486 20.7351 25.0771 20.5839C24.9378 20.4543 24.7985 20.3247 24.6377 20.2059C24.5198 20.1195 24.477 20.0547 24.552 19.9251C24.6377 19.7632 24.4984 19.666 24.4448 19.6228C24.402 19.5904 24.3912 19.4932 24.5306 19.45C24.6699 19.4068 24.5306 17.1389 24.5306 16.7933C24.5306 16.4477 24.7985 16.1993 24.8306 15.8861C24.8628 15.5729 25.0985 15.3245 25.2486 14.9466C25.4093 14.5686 25.2593 13.7694 25.2593 13.7694C25.2593 13.7694 25.5379 12.5059 25.8166 13.413C26.0952 14.3202 26.5239 14.4822 26.7382 14.4822C26.7489 14.4822 26.7489 14.4714 26.7596 14.4714C26.8668 14.493 26.9954 14.4606 27.0704 14.3634C27.1776 14.223 27.2205 14.0286 27.4026 13.953C27.4348 13.9422 27.4455 13.8558 27.4669 13.7802C27.617 14.0394 27.7884 13.8666 27.9492 13.8234C28.2171 14.2014 28.3672 14.1906 28.5922 13.7802C28.6458 13.683 28.6672 13.575 28.7208 13.4778C28.7744 13.3914 28.8387 13.3158 28.9459 13.197C29.0316 13.521 29.1923 13.7262 29.4174 13.8558C29.471 13.8882 29.5353 13.9206 29.5996 13.9314C29.8139 13.9746 29.8782 13.9098 29.8461 13.6938C29.8246 13.575 29.7925 13.467 29.9318 13.4022C29.9639 13.3914 29.9747 13.3482 29.9854 13.3158C30.1997 12.7327 30.3283 12.1171 30.2319 11.5123C30.1247 10.8751 29.9104 10.2704 29.4388 9.7952C29.2138 9.56841 28.9673 9.40642 28.6458 9.36322C28.5493 9.35242 28.4743 9.28762 28.3779 9.26602C28.3243 9.25522 28.26 9.25522 28.2064 9.24442C28.2171 9.25522 28.2278 9.26602 28.2386 9.28762C27.8849 9.20123 27.5634 9.27682 27.049 9.37402C26.6418 9.44961 26.2667 9.6764 25.9988 9.98959L29.546 4.29825H29.696C29.5674 4.71943 29.053 6.32856 28.0028 8.61805C28.1314 8.65045 28.26 8.69365 28.3672 8.74765C28.8708 7.35451 29.3317 5.86418 29.696 4.29825H30.4033C30.2533 5.11901 29.9211 6.80373 29.3852 9.22283C29.7067 9.27682 29.9747 9.41722 30.1783 9.61161C30.4355 8.03488 30.607 6.29616 30.5212 4.30905H31.3143C31.3893 5.72378 31.5072 11.2855 29.7389 18.9208C29.9318 18.8452 30.1461 18.802 30.3926 18.802C30.7356 18.802 31.0249 18.8884 31.2607 19.0396C31.7751 16.3505 32.0537 12.5923 31.325 4.31985H33.2326L37.6479 10.7996L39.384 13.4022L47.3787 25.3465L48.8362 25.3573C48.9862 25.3681 49.0719 25.2061 48.9862 25.0873ZM29.3852 1.65237C29.3852 1.19879 29.7496 0.820804 30.2104 0.820804H32.4502C32.9003 0.820804 33.2754 1.18799 33.2754 1.65237V2.99151H29.396V1.65237H29.3852ZM20.051 21.6855C20.2653 21.4155 21.2619 19.396 21.2619 19.396L21.3155 20.5731C21.3262 20.7351 21.4013 20.8755 21.5299 20.9619L22.3229 21.5235C21.4227 21.1347 20.051 21.6855 20.051 21.6855Z" fill="#F3ECDA"/>
<path d="M25.6345 4.70866L18.8293 5.65902C17.7898 5.76701 16.7503 5.79941 15.7108 5.74542L13.128 5.76702L0 25.3681H12.828L25.9774 5.29184C26.1596 5.02185 25.9453 4.67626 25.6345 4.70866Z" fill="#F3ECDA"/>
<path d="M36.3181 12.4773C33.8854 7.7147 32.4824 4.35205 32.4824 4.35205C33.0183 7.85109 34.2507 10.7346 35.2152 13.0781C35.3974 12.8081 35.9751 12.6069 36.3181 12.4773Z" fill="#F3ECDA"/>
<path d="M42.1915 22.3659C42.0415 21.6856 41.8057 21.6532 41.3234 20.5408C40.8412 19.4285 39.8445 18.7265 39.4694 18.4349C39.3301 18.3269 39.2122 18.1973 39.1051 18.0569C39.0301 17.9597 38.9658 17.8085 38.8479 17.7437C38.7193 17.6681 38.5371 17.7113 38.3978 17.7113C38.3978 17.7113 38.162 17.5385 38.4085 17.1066C38.655 16.6746 39.1587 16.383 38.8264 15.3894C38.5049 14.3851 37.8619 14.0719 37.1868 13.8775C36.5009 13.6939 36.308 13.6831 35.4828 14.2987C34.6576 14.9035 34.2182 15.1195 34.3576 15.843C34.4969 16.5666 35.1077 16.8798 35.0863 17.139C35.0541 17.3982 35.0006 17.6573 34.9041 17.8733C34.8077 18.0893 35.247 18.0893 35.3113 18.1325C35.3756 18.1757 35.2899 18.2837 35.3542 18.3593C35.4185 18.4349 35.5471 18.3809 35.5793 18.4457C35.6114 18.5105 35.7079 18.7049 35.7829 18.7373C35.8686 18.7697 36.3937 18.7913 36.7903 18.5753C37.0903 18.4133 37.1975 18.8021 37.0903 18.9857C36.9832 19.1693 36.7581 19.5797 36.7367 20.0332C36.7045 20.4868 36.7903 20.5948 36.7903 20.7244C36.7903 20.854 36.9081 21.0592 36.8117 21.2752C36.7045 21.4912 36.6295 21.5128 36.5974 21.8044C36.5652 22.0959 36.3402 21.88 36.2651 22.1823C36.1901 22.4847 36.0508 22.5279 35.9544 22.5495C35.8579 22.5711 35.59 22.6899 35.5471 22.8195C35.5042 22.9491 35.5042 23.3055 35.1935 23.1219C34.8827 22.9275 34.304 22.8627 33.9396 23.2299C33.586 23.5971 33.6503 24.5042 34.0789 24.8822C34.5076 25.2602 34.8077 25.3898 35.2042 25.4006C35.6007 25.4114 41.3234 25.3682 41.3234 25.3682C41.3234 25.3682 41.3663 25.379 41.5378 25.1522C41.7092 24.9254 41.9343 24.677 41.9129 24.2234C41.8914 23.7699 41.6557 23.6835 41.795 23.4351C41.9236 23.1867 42.3415 23.0463 42.1915 22.3659Z" fill="#F3ECDA"/>
</g>
<defs>
<clipPath id="clip0_386_12312">
<rect width="49.0184" height="25.4005" fill="white"/>
</clipPath>
</defs>
</svg>
