<svg width="181" height="27" viewBox="0 0 181 27" fill="none" xmlns="http://www.w3.org/2000/svg">
<path d="M68.9784 25.5622H58.1275C58.4413 25.2783 58.6739 24.9104 58.7929 24.502C58.9551 24.0477 59.039 23.5663 59.039 23.0821V2.64079C59.039 2.15667 58.9551 1.67796 58.7929 1.22088C58.6739 0.815191 58.444 0.450071 58.1275 0.168793H63.2636C62.9498 0.452775 62.7199 0.815191 62.5982 1.22088C62.4414 1.67796 62.3602 2.15667 62.3575 2.64079V23.3932H67.0202C67.5044 23.3878 67.9831 23.3039 68.4402 23.147C68.8431 23.0226 69.2083 22.7927 69.4922 22.4817L68.9784 25.5595V25.5622Z" fill="#1D2D20"/>
<path d="M71.6343 5.08843C71.6343 4.60431 71.5505 4.12559 71.3882 3.66852C71.2692 3.26283 71.0393 2.8977 70.7229 2.61642H75.8589C75.5452 2.90041 75.3153 3.26283 75.1936 3.66852C75.0367 4.12559 74.9556 4.60431 74.9529 5.08843V23.0713C74.9529 23.5554 75.0367 24.0341 75.1936 24.4912C75.318 24.8969 75.5479 25.262 75.8589 25.5514H70.7229C71.0366 25.2674 71.2692 24.8996 71.3882 24.4912C71.5505 24.0368 71.6343 23.5554 71.6343 23.0713V5.08843Z" fill="#1D2D20"/>
<path d="M77.9874 5.08843C77.9874 4.60431 77.9035 4.12559 77.7413 3.66852C77.6223 3.26283 77.3924 2.8977 77.0759 2.61642H87.9268L88.4731 5.64017C88.1918 5.32373 87.8267 5.09384 87.421 4.97483C86.9666 4.81256 86.4852 4.73142 86.0011 4.72872H81.3384V10.2434H84.2702C84.757 10.2434 85.2384 10.1595 85.6955 9.99727C86.1012 9.87556 86.4636 9.64567 86.7476 9.33194V13.2428C86.4636 12.9291 86.1012 12.6992 85.6955 12.5775C85.2384 12.4152 84.757 12.3313 84.2702 12.3313H81.3384V22.9874C81.3384 23.4716 81.4222 23.9503 81.5845 24.4074C81.7062 24.8158 81.9361 25.1809 82.2498 25.4676H77.1138C77.4275 25.1836 77.6601 24.8158 77.7791 24.4074C77.9414 23.953 78.0252 23.4716 78.0252 22.9874L77.9847 5.09113L77.9874 5.08843Z" fill="#1D2D20"/>
<path d="M90.3041 5.08843C90.3041 4.60431 90.2202 4.12559 90.0579 3.66852C89.9389 3.26283 89.709 2.8977 89.3926 2.61642H100.243L100.79 5.64017C100.508 5.32373 100.143 5.09384 99.7377 4.97483C99.2833 4.81256 98.8019 4.73142 98.3178 4.72872H93.655V10.2434H96.5868C97.0737 10.2434 97.5551 10.1595 98.0122 9.99727C98.4178 9.87556 98.7803 9.64567 99.0642 9.33194V13.2428C98.7803 12.9291 98.4178 12.6992 98.0122 12.5775C97.5551 12.4152 97.0737 12.3313 96.5868 12.3313H93.655V23.4013H98.3178C98.8019 23.3958 99.2806 23.312 99.7377 23.1551C100.141 23.0307 100.506 22.8008 100.79 22.4898L100.27 25.5676H89.4197C89.7334 25.2837 89.966 24.9158 90.085 24.5074C90.2473 24.0531 90.3311 23.5716 90.3311 23.0875L90.3041 5.09113V5.08843Z" fill="#1D2D20"/>
<path d="M118.816 19.055C118.829 19.9908 118.656 20.9212 118.31 21.7921C117.994 22.5683 117.523 23.2769 116.931 23.8692C116.341 24.4561 115.632 24.9105 114.854 25.2026C114.018 25.5163 113.133 25.6705 112.244 25.6624C111.283 25.6732 110.329 25.5028 109.434 25.1566C108.422 24.7293 107.486 24.1478 106.656 23.4311L108.1 19.8556C108.833 22.5196 110.185 23.853 112.157 23.853C112.474 23.8395 112.787 23.7881 113.09 23.6988C113.493 23.5825 113.866 23.3851 114.188 23.12C114.575 22.7874 114.881 22.3736 115.086 21.9084C115.357 21.2566 115.481 20.5561 115.451 19.8502C115.451 18.6115 115.1 17.3944 114.44 16.3477C113.553 15.0279 112.449 13.8649 111.175 12.9102C109.853 11.9149 108.714 10.6951 107.811 9.30767C107.113 8.19067 106.742 6.90058 106.74 5.58344C106.648 4.02018 107.259 2.49479 108.406 1.42647C109.685 0.393318 111.311 -0.109736 112.947 0.0200847C113.956 0.00656174 114.956 0.190475 115.889 0.566414C116.268 0.720576 116.63 0.909897 116.974 1.13167C117.301 1.33722 117.618 1.559 117.921 1.797L116.49 4.9127C116.13 4.08509 115.641 3.31969 115.046 2.64084C114.515 2.11074 113.796 1.81864 113.047 1.82946C112.241 1.78889 111.465 2.12967 110.948 2.74902C110.364 3.49549 110.072 4.42858 110.129 5.37248C110.175 6.22172 110.486 7.03311 111.016 7.69573C111.814 8.74782 112.747 9.69172 113.785 10.5058C114.626 11.1955 115.416 11.9419 116.149 12.7425C116.744 13.3808 117.263 14.0813 117.701 14.8332C118.08 15.485 118.37 16.1828 118.567 16.9103C118.743 17.6081 118.827 18.3275 118.813 19.0469L118.816 19.055Z" fill="#1D2D20"/>
<path d="M123.479 14.0731C123.479 17.4971 123.817 19.9772 124.49 21.5134C124.961 22.9144 126.283 23.8502 127.76 23.8259C128.72 23.8313 129.65 23.4824 130.37 22.8468C131.254 21.9976 131.884 20.9184 132.187 19.7311L132.953 23.6744C132.217 24.3181 131.373 24.832 130.462 25.1863C129.564 25.5081 128.617 25.6704 127.665 25.6596C122.567 25.6596 120.022 21.8001 120.025 14.0785C120.025 10.2921 120.666 7.40626 121.95 5.42109C123.149 3.4873 125.299 2.35408 127.571 2.45685C128.504 2.42169 129.434 2.57044 130.308 2.8977C131.011 3.21414 131.665 3.63065 132.247 4.13641L130.594 7.10064C130.048 5.22906 129.015 4.29057 127.511 4.29057C124.82 4.29868 123.476 7.56313 123.476 14.0812L123.479 14.0731Z" fill="#1D2D20"/>
<path d="M145.61 7.68756C145.637 8.73424 145.372 9.7674 144.845 10.6707C144.301 11.5308 143.528 12.2232 142.614 12.6694C143.306 15.1333 143.912 17.1807 144.431 18.8089C144.845 20.1503 145.324 21.4702 145.87 22.7657C146.189 23.5608 146.606 24.3154 147.109 25.0105C147.428 25.4487 147.844 25.803 148.328 26.0491C147.901 26.1086 147.476 26.1545 147.049 26.1762C146.622 26.1978 146.192 26.1545 145.778 26.0491C145.345 25.9436 144.934 25.7678 144.558 25.5298C144.131 25.2593 143.758 24.9077 143.46 24.4966C142.581 23.1957 141.932 21.7542 141.534 20.2342C140.994 18.3815 140.326 16.1638 139.536 13.5728C139.357 13.5728 139.171 13.6133 138.989 13.6187C138.808 13.6241 138.611 13.6187 138.403 13.6187H138.129V23.0551C138.129 23.5392 138.213 24.0179 138.376 24.475C138.497 24.8834 138.727 25.2485 139.041 25.5352H133.905C134.219 25.2485 134.448 24.8834 134.57 24.475C134.727 24.0179 134.808 23.5392 134.811 23.0551V5.07221C134.808 4.5908 134.727 4.10938 134.57 3.6523C134.448 3.24661 134.219 2.8842 133.905 2.60021H139.233C140.315 2.56776 141.394 2.72192 142.424 3.06C143.144 3.30882 143.798 3.7118 144.342 4.24461C144.799 4.69898 145.14 5.26154 145.334 5.87548C145.513 6.45967 145.605 7.06821 145.608 7.67945L145.61 7.68756ZM138.132 12.0906C138.819 12.115 139.501 11.9852 140.131 11.712C140.623 11.4848 141.058 11.1522 141.402 10.7329C141.71 10.3381 141.937 9.8864 142.067 9.39957C142.192 8.91004 142.257 8.40698 142.259 7.90122C142.313 6.91134 142 5.93498 141.372 5.16417C140.745 4.48802 139.85 4.1229 138.927 4.17158H138.127V12.0906H138.132Z" fill="#1D2D20"/>
<path d="M149.827 5.08843C149.824 4.60701 149.743 4.12559 149.586 3.66852C149.464 3.26283 149.234 2.90041 148.921 2.61642H154.057C153.74 2.8977 153.51 3.26283 153.391 3.66852C153.229 4.12289 153.148 4.60431 153.145 5.08843V23.0713C153.145 23.5554 153.229 24.0341 153.391 24.4912C153.513 24.8996 153.743 25.2647 154.057 25.5514H148.921C149.234 25.2647 149.464 24.8996 149.586 24.4912C149.743 24.0341 149.824 23.5554 149.827 23.0713V5.08843Z" fill="#1D2D20"/>
<path d="M167.028 7.68758C167.096 9.3455 166.398 10.9412 165.138 12.0176C163.872 13.0833 162.095 13.6161 159.81 13.6161H159.536V23.0605C159.536 23.5446 159.62 24.0233 159.783 24.4804C159.904 24.8888 160.134 25.2539 160.448 25.5406H155.312C155.626 25.2539 155.855 24.8888 155.977 24.4804C156.134 24.0233 156.215 23.5446 156.218 23.0605V5.07765C156.215 4.59623 156.134 4.11481 155.977 3.65773C155.855 3.25204 155.626 2.88963 155.312 2.60564H160.64C161.722 2.57319 162.801 2.72735 163.831 3.06543C164.556 3.31154 165.216 3.71723 165.762 4.25004C166.228 4.70982 166.574 5.27779 166.768 5.90255C166.942 6.48133 167.028 7.08175 167.028 7.68758ZM159.542 12.0907C160.229 12.115 160.91 11.9852 161.541 11.712C162.019 11.4794 162.438 11.1468 162.774 10.733C163.082 10.3381 163.309 9.88642 163.439 9.39959C163.569 8.91006 163.637 8.40701 163.639 7.90125C163.707 6.90325 163.399 5.91878 162.774 5.13715C162.144 4.461 161.246 4.09858 160.323 4.14456H159.531L159.545 12.0907H159.542Z" fill="#1D2D20"/>
<path d="M171.764 25.5622C172.078 25.2755 172.307 24.9104 172.429 24.502C172.586 24.045 172.667 23.5662 172.67 23.0821V4.75307H170.098C169.611 4.75307 169.13 4.83691 168.672 4.99919C168.267 5.12089 167.902 5.35078 167.62 5.66451L168.172 2.64078H180.454L181 5.66451C180.719 5.34808 180.354 5.11819 179.948 4.99919C179.494 4.83691 179.012 4.75577 178.528 4.75307H175.991V23.0551C175.991 23.5392 176.075 24.0179 176.237 24.475C176.359 24.8834 176.589 25.2485 176.903 25.5352L171.761 25.5622H171.764Z" fill="#1D2D20"/>
<g clip-path="url(#clip0_1757_23)">
<path d="M49.5336 25.3676L34.5684 3.01398V1.39779C34.5684 0.556936 33.8424 -0.0873548 33.0188 6.60401e-06H29.2911C28.8251 6.60401e-06 28.3591 0.021847 27.8931 0.087368L14.5101 2.45705C13.8057 2.53349 13.2747 3.1341 13.2747 3.85483V5.8423L27.9257 3.98587C28.1641 4.04047 28.3049 4.33532 28.1532 4.56464L14.1741 25.444C14.1525 25.4659 14.1308 25.4986 14.12 25.5314L14.0224 25.6733H14.2392C14.2608 25.6733 14.2717 25.6733 14.2933 25.6733H14.5209L16.6015 25.6952H16.6882L29.7028 25.6843C29.7028 25.6843 30.3314 25.2147 30.3422 24.6796C30.3422 24.5923 30.3314 24.5049 30.3097 24.4066L33.8424 21.9605V21.5674C33.4089 20.6828 31.9243 20.4753 31.9243 20.4753C31.9243 20.4753 31.5884 19.8747 30.2772 19.7109L27.8715 21.884C27.6981 21.8294 27.6873 21.9277 27.4489 21.9823C27.1671 22.0478 27.1129 22.1024 26.9287 22.1024C26.7445 22.1024 26.7553 21.9496 26.5711 21.9496C26.3869 21.9496 26.4194 21.7748 26.3435 21.6766C26.2677 21.5674 26.0726 21.6875 25.9101 21.4363C25.715 21.1306 25.5308 20.9668 25.3574 20.8139C25.2165 20.6828 25.0757 20.5518 24.9131 20.4317C24.7939 20.3443 24.7506 20.2788 24.8264 20.1477C24.9131 19.9839 24.7722 19.8857 24.7181 19.842C24.6747 19.8092 24.6639 19.7109 24.8047 19.6672C24.9456 19.6236 24.8047 17.3303 24.8047 16.9809C24.8047 16.6314 25.0757 16.3803 25.1082 16.0636C25.1407 15.7469 25.3791 15.4957 25.5308 15.1135C25.6933 14.7313 25.5416 13.9232 25.5416 13.9232C25.5416 13.9232 25.8234 12.6456 26.1051 13.5629C26.3869 14.4802 26.8203 14.644 27.0371 14.644C27.0479 14.644 27.0479 14.633 27.0587 14.633C27.1671 14.6549 27.2971 14.6221 27.373 14.5238C27.4814 14.3819 27.5247 14.1853 27.7089 14.1089C27.7414 14.098 27.7523 14.0106 27.7739 13.9342C27.9257 14.1962 28.099 14.0215 28.2616 13.9778C28.5325 14.36 28.6842 14.3491 28.9118 13.9342C28.966 13.8359 28.9876 13.7267 29.0418 13.6284C29.096 13.541 29.161 13.4646 29.2694 13.3445C29.3561 13.6721 29.5186 13.8796 29.7462 14.0106C29.8004 14.0434 29.8654 14.0761 29.9304 14.087C30.1471 14.1307 30.2122 14.0652 30.1796 13.8468C30.158 13.7267 30.1255 13.6175 30.2663 13.5519C30.2988 13.541 30.3097 13.4973 30.3205 13.4646C30.5373 12.8749 30.6673 12.2524 30.5698 11.6409C30.4614 10.9966 30.2447 10.3851 29.7679 9.90461C29.5403 9.67528 29.2911 9.51148 28.966 9.4678C28.8684 9.45688 28.7926 9.39136 28.695 9.36952C28.6409 9.3586 28.5758 9.3586 28.5217 9.34768C28.5325 9.3586 28.5433 9.36952 28.5542 9.39136C28.1966 9.304 27.8715 9.38044 27.3513 9.47872C26.9395 9.55516 26.5603 9.78449 26.2893 10.1012L29.8762 4.34624H30.0279C29.8979 4.77212 29.3777 6.39923 28.3158 8.71431C28.4458 8.74707 28.5758 8.79075 28.6842 8.84535C29.1935 7.43665 29.6595 5.92966 30.0279 4.34624H30.7431C30.5914 5.17617 30.2555 6.87972 29.7137 9.32584C30.0388 9.38044 30.3097 9.5224 30.5156 9.71897C30.7757 8.12462 30.949 6.36647 30.8623 4.35716H31.6642C31.7401 5.7877 31.8593 11.4116 30.0713 19.1322C30.2663 19.0557 30.4831 19.012 30.7323 19.012C31.0791 19.012 31.3717 19.0994 31.6101 19.2523C32.1302 16.5332 32.412 12.7329 31.6751 4.36808H33.604L38.0686 10.9202L39.8241 13.5519L47.9081 25.6297L49.3819 25.6406C49.5336 25.6515 49.6203 25.4877 49.5336 25.3676ZM29.7137 1.67079C29.7137 1.21215 30.0821 0.82994 30.5481 0.82994H32.8129C33.268 0.82994 33.6473 1.20123 33.6473 1.67079V3.0249H29.7245V1.67079H29.7137ZM20.2751 21.9277C20.4918 21.6547 21.4996 19.6126 21.4996 19.6126L21.5538 20.8029C21.5646 20.9667 21.6405 21.1087 21.7705 21.1961L22.5724 21.7639C21.6622 21.3708 20.2751 21.9277 20.2751 21.9277Z" fill="#202D1E"/>
<path d="M25.9209 4.76121L19.0397 5.72218C17.9886 5.83138 16.9374 5.86415 15.8863 5.80954L13.2747 5.83138L0 25.6515H12.9713L26.2677 5.3509C26.4519 5.07789 26.2351 4.72845 25.9209 4.76121Z" fill="#202D1E"/>
<path d="M36.7239 12.6169C34.264 7.80107 32.8454 4.40085 32.8454 4.40085C33.3872 7.93899 34.6334 10.8547 35.6087 13.2244C35.7929 12.9513 36.3771 12.7479 36.7239 12.6169Z" fill="#202D1E"/>
<path d="M42.6633 22.6157C42.5116 21.9277 42.2732 21.895 41.7855 20.7702C41.2979 19.6454 40.2901 18.9356 39.9108 18.6407C39.7699 18.5315 39.6507 18.4005 39.5424 18.2585C39.4665 18.1603 39.4015 18.0074 39.2823 17.9419C39.1522 17.8654 38.968 17.9091 38.8272 17.9091C38.8272 17.9091 38.5888 17.7344 38.838 17.2976C39.0872 16.8608 39.5965 16.5659 39.2606 15.5613C38.9355 14.5457 38.2853 14.229 37.6026 14.0324C36.9091 13.8468 36.714 13.8359 35.8796 14.4583C35.0452 15.0698 34.6009 15.2882 34.7418 16.0199C34.8827 16.7516 35.5004 17.0682 35.4787 17.3303C35.4462 17.5924 35.392 17.8545 35.2945 18.0729C35.1969 18.2913 35.6412 18.2913 35.7062 18.335C35.7713 18.3787 35.6846 18.4879 35.7496 18.5643C35.8146 18.6407 35.9446 18.5861 35.9772 18.6517C36.0097 18.7172 36.1072 18.9137 36.183 18.9465C36.2697 18.9793 36.8007 19.0011 37.2017 18.7827C37.5051 18.6189 37.6135 19.012 37.5051 19.1977C37.3967 19.3833 37.1692 19.7983 37.1475 20.2569C37.115 20.7156 37.2017 20.8248 37.2017 20.9558C37.2017 21.0869 37.3209 21.2943 37.2234 21.5128C37.115 21.7312 37.0391 21.753 37.0066 22.0478C36.9741 22.3427 36.7465 22.1243 36.6707 22.43C36.5948 22.7358 36.454 22.7795 36.3564 22.8013C36.2589 22.8232 35.988 22.9433 35.9446 23.0743C35.9013 23.2054 35.9013 23.5657 35.587 23.3801C35.2728 23.1835 34.6876 23.118 34.3192 23.4893C33.9616 23.8606 34.0266 24.7779 34.46 25.1601C34.8935 25.5423 35.1969 25.6733 35.5979 25.6843C35.9988 25.6952 41.7855 25.6515 41.7855 25.6515C41.7855 25.6515 41.8289 25.6624 42.0022 25.4331C42.1756 25.2038 42.4032 24.9526 42.3815 24.494C42.3599 24.0353 42.1214 23.948 42.2623 23.6968C42.3924 23.4456 42.815 23.3037 42.6633 22.6157Z" fill="#202D1E"/>
</g>
<defs>
<clipPath id="clip0_1757_23">
<rect width="49.5661" height="25.6843" fill="white"/>
</clipPath>
</defs>
</svg>
