<svg width="38" height="38" viewBox="0 0 38 38" fill="none" xmlns="http://www.w3.org/2000/svg">
<g clip-path="url(#clip0_2499_13081)">
<circle cx="18.8682" cy="18.8682" r="18.8682" fill="white"/>
<circle cx="18.8682" cy="18.8682" r="18.8682" fill="white"/>
<path fill-rule="evenodd" clip-rule="evenodd" d="M15.9743 7.75681C14.726 8.0239 14.4976 8.14645 14.2079 8.70465C14.0711 8.96874 13.8395 9.18465 13.6934 9.18465C13.1218 9.18465 12.1945 9.8804 11.9179 10.517C11.4781 11.5292 11.3592 14.328 11.6887 15.9132C12.0156 17.4863 12.0119 17.3542 11.728 17.3542C11.1414 17.3542 11.1587 18.4056 11.7736 20.1065C12.4542 21.9892 12.4593 21.9991 12.8088 22.1096C13.0021 22.1708 13.1969 22.4794 13.3124 22.907C13.4161 23.2907 13.6435 23.8834 13.8178 24.2242C14.0114 24.6023 14.1349 25.1889 14.1349 25.7302C14.1349 26.6007 14.7686 28.1586 13.8216 28.9897C12.6551 30.0136 12.2845 30.2105 9.60538 31.23C8.4338 31.6758 7.51172 32.1207 7.51172 32.2399C7.51172 32.5398 8.989 32.7647 10.2982 33.5422C11.6559 34.3484 13.6569 35.0872 15.4817 35.4558C17.3248 35.8281 20.5127 35.7106 22.4125 35.2003C24.8747 34.5389 27.3445 33.1324 29.3843 31.23C29.8266 30.8175 29.5022 32.7692 29.8453 31.23C29.4122 32.3149 28.5609 30.9281 27.1009 30.3609C24.8816 29.4986 24.3472 29.2226 23.842 28.6783C23.5095 28.32 23.105 27.953 22.943 27.8626C22.4908 27.6104 23.0005 25.1605 23.5458 23.828C23.7963 23.2165 24.0012 22.5599 24.0012 22.3692C24.0012 22.1351 24.1083 22.0226 24.3318 22.0226C24.7627 22.0226 25.0854 21.49 25.3423 20.3553C25.4565 19.851 25.6599 19.0792 25.7943 18.6402C26.0644 17.7589 25.9951 17.3542 25.5741 17.3542C25.3505 17.3542 25.3184 17.2499 25.4072 16.8124C25.8171 14.795 25.603 13.0232 24.7455 11.3361C24.2043 10.2712 23.1333 9.19382 22.1389 8.71382C21.3276 8.32218 19.1799 7.85084 18.2073 7.85084C17.863 7.85084 17.6688 7.78299 17.7302 7.68412C17.8615 7.47221 17.1712 7.50089 15.9743 7.75681Z" fill="#F9F9F9"/>
<path fill-rule="evenodd" clip-rule="evenodd" d="M17.7732 6.24516C15.5106 6.70701 14.491 7.18443 13.2819 8.3479C11.8329 9.74234 11.2499 11.2 11.2499 13.4288C11.2499 14.591 11.4454 15.8226 11.8223 17.036L12.0528 17.7777L12.2553 16.8241C12.6288 15.0656 13.0543 14.1818 13.6619 13.9027C13.8127 13.8334 14.676 13.7353 15.5805 13.6845C16.485 13.6339 18.0884 13.4914 19.1437 13.368C21.3301 13.1125 22.8605 13.1343 23.6131 13.4319C24.1886 13.6596 24.9076 14.4278 25.091 15.0113C25.1664 15.2507 25.2281 15.8927 25.2282 16.4378C25.2284 17.3906 25.2336 17.4116 25.362 16.9824C25.5268 16.4315 25.7191 14.3815 25.7207 13.1592C25.722 12.1026 25.4191 10.8156 25.0107 10.1421C24.7442 9.7026 23.5999 8.65474 23.1252 8.4156C22.9934 8.34917 22.6974 8.29481 22.4674 8.2946C22.0558 8.29428 22.0489 8.28761 22.0442 7.88552C22.0377 7.33626 21.7669 6.97083 21.1382 6.66293C20.3208 6.26275 18.6834 6.05943 17.7732 6.24516ZM22.29 28.1345C20.4423 30.7142 16.3312 30.5938 14.5331 27.9075L14.3634 27.6538L13.7111 28.0808C12.797 28.6792 11.8852 29.1029 10.6978 29.4811C8.51081 30.1775 7.48134 30.8624 6.56062 32.2334L6.17383 32.8095L6.80653 33.3459C7.96965 34.3322 9.31871 35.2026 10.7566 35.8945C13.3923 37.1629 15.3128 37.6274 18.2989 37.7188C20.4613 37.785 21.6012 37.6808 23.3636 37.2557C25.955 36.6306 28.4472 35.4214 30.5511 33.7687C31.7552 32.8227 31.7262 32.8868 31.266 32.1917C30.3978 30.88 29.4768 30.282 27.3663 29.6598C25.2352 29.0315 24.2988 28.6365 23.2822 27.9368C22.9956 27.7397 22.7447 27.5783 22.7248 27.5783C22.7048 27.5783 22.5091 27.8287 22.29 28.1345Z" fill="#B6B6B6"/>
<circle cx="18.8682" cy="18.8682" r="18.5251" stroke="#03A2FE" stroke-width="0.686116"/>
</g>
<defs>
<clipPath id="clip0_2499_13081">
<rect width="37.7364" height="37.7364" fill="white"/>
</clipPath>
</defs>
</svg>
