<svg xmlns="http://www.w3.org/2000/svg" width="16" height="15" viewBox="0 0 17 16" fill="none">
  <path d="M11.6494 11.668H7.23897" stroke="#E1683B" stroke-width="1.10225" stroke-linecap="round"/>
  <path d="M5.76933 2.11615V5.05547M3.56484 0.646484V6.52513M1.36035 2.85098L1.36035 4.32064M7.97383 2.85098V4.32064" stroke="#E1683B" stroke-width="1.10225" stroke-linecap="round"/>
  <path d="M2.83267 8.73066C2.83388 11.7815 2.86757 13.3417 3.80114 14.3245C4.76966 15.3441 6.32847 15.3441 9.4461 15.3441H9.77677C12.5741 15.3441 13.9728 15.3441 14.9004 14.5101C15.0321 14.3916 15.1548 14.2625 15.2673 14.1238C16.0596 13.1472 16.0596 11.6748 16.0596 8.72983C16.0596 5.78491 16.0596 4.31245 15.2673 3.33587C15.1548 3.19719 15.0321 3.06804 14.9004 2.9496C14.0896 2.22055 12.9189 2.12875 10.7688 2.11719H10.1809" stroke="#E1683B" stroke-width="1.10225" stroke-linecap="round"/>
</svg>