<svg xmlns="http://www.w3.org/2000/svg" width="13" height="16" viewBox="0 0 13 16" fill="none">
  <path d="M9.94271 4.48893V7.29883C9.94271 9.23866 8.37017 10.8112 6.43034 10.8112C4.49051 10.8112 2.91797 9.23866 2.91797 7.29883V4.48893C2.91797 2.5491 4.49051 0.976562 6.43034 0.976562C8.37017 0.976562 9.94271 2.5491 9.94271 4.48893Z" fill="white" stroke="white" stroke-width="1.05371"/>
  <path d="M9.94238 4.48828H7.83496M9.94238 7.29818H7.83496" stroke="white" stroke-width="1.05371" stroke-linecap="round"/>
  <path d="M12.0501 7.29883C12.0501 10.4026 9.53406 12.9186 6.43034 12.9186M6.43034 12.9186C3.32661 12.9186 0.810547 10.4026 0.810547 7.29883M6.43034 12.9186V15.026M6.43034 15.026H8.53776M6.43034 15.026H4.32292" stroke="white" stroke-width="1.05371" stroke-linecap="round"/>
</svg>