<svg xmlns="http://www.w3.org/2000/svg" width="13" height="16" viewBox="0 0 13 16" fill="none">
  <path d="M9.97201 4.48893V7.29883C9.97201 9.23866 8.39946 10.8112 6.45964 10.8112C4.51981 10.8112 2.94727 9.23866 2.94727 7.29883V4.48893C2.94727 2.5491 4.51981 0.976562 6.45964 0.976562C8.39946 0.976562 9.97201 2.5491 9.97201 4.48893Z" stroke="#E1683B" stroke-width="1.05371"/>
  <path d="M9.97168 4.48828H7.86426M9.97168 7.29818H7.86426" stroke="#E1683B" stroke-width="1.05371" stroke-linecap="round"/>
  <path d="M12.0794 7.29883C12.0794 10.4026 9.56336 12.9186 6.45964 12.9186M6.45964 12.9186C3.35591 12.9186 0.839844 10.4026 0.839844 7.29883M6.45964 12.9186V15.026M6.45964 15.026H8.56706M6.45964 15.026H4.35221" stroke="#E1683B" stroke-width="1.05371" stroke-linecap="round"/>
</svg>