<svg width="27" height="19" viewBox="0 0 27 19" fill="none" xmlns="http://www.w3.org/2000/svg">
<path d="M0.630197 1.14714L0.630196 17.6728C0.631194 17.8402 0.718934 18.0042 0.883969 18.1472C1.049 18.2902 1.28509 18.4069 1.56681 18.4846C1.84852 18.5623 2.16521 18.5982 2.48278 18.5883C2.80034 18.5784 3.10676 18.5231 3.36905 18.4284L26.0619 10.1656C27.0028 9.82313 27.0028 8.99868 26.0619 8.65532L3.36905 0.392463C3.10731 0.29682 2.80074 0.240733 2.48264 0.230295C2.16455 0.219857 1.8471 0.255468 1.56478 0.333258C1.28247 0.411049 1.04608 0.528043 0.881313 0.67153C0.716545 0.815018 0.629696 0.979511 0.630197 1.14714Z" fill="white"/>
</svg>
