<svg width="174" height="44" viewBox="0 0 174 44" fill="none" xmlns="http://www.w3.org/2000/svg">
<rect width="174" height="44" rx="22" fill="#197065"/>
<path d="M62.6172 15.3625V29H61.0191L53.5877 18.2924H53.4545V29H51.8031V15.3625H53.4013L60.8593 26.0967H60.9924V15.3625H62.6172ZM69.997 29.2131C69.0115 29.2131 68.1613 28.9956 67.4466 28.5605C66.7363 28.121 66.1881 27.5084 65.8019 26.7226C65.4201 25.9324 65.2292 25.0135 65.2292 23.9658C65.2292 22.9182 65.4201 21.9948 65.8019 21.1957C66.1881 20.3922 66.7252 19.7663 67.4133 19.3179C68.1059 18.8651 68.9138 18.6387 69.8372 18.6387C70.3699 18.6387 70.896 18.7275 71.4154 18.905C71.9347 19.0826 72.4075 19.3712 72.8337 19.7707C73.2599 20.1658 73.5995 20.6896 73.8525 21.3422C74.1056 21.9948 74.2321 22.7983 74.2321 23.7528V24.4186H66.3479V23.0602H72.6339C72.6339 22.4831 72.5185 21.9682 72.2877 21.5154C72.0613 21.0625 71.7372 20.7052 71.3155 20.4433C70.8982 20.1813 70.4054 20.0504 69.8372 20.0504C69.2112 20.0504 68.6696 20.2058 68.2124 20.5165C67.7596 20.8228 67.4111 21.2224 67.1669 21.7151C66.9228 22.2079 66.8007 22.7362 66.8007 23.2999V24.2056C66.8007 24.978 66.9339 25.6328 67.2002 26.17C67.471 26.7027 67.8462 27.1089 68.3256 27.3885C68.805 27.6638 69.3622 27.8014 69.997 27.8014C70.4099 27.8014 70.7828 27.7437 71.1157 27.6283C71.4531 27.5084 71.7439 27.3308 71.988 27.0955C72.2322 26.8558 72.4209 26.5584 72.554 26.2032L74.0723 26.6294C73.9125 27.1444 73.6439 27.5972 73.2665 27.9878C72.8892 28.3741 72.4231 28.6759 71.8682 28.8935C71.3132 29.1065 70.6895 29.2131 69.997 29.2131ZM77.5199 18.7719L79.9704 22.9537L82.4209 18.7719H84.2321L80.9293 23.8859L84.2321 29H82.4209L79.9704 25.0313L77.5199 29H75.7087L78.9583 23.8859L75.7087 18.7719H77.5199ZM90.9227 18.7719V20.1037H85.6222V18.7719H90.9227ZM87.1671 16.3214H88.7386V26.0701C88.7386 26.514 88.803 26.8469 88.9317 27.0689C89.0649 27.2864 89.2336 27.4329 89.4378 27.5084C89.6464 27.5794 89.8662 27.6149 90.097 27.6149C90.2701 27.6149 90.4122 27.6061 90.5232 27.5883C90.6342 27.5661 90.723 27.5484 90.7895 27.535L91.1092 28.9467C91.0026 28.9867 90.8539 29.0266 90.663 29.0666C90.4721 29.111 90.2302 29.1332 89.9372 29.1332C89.4933 29.1332 89.0582 29.0377 88.632 28.8468C88.2103 28.656 87.8596 28.3652 87.5799 27.9745C87.3047 27.5839 87.1671 27.0911 87.1671 26.4962V16.3214Z" fill="white"/>
<path d="M119 22L104 22" stroke="white" stroke-width="1.5" stroke-linecap="round" stroke-linejoin="round"/>
<path d="M115 17L119.293 21.2929C119.626 21.6262 119.793 21.7929 119.793 22C119.793 22.2071 119.626 22.3738 119.293 22.7071L115 27" stroke="white" stroke-width="1.5" stroke-linecap="round" stroke-linejoin="round"/>
</svg>
