<svg width="76" height="76" viewBox="0 0 76 76" fill="none" xmlns="http://www.w3.org/2000/svg">
<circle cx="37.7935" cy="37.5826" r="37.483" fill="#87ACFF"/>
<path fill-rule="evenodd" clip-rule="evenodd" d="M3.33609 31.5082L49.7672 4.70117C54.2997 6.35189 58.3947 8.91304 61.8309 12.1634L3.75546 45.6933C3.13759 43.0904 2.81055 40.3749 2.81055 37.5829C2.81055 35.511 2.99066 33.4812 3.33609 31.5082Z" fill="#D9EAFF"/>
<path fill-rule="evenodd" clip-rule="evenodd" d="M72.252 43.657C72.5976 41.6835 72.7778 39.653 72.7778 37.5805C72.7778 30.3126 70.5615 23.5624 66.768 17.9688L6.31836 52.8694C10.2685 60.9864 17.2661 67.347 25.8228 70.4629L72.252 43.657Z" fill="#D9EAFF"/>
<circle cx="37.7942" cy="37.5832" r="27.4875" fill="#4174E8"/>
<circle cx="37.7943" cy="37.5824" r="24.9886" fill="#87ACFF"/>
<mask id="mask0_1880_7095" style="mask-type:alpha" maskUnits="userSpaceOnUse" x="12" y="12" width="51" height="51">
<circle cx="37.7924" cy="37.5824" r="24.9886" fill="#4174E8"/>
</mask>
<g mask="url(#mask0_1880_7095)">
<path d="M96.5162 79.4386L52.1614 34.459L37.1682 37.5826L29.0469 50.7016L74.0264 95.6812L96.5162 79.4386Z" fill="#4174E8"/>
<path d="M82.7706 68.8194L37.791 23.8398V37.5836L82.7706 82.5632V68.8194Z" fill="#4174E8"/>
</g>
<path d="M37.7935 23.8379L42.1999 32.7662L52.162 34.4581L44.9232 41.1477L46.5396 50.7007L37.7935 46.3277L29.0475 50.7007L30.6639 41.1477L23.5342 34.1979L33.3872 32.7662L37.7935 23.8379Z" fill="white"/>
</svg>
