<svg width="1440" height="900" viewBox="0 0 1440 900" fill="none" xmlns="http://www.w3.org/2000/svg">
<g clip-path="url(#clip0_2413_21463)">
<rect width="1440" height="900" fill="white"/>
<rect x="1440" y="900" width="1440" height="900" transform="rotate(-180 1440 900)" fill="url(#paint0_linear_2413_21463)"/>
<mask id="mask0_2413_21463" style="mask-type:alpha" maskUnits="userSpaceOnUse" x="0" y="0" width="1439" height="900">
<rect x="1439" y="900" width="1439" height="900" transform="rotate(-180 1439 900)" fill="url(#paint1_linear_2413_21463)"/>
</mask>
<g mask="url(#mask0_2413_21463)">
<path opacity="0.2" fill-rule="evenodd" clip-rule="evenodd" d="M1565.84 162.513C1638.15 169.7 1659.15 261.128 1719 299.393C1781.41 339.294 1888.91 323.909 1919.08 388.351C1948.76 451.745 1884.36 518.756 1850.56 580.356C1822.11 632.211 1794.07 687.332 1739.36 715.896C1687.54 742.955 1625.28 726.911 1565.84 729.022C1503.19 731.247 1441.38 748.166 1382.36 728.575C1308.74 704.138 1223.02 673.927 1195.55 606.107C1168 538.078 1212.73 463.735 1248.99 399.306C1280.42 343.471 1333.86 305.906 1386.77 266.367C1442.95 224.378 1494.06 155.377 1565.84 162.513Z" fill="#197065"/>
<g opacity="0.2">
<path fill-rule="evenodd" clip-rule="evenodd" d="M244.191 456.345C164.538 466.715 83.2697 445.008 15.7676 404.759C-53.3374 363.555 -128.343 306.698 -134.289 230.671C-140.16 155.62 -48.8099 108.535 -12.6836 41.0061C14.8018 -10.3708 10.5167 -72.7266 51.1676 -115.993C98.0461 -165.888 158.274 -218.46 229.533 -216.795C300.414 -215.139 339.583 -141.871 400.111 -107.839C466.604 -70.4529 576.233 -76.5354 600.702 -8.10326C625.253 60.559 535.655 117.941 504.638 184.495C478.551 240.471 477.355 304.732 433.647 350.354C383.439 402.76 319.005 446.604 244.191 456.345Z" fill="#E6CFFF"/>
<path fill-rule="evenodd" clip-rule="evenodd" d="M244.191 456.345C164.538 466.715 83.2697 445.008 15.7676 404.759C-53.3374 363.555 -128.343 306.698 -134.289 230.671C-140.16 155.62 -48.8099 108.535 -12.6836 41.0061C14.8018 -10.3708 10.5167 -72.7266 51.1676 -115.993C98.0461 -165.888 158.274 -218.46 229.533 -216.795C300.414 -215.139 339.583 -141.871 400.111 -107.839C466.604 -70.4529 576.233 -76.5354 600.702 -8.10326C625.253 60.559 535.655 117.941 504.638 184.495C478.551 240.471 477.355 304.732 433.647 350.354C383.439 402.76 319.005 446.604 244.191 456.345Z" fill="url(#paint2_linear_2413_21463)"/>
</g>
<path opacity="0.2" fill-rule="evenodd" clip-rule="evenodd" d="M-86.1635 -55.4873C-13.8546 -48.2995 7.15161 43.1284 67.0032 81.3931C129.414 121.294 236.907 105.909 267.081 170.351C296.764 233.745 232.357 300.756 198.559 362.356C170.107 414.211 142.07 469.332 87.3647 497.896C35.5406 524.955 -26.716 508.911 -86.1635 511.022C-148.81 513.247 -210.62 530.166 -269.637 510.575C-343.255 486.138 -428.977 455.927 -456.448 388.107C-484.003 320.078 -439.272 245.735 -403.01 181.306C-371.584 125.471 -318.141 87.9065 -265.235 48.3673C-209.05 6.37786 -157.943 -62.6225 -86.1635 -55.4873Z" fill="#197065"/>
</g>
<path fill-rule="evenodd" clip-rule="evenodd" d="M1248 90.96C1248 99.2867 1242.22 116.71 1231.6 140.408C1218.73 169.117 1214.91 181.607 1213.87 198.4C1212.37 222.5 1217.72 251.035 1223.74 251.035C1228.65 251.035 1248.95 226.718 1254.48 214.214C1256.71 209.159 1260.31 197.553 1262.48 188.423C1266.03 173.446 1266.45 172.934 1266.7 183.21C1267.1 199.185 1260.09 224.309 1250.08 242.745C1245.41 251.359 1243.1 258.404 1244.95 258.404C1251.83 258.404 1266.35 247.329 1275.68 234.96C1301.26 201.031 1297.64 148.757 1266.16 97.4261C1253.29 76.4436 1248 74.5609 1248 90.96ZM1605.59 95.0313C1605.59 98.7304 1600.47 110.414 1594.21 120.999C1578.61 147.361 1575.37 166.147 1582.07 191.293C1584.25 199.502 1601.67 186.058 1608.57 170.834C1612 163.27 1614.87 159.659 1614.95 162.809C1615.02 165.959 1610.85 176.323 1605.66 185.836C1595.07 205.286 1598.23 208.186 1615.36 194.738C1630.4 182.941 1634.66 171.777 1632.88 148.867C1630.66 120.365 1605.59 70.906 1605.59 95.0313ZM1371.42 112.506C1371.42 115.343 1367.87 126.536 1363.54 137.376C1354.96 158.812 1353.95 168.163 1358.66 182.565C1362.28 193.658 1367.76 192.251 1375.73 178.18C1380.92 169.039 1380.94 171.825 1375.82 186.559C1372.8 195.243 1380.39 193.028 1389.34 182.609C1396.53 174.231 1397.31 170.841 1396.07 153.399C1395.07 139.325 1392.19 129.893 1386.05 120.505C1377.05 106.781 1371.42 103.697 1371.42 112.506ZM1485.02 122.62C1461.63 141.576 1447.97 172.547 1453.36 194.421C1456.58 207.49 1465.89 225.245 1469.52 225.245C1470.86 225.245 1471.46 214.051 1470.86 200.375C1469.82 176.721 1469.9 176.371 1472.57 193.238C1474.11 202.991 1477.52 214.785 1480.15 219.445C1484.52 227.212 1484.27 229.401 1477.22 245.63C1472.98 255.368 1469.52 269.689 1469.52 277.449C1469.52 289.327 1470.57 291.563 1476.16 291.563C1486.82 291.563 1503.54 280.691 1513.8 267.077C1519.03 260.139 1523.31 255.795 1523.31 257.42C1523.31 264.483 1506.77 287.798 1496.52 295.17C1482.81 305.041 1482.28 309.985 1494.93 309.985C1507.67 309.985 1525.42 301.073 1533.31 290.716C1538.47 283.948 1538.31 284.81 1532.5 295.248C1520.58 316.643 1504.37 336.259 1475.95 363.681C1461.1 378.014 1444.95 395.85 1440.07 403.307C1418.87 435.696 1403.41 492.281 1397.56 558.803L1394.99 588.156L1385.82 571.576C1368.06 539.445 1364.93 514.951 1373.27 473.248C1379.08 444.167 1377.74 428.656 1368.03 412.787C1361.43 401.988 1338.19 379.989 1333.4 379.989C1332.15 379.989 1334.5 387.729 1338.62 397.191C1348.07 418.925 1348.48 447.777 1339.79 480.001C1336.31 492.878 1332.38 505.364 1331.04 507.744C1329.5 510.493 1320.23 497.697 1305.68 472.743C1268.53 409.021 1231.59 367.554 1175.62 326.746C1136.68 298.346 1100.95 276.089 1098.64 278.782C1097.87 279.67 1091.71 277.11 1084.93 273.086C1078.15 269.063 1066.15 265.603 1058.25 265.397L1043.88 265.021L1054.04 261.223C1061.65 258.378 1069 258.831 1083.31 263.028C1104.69 269.299 1106.88 266.705 1093.43 251.05C1065.76 218.83 1015.38 235.196 985.242 286.203C980.074 294.949 975.846 302.841 975.846 303.748C975.846 304.654 981.897 304.643 989.296 303.718C996.694 302.797 1011.23 304.658 1021.61 307.856C1049.09 316.326 1066.72 315.306 1085.99 304.131C1095.03 298.881 1102.43 292.205 1102.43 289.294C1102.43 285.624 1107.18 287.724 1117.92 296.147C1151.58 322.538 1207.89 382.424 1204.7 388.437C1203.61 390.496 1204.22 391.101 1206.05 389.782C1212.84 384.896 1272.74 472.286 1301.6 529.173C1315.5 556.585 1332.79 596.844 1340.18 619.072C1342.91 627.255 1342.69 627.516 1337.12 622.756C1267.56 563.382 1238.39 546.298 1196.05 540.137C1172.9 536.77 1173.25 542.728 1196.57 549.021C1230.93 558.29 1259.78 577.935 1289.23 612.104C1319.92 647.714 1335.26 677.889 1346.45 724.644C1358.09 773.278 1355.17 836.52 1339.72 870.114C1336.51 877.107 1337.29 879.693 1345.62 889.748C1350.91 896.118 1359.46 912.105 1364.63 925.277C1378.21 959.891 1380.07 971.84 1367.44 943.312C1336.85 874.215 1290.84 832.08 1222.17 810.265C1198.83 802.852 1188.48 801.887 1132.49 801.883C1084.44 801.879 1061.58 803.519 1037.56 808.688C931.859 831.435 806.552 881.576 691.036 947.346C651.916 969.618 660.134 968.122 705.277 944.752C813.201 888.879 907.033 853.759 999.58 834.593C1043.67 825.463 1141.47 825.26 1176.01 834.232C1256.77 855.207 1317.99 905.628 1349.17 976.858C1354.21 988.379 1350.99 984.356 1333.61 957.412C1308.67 918.752 1270.11 888.286 1222.92 869.948C1133.02 835.017 1017.2 850.476 873.565 916.582C827.713 937.686 773.957 967.032 768.568 973.907C764.641 978.918 763.922 979.238 817.619 951.764C1031.86 842.142 1194.56 840.009 1286.22 945.626C1295.93 956.811 1307.16 972.779 1311.18 981.113L1318.49 996.26L1301.8 980.889C1280.01 960.846 1239.8 938.367 1208.27 928.626C1173.3 917.819 1113.19 915.174 1075.24 922.775C1044.53 928.928 971.748 954.829 978.027 957.375C980.093 958.211 992.973 954.785 1006.65 949.756C1042.84 936.444 1067.8 932.026 1107.1 931.971C1169.69 931.883 1219.11 947.748 1265.48 982.816L1284.39 997.122L993.251 998.994C715.907 1000.78 696.84 1001.37 817.619 1004.51C1037.86 1010.23 1108.23 1013.7 1195.78 1023.12C1279.14 1032.09 1351.25 1047.51 1347.03 1055.46C1345.98 1057.44 1346.72 1057.9 1348.67 1056.5C1352.89 1053.46 1373.97 1065.36 1381.48 1075.03C1384.41 1078.79 1388.35 1086.63 1390.25 1092.44L1393.7 1103L1400.99 1086.91C1411.88 1062.86 1433.09 1050.71 1486.6 1037.85C1568.26 1018.21 1796.42 1002.65 2002.54 1002.65C2051.12 1002.65 2089.77 1001.2 2089.77 999.384C2089.77 997.513 1966.35 995.858 1801.11 995.512C1642.34 995.177 1511.99 994.385 1511.45 993.743C1509.92 991.971 1551.52 963.41 1567.62 955.172C1604.42 936.337 1629.82 931.105 1684.71 931.05C1731.6 931.006 1740.26 932.026 1769.64 941.079C1787.63 946.624 1805.2 952.932 1808.67 955.094C1812.15 957.261 1815.8 958.09 1816.79 956.94C1819.02 954.343 1802.63 946.255 1774.34 935.995C1762.46 931.687 1750.61 927.303 1748 926.249C1745.39 925.192 1740.4 923.983 1736.92 923.56C1733.44 923.14 1716.35 920.704 1698.95 918.151C1625.59 907.389 1553.54 927.808 1495.36 975.852L1475.33 992.399L1480.77 980.023C1490.52 957.869 1529.37 917.304 1557.09 900.355C1593.95 877.814 1623.46 869.746 1677.99 867.31C1765.04 863.423 1858.82 889.089 1974.26 948.396C2022.46 973.159 2024.05 973.859 2021.62 969.283C2018.26 962.957 1958.31 931.057 1907.81 908.726C1828.69 873.743 1776.97 858.755 1709.38 851.21C1599.19 838.915 1500.26 883.584 1451.68 967.57C1439.63 988.405 1437.52 988.04 1448.01 966.936C1500.02 862.381 1605.04 811.617 1740.68 825.467C1848.71 836.498 1966.51 877.022 2102.07 949.789C2114.93 956.693 2126.11 961.564 2126.92 960.621C2130.82 956.085 1988.76 884.461 1926.79 859.724C1814.44 814.87 1742.28 798.342 1659.39 798.486C1612.98 798.564 1599.4 799.908 1575.53 806.776C1506.86 826.535 1455.32 872.83 1427.22 940.014C1411.04 978.696 1409.7 980.292 1418.54 950.4C1426.32 924.068 1431.99 911.552 1445.53 890.916L1456.62 873.997L1450.53 857.985C1430 803.939 1436.45 704.391 1465.33 629.561C1476.71 600.093 1499.86 556.839 1504.25 556.839C1505.44 556.839 1508.33 552.697 1510.65 547.635C1512.98 542.569 1515.36 538.973 1515.93 539.64C1516.5 540.311 1523.06 534.088 1530.51 525.82C1545.78 508.85 1572.03 492.826 1596.47 485.542C1605.53 482.845 1611.64 479.699 1610.05 478.557C1608.47 477.415 1594.22 475.3 1578.4 473.859C1533.37 469.758 1501.72 483.177 1467.42 520.912C1448.34 541.895 1447.81 541.103 1450.96 496.135C1454.9 439.745 1467.92 411.928 1516.39 356.32C1553.36 313.902 1563.7 292.341 1566.64 251.536C1569.02 218.506 1564.1 215.216 1554.94 243.714C1551.05 255.847 1547.65 265.773 1547.39 265.773C1547.14 265.773 1547.37 253.751 1547.91 239.061C1548.94 211.122 1543.25 177.038 1537.17 174.717C1535.21 173.973 1532.92 176.449 1532.07 180.225C1531.23 183.998 1522.05 194.598 1511.68 203.779L1492.83 220.47L1498.82 207.199C1503.88 195.983 1504.43 189.93 1502.38 168.137C1501.04 153.952 1500.04 135.298 1500.16 126.687C1500.27 118.077 1500.13 111.029 1499.85 111.029C1499.56 111.029 1492.89 116.246 1485.02 122.62ZM1141.54 155.676C1129.23 179.953 1123.28 203.93 1123.28 229.183C1123.28 250.63 1124.46 255.681 1132.26 267.585C1141.38 281.516 1156.84 291.563 1169.15 291.563C1175.32 291.563 1174.87 290.178 1164.37 276.634C1152.47 261.304 1146.58 247.907 1146.93 236.979C1147.06 232.93 1148.23 233.973 1150.28 239.982C1156.56 258.375 1183.65 283.985 1191.13 278.602C1195.26 275.625 1195.04 235.675 1190.82 222.721C1188.96 217.017 1180.35 202.869 1171.7 191.278C1163.04 179.691 1154.15 164.11 1151.93 156.66L1147.9 143.109L1141.54 155.676ZM1311.49 212.441C1300.71 237.919 1296.35 267.051 1299.96 289.438C1302.76 306.817 1318.3 327.206 1331.2 330.415C1336.78 331.804 1343.13 334.612 1345.31 336.653C1353.18 344.04 1349.37 329.811 1341.05 320.758C1331.57 310.446 1325.69 298.055 1322.81 282.352C1320.81 271.41 1320.85 271.428 1326.82 284.265C1338.03 308.383 1360.46 327.667 1367.61 319.322C1371.91 314.292 1369.58 271.447 1364.39 260.246C1361.58 254.167 1352.67 240.247 1344.6 229.316C1336.54 218.384 1329.12 204.704 1328.13 198.92C1327.13 193.135 1325.27 188.401 1323.99 188.401C1322.7 188.401 1317.08 199.218 1311.49 212.441ZM1419.19 224.651C1391.97 256.739 1383.36 291.272 1395.8 318.459C1398.77 324.944 1400.91 331.491 1400.55 333.013C1400.19 334.531 1400.97 335.422 1402.27 334.995C1403.58 334.564 1407.97 336.354 1412.04 338.978C1421.76 345.249 1423.53 342.482 1417.98 329.671C1412.24 316.407 1408.83 291.563 1412.75 291.563C1414.38 291.563 1415.72 294.99 1415.72 299.175C1415.72 312.001 1431.3 339.46 1438.58 339.46C1443.33 339.46 1453.55 308.817 1453.62 294.367C1453.66 286.788 1450.74 271.867 1447.13 261.208C1443.52 250.545 1439.51 233.534 1438.22 223.402L1435.87 204.981L1419.19 224.651ZM1651.48 215.404C1635.46 223.926 1623.11 238.442 1615.23 258.058C1611.08 268.37 1608.59 277.858 1609.7 279.147C1610.8 280.437 1616.78 276.306 1622.98 269.969C1636.66 255.983 1654.01 245.431 1668.88 242.045C1678.72 239.805 1678.04 240.682 1662.71 249.886C1653.22 255.585 1643.12 261.772 1640.26 263.632C1634.01 267.714 1616.85 302.219 1619.53 305.336C1620.57 306.548 1628.9 308.243 1638.03 309.101C1661.54 311.312 1685.77 299.735 1713.97 272.821C1726.59 260.773 1742.37 249.189 1749.02 247.075C1764.39 242.196 1761.46 237.374 1734.5 223.189C1710.93 210.791 1667.77 206.742 1651.48 215.404ZM1237.08 268.282C1238.51 271.966 1240.53 291.563 1241.58 311.828C1242.63 332.092 1245.09 351.987 1247.05 356.04C1252.88 368.088 1269.38 384.664 1272.97 382.078C1278.22 378.297 1283 352.757 1281.02 339.037C1279.45 328.135 1279.71 327.468 1283.1 333.735C1285.24 337.677 1286.9 350.587 1286.81 362.421C1286.66 380.888 1287.29 383.304 1291.26 379.469C1299.12 371.864 1304.96 355.215 1304.96 340.363C1304.96 312.019 1283.82 285.558 1246.78 267.552C1235.06 261.853 1234.61 261.886 1237.08 268.282ZM1575.53 319.377C1570.31 322.494 1564.26 327.774 1562.08 331.112C1557.36 338.362 1556.69 359.349 1561.29 356.04C1563.03 354.787 1564.45 356.35 1564.45 359.507C1564.45 366.88 1573.7 366.88 1582.74 359.511C1586.61 356.353 1591.56 354.961 1593.73 356.416C1595.9 357.871 1596.66 357.742 1595.4 356.125C1592.95 352.964 1603.36 333.282 1611.61 325.5C1616.04 321.315 1616.07 320.331 1611.91 317.266C1604.7 311.964 1586.15 313.043 1575.53 319.377ZM1094.95 339.508C1080.05 354.743 1073.53 375.659 1073.42 408.587C1073.37 423.531 1074.06 436.614 1074.95 437.656C1075.85 438.699 1079.41 436.26 1082.87 432.237C1086.32 428.213 1098.52 419.717 1109.97 413.354C1122.14 406.59 1133.92 396.874 1138.32 389.966C1146.85 376.595 1153.85 354.986 1151.25 350.09C1146.46 341.052 1117.94 350.852 1105.65 365.767C1099.66 373.036 1099.02 373.246 1101.74 367.053C1106.48 356.291 1115.28 347.898 1128.65 341.395C1145.31 333.293 1143.22 328.407 1123.11 328.407C1108.39 328.407 1104.2 330.058 1094.95 339.508ZM1715.55 333.543C1712.5 336.24 1699.17 339.589 1685.94 340.986C1654.73 344.28 1639.64 351.6 1626.09 370.033C1620.04 378.264 1615.09 386.094 1615.09 387.427C1615.09 392.176 1631.4 398.41 1643.82 398.41C1650.75 398.41 1661.37 396.008 1667.4 393.072C1682.25 385.85 1681.31 389.148 1665.92 398.289C1659.08 402.356 1646.62 406.118 1638.24 406.652C1629.86 407.187 1623.2 409.206 1623.44 411.144C1624.2 417.238 1644.6 427.885 1655.51 427.885C1667.58 427.885 1687.72 416.869 1697.62 404.854C1706.57 393.982 1725.85 347.518 1725.85 336.8C1725.85 327.265 1723.5 326.521 1715.55 333.543ZM1385.57 368.42C1371.57 393.061 1371.21 420.513 1384.71 435.151C1394.48 445.747 1401.31 445.268 1396.38 434.333C1392.76 426.29 1392.83 426.235 1398.89 432.491C1408.27 442.162 1412.03 440.39 1414.49 425.163C1416.03 415.58 1415.02 406.328 1411.16 394.767C1408.1 385.626 1403.97 372.756 1401.98 366.172C1399.98 359.588 1397.29 354.198 1396 354.198C1394.71 354.198 1390.02 360.598 1385.57 368.42ZM1580.28 382.137C1575.92 384.948 1566.12 387.273 1558.49 387.302C1550.86 387.332 1539.21 389.244 1532.6 391.55C1518.43 396.491 1496.32 421.158 1498.93 429.101C1501.35 436.422 1523.06 440.269 1534.18 435.346C1539.13 433.158 1543.89 432.193 1544.76 433.206C1547.24 436.094 1529.45 443.26 1514.57 445.368C1497.9 447.726 1500.84 454.233 1521.62 461.008C1534.29 465.138 1537.03 464.792 1550.13 457.408C1567.04 447.881 1578.32 432.067 1586.84 405.956C1596.43 376.555 1595.3 372.432 1580.28 382.137ZM1304.96 414.04C1304.96 432.461 1306.52 443.574 1309.89 449.17C1316.32 459.862 1318.79 459.501 1323.22 447.228C1325.69 440.372 1326.33 439.775 1325.2 445.386C1324.28 449.944 1324.99 453.676 1326.79 453.676C1331.39 453.676 1336.61 441.146 1336.61 430.1C1336.61 420.524 1321.44 397.368 1310.86 390.773C1305.36 387.343 1304.96 388.901 1304.96 414.04ZM1803.09 394.601C1801.51 396.395 1789.69 399.542 1776.83 401.59C1756.98 404.755 1751.85 407.128 1742.81 417.322C1726.96 435.221 1729.63 442.623 1751.95 442.623C1757.32 442.623 1760.86 443.618 1759.81 444.834C1758.77 446.049 1752.83 447.044 1746.63 447.044C1740.42 447.044 1735.34 448.492 1735.34 450.264C1735.34 454.398 1752.4 464.729 1759.23 464.729C1776.79 464.729 1796.83 441.613 1806.24 410.48C1810.75 395.581 1809.18 387.696 1803.09 394.601ZM1153.85 403.804C1136.81 413.041 1132.25 420.517 1143.67 420.517C1147.2 420.517 1150.84 422.779 1151.75 425.542C1152.66 428.309 1160.81 434.915 1169.85 440.224C1182.55 447.685 1188.99 449.362 1198.16 447.612C1204.68 446.363 1210.02 443.795 1210.02 441.897C1210.02 434.554 1203.16 424.102 1194.91 418.892C1190.17 415.896 1187.87 413.376 1189.8 413.295C1191.74 413.214 1198.5 417.241 1204.83 422.248C1216 431.072 1216.35 431.12 1216.35 423.807C1216.35 419.658 1212.19 411.42 1207.1 405.495C1195.2 391.639 1177.34 391.071 1153.85 403.804ZM1766.98 438.939C1764.13 441.083 1763.74 442.531 1766.01 442.568C1768.08 442.597 1770.66 440.965 1771.73 438.939C1774.16 434.363 1773.06 434.363 1766.98 438.939ZM1654.92 450.625C1648.12 452.376 1637.44 457.508 1631.19 462.032L1619.83 470.256L1645.61 472.743C1661.73 474.301 1676.16 478.074 1684.16 482.823C1702.77 493.88 1703.08 498.309 1684.67 490.166C1664.97 481.449 1642.67 481.331 1626.37 489.857L1613.92 496.367L1625.86 511.757C1644.37 535.613 1665.34 545.664 1705.66 550.015C1741.19 553.847 1760.62 560.416 1760.7 568.625C1760.74 572.313 1761.4 572.236 1763.54 568.286C1766.88 562.144 1757.83 529.442 1746.62 507.181C1737.18 488.427 1713.11 462.117 1699.55 455.732C1684.85 448.813 1669.02 447 1654.92 450.625ZM1115.59 492.174C1116.48 512.674 1118.44 522.235 1123.36 529.939C1132.6 544.426 1143.88 551.102 1154.07 548.125C1162.98 545.524 1165.84 538.417 1157.99 538.417C1155.47 538.417 1150.06 534.688 1145.96 530.127C1141.87 525.566 1140.72 523.712 1143.41 526.008C1150.69 532.201 1161.02 535.189 1166.57 532.706C1170.43 530.985 1170.88 528.097 1168.69 519.221C1164.93 503.935 1157.49 495.092 1139.46 484.444C1131.12 479.515 1123.49 473.063 1122.51 470.105C1121.54 467.15 1119.31 464.729 1117.57 464.729C1115.62 464.729 1114.86 475.37 1115.59 492.174ZM1250.71 498.906C1242.72 503.216 1219.52 525.404 1219.52 528.734C1219.52 532.559 1240.72 538.417 1254.57 538.417C1267.14 538.417 1270.8 536.777 1276.25 528.708C1282.67 519.206 1284.95 508.942 1280.64 508.942C1279.44 508.942 1274.83 512.67 1270.38 517.232C1262.58 525.219 1262.49 525.23 1268.08 517.504C1279.93 501.109 1268.77 489.16 1250.71 498.906ZM1567.62 536.022C1567.62 546.018 1581.95 570.464 1594.6 582.051C1607.67 594.018 1598.95 591.597 1584.21 579.17C1577.15 573.212 1568.79 563.264 1565.65 557.064C1562.5 550.859 1558.62 545.786 1557.04 545.786C1552.22 545.786 1557.86 576.381 1564.69 587.312C1568.2 592.931 1570.22 599.128 1569.18 601.088C1568.14 603.048 1569.27 603.767 1571.69 602.683C1574.11 601.6 1577.94 603.295 1580.18 606.449C1591.16 621.842 1634.49 626.625 1661.96 615.476C1673.5 610.796 1674.86 606.272 1665.76 602.908C1662.3 601.63 1650.67 588.053 1639.92 572.737C1618.94 542.845 1597.91 527.471 1577.9 527.401C1569.21 527.371 1567.62 528.701 1567.62 536.022ZM1087.5 558.231L1075.84 570.681L1092.12 573.286C1101.06 574.719 1111.16 574.866 1114.55 573.614C1123.08 570.464 1125.45 553.958 1118.04 549.341C1107.93 543.037 1099.43 545.513 1087.5 558.231ZM1147.93 560.464C1137.49 565.375 1127.74 592.662 1127.74 617.005V637.998L1139.61 629.554C1146.14 624.911 1155.72 618.626 1160.9 615.59C1171.65 609.297 1185.39 587.625 1183.99 579.173C1182.66 571.108 1173.66 570.102 1162.24 576.734C1154.82 581.045 1153.3 581.207 1156.01 577.401C1157.99 574.634 1163.92 570.287 1169.2 567.737C1176.19 564.37 1177.67 562.27 1174.63 560.029C1169.37 556.146 1156.67 556.352 1147.93 560.464ZM1219.52 582.581C1219.52 584.578 1224.33 588.554 1230.21 591.417C1236.09 594.276 1241.94 598.579 1243.21 600.981C1244.6 603.582 1241.62 602.993 1235.85 599.515C1224.94 592.949 1214.49 591.944 1211.7 597.194C1210.67 599.124 1212.37 607.002 1215.47 614.695C1219.68 625.177 1225.4 631.219 1238.23 638.783C1247.64 644.339 1257.97 651.641 1261.17 655.013C1264.37 658.384 1267.09 660.473 1267.22 659.651C1267.35 658.83 1268.1 654.073 1268.89 649.081C1271.47 632.674 1263.95 601.995 1254.44 590.138C1247.26 581.192 1242.86 578.945 1232.49 578.945C1225.35 578.945 1219.52 580.581 1219.52 582.581ZM1513.82 588.395C1513.82 593.863 1516.79 603.925 1520.41 610.749C1524.03 617.572 1526.23 623.158 1525.29 623.158C1524.35 623.158 1519.61 615.284 1514.74 605.657C1506.04 588.414 1505.89 588.311 1504.87 598.734C1501.77 630.302 1523.25 651.682 1558.73 652.353C1575.92 652.677 1579.5 648.922 1570.76 639.711C1567.35 636.119 1560.27 624.34 1555.04 613.541C1546.08 595.06 1537.63 586.999 1520.94 581.005C1514.77 578.79 1513.82 579.778 1513.82 588.395Z" fill="#17756A"/>
</g>
<defs>
<linearGradient id="paint0_linear_2413_21463" x1="2880" y1="900" x2="2477.68" y2="2123.73" gradientUnits="userSpaceOnUse">
<stop offset="0.313055" stop-color="#197065"/>
<stop offset="1" stop-color="#197065"/>
</linearGradient>
<linearGradient id="paint1_linear_2413_21463" x1="1596.5" y1="1800" x2="1888.71" y2="678.695" gradientUnits="userSpaceOnUse">
<stop stop-color="#4700C0"/>
<stop offset="1" stop-color="#A044FF"/>
</linearGradient>
<linearGradient id="paint2_linear_2413_21463" x1="242.541" y1="458.158" x2="227.841" y2="-216.902" gradientUnits="userSpaceOnUse">
<stop stop-color="white"/>
<stop offset="1" stop-color="white" stop-opacity="0"/>
</linearGradient>
<clipPath id="clip0_2413_21463">
<rect width="1440" height="900" fill="white"/>
</clipPath>
</defs>
</svg>
