<svg width="17" height="18" viewBox="0 0 17 18" fill="none" xmlns="http://www.w3.org/2000/svg">
<path d="M0.375 9.01419C0.375 7.51819 0.749 6.13219 1.48967 4.86352C2.23033 3.59485 3.235 2.59019 4.50367 1.84952C5.77233 1.10885 7.151 0.742188 8.63967 0.742188C9.75433 0.742188 10.825 0.962187 11.8443 1.39485C12.8637 1.82752 13.7363 2.42152 14.477 3.15485C15.2177 3.88819 15.8043 4.76819 16.237 5.79485C16.6697 6.82152 16.8897 7.88485 16.8897 9.01419C16.8897 10.1289 16.6697 11.1995 16.237 12.2189C15.8043 13.2382 15.2103 14.1182 14.477 14.8515C13.7437 15.5849 12.8637 16.1715 11.8443 16.6042C10.825 17.0369 9.76167 17.2569 8.63967 17.2569C7.51767 17.2569 6.43967 17.0369 5.42033 16.6042C4.401 16.1715 3.521 15.5775 2.78033 14.8442C2.03967 14.1109 1.46033 13.2309 1.02033 12.2189C0.580333 11.2069 0.375 10.1362 0.375 9.01419ZM2.19367 9.01419C2.19367 10.7522 2.82433 12.2629 4.093 13.5462C5.36167 14.8149 6.87233 15.4455 8.63967 15.4455C9.79833 15.4455 10.8763 15.1595 11.859 14.5802C12.8417 14.0009 13.6337 13.2235 14.213 12.2335C14.7923 11.2435 15.0857 10.1729 15.0857 9.01419C15.0857 7.85552 14.7923 6.77752 14.213 5.78752C13.6337 4.79752 12.849 4.01285 11.859 3.43352C10.869 2.85419 9.79833 2.56819 8.63967 2.56819C7.481 2.56819 6.403 2.85419 5.42033 3.43352C4.43767 4.01285 3.64567 4.79752 3.059 5.78752C2.47233 6.77752 2.19367 7.85552 2.19367 9.01419ZM8.00167 9.01419V4.13019C8.00167 3.96152 8.06033 3.81485 8.17767 3.69752C8.295 3.58019 8.44167 3.52152 8.61033 3.52152C8.779 3.52152 8.92567 3.58019 9.043 3.69752C9.16033 3.81485 9.219 3.96152 9.219 4.13019V8.64019L11.8517 10.1729C11.9983 10.2609 12.0863 10.3855 12.1303 10.5469C12.1743 10.7082 12.1523 10.8622 12.0643 11.0015C11.947 11.2069 11.771 11.3095 11.5363 11.3095C11.4117 11.3095 11.309 11.2802 11.2283 11.2215L8.427 9.58619C8.30233 9.54952 8.19967 9.47619 8.119 9.37352C8.03833 9.27085 8.00167 9.15352 8.00167 9.01419Z" fill="white"/>
</svg>
