<svg width="20" height="20" viewBox="0 0 16 16" fill="none" xmlns="http://www.w3.org/2000/svg">
<path d="M2.75293 0.996094V3.13673C2.75293 3.33757 3.00392 3.42848 3.13242 3.2742C4.38319 1.87601 6.20083 0.996094 8.22389 0.996094C11.9964 0.996094 15.0547 4.05592 15.0547 7.8304C15.0547 10.5356 13.4838 12.8736 11.2049 13.9813" stroke="#E1683B" stroke-width="1.02515" stroke-linecap="round" stroke-linejoin="round"/>
<path d="M8.03974 14.6651C8.35882 14.6651 8.67284 14.6438 8.9804 14.6025M1.56808 5.55273C1.49126 5.82418 1.43098 6.09853 1.38672 6.37439M1.41034 8.88196C1.45839 9.15536 1.52097 9.42609 1.59757 9.69278M2.63939 11.9289C2.80227 12.1704 2.97884 12.4029 3.16849 12.6248M5.09677 14.2282C5.33851 14.3666 5.59011 14.4918 5.85108 14.6025" stroke="#E1683B" stroke-width="1.02515" stroke-linecap="round" stroke-linejoin="round"/>
</svg>
