<svg xmlns="http://www.w3.org/2000/svg" width="21" height="20" viewBox="0 0 21 20" fill="none">
  <path d="M6.50977 2C5.97933 2 5.47062 2.21071 5.09555 2.58579C4.72048 2.96086 4.50977 3.46957 4.50977 4V9H5.50977V4C5.50977 3.73478 5.61512 3.48043 5.80266 3.29289C5.9902 3.10536 6.24455 3 6.50977 3H10.5098V6.5C10.5098 6.89782 10.6678 7.27936 10.9491 7.56066C11.2304 7.84196 11.6119 8 12.0098 8H15.5098V16C15.5098 16.2652 15.4044 16.5196 15.2169 16.7071C15.0293 16.8946 14.775 17 14.5098 17H11.5098V18H14.5098C15.0402 18 15.5489 17.7893 15.924 17.4142C16.2991 17.0391 16.5098 16.5304 16.5098 16V7.414C16.5094 7.01631 16.3512 6.63503 16.0698 6.354L12.1558 2.439C11.8746 2.15798 11.4933 2.00008 11.0958 2H6.50977ZM15.3028 7H12.0098C11.8772 7 11.75 6.94732 11.6562 6.85355C11.5624 6.75979 11.5098 6.63261 11.5098 6.5V3.207L15.3028 7ZM4.50977 10H7.50977V12H4.50977V10ZM2.50977 10H3.50977V12.5C3.50977 12.6326 3.56244 12.7598 3.65621 12.8536C3.74998 12.9473 3.87716 13 4.00977 13H8.00977C8.14237 13 8.26955 12.9473 8.36332 12.8536C8.45709 12.7598 8.50977 12.6326 8.50977 12.5V10.09C8.6188 10.1396 8.71804 10.2083 8.80277 10.293L10.2168 11.707C10.4043 11.8945 10.5097 12.1488 10.5098 12.414V18C10.5098 18.2652 10.4044 18.5196 10.2169 18.7071C10.0293 18.8946 9.77498 19 9.50977 19V14.5C9.50977 14.3674 9.45709 14.2402 9.36332 14.1464C9.26955 14.0527 9.14237 14 9.00977 14H3.00977C2.87716 14 2.74998 14.0527 2.65621 14.1464C2.56244 14.2402 2.50977 14.3674 2.50977 14.5V19C2.24455 19 1.9902 18.8946 1.80266 18.7071C1.61512 18.5196 1.50977 18.2652 1.50977 18V11C1.50977 10.7348 1.61512 10.4804 1.80266 10.2929C1.9902 10.1054 2.24455 10 2.50977 10ZM8.50977 15V19H3.50977V15H8.50977Z" fill="white"/>
</svg>