<svg width="21" height="21" viewBox="0 0 15 16" fill="none" xmlns="http://www.w3.org/2000/svg">
<path d="M1.47656 4.22852C1.47656 2.90282 2.55125 1.82812 3.87695 1.82812H7.47754H9.13222C9.60969 1.82812 10.0676 2.0178 10.4052 2.35542L12.9512 4.90142C13.2888 5.23904 13.4785 5.69695 13.4785 6.17442V7.8291V11.4297C13.4785 12.7554 12.4038 13.8301 11.0781 13.8301H3.87695C2.55125 13.8301 1.47656 12.7554 1.47656 11.4297V4.22852Z" stroke="white" stroke-width="0.900146"/>
<path d="M3.875 9.62988C3.875 8.96703 4.41235 8.42969 5.0752 8.42969H9.87598C10.5388 8.42969 11.0762 8.96703 11.0762 9.62988V13.8306H3.875V9.62988Z" stroke="white" stroke-width="0.900146"/>
<path d="M5.07812 1.82764V4.22803C5.07812 4.55945 5.3468 4.82812 5.67822 4.82812H9.27881C9.61023 4.82812 9.87891 4.55945 9.87891 4.22803V1.82764" stroke="white" stroke-width="0.900146"/>
</svg>
