<svg width="76" height="76" viewBox="0 0 76 76" fill="none" xmlns="http://www.w3.org/2000/svg">
<circle cx="37.7037" cy="37.5826" r="37.483" fill="#D5E3F0"/>
<path fill-rule="evenodd" clip-rule="evenodd" d="M3.24407 31.509L49.6766 4.70117C54.209 6.35202 58.3038 8.91326 61.7398 12.1637L3.6639 45.6938C3.04588 43.0906 2.71875 40.3748 2.71875 37.5825C2.71875 35.511 2.89879 33.4816 3.24407 31.509Z" fill="#FDFEFF"/>
<path fill-rule="evenodd" clip-rule="evenodd" d="M72.1621 43.657C72.5077 41.6835 72.688 39.653 72.688 37.5805C72.688 30.3126 70.4717 23.5624 66.6781 17.9688L6.22852 52.8694C10.1786 60.9864 17.1762 67.347 25.7329 70.4629L72.1621 43.657Z" fill="#FDFEFF"/>
<circle cx="37.7043" cy="37.5832" r="27.4875" fill="#A1B7CA"/>
<circle cx="37.7025" cy="37.5824" r="24.9886" fill="#D5E3F0"/>
<mask id="mask0_1880_7097" style="mask-type:alpha" maskUnits="userSpaceOnUse" x="12" y="12" width="51" height="51">
<circle cx="37.7045" cy="37.5824" r="24.9886" fill="#A2BACE"/>
</mask>
<g mask="url(#mask0_1880_7097)">
<path d="M96.4283 79.4386L52.0735 34.459L37.0803 37.5826L28.959 50.7016L73.9385 95.6812L96.4283 79.4386Z" fill="#A1B7CA"/>
<path d="M82.6827 68.8194L37.7031 23.8398V37.5836L82.6827 82.5632V68.8194Z" fill="#A1B7CA"/>
</g>
<path d="M37.7037 23.8379L42.1101 32.7662L52.0722 34.4581L44.8334 41.1477L46.4497 50.7007L37.7037 46.3277L28.9577 50.7007L30.574 41.1477L23.4443 34.1979L33.2973 32.7662L37.7037 23.8379Z" fill="white"/>
</svg>
