<svg width="57" height="57" viewBox="0 0 57 57" fill="none" xmlns="http://www.w3.org/2000/svg">
<circle cx="28.1112" cy="28.1122" r="28.1122" fill="#8E8E8E"/>
<path fill-rule="evenodd" clip-rule="evenodd" d="M2.2681 23.5568L37.092 3.45117C40.4913 4.68926 43.5624 6.61016 46.1396 9.04795L2.5828 34.1955C2.11934 32.2432 1.87402 30.2064 1.87402 28.1123C1.87402 26.5586 2.00908 25.0363 2.2681 23.5568Z" fill="#C6C6C6"/>
<path fill-rule="evenodd" clip-rule="evenodd" d="M53.9551 32.6685C54.2143 31.1884 54.3495 29.6656 54.3495 28.1112C54.3495 22.6603 52.6873 17.5976 49.8421 13.4023L4.50488 39.5778C7.46748 45.6656 12.7157 50.4361 19.1332 52.7729L53.9551 32.6685Z" fill="#C6C6C6"/>
<circle cx="28.1117" cy="28.1117" r="20.6156" fill="#787878"/>
<circle cx="28.1116" cy="28.1126" r="18.7415" fill="#C6C6C6"/>
<mask id="mask0_3584_14043" style="mask-type:alpha" maskUnits="userSpaceOnUse" x="9" y="9" width="38" height="38">
<circle cx="28" cy="28" r="19" fill="#8E8E8E"/>
</mask>
<g mask="url(#mask0_3584_14043)">
<path d="M72.1547 59.5062L38.8886 25.7715L27.6437 28.1142L21.5527 37.9534L55.2874 71.6881L72.1547 59.5062Z" fill="#8E8E8E"/>
<path d="M61.847 51.5394L28.1123 17.8047V28.1125L61.847 61.8472V51.5394Z" fill="#8E8E8E"/>
</g>
<path d="M28.1125 17.8027L31.4173 24.499L38.8888 25.7679L33.4598 30.7851L34.672 37.9498L28.1125 34.6701L21.553 37.9498L22.7652 30.7851L17.418 25.5728L24.8077 24.499L28.1125 17.8027Z" fill="white"/>
</svg>
