<svg width="57" height="57" viewBox="0 0 57 57" fill="none" xmlns="http://www.w3.org/2000/svg">
<circle cx="28.1112" cy="28.1122" r="28.1122" fill="black"/>
<circle cx="28.1117" cy="28.1117" r="20.6156" fill="#141414"/>
<circle cx="28.1116" cy="28.1126" r="18.7415" fill="#1F1F1F"/>
<mask id="mask0_3584_14058" style="mask-type:alpha" maskUnits="userSpaceOnUse" x="9" y="12" width="38" height="35">
<ellipse cx="28" cy="29.5" rx="19" ry="17.5" fill="#8E8E8E"/>
</mask>
<g mask="url(#mask0_3584_14058)">
<path d="M72.1547 59.5062L38.8886 25.7715L27.6437 28.1142L21.5527 37.9534L55.2874 71.6881L72.1547 59.5062Z" fill="#141414"/>
<path d="M61.847 51.5394L28.1123 17.8047V28.1125L61.847 61.8472V51.5394Z" fill="#141414"/>
</g>
<path d="M28.1125 17.8027L31.4173 24.499L38.8888 25.7679L33.4598 30.7851L34.672 37.9498L28.1125 34.6701L21.553 37.9498L22.7652 30.7851L17.418 25.5728L24.8077 24.499L28.1125 17.8027Z" fill="white"/>
</svg>
