<svg width="649" height="165" viewBox="0 0 649 165" fill="none" xmlns="http://www.w3.org/2000/svg">
<path fill-rule="evenodd" clip-rule="evenodd" d="M258.843 3.63159C258.843 6.17398 256.28 11.4939 251.57 18.7296C245.864 27.4952 244.17 31.3088 243.707 36.4363C243.043 43.7947 245.418 52.5074 248.088 52.5074C250.263 52.5074 259.264 45.0827 261.717 41.2646C262.707 39.7212 264.304 36.1776 265.265 33.39C266.84 28.817 267.024 28.6607 267.137 31.7982C267.313 36.676 264.203 44.347 259.767 49.9763C257.696 52.6064 256.672 54.7573 257.491 54.7573C260.543 54.7573 266.979 51.3757 271.116 47.5992C282.461 37.2396 280.857 21.2787 266.895 5.60588C261.188 -0.800721 258.843 -1.37557 258.843 3.63159ZM417.412 4.87467C417.412 6.00412 415.14 9.57134 412.364 12.8033C405.448 20.8524 404.009 26.5885 406.98 34.2663C407.948 36.7727 415.67 32.6677 418.732 28.0194C420.254 25.7099 421.525 24.6075 421.56 25.5693C421.594 26.5311 419.741 29.6956 417.443 32.6003C412.745 38.5389 414.145 39.4242 421.745 35.3181C428.412 31.716 430.302 28.3074 429.512 21.3125C428.529 12.6098 417.412 -2.49152 417.412 4.87467ZM313.57 10.2103C313.57 11.0765 311.997 14.4941 310.076 17.8037C306.275 24.3487 305.827 27.2039 307.912 31.6013C309.519 34.9885 311.949 34.5588 315.484 30.2626C317.783 27.4716 317.795 28.3221 315.525 32.8207C314.186 35.4723 317.548 34.7962 321.517 31.6148C324.708 29.0566 325.054 28.0217 324.504 22.6962C324.06 18.3988 322.784 15.519 320.057 12.6526C316.071 8.46214 313.57 7.52056 313.57 10.2103ZM363.946 13.2983C353.574 19.0862 347.518 28.5425 349.908 35.2214C351.335 39.2116 355.462 44.6327 357.071 44.6327C357.665 44.6327 357.933 41.2151 357.666 37.0393C357.205 29.8171 357.241 29.7102 358.426 34.8603C359.11 37.838 360.622 41.439 361.785 42.8621C363.724 45.2335 363.615 45.9017 360.486 50.8571C358.608 53.8304 357.071 58.203 357.071 60.5722C357.071 64.199 357.537 64.8819 360.017 64.8819C364.745 64.8819 372.157 61.5621 376.709 57.4054C379.028 55.2872 380.927 53.9609 380.927 54.457C380.927 56.6135 373.589 63.7322 369.045 65.9832C362.965 68.997 362.729 70.5067 368.342 70.5067C373.991 70.5067 381.863 67.7854 385.361 64.6232C387.649 62.5566 387.578 62.8199 385.001 66.0068C379.713 72.5394 372.526 78.5287 359.926 86.9017C353.339 91.2778 346.179 96.7237 344.014 99.0006C334.615 108.89 327.756 126.167 325.165 146.478L324.022 155.441L319.958 150.378C312.081 140.568 310.695 133.089 314.391 120.356C316.969 111.476 316.372 106.74 312.069 101.895C309.14 98.5979 298.839 91.8808 296.711 91.8808C296.16 91.8808 297.202 94.2443 299.027 97.1332C303.217 103.769 303.398 112.579 299.544 122.418C298.004 126.349 296.259 130.162 295.667 130.889C294.984 131.728 290.874 127.821 284.421 120.201C267.947 100.745 251.565 88.084 226.75 75.6241C209.479 66.9529 193.637 60.1571 192.611 60.9794C192.273 61.2505 189.538 60.4687 186.532 59.2403C183.528 58.0118 178.204 56.9555 174.701 56.8925L168.332 56.7777L172.836 55.6179C176.21 54.7494 179.468 54.8878 185.817 56.1691C195.296 58.0838 196.267 57.2918 190.304 52.5119C178.031 42.6742 155.694 47.6712 142.328 63.2451C140.036 65.9157 138.162 68.3254 138.162 68.6021C138.162 68.8789 140.845 68.8755 144.126 68.5931C147.406 68.3119 153.853 68.88 158.453 69.8564C170.64 72.4427 178.456 72.1311 187.001 68.7191C191.012 67.1161 194.292 65.0776 194.292 64.1889C194.292 63.0685 196.4 63.7097 201.161 66.2813C216.088 74.3394 241.059 92.6244 239.645 94.4603C239.16 95.0891 239.428 95.2736 240.242 94.8709C243.252 93.3792 269.813 120.062 282.611 137.431C288.777 145.801 296.44 158.093 299.721 164.88C300.93 167.379 300.833 167.458 298.36 166.005C267.518 147.876 254.582 142.66 235.805 140.779C225.542 139.751 225.699 141.57 236.04 143.491C251.273 146.322 264.067 152.32 277.124 162.753C290.733 173.625 297.536 182.839 302.498 197.114C307.661 211.964 306.364 231.274 299.516 241.531C298.091 243.666 298.436 244.456 302.133 247.526C304.476 249.471 308.269 254.352 310.56 258.374C316.583 268.943 317.409 272.591 311.809 263.88C298.242 242.783 277.84 229.918 247.389 223.257C237.039 220.994 232.451 220.699 207.623 220.698C186.318 220.697 176.179 221.197 165.525 222.776C118.656 229.721 63.0911 245.031 11.8676 265.112C-5.47962 271.913 -1.83533 271.456 18.1823 264.32C66.0393 247.26 107.648 236.537 148.686 230.685C168.236 227.898 211.606 227.836 226.92 230.575C262.733 236.979 289.877 252.374 303.707 274.123C305.942 277.641 304.515 276.412 296.807 268.186C285.746 256.381 268.649 247.079 247.723 241.48C207.859 230.815 156.5 235.535 92.8066 255.719C72.4747 262.163 48.6374 271.123 46.2476 273.222C44.5062 274.752 44.1876 274.85 67.9983 266.461C162.998 232.99 235.144 232.339 275.791 264.587C280.097 268.002 285.078 272.878 286.862 275.422L290.103 280.047L282.698 275.354C273.04 269.234 255.205 262.371 241.226 259.396C225.719 256.097 199.065 255.289 182.238 257.61C168.617 259.489 136.344 267.397 139.129 268.174C140.045 268.43 145.756 267.384 151.82 265.848C167.87 261.784 178.938 260.435 196.364 260.418C224.119 260.391 246.031 265.235 266.593 275.942L274.98 280.31L145.88 280.882C22.8959 281.426 14.4412 281.609 67.9983 282.567C165.66 284.314 196.865 285.372 235.689 288.249C272.652 290.988 304.627 295.695 302.757 298.123C302.291 298.726 302.618 298.869 303.482 298.441C305.357 297.512 314.703 301.146 318.033 304.097C319.331 305.247 321.079 307.64 321.921 309.414L323.451 312.638L326.684 307.724C331.515 300.383 340.917 296.673 364.648 292.744C400.859 286.75 502.029 281.998 593.429 281.998C614.974 281.998 632.112 281.556 632.112 281.001C632.112 280.43 577.386 279.924 504.11 279.819C433.708 279.716 375.907 279.475 375.665 279.279C374.99 278.738 393.433 270.017 400.573 267.502C416.894 261.751 428.157 260.153 452.494 260.137C473.287 260.123 477.127 260.435 490.156 263.199C498.135 264.892 505.924 266.818 507.465 267.478C509.007 268.139 510.627 268.393 511.065 268.042C512.054 267.249 504.785 264.779 492.238 261.646C486.972 260.331 481.717 258.992 480.559 258.671C479.401 258.348 477.191 257.979 475.648 257.85C474.104 257.721 466.526 256.978 458.808 256.198C426.281 252.912 394.331 259.147 368.533 273.816L359.648 278.868L362.061 275.089C366.383 268.325 383.614 255.939 395.904 250.765C412.248 243.882 425.335 241.418 449.514 240.675C488.116 239.488 529.701 247.324 580.893 265.433C602.266 272.994 602.97 273.207 601.894 271.81C600.404 269.879 573.82 260.139 551.424 253.32C516.341 242.639 493.407 238.063 463.433 235.759C414.573 232.005 370.703 245.644 349.161 271.287C343.818 277.649 342.882 277.537 347.536 271.094C370.597 239.17 417.165 223.67 477.316 227.899C525.219 231.267 577.456 243.64 637.566 265.858C643.268 267.966 648.227 269.453 648.586 269.165C650.315 267.781 587.32 245.912 559.844 238.359C510.021 224.663 478.022 219.617 441.267 219.661C420.689 219.684 414.664 220.095 404.081 222.192C373.629 228.225 350.778 242.36 338.315 262.874C331.139 274.684 330.548 275.172 334.465 266.045C337.915 258.005 340.433 254.183 346.433 247.882L351.352 242.717L348.653 237.828C339.547 221.326 342.407 190.931 355.216 168.083C360.26 159.085 370.525 145.878 372.474 145.878C373.003 145.878 374.281 144.614 375.312 143.068C376.345 141.522 377.398 140.424 377.652 140.627C377.906 140.832 380.815 138.932 384.117 136.408C390.89 131.226 402.527 126.334 413.366 124.11C417.384 123.286 420.095 122.325 419.391 121.977C418.686 121.628 412.369 120.982 405.352 120.542C385.388 119.29 371.351 123.387 356.14 134.909C347.681 141.316 347.448 141.074 348.841 127.344C350.591 110.126 356.363 101.633 377.857 84.6541C394.251 71.7025 398.837 65.1193 400.141 52.6604C401.194 42.5752 399.012 41.5706 394.953 50.2721C393.225 53.9766 391.718 57.0072 391.604 57.0072C391.491 57.0072 391.593 53.3365 391.833 48.8513C392.291 40.3208 389.768 29.9139 387.069 29.2051C386.203 28.9779 385.186 29.7339 384.811 30.8869C384.435 32.0389 380.366 35.2754 375.767 38.0788L367.408 43.1748L370.064 39.1227C372.308 35.6984 372.552 33.8501 371.643 27.196C371.051 22.8649 370.607 17.1693 370.659 14.5403C370.71 11.9112 370.647 9.75921 370.52 9.75921C370.393 9.75921 367.435 11.3521 363.946 13.2983ZM211.634 23.3914C206.178 30.8037 203.537 38.1249 203.537 45.8353C203.537 52.3837 204.061 53.926 207.52 57.5607C211.567 61.8141 218.422 64.8819 223.879 64.8819C226.614 64.8819 226.417 64.4589 221.757 60.3236C216.482 55.6427 213.871 51.5523 214.027 48.2157C214.085 46.9794 214.6 47.2978 215.511 49.1326C218.295 54.7483 230.307 62.5679 233.625 60.9243C235.459 60.0154 235.36 47.8175 233.487 43.8622C232.662 42.1207 228.846 37.8009 225.008 34.2618C221.171 30.7238 217.227 25.9664 216.245 23.6917L214.457 19.5542L211.634 23.3914ZM286.995 40.7235C282.218 48.5026 280.285 57.3976 281.884 64.2328C283.125 69.5392 290.019 75.7647 295.737 76.7445C298.213 77.1686 301.029 78.0258 301.993 78.6491C305.486 80.9046 303.796 76.56 300.106 73.796C295.902 70.6473 293.293 66.8641 292.019 62.0695C291.13 58.7284 291.149 58.734 293.794 62.6534C298.764 70.0173 308.713 75.9053 311.882 73.3573C313.79 71.8217 312.758 58.7397 310.456 55.3198C309.207 53.4636 305.259 49.2136 301.68 45.8758C298.103 42.5381 294.815 38.3611 294.375 36.595C293.934 34.8288 293.108 33.3832 292.538 33.3832C291.97 33.3832 289.475 36.6861 286.995 40.7235ZM334.754 44.4516C322.683 54.2488 318.865 64.793 324.384 73.0941C325.7 75.074 326.647 77.073 326.489 77.5376C326.33 78.0011 326.674 78.2733 327.252 78.1428C327.832 78.0112 329.779 78.558 331.582 79.3589C335.895 81.2736 336.678 80.4287 334.219 76.5173C331.674 72.4675 330.162 64.8819 331.901 64.8819C332.624 64.8819 333.216 65.9281 333.216 67.206C333.216 71.122 340.126 79.5063 343.352 79.5063C345.458 79.5063 349.992 70.15 350.024 65.738C350.041 63.424 348.746 58.8679 347.145 55.6134C345.545 52.3578 343.767 47.1639 343.194 44.0703L342.153 38.4455L334.754 44.4516ZM437.759 41.628C430.655 44.23 425.182 48.6623 421.683 54.6516C419.844 57.8003 418.741 60.6971 419.232 61.0908C419.723 61.4845 422.372 60.2235 425.121 58.2885C431.189 54.0182 438.882 50.7964 445.477 49.7625C449.84 49.0786 449.536 49.3463 442.738 52.1564C438.531 53.8967 434.053 55.7855 432.786 56.3536C430.012 57.6001 422.405 68.1353 423.592 69.087C424.054 69.4571 427.746 69.9746 431.797 70.2367C442.22 70.9116 452.965 67.377 465.471 59.1593C471.067 55.4807 478.063 51.9438 481.014 51.2981C487.829 49.8087 486.528 48.3361 474.574 44.005C464.124 40.2196 444.983 38.9832 437.759 41.628ZM254.003 57.7733C254.634 58.8983 255.532 64.8819 255.997 71.0691C256.463 77.2564 257.554 83.3311 258.424 84.5686C261.008 88.2472 268.323 93.3083 269.917 92.5186C272.245 91.3644 274.364 83.5662 273.487 79.3769C272.788 76.0482 272.905 75.8446 274.409 77.7581C275.355 78.9618 276.094 82.9036 276.052 86.517C275.986 92.1553 276.266 92.8932 278.025 91.7221C281.514 89.4002 284.102 84.3166 284.102 79.7819C284.102 71.1276 274.726 63.0482 258.304 57.5506C253.105 55.8103 252.907 55.8204 254.003 57.7733ZM404.081 73.3742C401.765 74.3259 399.082 75.9379 398.117 76.9571C396.023 79.1711 395.727 85.5788 397.766 84.5686C398.538 84.1861 399.169 84.6631 399.169 85.6272C399.169 87.8782 403.271 87.8782 407.279 85.6283C408.997 84.6642 411.188 84.239 412.152 84.6833C413.115 85.1277 413.449 85.0883 412.893 84.5945C411.804 83.6292 416.423 77.6197 420.078 75.2438C422.043 73.9659 422.06 73.6655 420.211 72.7296C417.018 71.1108 408.79 71.4404 404.081 73.3742ZM190.978 79.5209C184.368 84.1726 181.478 90.5589 181.429 100.613C181.406 105.175 181.712 109.17 182.109 109.489C182.508 109.807 184.086 109.062 185.619 107.834C187.151 106.605 192.559 104.011 197.638 102.068C203.035 100.003 208.256 97.0364 210.21 94.9271C213.989 90.8447 217.095 84.2468 215.943 82.7518C213.816 79.9923 201.171 82.9846 195.721 87.5384C193.065 89.758 192.78 89.8221 193.989 87.9311C196.09 84.6451 199.992 82.0824 205.921 80.0969C213.305 77.6231 212.382 76.1314 203.463 76.1314C196.935 76.1314 195.077 76.6354 190.978 79.5209ZM466.171 77.6996C464.819 78.5231 458.909 79.5457 453.039 79.972C439.2 80.9777 432.51 83.213 426.501 88.8411C423.818 91.3543 421.622 93.7448 421.622 94.152C421.622 95.6021 428.854 97.5055 434.362 97.5055C437.438 97.5055 442.145 96.7721 444.821 95.8755C451.403 93.6706 450.989 94.6774 444.165 97.4684C441.129 98.7104 435.604 99.8589 431.887 100.022C428.171 100.185 425.218 100.802 425.325 101.393C425.665 103.254 434.709 106.505 439.547 106.505C444.901 106.505 453.831 103.142 458.219 99.4731C462.19 96.1533 470.736 81.9666 470.736 78.6941C470.736 75.7827 469.695 75.5554 466.171 77.6996ZM319.848 88.3484C313.637 95.8721 313.479 104.254 319.465 108.724C323.796 111.959 326.827 111.813 324.642 108.474C323.034 106.018 323.066 106.001 325.755 107.911C329.911 110.864 331.581 110.323 332.67 105.674C333.355 102.748 332.904 99.923 331.192 96.3929C329.838 93.6019 328.006 89.6725 327.121 87.6622C326.236 85.6519 325.045 84.0061 324.472 84.0061C323.901 84.0061 321.82 85.9601 319.848 88.3484ZM406.186 92.5366C404.256 93.3949 399.909 94.1048 396.526 94.1138C393.142 94.1228 387.976 94.7066 385.044 95.4109C378.762 96.9194 368.956 104.451 370.116 106.876C371.187 109.112 380.813 110.286 385.746 108.783C387.94 108.115 390.051 107.82 390.437 108.13C391.537 109.012 383.646 111.2 377.05 111.843C369.659 112.563 370.96 114.55 380.178 116.618C385.792 117.88 387.009 117.774 392.818 115.519C400.315 112.61 405.317 107.782 409.096 99.8094C413.351 90.8323 412.847 89.5735 406.186 92.5366ZM284.102 102.278C284.102 107.902 284.792 111.295 286.286 113.004C289.138 116.269 290.234 116.158 292.197 112.411C293.294 110.318 293.578 110.135 293.075 111.849C292.667 113.24 292.984 114.38 293.78 114.38C295.82 114.38 298.134 110.554 298.134 107.181C298.134 104.257 291.411 97.1872 286.716 95.1735C284.277 94.1262 284.102 94.602 284.102 102.278ZM504.99 96.3423C504.288 96.8902 499.048 97.8509 493.346 98.4764C484.544 99.4427 482.267 100.167 478.26 103.28C471.229 108.745 472.413 111.005 482.31 111.005C484.692 111.005 486.26 111.309 485.797 111.68C485.334 112.051 482.703 112.355 479.951 112.355C477.198 112.355 474.946 112.797 474.946 113.338C474.946 114.6 482.512 117.755 485.539 117.755C493.327 117.755 502.211 110.697 506.386 101.191C508.386 96.6416 507.691 94.2342 504.99 96.3423ZM217.095 99.1525C209.539 101.973 207.518 104.255 212.578 104.255C214.147 104.255 215.76 104.946 216.164 105.79C216.568 106.635 220.18 108.652 224.189 110.273C229.822 112.551 232.675 113.062 236.741 112.528C239.636 112.147 242.003 111.363 242.003 110.783C242.003 108.541 238.958 105.35 235.303 103.759C233.199 102.845 232.181 102.075 233.037 102.05C233.894 102.026 236.894 103.255 239.702 104.784C244.656 107.478 244.81 107.493 244.81 105.26C244.81 103.993 242.965 101.478 240.708 99.6688C235.431 95.4379 227.512 95.2646 217.095 99.1525ZM488.979 109.88C487.714 110.535 487.54 110.977 488.545 110.988C489.464 110.997 490.606 110.499 491.083 109.88C492.16 108.483 491.674 108.483 488.979 109.88ZM439.287 113.448C436.269 113.983 431.533 115.55 428.763 116.931L423.727 119.442L435.155 120.201C442.303 120.677 448.705 121.829 452.249 123.279C460.503 126.655 460.641 128.008 452.478 125.521C443.743 122.86 433.853 122.824 426.626 125.427L421.105 127.415L426.4 132.114C434.609 139.398 443.907 142.467 461.783 143.795C477.541 144.965 486.157 146.971 486.193 149.477C486.21 150.603 486.5 150.58 487.452 149.374C488.934 147.498 484.919 137.513 479.95 130.716C475.764 124.99 465.088 116.957 459.075 115.008C452.558 112.895 445.536 112.341 439.287 113.448ZM200.127 126.134C200.521 132.394 201.393 135.313 203.574 137.665C207.671 142.089 212.672 144.127 217.192 143.218C221.141 142.424 222.411 140.254 218.928 140.254C217.813 140.254 215.414 139.115 213.597 137.723C211.78 136.33 211.271 135.764 212.466 136.465C215.695 138.356 220.272 139.268 222.735 138.51C224.444 137.985 224.646 137.103 223.677 134.393C222.007 129.725 218.711 127.025 210.715 123.774C207.013 122.269 203.63 120.299 203.197 119.396C202.765 118.494 201.779 117.755 201.006 117.755C200.144 117.755 199.803 121.004 200.127 126.134ZM260.047 128.19C256.502 129.506 246.213 136.28 246.213 137.297C246.213 138.465 255.617 140.254 261.757 140.254C267.33 140.254 268.953 139.753 271.37 137.289C274.217 134.388 275.227 131.254 273.316 131.254C272.787 131.254 270.74 132.393 268.767 133.785C265.308 136.224 265.271 136.228 267.746 133.868C273 128.862 268.055 125.214 260.047 128.19ZM400.573 139.523C400.573 142.575 406.928 150.039 412.538 153.577C418.332 157.23 414.465 156.491 407.929 152.697C404.798 150.878 401.093 147.84 399.698 145.947C398.302 144.053 396.585 142.504 395.882 142.504C393.746 142.504 396.246 151.845 399.276 155.183C400.831 156.899 401.728 158.791 401.266 159.389C400.804 159.988 401.305 160.207 402.38 159.876C403.454 159.546 405.149 160.063 406.145 161.026C411.01 165.726 430.228 167.186 442.408 163.782C447.523 162.353 448.129 160.972 444.091 159.945C442.557 159.555 437.401 155.409 432.636 150.733C423.332 141.606 414.006 136.911 405.133 136.89C401.279 136.881 400.573 137.287 400.573 139.523ZM187.675 146.304L182.502 150.105L189.719 150.9C193.688 151.338 198.165 151.383 199.668 151C203.451 150.039 204.503 144.999 201.216 143.589C196.73 141.664 192.962 142.42 187.675 146.304ZM214.469 146.985C209.838 148.485 205.519 156.816 205.519 164.249V170.659L210.781 168.081C213.676 166.663 217.923 164.744 220.221 163.817C224.987 161.896 231.079 155.279 230.459 152.698C229.868 150.235 225.879 149.928 220.814 151.953C217.523 153.269 216.85 153.319 218.054 152.157C218.928 151.312 221.561 149.985 223.903 149.206C227 148.178 227.656 147.537 226.311 146.853C223.979 145.667 218.346 145.73 214.469 146.985ZM246.213 153.739C246.213 154.348 248.346 155.562 250.954 156.436C253.561 157.309 256.155 158.623 256.721 159.357C257.334 160.151 256.015 159.971 253.454 158.909C248.618 156.904 243.982 156.597 242.746 158.2C242.291 158.79 243.043 161.195 244.417 163.544C246.288 166.744 248.821 168.589 254.509 170.899C258.686 172.595 263.263 174.825 264.683 175.854C266.102 176.883 267.309 177.521 267.366 177.27C267.424 177.019 267.756 175.567 268.106 174.043C269.252 169.033 265.917 159.666 261.7 156.046C258.516 153.314 256.562 152.628 251.965 152.628C248.801 152.628 246.213 153.128 246.213 153.739ZM376.717 155.514C376.717 157.183 378.032 160.255 379.639 162.339C381.244 164.422 382.218 166.128 381.803 166.128C381.386 166.128 379.282 163.724 377.127 160.784C373.267 155.519 373.202 155.488 372.749 158.67C371.375 168.309 380.897 174.837 396.631 175.042C404.255 175.141 405.841 173.994 401.966 171.182C400.453 170.085 397.316 166.489 394.995 163.192C391.022 157.549 387.277 155.087 379.875 153.257C377.14 152.581 376.717 152.882 376.717 155.514Z" fill="#17756A"/>
</svg>
