<svg width="35" height="26" viewBox="0 0 35 26" fill="none" xmlns="http://www.w3.org/2000/svg">
<path fill-rule="evenodd" clip-rule="evenodd" d="M5.55853 0.934211C4.69077 1.05695 4.56977 1.21213 4.55309 2.22392L4.54501 2.70956L3.46936 2.83538C2.05413 3.00087 2.02642 3.03321 2.02642 4.51543V5.62039H1.6522C1.44641 5.62039 1.18668 5.66995 1.07503 5.73047C0.876793 5.838 0.87207 6.05232 0.87207 14.923C0.87207 23.0379 0.889595 24.0232 1.03693 24.1725C1.18354 24.321 1.9708 24.3396 8.12045 24.3396H15.0391V24.587C15.0391 24.723 15.1485 24.9384 15.2819 25.0656C15.5159 25.2882 15.6089 25.2968 17.7823 25.2968C20.0063 25.2968 20.0431 25.2932 20.2679 25.0507C20.3934 24.9153 20.496 24.6999 20.496 24.5721V24.3396H27.3766C31.9189 24.3396 34.3261 24.3021 34.4601 24.2295C34.6584 24.122 34.6631 23.907 34.6631 14.98C34.6631 6.05295 34.6584 5.838 34.4601 5.73047C34.3485 5.66995 34.0887 5.62039 33.8829 5.62039H33.5087V4.46693C33.5087 3.00258 33.4958 2.988 32.0482 2.82517L30.9901 2.70615V2.08448C30.9901 1.14427 30.7868 0.984838 29.458 0.883797C28.1199 0.781905 26.036 0.881669 24.9148 1.10119C22.5549 1.56322 20.049 2.73136 18.3628 4.15551C17.772 4.65454 17.8456 4.67294 16.5608 3.7072C14.9628 2.5063 12.9349 1.59576 10.8624 1.14863C9.73014 0.904324 6.65054 0.779884 5.55853 0.934211ZM6.61759 1.98174L5.69936 2.01248V10.9857V19.9588L6.93241 19.9013C10.3213 19.7432 13.759 20.7269 16.3771 22.6038L17.033 23.074V14.2577V5.44128L16.17 4.79015C14.5699 3.58298 12.299 2.56523 10.4217 2.21414C9.54356 2.04992 7.78737 1.9426 6.61759 1.98174ZM26.74 2.01982C23.9203 2.22541 21.5353 3.14861 19.1828 4.94512L18.5074 5.46085L18.5048 14.2721L18.5022 23.0833L19.0006 22.7227C21.7374 20.7432 25.2 19.73 28.6415 19.9018L29.8358 19.9614V10.9896V2.0179L28.7601 1.9844C28.1686 1.966 27.2595 1.98195 26.74 2.01982ZM3.96783 3.88291C3.79468 3.90546 3.54681 3.94747 3.41689 3.9764L3.18077 4.02905V12.976V21.923L3.73171 21.8533C6.159 21.5465 9.28519 21.5439 11.6728 21.8466C12.3319 21.9302 12.8914 21.9783 12.9159 21.9534C12.9759 21.8927 11.7857 21.5246 10.7708 21.2901C10.1065 21.1365 9.45834 21.0994 7.38051 21.0958L4.81156 21.0915L4.6788 20.8277C4.57502 20.6214 4.5469 18.7417 4.54983 12.2147C4.55277 5.47 4.52748 3.86323 4.41813 3.85377C4.34362 3.84739 4.14098 3.86047 3.96783 3.88291ZM30.9901 12.2576C30.9901 19.2973 30.9661 20.716 30.8437 20.8857C30.7069 21.0753 30.5266 21.0894 28.089 21.1007C26.0674 21.1101 25.3156 21.1522 24.7462 21.288C23.8577 21.4999 22.5738 21.9074 22.6263 21.9607C22.6472 21.9818 23.18 21.9317 23.8102 21.8492C26.1638 21.5411 29.326 21.5429 31.8034 21.8538L32.3544 21.923V12.976V4.02905L32.1183 3.98044C31.9883 3.95374 31.6814 3.9095 31.4361 3.88216L30.9901 3.8325V12.2576Z" fill="#197065"/>
</svg>
