<svg width="17" height="22" viewBox="0 0 17 22" fill="none" xmlns="http://www.w3.org/2000/svg">
<path fill-rule="evenodd" clip-rule="evenodd" d="M16.3102 8.79632C16.1771 8.79632 15.8986 8.7127 15.5198 8.55899C15.061 8.3728 14.8614 8.31754 14.5929 8.30243C14.2078 8.28077 13.7517 8.35824 13.7517 8.44538C13.7517 8.51636 14.1403 8.81005 14.3402 8.89009C14.421 8.92242 14.6065 8.97453 14.7524 9.0059C14.9918 9.05727 15 9.06327 14.8357 9.06698C14.5804 9.07271 14.1789 8.97123 13.8842 8.82649C13.7465 8.75891 13.6339 8.72548 13.6339 8.75222C13.6339 8.85181 13.8109 9.06181 14.0086 9.1968C14.5509 9.56701 15.3864 9.51467 16.2068 9.05906C16.5422 8.87283 16.5723 8.79632 16.3102 8.79632ZM16.2451 13.9706C16.186 13.9706 15.9992 13.8965 15.8301 13.8059C15.4087 13.5802 15.1085 13.5333 14.7065 13.6302C14.5753 13.6618 14.7902 13.9138 15.0335 14.0137C15.1544 14.0633 15.2122 14.1048 15.1618 14.1059C15.1115 14.107 14.9458 14.0466 14.7938 13.9716C14.4829 13.8183 14.4365 13.864 14.6515 14.112C14.84 14.3295 15.0185 14.3912 15.3846 14.3654C15.8402 14.3333 16.6307 13.9706 16.2451 13.9706ZM15.9658 10.5821C15.9205 10.5821 15.7416 10.5308 15.5683 10.4681C15.2257 10.3441 15.0762 10.3295 14.846 10.3975C14.6687 10.4499 14.6912 10.5292 14.9161 10.6446C15.0622 10.7196 15.0177 10.72 14.7822 10.6459C14.6434 10.6022 14.6788 10.7119 14.8453 10.8414C14.9793 10.9456 15.0334 10.9569 15.3122 10.9389C15.5372 10.9244 15.6879 10.8828 15.838 10.7938C16.0573 10.6637 16.1066 10.5821 15.9658 10.5821ZM15.8042 12.2259C15.5012 11.8875 15.0062 11.6899 14.6565 11.7679C14.4477 11.8144 14.1639 11.9491 14.1639 12.0016C14.1639 12.021 14.3428 12.0297 14.5614 12.021C14.9394 12.006 14.945 12.0072 14.6755 12.0458C14.5196 12.0682 14.3311 12.1175 14.2566 12.1554C14.1324 12.2187 14.0975 12.2151 13.8381 12.113C13.6824 12.0518 13.4535 12.0016 13.3295 12.0016C13.1397 12.0016 13.1039 12.0168 13.1039 12.0977C13.1039 12.252 13.2777 12.4939 13.4953 12.6424C13.6062 12.7181 13.6756 12.7801 13.6496 12.7801C13.5367 12.7801 13.1641 12.5406 13.0463 12.3923C12.8885 12.1939 12.8095 12.1862 12.8095 12.3694C12.8095 12.5537 12.9519 12.8106 13.1175 12.9247C13.2256 12.9994 13.2119 12.9971 13.045 12.913C12.7031 12.7404 12.3895 12.5059 11.9512 12.0948C11.7222 11.8798 11.4371 11.6462 11.3179 11.5755C10.8002 11.2688 9.89582 11.045 8.83261 10.9605L8.36345 10.9232L8.62844 10.7906C9.142 10.5335 9.53349 10.4883 10.2 10.6089C10.6648 10.693 10.9128 10.6736 11.1664 10.5331C11.339 10.4376 11.6906 10.1014 11.6906 10.032C11.6906 10.014 11.5669 10.048 11.4157 10.1076C11.0683 10.2443 10.6071 10.2502 10.0921 10.1245C9.88628 10.0742 9.68671 10.0173 9.64867 9.99794C9.60474 9.97564 9.80926 9.84152 10.2081 9.63098C11.2266 9.0934 11.8894 8.55885 12.5416 7.7491C12.9955 7.18551 13.3512 6.66859 13.3082 6.63512C13.294 6.62408 13.3349 6.53484 13.3992 6.43676C13.4635 6.33872 13.5188 6.16499 13.5221 6.0507L13.5281 5.84286L13.5889 5.98984C13.6343 6.09992 13.6271 6.20625 13.56 6.4134C13.4598 6.72271 13.5012 6.7544 13.7514 6.55984C14.2664 6.15936 14.0048 5.43047 13.1896 4.99432C13.0498 4.91955 12.9237 4.85837 12.9092 4.85837C12.8947 4.85837 12.8949 4.94592 12.9096 5.05298C12.9244 5.16004 12.8946 5.3704 12.8435 5.5205C12.7081 5.91818 12.7244 6.17323 12.903 6.45205C12.987 6.58292 13.0937 6.68997 13.1402 6.68997C13.1988 6.68997 13.1653 6.75875 13.0307 6.91412C12.6088 7.40119 11.6517 8.21602 11.5556 8.16986C11.5227 8.15407 11.513 8.16281 11.5341 8.18937C11.6122 8.28759 10.2154 9.1543 9.30618 9.57191C8.86806 9.77311 8.22459 10.0232 7.86932 10.1302C7.73853 10.1697 7.73435 10.1665 7.81043 10.0858C8.75941 9.07939 9.03247 8.6573 9.13093 8.04458C9.18476 7.70967 9.08953 7.7148 8.98895 8.05223C8.84079 8.54932 8.5268 8.96679 7.98068 9.39287C7.41153 9.83694 6.92924 10.0589 6.18195 10.2208C5.40463 10.3893 4.39382 10.347 3.85688 10.1235C3.74511 10.077 3.70377 10.0883 3.54307 10.2089C3.44125 10.2854 3.18574 10.4091 2.97522 10.4839C2.42196 10.6804 2.23099 10.7074 2.68696 10.5247C3.79134 10.082 4.46478 9.41622 4.81346 8.42258C4.93194 8.08483 4.94737 7.93514 4.94743 7.12498C4.94748 6.42975 4.92128 6.09892 4.83866 5.75128C4.47509 4.22189 3.67368 2.40874 2.62248 0.737267C2.2665 0.171211 2.29041 0.290128 2.66393 0.943323C3.55697 2.50495 4.11829 3.86267 4.42462 5.2018C4.57054 5.83974 4.57378 7.25493 4.43039 7.75464C4.09514 8.92325 3.28926 9.80901 2.15079 10.2603C1.96664 10.3332 2.03095 10.2866 2.4616 10.0351C3.07951 9.6742 3.56645 9.1163 3.85953 8.43348C4.41785 7.13267 4.17076 5.45676 3.11419 3.37839C2.77688 2.71494 2.30784 1.9371 2.19796 1.85912C2.11787 1.8023 2.11275 1.7919 2.55187 2.56887C4.30396 5.66881 4.33805 8.02301 2.64998 9.34937C2.47119 9.48985 2.21598 9.65241 2.08277 9.71061L1.84068 9.81638L2.08636 9.57475C2.40671 9.25957 2.76599 8.67763 2.92169 8.22147C3.0944 7.71544 3.13669 6.84571 3.0152 6.29664C2.91686 5.85215 2.50288 4.79907 2.46218 4.88992C2.44882 4.91982 2.50358 5.10619 2.58396 5.30405C2.79673 5.82779 2.86733 6.18894 2.86822 6.75756C2.86963 7.66324 2.61606 8.37825 2.05556 9.04921L1.8269 9.3229L1.79699 5.11022C1.76849 1.09713 1.75895 0.821246 1.70877 2.56887C1.61732 5.75567 1.56197 6.77391 1.41133 8.04078C1.26794 9.24694 1.02155 10.2903 0.894475 10.2293C0.862911 10.2141 0.855432 10.2247 0.87781 10.2529C0.926451 10.3141 0.736245 10.6191 0.581723 10.7277C0.521539 10.7701 0.396286 10.8271 0.303419 10.8546L0.134647 10.9045L0.391868 11.01C0.77617 11.1677 0.970381 11.4745 1.17602 12.2488C1.48983 13.4305 1.73857 16.7317 1.73857 19.7142C1.73857 20.4172 1.76171 20.9765 1.79075 20.9765C1.82066 20.9765 1.8471 19.1907 1.85264 16.7996C1.858 14.5024 1.87066 12.6163 1.8809 12.6083C1.90923 12.5863 2.36573 13.1881 2.4974 13.4211C2.79843 13.9537 2.88206 14.3212 2.88294 15.1153C2.88365 15.7939 2.86733 15.9191 2.72265 16.3443C2.63402 16.6047 2.5332 16.8588 2.49864 16.9091C2.46401 16.9594 2.45076 17.0123 2.46913 17.0266C2.51065 17.0589 2.63991 16.8217 2.80391 16.4123C2.87275 16.2404 2.94283 16.0689 2.95967 16.0311C2.97657 15.9934 2.99589 15.9212 3.00266 15.8709C3.00937 15.8205 3.0483 15.5732 3.0891 15.3214C3.26112 14.26 2.93476 13.2174 2.16686 12.3756L1.9024 12.0857L2.1002 12.1644C2.45429 12.3055 3.10265 12.8677 3.37353 13.2688C3.73381 13.8021 3.86277 14.2291 3.9017 15.0181C3.96382 16.2777 3.55361 17.6347 2.60569 19.3051C2.20991 20.0026 2.19872 20.0255 2.27186 19.9904C2.37297 19.9418 2.88282 19.0743 3.23974 18.3435C3.79888 17.1987 4.03843 16.4504 4.15904 15.4723C4.35554 13.878 3.64159 12.4464 2.29924 11.7435C1.96623 11.5691 1.97206 11.5386 2.30937 11.6905C3.98049 12.443 4.79184 13.9625 4.57048 15.9253C4.39417 17.4885 3.74647 19.193 2.58343 21.1545C2.47308 21.3405 2.39523 21.5023 2.41031 21.514C2.4828 21.5705 3.62757 19.5149 4.02295 18.6183C4.73985 16.9925 5.00402 15.9484 5.00172 14.749C5.00048 14.0775 4.97899 13.8809 4.86922 13.5356C4.55341 12.5419 3.81348 11.7963 2.73966 11.3896C2.1214 11.1554 2.0959 11.1361 2.57366 11.2639C2.99453 11.3765 3.19457 11.4587 3.5244 11.6545L3.79481 11.815L4.05074 11.7269C4.91457 11.4298 6.50565 11.5231 7.70167 11.9411C8.17265 12.1057 8.86399 12.4406 8.86399 12.5042C8.86399 12.5215 8.93018 12.5632 9.01109 12.5968C9.09207 12.6305 9.14954 12.6649 9.13888 12.6732C9.12816 12.6815 9.22762 12.7764 9.35977 12.8841C9.63101 13.1052 9.88711 13.4849 10.0035 13.8386C10.0466 13.9697 10.0969 14.0581 10.1152 14.0352C10.1334 14.0122 10.1672 13.806 10.1903 13.5771C10.2558 12.9256 10.0413 12.4676 9.43821 11.9712C9.10284 11.6952 9.1155 11.6876 9.83423 11.7331C10.7355 11.7902 11.1801 11.9785 12.0689 12.6799C12.7469 13.2148 13.0915 13.3645 13.7437 13.407C14.2716 13.4414 14.3242 13.3702 13.8687 13.2377C13.6748 13.1814 13.5161 13.1322 13.5161 13.1285C13.5161 13.1248 13.7083 13.1281 13.9431 13.1359C14.3896 13.1509 14.9344 13.0685 14.9715 12.9805C14.9834 12.9522 14.9438 12.919 14.8834 12.9068C14.8231 12.8945 14.6537 12.7617 14.507 12.6117L14.2402 12.3389L14.4523 12.4256C14.6316 12.4988 14.7283 12.5068 15.0767 12.4771C15.3034 12.4578 15.6015 12.4433 15.7391 12.445C15.8768 12.4467 15.9894 12.4446 15.9894 12.4405C15.9894 12.4363 15.906 12.3398 15.8042 12.2259ZM15.2758 7.25585C14.8878 7.07782 14.5046 6.99164 14.1009 6.99164C13.7582 6.99164 13.6774 7.00872 13.4872 7.12159C13.2645 7.25365 13.1039 7.47733 13.1039 7.65541C13.1039 7.74466 13.1261 7.73825 13.3425 7.58618C13.5876 7.41405 13.8017 7.32884 13.9763 7.33392C14.0411 7.33584 14.0244 7.35265 13.9283 7.38237C13.6344 7.47321 13.225 7.86518 13.3111 7.97342C13.3587 8.03327 13.9972 8.03007 14.2042 7.96894C14.2954 7.94201 14.5215 7.81751 14.7068 7.69227C14.892 7.56704 15.141 7.43837 15.2601 7.40631L15.4767 7.34798L15.2758 7.25585ZM14.3685 9.71496C13.9613 9.55909 13.4957 9.49599 13.1379 9.54819C12.8601 9.58867 12.5342 9.81363 12.4829 10.0002C12.4607 10.081 12.4159 10.1729 12.3832 10.2044C12.2652 10.3183 12.4926 10.2632 12.6373 10.1428C12.8021 10.0056 13.0002 9.92046 13.2511 9.87888C13.426 9.8499 13.4257 9.8505 13.2206 9.93681C12.8351 10.099 12.5269 10.4236 12.6603 10.527C12.7406 10.5893 13.4254 10.5556 13.6045 10.4805C13.7016 10.4398 13.9241 10.3109 14.0988 10.1941C14.2735 10.0774 14.4922 9.97015 14.5846 9.95577C14.6771 9.94139 14.7528 9.91442 14.7528 9.89583C14.7528 9.87728 14.5799 9.79587 14.3685 9.71496ZM14.1734 11.2734C13.6605 10.8795 13.1086 10.7549 12.674 10.935C12.5704 10.9779 12.4657 11.0088 12.4414 11.0037C12.4172 10.9985 12.4029 11.0097 12.4097 11.0286C12.4166 11.0475 12.388 11.111 12.3461 11.1699C12.2459 11.3106 12.2901 11.3362 12.4948 11.2559C12.7068 11.1729 13.1039 11.1235 13.1039 11.1803C13.1039 11.2039 13.0491 11.2232 12.9823 11.2232C12.7773 11.2232 12.3384 11.4487 12.3384 11.5539C12.3384 11.6227 12.8281 11.7706 13.0591 11.7717C13.1802 11.7722 13.4187 11.7299 13.5891 11.6777C13.7595 11.6255 14.0314 11.5675 14.1933 11.5488L14.4878 11.5148L14.1734 11.2734ZM14.3212 14.6345C14.185 14.4027 13.953 14.2241 13.6394 14.11C13.4746 14.0499 13.323 14.014 13.3024 14.03C13.2818 14.046 13.3478 14.1325 13.4491 14.2222C13.6726 14.4202 13.8412 14.6712 13.8954 14.8864C13.9312 15.0288 13.9172 15.0188 13.7701 14.797C13.679 14.6597 13.5801 14.5136 13.5503 14.4723C13.4851 14.3817 12.9336 14.1335 12.8838 14.1723C12.8644 14.1873 12.8373 14.3078 12.8236 14.44C12.7883 14.7801 12.9733 15.1307 13.4035 15.5388C13.596 15.7214 13.7812 15.9497 13.815 16.046C13.8929 16.2684 13.97 16.2259 14.1968 15.8358C14.3949 15.4949 14.4596 14.8703 14.3212 14.6345ZM13.476 8.63839C13.4171 8.65899 13.1039 8.6883 12.78 8.70345C12.4561 8.71866 12.1382 8.75428 12.0734 8.78267C11.8808 8.86697 11.6159 9.10567 11.6572 9.15769C11.7176 9.23366 12.1258 9.3028 12.3451 9.27418C12.5194 9.25138 12.5301 9.25518 12.4299 9.30426C12.3669 9.33513 12.1605 9.35926 11.9714 9.35789C11.6762 9.35573 11.6376 9.36485 11.6989 9.42227C11.8205 9.5361 12.0866 9.62054 12.3239 9.62054C12.777 9.62054 13.1999 9.31461 13.4877 8.77873C13.5788 8.60908 13.5783 8.60262 13.476 8.63839ZM12.6594 13.5356C12.6095 13.46 12.5252 13.3725 12.4718 13.341C12.3559 13.2727 12.0205 13.263 12.0734 13.3295C12.0934 13.3547 12.0684 13.3753 12.018 13.3753C11.9001 13.3753 11.9001 13.5092 12.0179 13.6399C12.0684 13.696 12.0906 13.7675 12.0674 13.799C12.0441 13.8304 12.0462 13.8413 12.072 13.8231C12.1225 13.7876 12.4371 13.9383 12.5615 14.0576C12.6284 14.1217 12.6441 14.1222 12.6931 14.0619C12.7779 13.9577 12.7606 13.6893 12.6594 13.5356ZM12.3376 6.58182C12.0941 6.36615 11.7598 6.27182 11.2335 6.27022C10.9947 6.26948 10.7856 6.27947 10.7689 6.29242C10.7522 6.30543 10.7912 6.35694 10.8555 6.40695C10.9198 6.45695 11.0556 6.63342 11.1573 6.79914C11.2654 6.97525 11.4207 7.14563 11.5311 7.20937C11.7448 7.33268 12.0902 7.43406 12.1685 7.39647C12.3129 7.32705 12.1563 6.91444 11.9179 6.73659C11.8017 6.64991 11.7984 6.64061 11.8974 6.68008C12.0694 6.74863 12.2035 6.87597 12.3075 7.06944C12.4369 7.31038 12.515 7.28025 12.515 6.98921C12.515 6.7762 12.4887 6.71557 12.3376 6.58182ZM12.4329 15.5617C12.3898 15.5175 12.3363 15.3247 12.314 15.1332C12.2613 14.6816 12.1443 14.4632 11.8497 14.2672C11.7182 14.1796 11.593 14.108 11.5717 14.108C11.4958 14.108 11.3962 14.344 11.3962 14.5237C11.3962 14.6241 11.4346 14.7776 11.4815 14.865C11.5969 15.0798 11.5442 15.0663 11.3981 14.8436C11.3331 14.7445 11.273 14.5642 11.2644 14.4429C11.2559 14.3217 11.2236 14.2253 11.1927 14.2288C11.0953 14.2399 10.9251 14.535 10.9251 14.6929C10.9251 14.8676 11.1011 15.159 11.2932 15.3022C11.4669 15.4318 12.2096 15.7106 12.3809 15.7106C12.5333 15.7106 12.5452 15.6766 12.4329 15.5617ZM11.8755 10.787C11.4817 10.5843 11.0429 10.5792 10.8089 10.7745C10.6396 10.9158 10.6472 11.0147 10.822 10.9434C10.9506 10.8909 10.9514 10.892 10.8515 10.9797C10.6969 11.1154 10.7252 11.1698 10.9686 11.2054C11.1218 11.2277 11.2696 11.213 11.4544 11.1572C11.6005 11.113 11.8062 11.0532 11.9114 11.0243C12.0167 10.9954 12.1028 10.9566 12.1028 10.9379C12.1028 10.9192 12.0005 10.8513 11.8755 10.787ZM11.6563 13.6043C11.6113 13.5413 11.5742 13.3995 11.5737 13.2891C11.5732 13.1787 11.5427 13.0101 11.5058 12.9144C11.4268 12.7094 11.0326 12.3894 10.9056 12.4273C10.7886 12.4622 10.7271 12.7763 10.8058 12.9373C10.8408 13.0089 10.8562 13.0778 10.84 13.0904C10.7939 13.1263 10.6793 12.8688 10.6456 12.6535C10.608 12.4124 10.504 12.4548 10.3957 12.7556C10.3297 12.9388 10.3352 12.9785 10.4532 13.1681C10.6055 13.4127 10.8582 13.5759 11.2756 13.6992C11.7455 13.8381 11.8114 13.8216 11.6563 13.6043ZM11.1464 9.62054C10.8519 9.62054 10.6743 9.64307 10.5849 9.69183C10.414 9.78488 10.4197 9.82064 10.6159 9.8847C10.7255 9.92051 10.735 9.92976 10.6453 9.91336C10.5725 9.90004 10.5129 9.91039 10.5129 9.93635C10.5129 10.0029 10.7131 10.0784 10.8897 10.0784C11.0427 10.0784 11.4128 9.85906 11.5182 9.70584C11.5731 9.62626 11.5482 9.62054 11.1464 9.62054ZM11.4571 16.8283C11.4284 16.8055 11.3781 16.6345 11.3453 16.4484C11.2948 16.1612 11.2568 16.0869 11.0939 15.9561C10.8078 15.7267 10.6895 15.7653 10.6895 16.0883C10.6895 16.166 10.6736 16.2172 10.6542 16.2021C10.6347 16.187 10.6188 16.1011 10.6188 16.0113C10.6188 15.9215 10.5957 15.848 10.5674 15.848C10.5013 15.848 10.3362 16.0949 10.3362 16.1937C10.3362 16.4478 10.7056 16.7377 11.2033 16.8739C11.4414 16.9392 11.5674 16.9165 11.4571 16.8283ZM11.31 7.43406C11.1623 7.18748 11.0428 7.12155 11.0428 7.28666C11.0428 7.33786 11.0067 7.39047 10.9625 7.40366C10.9183 7.41685 10.8127 7.53471 10.7278 7.66553C10.6086 7.84933 10.5818 7.94242 10.6098 8.07512C10.6297 8.16959 10.6708 8.24684 10.7011 8.24684C10.8185 8.24684 10.9855 8.14747 11.0688 8.02819C11.1167 7.95955 11.157 7.92631 11.1583 7.95424C11.1596 7.98221 11.0952 8.08011 11.0152 8.17174C10.8741 8.33338 10.8734 8.33842 10.9903 8.33842C11.0566 8.33842 11.1882 8.2782 11.2829 8.20457C11.5044 8.03236 11.5135 7.77396 11.31 7.43406ZM10.7484 16.3059C10.7141 16.2646 10.691 16.2589 10.6904 16.2917C10.6899 16.3217 10.716 16.359 10.7484 16.3746C10.8215 16.4097 10.8215 16.3938 10.7484 16.3059ZM10.5616 14.6844C10.5336 14.5859 10.4516 14.4314 10.3793 14.341L10.2479 14.1766L10.2081 14.5496C10.1832 14.7828 10.1229 14.9917 10.047 15.1074C9.87027 15.3767 9.79948 15.3812 9.92963 15.1148C10.069 14.8298 10.0708 14.5071 9.93457 14.2712L9.83052 14.0911L9.58454 14.2639C9.20324 14.5317 9.0426 14.8352 8.97305 15.4185C8.91181 15.9326 8.80681 16.2138 8.67561 16.215C8.61666 16.2155 8.6179 16.225 8.68103 16.2561C8.77919 16.3044 9.30188 16.1734 9.65768 16.0113C9.95742 15.8747 10.3779 15.5263 10.48 15.3301C10.5906 15.1174 10.6196 14.8883 10.5616 14.6844ZM9.89753 6.88037C9.56988 6.89324 9.41707 6.92167 9.29393 6.99283C9.06239 7.12654 8.95568 7.28973 9.00326 7.43722C9.04484 7.56608 9.15843 7.60752 9.15843 7.49386C9.15843 7.45746 9.21803 7.37921 9.29093 7.31991C9.36383 7.26061 9.39345 7.24399 9.35677 7.283C9.25777 7.38836 9.21002 7.53773 9.24971 7.61809C9.27721 7.67386 9.32338 7.68046 9.46524 7.64882C9.70956 7.59433 9.85089 7.48677 10.0211 7.22586C10.0999 7.10506 10.203 6.99466 10.2503 6.98056C10.2975 6.96645 10.3362 6.93426 10.3362 6.90903C10.3362 6.88092 10.1661 6.86979 9.89753 6.88037ZM9.78994 8.8356C9.72105 8.71994 9.36642 8.38421 9.31319 8.38421C9.25206 8.38421 9.15843 8.69104 9.15843 8.89142C9.15843 9.07325 9.18464 9.12623 9.3136 9.20508C9.46547 9.29799 9.62953 9.33096 9.62953 9.26859C9.62953 9.25133 9.56994 9.18453 9.49704 9.12014C9.36937 9.00727 9.36919 9.00608 9.49268 9.08685C9.75473 9.25829 9.9457 9.09693 9.78994 8.8356ZM9.19671 13.4211C9.03695 13.4211 8.64623 13.6285 8.46102 13.8116C8.26976 14.0006 8.30845 13.8744 8.50707 13.6611C8.6023 13.559 8.76129 13.4381 8.8604 13.3926C8.95957 13.347 9.04066 13.291 9.04066 13.268C9.04066 13.1983 8.55165 13.2799 8.37693 13.3788C8.28713 13.4295 8.18808 13.4588 8.15675 13.4437C8.12542 13.4287 8.11394 13.445 8.13125 13.4801C8.14857 13.5151 8.12148 13.5704 8.07107 13.6029C7.82504 13.7617 7.7486 14.3888 7.92679 14.7862C8.00158 14.9532 8.0739 14.9729 8.12766 14.8412C8.14809 14.7911 8.3651 14.6229 8.60989 14.4674C9.08765 14.1638 9.33339 13.8595 9.33451 13.5699C9.33498 13.4441 9.31372 13.4211 9.19671 13.4211ZM8.84173 6.47403L8.64275 6.30525L8.60112 6.54074C8.57821 6.67024 8.57586 6.81635 8.59588 6.8654C8.64623 6.98885 8.91004 7.02314 8.98383 6.9159C9.08459 6.76951 9.04501 6.64657 8.84173 6.47403ZM8.80605 7.34834C8.72755 7.19724 8.29143 7.05629 7.90235 7.05629L7.56681 7.05629L7.70178 7.22801C7.77598 7.32247 7.87644 7.46108 7.92497 7.53604C8.02555 7.69159 8.37193 7.89036 8.50702 7.87012C8.63592 7.85084 8.652 7.72066 8.546 7.55541C8.4771 7.44803 8.47451 7.42605 8.53534 7.46534C8.57957 7.49386 8.64905 7.57977 8.6898 7.65619C8.74363 7.75725 8.77719 7.77868 8.813 7.73477C8.87506 7.65866 8.87177 7.47486 8.80605 7.34834ZM8.45254 8.38421C8.42063 8.38421 8.35709 8.45381 8.31133 8.53888C8.26563 8.62396 8.19685 8.70863 8.15846 8.72708C8.11688 8.74709 8.12631 8.70405 8.1819 8.62048C8.28683 8.46269 8.30291 8.3114 8.21899 8.27106C8.18814 8.25622 8.06224 8.28077 7.93928 8.32559C7.77174 8.38663 7.67517 8.46928 7.55427 8.65492C7.46547 8.79119 7.34875 8.94055 7.29487 8.98689C7.24099 9.03319 7.2076 9.07257 7.22073 9.07445C7.23386 9.07632 7.30989 9.08717 7.38968 9.09858C7.65191 9.13599 8.14226 9.02714 8.33177 8.88955C8.47475 8.78565 8.51067 8.72191 8.51067 8.5719C8.51067 8.46864 8.48452 8.38421 8.45254 8.38421ZM8.35962 12.6427C8.27223 12.6427 8.11141 12.6856 8.00235 12.738C7.89329 12.7904 7.80401 12.8222 7.80401 12.8086C7.80401 12.795 7.92986 12.7264 8.08373 12.6561C8.35932 12.5301 8.36097 12.528 8.19438 12.5132C7.68983 12.4684 7.3481 12.7791 7.33739 13.2925C7.3322 13.5413 7.39221 13.593 7.53943 13.4666C7.59685 13.4172 7.78511 13.3148 7.95771 13.2391C8.25309 13.1095 8.38194 12.9872 8.47775 12.7457C8.51314 12.6565 8.49736 12.6427 8.35962 12.6427Z" fill="white"/>
</svg>
