<svg width="20" height="20" viewBox="0 0 16 16" fill="none" xmlns="http://www.w3.org/2000/svg">
<path d="M11.0273 11.7383H6.6169" stroke="#197065" stroke-width="1.10225" stroke-linecap="round"/>
<path d="M5.14726 2.18646V5.12578M2.94277 0.716797V6.59544M0.738281 2.92129L0.738281 4.39095M7.35176 2.92129V4.39095" stroke="#197065" stroke-width="1.10225" stroke-linecap="round"/>
<path d="M2.2106 8.80097C2.21181 11.8518 2.2455 13.412 3.17907 14.3948C4.14759 15.4144 5.7064 15.4144 8.82403 15.4144H9.1547C11.952 15.4144 13.3507 15.4144 14.2783 14.5804C14.41 14.4619 14.5327 14.3328 14.6452 14.1941C15.4375 13.2175 15.4375 11.7451 15.4375 8.80014C15.4375 5.85522 15.4375 4.38276 14.6452 3.40618C14.5327 3.26751 14.41 3.13835 14.2783 3.01991C13.4675 2.29086 12.2968 2.19906 10.1467 2.1875H9.55886" stroke="#197065" stroke-width="1.10225" stroke-linecap="round"/>
</svg>
