<svg width="14" height="18" viewBox="0 0 14 18" fill="none" xmlns="http://www.w3.org/2000/svg">
<g id="Group 39995">
<path id="Vector" d="M7.46539 7.91516C7.57699 7.58036 8.04976 7.58036 8.16136 7.91516L8.81573 9.88031C8.95977 10.3123 9.20244 10.7048 9.52453 11.0267C9.84661 11.3486 10.2392 11.5911 10.6713 11.7349L12.6354 12.3892C12.9702 12.5008 12.9702 12.9736 12.6354 13.0852L10.6703 13.7396C10.2383 13.8836 9.8458 14.1263 9.5239 14.4484C9.20199 14.7705 8.95953 15.1631 8.81573 15.5952L8.16136 17.5593C8.1373 17.6326 8.0907 17.6965 8.02821 17.7417C7.96572 17.787 7.89053 17.8113 7.81337 17.8113C7.73622 17.8113 7.66103 17.787 7.59854 17.7417C7.53605 17.6965 7.48945 17.6326 7.46539 17.5593L6.81102 15.5942C6.66708 15.1623 6.42456 14.7698 6.10266 14.4479C5.78076 14.126 5.38833 13.8835 4.95645 13.7396L2.9913 13.0852C2.91799 13.0612 2.85415 13.0146 2.80889 12.9521C2.76363 12.8896 2.73926 12.8144 2.73926 12.7372C2.73926 12.6601 2.76363 12.5849 2.80889 12.5224C2.85415 12.4599 2.91799 12.4133 2.9913 12.3892L4.95645 11.7349C5.38833 11.5909 5.78076 11.3484 6.10266 11.0265C6.42456 10.7046 6.66708 10.3122 6.81102 9.88031L7.46539 7.91516Z" fill="white"/>
<path id="Vector_2" d="M3.54634 2.72517C3.56089 2.68123 3.58891 2.643 3.62643 2.6159C3.66395 2.5888 3.70905 2.57422 3.75533 2.57422C3.80162 2.57422 3.84672 2.5888 3.88424 2.6159C3.92176 2.643 3.94978 2.68123 3.96433 2.72517L4.35695 3.90406C4.53247 4.42958 4.94437 4.84148 5.4699 5.017L6.64878 5.40962C6.69272 5.42417 6.73095 5.45219 6.75805 5.48971C6.78515 5.52723 6.79973 5.57234 6.79973 5.61862C6.79973 5.6649 6.78515 5.71 6.75805 5.74752C6.73095 5.78504 6.69272 5.81306 6.64878 5.82761L5.4699 6.22023C5.21071 6.30659 4.97519 6.45212 4.78202 6.6453C4.58884 6.83847 4.44331 7.07399 4.35695 7.33318L3.96433 8.51206C3.94978 8.556 3.92176 8.59423 3.88424 8.62133C3.84672 8.64843 3.80162 8.66301 3.75533 8.66301C3.70905 8.66301 3.66395 8.64843 3.62643 8.62133C3.58891 8.59423 3.56089 8.556 3.54634 8.51206L3.15372 7.33318C3.06736 7.07399 2.92183 6.83847 2.72865 6.6453C2.53548 6.45212 2.29996 6.30659 2.04077 6.22023L0.861887 5.82761C0.817952 5.81306 0.779719 5.78504 0.752621 5.74752C0.725523 5.71 0.710938 5.6649 0.710938 5.61862C0.710938 5.57234 0.725523 5.52723 0.752621 5.48971C0.779719 5.45219 0.817952 5.42417 0.861887 5.40962L2.04077 5.017C2.29996 4.93064 2.53548 4.78511 2.72865 4.59194C2.92183 4.39876 3.06736 4.16324 3.15372 3.90406L3.54634 2.72517Z" fill="#7AD1C8"/>
<path id="Vector_3" d="M10.8807 0.684857C10.8907 0.65597 10.9095 0.63092 10.9344 0.613192C10.9593 0.595464 10.9891 0.585937 11.0197 0.585938C11.0503 0.585938 11.0801 0.595464 11.105 0.613192C11.1299 0.63092 11.1487 0.65597 11.1587 0.684857L11.4204 1.47011C11.5371 1.82113 11.812 2.09607 12.1631 2.21274L12.9483 2.47449C12.9772 2.48451 13.0023 2.50328 13.02 2.52819C13.0377 2.55309 13.0472 2.58291 13.0472 2.61348C13.0472 2.64406 13.0377 2.67387 13.02 2.69878C13.0023 2.72369 12.9772 2.74246 12.9483 2.75248L12.1631 3.01422C11.9901 3.07177 11.8329 3.16886 11.704 3.29777C11.5751 3.42668 11.478 3.58387 11.4204 3.75686L11.1587 4.54211C11.1487 4.571 11.1299 4.59605 11.105 4.61378C11.0801 4.6315 11.0503 4.64103 11.0197 4.64103C10.9891 4.64103 10.9593 4.6315 10.9344 4.61378C10.9095 4.59605 10.8907 4.571 10.8807 4.54211L10.619 3.75686C10.5614 3.58387 10.4643 3.42668 10.3354 3.29777C10.2065 3.16886 10.0493 3.07177 9.87632 3.01422L9.09208 2.75248C9.0632 2.74246 9.03815 2.72369 9.02042 2.69878C9.00269 2.67387 8.99316 2.64406 8.99316 2.61348C8.99316 2.58291 9.00269 2.55309 9.02042 2.52819C9.03815 2.50328 9.0632 2.48451 9.09208 2.47449L9.87733 2.21274C10.2284 2.09607 10.5033 1.82113 10.62 1.47011L10.8807 0.685872V0.684857Z" fill="#B2F4ED"/>
</g>
</svg>
