<svg width="84" height="84" viewBox="0 0 84 84" fill="none" xmlns="http://www.w3.org/2000/svg">
<g filter="url(#filter0_d_1076_720)">
<ellipse cx="42.1936" cy="37.3399" rx="37.0092" ry="36.6622" fill="white"/>
</g>
<path fill-rule="evenodd" clip-rule="evenodd" d="M33.6468 15.7928C27.8524 16.6947 23.1482 20.9913 21.7384 26.6694C20.907 30.0177 21.2937 33.4894 22.8424 36.5803C23.1107 37.1159 23.3303 37.6615 23.3303 37.7928C23.3303 37.924 23.1529 38.8741 22.936 39.9039C22.4667 42.1333 22.4611 42.6718 22.9008 43.2971C23.2755 43.8299 23.8919 44.153 24.5318 44.1518C24.8329 44.1513 25.7602 43.944 26.9132 43.6192C27.9517 43.3268 28.9152 43.0872 29.0544 43.0867C29.1934 43.0862 29.5856 43.2122 29.9259 43.3666C30.7936 43.7605 32.3165 44.2164 33.4011 44.4071C34.3662 44.5768 36.8338 44.6368 37.4923 44.5067L37.8554 44.4348V45.596C37.8554 48.908 38.8718 51.7448 40.9687 54.2857C44.6343 58.7274 50.923 60.2802 56.3202 58.0763C56.7859 57.8862 57.3105 57.7306 57.4858 57.7306C57.6613 57.7306 58.5125 57.9338 59.3775 58.1822C61.325 58.7414 61.8372 58.7702 62.5098 58.3589C63.055 58.0255 63.5163 57.2517 63.5163 56.6705C63.5163 56.4801 63.3638 55.6103 63.1774 54.7378C62.991 53.8653 62.8385 53.0098 62.8385 52.8367C62.8385 52.6621 63.0493 52.0731 63.312 51.5136C64.2953 49.4197 64.6265 47.9419 64.625 45.6559C64.6237 43.8975 64.5096 43.1201 64.027 41.5835C62.7262 37.4409 59.1795 33.9566 55.0447 32.7594C53.7297 32.3787 52.6712 32.2235 51.3887 32.2235H50.2285L50.2914 31.8882C50.3922 31.3502 50.3615 28.8167 50.2448 28.039C49.2918 21.687 44.3774 16.7299 38.0975 15.7858C36.9129 15.6077 34.8153 15.611 33.6468 15.7928ZM34.5522 17.7675C29.7514 18.2676 25.7012 21.4462 24.0703 25.9937C23.615 27.2632 23.4026 28.5444 23.3993 30.0413C23.3944 32.2404 23.7481 33.7371 24.7631 35.8119C25.5014 37.3209 25.5203 37.6926 24.9881 40.2226C24.7752 41.235 24.6115 42.0737 24.6242 42.0864C24.637 42.0992 25.495 41.8715 26.5308 41.5802C28.9868 40.8899 29.3239 40.8818 30.7708 41.4791C32.7624 42.3012 34.1736 42.556 36.2932 42.4762C39.3647 42.3606 41.9986 41.2581 44.2328 39.1531C46.0233 37.4661 47.2063 35.4044 47.8421 32.8632C48.1319 31.7047 48.1967 29.4526 47.9779 28.1421C47.2047 23.5108 43.993 19.7649 39.55 18.3122C38.0758 17.8302 36.0596 17.6104 34.5522 17.7675ZM34.8905 23.9797C33.611 24.1675 32.4816 24.7285 31.4879 25.6699C30.4454 26.6575 29.823 27.8892 29.6171 29.372C29.3512 31.287 30.181 33.4656 31.681 34.7899C32.2731 35.3127 33.4895 35.9404 34.3171 36.1504C35.46 36.4404 37.106 36.2925 38.2579 35.7961L38.7413 35.5879L39.5863 36.4302C40.5389 37.3799 40.8874 37.5287 41.4204 37.2134C41.7673 37.0081 41.9224 36.7049 41.9224 36.232C41.9224 35.9292 41.8234 35.7835 41.1406 35.083L40.3588 34.2807L40.7111 33.8183C41.5056 32.7759 41.9224 31.4943 41.9224 30.0947C41.9224 29.0651 41.7447 28.335 41.2486 27.3257C40.354 25.5066 38.6238 24.2733 36.5654 23.9878C35.7369 23.8729 35.6219 23.8724 34.8905 23.9797ZM34.5134 26.1909C33.3519 26.5931 32.5277 27.3299 32.0174 28.422C31.6397 29.2303 31.5441 30.4232 31.7892 31.2677C32.26 32.8897 33.7375 34.0889 35.4413 34.232C36.0566 34.2836 37.0807 34.1267 37.0807 33.9808C37.0807 33.9444 36.8177 33.6541 36.4963 33.3358C35.6967 32.5435 35.5785 32.0088 36.09 31.4965C36.6555 30.9301 37.0865 31.0469 38.1048 32.0423L38.8984 32.8181L39.0905 32.545C40.1651 31.0178 40.1356 29.0888 39.0151 27.6023C38.5555 26.9927 37.6707 26.3752 36.9493 26.1606C36.2959 25.9663 35.1198 25.9808 34.5134 26.1909ZM49.9734 34.3369C49.7979 34.3914 49.6831 34.5783 49.4774 35.1432C48.6882 37.3114 47.1622 39.5202 45.41 41.0306C44.0577 42.1964 42.1536 43.2975 40.6534 43.7815L39.9991 43.9925L39.9307 44.7233C39.6865 47.3332 40.5136 50.2289 42.1212 52.3929C45.2779 56.6421 50.93 58.1624 55.7639 56.0625C57.0738 55.4935 57.5937 55.5011 59.7711 56.1211C60.667 56.3762 61.4118 56.57 61.426 56.5516C61.4402 56.5333 61.3013 55.8418 61.1171 55.015C60.9157 54.1102 60.7781 53.2221 60.7716 52.7844C60.7613 52.0841 60.7833 52.0096 61.3606 50.7912C62.6761 48.015 62.9425 45.462 62.2048 42.7011C61.3037 39.3285 58.7295 36.411 55.5189 35.1234C54.1471 34.5732 53.0521 34.3469 51.5574 34.3044C50.8118 34.2832 50.099 34.2978 49.9734 34.3369ZM50.6859 39.6783C50.4466 39.8268 49.9194 40.8151 47.6951 45.2858C45.0097 50.6831 44.9953 50.7151 45.1117 51.0683C45.3446 51.7751 46.1504 52.0485 46.7073 51.6098C46.8537 51.4945 47.2369 50.8659 47.5849 50.1704L48.2026 48.9357L49.5322 48.8718C50.2635 48.8367 51.6295 48.808 52.568 48.808H54.2742L54.9494 50.1749C55.6757 51.6458 55.8351 51.8145 56.4985 51.8145C56.7575 51.8145 56.924 51.7401 57.1328 51.531C57.6832 50.9797 57.6948 51.011 54.752 45.1226C52.4887 40.5938 52.0454 39.7703 51.8034 39.6449C51.423 39.4479 51.0387 39.4594 50.6859 39.6783ZM50.2738 44.7825L49.2824 46.7713H51.2188C52.706 46.7713 53.154 46.7431 53.15 46.65C53.1471 46.5834 52.7219 45.6884 52.2051 44.6613L51.2653 42.7936L50.2738 44.7825Z" fill="#30422E"/>
<defs>
<filter id="filter0_d_1076_720" x="0.672571" y="0.677734" width="83.0421" height="82.348" filterUnits="userSpaceOnUse" color-interpolation-filters="sRGB">
<feFlood flood-opacity="0" result="BackgroundImageFix"/>
<feColorMatrix in="SourceAlpha" type="matrix" values="0 0 0 0 0 0 0 0 0 0 0 0 0 0 0 0 0 0 127 0" result="hardAlpha"/>
<feOffset dy="4.51188"/>
<feGaussianBlur stdDeviation="2.25594"/>
<feComposite in2="hardAlpha" operator="out"/>
<feColorMatrix type="matrix" values="0 0 0 0 0 0 0 0 0 0 0 0 0 0 0 0 0 0 0.25 0"/>
<feBlend mode="normal" in2="BackgroundImageFix" result="effect1_dropShadow_1076_720"/>
<feBlend mode="normal" in="SourceGraphic" in2="effect1_dropShadow_1076_720" result="shape"/>
</filter>
</defs>
</svg>
