<svg width="84" height="84" viewBox="0 0 84 84" fill="none" xmlns="http://www.w3.org/2000/svg">
<g filter="url(#filter0_d_1076_730)">
<ellipse cx="41.9097" cy="37.3379" rx="37.0092" ry="36.6622" fill="white"/>
</g>
<path fill-rule="evenodd" clip-rule="evenodd" d="M23.9329 20.4575L21.0267 23.2644L21.0925 38.0164L21.1581 52.7684L21.9283 53.4329L22.6986 54.0976H32.8618H43.025L44.152 55.009C51.4452 60.907 62.3873 56.0475 62.3503 46.9268C62.3305 42.0916 59.2845 38.1649 54.4534 36.7476C53.1252 36.3578 52.4192 36.2906 50.6115 36.382L48.3968 36.4938V27.8613C48.3968 18.3456 48.4034 18.391 46.9311 17.8953C46.4582 17.736 42.8175 17.6504 36.5214 17.6504H26.8388L23.9329 20.4575ZM27.8793 21.3928C27.8793 24.207 27.8282 24.2564 24.9147 24.2564H22.691V38.2203C22.691 48.7772 22.7601 52.2508 22.974 52.4574C23.3506 52.8212 41.7935 52.8549 41.7935 52.4916C41.7935 52.3602 41.6178 51.9246 41.4029 51.5235C39.8436 48.6123 40.1077 44.1887 42.014 41.2866C42.9252 39.8996 44.6114 38.3424 45.9385 37.6622L46.9818 37.1275V28.5467C46.9818 23.827 46.9174 19.8035 46.8386 19.6053C46.7115 19.285 45.6489 19.245 37.2874 19.245H27.8793V21.3928ZM24.9314 21.5229L23.7699 22.6619H24.9993H26.2285V21.5229C26.2285 20.8965 26.1981 20.3839 26.1606 20.3839C26.1233 20.3839 25.5703 20.8965 24.9314 21.5229ZM35.3474 20.7637C35.2609 20.847 35.1901 23.04 35.1901 25.6369C35.1901 29.7319 35.2397 30.3766 35.5632 30.4964C36.303 30.7707 44.985 30.65 45.2838 30.3613C45.6835 29.9752 45.6835 21.2712 45.2838 20.8851C44.9779 20.5896 35.6458 20.4755 35.3474 20.7637ZM36.6051 25.5093V29.0401H40.2606H43.916V25.5093V21.9785H40.2606H36.6051V25.5093ZM24.1914 25.9649C24.1166 26.1528 24.1166 26.4604 24.1914 26.6483C24.3053 26.9353 25.0401 26.99 28.7863 26.99C32.4625 26.99 33.2974 26.9301 33.5393 26.6483C33.7735 26.3756 33.7735 26.2376 33.5393 25.9649C33.2974 25.6831 32.4625 25.6232 28.7863 25.6232C25.0401 25.6232 24.3053 25.6779 24.1914 25.9649ZM24.4458 29.3684C24.0796 29.6313 24.0402 29.7791 24.2494 30.1087C24.4836 30.4782 24.9571 30.5272 28.8175 30.583C31.7939 30.626 33.2247 30.5645 33.4497 30.3843C33.8697 30.0474 33.8601 29.8381 33.4047 29.398C32.8811 28.8925 25.1451 28.867 24.4458 29.3684ZM24.389 33.6416C23.9758 34.0407 24.0423 34.4582 24.5621 34.727C24.856 34.8787 28.546 34.9628 34.922 34.9628C43.6108 34.9628 44.8711 34.9188 45.1963 34.6049C45.6411 34.1753 45.6566 34.0017 45.2838 33.6416C44.8767 33.2484 24.7961 33.2484 24.389 33.6416ZM48.8741 38.0615C47.1853 38.5 45.8835 39.2542 44.5343 40.5761C39.9719 45.0461 41.4355 52.5789 47.3966 55.3065C48.8548 55.9735 49.1816 56.0338 51.3447 56.0338C53.5033 56.0338 53.8365 55.9728 55.2784 55.3128C57.4709 54.3096 58.8364 53.0183 59.8972 50.9449C60.7377 49.3023 60.778 49.1189 60.778 46.9339C60.778 44.8368 60.716 44.5195 60.0408 43.1634C59.1088 41.2912 57.9912 40.059 56.3828 39.1296C54.045 37.7793 51.4077 37.4038 48.8741 38.0615ZM24.3777 38.5813C24.2027 38.6884 24.098 38.9688 24.1449 39.2043C24.2258 39.6107 24.5968 39.6358 31.4039 39.693C38.9055 39.7561 39.2165 39.7176 38.7029 38.7907C38.4913 38.4089 37.9862 38.3799 31.5854 38.3831C27.7961 38.3852 24.5524 38.4743 24.3777 38.5813ZM24.1914 43.7329C24.1166 43.9208 24.1166 44.2283 24.1914 44.4163C24.3076 44.7095 25.3262 44.758 31.3623 44.758C38.7175 44.758 39.1981 44.696 38.7083 43.8119C38.4897 43.4172 38.0383 43.3912 31.401 43.3912C25.3307 43.3912 24.3079 43.4397 24.1914 43.7329ZM53.5851 46.0108C52.0977 47.4516 50.7759 48.6305 50.6478 48.6305C50.5198 48.6305 49.8073 48.0496 49.0647 47.3398C47.9126 46.2386 47.6605 46.0922 47.348 46.3425C47.1466 46.504 46.9818 46.8056 46.9818 47.0129C46.9818 47.5526 50.0783 50.4528 50.6544 50.4528C51.1329 50.4528 57.3584 44.6074 57.3584 44.1582C57.3584 43.8639 56.8547 43.3912 56.541 43.3912C56.4026 43.3912 55.0725 44.57 53.5851 46.0108ZM24.1914 48.7444C24.1166 48.9323 24.1166 49.2398 24.1914 49.4278C24.3079 49.7209 25.3283 49.7695 31.3805 49.7695C37.3626 49.7695 38.4786 49.7175 38.7276 49.4278C38.9618 49.1551 38.9618 49.0171 38.7276 48.7444C38.4786 48.4546 37.3626 48.4027 31.3805 48.4027C25.3283 48.4027 24.3079 48.4512 24.1914 48.7444Z" fill="#30422E"/>
<defs>
<filter id="filter0_d_1076_730" x="0.388635" y="0.675781" width="83.0422" height="82.348" filterUnits="userSpaceOnUse" color-interpolation-filters="sRGB">
<feFlood flood-opacity="0" result="BackgroundImageFix"/>
<feColorMatrix in="SourceAlpha" type="matrix" values="0 0 0 0 0 0 0 0 0 0 0 0 0 0 0 0 0 0 127 0" result="hardAlpha"/>
<feOffset dy="4.51188"/>
<feGaussianBlur stdDeviation="2.25594"/>
<feComposite in2="hardAlpha" operator="out"/>
<feColorMatrix type="matrix" values="0 0 0 0 0 0 0 0 0 0 0 0 0 0 0 0 0 0 0.25 0"/>
<feBlend mode="normal" in2="BackgroundImageFix" result="effect1_dropShadow_1076_730"/>
<feBlend mode="normal" in="SourceGraphic" in2="effect1_dropShadow_1076_730" result="shape"/>
</filter>
</defs>
</svg>
