<svg width="84" height="84" viewBox="0 0 84 84" fill="none" xmlns="http://www.w3.org/2000/svg">
<g filter="url(#filter0_d_1076_725)">
<ellipse cx="41.6995" cy="37.3399" rx="37.0092" ry="36.6622" fill="white"/>
</g>
<path fill-rule="evenodd" clip-rule="evenodd" d="M24.5077 15.7773C24.0283 15.9566 23.5594 16.277 23.3235 16.5869C22.7958 17.2796 22.8239 16.2522 22.8245 34.7886C22.8248 46.311 22.8577 52.0487 22.9248 52.2831C23.0825 52.8339 23.5855 53.4029 24.1684 53.6898L24.6915 53.9473H32.1508C39.4815 53.9473 39.6134 53.9441 39.8031 53.76C40.0504 53.52 40.0547 53.0084 39.8117 52.7171L39.6272 52.4961L32.2456 52.471L24.864 52.4459L24.6158 52.1595L24.3675 51.8731V34.7858V17.6985L24.6495 17.4248L24.9315 17.1512H39.2725H53.6135L53.8955 17.4248L54.1775 17.6985V30.3967V43.0949L54.4143 43.3246C54.7275 43.6287 55.1709 43.6287 55.4842 43.3246L55.721 43.0949V30.3738C55.721 16.1111 55.7732 17.135 55.0067 16.3696C54.2321 15.596 55.4821 15.6522 39.2312 15.6602C28.4328 15.6656 24.7276 15.6951 24.5077 15.7773ZM30.0906 22.9973C29.5243 23.1692 29.0864 23.4509 28.6166 23.9455C27.1855 25.4524 27.6656 27.8414 29.5978 28.8277C30.0514 29.0593 30.2087 29.088 31.0241 29.0881C31.997 29.0884 32.3622 28.9705 33.1171 28.4128C33.7575 27.9395 34.4159 26.4906 34.2615 25.8938C34.1701 25.5402 33.86 25.2969 33.5009 25.2969C33.0844 25.2969 32.805 25.5943 32.7221 26.126C32.6354 26.6829 32.4397 27.0181 32.0206 27.3284C31.7144 27.5551 31.5788 27.5908 31.0241 27.5908C30.4694 27.5908 30.3337 27.5551 30.0276 27.3284C29.5566 26.9798 29.3483 26.5704 29.3453 25.9872C29.3406 25.1163 30.1043 24.3685 31.0043 24.3626C31.4216 24.3599 31.7959 24.0047 31.7959 23.6116C31.7959 23.1716 31.4244 22.8609 30.9078 22.8688C30.68 22.8723 30.3122 22.93 30.0906 22.9973ZM36.2504 23.9218C35.9612 24.2207 35.9777 24.645 36.2896 24.9295L36.5384 25.1564L41.4749 25.1845C44.19 25.1999 46.555 25.1871 46.7304 25.1559C46.9058 25.1247 47.1336 25.0173 47.2368 24.9171C47.4874 24.674 47.4846 24.1381 47.2314 23.8924C47.0432 23.7098 46.9099 23.7052 41.7493 23.7052H36.4602L36.2504 23.9218ZM36.2406 27.1353C35.9052 27.5491 35.9877 28.026 36.4335 28.2497C36.6654 28.366 37.7111 28.3864 43.3918 28.3852C50.6039 28.3837 50.4371 28.3951 50.689 27.8853C50.8406 27.5787 50.7018 27.1312 50.4082 26.9786C50.3018 26.9234 47.5685 26.8886 43.3376 26.8886H36.4405L36.2406 27.1353ZM30.2251 31.7659C29.0322 32.0384 28.0577 33.0992 27.8256 34.3777C27.7471 34.8098 27.7589 35.04 27.8837 35.5152C28.2962 37.0857 29.6075 38.0221 31.2452 37.9157C32.837 37.8123 33.9756 36.7686 34.2514 35.1598C34.3248 34.7317 34.1434 34.2596 33.8657 34.1561C33.2815 33.9385 32.8219 34.2597 32.719 34.9572C32.6477 35.4405 32.3675 35.9014 31.9718 36.1857C31.6529 36.415 30.8725 36.4974 30.4131 36.3502C29.7357 36.1333 29.1938 35.2176 29.3387 34.5349C29.4945 33.8014 30.2733 33.1617 31.0107 33.1617C31.4211 33.1617 31.7959 32.8042 31.7959 32.4127C31.7959 31.7834 31.2079 31.5413 30.2251 31.7659ZM36.2406 32.753C35.9676 33.0898 35.9859 33.4536 36.2896 33.7306L36.5385 33.9575H39.7117C42.8643 33.9575 42.8862 33.9562 43.0997 33.7489C43.3972 33.4603 43.3932 32.9184 43.0917 32.6815C42.8839 32.5182 42.6513 32.5063 39.6547 32.5063H36.4405L36.2406 32.753ZM46.8456 32.6951C46.2801 32.9504 45.735 33.4669 45.4143 34.0512L45.1573 34.5193L45.13 39.7149L45.1027 44.9105L43.7208 46.2689C42.2651 47.6998 41.9255 48.158 41.6175 49.1054C41.2556 50.2189 41.3223 50.7512 42.3585 55.0164C42.8705 57.1234 43.3566 59.0404 43.4388 59.2765C44.1834 61.4131 46.0464 62.9956 48.3506 63.4487C49.0182 63.5799 49.7461 63.5974 53.4621 63.5711L57.7952 63.5404L58.5669 63.2872C59.6171 62.9428 60.4483 62.4459 61.2088 61.7077C61.9688 60.9701 62.4807 60.164 62.8371 59.1437L63.0987 58.3947L63.1288 53.4957C63.1627 47.9939 63.1598 47.9654 62.4905 47.1439C62.2834 46.8897 61.892 46.5679 61.5983 46.4102C61.1381 46.1631 60.9823 46.1295 60.3035 46.1311C59.6572 46.1327 59.452 46.1734 59.042 46.3819L58.5522 46.631L58.3862 46.3581C58.2052 46.0607 57.5995 45.6285 57.0809 45.4266C56.5454 45.2181 55.6331 45.2731 55.0066 45.5514L54.4627 45.7931L54.0592 45.3681C53.8372 45.1344 53.48 44.8561 53.2653 44.7498C52.7518 44.4953 51.7539 44.427 51.2148 44.6096L50.8086 44.7471L50.7807 39.68C50.7527 34.6175 50.7525 34.6126 50.5307 34.1448C50.265 33.5846 49.8437 33.1393 49.2662 32.8084C48.6671 32.4651 47.478 32.4094 46.8456 32.6951ZM47.272 34.1809C46.6272 34.5625 46.6526 34.2272 46.6526 42.3705C46.6526 47.6372 46.6216 49.7911 46.5436 49.9573C46.3251 50.4229 45.5527 50.4945 45.2515 50.077C45.1413 49.9242 45.1091 49.5621 45.1091 48.475V47.0703L44.3785 47.7701C43.625 48.492 43.241 49.0202 43.0755 49.5623C42.855 50.2846 42.9595 50.9558 43.8984 54.847C44.9707 59.2913 45.166 59.7981 46.161 60.7192C46.8101 61.32 47.8434 61.8472 48.6675 61.998C48.9669 62.0527 50.8686 62.0924 53.1535 62.0916C56.3501 62.0905 57.2398 62.0628 57.738 61.9488C59.5368 61.5373 61.0333 60.085 61.4573 58.3391C61.6627 57.4936 61.6767 48.8597 61.4736 48.3968C61.237 47.8581 60.8862 47.6274 60.3035 47.6274C59.387 47.6274 59.0011 48.1826 59.0011 49.5011C59.0011 50.229 58.9789 50.3258 58.7642 50.5341C58.634 50.6605 58.4205 50.7639 58.2898 50.7639C57.6059 50.7639 57.4575 50.4487 57.4575 48.9957C57.4575 47.4794 57.2539 47.0304 56.4739 46.8265C56.1692 46.747 56.0302 46.762 55.6785 46.9131C55.0987 47.1619 54.9248 47.5109 54.8793 48.5168C54.8595 48.9545 54.8222 49.4102 54.7963 49.5295C54.7356 49.8104 54.1832 50.048 53.8646 49.9304C53.4117 49.7633 53.3603 49.5988 53.3092 48.1513C53.2566 46.6609 53.1963 46.4651 52.7001 46.1714C52.1138 45.8245 51.3494 46.0065 50.99 46.5786C50.8409 46.8159 50.8016 47.0503 50.8013 47.7038C50.8009 48.526 50.7142 48.8355 50.4234 49.0522C50.1901 49.2261 49.7942 49.194 49.5116 48.9781L49.2574 48.7841L49.2552 41.9326C49.2532 35.4043 49.2444 35.0626 49.0699 34.6893C48.7645 34.0366 47.9197 33.7976 47.272 34.1809ZM36.2775 35.9195C35.8972 36.2885 35.9702 36.8183 36.4335 37.0508C36.6561 37.1626 37.2684 37.1877 39.7574 37.1877H42.8086L43.0906 36.9141C43.2457 36.7635 43.3726 36.5718 43.3726 36.4881C43.3726 36.2567 43.11 35.8134 42.9341 35.7478C42.8482 35.7159 41.3686 35.6897 39.6461 35.6897H36.5142L36.2775 35.9195ZM30.3005 40.554C29.3191 40.7915 28.4939 41.4626 28.0784 42.3612C27.3732 43.8864 28.0642 45.7183 29.6252 46.4614C30.0344 46.6562 30.2466 46.6911 31.0241 46.6911C31.8016 46.6911 32.0138 46.6562 32.4229 46.4614C33.3888 46.0016 34.0585 45.0857 34.2514 43.9609C34.3248 43.5328 34.1434 43.0607 33.8657 42.9572C33.2815 42.7397 32.8219 43.0608 32.719 43.7583C32.5881 44.6457 31.9202 45.2398 31.0532 45.2398C30.4523 45.2398 30.0891 45.0847 29.7357 44.6771C29.2317 44.0959 29.2106 43.2491 29.6841 42.6037C29.912 42.2931 30.5958 41.9628 31.0107 41.9628C31.5628 41.9628 31.9397 41.4055 31.736 40.8903C31.5986 40.5429 30.9622 40.3938 30.3005 40.554ZM36.2406 41.5541C35.877 42.0026 36.0864 42.6257 36.6463 42.7617C36.7642 42.7902 38.2162 42.8013 39.8729 42.7862C42.8408 42.759 42.8883 42.7556 43.0999 42.5501C43.3973 42.2613 43.3931 41.7195 43.0917 41.4826C42.8839 41.3193 42.6513 41.3074 39.6547 41.3074H36.4405L36.2406 41.5541ZM36.2775 44.7206C35.99 44.9996 35.9683 45.4132 36.2249 45.721C36.4081 45.9407 36.4229 45.9422 38.7427 45.9702C40.7542 45.9946 41.1085 45.9777 41.3121 45.8483C41.6277 45.6477 41.7539 45.3066 41.6299 44.9899C41.4413 44.5086 41.3763 44.497 38.8581 44.4938L36.5142 44.4908L36.2775 44.7206Z" fill="#30422E"/>
<defs>
<filter id="filter0_d_1076_725" x="0.17843" y="0.677734" width="83.0422" height="82.348" filterUnits="userSpaceOnUse" color-interpolation-filters="sRGB">
<feFlood flood-opacity="0" result="BackgroundImageFix"/>
<feColorMatrix in="SourceAlpha" type="matrix" values="0 0 0 0 0 0 0 0 0 0 0 0 0 0 0 0 0 0 127 0" result="hardAlpha"/>
<feOffset dy="4.51188"/>
<feGaussianBlur stdDeviation="2.25594"/>
<feComposite in2="hardAlpha" operator="out"/>
<feColorMatrix type="matrix" values="0 0 0 0 0 0 0 0 0 0 0 0 0 0 0 0 0 0 0.25 0"/>
<feBlend mode="normal" in2="BackgroundImageFix" result="effect1_dropShadow_1076_725"/>
<feBlend mode="normal" in="SourceGraphic" in2="effect1_dropShadow_1076_725" result="shape"/>
</filter>
</defs>
</svg>
