<svg width="84" height="83" viewBox="0 0 84 83" fill="none" xmlns="http://www.w3.org/2000/svg">
<g filter="url(#filter0_d_1076_715)">
<ellipse cx="42.4041" cy="37.0587" rx="37.0092" ry="36.6622" fill="white"/>
</g>
<path fill-rule="evenodd" clip-rule="evenodd" d="M26.0762 21.7634C24.9191 21.9274 24.7578 22.1347 24.7356 23.4865L24.7248 24.1354L23.2906 24.3035C21.4036 24.5246 21.3667 24.5678 21.3667 26.548V28.0243H20.8677C20.5933 28.0243 20.247 28.0905 20.0982 28.1714C19.8338 28.315 19.8275 28.6014 19.8275 40.4529C19.8275 51.2946 19.8509 52.611 20.0474 52.8105C20.2428 53.0089 21.2925 53.0337 29.4921 53.0337H38.7169V53.3642C38.7169 53.546 38.8627 53.8337 39.0407 54.0037C39.3526 54.3011 39.4767 54.3126 42.3745 54.3126C45.3398 54.3126 45.3889 54.3078 45.6886 53.9838C45.856 53.8029 45.9928 53.5152 45.9928 53.3444V53.0337H55.1669C61.2233 53.0337 64.4329 52.9837 64.6116 52.8866C64.8759 52.743 64.8822 52.4558 64.8822 40.529C64.8822 28.6022 64.8759 28.315 64.6116 28.1714C64.4627 28.0905 64.1164 28.0243 63.842 28.0243H63.3431V26.4833C63.3431 24.5268 63.3259 24.5074 61.3957 24.2898L59.985 24.1308V23.3002C59.985 22.0441 59.7138 21.8311 57.9421 21.6961C56.158 21.56 53.3794 21.6932 51.8845 21.9865C48.738 22.6038 45.3968 24.1645 43.1485 26.0672C42.3608 26.7339 42.459 26.7585 40.7458 25.4682C38.6152 23.8638 35.9114 22.6473 33.1479 22.0499C31.6383 21.7235 27.5322 21.5573 26.0762 21.7634ZM27.4882 23.163L26.2639 23.204V35.1925V47.1808L27.908 47.1041C32.4265 46.8928 37.0102 48.207 40.5009 50.7147L41.3754 51.3429V39.564V27.785L40.2247 26.9151C38.0913 25.3023 35.0634 23.9425 32.5604 23.4735C31.3895 23.2541 29.0479 23.1107 27.4882 23.163ZM54.3182 23.2138C50.5585 23.4885 47.3785 24.7219 44.2419 27.1221L43.3413 27.8112L43.3378 39.5832L43.3343 51.3552L43.999 50.8735C47.648 48.2288 52.2648 46.8752 56.8534 47.1046L58.4458 47.1844V35.1978V23.2113L57.0116 23.1665C56.2229 23.1419 55.0108 23.1633 54.3182 23.2138ZM23.9552 25.703C23.7244 25.7331 23.3939 25.7892 23.2206 25.8279L22.9058 25.8982V37.8516V49.8051L23.6404 49.712C26.8768 49.3021 31.045 49.2987 34.2285 49.7031C35.1074 49.8148 35.8533 49.879 35.886 49.8457C35.9659 49.7646 34.3791 49.2728 33.0259 48.9595C32.1401 48.7543 31.2759 48.7047 28.5055 48.7L25.0802 48.6942L24.9032 48.3418C24.7648 48.0661 24.7273 45.5548 24.7312 36.8344C24.7351 27.8234 24.7014 25.6767 24.5556 25.6641C24.4563 25.6555 24.1861 25.673 23.9552 25.703ZM59.985 36.8919C59.985 46.2971 59.9529 48.1926 59.7898 48.4192C59.6073 48.6726 59.3669 48.6913 56.1168 48.7065C53.4213 48.719 52.4189 48.7753 51.6596 48.9568C50.4751 49.2398 48.7631 49.7842 48.8332 49.8554C48.8611 49.8837 49.5715 49.8167 50.4117 49.7065C53.5498 49.2948 57.7661 49.2972 61.0694 49.7126L61.8039 49.8051V37.8516V25.8982L61.4891 25.8333C61.3159 25.7976 60.9066 25.7385 60.5796 25.702L59.985 25.6356V36.8919Z" fill="#30422E"/>
<defs>
<filter id="filter0_d_1076_715" x="0.88302" y="0.396484" width="83.0421" height="82.348" filterUnits="userSpaceOnUse" color-interpolation-filters="sRGB">
<feFlood flood-opacity="0" result="BackgroundImageFix"/>
<feColorMatrix in="SourceAlpha" type="matrix" values="0 0 0 0 0 0 0 0 0 0 0 0 0 0 0 0 0 0 127 0" result="hardAlpha"/>
<feOffset dy="4.51188"/>
<feGaussianBlur stdDeviation="2.25594"/>
<feComposite in2="hardAlpha" operator="out"/>
<feColorMatrix type="matrix" values="0 0 0 0 0 0 0 0 0 0 0 0 0 0 0 0 0 0 0.25 0"/>
<feBlend mode="normal" in2="BackgroundImageFix" result="effect1_dropShadow_1076_715"/>
<feBlend mode="normal" in="SourceGraphic" in2="effect1_dropShadow_1076_715" result="shape"/>
</filter>
</defs>
</svg>
