<svg width="14" height="13" viewBox="0 0 14 13" fill="none" xmlns="http://www.w3.org/2000/svg">
<path d="M6.22969 10.8828H7.37813V10.1016C7.925 10.0078 8.39531 9.80469 8.78906 9.49219C9.18281 9.17969 9.37969 8.71615 9.37969 8.10156C9.37969 7.66406 9.24844 7.26302 8.98594 6.89844C8.72344 6.53385 8.19844 6.21615 7.41094 5.94531C6.75469 5.73698 6.30078 5.55469 6.04922 5.39844C5.79766 5.24219 5.67188 5.02865 5.67188 4.75781C5.67188 4.48698 5.77316 4.27344 5.97572 4.11719C6.17828 3.96094 6.47075 3.88281 6.85313 3.88281C7.20313 3.88281 7.47656 3.96344 7.67344 4.12469C7.87031 4.28594 8.0125 4.48656 8.1 4.72656L9.15 4.32031C9.02969 3.95573 8.80831 3.63802 8.48588 3.36719C8.16344 3.09635 7.80513 2.94531 7.41094 2.91406V2.13281H6.2625V2.91406C5.71563 3.02865 5.28906 3.25781 4.98281 3.60156C4.67656 3.94531 4.52344 4.33073 4.52344 4.75781C4.52344 5.2474 4.67394 5.64323 4.97494 5.94531C5.27594 6.2474 5.74888 6.50781 6.39375 6.72656C7.08281 6.96615 7.56144 7.17969 7.82963 7.36719C8.09781 7.55469 8.23169 7.79948 8.23125 8.10156C8.23125 8.44531 8.10263 8.69802 7.84538 8.85969C7.58813 9.02135 7.27925 9.10198 6.91875 9.10156C6.55781 9.10156 6.23778 8.9949 5.95866 8.78156C5.67953 8.56823 5.47456 8.24781 5.34375 7.82031L4.26094 8.22656C4.41406 8.72656 4.65206 9.13031 4.97494 9.43781C5.29781 9.74531 5.71606 9.95615 6.22969 10.0703V10.8828ZM6.82031 12.7578C5.9125 12.7578 5.05938 12.5936 4.26094 12.2653C3.4625 11.937 2.76797 11.4918 2.17734 10.9297C1.58672 10.3672 1.11925 9.70573 0.774938 8.94531C0.430625 8.1849 0.25825 7.3724 0.257812 6.50781C0.257812 5.64323 0.430188 4.83073 0.774938 4.07031C1.11969 3.3099 1.58716 2.64844 2.17734 2.08594C2.76797 1.52344 3.4625 1.07823 4.26094 0.750313C5.05938 0.422396 5.9125 0.258229 6.82031 0.257812C7.72813 0.257812 8.58125 0.421979 9.37969 0.750313C10.1781 1.07865 10.8727 1.52385 11.4633 2.08594C12.0539 2.64844 12.5216 3.3099 12.8663 4.07031C13.2111 4.83073 13.3833 5.64323 13.3828 6.50781C13.3828 7.3724 13.2104 8.1849 12.8657 8.94531C12.5209 9.70573 12.0535 10.3672 11.4633 10.9297C10.8727 11.4922 10.1781 11.9376 9.37969 12.2659C8.58125 12.5943 7.72813 12.7582 6.82031 12.7578ZM6.82031 11.5078C8.28594 11.5078 9.52734 11.0234 10.5445 10.0547C11.5617 9.08594 12.0703 7.90365 12.0703 6.50781C12.0703 5.11198 11.5617 3.92969 10.5445 2.96094C9.52734 1.99219 8.28594 1.50781 6.82031 1.50781C5.35469 1.50781 4.11328 1.99219 3.09609 2.96094C2.07891 3.92969 1.57031 5.11198 1.57031 6.50781C1.57031 7.90365 2.07891 9.08594 3.09609 10.0547C4.11328 11.0234 5.35469 11.5078 6.82031 11.5078Z" fill="#30422E"/>
</svg>
