<svg width="17" height="15" viewBox="0 0 17 15" fill="none" xmlns="http://www.w3.org/2000/svg">
<path d="M8.06563 11.875H9.21406V11.0938C9.76094 11 10.2313 10.7969 10.625 10.4844C11.0188 10.1719 11.2156 9.70833 11.2156 9.09375C11.2156 8.65625 11.0844 8.25521 10.8219 7.89062C10.5594 7.52604 10.0344 7.20833 9.24688 6.9375C8.59063 6.72917 8.13672 6.54688 7.88516 6.39063C7.63359 6.23438 7.50781 6.02083 7.50781 5.75C7.50781 5.47917 7.60909 5.26563 7.81166 5.10938C8.01422 4.95313 8.30669 4.875 8.68906 4.875C9.03906 4.875 9.3125 4.95563 9.50938 5.11688C9.70625 5.27813 9.84844 5.47875 9.93594 5.71875L10.9859 5.3125C10.8656 4.94792 10.6443 4.63021 10.3218 4.35937C9.99938 4.08854 9.64106 3.9375 9.24688 3.90625V3.125H8.09844V3.90625C7.55156 4.02083 7.125 4.25 6.81875 4.59375C6.5125 4.9375 6.35938 5.32292 6.35938 5.75C6.35938 6.23958 6.50988 6.63542 6.81088 6.9375C7.11188 7.23958 7.58481 7.5 8.22969 7.71875C8.91875 7.95833 9.39738 8.17187 9.66556 8.35938C9.93375 8.54688 10.0676 8.79167 10.0672 9.09375C10.0672 9.4375 9.93856 9.69021 9.68131 9.85187C9.42406 10.0135 9.11519 10.0942 8.75469 10.0937C8.39375 10.0937 8.07372 9.98708 7.79459 9.77375C7.51547 9.56042 7.3105 9.24 7.17969 8.8125L6.09688 9.21875C6.25 9.71875 6.488 10.1225 6.81088 10.43C7.13375 10.7375 7.552 10.9483 8.06563 11.0625V11.875ZM8.65625 13.75C7.74844 13.75 6.89531 13.5858 6.09688 13.2575C5.29844 12.9292 4.60391 12.484 4.01328 11.9219C3.42266 11.3594 2.95519 10.6979 2.61088 9.9375C2.26656 9.17708 2.09419 8.36458 2.09375 7.5C2.09375 6.63542 2.26613 5.82292 2.61088 5.0625C2.95563 4.30208 3.42309 3.64063 4.01328 3.07813C4.60391 2.51563 5.29844 2.07042 6.09688 1.7425C6.89531 1.41458 7.74844 1.25042 8.65625 1.25C9.56406 1.25 10.4172 1.41417 11.2156 1.7425C12.0141 2.07083 12.7086 2.51604 13.2992 3.07813C13.8898 3.64063 14.3575 4.30208 14.7023 5.0625C15.047 5.82292 15.2192 6.63542 15.2188 7.5C15.2188 8.36458 15.0464 9.17708 14.7016 9.9375C14.3569 10.6979 13.8894 11.3594 13.2992 11.9219C12.7086 12.4844 12.0141 12.9298 11.2156 13.2581C10.4172 13.5865 9.56406 13.7504 8.65625 13.75ZM8.65625 12.5C10.1219 12.5 11.3633 12.0156 12.3805 11.0469C13.3977 10.0781 13.9063 8.89583 13.9063 7.5C13.9063 6.10417 13.3977 4.92187 12.3805 3.95312C11.3633 2.98437 10.1219 2.5 8.65625 2.5C7.19063 2.5 5.94922 2.98437 4.93203 3.95312C3.91484 4.92187 3.40625 6.10417 3.40625 7.5C3.40625 8.89583 3.91484 10.0781 4.93203 11.0469C5.94922 12.0156 7.19063 12.5 8.65625 12.5Z" fill="white"/>
</svg>
