<svg width="23" height="22" viewBox="0 0 23 22" fill="none" xmlns="http://www.w3.org/2000/svg">
<mask id="path-1-inside-1_3153_10909" fill="white">
<path fill-rule="evenodd" clip-rule="evenodd" d="M2.11433 16.0787C1.39903 14.651 0.996466 13.0394 0.996466 11.3338C0.996466 5.47558 5.74549 0.726562 11.6037 0.726562C17.4619 0.726562 22.2109 5.47558 22.2109 11.3338C22.2109 17.192 17.4619 21.941 11.6037 21.941C9.10058 21.941 6.79997 21.074 4.98581 19.6239L0.296938 21.2665L2.11433 16.0787Z"/>
</mask>
<path d="M2.11433 16.0787L3.09394 15.588L3.30185 16.003L3.14839 16.441L2.11433 16.0787ZM4.98581 19.6239L4.62355 18.5898L5.19607 18.3892L5.66992 18.768L4.98581 19.6239ZM0.296938 21.2665L0.659195 22.3006L-1.49006 23.0535L-0.737122 20.9042L0.296938 21.2665ZM2.09214 11.3338C2.09214 12.8652 2.45324 14.3091 3.09394 15.588L1.13472 16.5695C0.344824 14.9929 -0.0992107 13.2136 -0.0992107 11.3338H2.09214ZM11.6037 1.82224C6.35061 1.82224 2.09214 6.08071 2.09214 11.3338H-0.0992107C-0.0992107 4.87046 5.14036 -0.369114 11.6037 -0.369114V1.82224ZM21.1153 11.3338C21.1153 6.08071 16.8568 1.82224 11.6037 1.82224V-0.369114C18.067 -0.369114 23.3066 4.87046 23.3066 11.3338H21.1153ZM11.6037 20.8454C16.8568 20.8454 21.1153 16.5869 21.1153 11.3338H23.3066C23.3066 17.7971 18.067 23.0367 11.6037 23.0367V20.8454ZM5.66992 18.768C7.29689 20.0685 9.35807 20.8454 11.6037 20.8454V23.0367C8.8431 23.0367 6.30305 22.0795 4.30169 20.4797L5.66992 18.768ZM-0.0653191 20.2324L4.62355 18.5898L5.34806 20.6579L0.659195 22.3006L-0.0653191 20.2324ZM3.14839 16.441L1.331 21.6288L-0.737122 20.9042L1.08027 15.7165L3.14839 16.441Z" fill="#fff" mask="url(#path-1-inside-1_3153_10909)"/>
<path fill-rule="evenodd" clip-rule="evenodd" d="M10.9209 6.5444C8.98864 6.8532 7.46359 8.20719 6.93462 10.0833C6.73534 10.7902 6.73534 11.8719 6.93462 12.5787C7.4074 14.2556 8.67485 15.5222 10.3528 15.9947C11.0039 16.178 12.1374 16.1907 12.7614 16.0217C13.2529 15.8886 13.8798 15.6131 14.2252 15.3786L14.4719 15.211L14.9283 15.6533C15.4443 16.1533 15.6611 16.2388 16.0261 16.0864C16.1918 16.0172 16.2905 15.9185 16.3598 15.7529C16.5123 15.3881 16.4267 15.1715 15.9264 14.6558L15.4838 14.1998L15.6515 13.9532C16.5433 12.6417 16.6716 10.6589 15.9562 9.24332C15.3088 7.9619 14.2146 7.04854 12.8866 6.68074C12.3521 6.53277 11.4049 6.46705 10.9209 6.5444ZM10.7033 8.00849C9.85314 8.23698 8.9858 8.9234 8.58051 9.6886C7.86008 11.0488 8.0988 12.6771 9.17661 13.7542C10.2254 14.8023 11.8438 15.0634 13.1599 14.3969L13.4878 14.2308L12.9002 13.6239C12.3322 13.0371 12.3126 13.0069 12.3126 12.7182C12.3126 12.4743 12.3472 12.385 12.5016 12.2307C12.656 12.0765 12.7453 12.0418 12.9894 12.0418C13.2783 12.0418 13.3085 12.0614 13.8957 12.6291L14.503 13.2162L14.6692 12.8886C15.0265 12.184 15.129 11.2276 14.9293 10.4614C14.6243 9.2914 13.6423 8.30999 12.4715 8.00526C12.0005 7.88268 11.1658 7.88417 10.7033 8.00849Z" fill="#fff"/>
</svg>
