<svg width="22" height="22" viewBox="0 0 22 22" fill="none" xmlns="http://www.w3.org/2000/svg">
<mask id="path-1-inside-1_803_18861" fill="white">
<path fill-rule="evenodd" clip-rule="evenodd" d="M1.82544 15.4134C1.10698 13.9797 0.702621 12.3614 0.702621 10.6487C0.702621 4.76758 5.4702 0 11.3513 0C17.2324 0 22 4.76758 22 10.6487C22 16.5298 17.2324 21.2974 11.3513 21.2974C8.83966 21.2974 6.53111 20.4278 4.71028 18.9733L0.000238419 20.6234L1.82544 15.4134Z"/>
</mask>
<path d="M1.82544 15.4134L2.71945 14.9653L2.90929 15.3441L2.7692 15.744L1.82544 15.4134ZM4.71028 18.9733L4.37965 18.0296L4.90198 17.8466L5.3344 18.192L4.71028 18.9733ZM0.000238419 20.6234L0.330862 21.5671L-1.63071 22.2543L-0.943523 20.2928L0.000238419 20.6234ZM1.70262 10.6487C1.70262 12.2024 2.06911 13.6676 2.71945 14.9653L0.931429 15.8614C0.144848 14.2919 -0.297379 12.5205 -0.297379 10.6487H1.70262ZM11.3513 1C6.02249 1 1.70262 5.31987 1.70262 10.6487H-0.297379C-0.297379 4.2153 4.91792 -1 11.3513 -1V1ZM21 10.6487C21 5.31987 16.6801 1 11.3513 1V-1C17.7847 -1 23 4.2153 23 10.6487H21ZM11.3513 20.2974C16.6801 20.2974 21 15.9775 21 10.6487H23C23 17.0821 17.7847 22.2974 11.3513 22.2974V20.2974ZM5.3344 18.192C6.98441 19.51 9.07454 20.2974 11.3513 20.2974V22.2974C8.60478 22.2974 6.0778 21.3456 4.08615 19.7547L5.3344 18.192ZM-0.330385 19.6796L4.37965 18.0296L5.0409 19.9171L0.330862 21.5671L-0.330385 19.6796ZM2.7692 15.744L0.944 20.954L-0.943523 20.2928L0.88168 15.0827L2.7692 15.744Z" fill="white" mask="url(#path-1-inside-1_803_18861)"/>
<path fill-rule="evenodd" clip-rule="evenodd" d="M10.6636 5.84238C8.72382 6.15239 7.19281 7.51167 6.66176 9.39515C6.4617 10.1048 6.4617 11.1907 6.66176 11.9003C7.1364 13.5837 8.4088 14.8553 10.0933 15.3296C10.7469 15.5136 11.8849 15.5264 12.5114 15.3567C13.0048 15.2231 13.6341 14.9466 13.9808 14.7111L14.2285 14.5429L14.6867 14.9868C15.2047 15.4888 15.4223 15.5747 15.7888 15.4217C15.9551 15.3522 16.0542 15.2531 16.1238 15.0869C16.2769 14.7207 16.1909 14.5032 15.6887 13.9855L15.2444 13.5277L15.4127 13.2801C16.308 11.9635 16.4368 9.97295 15.7187 8.55185C15.0686 7.26542 13.9702 6.34849 12.637 5.97925C12.1004 5.8307 11.1495 5.76473 10.6636 5.84238ZM10.4452 7.31219C9.59169 7.54157 8.72096 8.23068 8.31409 8.99887C7.59085 10.3644 7.8305 11.999 8.91252 13.0803C9.96538 14.1325 11.5901 14.3946 12.9113 13.7256L13.2405 13.5589L12.6507 12.9495C12.0804 12.3605 12.0607 12.3302 12.0607 12.0403C12.0607 11.7955 12.0955 11.7058 12.2505 11.5509C12.4055 11.3961 12.4952 11.3613 12.7402 11.3613C13.0303 11.3613 13.0606 11.3809 13.65 11.9508L14.2598 12.5403L14.4266 12.2113C14.7853 11.504 14.8882 10.5439 14.6877 9.7747C14.3815 8.60011 13.3956 7.61487 12.2203 7.30895C11.7475 7.18589 10.9095 7.18738 10.4452 7.31219Z" fill="white"/>
</svg>
