<svg width="34" height="34" viewBox="0 0 34 34" fill="none" xmlns="http://www.w3.org/2000/svg">
<circle cx="16.8875" cy="16.8875" r="16.8875" fill="#197065"/>
<mask id="path-2-inside-1_2897_14645" fill="white">
<path fill-rule="evenodd" clip-rule="evenodd" d="M8.65898 21.013C8.00569 19.7096 7.63801 18.2382 7.63801 16.681C7.63801 11.3343 11.9723 7 17.319 7C22.6657 7 27 11.3343 27 16.681C27 22.0277 22.6657 26.362 17.319 26.362C15.0357 26.362 12.9371 25.5715 11.2817 24.2494L6.9997 25.7495L8.65898 21.013Z"/>
</mask>
<path d="M8.65898 21.013L9.55297 20.565L9.74284 20.9438L9.60274 21.3437L8.65898 21.013ZM11.2817 24.2494L10.9511 23.3056L11.4734 23.1226L11.9058 23.468L11.2817 24.2494ZM6.9997 25.7495L7.33032 26.6932L5.36875 27.3804L6.05593 25.4188L6.9997 25.7495ZM8.63801 16.681C8.63801 18.0792 8.96782 19.3975 9.55297 20.565L7.76499 21.4611C7.04357 20.0218 6.63801 18.3973 6.63801 16.681H8.63801ZM17.319 8C12.5246 8 8.63801 11.8866 8.63801 16.681H6.63801C6.63801 10.782 11.4201 6 17.319 6V8ZM26 16.681C26 11.8866 22.1134 8 17.319 8V6C23.218 6 28 10.782 28 16.681H26ZM17.319 25.362C22.1134 25.362 26 21.4754 26 16.681H28C28 22.5799 23.218 27.362 17.319 27.362V25.362ZM11.9058 23.468C13.3903 24.6538 15.2706 25.362 17.319 25.362V27.362C14.8009 27.362 12.4838 26.4893 10.6576 25.0307L11.9058 23.468ZM6.66907 24.8057L10.9511 23.3056L11.6124 25.1931L7.33032 26.6932L6.66907 24.8057ZM9.60274 21.3437L7.94346 26.0801L6.05593 25.4188L7.71522 20.6824L9.60274 21.3437Z" fill="white" mask="url(#path-2-inside-1_2897_14645)"/>
<path fill-rule="evenodd" clip-rule="evenodd" d="M16.6945 12.3111C14.931 12.5929 13.5391 13.8287 13.0563 15.541C12.8745 16.1861 12.8745 17.1734 13.0563 17.8185C13.4878 19.3489 14.6446 20.5049 16.1761 20.9362C16.7703 21.1035 17.8048 21.115 18.3743 20.9608C18.8229 20.8393 19.395 20.5879 19.7103 20.3738L19.9355 20.2209L20.352 20.6245C20.823 21.0809 21.0208 21.159 21.3539 21.0198C21.5052 20.9567 21.5953 20.8666 21.6585 20.7155C21.7977 20.3826 21.7196 20.1849 21.2629 19.7142L20.859 19.298L21.012 19.0729C21.826 17.876 21.943 16.0663 21.2902 14.7743C20.6992 13.6048 19.7006 12.7712 18.4886 12.4355C18.0007 12.3005 17.1363 12.2405 16.6945 12.3111ZM16.496 13.6473C15.72 13.8559 14.9284 14.4823 14.5585 15.1807C13.901 16.4221 14.1189 17.9082 15.1025 18.8913C16.0597 19.8478 17.5368 20.0862 18.738 19.4779L19.0372 19.3263L18.501 18.7724C17.9826 18.2368 17.9647 18.2093 17.9647 17.9458C17.9647 17.7232 17.9963 17.6417 18.1372 17.5008C18.2781 17.3601 18.3597 17.3285 18.5824 17.3285C18.8461 17.3285 18.8737 17.3463 19.4096 17.8644L19.9639 18.4003L20.1155 18.1013C20.4416 17.4582 20.5352 16.5854 20.3529 15.8861C20.0746 14.8182 19.1783 13.9225 18.1097 13.6444C17.6799 13.5325 16.918 13.5339 16.496 13.6473Z" fill="white"/>
</svg>
