<svg width="15" height="14" viewBox="0 0 15 14" fill="none" xmlns="http://www.w3.org/2000/svg">
<path fill-rule="evenodd" clip-rule="evenodd" d="M1.8125 8.50606V1.33594H10.0625V3.90947C10.0625 3.911 10.0625 3.91253 10.0625 3.91406C10.0625 3.91559 10.0625 3.91713 10.0625 3.91866V7.00783H4.39527C4.39372 7.00782 4.39218 7.00781 4.39062 7.00781C4.38907 7.00781 4.38753 7.00782 4.38598 7.00783H3.84812C3.73013 7.00783 3.61571 7.0483 3.52395 7.12248L1.8125 8.50606ZM3.875 8.16477L1.62104 9.98694C1.46653 10.1118 1.254 10.1369 1.0747 10.0513C0.895407 9.96565 0.78125 9.78464 0.78125 9.58596V1.33594C0.78125 1.06243 0.889904 0.800132 1.08328 0.606742L1.0833 0.606722C1.27669 0.413342 1.53899 0.304688 1.8125 0.304688H10.0625C10.3361 0.304688 10.5983 0.413373 10.7917 0.606664L10.7918 0.606771C10.9851 0.800115 11.0938 1.06238 11.0938 1.33594V3.39844H13.1562C13.4297 3.39844 13.692 3.50705 13.8855 3.70049C14.0788 3.89383 14.1875 4.15609 14.1875 4.42969V12.6797C14.1875 12.8784 14.0733 13.0594 13.894 13.145C13.7148 13.2306 13.5022 13.2056 13.3477 13.0807L10.9383 11.1328H4.90625C4.63265 11.1328 4.37039 11.0241 4.17705 10.8308C3.98361 10.6373 3.875 10.375 3.875 10.1016V8.16477ZM4.90625 8.03908L4.90625 10.1016L11.1206 10.1016C11.2386 10.1016 11.353 10.142 11.4448 10.2162L13.1562 11.5998V4.42969H11.0938V7.00783C11.0938 7.28143 10.985 7.54362 10.7918 7.73694L10.7916 7.73713C10.5983 7.93034 10.3361 8.03908 10.0625 8.03908H4.90625Z" fill="#197065"/>
</svg>
