<svg width="68" height="68" viewBox="0 0 68 68" fill="none" xmlns="http://www.w3.org/2000/svg">
<path d="M11.874 53.4863V14.7676C11.874 13.3006 12.4568 11.8937 13.4941 10.8564C14.5314 9.81908 15.9383 9.23633 17.4053 9.23633H54.4646C54.9047 9.23633 55.3268 9.41115 55.638 9.72235C55.9492 10.0335 56.124 10.4556 56.124 10.8957V47.1641M17.4053 47.9551H56.124M17.4053 59.0176H56.124" stroke="#CDCDCD" stroke-width="4.14844" stroke-linecap="round"/>
<path d="M17.4053 59.0176C15.9383 59.0176 14.5314 58.4348 13.4941 57.3975C12.4568 56.3602 11.874 54.9533 11.874 53.4863C11.874 52.0193 12.4568 50.6125 13.4941 49.5751C14.5314 48.5378 15.9383 47.9551 17.4053 47.9551" stroke="#CDCDCD" stroke-width="4.14844" stroke-linecap="round" stroke-linejoin="round"/>
<path d="M25.7021 20.2988H42.2959" stroke="#CDCDCD" stroke-width="4.14844" stroke-linecap="round"/>
</svg>
