<svg width="68" height="67" viewBox="0 0 68 67" fill="none" xmlns="http://www.w3.org/2000/svg">
<path d="M12.0156 52.6941V13.9593C12.0156 12.4917 12.5986 11.0843 13.6364 10.0465C14.6741 9.00878 16.0816 8.42578 17.5492 8.42578H54.6239C55.0642 8.42578 55.4864 8.60068 55.7977 8.912C56.1091 9.22332 56.284 9.64557 56.284 10.0858V46.3693M17.5492 47.1606H56.284M17.5492 58.2277H56.284" stroke="#3E4F3C" stroke-width="4.15016" stroke-linecap="round"/>
<path d="M17.5492 58.2292C16.0816 58.2292 14.6741 57.6462 13.6364 56.6085C12.5986 55.5707 12.0156 54.1632 12.0156 52.6957C12.0156 51.2281 12.5986 49.8206 13.6364 48.7828C14.6741 47.7451 16.0816 47.1621 17.5492 47.1621" stroke="#3E4F3C" stroke-width="4.15016" stroke-linecap="round" stroke-linejoin="round"/>
<path d="M25.8496 19.4922H42.4502" stroke="#3E4F3C" stroke-width="4.15016" stroke-linecap="round"/>
</svg>
