<svg width="273" height="165" viewBox="0 0 273 165" fill="none" xmlns="http://www.w3.org/2000/svg">
<path fill-rule="evenodd" clip-rule="evenodd" d="M288.568 -10.526C264.587 -1.20487 233.603 17.099 205.971 38.2712C195.953 45.9465 172.979 66.4728 164.058 75.719C148.687 91.6491 130.991 113.852 122.647 127.674C121.047 130.326 119.466 132.499 119.134 132.504C118.802 132.509 114.782 130.071 110.2 127.087C80.3297 107.63 49.7839 96.9715 26.6263 97.9274C15.34 98.3926 9.12293 100.331 3.57517 105.111C-2.45889 110.312 -1.14949 111.187 9.76217 109.248C14.0572 108.485 16.0643 108.542 21.7908 109.589C46.2595 114.063 71.0299 136.091 92.3729 172.358C101.551 187.952 114.291 216.137 120.593 234.786C121.864 238.55 123.201 241.332 123.561 240.968C123.921 240.604 126.046 234.916 128.283 228.329C133.342 213.431 144.087 187.417 152.539 169.603C188.182 94.4834 240.266 27.0855 288.568 -6.41755C297.861 -12.8635 297.433 -12.5142 296.59 -12.9732C296.195 -13.188 292.585 -12.0869 288.568 -10.526Z" fill="white" fill-opacity="0.1"/>
</svg>
