<svg width="71" height="72" viewBox="0 0 71 72" fill="none" xmlns="http://www.w3.org/2000/svg">
<g filter="url(#filter0_d_2039_2644)">
<ellipse cx="35.5935" cy="33.3496" rx="26.8395" ry="26.8418" fill="#197065"/>
</g>
<path fill-rule="evenodd" clip-rule="evenodd" d="M30.0045 21.0391H39.1167C39.7913 21.0391 40.4299 21.3436 40.8546 21.8678L45.1621 27.185C45.4848 27.5833 45.6609 28.0804 45.6609 28.5931V41.1704C45.6609 43.6411 43.6582 45.644 41.1876 45.644H30.0045C27.534 45.644 25.5312 43.6411 25.5312 41.1704V25.5127C25.5312 23.042 27.534 21.0391 30.0045 21.0391ZM39.6496 23.9369V27.0807H42.1967L39.6496 23.9369ZM30.0064 23.2755C28.7711 23.2755 27.7698 24.277 27.7698 25.5123V41.17C27.7698 42.4054 28.7711 43.4068 30.0064 43.4068H41.1895C42.4248 43.4068 43.4262 42.4054 43.4262 41.17V29.3149H39.6519C38.4166 29.3149 37.4152 28.3135 37.4152 27.0781V23.2755H30.0064Z" fill="white"/>
<defs>
<filter id="filter0_d_2039_2644" x="0.203199" y="0.957354" width="70.7811" height="70.785" filterUnits="userSpaceOnUse" color-interpolation-filters="sRGB">
<feFlood flood-opacity="0" result="BackgroundImageFix"/>
<feColorMatrix in="SourceAlpha" type="matrix" values="0 0 0 0 0 0 0 0 0 0 0 0 0 0 0 0 0 0 127 0" result="hardAlpha"/>
<feOffset dy="3.00025"/>
<feGaussianBlur stdDeviation="4.27535"/>
<feComposite in2="hardAlpha" operator="out"/>
<feColorMatrix type="matrix" values="0 0 0 0 0 0 0 0 0 0 0 0 0 0 0 0 0 0 0.09 0"/>
<feBlend mode="normal" in2="BackgroundImageFix" result="effect1_dropShadow_2039_2644"/>
<feBlend mode="normal" in="SourceGraphic" in2="effect1_dropShadow_2039_2644" result="shape"/>
</filter>
</defs>
</svg>
