<svg xmlns="http://www.w3.org/2000/svg" width="15" height="16" viewBox="0 0 15 16" fill="none">
  <circle cx="7.5" cy="8" r="6.775" fill="white" stroke="white" stroke-width="1.45"/>
  <path d="M11.0741 4.90456L11.074 4.90457C10.9274 4.90933 10.7932 4.97591 10.6978 5.08234L6.45783 9.71125L4.82263 7.92604C4.77453 7.87192 4.71596 7.82735 4.64957 7.79602L4.54289 8.02212L4.64957 7.79602C4.58222 7.76424 4.50879 7.74705 4.43379 7.74622C4.35879 7.74539 4.28498 7.76094 4.21691 7.79128C4.14892 7.82159 4.08868 7.86572 4.03908 7.91987C3.98952 7.97397 3.95141 8.03714 3.92598 8.10515C3.90055 8.17314 3.88802 8.24533 3.8887 8.31768C3.88937 8.39003 3.90324 8.46199 3.92998 8.52951C3.95636 8.59615 3.99503 8.65783 4.04474 8.7105L6.06889 10.9203L6.06892 10.9204C6.16804 11.0285 6.30738 11.094 6.45783 11.094C6.60828 11.094 6.74763 11.0285 6.84675 10.9204L6.84678 10.9203L11.4757 5.86678C11.5511 5.78621 11.6003 5.68539 11.6201 5.57844C11.6401 5.47088 11.6299 5.35904 11.5903 5.25675C11.5506 5.15435 11.4821 5.06381 11.3904 4.99957C11.2983 4.93508 11.188 4.9009 11.0741 4.90456Z" fill="#7F886B" stroke="#7F886B" stroke-width="0.5"/>
</svg>