<svg xmlns="http://www.w3.org/2000/svg" width="29" height="24" viewBox="0 0 29 24" fill="none">
  <path fill-rule="evenodd" clip-rule="evenodd" d="M7.40557 0.0691199C6.74365 0.143502 6.04012 0.268073 4.32463 0.614589C3.03221 0.875691 2.3314 0.973065 1.36455 1.02588C0.491255 1.07355 0.396905 1.1049 0.144833 1.43105C0.0283786 1.58172 0.0282655 1.58811 0.0282655 9.48299V17.3842L0.650108 17.4016C1.79243 17.4337 2.92368 17.2874 5.39872 16.7875C8.00887 16.2603 9.41633 16.2479 10.9953 16.7379C11.6079 16.928 12.4823 17.3394 13.0304 17.6953C13.2792 17.8569 13.5145 18.008 13.5533 18.0312C13.6097 18.0648 13.624 16.4265 13.624 9.90919V1.74512L13.2141 1.46611C12.691 1.10992 11.7579 0.649814 11.119 0.432948C10.0158 0.0584706 8.67181 -0.0732001 7.40557 0.0691199ZM19.5747 0.0464559C18.6691 0.138423 17.708 0.41864 16.818 0.850242C16.2734 1.11435 15.3794 1.66637 15.3419 1.76178C15.3294 1.79356 15.3257 5.47242 15.3337 9.93699L15.3482 18.0544L15.857 17.7283C16.4643 17.3392 17.326 16.9311 17.9486 16.7379C19.5276 16.2479 20.935 16.2603 23.5452 16.7875C26.0202 17.2874 27.1515 17.4337 28.2938 17.4016L28.9157 17.3842V9.48299C28.9157 1.58811 28.9155 1.58172 28.7991 1.43105C28.547 1.1049 28.4527 1.07355 27.5794 1.02588C26.6128 0.973065 25.9121 0.875746 24.6193 0.614698C21.697 0.0246108 20.7928 -0.0772413 19.5747 0.0464559ZM7.20771 5.04333C6.09332 5.21765 3.98182 5.67405 3.84762 5.76957C3.35608 6.11941 3.33036 6.77646 3.79527 7.1055C4.06843 7.29882 4.34696 7.27933 5.93124 6.95608C6.7527 6.78847 7.66166 6.62321 7.95127 6.58881C8.8777 6.47882 9.66252 6.65942 10.4212 7.1571C10.9689 7.5164 11.4675 7.48402 11.7737 7.06934C11.9444 6.83817 11.9484 6.39657 11.7817 6.17894C11.5096 5.82369 10.7085 5.36478 9.92121 5.11323C9.46234 4.96666 7.94731 4.92761 7.20771 5.04333ZM19.5315 4.99888C18.7622 5.10171 17.5094 5.72566 17.1622 6.17894C16.9956 6.39657 16.9995 6.83817 17.1702 7.06934C17.4764 7.48402 17.975 7.5164 18.5227 7.1571C19.2814 6.65942 20.0662 6.47882 20.9927 6.58881C21.2823 6.62321 22.1875 6.78683 23.0045 6.95242C23.8214 7.11806 24.5643 7.25355 24.6553 7.25355C25.1243 7.25355 25.4673 6.91495 25.4673 6.452C25.4673 6.15174 25.3622 5.95864 25.0963 5.76984C24.9485 5.66493 22.7445 5.19488 21.7007 5.04568C21.1535 4.96747 19.9591 4.9417 19.5315 4.99888ZM7.18369 8.3233C6.08823 8.49331 3.98448 8.94938 3.84762 9.04659C3.33567 9.41003 3.33109 10.079 3.83835 10.4063C3.95271 10.4802 4.11614 10.5303 4.24226 10.5303C4.35877 10.5303 5.12251 10.3948 5.93944 10.2292C6.75637 10.0636 7.66166 9.89996 7.95127 9.86555C8.8777 9.75557 9.66252 9.93617 10.4212 10.4339C10.9689 10.7931 11.4675 10.7608 11.7737 10.3461C11.9444 10.1149 11.9484 9.67332 11.7817 9.45569C11.5096 9.10043 10.7085 8.64153 9.92121 8.38998C9.45567 8.24127 7.94889 8.20452 7.18369 8.3233ZM19.5315 8.27562C18.7622 8.37846 17.5094 9.00241 17.1622 9.45569C16.9956 9.67332 16.9995 10.1149 17.1702 10.3461C17.4764 10.7608 17.975 10.7931 18.5227 10.4339C19.2814 9.93617 20.0662 9.75557 20.9927 9.86555C21.2823 9.89996 22.1875 10.0636 23.0045 10.2292C23.8214 10.3948 24.5643 10.5303 24.6553 10.5303C25.1243 10.5303 25.4673 10.1917 25.4673 9.72875C25.4673 9.42849 25.3622 9.23538 25.0963 9.04659C24.9485 8.94168 22.7445 8.47163 21.7007 8.32243C21.1535 8.24422 19.9591 8.21844 19.5315 8.27562ZM7.18369 11.6C6.08823 11.7701 3.98448 12.2261 3.84762 12.3233C3.35614 12.6723 3.33036 13.3299 3.79527 13.659C4.06843 13.8523 4.34696 13.8328 5.93124 13.5096C6.7527 13.342 7.66166 13.1767 7.95127 13.1423C8.8777 13.0323 9.66252 13.2129 10.4212 13.7106C10.9689 14.0699 11.4675 14.0375 11.7737 13.6228C11.9444 13.3917 11.9484 12.9501 11.7817 12.7324C11.5067 12.3734 10.7174 11.9202 9.93042 11.6694C9.45516 11.518 7.95647 11.4801 7.18369 11.6ZM19.5315 11.5524C18.7622 11.6552 17.5094 12.2792 17.1622 12.7324C16.9956 12.9501 16.9995 13.3917 17.1702 13.6228C17.4764 14.0375 17.975 14.0699 18.5227 13.7106C19.2814 13.2129 20.0662 13.0323 20.9927 13.1423C21.2823 13.1767 22.1875 13.3403 23.0045 13.5059C23.8214 13.6715 24.5643 13.807 24.6553 13.807C25.1243 13.807 25.4673 13.4684 25.4673 13.0055C25.4673 12.7052 25.3622 12.5121 25.0963 12.3233C24.9485 12.2184 22.7445 11.7484 21.7007 11.5992C21.1535 11.521 19.9591 11.4952 19.5315 11.5524ZM7.74476 18.0434C7.66703 18.0565 7.41264 18.0937 7.17945 18.1261C6.94626 18.1586 6.16093 18.3055 5.43428 18.4528C3.15879 18.9138 2.09973 19.0498 0.785443 19.0498H0L0.000113062 20.3742C0.000169593 21.856 0.0236865 21.9663 0.389951 22.2026C0.562089 22.3138 0.650051 22.3266 1.23792 22.3265C2.40155 22.3264 3.64693 22.1608 5.79444 21.7206C7.96806 21.275 8.72077 21.2019 9.33147 21.377C9.98283 21.5636 10.4281 21.8497 11.3554 22.677C11.9766 23.2312 12.2591 23.4272 12.7404 23.638C13.5091 23.9747 14.3261 24.078 15.1434 23.9417C16.1099 23.7806 16.7525 23.4458 17.625 22.6489C18.4832 21.8651 19.0114 21.5325 19.6555 21.3704C20.2789 21.2135 21.019 21.2823 22.8899 21.6711C25.0752 22.1252 26.5536 22.3264 27.706 22.3265C28.2955 22.3266 28.3813 22.314 28.554 22.2018C28.6596 22.1332 28.8012 21.9796 28.8687 21.8605C28.9845 21.656 28.9916 21.5708 28.9956 20.3332L29 19.0225L27.8555 19.0185C26.5361 19.0139 25.875 18.9304 23.7713 18.5027C21.6118 18.0636 21.4855 18.0462 20.436 18.0427C19.6899 18.0402 19.375 18.0621 19.0283 18.1406C17.7958 18.4197 16.7861 18.972 15.5409 20.0483C14.8426 20.6519 14.782 20.6882 14.472 20.6882C14.1619 20.6882 14.1013 20.6519 13.403 20.0483C12.1869 18.9971 11.2192 18.4576 10.0343 18.17C9.59762 18.064 8.11108 17.9818 7.74476 18.0434ZM0.0245345 20.3878C0.024478 21.1388 0.0324488 21.4536 0.0422287 21.0873C0.0519521 20.7211 0.0520086 20.1068 0.0422853 19.722C0.0325619 19.3373 0.0245345 19.6369 0.0245345 20.3878Z" fill="white"/>
</svg>