<svg width="154" height="53" viewBox="0 0 154 53" fill="none" xmlns="http://www.w3.org/2000/svg">
<path fill-rule="evenodd" clip-rule="evenodd" d="M31.8685 0.561692C31.8685 0.988427 31.5521 1.88136 30.9704 3.09585C30.2658 4.56715 30.0566 5.20725 29.9995 6.06789C29.9175 7.30297 30.2107 8.76539 30.5404 8.76539C30.809 8.76539 31.9205 7.51917 32.2234 6.87831C32.3457 6.61925 32.5429 6.02447 32.6616 5.55657C32.856 4.78901 32.8787 4.76276 32.8927 5.28939C32.9144 6.10811 32.5304 7.39568 31.9827 8.34054C31.7269 8.782 31.6004 9.14303 31.7016 9.14303C32.0785 9.14303 32.8732 8.57543 33.384 7.94156C34.785 6.20271 34.5869 3.52372 32.8628 0.893072C32.158 -0.182262 31.8685 -0.27875 31.8685 0.561692ZM51.4493 0.770339C51.4493 0.959915 51.1688 1.55867 50.826 2.10115C49.9719 3.45216 49.7943 4.41496 50.1611 5.70366C50.2807 6.12435 51.2342 5.43534 51.6124 4.65514C51.8002 4.26749 51.9572 4.08244 51.9615 4.24389C51.9657 4.40533 51.7369 4.93648 51.4531 5.42402C50.873 6.4208 51.0459 6.5694 51.9844 5.88021C52.8076 5.2756 53.041 4.70348 52.9435 3.52939C52.822 2.06867 51.4493 -0.46606 51.4493 0.770339ZM38.6265 1.66592C38.6265 1.81131 38.4322 2.38495 38.195 2.94046C37.7256 4.03902 37.6703 4.51824 37.9278 5.25634C38.1262 5.82488 38.4263 5.75275 38.8628 5.03165C39.1466 4.56318 39.1482 4.70593 38.8678 5.46102C38.7025 5.90608 39.1177 5.79259 39.6077 5.25861C40.0018 4.82923 40.0446 4.65551 39.9767 3.76164C39.9217 3.04034 39.7642 2.55696 39.4275 2.07585C38.9352 1.37249 38.6265 1.21445 38.6265 1.66592ZM44.8471 2.18423C43.5664 3.15571 42.8185 4.74294 43.1136 5.86397C43.2898 6.53371 43.7994 7.44364 43.9982 7.44364C44.0715 7.44364 44.1046 6.87001 44.0717 6.1691C44.0146 4.95687 44.0191 4.93893 44.1654 5.80336C44.25 6.30316 44.4366 6.90758 44.5802 7.14644C44.8197 7.54447 44.8062 7.65663 44.4198 8.48839C44.1879 8.98744 43.9982 9.72139 43.9982 10.119C43.9982 10.7278 44.0557 10.8424 44.3619 10.8424C44.9457 10.8424 45.861 10.2852 46.4231 9.58751C46.7095 9.23196 46.944 9.00935 46.944 9.09262C46.944 9.45458 46.0379 10.6494 45.4768 11.0273C44.726 11.5331 44.6969 11.7865 45.39 11.7865C46.0874 11.7865 47.0595 11.3298 47.4915 10.799C47.774 10.4521 47.7653 10.4963 47.447 11.0312C46.7941 12.1277 45.9065 13.133 44.3506 14.5384C43.5373 15.2729 42.6532 16.187 42.3858 16.5692C41.2252 18.2291 40.3782 21.129 40.0583 24.5382L39.9171 26.0425L39.4152 25.1928C38.4426 23.5461 38.2714 22.2908 38.7278 20.1535C39.0461 18.6632 38.9725 17.8682 38.441 17.055C38.0794 16.5016 36.8073 15.3741 36.5446 15.3741C36.4765 15.3741 36.6053 15.7708 36.8306 16.2557C37.348 17.3696 37.3703 18.8482 36.8945 20.4997C36.7042 21.1596 36.4889 21.7995 36.4157 21.9215C36.3313 22.0623 35.8238 21.4066 35.0271 20.1277C32.9927 16.862 30.9698 14.7368 27.9055 12.6455C25.7728 11.19 23.8166 10.0494 23.6899 10.1874C23.6482 10.2329 23.3104 10.1017 22.9393 9.89548C22.5683 9.68929 21.9108 9.51199 21.4783 9.50141L20.6918 9.48215L21.248 9.28748C21.6646 9.14171 22.067 9.16493 22.8509 9.38C24.0214 9.70137 24.1413 9.56844 23.4051 8.76614C21.8895 7.11491 19.1312 7.95365 17.4807 10.5677C17.1978 11.0159 16.9663 11.4204 16.9663 11.4668C16.9663 11.5133 17.2976 11.5127 17.7027 11.4653C18.1078 11.4181 18.9039 11.5135 19.4719 11.6774C20.9769 12.1115 21.942 12.0592 22.9972 11.4865C23.4924 11.2174 23.8975 10.8753 23.8975 10.7261C23.8975 10.538 24.1578 10.6457 24.7457 11.0773C26.5889 12.4298 29.6725 15.4989 29.4978 15.8071C29.438 15.9126 29.4711 15.9436 29.5716 15.876C29.9433 15.6256 33.2232 20.1043 34.8035 23.0197C35.5649 24.4245 36.5112 26.4877 36.9163 27.6269C37.0655 28.0463 37.0536 28.0597 36.7483 27.8157C32.9397 24.7729 31.3424 23.8973 29.0237 23.5816C27.7563 23.409 27.7757 23.7143 29.0526 24.0368C30.9338 24.5119 32.5136 25.5187 34.126 27.2698C35.8065 29.0948 36.6465 30.6412 37.2593 33.0374C37.8968 35.5298 37.7366 38.7709 36.891 40.4926C36.715 40.8509 36.7576 40.9835 37.2142 41.4988C37.5034 41.8253 37.9718 42.6446 38.2548 43.3196C38.9985 45.0936 39.1006 45.7059 38.409 44.2439C36.7337 40.7027 34.2144 38.5434 30.4541 37.4254C29.176 37.0455 28.6096 36.996 25.5437 36.9958C22.9128 36.9956 21.6608 37.0796 20.3452 37.3445C14.5576 38.5103 7.69621 41.08 1.37092 44.4506C-0.77119 45.592 -0.321177 45.5154 2.15068 44.3177C8.06028 41.4542 13.1982 39.6544 18.2659 38.6721C20.68 38.2042 26.0355 38.1939 27.9265 38.6536C32.3488 39.7286 35.7008 42.3126 37.4085 45.9631C37.6845 46.5535 37.5083 46.3473 36.5564 44.9665C35.1906 42.9852 33.0794 41.4238 30.4954 40.4841C25.5728 38.6939 19.2307 39.4862 11.3656 42.874C8.85495 43.9555 5.91141 45.4595 5.61632 45.8118C5.40127 46.0686 5.36194 46.0851 8.30218 44.677C20.0332 39.059 28.9421 38.9497 33.9614 44.3624C34.493 44.9357 35.1081 45.7541 35.3284 46.1812L35.7287 46.9574L34.8143 46.1697C33.6216 45.1425 31.4193 43.9905 29.6931 43.4912C27.7782 42.9374 24.4869 42.8018 22.409 43.1914C20.727 43.5067 16.7419 44.8341 17.0856 44.9646C17.1988 45.0075 17.9041 44.8319 18.6528 44.5741C20.6348 43.8919 22.0015 43.6655 24.1533 43.6627C27.5806 43.6581 30.2864 44.4712 32.8255 46.2684L33.8612 47.0016L17.9193 47.0975C2.73274 47.1889 1.68872 47.2195 8.30218 47.3804C20.3619 47.6736 24.2151 47.8511 29.0093 48.3341C33.5737 48.7939 37.5221 49.5839 37.2911 49.9914C37.2336 50.0926 37.274 50.1166 37.3807 50.0448C37.6122 49.8889 38.7663 50.4987 39.1775 50.9942C39.3378 51.1872 39.5537 51.5888 39.6576 51.8866L39.8465 52.4277L40.2458 51.603C40.8424 50.3707 42.0034 49.748 44.9337 49.0886C49.4053 48.0824 61.8982 47.2848 73.1847 47.2848C75.8451 47.2848 77.9614 47.2106 77.9614 47.1175C77.9614 47.0216 71.2036 46.9368 62.1551 46.9191C53.4616 46.9019 46.3241 46.8613 46.2942 46.8284C46.2108 46.7376 48.4883 45.2739 49.3699 44.8517C51.3853 43.8864 52.7761 43.6183 55.7813 43.6155C58.349 43.6132 58.8231 43.6655 60.432 44.1294C61.4173 44.4136 62.3792 44.7369 62.5695 44.8477C62.7599 44.9587 62.9599 45.0012 63.0139 44.9423C63.1361 44.8092 62.2385 44.3947 60.6892 43.8689C60.0389 43.6481 59.3899 43.4234 59.247 43.3694C59.104 43.3153 58.8311 43.2533 58.6405 43.2316C58.4499 43.2101 57.5141 43.0853 56.5611 42.9544C52.5444 42.4029 48.5992 43.4493 45.4135 45.9115L44.3163 46.7595L44.6144 46.1253C45.1481 44.9899 47.2758 42.911 48.7934 42.0424C50.8116 40.8872 52.4276 40.4737 55.4135 40.3489C60.1801 40.1497 65.3153 41.465 71.6366 44.5044C74.2758 45.7735 74.3628 45.8094 74.2299 45.5749C74.0459 45.2507 70.7633 43.6158 67.9977 42.4714C63.6655 40.6786 60.8335 39.9104 57.1322 39.5237C51.0987 38.8936 45.6814 41.1829 43.0214 45.4871C42.3615 46.5548 42.246 46.5362 42.8207 45.4546C45.6684 40.0962 51.4188 37.4947 58.8465 38.2044C64.7618 38.7698 71.2122 40.8466 78.6349 44.5758C79.339 44.9297 79.9513 45.1793 79.9957 45.1309C80.2092 44.8985 72.4302 41.2278 69.0374 39.9601C62.885 37.6614 58.9337 36.8143 54.3951 36.8217C51.8539 36.8257 51.11 36.8946 49.8031 37.2466C46.0427 38.2592 43.221 40.6317 41.6821 44.0749C40.7959 46.0573 40.723 46.1391 41.2066 44.6072C41.6327 43.2577 41.9436 42.6162 42.6845 41.5586L43.2919 40.6916L42.9587 39.871C41.8342 37.1012 42.1874 31.9994 43.7691 28.1645C44.3919 26.6543 45.6594 24.4375 45.9001 24.4375C45.9655 24.4375 46.1233 24.2253 46.2507 23.9658C46.3782 23.7062 46.5082 23.5219 46.5395 23.5561C46.5709 23.5905 46.9301 23.2715 47.3378 22.8478C48.1743 21.9781 49.6113 21.1569 50.9497 20.7836C51.4458 20.6454 51.7806 20.4842 51.6936 20.4256C51.6066 20.3671 50.8265 20.2587 49.9601 20.1849C47.4948 19.9747 45.7615 20.6624 43.8831 22.5963C42.8386 23.6717 42.8098 23.6311 42.9819 21.3265C43.198 18.4366 43.9107 17.011 46.5648 14.1611C48.5893 11.9872 49.1556 10.8823 49.3165 8.79107C49.4467 7.09829 49.1772 6.92967 48.6759 8.3902C48.4626 9.01199 48.2765 9.52067 48.2625 9.52067C48.2484 9.52067 48.2611 8.90455 48.2907 8.15172C48.3472 6.71989 48.0356 4.97311 47.7024 4.85415C47.5955 4.81601 47.4699 4.9429 47.4236 5.13644C47.3772 5.32979 46.8747 5.87303 46.3068 6.34357L45.2746 7.19893L45.6026 6.5188C45.8797 5.94403 45.9098 5.6338 45.7975 4.51692C45.7244 3.78996 45.6697 2.83396 45.6761 2.39269C45.6823 1.95141 45.6745 1.5902 45.6589 1.5902C45.6431 1.5902 45.2779 1.85757 44.8471 2.18423ZM26.0389 3.87833C25.3652 5.12247 25.0391 6.35131 25.0391 7.64549C25.0391 8.74462 25.1037 9.00349 25.5309 9.61357C26.0306 10.3275 26.8771 10.8424 27.551 10.8424C27.8887 10.8424 27.8645 10.7714 27.289 10.0773C26.6376 9.29163 26.3151 8.60508 26.3344 8.04504C26.3417 7.83752 26.4053 7.89096 26.5177 8.19893C26.8615 9.14152 28.3448 10.454 28.7544 10.1781C28.9809 10.0256 28.9688 7.97819 28.7374 7.3143C28.6356 7.02201 28.1644 6.29693 27.6905 5.7029C27.2166 5.10906 26.7296 4.31054 26.6083 3.92874L26.3876 3.23426L26.0389 3.87833ZM35.3448 6.78749C34.755 8.09319 34.5162 9.58619 34.7138 10.7335C34.8669 11.6241 35.7183 12.6691 36.4244 12.8335C36.7301 12.9047 37.0778 13.0486 37.1969 13.1532C37.6282 13.5318 37.4195 12.8026 36.9638 12.3386C36.4447 11.8101 36.1225 11.1751 35.9652 10.3704C35.8555 9.80957 35.8578 9.81051 36.1844 10.4684C36.7982 11.7044 38.0267 12.6927 38.418 12.265C38.6537 12.0073 38.5261 9.81145 38.2419 9.23744C38.0877 8.92589 37.6001 8.21252 37.1582 7.65229C36.7165 7.09206 36.3105 6.39097 36.2561 6.09452C36.2017 5.79807 36.0997 5.55543 36.0293 5.55543C35.9591 5.55543 35.651 6.10981 35.3448 6.78749ZM41.2423 7.41324C39.7517 9.05768 39.2802 10.8275 39.9618 12.2208C40.1243 12.5531 40.2413 12.8887 40.2217 12.9667C40.2021 13.0444 40.2446 13.0901 40.3159 13.0682C40.3875 13.0461 40.628 13.1379 40.8507 13.2724C41.3832 13.5937 41.4799 13.4519 41.1763 12.7954C40.862 12.1156 40.6753 10.8424 40.89 10.8424C40.9793 10.8424 41.0524 11.018 41.0524 11.2325C41.0524 11.8898 41.9056 13.2971 42.304 13.2971C42.5641 13.2971 43.124 11.7267 43.128 10.9861C43.13 10.5977 42.9701 9.83298 42.7724 9.28672C42.5748 8.74028 42.3553 7.86849 42.2846 7.34923L42.156 6.40513L41.2423 7.41324ZM53.9619 6.9393C53.0845 7.37604 52.4087 8.12 51.9768 9.12528C51.7496 9.65379 51.6134 10.14 51.674 10.2061C51.7347 10.2722 52.0618 10.0605 52.4013 9.73574C53.1506 9.01897 54.1005 8.47819 54.9149 8.30466C55.4537 8.18986 55.416 8.2348 54.5767 8.70648C54.0572 8.99858 53.5042 9.31561 53.3478 9.41097C53.0052 9.62018 52.0658 11.3885 52.2124 11.5482C52.2694 11.6104 52.7253 11.6972 53.2256 11.7412C54.5127 11.8545 55.8396 11.2612 57.3838 9.88189C58.0749 9.26444 58.9387 8.67079 59.3031 8.56241C60.1447 8.31241 59.9841 8.06524 58.5079 7.33828C57.2175 6.7029 54.8539 6.49538 53.9619 6.9393ZM31.2708 9.64926C31.3488 9.83808 31.4597 10.8424 31.5171 11.8809C31.5746 12.9194 31.7094 13.9391 31.8168 14.1468C32.1358 14.7642 33.0392 15.6137 33.236 15.4812C33.5235 15.2874 33.7851 13.9785 33.6768 13.2754C33.5905 12.7167 33.6049 12.6825 33.7907 13.0037C33.9075 13.2057 33.9988 13.8673 33.9936 14.4738C33.9855 15.4202 34.0199 15.5441 34.2372 15.3475C34.668 14.9578 34.9875 14.1045 34.9875 13.3433C34.9875 11.8908 33.8298 10.5346 31.8019 9.61187C31.1599 9.31977 31.1355 9.32147 31.2708 9.64926ZM49.8031 12.2678C49.5172 12.4276 49.1859 12.6981 49.0667 12.8692C48.8081 13.2408 48.7716 14.3163 49.0233 14.1468C49.1187 14.0826 49.1966 14.1626 49.1966 14.3245C49.1966 14.7023 49.7031 14.7023 50.198 14.3247C50.4101 14.1628 50.6808 14.0915 50.7998 14.166C50.9187 14.2406 50.9599 14.234 50.8913 14.1511C50.7569 13.9891 51.3271 12.9804 51.7785 12.5816C52.0211 12.3671 52.0232 12.3167 51.795 12.1596C51.4006 11.8879 50.3846 11.9432 49.8031 12.2678ZM23.4882 13.2995C22.6721 14.0803 22.3151 15.1523 22.309 16.8397C22.3063 17.6056 22.344 18.2761 22.3931 18.3295C22.4423 18.383 22.6372 18.258 22.8265 18.0518C23.0157 17.8456 23.6835 17.4102 24.3106 17.0841C24.9771 16.7374 25.6218 16.2395 25.8631 15.8854C26.3297 15.2002 26.7133 14.0928 26.5711 13.8418C26.3084 13.3787 24.7469 13.8809 24.0739 14.6453C23.7459 15.0178 23.7107 15.0286 23.8601 14.7112C24.1195 14.1596 24.6014 13.7295 25.3335 13.3962C26.2453 12.981 26.1313 12.7306 25.0299 12.7306C24.2238 12.7306 23.9944 12.8152 23.4882 13.2995ZM57.4703 12.9938C57.3033 13.1321 56.5736 13.3037 55.8487 13.3753C54.1398 13.5441 53.3136 13.9193 52.5716 14.8639C52.2403 15.2857 51.9691 15.687 51.9691 15.7553C51.9691 15.9987 52.8622 16.3182 53.5424 16.3182C53.9222 16.3182 54.5034 16.1951 54.8338 16.0446C55.6467 15.6745 55.5956 15.8435 54.7529 16.312C54.3779 16.5204 53.6957 16.7132 53.2367 16.7406C52.7778 16.768 52.4133 16.8715 52.4264 16.9708C52.4684 17.2831 53.5852 17.8288 54.1826 17.8288C54.8437 17.8288 55.9465 17.2642 56.4883 16.6485C56.9787 16.0913 58.034 13.71 58.034 13.1608C58.034 12.6721 57.9054 12.6339 57.4703 12.9938ZM39.4017 14.7812C38.6348 16.0441 38.6152 17.451 39.3544 18.2011C39.8892 18.7442 40.2634 18.7196 39.9936 18.1592C39.7951 17.747 39.7991 17.7442 40.1311 18.0648C40.6443 18.5605 40.8505 18.4696 40.985 17.6892C41.0695 17.1981 41.0139 16.724 40.8025 16.1315C40.6353 15.663 40.409 15.0035 40.2998 14.666C40.1905 14.3286 40.0434 14.0524 39.9727 14.0524C39.9022 14.0524 39.6452 14.3804 39.4017 14.7812ZM50.063 15.4842C49.8248 15.6283 49.2879 15.7474 48.8702 15.7489C48.4524 15.7504 47.8144 15.8484 47.4524 15.9666C46.6766 16.2198 45.4657 17.484 45.609 17.8911C45.7412 18.2663 46.9299 18.4634 47.539 18.2111C47.81 18.099 48.0706 18.0495 48.1183 18.1014C48.2542 18.2495 47.2798 18.6167 46.4652 18.7247C45.5525 18.8456 45.7132 19.179 46.8514 19.5263C47.5447 19.738 47.695 19.7202 48.4124 19.3418C49.338 18.8535 49.9558 18.0431 50.4224 16.7049C50.9478 15.1981 50.8856 14.9868 50.063 15.4842ZM34.9875 17.1192C34.9875 18.0633 35.0728 18.6328 35.2573 18.9196C35.6094 19.4676 35.7448 19.4491 35.9872 18.8201C36.1227 18.4687 36.1577 18.4381 36.0957 18.7257C36.0452 18.9593 36.0844 19.1505 36.1827 19.1505C36.4346 19.1505 36.7204 18.5084 36.7204 17.9423C36.7204 17.4515 35.8902 16.2648 35.3104 15.9268C35.0092 15.751 34.9875 15.8309 34.9875 17.1192ZM62.2638 16.123C62.1772 16.2149 61.5301 16.3762 60.8259 16.4812C59.7391 16.6434 59.4578 16.765 58.9631 17.2874C58.0948 18.2047 58.2411 18.5841 59.4632 18.5841C59.7573 18.5841 59.951 18.635 59.8938 18.6974C59.8366 18.7597 59.5117 18.8107 59.1719 18.8107C58.8319 18.8107 58.5538 18.8849 58.5538 18.9757C58.5538 19.1875 59.4882 19.717 59.8619 19.717C60.8237 19.717 61.9207 18.5323 62.4362 16.9368C62.6831 16.1732 62.5974 15.7691 62.2638 16.123ZM26.7133 16.5947C25.7802 17.068 25.5307 17.4511 26.1556 17.4511C26.3493 17.4511 26.5484 17.5671 26.5983 17.7087C26.6482 17.8505 27.0942 18.1891 27.5893 18.4611C28.2848 18.8435 28.6371 18.9294 29.1393 18.8397C29.4968 18.7757 29.7891 18.6441 29.7891 18.5469C29.7891 18.1706 29.4131 17.6349 28.9617 17.3679C28.7019 17.2144 28.5761 17.0852 28.6818 17.0811C28.7877 17.0769 29.1582 17.2833 29.5049 17.5399C30.1166 17.9921 30.1357 17.9946 30.1357 17.6198C30.1357 17.4071 29.9078 16.9849 29.6292 16.6813C28.9774 15.9712 27.9996 15.9421 26.7133 16.5947ZM60.2866 18.3952C60.1305 18.5051 60.109 18.5793 60.2331 18.5812C60.3466 18.5827 60.4877 18.4991 60.5466 18.3952C60.6795 18.1607 60.6195 18.1607 60.2866 18.3952ZM54.1506 18.9942C53.7778 19.0839 53.193 19.3469 52.851 19.5788L52.2291 20.0002L53.6403 20.1277C54.523 20.2076 55.3135 20.4009 55.7512 20.6443C56.7704 21.2109 56.7874 21.4379 55.7794 21.0206C54.7007 20.5739 53.4795 20.5678 52.5871 21.0048L51.9054 21.3384L52.5592 22.1271C53.5729 23.3497 54.721 23.8648 56.9285 24.0878C58.8742 24.2842 59.9382 24.6209 59.9427 25.0416C59.9448 25.2306 59.9806 25.2266 60.0981 25.0242C60.2811 24.7094 59.7853 23.0334 59.1718 21.8926C58.6549 20.9315 57.3365 19.5831 56.594 19.2559C55.7893 18.9013 54.9222 18.8084 54.1506 18.9942ZM24.618 21.1235C24.6667 22.1741 24.7743 22.6641 25.0436 23.0589C25.5496 23.8014 26.1672 24.1435 26.7253 23.991C27.2129 23.8576 27.3697 23.4934 26.9397 23.4934C26.8019 23.4934 26.5058 23.3023 26.2814 23.0686C26.057 22.8348 25.9941 22.7398 26.1417 22.8575C26.5404 23.1749 27.1057 23.328 27.4098 23.2007C27.6208 23.1126 27.6458 22.9645 27.526 22.5097C27.3198 21.7262 26.9128 21.2731 25.9254 20.7274C25.4683 20.4747 25.0505 20.1441 24.9972 19.9925C24.9438 19.841 24.822 19.717 24.7265 19.717C24.6201 19.717 24.578 20.2623 24.618 21.1235ZM32.0171 21.4685C31.5794 21.6894 30.3089 22.8265 30.3089 22.9972C30.3089 23.1932 31.4701 23.4934 32.2284 23.4934C32.9165 23.4934 33.117 23.4094 33.4154 22.9959C33.7669 22.5089 33.8917 21.9828 33.6557 21.9828C33.5904 21.9828 33.3376 22.1739 33.0939 22.4077C32.6668 22.8171 32.6623 22.8176 32.9679 22.4217C33.6167 21.5814 33.0061 20.9691 32.0171 21.4685ZM49.3699 23.3707C49.3699 23.8829 50.1547 25.1358 50.8475 25.7296C51.563 26.3429 51.0854 26.2188 50.2783 25.582C49.8917 25.2766 49.4342 24.7668 49.262 24.449C49.0895 24.1311 48.8774 23.8711 48.7906 23.8711C48.5269 23.8711 48.8357 25.439 49.2098 25.9992C49.4018 26.2872 49.5125 26.6048 49.4555 26.7052C49.3985 26.8057 49.4604 26.8425 49.5931 26.787C49.7257 26.7315 49.935 26.8184 50.058 26.98C50.6588 27.7689 53.0319 28.014 54.536 27.4426C55.1676 27.2028 55.2424 26.9709 54.7437 26.7985C54.5543 26.733 53.9177 26.0372 53.3292 25.2523C52.1804 23.7204 51.0287 22.9324 49.9331 22.9288C49.4571 22.9273 49.3699 22.9955 49.3699 23.3707ZM23.0803 24.5089L22.4416 25.1469L23.3328 25.2804C23.8228 25.3539 24.3758 25.3614 24.5614 25.2972C25.0285 25.1358 25.1583 24.2899 24.7525 24.0533C24.1985 23.7302 23.7332 23.8571 23.0803 24.5089ZM26.389 24.6233C25.8171 24.875 25.2838 26.2734 25.2838 27.521V28.5969L25.9336 28.1641C26.2911 27.9262 26.8156 27.604 27.0992 27.4485C27.6879 27.1259 28.4401 26.0153 28.3635 25.5821C28.2906 25.1688 27.7979 25.1173 27.1725 25.4571C26.7662 25.6781 26.683 25.6864 26.8317 25.4913C26.9397 25.3495 27.2647 25.1267 27.5539 24.996C27.9364 24.8235 28.0175 24.7158 27.8513 24.601C27.5633 24.402 26.8677 24.4126 26.389 24.6233ZM30.3089 25.7568C30.3089 25.8591 30.5723 26.0629 30.8943 26.2096C31.2162 26.3561 31.5366 26.5767 31.6065 26.6998C31.6822 26.8331 31.5193 26.8029 31.2031 26.6246C30.6059 26.2881 30.0334 26.2366 29.8808 26.5057C29.8246 26.6046 29.9175 27.0083 30.0871 27.4026C30.3181 27.9398 30.6309 28.2494 31.3334 28.6371C31.8491 28.9218 32.4143 29.2961 32.5897 29.4688C32.7649 29.6416 32.9139 29.7487 32.921 29.7066C32.9281 29.6644 32.9692 29.4207 33.0123 29.1648C33.1539 28.324 32.742 26.7517 32.2213 26.1441C31.8281 25.6856 31.5869 25.5704 31.0192 25.5704C30.6285 25.5704 30.3089 25.6543 30.3089 25.7568ZM46.4241 26.0548C46.4241 26.335 46.5865 26.8506 46.7849 27.2003C46.9831 27.55 47.1034 27.8363 47.0521 27.8363C47.0006 27.8363 46.7409 27.4328 46.4747 26.9394C45.998 26.0557 45.9901 26.0504 45.9341 26.5846C45.7644 28.2024 46.9403 29.2981 48.8832 29.3325C49.8246 29.3491 50.0204 29.1567 49.542 28.6847C49.3552 28.5006 48.9677 27.8969 48.6811 27.3435C48.1906 26.3963 47.7281 25.9832 46.814 25.676C46.4763 25.5625 46.4241 25.6131 46.4241 26.0548Z" fill="white"/>
<path d="M87.8794 24V13.8815H90.0188V22.2362H94.3567V24H87.8794ZM100.753 13.8815V24H99.5279V13.8815H100.753ZM106.619 24V13.8815H112.686V14.9684H107.844V18.3874H112.231V19.4743H107.844V24H106.619ZM118.193 24V13.8815H124.3V14.9684H119.418V18.3874H123.983V19.4743H119.418V22.9131H124.379V24H118.193ZM93.3685 33.7916C93.329 33.393 93.1594 33.0834 92.8596 32.8627C92.5599 32.642 92.1531 32.5317 91.6393 32.5317C91.2902 32.5317 90.9954 32.5811 90.7549 32.6799C90.5145 32.7754 90.33 32.9088 90.2016 33.0801C90.0764 33.2514 90.0138 33.4457 90.0138 33.6631C90.0072 33.8443 90.0451 34.0024 90.1274 34.1374C90.2131 34.2724 90.33 34.3894 90.4782 34.4882C90.6265 34.5837 90.7977 34.6677 90.9921 34.7402C91.1864 34.8093 91.3939 34.8686 91.6146 34.918L92.5237 35.1354C92.965 35.2342 93.3702 35.366 93.7391 35.5307C94.108 35.6954 94.4275 35.8979 94.6976 36.1384C94.9677 36.3788 95.1768 36.6621 95.325 36.9882C95.4766 37.3143 95.554 37.6881 95.5573 38.1097C95.554 38.7289 95.3959 39.2658 95.0829 39.7204C94.7733 40.1716 94.3254 40.5224 93.7391 40.7727C93.1561 41.0198 92.4529 41.1433 91.6294 41.1433C90.8126 41.1433 90.1011 41.0181 89.495 40.7678C88.8923 40.5175 88.4213 40.1469 88.082 39.6561C87.746 39.1621 87.5698 38.5511 87.5534 37.8231H89.6235C89.6466 38.1624 89.7437 38.4457 89.915 38.6729C90.0896 38.8969 90.3218 39.0665 90.6116 39.1818C90.9048 39.2938 91.2358 39.3498 91.6047 39.3498C91.967 39.3498 92.2816 39.2971 92.5484 39.1917C92.8185 39.0863 93.0276 38.9397 93.1758 38.752C93.3241 38.5642 93.3982 38.3485 93.3982 38.1048C93.3982 37.8775 93.3307 37.6865 93.1956 37.5316C93.0639 37.3768 92.8695 37.2451 92.6126 37.1364C92.359 37.0277 92.0477 36.9289 91.6788 36.84L90.5771 36.5633C89.724 36.3558 89.0504 36.0313 88.5563 35.59C88.0622 35.1486 87.8169 34.5541 87.8202 33.8064C87.8169 33.1937 87.9799 32.6585 88.3093 32.2007C88.642 31.7428 89.0981 31.3854 89.6778 31.1285C90.2576 30.8716 90.9163 30.7432 91.6541 30.7432C92.4051 30.7432 93.0606 30.8716 93.6205 31.1285C94.1837 31.3854 94.6218 31.7428 94.9347 32.2007C95.2476 32.6585 95.409 33.1888 95.4189 33.7916H93.3685ZM108.893 34.0435H107.668C107.595 33.6911 107.468 33.3815 107.287 33.1147C107.109 32.8479 106.892 32.6239 106.635 32.4427C106.381 32.2583 106.1 32.12 105.79 32.0277C105.481 31.9355 105.158 31.8894 104.822 31.8894C104.209 31.8894 103.654 32.0442 103.157 32.3538C102.663 32.6634 102.269 33.1196 101.976 33.7224C101.686 34.3251 101.541 35.0646 101.541 35.9407C101.541 36.8169 101.686 37.5563 101.976 38.1591C102.269 38.7619 102.663 39.2181 103.157 39.5277C103.654 39.8373 104.209 39.9921 104.822 39.9921C105.158 39.9921 105.481 39.946 105.79 39.8538C106.1 39.7615 106.381 39.6248 106.635 39.4437C106.892 39.2592 107.109 39.0336 107.287 38.7668C107.468 38.4967 107.595 38.1871 107.668 37.838H108.893C108.801 38.3551 108.633 38.8179 108.389 39.2263C108.145 39.6347 107.842 39.9822 107.48 40.2688C107.118 40.552 106.711 40.7678 106.26 40.916C105.812 41.0642 105.332 41.1383 104.822 41.1383C103.959 41.1383 103.191 40.9275 102.52 40.5059C101.848 40.0843 101.319 39.4849 100.934 38.7075C100.548 37.9302 100.355 37.0079 100.355 35.9407C100.355 34.8736 100.548 33.9513 100.934 33.174C101.319 32.3966 101.848 31.7972 102.52 31.3756C103.191 30.954 103.959 30.7432 104.822 30.7432C105.332 30.7432 105.812 30.8173 106.26 30.9655C106.711 31.1137 107.118 31.3311 107.48 31.6177C107.842 31.9009 108.145 32.2468 108.389 32.6552C108.633 33.0603 108.801 33.5231 108.893 34.0435ZM114.282 41V30.8815H117.701C118.491 30.8815 119.14 31.0165 119.647 31.2866C120.154 31.5534 120.53 31.9207 120.774 32.3884C121.017 32.8561 121.139 33.3881 121.139 33.9842C121.139 34.5804 121.017 35.1091 120.774 35.5702C120.53 36.0313 120.156 36.3936 119.652 36.6571C119.148 36.9174 118.504 37.0475 117.72 37.0475H114.954V35.9407H117.681C118.221 35.9407 118.656 35.8617 118.985 35.7036C119.318 35.5455 119.558 35.3215 119.706 35.0317C119.858 34.7385 119.934 34.3894 119.934 33.9842C119.934 33.5791 119.858 33.225 119.706 32.922C119.555 32.619 119.313 32.3851 118.98 32.2204C118.648 32.0524 118.208 31.9684 117.661 31.9684H115.507V41H114.282ZM119.044 36.4546L121.535 41H120.112L117.661 36.4546H119.044ZM127.815 30.8815V41H126.59V30.8815H127.815ZM133.68 41V30.8815H137.099C137.893 30.8815 138.542 31.0248 139.046 31.3113C139.553 31.5946 139.929 31.9783 140.172 32.4625C140.416 32.9467 140.538 33.4869 140.538 34.0831C140.538 34.6792 140.416 35.2211 140.172 35.7085C139.932 36.196 139.56 36.5847 139.056 36.8745C138.552 37.1611 137.906 37.3044 137.119 37.3044H134.669V36.2174H137.08C137.623 36.2174 138.059 36.1236 138.389 35.9358C138.718 35.7481 138.957 35.4944 139.105 35.1749C139.257 34.8522 139.333 34.4882 139.333 34.0831C139.333 33.6779 139.257 33.3156 139.105 32.9961C138.957 32.6766 138.717 32.4263 138.384 32.2451C138.051 32.0607 137.61 31.9684 137.06 31.9684H134.906V41H133.68ZM145.367 31.9684V30.8815H152.956V31.9684H149.774V41H148.549V31.9684H145.367Z" fill="white"/>
</svg>
