<svg width="87" height="87" viewBox="0 0 87 87" fill="none" xmlns="http://www.w3.org/2000/svg">
<path fill-rule="evenodd" clip-rule="evenodd" d="M20.5449 40.2886C19.9573 40.5633 17.4124 41.8776 18.7064 43.2529C20.165 44.8071 25.1424 47.2733 28.7438 47.7691C32.3459 48.2649 47.872 55.53 52.5903 58.6303C57.3072 61.7362 57.8226 63.0053 65.2012 63.147C72.577 63.2881 82.0122 64.7702 81.7559 63.4297C81.501 62.0886 81.8726 59.2603 82.0636 56.3753C82.1053 52.7467 83.1798 47.8942 83.3444 46.1801C83.6007 43.5008 82.315 42.7943 82.058 41.3121C81.7976 39.8345 79.9986 11.124 77.9392 9.57277C75.8797 8.0215 74.1662 9.43113 72.3637 6.89346C70.5606 4.35237 70.048 1.88325 66.4438 2.0249C62.8417 2.16369 58.8957 2.09686 56.9203 1.53198C54.9505 0.966536 49.5459 -1.14733 46.1994 0.822605C42.8529 2.8011 35.3055 6.61074 31.7041 10.3484C29.0522 13.1025 28.0464 14.9794 26.4538 15.7579C33.5816 16.7979 38.9945 21.9138 38.9945 28.0721C38.9945 28.1229 38.9917 28.1709 38.9917 28.2211C38.9917 28.272 38.9945 28.32 38.9945 28.3708C38.9945 35.1105 32.3487 40.5759 24.1533 40.5759C24.0783 40.5759 24.004 40.5736 23.9269 40.5736C23.881 40.5736 23.8345 40.5759 23.79 40.5759C22.6745 40.5765 21.5924 40.4748 20.5449 40.2886Z" fill="#B93534"/>
<path fill-rule="evenodd" clip-rule="evenodd" d="M28.7451 47.7697C25.1437 47.274 20.1656 44.8077 18.7077 43.2536C17.2476 41.7023 20.6622 40.2356 20.6622 40.2356C20.4219 40.1876 20.1823 40.1345 19.9461 40.0785C18.0659 39.6947 13.0815 38.8871 11.973 40.8221C10.6012 43.2216 9.94062 48.1404 8.42573 49.1005C6.91153 50.0629 5.19728 48.5117 3.3101 51.119C1.42291 53.7321 -0.328141 58.2425 0.0524916 59.936C2.93155 72.8579 34.0684 73.1218 41.399 80.3921C43.8857 82.8635 55.1227 88.9315 64.1293 86.3904C73.136 83.8528 80.3437 82.0182 80.4278 76.6567C80.516 71.2958 83.518 70.5196 85.4892 68.123C87.4632 65.7236 86.0886 61.9134 83.3457 60.5729C82.3538 60.0902 82.0461 58.4293 82.0649 56.3765C81.8739 59.2609 81.5016 62.0899 81.7572 63.4309C82.0135 64.772 72.5783 63.2893 65.2025 63.1482C57.8239 63.0066 57.3085 61.7375 52.5916 58.6315C47.8733 55.5307 32.3465 48.2649 28.7451 47.7697Z" fill="#E5E5E5"/>
<path fill-rule="evenodd" clip-rule="evenodd" d="M23.791 40.5765C32.1656 40.5765 38.9962 34.9592 38.9962 28.0727C38.9962 21.1862 32.1656 15.5688 23.791 15.5688C15.4164 15.5688 8.58447 21.1862 8.58447 28.0727C8.58447 34.9597 15.4164 40.5765 23.791 40.5765Z" fill="#E5E5E5"/>
<path d="M78.8153 58.7587C78.7737 58.0419 78.6472 57.3325 78.2972 56.6739C78.1902 56.4712 77.7915 56.5323 77.7394 56.7328C77.5616 57.4022 77.6088 58.0818 77.7068 58.7587C77.8096 59.4949 77.8561 60.2357 78.0867 60.9553C78.161 61.1901 78.5917 61.1924 78.666 60.9553C78.891 60.2334 78.8584 59.5 78.8153 58.7587Z" fill="#D67273"/>
<path d="M72.8679 56.6582C72.8519 56.52 72.6304 56.4926 72.5734 56.6262C72.1449 57.5669 72.2747 58.6361 72.297 59.6225C72.3039 59.8841 72.7866 59.8841 72.7908 59.6225C72.8165 58.6413 72.9749 57.6366 72.8679 56.6582Z" fill="#D67273"/>
<path d="M66.2982 55.3279C66.2399 55.1572 65.9766 55.1012 65.8245 55.2234C65.2695 55.6684 65.0431 56.4605 64.8382 57.058C64.602 57.7485 64.5277 58.4573 64.7069 59.1616C64.8333 59.6602 65.7314 59.4443 65.6266 58.9531C65.4842 58.2683 65.712 57.6257 65.9509 56.978C66.1461 56.4583 66.492 55.8774 66.2982 55.3279Z" fill="#D67273"/>
<path d="M60.6267 54.403C60.6455 54.2265 60.3905 54.1494 60.2322 54.2162C59.0167 54.7177 58.1241 56.0851 58.5041 57.1914C58.6819 57.714 59.5932 57.4901 59.4765 56.9727C59.3626 56.466 59.6772 56.016 60.0016 55.6076C60.3322 55.1941 60.5684 54.9033 60.6267 54.403Z" fill="#D67273"/>
<path d="M54.4452 48.6494C53.2067 48.8099 52.276 49.9237 51.5987 50.6993C50.9528 51.4407 50.1457 52.4591 50.2936 53.4135C50.3561 53.8002 51.0952 53.9732 51.2001 53.5151C51.398 52.6618 52.0099 51.8811 52.6219 51.1928C53.2908 50.4412 54.2375 49.8386 54.8049 49.0304C54.9536 48.8174 54.7063 48.6146 54.4452 48.6494Z" fill="#D67273"/>
<path d="M45.9781 47.4949C45.3433 47.2339 44.7182 47.7616 44.2931 48.1003C43.8749 48.4339 43.5047 48.8759 43.3651 49.3454C43.197 49.9132 44.1979 50.1319 44.4195 49.5853C44.5619 49.2386 44.9279 48.9668 45.2405 48.7246C45.5934 48.447 46.1712 48.2254 46.174 47.7725C46.1733 47.6628 46.099 47.5429 45.9781 47.4949Z" fill="#D67273"/>
<path d="M38.8449 43.7414C37.3022 43.9144 35.9957 44.8825 34.9295 45.7564C34.4231 46.1728 35.1983 46.8096 35.7067 46.399C36.7632 45.5536 38.1024 44.9968 39.1171 44.1246C39.3276 43.9436 39.1081 43.7117 38.8449 43.7414Z" fill="#D67273"/>
<path d="M29.0462 43.032C28.1321 42.891 27.1604 43.1497 26.2651 43.2908C25.6421 43.3867 25.9039 44.1812 26.527 44.0721C27.3806 43.9225 28.369 43.8585 29.1115 43.4587C29.3025 43.3576 29.3025 43.072 29.0462 43.032Z" fill="#D67273"/>
<path d="M75.6836 49.7476C75.6093 49.153 75.5725 48.5613 75.56 47.9639C75.5503 47.4361 75.644 46.8336 75.4461 46.3247C75.3975 46.1939 75.1773 46.1939 75.1287 46.3247C74.9307 46.8307 75.0279 47.439 75.0515 47.9639C75.08 48.5613 75.1384 49.1559 75.2363 49.7476C75.271 49.9767 75.7163 49.9847 75.6836 49.7476Z" fill="#D67273"/>
<path d="M70.2135 46.22C70.2322 46.0178 69.8801 45.9561 69.762 46.1189C69.1626 46.9665 69.1105 47.9426 69.1084 48.8999C69.1084 49.4516 70.1489 49.4516 70.1489 48.8999C70.1482 48.0066 70.1322 47.111 70.2135 46.22Z" fill="#D67273"/>
<path d="M64.3426 43.2825C63.4868 44.013 62.8596 44.9732 62.6561 45.975C62.5554 46.4685 63.4771 46.6707 63.5639 46.18C63.7431 45.1965 64.2099 44.3512 64.6739 43.4425C64.7531 43.2854 64.4711 43.1729 64.3426 43.2825Z" fill="#D67273"/>
<path d="M57.4445 39.2302C57.4216 39.1365 57.3125 39.0462 57.1979 39.0274C56.6402 38.9263 56.1644 39.369 55.8074 39.6677C55.3774 40.0246 55.0232 40.4696 54.7509 40.9174C54.4293 41.44 55.2774 41.8209 55.6858 41.3657C56.0262 40.9899 56.4249 40.6541 56.7944 40.2994C57.1042 40.0035 57.5612 39.654 57.4445 39.2302Z" fill="#D67273"/>
<path d="M50.4152 37.3773C49.4518 37.4681 48.794 38.3477 48.5509 39.0542C48.3689 39.5769 49.365 39.7979 49.5331 39.2781C49.7366 38.6407 50.4124 38.27 50.693 37.6783C50.7555 37.5429 50.5902 37.3585 50.4152 37.3773Z" fill="#D67273"/>
<path d="M43.1807 33.0798C42.3152 33.8874 42.0193 35.0098 42.0006 36.063C41.9908 36.6147 43.0313 36.6147 43.0424 36.063C43.0612 35.0869 43.5634 34.2021 43.6585 33.2426C43.6773 33.045 43.3362 32.933 43.1807 33.0798Z" fill="#D67273"/>
<path d="M76.1075 36.119C75.6664 35.3805 76.0616 34.5751 75.938 33.8046C75.9054 33.6047 75.6206 33.4505 75.4171 33.6287C74.5474 34.3861 74.5315 35.7083 75.1608 36.5719C75.5254 37.0728 76.4138 36.6336 76.1075 36.119Z" fill="#D67273"/>
<path d="M68.0586 33.3621C67.2744 33.9407 66.9695 34.786 67.1619 35.6285C67.3043 36.2499 68.508 35.9912 68.3191 35.3675C68.1441 34.7752 68.3774 34.1623 68.5226 33.5837C68.5823 33.3564 68.2705 33.2045 68.0586 33.3621Z" fill="#D67273"/>
<path d="M60.3074 31.9438C59.3211 32.1546 58.7543 32.9302 58.5397 33.7036C58.4091 34.1862 59.3155 34.3918 59.442 33.9092C59.617 33.2478 60.1581 32.7737 60.5505 32.2026C60.6408 32.066 60.4921 31.9033 60.3074 31.9438Z" fill="#D67273"/>
<path d="M50.6074 30.296C50.2087 30.5947 49.9683 30.9574 49.9586 31.4081C49.9461 31.8907 50.8609 31.8907 50.8692 31.4081C50.8803 31.0722 50.9317 30.7518 50.9706 30.4183C50.9929 30.256 50.731 30.2001 50.6074 30.296Z" fill="#D67273"/>
<path d="M33.3296 11.7989C32.5356 12.1936 31.8577 12.823 31.277 13.4147C30.9381 13.7609 31.55 14.1504 31.8674 13.7883C32.4057 13.1777 33.1288 12.6659 33.6025 12.0205C33.7053 11.8817 33.5018 11.7138 33.3296 11.7989Z" fill="#D67273"/>
<path d="M35.7727 13.5988C35.1052 13.6948 34.4891 13.9912 33.8202 14.1192C33.2506 14.226 33.5 14.9805 34.0647 14.8417C34.7781 14.6629 35.5949 14.3962 36.0193 13.8661C36.136 13.7188 35.9449 13.5748 35.7727 13.5988Z" fill="#D67273"/>
<path d="M40.8064 15.5901C40.041 15.561 39.3152 15.8969 38.6699 16.2064C37.9899 16.5314 37.3634 16.9421 36.8028 17.3927C36.2764 17.8142 37.0821 18.4757 37.6058 18.0541C38.1052 17.652 38.6477 17.3105 39.2429 17.0118C39.8507 16.7102 40.5494 16.516 41.0662 16.1025C41.3031 15.9106 41.1183 15.601 40.8064 15.5901Z" fill="#D67273"/>
<path d="M44.4114 23.3538C43.15 23.343 41.9505 23.6365 40.7093 23.7833C40.2481 23.8364 40.4432 24.4202 40.903 24.3613C42.1116 24.2014 43.2924 23.9615 44.46 23.6548C44.6614 23.6045 44.626 23.3538 44.4114 23.3538Z" fill="#D67273"/>
<path d="M47.0695 17.8881C46.634 17.7898 46.1902 18.0051 45.8082 18.1599C45.3511 18.341 44.8983 18.5169 44.4274 18.6797C43.6487 18.9493 44.1641 19.882 44.8726 19.541C45.3025 19.3331 45.738 19.1332 46.1846 18.9464C46.6118 18.7654 47.1084 18.6049 47.2994 18.2188C47.364 18.0828 47.2244 17.9229 47.0695 17.8881Z" fill="#D67273"/>
<path d="M43.8146 9.97033C43.3478 9.87951 42.8908 10.1274 42.5595 10.381C42.1907 10.666 41.9017 11.0447 41.6655 11.4097C41.3044 11.9694 42.3518 12.468 42.6935 11.9031C42.8616 11.6233 43.0554 11.3537 43.3027 11.1166C43.5646 10.8665 43.9118 10.634 44.0584 10.3222C44.1251 10.1811 43.9869 10.0052 43.8146 9.97033Z" fill="#D67273"/>
<path d="M40.0502 6.51265C38.802 6.71769 37.4823 7.51503 37.2066 8.57853C37.06 9.13827 38.1359 9.35417 38.2311 8.81042C38.3992 7.82631 39.5022 7.46934 40.3051 6.87191C40.5128 6.71769 40.2892 6.47267 40.0502 6.51265Z" fill="#D67273"/>
<path d="M49.5557 12.6095C49.3681 12.6255 49.1868 12.6627 49.0021 12.6895C48.843 12.6895 48.6944 12.7266 48.5256 12.7243C47.9803 12.7192 47.9935 13.4469 48.5256 13.4126C48.736 13.3989 48.9826 13.3726 49.1674 13.2818C49.2584 13.2395 49.3327 13.175 49.4209 13.127C49.5334 13.0682 49.6175 12.9882 49.7085 12.9111C49.8224 12.8094 49.7536 12.5907 49.5557 12.6095Z" fill="#D67273"/>
<path d="M54.4826 20.0879C53.7283 19.7201 52.7447 19.7652 51.9022 19.6321C51.3444 19.5441 51.1138 20.2478 51.6688 20.3278C52.5509 20.4586 53.5331 20.5808 54.4242 20.4586C54.6458 20.4294 54.6507 20.1707 54.4826 20.0879Z" fill="#D67273"/>
<path d="M57.1988 13.2095C56.2181 13.0284 55.1338 13.727 54.392 14.177C53.753 14.5666 54.3733 15.4542 55.0172 15.0623C55.4325 14.8087 55.8639 14.5849 56.307 14.369C56.7099 14.1719 57.1579 13.9691 57.41 13.6384C57.5295 13.4842 57.4197 13.2523 57.1988 13.2095Z" fill="#D67273"/>
<path d="M52.2506 6.71228C51.5178 6.95731 50.8517 7.32285 50.1557 7.62671C49.5264 7.90372 50.1786 8.67993 50.7746 8.28526C51.3754 7.88773 52.1367 7.54389 52.4652 6.93846C52.5194 6.83222 52.4222 6.65345 52.2506 6.71228Z" fill="#D67273"/>
<path d="M46.9813 2.86801C46.8785 2.87372 46.7667 2.87886 46.6709 2.90799C46.6083 2.92398 46.5542 2.94797 46.4986 2.97196C46.375 3.03079 46.5729 2.96168 46.3819 3.02851C46.3166 3.0525 46.2652 3.08676 46.2096 3.12675C46.1937 3.1376 46.0874 3.23355 46.1673 3.18272C45.9735 3.29981 45.9054 3.47287 45.82 3.64936C45.7193 3.8544 45.927 4.09429 46.1645 4.14741C46.4277 4.20624 46.6993 4.07773 46.7709 3.86469C46.8008 3.78415 46.832 3.70419 46.8674 3.6248C46.8716 3.59567 46.8785 3.56368 46.8813 3.53398C46.8973 3.50485 46.9327 3.42489 46.9369 3.40833C46.9369 3.40033 46.9369 3.39748 46.9369 3.39234C46.9397 3.38948 46.9424 3.3872 46.9494 3.3792C46.914 3.42204 46.982 3.35007 46.982 3.35007C47.0404 3.29638 47.0862 3.23527 47.1404 3.18215C47.2564 3.07306 47.1953 2.85202 46.9813 2.86801Z" fill="#D67273"/>
<path d="M55.2602 4.4809C54.899 4.39008 54.5072 4.39865 54.1968 4.21131C53.7842 3.96628 53.4015 4.64311 53.9238 4.74192C54.3537 4.82759 54.8344 4.83273 55.2602 4.72649C55.4095 4.6888 55.4095 4.51802 55.2602 4.4809Z" fill="#D67273"/>
<path d="M58.7253 9.02977C57.8828 8.82416 56.8964 9.13601 56.1317 9.42159C55.4739 9.66376 56.0477 10.5011 56.7054 10.2269C57.3986 9.94135 58.2822 9.88537 58.8559 9.4273C59.0143 9.30108 58.933 9.08004 58.7253 9.02977Z" fill="#D67273"/>
<path d="M62.1554 21.8716C61.3087 21.7277 60.5315 21.6768 59.7626 21.3113C59.1958 21.0394 58.6797 21.7671 59.25 22.0344C60.1335 22.4473 61.2795 22.77 62.2235 22.2983C62.4214 22.1994 62.4055 21.9144 62.1554 21.8716Z" fill="#D67273"/>
<path d="M72.9619 26.1397C72.509 26.6805 72.3812 27.3528 72.1944 27.9794C72.136 28.1741 72.4958 28.2564 72.5542 28.0622C72.7424 27.4413 72.9501 26.8279 73.1703 26.2122C73.2057 26.1077 73.0334 26.0574 72.9619 26.1397Z" fill="#D67273"/>
<path d="M79.1851 26.4198C79.1851 26.4112 79.1879 26.4038 79.1879 26.3981C79.1879 26.3929 79.192 26.3312 79.1851 26.337C79.2018 26.2861 79.199 26.233 79.1809 26.1822C79.1684 26.1559 79.1552 26.1291 79.1427 26.1051C79.1358 26.0965 79.133 26.0919 79.1267 26.0862C79.1108 26.0274 79.0913 25.9743 79.033 25.9314C78.9094 25.8406 78.7857 25.8943 78.676 25.9611C78.6162 25.98 78.5648 25.9983 78.5162 26.0382C78.485 26.0645 78.4565 26.0994 78.4363 26.1342L78.4162 26.1633C78.4676 26.1205 78.4572 26.1393 78.3752 26.2164C78.2967 26.3284 78.2543 26.4723 78.2641 26.6003C78.2898 26.955 78.6572 27.1389 79.0615 27.1097C79.299 27.0909 79.497 26.9578 79.497 26.7528C79.497 26.5774 79.3629 26.4678 79.1851 26.4198Z" fill="#D67273"/>
<path d="M66.7656 25.0335C66.5197 25.5293 66.3127 26.0416 66.1405 26.5579C66.0634 26.8007 66.526 26.9046 66.5975 26.6625C66.7496 26.1319 66.9309 25.6041 67.0059 25.0598C67.0247 24.9347 66.8115 24.9347 66.7656 25.0335Z" fill="#D67273"/>
<path d="M77.274 20.1627C77.0962 19.5972 77.1573 19.0215 76.8427 18.4829C76.7774 18.3709 76.5482 18.3709 76.4836 18.4829C76.1432 19.0643 76.139 19.7571 76.3953 20.3626C76.5863 20.8161 77.4206 20.6344 77.274 20.1627Z" fill="#D67273"/>
<path d="M70.7996 18.0377C70.6378 17.6345 70.6641 17.1233 70.3655 16.7709C70.2516 16.635 70.0342 16.635 69.9217 16.7709C69.5744 17.1816 69.6723 17.803 69.8307 18.2559C70.0085 18.7711 71.0038 18.5438 70.7996 18.0377Z" fill="#D67273"/>
<path d="M63.6217 15.3828C62.6111 15.3988 61.8422 16.3241 61.6387 17.0598C61.5081 17.5315 62.3874 17.7286 62.518 17.2597C62.7118 16.5669 63.3863 16.2573 63.86 15.7215C63.9829 15.5799 63.8148 15.38 63.6217 15.3828Z" fill="#D67273"/>
<path d="M66.2522 7.68559C65.0339 8.12025 63.9733 9.09065 64.099 10.2472C64.1657 10.8287 65.2805 10.8258 65.2062 10.2472C65.0853 9.32768 66.1467 8.72739 66.5669 7.94376C66.6641 7.7627 66.4703 7.60792 66.2522 7.68559Z" fill="#D67273"/>
<path d="M72.6551 12.3567C72.6663 12.3407 72.6753 12.3218 72.6781 12.3167C72.7107 12.2767 72.7267 12.2259 72.7552 12.1836C72.8503 12.0397 72.7295 11.89 72.5419 11.8769C72.4023 11.8689 72.2828 11.8855 72.1523 11.938C72.1335 11.946 72.03 11.9723 72.1009 11.9649C71.9744 11.9809 71.8744 12.0768 71.8022 12.1568C71.7925 12.1676 71.7862 12.1779 71.7765 12.1859C71.8293 12.1385 71.8119 12.1568 71.7251 12.2447C71.6626 12.3384 71.6397 12.4155 71.6272 12.5217C71.6133 12.6503 71.6396 12.7811 71.6994 12.9004C71.8064 13.1169 72.0384 13.266 72.3384 13.1991C72.6774 13.1215 72.7982 12.8153 72.6489 12.5697C72.6774 12.6148 72.6628 12.5829 72.6489 12.5537C72.6489 12.5406 72.6419 12.4978 72.6461 12.4846C72.6517 12.4127 72.635 12.4606 72.6287 12.4789C72.6287 12.4738 72.6329 12.4629 72.6399 12.4469C72.6503 12.4155 72.6524 12.3858 72.6551 12.3567Z" fill="#D67273"/>
<path d="M65.6821 5.57899C64.9389 5.53159 64.1964 5.55272 63.4518 5.53387C62.9197 5.52074 62.9197 6.22726 63.4518 6.21355C64.2429 6.19185 65.0729 6.20499 65.7759 5.864C65.9453 5.78461 65.8613 5.58985 65.6821 5.57899Z" fill="#D67273"/>
<path d="M58.0208 25.5112C57.3165 25.0925 56.4351 24.8737 55.5856 24.7618C53.8477 24.5356 51.996 24.7538 50.2936 25.0816C48.6314 25.4015 46.9832 25.8202 45.3474 26.228C44.4653 26.4467 43.5867 26.6837 42.7372 26.9796C42.2023 27.1664 41.4918 27.4086 41.1216 27.8061C40.6263 28.0003 40.1137 28.2139 39.7053 28.5017C39.6866 28.5149 39.6699 28.5286 39.6539 28.5446C38.8142 28.6405 38.8426 29.6269 38.6877 30.1604C38.5127 30.7498 38.3564 31.3256 38.214 31.9196C38.1356 32.2526 37.9279 32.7061 37.9689 33.0819C37.8793 33.1938 37.7924 33.3058 37.7153 33.4206C37.2513 34.0923 36.7165 34.7354 36.174 35.3642C35.6205 36.0119 35.0398 36.6362 34.3195 37.1668C33.6492 37.6597 32.8908 38.0624 32.1218 38.4439C31.4245 38.7929 30.8153 39.2515 30.1152 39.6005C29.9561 39.6805 29.7936 39.7502 29.6283 39.8113C29.1261 39.9392 28.6177 40.0432 28.1023 40.1311C26.6818 40.3739 25.2427 40.467 23.7965 40.5287C23.1506 40.5549 22.5025 40.4915 21.8538 40.4858C21.6246 40.4858 21.3981 40.475 21.1675 40.4618C21.0508 40.4567 20.93 40.4458 20.8105 40.4327C20.7334 40.4247 20.6938 40.4167 20.6751 40.4139C20.5869 40.3179 20.3563 40.3362 20.2979 40.4727C20.2014 40.6966 20.5473 40.7983 20.7418 40.8434C21.2426 40.9582 21.7413 40.9845 22.2337 41.1181C22.6553 41.2323 23.0763 41.278 23.4979 41.2832C23.9973 41.4591 24.4772 41.5208 25.0961 41.5019C25.9331 41.4808 26.7659 41.3049 27.5709 41.1261C28.3523 40.9559 29.1761 40.8142 29.9249 40.5532C30.2909 40.4247 30.641 40.2756 30.9855 40.1129C31.0299 40.0969 31.0793 40.0832 31.1237 40.0672C32.3649 39.6702 33.4777 38.99 34.5015 38.3023C35.0537 37.9316 35.5066 37.441 35.999 37.012C36.4304 36.6362 36.82 36.2255 37.1631 35.796C37.5459 35.3163 37.9202 34.8313 38.2633 34.3322C38.2786 34.3133 38.2918 34.2979 38.3057 34.279C38.6044 33.9032 38.8947 33.5457 39.1385 33.143C39.3594 32.7837 39.6747 32.3834 39.7518 31.9835C39.7644 31.9007 39.7449 31.8288 39.7032 31.7699C40.0436 30.9966 40.2999 30.1655 40.1186 29.3813C40.07 29.1654 40.1283 29.1226 40.3645 29.0055C40.702 28.8404 41.0688 28.6988 41.4188 28.5497C41.5585 28.4938 41.7009 28.4406 41.8474 28.3869C41.9058 28.3898 41.9627 28.3818 42.0211 28.3572C42.1419 28.3041 42.2614 28.2533 42.3822 28.2025C42.6344 28.1145 42.8886 28.0265 43.1268 27.9226C43.4616 27.8186 43.8089 27.7358 44.1527 27.6587C45.1349 27.432 46.1295 27.3229 47.1485 27.2749C48.3355 27.2218 49.6254 27.1121 50.7381 27.5256C51.5806 27.8403 52.469 28.5731 53.4442 28.4481C53.7984 28.4001 53.8172 28.0323 53.6352 27.8512C53.2851 27.5016 52.6489 27.3497 52.1731 27.1361C51.6904 26.9174 51.2069 26.7146 50.686 26.5684C49.5247 26.2434 48.0105 26.3445 46.8213 26.5073C47.907 26.2622 49.003 26.0515 50.0991 25.8327C51.6348 25.5232 53.199 25.3472 54.7764 25.4992C55.5648 25.5763 56.3364 25.7579 57.0227 26.0829C57.743 26.4244 58.1042 27.1121 58.8418 27.384C59.0113 27.4451 59.2273 27.4028 59.2759 27.2401C59.4954 26.4838 58.7043 25.9161 58.0208 25.5112Z" fill="#932528"/>
<path d="M21.6118 39.6752C21.1777 39.6141 20.7651 39.5684 20.3518 39.4462C19.8351 39.2942 19.3655 39.0464 18.8988 38.8145C18.7876 38.7585 18.6841 38.9024 18.798 38.9561C19.6149 39.3559 20.597 39.8785 21.5924 39.7877C21.6632 39.782 21.6931 39.6889 21.6118 39.6752Z" fill="#BCBCBC"/>
<path d="M24.3654 39.0914C23.607 38.8275 22.7575 38.7932 21.9928 38.5237C21.8649 38.4785 21.7496 38.6247 21.8788 38.6813C22.6047 38.9931 23.516 39.249 24.3398 39.2462C24.4564 39.2462 24.4606 39.1234 24.3654 39.0914Z" fill="#BCBCBC"/>
<path d="M27.8235 38.8059C27.0039 38.3769 25.9363 38.4004 25.3396 37.6858C25.2201 37.5362 24.9312 37.6727 25.0493 37.8246C25.6001 38.55 26.7642 38.9207 27.7679 38.9738C27.8818 38.9795 27.9117 38.8516 27.8235 38.8059Z" fill="#BCBCBC"/>
<path d="M31.1979 36.9369C30.2783 36.9427 29.4413 36.9958 28.7953 36.3475C28.5988 36.1505 28.2674 36.4303 28.455 36.6251C29.0843 37.2699 30.3679 37.6275 31.2674 37.1477C31.3799 37.0866 31.3375 36.9369 31.1979 36.9369Z" fill="#BCBCBC"/>
<path d="M34.3211 34.9754C33.4626 34.8394 32.5846 34.8714 31.715 34.8765C31.4003 34.8765 31.4003 35.2741 31.715 35.2769C32.5846 35.2792 33.4626 35.3118 34.3211 35.1753C34.4419 35.1564 34.4419 34.9971 34.3211 34.9754Z" fill="#BCBCBC"/>
<path d="M35.628 32.298C35.1571 32.354 34.6841 32.3859 34.2235 32.4876C33.9249 32.5539 34.0624 32.9514 34.35 32.8663C34.8098 32.7332 35.3647 32.7355 35.7475 32.4659C35.8503 32.3911 35.735 32.2848 35.628 32.298Z" fill="#BCBCBC"/>
<path d="M36.2427 30.7519C36.1503 30.7148 36.076 30.6931 35.9794 30.6851C35.8725 30.6743 35.769 30.6663 35.662 30.6588C35.3731 30.64 35.3731 31.0478 35.662 31.0267C35.7558 31.0215 35.8468 31.0135 35.9371 31.0055C36.0538 30.9947 36.1378 30.9764 36.242 30.9359C36.3253 30.9016 36.3254 30.7839 36.2427 30.7519Z" fill="#BCBCBC"/>
<path d="M37.2021 28.8164C37.1208 28.8164 37.1208 28.9209 37.2021 28.9209C37.284 28.9209 37.284 28.8164 37.2021 28.8164Z" fill="#BCBCBC"/>
<path d="M27.6044 19.5389C27.0397 19.3682 26.7022 19.4721 26.2778 19.8399C25.9902 20.093 25.7881 20.4208 25.6033 20.7304C25.4325 21.0182 25.2248 21.3461 25.2276 21.6739C25.2317 21.775 25.3769 21.8207 25.4637 21.7539C25.8923 21.426 26.0798 20.8423 26.3549 20.4237C26.5785 20.0878 27.0467 19.4955 27.5905 19.5761C27.619 19.5783 27.6301 19.5498 27.6044 19.5389Z" fill="#BCBCBC"/>
<path d="M24.9066 19.3204C23.9759 20.0771 23.1243 21.1332 23.0194 22.2367C23.0097 22.3355 23.1847 22.3704 23.2403 22.2875C23.5223 21.8529 23.7001 21.3731 23.9634 20.9305C24.2711 20.4078 24.6607 19.9389 25.1393 19.5123C25.2866 19.3843 25.0601 19.1976 24.9066 19.3204Z" fill="#BCBCBC"/>
<path d="M22.3689 18.8137C22.0376 19.3415 21.7556 19.8772 21.5035 20.4318C21.2416 21.0024 20.9131 21.6101 20.8005 22.2155C20.7846 22.3086 20.929 22.3726 20.9971 22.2824C21.3284 21.8449 21.4798 21.3091 21.666 20.8213C21.9119 20.1679 22.1772 19.5117 22.5287 18.8908C22.5766 18.8029 22.4245 18.7258 22.3689 18.8137Z" fill="#BCBCBC"/>
<path d="M14.2806 28.2726C13.6743 27.5587 13.1679 26.8921 12.9699 26.0171C12.9387 25.8812 12.6852 25.94 12.7137 26.0759C12.9026 26.9024 13.3402 27.8305 14.1765 28.3583C14.2376 28.3954 14.3216 28.3235 14.2806 28.2726Z" fill="#BCBCBC"/>
<path d="M14.1345 30.4001C13.7261 29.4057 12.9843 28.4913 12.4619 27.534C12.3897 27.4038 12.1105 27.4997 12.18 27.6328C12.6669 28.5952 13.1461 29.6747 13.9761 30.4749C14.0373 30.536 14.1672 30.4721 14.1345 30.4001Z" fill="#BCBCBC"/>
<path d="M12.7587 30.5201C12.135 29.8113 11.5189 29.0887 11.166 28.2566C11.075 28.0378 10.6506 28.1338 10.7444 28.3525C11.1271 29.2298 11.714 30.0563 12.6219 30.632C12.699 30.6828 12.817 30.584 12.7587 30.5201Z" fill="#BCBCBC"/>
<path d="M32.089 26.825C31.716 27.5155 31.1513 28.0833 30.6269 28.699C30.5873 28.7441 30.6665 28.8081 30.7207 28.7767C31.5048 28.3123 32.0432 27.6646 32.3877 26.929C32.4551 26.7873 32.164 26.6862 32.089 26.825Z" fill="#BCBCBC"/>
<path d="M30.4019 27.0833C29.7441 27.5877 28.6939 28.2137 28.5147 28.9847C28.5001 29.0561 28.5959 29.1498 28.6869 29.0915C29.0627 28.8545 29.3134 28.5152 29.6079 28.2114C29.9254 27.8835 30.2796 27.5745 30.6255 27.2678C30.7658 27.145 30.5512 26.9691 30.4019 27.0833Z" fill="#BCBCBC"/>
<path d="M27.6654 27.1719C27.2313 27.4147 26.5735 27.8116 26.6249 28.3051C26.6346 28.3822 26.7458 28.433 26.8187 28.3719C26.9882 28.228 27.0917 28.0464 27.2473 27.8973C27.4251 27.7242 27.6459 27.5883 27.8724 27.4598C28.087 27.3398 27.8863 27.0514 27.6654 27.1719Z" fill="#BCBCBC"/>
<path d="M23.3715 35.0762C23.3687 35.0071 23.2451 35.0071 23.2409 35.0762C23.2409 35.1271 23.2249 35.2019 23.2805 35.2362C23.3006 35.247 23.3159 35.247 23.3319 35.2362C23.3882 35.2019 23.3756 35.1271 23.3715 35.0762Z" fill="#BCBCBC"/>
<path d="M17.3043 36.6813C16.7049 36.6281 16.0332 36.852 15.4921 37.0548C15.2817 37.1319 15.438 37.3826 15.6415 37.3455C16.2062 37.2444 16.8827 37.1136 17.3606 36.8418C17.4467 36.7909 17.4085 36.6921 17.3043 36.6813Z" fill="#BCBCBC"/>
<path d="M15.043 35.9748C14.7228 36.0257 14.4783 36.1907 14.2456 36.3695C14.056 36.5134 14.3526 36.759 14.5277 36.6042C14.7228 36.4312 14.9465 36.2895 15.1507 36.1273C15.234 36.0605 15.1472 35.9617 15.043 35.9748Z" fill="#BCBCBC"/>
<path d="M11.2326 46.4125C10.2533 46.7992 9.96568 48.2436 10.5068 48.9501C10.579 49.0467 10.7686 48.985 10.7304 48.873C10.5977 48.4892 10.6492 48.0631 10.7533 47.6816C10.8756 47.2498 11.2229 46.93 11.4208 46.5296C11.466 46.4365 11.3208 46.3776 11.2326 46.4125Z" fill="#BCBCBC"/>
<path d="M12.4276 47.1483C11.7045 47.7452 11.6559 48.8144 11.6649 49.606C11.6691 49.7608 11.9539 49.7608 11.9594 49.606C11.9768 49.196 12.0289 48.7927 12.1345 48.3929C12.2456 47.9902 12.4748 47.6253 12.5985 47.2306C12.6248 47.1483 12.5026 47.0872 12.4276 47.1483Z" fill="#BCBCBC"/>
<path d="M13.8113 49.0948C13.2605 49.3484 13 50.1132 12.9854 50.593C12.9785 50.8066 13.38 50.8066 13.3869 50.593C13.3966 50.3051 13.4897 50.0544 13.646 49.7985C13.7738 49.5986 13.9634 49.4118 13.9961 49.1828C14.0065 49.1023 13.8828 49.0623 13.8113 49.0948Z" fill="#BCBCBC"/>
<path d="M15.5523 49.3557C14.7736 49.5288 14.7083 50.5523 14.848 51.0675C14.9133 51.3074 15.3592 51.2063 15.296 50.9664C15.2217 50.686 15.2265 50.4249 15.3286 50.1502C15.4154 49.9132 15.6558 49.7373 15.7169 49.4945C15.7398 49.4117 15.6558 49.334 15.5523 49.3557Z" fill="#BCBCBC"/>
<path d="M17.4059 51.3473C17.01 51.4912 16.935 51.8219 16.9093 52.1446C16.8892 52.3794 17.3691 52.3794 17.3504 52.1446C17.3434 52.0401 17.3316 51.939 17.3691 51.8374C17.4177 51.7071 17.5344 51.5952 17.5997 51.4672C17.6518 51.3684 17.4955 51.3125 17.4059 51.3473Z" fill="#BCBCBC"/>
<path d="M20.1398 53.459C20.1856 53.379 20.0911 53.3019 19.9946 53.3384C19.8994 53.3784 19.8251 53.4133 19.764 53.4852C19.7571 53.4938 19.7529 53.5012 19.7473 53.5092C19.7272 53.5463 19.7272 53.5492 19.7404 53.5224C19.7376 53.5281 19.7334 53.5332 19.7307 53.5383C19.7265 53.5492 19.7209 53.5566 19.7182 53.5675C19.7182 53.5675 19.714 53.5703 19.7112 53.576C19.6973 53.6 19.6855 53.6263 19.6716 53.6509C19.6202 53.7571 19.7515 53.8691 19.8751 53.8691C19.9988 53.8691 20.1314 53.7571 20.0772 53.6509C20.0675 53.632 20.0571 53.6132 20.0515 53.5949C20.0613 53.5789 20.0731 53.5652 20.0828 53.5521C20.1071 53.5252 20.121 53.4881 20.1398 53.459Z" fill="#BCBCBC"/>
<path d="M22.4518 54.043C22.2552 54.0612 22.1087 54.1201 21.9524 54.216C21.7774 54.3251 21.7232 54.5119 21.7093 54.6849C21.6864 54.9248 22.1733 54.9277 22.1622 54.6849C22.1524 54.4502 22.3386 54.3331 22.5164 54.1732C22.5657 54.1309 22.5372 54.035 22.4518 54.043Z" fill="#BCBCBC"/>
<path d="M24.5935 55.7116C24.6359 55.6368 24.5497 55.5705 24.4629 55.6025C24.3976 55.6265 24.3434 55.6505 24.292 55.6876C24.1552 55.7253 24.1385 55.8481 24.1295 55.9543C24.1198 56.0474 24.2302 56.1274 24.34 56.1274C24.4469 56.1274 24.5574 56.0474 24.5476 55.9543C24.5449 55.9063 24.5449 55.8584 24.5338 55.8132C24.5379 55.8104 24.5379 55.8081 24.5421 55.8052C24.5608 55.7755 24.5761 55.7436 24.5935 55.7116Z" fill="#BCBCBC"/>
<path d="M16.447 41.0382C16.0844 41.0353 15.7635 41.121 15.4579 41.2809C15.2245 41.4037 14.8133 41.6459 14.9585 41.9017C14.9773 41.9394 15.0287 41.9549 15.0724 41.9577C15.3245 41.9737 15.4711 41.7047 15.6274 41.5739C15.8427 41.398 16.1386 41.2649 16.447 41.2461C16.6054 41.2352 16.6081 41.041 16.447 41.0382Z" fill="#BCBCBC"/>
<path d="M16.2382 42.1553C15.9819 42.2221 15.7701 42.3255 15.609 42.5043C15.4409 42.691 15.4409 42.9206 15.518 43.1337C15.5409 43.1925 15.6388 43.1896 15.6617 43.1337C15.793 42.8058 15.891 42.5202 16.3153 42.3849C16.4834 42.3306 16.4195 42.1067 16.2382 42.1553Z" fill="#BCBCBC"/>
<path d="M16.2388 43.6528C16.0867 43.7864 16.061 43.9252 16.0777 44.1034C16.0804 44.1303 16.1249 44.1303 16.1249 44.1034C16.1388 43.9538 16.1777 43.8207 16.3069 43.7088C16.3527 43.6716 16.2805 43.6134 16.2388 43.6528Z" fill="#BCBCBC"/>
<path d="M16.7068 43.8954C16.604 43.9805 16.5033 44.0662 16.4123 44.1622C16.3185 44.2633 16.1914 44.3912 16.2074 44.5277C16.2144 44.5677 16.2602 44.5968 16.3081 44.5757C16.4408 44.5146 16.5089 44.3781 16.5971 44.2792C16.6783 44.1884 16.7763 44.1085 16.8728 44.0314C16.9763 43.9434 16.8138 43.808 16.7068 43.8954Z" fill="#BCBCBC"/>
<path d="M17.3531 45.1353C17.1642 45.3032 17.0427 45.6339 17.2205 45.8366C17.2663 45.8846 17.3413 45.8846 17.383 45.8366C17.5212 45.6796 17.4184 45.4768 17.5934 45.33C17.7428 45.2021 17.5025 45.0045 17.3531 45.1353Z" fill="#BCBCBC"/>
<path d="M5.36328 51.3579C4.68883 51.7954 3.88591 52.6642 3.96995 53.4135C3.97968 53.5095 4.13109 53.5575 4.19638 53.4672C4.42281 53.1468 4.54924 52.7847 4.76317 52.4591C4.99099 52.1153 5.30145 51.8114 5.58415 51.499C5.68764 51.3848 5.47719 51.2837 5.36328 51.3579Z" fill="#BCBCBC"/>
<path d="M5.56254 53.1682C5.35208 53.2533 5.20065 53.3812 5.07007 53.5411C4.94366 53.6959 4.74849 53.9786 4.85963 54.162C4.88533 54.2077 4.95616 54.2128 5.00478 54.1945C5.17982 54.122 5.23121 53.8981 5.309 53.7599C5.40138 53.5999 5.52781 53.4669 5.71188 53.3789C5.88135 53.3012 5.7348 53.0985 5.56254 53.1682Z" fill="#BCBCBC"/>
<path d="M6.22487 54.1817C5.87619 54.4776 5.53168 55.0693 5.92343 55.4372C5.96024 55.4743 6.05401 55.4583 6.06026 55.408C6.09012 55.2561 6.06304 55.1013 6.07276 54.9494C6.09291 54.7203 6.23946 54.5067 6.42283 54.3417C6.54369 54.2349 6.35198 54.0749 6.22487 54.1817Z" fill="#BCBCBC"/>
<path d="M7.26645 55.1063C7.26645 55.0212 7.09835 55.0212 7.10113 55.1063C7.10113 55.2874 7.06573 55.509 7.13657 55.682C7.15394 55.7192 7.21088 55.7192 7.22755 55.682C7.29909 55.509 7.26228 55.2879 7.26645 55.1063Z" fill="#BCBCBC"/>
<path d="M8.1066 55.4447C7.96421 55.5732 7.82181 55.8102 7.93155 55.9833C7.97392 56.053 8.10659 56.0501 8.15105 55.9833C8.19064 55.925 8.18091 55.8611 8.1948 55.7971C8.20938 55.7251 8.25453 55.6686 8.31704 55.6155C8.44693 55.5035 8.23509 55.3305 8.1066 55.4447Z" fill="#BCBCBC"/>
<path d="M13.8731 67.7084C13.2369 67.7593 12.7771 68.279 12.4715 68.6948C12.3152 68.9107 12.6951 69.0764 12.8702 68.8867C13.0355 68.7051 13.2147 68.5292 13.4112 68.3721C13.6189 68.2042 13.8356 68.0683 13.9732 67.8524C14.0093 67.7941 13.9655 67.701 13.8731 67.7084Z" fill="#BCBCBC"/>
<path d="M11.9605 67.7246C11.75 67.7514 11.5819 67.9245 11.4583 68.0576C11.3743 68.1484 11.309 68.2501 11.3062 68.3672C11.302 68.5459 11.6236 68.5402 11.6361 68.3672C11.6403 68.3163 11.7216 68.2392 11.7771 68.1912C11.8924 68.0839 12.0549 67.9753 12.0806 67.8257C12.0904 67.7589 12.039 67.7166 11.9605 67.7246Z" fill="#BCBCBC"/>
<path d="M9.92627 67.277C9.75401 67.2821 9.64427 67.3832 9.54633 67.4906C9.42686 67.6208 9.3845 67.7864 9.38241 67.9458C9.37547 68.1594 9.77694 68.1566 9.78389 67.9458C9.78666 67.8339 9.82347 67.7516 9.89085 67.6557C9.95891 67.5597 10.0471 67.4986 10.052 67.3809C10.0548 67.3244 9.99503 67.2741 9.92627 67.277Z" fill="#BCBCBC"/>
<path d="M9.12748 66.8129C9.12748 66.8106 9.13027 66.8078 9.13443 66.7998C9.15319 66.7678 9.16014 66.733 9.16848 66.6987C9.1914 66.6376 9.11707 66.5707 9.04206 66.5919C8.9594 66.6159 8.90106 66.645 8.8455 66.7038C8.83577 66.7118 8.8316 66.717 8.83577 66.717C8.81007 66.7352 8.78714 66.7569 8.77741 66.7861C8.7663 66.8152 8.76145 66.8449 8.76145 66.874C8.7545 67.0208 8.91355 67.1036 9.06775 67.1111C9.17194 67.1162 9.25738 67.0362 9.25738 66.9563C9.25738 66.8906 9.2018 66.8318 9.12748 66.8129Z" fill="#BCBCBC"/>
<path d="M6.15295 65.9621C6.03348 65.9621 5.85845 65.941 5.75148 65.9947C5.64729 66.0501 5.64729 66.1729 5.75148 66.2266C5.85845 66.2825 6.03348 66.2614 6.15295 66.2614C6.38633 66.2608 6.38633 65.9621 6.15295 65.9621Z" fill="#BCBCBC"/>
<path d="M37.5108 76.0963C37.5011 76.0614 37.4566 76.022 37.4129 76.0163C37.1635 75.9821 36.9885 76.1682 36.8732 76.3253C36.762 76.4801 36.7169 76.6909 36.8572 76.8428C36.9253 76.9176 37.0149 76.9576 37.1288 76.9336L37.233 76.9148C37.2753 76.9039 37.308 76.8691 37.308 76.8319C37.308 76.744 37.2851 76.688 37.2621 76.6052C37.2566 76.5789 37.308 76.5144 37.3233 76.4932C37.4101 76.3624 37.5455 76.2585 37.5108 76.0963Z" fill="#BCBCBC"/>
<path d="M36.2113 76.0215C35.9619 75.9735 35.7188 76.1705 35.6403 76.3516C35.6021 76.4481 35.6021 76.5521 35.6605 76.6395C35.7313 76.744 35.8285 76.7863 35.9591 76.824C36.1112 76.8691 36.2536 76.6795 36.1203 76.5943C36.0522 76.5487 35.9939 76.5035 36.0404 76.4344C36.0689 76.3836 36.1203 76.3465 36.1724 76.3088C36.2377 76.2631 36.2703 76.2237 36.3029 76.1568C36.33 76.1014 36.2745 76.0323 36.2113 76.0215Z" fill="#BCBCBC"/>
<path d="M35.7609 74.8003C35.4677 75.0059 35.3295 75.3977 35.3156 75.7045C35.3059 75.8855 35.6532 75.8855 35.6601 75.7045C35.6726 75.4035 35.9053 75.1527 35.9289 74.8568C35.9359 74.782 35.822 74.7575 35.7609 74.8003Z" fill="#BCBCBC"/>
<path d="M34.925 74.2222C34.4909 74.4221 34.4229 74.7608 34.4229 75.1389C34.4229 75.3628 34.841 75.3628 34.841 75.1389C34.841 74.851 34.9063 74.5946 35.0605 74.3336C35.1042 74.2622 35.016 74.1794 34.925 74.2222Z" fill="#BCBCBC"/>
<path d="M33.6011 73.9287C33.1183 73.9687 32.7217 74.3154 32.703 74.7152C32.6891 74.942 33.1155 74.9391 33.1274 74.7152C33.1343 74.5953 33.2225 74.4913 33.3121 74.3982C33.426 74.2863 33.5552 74.1823 33.6733 74.0704C33.7205 74.0218 33.6948 73.9202 33.6011 73.9287Z" fill="#BCBCBC"/>
<path d="M32.1966 72.9286C31.691 73.0462 31.3444 73.4432 31.3214 73.8698C31.3117 74.1017 31.7583 74.1017 31.7625 73.8698C31.7625 73.526 32.1001 73.3255 32.3335 73.0731C32.3974 73.0005 32.2904 72.9046 32.1966 72.9286Z" fill="#BCBCBC"/>
<path d="M30.3909 72.9529C30.2672 72.8998 30.1575 72.934 30.0804 73.0249C30.0151 73.0997 30.0151 73.2173 30.0109 73.3047C30.0012 73.4727 30.3381 73.4727 30.3298 73.3047C30.327 73.2807 30.327 73.2545 30.327 73.2276C30.3228 73.2145 30.327 73.1985 30.327 73.1854C30.327 73.1854 30.3298 73.1637 30.3298 73.1585C30.3298 73.1534 30.3353 73.1425 30.3353 73.1402C30.3353 73.1374 30.3381 73.1351 30.3423 73.1322C30.3534 73.1242 30.3652 73.114 30.3679 73.1111C30.3818 73.0974 30.3721 73.1031 30.3909 73.0951C30.4492 73.0626 30.4583 72.9849 30.3909 72.9529Z" fill="#BCBCBC"/>
<path d="M28.9139 72.3826C28.5707 72.5076 28.3443 72.7424 28.1394 72.9931C27.9713 73.201 27.7761 73.4729 27.7865 73.7288C27.7893 73.8676 28.0685 73.9099 28.0908 73.7636C28.1693 73.2867 28.6617 72.8572 29.0472 72.5242C29.1375 72.4437 29.0236 72.3426 28.9139 72.3826Z" fill="#BCBCBC"/>
<path d="M28.2185 71.3795C27.5948 71.7719 27.144 72.5178 26.8919 73.1204C26.8078 73.3203 27.1905 73.4032 27.2746 73.2084C27.5503 72.5927 28.1373 72.1072 28.4089 71.4995C28.4477 71.4172 28.3081 71.3241 28.2185 71.3795Z" fill="#BCBCBC"/>
<path d="M27.0304 69.8444C26.1281 70.3088 25.3995 70.9245 24.8424 71.6681C24.6987 71.8572 25.0647 72.0302 25.205 71.8412C25.7343 71.1347 26.4622 70.5721 27.1568 69.9803C27.2381 69.9112 27.1332 69.7936 27.0304 69.8444Z" fill="#BCBCBC"/>
<path d="M78.0566 76.7994C77.8135 77.2957 77.849 77.8874 77.7948 78.4129C77.758 78.7276 77.6836 79.0337 77.5642 79.3325C77.4218 79.6974 77.0905 79.967 76.9064 80.3109C76.8696 80.3805 76.9293 80.4816 77.0356 80.4496C78.5574 80.0019 78.2039 77.8583 78.3595 76.8319C78.3817 76.68 78.115 76.6771 78.0566 76.7994Z" fill="#BCBCBC"/>
<path d="M76.2621 78.7946C76.1384 79.0768 76.0002 79.3492 75.8377 79.6182C75.721 79.8153 75.5175 79.994 75.5063 80.2179C75.5063 80.3008 75.6147 80.3402 75.6953 80.3059C75.9585 80.202 76.0481 79.9329 76.1433 79.7222C76.2697 79.4315 76.3211 79.1225 76.3808 78.8209C76.3878 78.7569 76.2878 78.7329 76.2621 78.7946Z" fill="#BCBCBC"/>
<path d="M75.0225 79.7481C74.8405 79.9537 74.6627 80.1617 74.5203 80.3884C74.4175 80.5512 74.264 80.7779 74.364 80.9561C74.3828 80.9881 74.4356 80.9933 74.471 80.9801C74.662 80.8973 74.7071 80.6706 74.7884 80.5186C74.9148 80.2839 75.0517 80.06 75.2128 79.8412C75.2878 79.7373 75.1038 79.655 75.0225 79.7481Z" fill="#BCBCBC"/>
<path d="M73.8312 80.5695C73.652 80.7112 73.4999 80.8705 73.3484 81.031C73.2158 81.1698 72.9984 81.308 72.9727 81.4868C72.9657 81.5405 73.0338 81.5645 73.0824 81.5559C73.2859 81.5319 73.4096 81.3423 73.5235 81.2178C73.6797 81.0442 73.8277 80.8711 74.0062 80.7135C74.116 80.6175 73.9437 80.4764 73.8312 80.5695Z" fill="#BCBCBC"/>
<path d="M72.6073 80.7294C72.4163 80.9556 72.2246 81.1823 72.0391 81.4119C71.8558 81.6381 71.5696 81.9105 71.5835 82.1927C71.5863 82.2515 71.6703 82.3018 71.7384 82.2647C71.9975 82.1207 72.0996 81.8431 72.2447 81.6215C72.4239 81.3525 72.6247 81.0938 72.8254 80.8351C72.915 80.7214 72.6983 80.6203 72.6073 80.7294Z" fill="#BCBCBC"/>
<path d="M70.5454 81.5749C70.3446 81.9108 70.1328 82.2386 70.0883 82.6173C70.0814 82.6653 70.1626 82.6761 70.1911 82.639C70.4189 82.338 70.5738 82.0016 70.769 81.6817C70.844 81.5612 70.6204 81.4521 70.5454 81.5749Z" fill="#BCBCBC"/>
<path d="M63.8454 84.1101C63.5731 84.4431 63.2321 84.6967 62.8959 84.9794C62.8473 85.0165 62.8959 85.0731 62.9542 85.0645C63.4654 84.9903 63.8197 84.5528 64.0885 84.2278C64.1927 84.1021 63.9454 83.9873 63.8454 84.1101Z" fill="#BCBCBC"/>
<path d="M62.3657 84.0891C62.0614 84.217 61.7336 84.4221 61.6753 84.7185C61.6655 84.7694 61.7336 84.8116 61.7822 84.7716C61.892 84.6785 61.9732 84.5666 62.0844 84.4735C62.1927 84.3747 62.3365 84.3079 62.4789 84.2496C62.6081 84.1931 62.4955 84.0354 62.3657 84.0891Z" fill="#BCBCBC"/>
<path d="M81.7497 69.9773C81.2739 70.1481 80.8676 70.4708 80.4786 70.7478C80.1584 70.9746 79.5805 71.2442 79.4381 71.5823C79.4097 71.652 79.4868 71.7371 79.5778 71.7319C79.9994 71.7079 80.389 71.3081 80.6877 71.0894C81.0989 70.7878 81.5462 70.4817 81.8935 70.1293C81.9775 70.0413 81.8734 69.9322 81.7497 69.9773Z" fill="#BCBCBC"/>
<path d="M79.4773 70.5774C79.3092 70.8413 78.9737 70.9778 78.6959 71.1531C78.6514 71.1794 78.673 71.2439 78.7355 71.2302C79.1244 71.1394 79.4773 70.9772 79.6808 70.6733C79.7523 70.5643 79.5447 70.466 79.4773 70.5774Z" fill="#BCBCBC"/>
<path d="M78.2898 70.3561C78.021 70.5052 77.7862 70.6817 77.557 70.8656C77.3521 71.0306 76.9736 71.2146 76.8951 71.447C76.8722 71.5104 76.9319 71.5612 77.0062 71.5664C77.282 71.5881 77.5244 71.3425 77.7022 71.1957C77.9488 70.9935 78.1822 70.7799 78.4697 70.6125C78.66 70.5029 78.485 70.247 78.2898 70.3561Z" fill="#BCBCBC"/>
<path d="M76.759 70.1426C76.4902 70.3533 76.2054 70.5481 75.929 70.7503C75.7324 70.8942 75.4435 71.0941 75.4011 71.318C75.3941 71.358 75.4407 71.3957 75.4921 71.3746C75.7213 71.2672 75.9033 71.041 76.0957 70.8862C76.3603 70.6755 76.6423 70.4784 76.9055 70.2625C76.9993 70.1854 76.8569 70.0678 76.759 70.1426Z" fill="#BCBCBC"/>
<path d="M74.8558 70.412C74.594 70.6199 74.3161 70.8118 74.0203 70.9883C73.7994 71.1213 73.4681 71.2361 73.3396 71.4412C73.3139 71.4783 73.3423 71.5371 73.4021 71.532C73.6868 71.5137 73.9327 71.3138 74.1564 71.1773C74.4682 70.9883 74.7586 70.7826 75.0357 70.5559C75.149 70.4628 74.9739 70.3189 74.8558 70.412Z" fill="#BCBCBC"/>
<path d="M72.8472 70.508C72.3971 70.628 71.6886 70.7987 71.4268 71.1483C71.3782 71.2174 71.4594 71.2785 71.5393 71.2705C71.7741 71.2414 71.9678 71.1106 72.1686 71.0175C72.4089 70.9055 72.6652 70.8199 72.9271 70.7428C73.1021 70.6896 73.0313 70.46 72.8472 70.508Z" fill="#BCBCBC"/>
<path d="M70.963 70.7139C70.6852 70.823 70.3768 70.871 70.1205 71.0178C70.0837 71.0418 70.1038 71.0949 70.1531 71.0818C70.4546 71.0098 70.7553 70.9321 71.0373 70.8202C71.1255 70.7859 71.0512 70.6791 70.963 70.7139Z" fill="#BCBCBC"/>
<path d="M55.7793 69.1537C55.6168 69.3536 55.516 69.5615 55.3966 69.778C55.2771 69.9939 55.6654 70.1829 55.7862 69.9642C55.8543 69.8442 55.9154 69.7243 55.9474 69.5964C55.9543 69.5644 55.9613 69.4741 55.9613 69.4741C55.987 69.3964 56.0168 69.3222 56.0453 69.2474C56.1002 69.1109 55.8661 69.0469 55.7793 69.1537Z" fill="#BCBCBC"/>
<path d="M55.1286 68.9511C54.9439 69.0282 54.7744 69.1191 54.6549 69.2607C54.5479 69.3829 54.4611 69.6182 54.648 69.7165C54.6806 69.7319 54.7223 69.7319 54.7577 69.7165C54.8883 69.6525 54.8716 69.5246 54.9369 69.4258C55.014 69.3167 55.1731 69.2527 55.303 69.1967C55.5044 69.1139 55.3294 68.866 55.1286 68.9511Z" fill="#BCBCBC"/>
<path d="M54.3083 68.074C53.7547 68.2339 53.2123 68.5675 53.0831 69.0581C53.0706 69.1089 53.1372 69.1649 53.197 69.13C53.6283 68.8902 53.8999 68.5303 54.4084 68.3813C54.6438 68.3116 54.5459 68.0071 54.3083 68.074Z" fill="#BCBCBC"/>
<path d="M52.3897 67.9701C52.1751 68.0632 51.9744 68.1917 51.8278 68.3539C51.7111 68.479 51.5785 68.6789 51.707 68.8286C51.7396 68.8634 51.8091 68.8817 51.8507 68.8446C51.9473 68.7515 51.9903 68.6229 52.0744 68.5219C52.1869 68.3808 52.3758 68.2797 52.553 68.2026C52.7419 68.1226 52.5766 67.8901 52.3897 67.9701Z" fill="#BCBCBC"/>
<path d="M50.0727 68.0847C49.6511 68.0847 48.9343 68.0293 48.6155 68.3006C48.5613 68.3486 48.5814 68.4474 48.6682 68.4606C48.8947 68.4954 49.1162 68.4183 49.3427 68.3937C49.583 68.3675 49.8282 68.3697 50.0727 68.3697C50.295 68.3697 50.295 68.0847 50.0727 68.0847Z" fill="#BCBCBC"/>
<path d="M52.7198 61.0334C52.701 60.7695 52.2461 60.7695 52.2231 61.0334C52.2085 61.2196 52.2148 61.4332 52.0939 61.5988C51.9418 61.8141 52.3176 62.0649 52.5211 61.8707C52.7663 61.6331 52.7427 61.3241 52.7198 61.0334Z" fill="#BCBCBC"/>
<path d="M50.7759 59.9718C50.605 60.2488 50.2091 60.8142 50.5112 61.0969C50.5494 61.1318 50.6237 61.1289 50.6633 61.0969C50.8085 60.9719 50.7925 60.7748 50.8411 60.612C50.8925 60.4384 50.9877 60.2785 51.0815 60.1186C51.1815 59.9501 50.8835 59.8038 50.7759 59.9718Z" fill="#BCBCBC"/>
<path d="M49.403 59.3403C49.3933 59.8018 49.1835 60.1805 48.9758 60.5935C48.9501 60.6443 49.0272 60.6786 49.0765 60.6603C49.6016 60.4415 49.7017 59.7779 49.7114 59.3403C49.7149 59.1776 49.4072 59.1776 49.403 59.3403Z" fill="#BCBCBC"/>
<path d="M47.1618 58.5961C47.0548 58.8599 46.9638 59.1267 46.8687 59.3934C46.7874 59.6224 46.6811 59.8252 46.7277 60.0651C46.736 60.1211 46.8305 60.1319 46.8756 60.0976C47.0875 59.9269 47.1291 59.6973 47.2069 59.4705C47.2979 59.2043 47.3889 58.9376 47.4931 58.6709C47.5632 58.4978 47.2299 58.4259 47.1618 58.5961Z" fill="#BCBCBC"/>
<path d="M44.9535 58.6335C44.9563 58.8071 44.9438 58.9722 44.8507 59.1292C44.8306 59.1584 44.8251 59.1989 44.8507 59.2252C44.8591 59.2412 44.8737 59.252 44.8889 59.26C44.9334 59.284 44.9931 59.2732 45.0313 59.2463C45.2293 59.0973 45.239 58.8385 45.2432 58.6335C45.2446 58.4815 44.9466 58.4815 44.9535 58.6335Z" fill="#BCBCBC"/>
<path d="M43.1788 57.1328C43.1301 57.1385 43.0836 57.1465 43.0391 57.1597C43.0322 57.1619 43.0252 57.1619 43.0204 57.1648C43.0259 57.1648 43.0301 57.1619 43.0357 57.1619C42.9558 57.1619 42.9461 57.2528 43.003 57.2796C43.0002 57.2767 43.0002 57.2767 43.003 57.2796C43.0072 57.2796 43.0072 57.2796 43.01 57.2796C43.0141 57.2825 43.0141 57.2825 43.0211 57.2825L43.0364 57.2876C43.0822 57.3007 43.1274 57.3087 43.1801 57.3167C43.251 57.3247 43.3253 57.2927 43.3253 57.2231C43.3239 57.1568 43.2489 57.122 43.1788 57.1328Z" fill="#BCBCBC"/>
<path d="M43.0189 57.1646C42.989 57.1725 42.996 57.1668 43.0189 57.1646V57.1646Z" fill="#BCBCBC"/>
<path d="M84.8843 65.6824C84.735 65.4825 84.5828 65.2878 84.4474 65.0827C84.3849 64.9919 84.3265 64.896 84.2724 64.8C84.2578 64.7817 84.1716 64.5384 84.1286 64.6001C84.1841 64.5201 84.0487 64.4299 83.9702 64.5019C83.9348 64.531 83.9119 64.5578 83.8695 64.587C83.8084 64.6241 83.8042 64.6943 83.8181 64.7497C83.8924 65.1524 84.2098 65.5448 84.4856 65.8721C84.6537 66.072 85.0427 65.8932 84.8843 65.6824Z" fill="#BCBCBC"/>
<path d="M83.2031 65.5364C83.0795 65.3713 83.0378 65.1737 83.0121 64.9846C82.9864 64.8036 82.6836 64.7979 82.6648 64.9846C82.6322 65.3313 82.8114 66.027 83.3525 66.0613C83.4108 66.0641 83.465 66.0161 83.4622 65.971C83.4525 65.8082 83.3011 65.6717 83.2031 65.5364Z" fill="#BCBCBC"/>
<path d="M82.2567 66.1091C82.0331 65.9572 82.0206 65.7733 82.0109 65.5465C81.9997 65.3335 81.6177 65.3335 81.608 65.5465C81.5955 65.8584 81.615 66.2239 81.9998 66.3838C82.2047 66.4666 82.4547 66.2427 82.2567 66.1091Z" fill="#BCBCBC"/>
<path d="M80.0759 66.4848C79.8967 66.1912 79.7897 65.8742 79.7744 65.5464C79.7633 65.3413 79.3785 65.3413 79.3833 65.5464C79.3945 65.8873 79.4917 66.2049 79.6466 66.5191C79.7702 66.7646 79.9126 67.0925 80.2314 67.1987C80.3127 67.2256 80.3905 67.1587 80.3933 67.0976C80.403 66.8743 80.1953 66.6795 80.0759 66.4848Z" fill="#BCBCBC"/>
<path d="M78.9599 66.9033C78.7453 66.7143 78.7293 66.5007 78.7363 66.2528C78.7391 66.0557 78.3605 66.0557 78.3633 66.2528C78.373 66.5646 78.4119 66.9622 78.8696 67.0313C78.9599 67.0444 79.0273 66.9622 78.9599 66.9033Z" fill="#BCBCBC"/>
<path d="M76.6627 65.883C76.6057 65.8881 76.5474 65.8938 76.4918 65.8961C76.3751 65.9064 76.3751 66.0349 76.4918 66.0429C76.5474 66.0481 76.6057 66.0538 76.6627 66.0589C76.7995 66.0692 76.7995 65.8693 76.6627 65.883Z" fill="#BCBCBC"/>
<path d="M68.4558 65.0534C68.3579 65.1945 68.221 65.2882 68.0585 65.3761C67.9064 65.4612 67.7029 65.5121 67.6445 65.6668C67.6286 65.7125 67.6633 65.7548 67.7168 65.7685C67.9106 65.8245 68.128 65.6937 68.2836 65.6114C68.4774 65.5098 68.6406 65.363 68.7434 65.1951C68.8413 65.0346 68.5621 64.8986 68.4558 65.0534Z" fill="#BCBCBC"/>
<path d="M66.8591 64.9625C66.7153 65.091 66.6584 65.2612 66.5243 65.3949C66.5097 65.4103 66.5354 65.432 66.5542 65.4189C66.7105 65.3012 66.7619 65.1253 66.9084 65.0031C66.9362 64.9756 66.8876 64.9357 66.8591 64.9625Z" fill="#BCBCBC"/>
<path d="M66.1971 64.9469C66.0763 64.9469 65.9637 64.9446 65.847 64.96C65.8186 64.9623 65.8186 65.0029 65.847 65.0057C65.9637 65.0217 66.0763 65.0189 66.1971 65.0189C66.252 65.0189 66.252 64.9469 66.1971 64.9469Z" fill="#BCBCBC"/>
<path d="M28.3321 48.8309C28.0633 48.7293 27.6875 48.8629 27.45 48.9829C27.2652 49.0788 27.104 49.2707 27.309 49.4227C27.4284 49.5106 27.6181 49.4204 27.5924 49.305C27.6153 49.2942 27.6382 49.2862 27.6618 49.2787C27.7389 49.2467 27.8236 49.2199 27.9077 49.1936C28.0799 49.1377 28.2779 49.0845 28.3717 48.9429C28.3946 48.9052 28.3835 48.8492 28.3321 48.8309Z" fill="#BCBCBC"/>
<path d="M29.3123 49.5187C28.9678 49.5399 28.6275 49.5696 28.283 49.5724C28.0079 49.5724 28.0079 49.9237 28.283 49.9237C28.6858 49.9265 29.0873 49.9214 29.3901 49.6678C29.4505 49.617 29.4089 49.5136 29.3123 49.5187Z" fill="#BCBCBC"/>
<path d="M30.1931 50.1052C30.1292 50.0835 30.0736 50.0755 30.0055 50.0732C29.9472 50.0732 29.8847 50.0709 29.8263 50.0709C29.6673 50.0652 29.6673 50.276 29.8263 50.2731C29.8847 50.2708 29.9472 50.2708 30.0055 50.268C30.0736 50.2657 30.1292 50.2571 30.1931 50.236C30.2716 50.2114 30.2716 50.1292 30.1931 50.1052Z" fill="#BCBCBC"/>
<path d="M31.1991 50.2944C31.1706 50.2944 31.1706 50.3293 31.1991 50.3293C31.2276 50.3293 31.2276 50.2944 31.1991 50.2944Z" fill="#BCBCBC"/>
<path d="M63.2379 76.2832C63.1073 76.3095 62.9947 76.3123 62.8649 76.358C62.7065 76.4134 62.5606 76.4882 62.4169 76.5682C62.1675 76.7098 61.9314 76.8909 61.7681 77.1017C61.7299 77.1519 61.723 77.237 61.7681 77.2856C61.8119 77.3313 61.8376 77.3524 61.9022 77.3707C61.973 77.389 62.0661 77.3707 62.1182 77.3233C62.3071 77.1496 62.4814 76.9817 62.7148 76.8458C62.8058 76.7892 62.9058 76.7447 63.0093 76.699C63.1246 76.6482 63.2441 76.5682 63.3608 76.5231C63.5338 76.4614 63.4101 76.2455 63.2379 76.2832Z" fill="#BCBCBC"/>
<path d="M61.6183 76.0293C61.3169 76.2532 61.0092 76.4668 60.6973 76.6798C60.5647 76.7678 60.0298 77.002 60.266 77.1973C60.4938 77.3841 60.8536 77.0614 61.0231 76.9471C61.3294 76.7335 61.5899 76.4725 61.8587 76.2269C62.0073 76.0932 61.7809 75.9065 61.6183 76.0293Z" fill="#BCBCBC"/>
<path d="M59.8839 75.589C59.7145 75.725 59.5269 75.8426 59.3484 75.9706C59.1963 76.0797 59.1053 76.2236 59.0734 76.3892C59.0609 76.4635 59.1574 76.52 59.2324 76.4635C59.3588 76.3681 59.4985 76.2961 59.6283 76.1996C59.8062 76.0688 59.9944 75.954 60.1632 75.8186C60.3465 75.6724 60.0638 75.44 59.8839 75.589Z" fill="#BCBCBC"/>
<path d="M58.0409 74.867C57.8659 74.9389 57.6936 75.0269 57.5769 75.1605C57.479 75.2725 57.3664 75.5044 57.5088 75.6243C57.5741 75.6746 57.6679 75.6746 57.7297 75.6243C57.7978 75.5712 57.8096 75.4804 57.8353 75.4113C57.8839 75.2696 58.0819 75.1925 58.2284 75.1308C58.4403 75.04 58.2555 74.779 58.0409 74.867Z" fill="#BCBCBC"/>
<path d="M56.9333 75.2564C56.8124 75.2592 56.6929 75.2592 56.57 75.2615C56.4373 75.2638 56.281 75.2564 56.1755 75.3386C56.1199 75.3814 56.1199 75.4614 56.1755 75.5065C56.2734 75.5814 56.4047 75.5814 56.5311 75.5814C56.6638 75.5842 56.8013 75.5865 56.934 75.5865C57.1923 75.5894 57.1923 75.2535 56.9333 75.2564Z" fill="#BCBCBC"/>
<path d="M26.9926 63.6778C26.5842 63.4002 26.3876 63.0593 26.1598 62.6754C26.1015 62.5795 25.9334 62.6303 25.9306 62.7257C25.9195 63.1124 26.1272 63.4539 26.4133 63.7498C26.5585 63.8989 27.1788 64.4135 27.4469 64.2507C27.7969 64.0377 27.1621 63.7926 26.9926 63.6778Z" fill="#BCBCBC"/>
<path d="M29.0474 64.3792C28.8765 64.1262 28.5987 63.9394 28.3979 63.6966C28.177 63.4328 28.0305 63.1392 27.9228 62.8331C27.8645 62.6674 27.563 62.7371 27.6124 62.9022C27.7805 63.475 28.1743 64.3232 28.9446 64.494C29.0258 64.5123 29.0911 64.4374 29.0474 64.3792Z" fill="#BCBCBC"/>
<path d="M30.6001 64.6588C30.4806 64.4857 30.2882 64.3521 30.1688 64.1733C30.0451 63.9923 30.0125 63.7764 30.0069 63.5713C30.0028 63.3846 29.6458 63.3817 29.6499 63.5713C29.6555 64.0054 29.8694 64.6857 30.4855 64.7816C30.5703 64.7947 30.6487 64.7256 30.6001 64.6588Z" fill="#BCBCBC"/>
<path d="M31.6201 64.8027C31.4964 64.6559 31.3186 64.5491 31.2047 64.3949C31.088 64.2378 31.1234 64.0562 31.1887 63.8911C31.2526 63.7226 30.9297 63.6484 30.8644 63.8191C30.706 64.2566 30.9199 64.7947 31.5194 64.9146C31.5902 64.9283 31.6694 64.8615 31.6201 64.8027Z" fill="#BCBCBC"/>
<path d="M33.9958 65.2405C33.8992 65.1125 33.8805 64.9897 33.8805 64.8429C33.8805 64.7281 33.6617 64.7281 33.6659 64.8429C33.6659 64.9229 33.6589 65.0217 33.7082 65.0965C33.7638 65.1868 33.811 65.2485 33.9131 65.309C33.9645 65.3387 34.0298 65.2804 33.9958 65.2405Z" fill="#BCBCBC"/>
<path d="M29.1476 38.4409C28.9302 38.2781 28.5544 38.2489 28.2849 38.1661C28.1099 38.1102 27.9348 38.0542 27.764 37.9959C27.559 37.9291 27.3451 37.9 27.1437 37.828C27.1284 37.8223 27.1083 37.836 27.1249 37.8468C27.4625 38.073 27.7528 38.2598 28.1626 38.4037C28.4377 38.502 28.8301 38.6813 29.1288 38.5637C29.1844 38.5425 29.1906 38.4728 29.1476 38.4409Z" fill="#BCBCBC"/>
<path d="M30.0738 37.9561C29.8592 37.8842 29.614 37.8813 29.3931 37.8282C29.1111 37.7614 28.7742 37.6306 28.5464 37.4758C28.4908 37.4358 28.4137 37.4975 28.4651 37.5426C28.8354 37.8647 29.491 38.2726 30.0738 38.0944C30.1578 38.0681 30.1551 37.9853 30.0738 37.9561Z" fill="#BCBCBC"/>
<path d="M32.7744 36.7111C32.6049 36.5192 32.2777 36.5243 32.0145 36.4952C31.6227 36.4524 31.1921 36.4524 30.9129 36.1862C30.8476 36.1245 30.7177 36.2073 30.7733 36.2764C30.9712 36.5272 31.2956 36.658 31.6359 36.7408C31.9436 36.8128 32.4271 36.9407 32.7348 36.8339C32.7841 36.815 32.8028 36.7482 32.7744 36.7111Z" fill="#BCBCBC"/>
<path d="M32.8459 36.2444C32.7452 36.1593 32.5938 36.1193 32.4701 36.0605C32.3208 35.9908 32.1881 35.9035 32.0645 35.8046C31.9735 35.7327 31.8353 35.8469 31.9263 35.9189C32.0485 36.0177 32.1826 36.1028 32.3236 36.1805C32.4604 36.2547 32.6285 36.3478 32.7973 36.3455C32.8591 36.3432 32.8917 36.2821 32.8459 36.2444Z" fill="#BCBCBC"/>
<path d="M34.7856 34.4366C34.4709 34.3161 34.125 34.2602 33.8076 34.1379C33.5186 34.0283 33.2297 33.954 32.9123 33.9329C32.7817 33.9249 32.7511 34.1031 32.8796 34.1225C33.4603 34.1996 34.1674 34.7491 34.7668 34.5703C34.8314 34.5514 34.8641 34.4635 34.7856 34.4366Z" fill="#BCBCBC"/>
<path d="M35.4378 33.8792C35.3211 33.7861 35.1718 33.749 35.0294 33.6924C34.871 33.6256 34.7405 33.5274 34.6238 33.4177C34.4883 33.2898 34.2765 33.4743 34.4001 33.6045C34.6196 33.8335 35.035 34.1379 35.4177 34.0014C35.4732 33.9809 35.476 33.9118 35.4378 33.8792Z" fill="#BCBCBC"/>
<path d="M37.0413 31.6268C36.8892 31.5331 36.6926 31.5388 36.5106 31.536C36.264 31.5337 36.0182 31.544 35.7716 31.544C35.5868 31.544 35.5479 31.7679 35.7257 31.8078C36.0869 31.885 36.719 32.0237 37.042 31.8238C37.1295 31.7679 37.1295 31.6793 37.0413 31.6268Z" fill="#BCBCBC"/>
<path d="M26.5344 39.3474C26.4761 39.2332 26.3011 39.1961 26.1712 39.1424C25.9906 39.0653 25.8051 38.9985 25.6364 38.9054C25.5523 38.8597 25.4585 38.9636 25.5294 39.0173C25.6718 39.1235 25.8086 39.2412 25.9705 39.3314C26.1038 39.4085 26.308 39.5262 26.4768 39.4702C26.5414 39.4485 26.5629 39.4006 26.5344 39.3474Z" fill="#BCBCBC"/>
<path d="M25.6292 39.555C25.6132 39.5259 25.6076 39.4911 25.575 39.4642C25.5521 39.4454 25.5326 39.4242 25.5097 39.4054C25.4583 39.3523 25.4027 39.3071 25.3277 39.2746C25.2506 39.2397 25.1527 39.2586 25.1082 39.3226C25.0645 39.3814 25.0881 39.4694 25.1652 39.5042C25.2048 39.5196 25.202 39.5196 25.2319 39.5385C25.2346 39.5442 25.2958 39.5813 25.2701 39.5625C25.284 39.5733 25.2958 39.5813 25.3097 39.5893C25.3381 39.6104 25.3708 39.6293 25.4076 39.6481C25.4521 39.6721 25.5104 39.6641 25.5597 39.6567C25.6076 39.6481 25.65 39.595 25.6292 39.555Z" fill="#BCBCBC"/>
<path d="M23.1482 39.6352C22.9989 39.4565 22.7113 39.4593 22.5134 39.3314C22.4155 39.2703 22.2897 39.3662 22.3738 39.4462C22.5391 39.601 22.8148 39.7558 23.0739 39.742C23.1323 39.7398 23.1878 39.6832 23.1482 39.6352Z" fill="#BCBCBC"/>
<path d="M22.7749 39.9153C22.6881 39.8273 22.5575 39.7582 22.5186 39.6406C22.4998 39.5823 22.4206 39.5475 22.3505 39.5635C22.2595 39.5852 22.2338 39.6623 22.2692 39.7291C22.3477 39.873 22.5366 40.001 22.7304 40.0061C22.7908 40.0084 22.8075 39.9501 22.7749 39.9153Z" fill="#BCBCBC"/>
<path d="M19.0104 40.6108C18.8486 40.4641 18.511 40.6668 18.3797 40.7576C18.1908 40.8856 17.9088 41.1175 17.9019 41.3282C17.9019 41.4242 18.0158 41.4881 18.1227 41.467C18.3679 41.4168 18.5214 41.1523 18.6777 41.0004C18.7604 40.9153 18.8673 40.8507 18.9611 40.7736C19.0104 40.7336 19.0729 40.6674 19.0104 40.6108Z" fill="#BCBCBC"/>
<path d="M18.0431 40.483C17.8027 40.5766 17.5346 40.7577 17.4492 40.9707C17.4304 41.0164 17.4929 41.0667 17.5499 41.0507C17.7993 40.981 17.934 40.7548 18.1563 40.6457C18.2862 40.5846 18.1723 40.435 18.0431 40.483Z" fill="#BCBCBC"/>
<path d="M17.401 40.1576C17.3524 40.0907 17.2329 40.0565 17.1475 40.1045C17.0336 40.1656 16.9301 40.2375 16.837 40.3175C16.7391 40.3975 16.6092 40.5174 16.6689 40.6373C16.6905 40.6802 16.7273 40.707 16.7842 40.7093C16.9148 40.7122 16.9961 40.6294 17.0774 40.5545C17.1545 40.4854 17.2427 40.4214 17.3364 40.3678C17.417 40.3204 17.4552 40.2347 17.401 40.1576Z" fill="#BCBCBC"/>
<path d="M17.6853 42.9969C17.6401 42.9278 17.5262 42.8981 17.4422 42.8792C17.4123 42.8741 17.3838 42.8684 17.3581 42.8632C17.3651 42.8632 17.3157 42.8421 17.3185 42.8472C17.3157 42.8444 17.3088 42.8421 17.3046 42.8392C17.3345 42.8632 17.3046 42.8307 17.2991 42.8227C17.2852 42.7993 17.2692 42.7776 17.231 42.7536C17.1685 42.7136 17.0803 42.6999 17.0192 42.7536C16.8969 42.8604 16.9567 43.0254 17.0803 43.1185C17.213 43.2202 17.4533 43.2545 17.6158 43.1774C17.6922 43.1414 17.7269 43.0614 17.6853 42.9969Z" fill="#BCBCBC"/>
<path d="M18.3367 43.9193C18.2471 43.8182 18.1492 43.7645 18.0165 43.7062C17.87 43.6423 17.7317 43.5623 17.5921 43.4846C17.4713 43.4178 17.3261 43.5726 17.4358 43.6474C17.679 43.813 17.9512 44.0506 18.2916 44.0129C18.3367 44.0072 18.3666 43.949 18.3367 43.9193Z" fill="#BCBCBC"/>
<path d="M18.9365 44.517C18.7101 44.264 18.3503 44.1674 17.987 44.1035C17.705 44.0532 17.5855 44.4102 17.8675 44.4582C18.1989 44.5141 18.5065 44.6209 18.8427 44.6552C18.9247 44.6609 18.9858 44.5707 18.9365 44.517Z" fill="#BCBCBC"/>
<path d="M20.7303 45.6583C20.474 45.5355 20.208 45.5406 19.9204 45.5378C19.5759 45.5355 19.2356 45.5538 18.9084 45.6366C18.7105 45.6846 18.739 45.9564 18.9571 45.9404C19.2773 45.9136 19.5989 45.9113 19.9204 45.9165C20.208 45.9193 20.4713 45.9404 20.7303 45.8182C20.8047 45.7834 20.8019 45.6926 20.7303 45.6583Z" fill="#BCBCBC"/>
<path d="M21.9002 46.7354C21.2799 46.5269 20.5284 46.6046 19.8706 46.6068C19.6115 46.6068 19.6115 46.9375 19.8706 46.9375C20.5325 46.9404 21.2542 47.0312 21.9002 46.9027C22.0099 46.8816 21.987 46.7673 21.9002 46.7354Z" fill="#BCBCBC"/>
<path d="M23.1102 47.372C22.4587 47.1561 21.6773 47.468 21.0153 47.5291C20.7347 47.5554 20.7278 47.918 21.0153 47.8969C21.7002 47.8461 22.517 47.8089 23.14 47.5713C23.2567 47.5262 23.2012 47.404 23.1102 47.372Z" fill="#BCBCBC"/>
<path d="M61.5242 64.0485C61.336 64.1685 61.1353 64.2724 60.9206 64.3627C60.7268 64.4455 60.5192 64.5123 60.3629 64.6431C60.3205 64.6751 60.3372 64.7442 60.3983 64.7522C60.8852 64.827 61.3749 64.4426 61.7152 64.2033C61.8486 64.1102 61.6569 63.9634 61.5242 64.0485Z" fill="#BCBCBC"/>
<path d="M60.2977 64.131C60.1782 64.2058 60.0518 64.2749 59.9219 64.3389C59.7837 64.4057 59.6177 64.4531 59.5093 64.5548C59.4683 64.5948 59.4968 64.6507 59.5621 64.6536C59.7184 64.6644 59.8566 64.5948 59.9934 64.5359C60.1414 64.4668 60.2852 64.3897 60.4234 64.3069C60.5519 64.2292 60.4282 64.0539 60.2977 64.131Z" fill="#BCBCBC"/>
<path d="M59.3819 63.7926C59.0387 64.0245 58.6373 64.1656 58.2775 64.3735C58.2337 64.4003 58.2601 64.4534 58.3115 64.4454C58.7567 64.3683 59.1624 64.1256 59.5083 63.8937C59.5965 63.8349 59.4701 63.7315 59.3819 63.7926Z" fill="#BCBCBC"/>
<path d="M58.2857 63.2676C58.0169 63.4544 57.7648 63.6486 57.5154 63.8536C57.4737 63.8885 57.5154 63.9524 57.5737 63.9393C57.928 63.8456 58.2156 63.6834 58.5073 63.5018C58.7143 63.3716 58.4878 63.1288 58.2857 63.2676Z" fill="#BCBCBC"/>
<path d="M80.0492 73.0274C79.8311 73.2084 79.7561 73.454 79.6665 73.691C79.5755 73.9366 79.4032 74.2382 79.4685 74.4964C79.481 74.5495 79.5755 74.5843 79.6338 74.5495C79.886 74.3924 79.9256 74.1068 79.9811 73.8618C80.0395 73.5979 80.1166 73.3284 80.1492 73.0593C80.152 73.0165 80.0818 72.9982 80.0492 73.0274Z" fill="#BCBCBC"/>
<path d="M79.0104 73.649C78.9479 73.8169 78.8708 73.9797 78.7728 74.1368C78.6763 74.2967 78.5464 74.4275 78.488 74.5983C78.4721 74.6434 78.5304 74.6754 78.5762 74.6542C78.9617 74.484 79.1145 74.0203 79.225 73.697C79.2597 73.5822 79.052 73.5371 79.0104 73.649Z" fill="#BCBCBC"/>
<path d="M77.5454 74.0061C77.5086 74.0621 77.4829 74.1209 77.4531 74.1798C77.4218 74.2494 77.3892 74.3054 77.3892 74.3768C77.3892 74.4299 77.4635 74.4465 77.5086 74.4168C77.6225 74.342 77.6552 74.1952 77.7177 74.089C77.7746 73.9924 77.6003 73.9102 77.5454 74.0061Z" fill="#BCBCBC"/>
</svg>
