<svg width="39" height="503" viewBox="0 0 39 503" fill="none" xmlns="http://www.w3.org/2000/svg">
<path d="M22.6384 498.954C22.8632 499.459 22.6364 500.05 22.1319 500.275C21.6275 500.499 21.0363 500.273 20.8115 499.768L22.6384 498.954ZM4.22511 107.331L5.19874 107.102L4.22511 107.331ZM21.725 6.3667C22.5555 6.92368 22.5556 6.92355 22.5556 6.92358C22.5554 6.92383 22.5553 6.92404 22.555 6.92452C22.5543 6.92549 22.5532 6.92716 22.5516 6.92951C22.5485 6.93421 22.5435 6.94166 22.5368 6.95185C22.5233 6.97224 22.5026 7.00357 22.4751 7.04571C22.4201 7.13 22.3375 7.25753 22.2297 7.42722C22.0141 7.76661 21.6975 8.2746 21.298 8.94255C20.499 10.2785 19.3685 12.2539 18.0505 14.7995C15.4143 19.8916 12.0306 27.2606 9.05025 36.3533C3.08795 54.5437 -1.24722 79.591 5.19874 107.102L3.25147 107.559C-3.3027 79.5854 1.11207 54.1508 7.14974 35.7304C10.1694 26.5178 13.5982 19.0492 16.2744 13.88C17.6128 11.295 18.7635 9.28388 19.5816 7.91596C19.9907 7.23196 20.3167 6.70868 20.5416 6.35478C20.654 6.17782 20.7411 6.0432 20.8007 5.952C20.8305 5.9064 20.8533 5.87165 20.8691 5.8479C20.8769 5.83602 20.883 5.82688 20.8873 5.82052C20.8894 5.81733 20.891 5.81484 20.8922 5.81304C20.8928 5.81214 20.8934 5.81131 20.8937 5.81086C20.8941 5.8102 20.8945 5.80972 21.725 6.3667ZM5.19874 107.102C19.0163 166.076 61.3113 221.921 22.6531 317.818L20.7981 317.071C59.1408 221.956 17.2505 167.307 3.25147 107.559L5.19874 107.102ZM22.6531 317.818C3.48637 365.364 3.48239 410.656 8.27746 444.076C10.6748 460.784 14.2706 474.517 17.2651 484.068C18.7623 488.843 20.1089 492.572 21.0796 495.104C21.5649 496.37 21.9563 497.336 22.2255 497.984C22.3601 498.308 22.4641 498.552 22.5341 498.715C22.5691 498.796 22.5956 498.857 22.6131 498.897C22.6219 498.917 22.6284 498.932 22.6327 498.941C22.6348 498.946 22.6363 498.95 22.6373 498.952C22.6378 498.953 22.638 498.953 22.6383 498.954C22.6384 498.954 22.6384 498.954 21.725 499.361C20.8115 499.768 20.8112 499.768 20.8108 499.767C20.8104 499.766 20.8098 499.764 20.8092 499.763C20.8078 499.76 20.8058 499.755 20.8033 499.75C20.7982 499.738 20.7909 499.722 20.7813 499.7C20.7621 499.656 20.7339 499.591 20.6973 499.506C20.6239 499.336 20.5165 499.083 20.3785 498.751C20.1025 498.087 19.7043 497.103 19.2122 495.82C18.2278 493.253 16.8673 489.485 15.3567 484.667C12.3357 475.031 8.71283 461.192 6.29773 444.36C1.46798 410.698 1.46431 365.031 20.7981 317.071L22.6531 317.818Z" fill="#F3ECDA"/>
<ellipse cx="6.50002" cy="5.9123" rx="6.50002" ry="5.9123" transform="matrix(-1 0 0 1 28.7266 0)" fill="#E1683B"/>
<ellipse cx="6.50002" cy="5.9123" rx="6.50002" ry="5.9123" transform="matrix(-1 0 0 1 28.7266 154.629)" fill="#E1683B"/>
<ellipse cx="6.50002" cy="5.9123" rx="6.50002" ry="5.9123" transform="matrix(-1 0 0 1 28.7266 311.078)" fill="#E1683B"/>
<ellipse cx="6.50002" cy="5.9123" rx="6.50002" ry="5.9123" transform="matrix(-1 0 0 1 28.7266 491.175)" fill="#E1683B"/>
</svg>
