<svg width="39" height="553" viewBox="0 0 39 553" fill="none" xmlns="http://www.w3.org/2000/svg">
<path d="M22.6517 548.624C22.8591 549.136 22.6123 549.719 22.1005 549.927C21.5886 550.134 21.0056 549.887 20.7981 549.376L22.6517 548.624ZM4.2251 118L5.20313 117.792L4.2251 118ZM21.7249 7C22.5786 7.52076 22.5787 7.52064 22.5787 7.52072C22.5785 7.521 22.5783 7.52126 22.578 7.52182C22.5773 7.52294 22.5762 7.52481 22.5746 7.52744C22.5714 7.5327 22.5664 7.54099 22.5596 7.55229C22.546 7.5749 22.5252 7.60954 22.4975 7.65607C22.4423 7.74913 22.3595 7.88974 22.2514 8.07673C22.0353 8.45071 21.7182 9.01012 21.3182 9.74546C20.5181 11.2162 19.3863 13.3903 18.0671 16.1917C15.4284 21.7951 12.0416 29.9042 9.05829 39.9107C3.09025 59.9286 -1.252 87.5023 5.20313 117.792L3.24706 118.208C-3.2979 87.4977 1.10976 59.5714 7.14166 39.3393C10.1583 29.2208 13.584 21.0174 16.2577 15.3396C17.5948 12.5003 18.7443 10.2916 19.5613 8.7897C19.9699 8.03871 20.2954 7.46433 20.5197 7.0761C20.6319 6.88199 20.7188 6.7344 20.7781 6.63452C20.8078 6.58459 20.8306 6.54658 20.8462 6.52065C20.854 6.50769 20.86 6.49774 20.8642 6.49083C20.8663 6.48738 20.8679 6.48469 20.8691 6.48275C20.8697 6.48179 20.8702 6.48091 20.8705 6.48043C20.8709 6.47974 20.8712 6.47924 21.7249 7ZM5.20313 117.792C19.0359 182.699 61.2971 243.983 22.6644 349.344L20.7867 348.656C59.1548 244.017 17.2308 183.824 3.24706 118.208L5.20313 117.792ZM22.6644 349.344C3.48496 401.651 3.48103 451.48 8.27917 488.246C10.678 506.626 14.276 521.734 17.2725 532.241C18.7707 537.495 20.1183 541.598 21.09 544.384C21.5759 545.777 21.9677 546.84 22.2374 547.554C22.3722 547.911 22.4765 548.18 22.5467 548.359C22.5819 548.449 22.6084 548.516 22.6261 548.561C22.6349 548.583 22.6415 548.599 22.6458 548.61C22.6479 548.615 22.6495 548.619 22.6505 548.621C22.651 548.623 22.6513 548.623 22.6515 548.624C22.6517 548.624 22.6517 548.624 21.7249 549C20.7981 549.376 20.7978 549.375 20.7974 549.374C20.7971 549.373 20.7965 549.372 20.7958 549.37C20.7945 549.367 20.7926 549.362 20.79 549.356C20.785 549.343 20.7777 549.325 20.7682 549.301C20.7491 549.253 20.7211 549.182 20.6845 549.089C20.6114 548.902 20.5042 548.625 20.3665 548.261C20.091 547.532 19.6933 546.452 19.2016 545.042C18.2182 542.223 16.8588 538.083 15.3492 532.79C12.3302 522.204 8.70958 506.999 6.29598 488.504C1.46934 451.52 1.46572 401.349 20.7867 348.656L22.6644 349.344Z" fill="#3E4F3C"/>
<circle cx="6.5" cy="6.5" r="6.5" transform="matrix(-1 0 0 1 28.7246 0)" fill="#E1683B"/>
<circle cx="6.5" cy="6.5" r="6.5" transform="matrix(-1 0 0 1 28.7246 170)" fill="#E1683B"/>
<circle cx="6.5" cy="6.5" r="6.5" transform="matrix(-1 0 0 1 28.7246 342)" fill="#E1683B"/>
<circle cx="6.5" cy="6.5" r="6.5" transform="matrix(-1 0 0 1 28.7246 540)" fill="#E1683B"/>
</svg>
