<svg width="18" height="15" viewBox="0 0 18 15" fill="none" xmlns="http://www.w3.org/2000/svg">
<path d="M0 0.9375C0.0520833 0.364583 0.364583 0.0520833 0.9375 0H16.5625C17.1354 0.0520833 17.4479 0.364583 17.5 0.9375C17.4479 1.51042 17.1354 1.82292 16.5625 1.875H0.9375C0.364583 1.82292 0.0520833 1.51042 0 0.9375ZM0 7.1875C0.0520833 6.61458 0.364583 6.30208 0.9375 6.25H16.5625C17.1354 6.30208 17.4479 6.61458 17.5 7.1875C17.4479 7.76042 17.1354 8.07292 16.5625 8.125H0.9375C0.364583 8.07292 0.0520833 7.76042 0 7.1875ZM16.5625 14.375H0.9375C0.364583 14.3229 0.0520833 14.0104 0 13.4375C0.0520833 12.8646 0.364583 12.5521 0.9375 12.5H16.5625C17.1354 12.5521 17.4479 12.8646 17.5 13.4375C17.4479 14.0104 17.1354 14.3229 16.5625 14.375Z" fill="#30422E"/>
</svg>
