<svg width="47" height="2831" viewBox="0 0 47 2831" fill="none" xmlns="http://www.w3.org/2000/svg">
<path d="M26.7553 596.117C26.9668 596.627 26.7246 597.212 26.2144 597.424C25.7042 597.635 25.1192 597.393 24.9077 596.883L26.7553 596.117ZM10.0567 118L11.0347 117.792L10.0567 118ZM27.5571 349L28.5084 349.308L28.4954 349.348L28.4791 349.387L27.5571 349ZM27.5565 7C28.4102 7.52076 28.4102 7.52064 28.4102 7.52072C28.41 7.521 28.4099 7.52126 28.4095 7.52182C28.4088 7.52294 28.4077 7.52481 28.4061 7.52744C28.4029 7.5327 28.3979 7.54099 28.3911 7.55229C28.3775 7.5749 28.3567 7.60953 28.3291 7.65607C28.2738 7.74913 28.191 7.88974 28.083 8.07673C27.8669 8.45071 27.5498 9.01012 27.1497 9.74546C26.3496 11.2162 25.2179 13.3903 23.8987 16.1917C21.26 21.7951 17.8731 29.9042 14.8898 39.9107C8.92182 59.9286 4.57957 87.5023 11.0347 117.792L9.07863 118.208C2.53367 87.4977 6.94132 59.5714 12.9732 39.3393C15.9899 29.2208 19.4155 21.0174 22.0893 15.3396C23.4263 12.5003 24.5758 10.2916 25.3929 8.7897C25.8014 8.03871 26.1269 7.46433 26.3513 7.0761C26.4634 6.88199 26.5503 6.7344 26.6097 6.63453C26.6393 6.58459 26.6621 6.54658 26.6777 6.52065C26.6855 6.50769 26.6915 6.49774 26.6957 6.49083C26.6978 6.48738 26.6995 6.48469 26.7006 6.48275C26.7012 6.48179 26.7017 6.48091 26.702 6.48043C26.7025 6.47974 26.7028 6.47924 27.5565 7ZM11.0347 117.792C24.8813 182.763 62.6189 243.97 28.5084 349.308L26.6057 348.692C60.4971 244.03 23.0486 183.759 9.07863 118.208L11.0347 117.792ZM28.4791 349.387C2.31905 411.673 1.88206 473.356 7.99822 519.494C11.0559 542.559 15.7498 561.727 19.678 575.125C21.6419 581.823 23.4141 587.078 24.6939 590.655C25.3338 592.444 25.8506 593.813 26.2067 594.733C26.3848 595.193 26.5226 595.541 26.6156 595.773C26.6621 595.889 26.6974 595.976 26.7209 596.033C26.7326 596.062 26.7414 596.083 26.7472 596.097C26.7501 596.104 26.7522 596.109 26.7535 596.113C26.7542 596.114 26.7547 596.116 26.755 596.116C26.7553 596.117 26.7553 596.117 25.8315 596.5C24.9077 596.883 24.9074 596.882 24.9069 596.881C24.9064 596.88 24.9057 596.878 24.9049 596.876C24.9031 596.872 24.9007 596.866 24.8974 596.858C24.8909 596.842 24.8814 596.819 24.8689 596.788C24.844 596.727 24.8073 596.637 24.7593 596.517C24.6634 596.278 24.5225 595.922 24.3415 595.455C23.9795 594.519 23.4567 593.134 22.8108 591.329C21.519 587.719 19.7346 582.427 17.7588 575.688C13.8073 562.21 9.089 542.941 6.01556 519.756C-0.130444 473.394 0.295339 411.327 26.6351 348.613L28.4791 349.387Z" fill="#3E4F3C"/>
<circle cx="6.5" cy="6.5" r="6.5" transform="matrix(-1 0 0 1 34.5569 0)" fill="#E1683B"/>
<circle cx="6.5" cy="6.5" r="6.5" transform="matrix(-1 0 0 1 34.5569 170)" fill="#E1683B"/>
<circle cx="6.5" cy="6.5" r="6.5" transform="matrix(-1 0 0 1 34.5569 342)" fill="#E1683B"/>
<path d="M24.7683 1138.54C24.5151 1139.03 24.7077 1139.64 25.1985 1139.89C25.6893 1140.14 26.2925 1139.95 26.5457 1139.46L24.7683 1138.54ZM25.6567 785L26.5974 785.339L25.6567 785ZM25.657 954.5L24.7215 954.853L25.657 954.5ZM25.657 597C24.7959 597.509 24.7958 597.508 24.7958 597.508C24.796 597.509 24.7962 597.509 24.7967 597.51C24.7976 597.511 24.7991 597.514 24.8013 597.518C24.8056 597.525 24.8124 597.537 24.8217 597.553C24.8402 597.585 24.8685 597.634 24.9062 597.701C24.9814 597.834 25.094 598.035 25.2399 598.305C25.5318 598.844 25.9572 599.655 26.4854 600.731C27.542 602.883 29.0096 606.095 30.6424 610.319C33.908 618.766 37.8337 631.254 40.4517 647.382C45.6867 679.632 45.6976 726.46 24.7159 784.661L26.5974 785.339C47.7011 726.799 47.7121 679.627 42.4259 647.062C39.7833 630.783 35.8181 618.16 32.5079 609.598C30.8528 605.317 29.3614 602.05 28.2807 599.849C27.7404 598.749 27.3028 597.914 26.9987 597.353C26.8467 597.072 26.728 596.859 26.6466 596.715C26.6059 596.643 26.5745 596.589 26.5529 596.551C26.5421 596.533 26.5338 596.518 26.5279 596.508C26.525 596.503 26.5227 596.5 26.5211 596.497C26.5202 596.495 26.5195 596.494 26.5191 596.493C26.5184 596.492 26.518 596.491 25.657 597ZM24.7159 784.661C14.7938 812.184 7.71308 836.052 6.66684 862.398C5.62019 888.754 10.6141 917.515 24.7215 954.853L26.5924 954.147C12.552 916.985 7.63199 888.496 8.66526 862.477C9.69893 836.448 16.692 812.816 26.5974 785.339L24.7159 784.661ZM24.7215 954.853C44.7704 1007.92 44.7659 1053.87 39.7578 1086.54C37.2535 1102.87 33.4978 1115.89 30.3717 1124.82C28.8087 1129.28 27.4033 1132.72 26.3909 1135.04C25.8847 1136.2 25.4767 1137.08 25.1965 1137.67C25.0563 1137.96 24.9481 1138.18 24.8755 1138.33C24.8392 1138.4 24.8119 1138.46 24.7938 1138.49C24.7848 1138.51 24.7781 1138.52 24.7738 1138.53C24.7717 1138.53 24.7702 1138.54 24.7692 1138.54C24.7688 1138.54 24.7685 1138.54 24.7683 1138.54C24.7682 1138.54 24.7683 1138.54 25.657 1139C26.5457 1139.46 26.5461 1139.46 26.5466 1139.46C26.547 1139.46 26.5476 1139.45 26.5484 1139.45C26.5499 1139.45 26.552 1139.45 26.5547 1139.44C26.5602 1139.43 26.568 1139.41 26.5782 1139.39C26.5985 1139.35 26.6282 1139.3 26.6668 1139.22C26.744 1139.06 26.8569 1138.83 27.0016 1138.53C27.2912 1137.92 27.7084 1137.02 28.2239 1135.84C29.2548 1133.48 30.6787 1129.99 32.2593 1125.48C35.4204 1116.45 39.2093 1103.31 41.7348 1086.84C46.7862 1053.88 46.7818 1007.58 26.5924 954.147L24.7215 954.853Z" fill="#3E4F3C"/>
<circle cx="25.1582" cy="596.5" r="6.5" fill="#E1683B"/>
<circle cx="26.3301" cy="785.5" r="6.5" fill="#E1683B"/>
<circle cx="26.3301" cy="954.5" r="6.5" fill="#E1683B"/>
<path d="M26.3406 1713.91C26.668 1714.35 26.5728 1714.98 26.128 1715.31C25.6832 1715.63 25.0573 1715.54 24.7299 1715.09L26.3406 1713.91ZM25.5354 1327L24.5947 1327.34L25.5354 1327ZM25.5351 1525L26.4706 1525.35L26.455 1525.39L26.4359 1525.43L25.5351 1525ZM25.5352 1139C26.3962 1139.51 26.3963 1139.51 26.3963 1139.51C26.3961 1139.51 26.3959 1139.51 26.3954 1139.51C26.3945 1139.51 26.393 1139.51 26.3909 1139.52C26.3866 1139.53 26.3797 1139.54 26.3705 1139.55C26.3519 1139.58 26.3236 1139.63 26.286 1139.7C26.2107 1139.83 26.0981 1140.04 25.9522 1140.3C25.6604 1140.84 25.2349 1141.65 24.7067 1142.73C23.6502 1144.88 22.1825 1148.1 20.5497 1152.32C17.2841 1160.77 13.3584 1173.25 10.7404 1189.38C5.50538 1221.63 5.49452 1268.46 26.4762 1326.66L24.5947 1327.34C3.49106 1268.8 3.48006 1221.63 8.76624 1189.06C11.4088 1172.78 15.3741 1160.16 18.6842 1151.6C20.3393 1147.32 21.8308 1144.05 22.9114 1141.85C23.4517 1140.75 23.8893 1139.91 24.1934 1139.35C24.3454 1139.07 24.4641 1138.86 24.5455 1138.72C24.5862 1138.64 24.6176 1138.59 24.6392 1138.55C24.65 1138.53 24.6583 1138.52 24.6642 1138.51C24.6671 1138.5 24.6694 1138.5 24.6711 1138.5C24.6719 1138.5 24.6727 1138.49 24.6731 1138.49C24.6737 1138.49 24.6741 1138.49 25.5352 1139ZM26.4762 1326.66C46.3649 1381.83 54.7211 1450.58 26.4706 1525.35L24.5997 1524.65C52.6448 1450.42 44.3612 1382.17 24.5947 1327.34L26.4762 1326.66ZM26.4359 1525.43C-1.06426 1582.47 -1.04603 1629.62 5.81253 1662.48C9.24333 1678.92 14.3884 1691.8 18.6705 1700.55C20.8114 1704.93 22.7362 1708.28 24.1223 1710.53C24.8153 1711.65 25.3736 1712.5 25.7568 1713.07C25.9484 1713.35 26.0962 1713.56 26.1952 1713.7C26.2447 1713.77 26.2819 1713.83 26.3064 1713.86C26.3186 1713.88 26.3276 1713.89 26.3334 1713.9C26.3362 1713.9 26.3383 1713.9 26.3395 1713.91C26.3401 1713.91 26.3403 1713.91 26.3406 1713.91C26.3407 1713.91 26.3406 1713.91 25.5352 1714.5C24.7299 1715.09 24.7293 1715.09 24.7285 1715.09C24.728 1715.09 24.727 1715.09 24.7259 1715.09C24.7238 1715.08 24.7208 1715.08 24.717 1715.08C24.7094 1715.06 24.6986 1715.05 24.6845 1715.03C24.6563 1714.99 24.6152 1714.93 24.5619 1714.86C24.4554 1714.71 24.2999 1714.48 24.1007 1714.19C23.7022 1713.6 23.1283 1712.73 22.4197 1711.58C21.0024 1709.28 19.0457 1705.87 16.8738 1701.43C12.5302 1692.55 7.32445 1679.52 3.85471 1662.89C-3.08782 1629.63 -3.06962 1582.03 24.6344 1524.57L26.4359 1525.43Z" fill="#3E4F3C"/>
<circle cx="6.5" cy="6.5" r="6.5" transform="matrix(-1 0 0 1 32.832 1132)" fill="#E1683B"/>
<circle cx="6.5" cy="6.5" r="6.5" transform="matrix(-1 0 0 1 32.832 1320)" fill="#E1683B"/>
<circle cx="6.5" cy="6.5" r="6.5" transform="matrix(-1 0 0 1 32.832 1521)" fill="#E1683B"/>
<circle cx="6.5" cy="6.5" r="6.5" transform="matrix(-1 0 0 1 32.832 1706)" fill="#E1683B"/>
<path d="M24.6464 2275.51C24.3766 2275.99 24.5486 2276.6 25.0305 2276.87C25.5124 2277.14 26.1218 2276.97 26.3915 2276.49L24.6464 2275.51ZM26.643 1901L25.7023 1900.66L26.643 1901ZM25.519 2106L26.4544 2105.65L25.519 2106ZM26.6433 1713C25.7822 1713.51 25.7821 1713.51 25.7821 1713.51C25.7824 1713.51 25.7826 1713.51 25.783 1713.51C25.7839 1713.51 25.7854 1713.51 25.7876 1713.52C25.7919 1713.53 25.7987 1713.54 25.808 1713.55C25.8265 1713.58 25.8548 1713.63 25.8925 1713.7C25.9678 1713.83 26.0803 1714.04 26.2262 1714.3C26.5181 1714.84 26.9435 1715.65 27.4718 1716.73C28.5283 1718.88 29.996 1722.1 31.6288 1726.32C34.8943 1734.77 38.82 1747.25 41.4381 1763.38C46.6731 1795.63 46.6839 1842.46 25.7023 1900.66L27.5837 1901.34C48.6874 1842.8 48.6984 1795.63 43.4122 1763.06C40.7697 1746.78 36.8044 1734.16 33.4942 1725.6C31.8391 1721.32 30.3477 1718.05 29.2671 1715.85C28.7268 1714.75 28.2891 1713.91 27.985 1713.35C27.833 1713.07 27.7144 1712.86 27.6329 1712.72C27.5922 1712.64 27.5609 1712.59 27.5393 1712.55C27.5285 1712.53 27.5201 1712.52 27.5143 1712.51C27.5113 1712.5 27.509 1712.5 27.5074 1712.5C27.5066 1712.5 27.5058 1712.49 27.5054 1712.49C27.5048 1712.49 27.5043 1712.49 26.6433 1713ZM25.7023 1900.66C10.0921 1943.96 2.73282 1976.71 2.83179 2008C2.93077 2039.3 10.4902 2069.05 24.5835 2106.35L26.4544 2105.65C12.3999 2068.45 4.92968 2038.95 4.83178 2008C4.73386 1977.04 12.0105 1944.54 27.5837 1901.34L25.7023 1900.66ZM24.5835 2106.35C43.6896 2156.92 43.6817 2199.24 38.9126 2228.9C36.5275 2243.74 32.951 2255.41 29.9752 2263.36C28.4874 2267.34 27.1499 2270.38 26.1869 2272.43C25.7054 2273.46 25.3176 2274.23 25.0515 2274.75C24.9185 2275.01 24.8159 2275.2 24.7472 2275.33C24.7128 2275.39 24.687 2275.44 24.67 2275.47C24.6616 2275.48 24.6553 2275.5 24.6514 2275.5C24.6494 2275.51 24.648 2275.51 24.6472 2275.51C24.6467 2275.51 24.6466 2275.51 24.6464 2275.51C24.6463 2275.51 24.6464 2275.51 25.519 2276C26.3915 2276.49 26.3919 2276.49 26.3925 2276.49C26.3929 2276.49 26.3936 2276.48 26.3943 2276.48C26.3958 2276.48 26.3979 2276.48 26.4005 2276.47C26.4058 2276.46 26.4134 2276.45 26.4232 2276.43C26.4429 2276.4 26.4714 2276.34 26.5085 2276.27C26.5826 2276.14 26.6906 2275.93 26.8291 2275.66C27.106 2275.13 27.5046 2274.33 27.9969 2273.28C28.9813 2271.19 30.3403 2268.09 31.8484 2264.06C34.8647 2256 38.4786 2244.2 40.8872 2229.22C45.7053 2199.26 45.6974 2156.58 26.4544 2105.65L24.5835 2106.35Z" fill="#3E4F3C"/>
<circle cx="25.8477" cy="1712.5" r="6.5" fill="#E1683B"/>
<circle cx="26.3301" cy="1897.5" r="6.5" fill="#E1683B"/>
<circle cx="26.0195" cy="2106.5" r="6.5" fill="#E1683B"/>
<circle cx="26.3301" cy="2275.5" r="6.5" fill="#E1683B"/>
<path d="M27.2568 2825.01C27.5296 2825.49 27.3615 2826.1 26.8813 2826.37C26.4011 2826.64 25.7906 2826.47 25.5178 2825.99L27.2568 2825.01ZM26.3873 2486L27.328 2485.66L27.3368 2485.69L27.3443 2485.71L26.3873 2486ZM26.3873 2656.5L27.344 2656.79L27.3344 2656.82L27.3228 2656.85L26.3873 2656.5ZM25.263 2276C26.1786 2276.4 26.1786 2276.4 26.1785 2276.4C26.1782 2276.4 26.1779 2276.4 26.1774 2276.4C26.1764 2276.41 26.1747 2276.41 26.1725 2276.42C26.168 2276.43 26.1611 2276.44 26.1517 2276.46C26.1331 2276.51 26.1049 2276.57 26.0677 2276.66C25.9932 2276.84 25.8826 2277.1 25.7395 2277.45C25.4533 2278.16 25.0374 2279.21 24.522 2280.59C23.4912 2283.34 22.0625 2287.42 20.478 2292.68C17.3087 2303.21 13.5164 2318.46 11.0347 2337.35C6.07109 2375.14 6.35065 2427.47 27.328 2485.66L25.4466 2486.34C4.33861 2427.79 4.05605 2375.12 9.05169 2337.09C11.5495 2318.08 15.3672 2302.72 18.5629 2292.11C20.1609 2286.8 21.6036 2282.68 22.6484 2279.89C23.1709 2278.49 23.5939 2277.42 23.8871 2276.7C24.0338 2276.34 24.148 2276.07 24.226 2275.88C24.2649 2275.79 24.2949 2275.72 24.3153 2275.67C24.3255 2275.65 24.3333 2275.63 24.3387 2275.62C24.3414 2275.61 24.3435 2275.61 24.3449 2275.6C24.3457 2275.6 24.3463 2275.6 24.3467 2275.6C24.3471 2275.6 24.3475 2275.6 25.263 2276ZM27.3443 2485.71C39.9281 2527.2 45.643 2551.34 45.3282 2574.45C45.0134 2597.56 38.6701 2619.57 27.344 2656.79L25.4306 2656.21C36.7757 2618.93 43.0181 2597.19 43.3283 2574.42C43.6385 2551.66 38.0177 2527.8 25.4303 2486.29L27.3443 2485.71ZM27.3228 2656.85C8.21635 2707.42 8.22489 2749.49 12.9935 2778.9C15.3783 2793.61 18.9544 2805.15 21.9297 2813.01C23.4173 2816.94 24.7545 2819.95 25.7172 2821.97C26.1985 2822.98 26.5862 2823.75 26.8521 2824.25C26.9851 2824.51 27.0876 2824.7 27.1562 2824.82C27.1906 2824.89 27.2164 2824.93 27.2333 2824.96C27.2417 2824.98 27.2479 2824.99 27.2519 2825C27.2538 2825 27.2552 2825 27.2561 2825C27.2565 2825.01 27.2566 2825.01 27.2568 2825.01C27.2569 2825.01 27.2568 2825.01 26.3873 2825.5C25.5178 2825.99 25.5174 2825.99 25.5169 2825.99C25.5165 2825.99 25.5158 2825.99 25.515 2825.99C25.5135 2825.99 25.5114 2825.98 25.5088 2825.98C25.5035 2825.97 25.4959 2825.95 25.486 2825.94C25.4663 2825.9 25.4377 2825.85 25.4007 2825.78C25.3265 2825.65 25.2184 2825.45 25.0798 2825.18C24.8028 2824.65 24.404 2823.87 23.9116 2822.83C22.9268 2820.76 21.5677 2817.71 20.0592 2813.72C17.0425 2805.75 13.4281 2794.08 11.0193 2779.22C6.20063 2749.51 6.20917 2707.08 25.4518 2656.15L27.3228 2656.85Z" fill="#3E4F3C"/>
<circle cx="6.5" cy="6.5" r="6.5" transform="matrix(-1 0 0 1 32.5586 2269)" fill="#E1683B"/>
<circle cx="6.5" cy="6.5" r="6.5" transform="matrix(-1 0 0 1 32.5586 2480)" fill="#E1683B"/>
<circle cx="6.5" cy="6.5" r="6.5" transform="matrix(-1 0 0 1 32.5586 2649)" fill="#E1683B"/>
<circle cx="6.5" cy="6.5" r="6.5" transform="matrix(-1 0 0 1 32.5586 2818)" fill="#E1683B"/>
</svg>
