<svg width="41" height="38" viewBox="0 0 41 38" fill="none" xmlns="http://www.w3.org/2000/svg">
<circle cx="19" cy="19" r="18.25" fill="white" stroke="black" stroke-width="0.5"/>
<path d="M16.936 15.838C16.74 15.5207 16.4787 15.292 16.152 15.152C15.8253 15.0027 15.4847 14.928 15.13 14.928C14.8687 14.928 14.612 14.9607 14.36 15.026C14.108 15.0913 13.8793 15.1893 13.674 15.32C13.478 15.4507 13.3193 15.6233 13.198 15.838C13.0767 16.0527 13.016 16.3047 13.016 16.594C13.016 16.818 13.0487 17.0187 13.114 17.196C13.1887 17.364 13.3053 17.518 13.464 17.658C13.6227 17.798 13.8373 17.9287 14.108 18.05C14.3787 18.1713 14.71 18.2927 15.102 18.414C15.4847 18.5353 15.8533 18.666 16.208 18.806C16.572 18.946 16.8893 19.1233 17.16 19.338C17.44 19.5527 17.6593 19.8233 17.818 20.15C17.986 20.4673 18.07 20.8687 18.07 21.354C18.07 21.8487 17.972 22.278 17.776 22.642C17.58 23.006 17.3187 23.3093 16.992 23.552C16.6747 23.7853 16.306 23.958 15.886 24.07C15.466 24.1913 15.032 24.252 14.584 24.252C14.2947 24.252 14.0053 24.224 13.716 24.168C13.4267 24.1213 13.1467 24.0467 12.876 23.944C12.6147 23.832 12.3673 23.692 12.134 23.524C11.9007 23.3467 11.7 23.132 11.532 22.88L12.54 22.054C12.7547 22.418 13.0533 22.6933 13.436 22.88C13.8187 23.0667 14.2247 23.16 14.654 23.16C14.906 23.16 15.158 23.1227 15.41 23.048C15.6713 22.9733 15.9047 22.866 16.11 22.726C16.3153 22.5767 16.4833 22.3947 16.614 22.18C16.7447 21.9653 16.81 21.718 16.81 21.438C16.81 21.13 16.7587 20.8827 16.656 20.696C16.5533 20.5 16.3947 20.332 16.18 20.192C15.9653 20.052 15.6947 19.926 15.368 19.814C15.0413 19.702 14.6587 19.5713 14.22 19.422C13.8653 19.31 13.5387 19.184 13.24 19.044C12.9413 18.8947 12.68 18.7173 12.456 18.512C12.2413 18.2973 12.0687 18.0453 11.938 17.756C11.8167 17.4573 11.756 17.1027 11.756 16.692C11.756 16.216 11.8493 15.8007 12.036 15.446C12.2227 15.0913 12.4747 14.7973 12.792 14.564C13.1093 14.3213 13.4687 14.1393 13.87 14.018C14.2713 13.8967 14.6913 13.836 15.13 13.836C15.69 13.836 16.1987 13.9247 16.656 14.102C17.1227 14.27 17.538 14.5687 17.902 14.998L16.936 15.838ZM20.0113 14.088H22.9513C23.4086 14.088 23.8426 14.1347 24.2533 14.228C24.6733 14.312 25.042 14.4613 25.3593 14.676C25.686 14.8813 25.9426 15.1613 26.1293 15.516C26.3253 15.8613 26.4233 16.2907 26.4233 16.804C26.4233 17.3453 26.3206 17.7933 26.1153 18.148C25.91 18.5027 25.644 18.7827 25.3173 18.988C25 19.1933 24.65 19.338 24.2673 19.422C23.8846 19.506 23.5206 19.548 23.1753 19.548H21.1873V24H20.0113V14.088ZM21.1873 18.456H23.1753C23.7633 18.456 24.2393 18.3253 24.6033 18.064C24.9766 17.7933 25.1633 17.378 25.1633 16.818C25.1633 16.258 24.9766 15.8473 24.6033 15.586C24.2393 15.3153 23.7633 15.18 23.1753 15.18H21.1873V18.456Z" fill="#06152B"/>
</svg>
