<svg width="46" height="46" viewBox="0 0 46 46" fill="none" xmlns="http://www.w3.org/2000/svg">
<g id="Group 39961">
<g id="Group 39960">
<g id="Group 39913">
<circle id="Ellipse 360" cx="22.5167" cy="22.5167" r="22.5167" fill="#197065"/>
<path id="Vector" fill-rule="evenodd" clip-rule="evenodd" d="M21.8835 11.7254C21.6197 11.757 21.342 12.0455 21.299 12.3326C21.2814 12.4507 21.2819 12.6157 21.3002 12.6992C21.341 12.8857 21.5655 13.1497 21.7428 13.2199C21.8153 13.2486 22.2382 13.3057 22.6825 13.3469C23.6136 13.433 24.2034 13.5508 24.8852 13.7866C28.0121 14.8683 30.2488 17.5771 30.7334 20.8693C30.8287 21.5165 30.802 22.9421 30.6825 23.5948C30.4325 24.9586 29.8251 26.3283 28.9708 27.4538C28.5185 28.0498 28.5028 28.0811 28.503 28.3878C28.5034 28.8555 28.7926 29.1456 29.259 29.146C29.6694 29.1462 29.8573 28.9993 30.4076 28.2481C32.384 25.5501 32.9468 22.0671 31.9213 18.8801C30.8145 15.4404 27.9495 12.8024 24.4111 11.9652C23.6345 11.7815 22.3965 11.664 21.8835 11.7254ZM14.9718 14.5167C14.6904 14.7395 14.1295 15.3562 13.9333 15.6584C13.6087 16.1583 13.8828 16.8067 14.455 16.8927C14.8275 16.9487 14.9482 16.8749 15.5718 16.2094C16.2492 15.4866 16.3207 15.3674 16.2849 15.0199C16.2383 14.5672 15.9586 14.3303 15.4708 14.3303C15.2368 14.3303 15.1808 14.3512 14.9718 14.5167ZM21.77 17.1614C21.5855 17.2181 21.3344 17.5099 21.2984 17.7093C21.284 17.7891 21.2678 18.6204 21.2624 19.5566L21.2525 21.2587L19.4579 21.2827C17.8737 21.3039 17.6454 21.3165 17.5115 21.3899C17.3034 21.5039 17.1656 21.7131 17.1308 21.9679C17.0917 22.2536 17.1746 22.4829 17.3869 22.6766C17.5546 22.8294 17.5834 22.8377 18.0672 22.8715C18.3451 22.891 19.1809 22.9082 19.9245 22.9099L21.2764 22.9129V24.7039C21.2764 26.4822 21.2772 26.4959 21.3841 26.6533C21.594 26.9623 21.888 27.0851 22.2534 27.0164C22.4463 26.9802 22.6855 26.7961 22.7802 26.6112C22.8431 26.4882 22.8991 25.0633 22.9023 23.5003L22.9036 22.9129H24.1164C25.8714 22.9129 26.4648 22.8746 26.6482 22.7495C26.8834 22.589 26.9853 22.4143 27.0062 22.1357C27.0296 21.8227 26.9224 21.6028 26.6553 21.4161L26.4689 21.2859L24.6862 21.2843L22.9036 21.2827L22.9016 20.6234C22.9005 20.2608 22.8881 19.4463 22.8742 18.8134C22.8496 17.6975 22.8453 17.6572 22.7327 17.484C22.6688 17.3857 22.5655 17.2718 22.5029 17.2307C22.3598 17.1368 21.9702 17.0999 21.77 17.1614ZM12.5848 18.4976C12.3467 18.6059 12.2625 18.719 12.137 19.0988C11.8651 19.9221 11.6791 21.3944 11.7125 22.461C11.7278 22.949 11.7401 23.0087 11.8641 23.1965C12.1855 23.683 12.8593 23.6963 13.1834 23.2224C13.2857 23.0728 13.2964 22.9899 13.3357 22.0402C13.3862 20.8213 13.3914 20.7797 13.599 19.8901C13.7757 19.1337 13.7727 19.0246 13.5676 18.7361C13.4465 18.5657 13.1377 18.4079 12.9254 18.4079C12.8464 18.4079 12.6931 18.4483 12.5848 18.4976ZM13.1886 25.4888C12.893 25.6001 12.6622 25.9412 12.6622 26.2669C12.6622 26.6054 13.2977 27.7192 13.9729 28.564C14.3798 29.073 14.9231 29.6364 15.2859 29.9257C15.5489 30.1353 15.6284 30.173 15.8457 30.1911C16.401 30.2373 16.82 29.7551 16.6794 29.2319C16.6373 29.075 16.4946 28.8978 15.9958 28.3827C15.2495 27.6119 14.9774 27.2579 14.4329 26.349C14.0713 25.7454 14.0023 25.6579 13.8125 25.5621C13.6104 25.4599 13.3473 25.429 13.1886 25.4888ZM26.2536 29.8156C26.1878 29.8365 25.9724 29.9279 25.775 30.0188C24.601 30.5592 23.733 30.7624 22.3964 30.8095C21.4291 30.8436 20.7415 30.7796 19.9227 30.5793C19.2304 30.4099 18.9999 30.4037 18.7874 30.5486C18.5114 30.7368 18.4289 30.8921 18.4289 31.2234C18.4289 31.7575 18.6694 31.9466 19.6493 32.1828C20.5191 32.3925 20.8546 32.426 22.0661 32.4243C23.322 32.4224 23.7468 32.3733 24.6982 32.1201C25.6702 31.8613 26.8659 31.3625 27.0773 31.1276C27.621 30.5235 27.0234 29.5716 26.2536 29.8156Z" fill="white"/>
</g>
</g>
</g>
</svg>
