<svg width="532" height="386" viewBox="0 0 532 386" fill="none" xmlns="http://www.w3.org/2000/svg">
<path d="M32.4998 323.999C32.4998 323.999 49.6877 266.117 104.458 222.76C137 196.999 207.299 212.999 186 255.999C159.5 309.499 112 280.499 112 244.499C112 183.499 205.375 145.05 258 124C350.5 87 501 111.5 501 111.5" stroke="#B5B5B5" stroke-width="5" stroke-linecap="round" stroke-dasharray="10 10"/>
<g clip-path="url(#clip0_1121_324)">
<path d="M503.852 99.3563L499.697 124.574C499.656 124.83 499.685 125.092 499.782 125.332C499.878 125.572 500.039 125.781 500.245 125.937C500.452 126.093 500.697 126.189 500.954 126.216C501.212 126.243 501.471 126.199 501.706 126.089L521.996 116.481C522.837 116.083 523.044 114.824 522.375 114.176L506.24 98.5667C506.054 98.3862 505.822 98.2601 505.569 98.2021C505.316 98.1441 505.053 98.1565 504.806 98.2378C504.56 98.3192 504.341 98.4665 504.173 98.6637C504.004 98.8609 503.893 99.1004 503.852 99.3563Z" fill="#B5B5B5"/>
</g>
<defs>
<clipPath id="clip0_1121_324">
<rect width="34.0772" height="34.0772" fill="white" transform="translate(531.163 99.5391) rotate(99.3545)"/>
</clipPath>
</defs>
</svg>
