<svg width="30" height="30" viewBox="0 0 30 30" fill="none" xmlns="http://www.w3.org/2000/svg">
<path d="M5 23.75V6.25C5 5.58696 5.26339 4.95107 5.73223 4.48223C6.20107 4.01339 6.83696 3.75 7.5 3.75H24.25C24.4489 3.75 24.6397 3.82902 24.7803 3.96967C24.921 4.11032 25 4.30109 25 4.5V20.8925M7.5 21.25H25M7.5 26.25H25" stroke="white" stroke-width="1.875" stroke-linecap="round"/>
<path d="M7.5 26.25C6.83696 26.25 6.20107 25.9866 5.73223 25.5178C5.26339 25.0489 5 24.413 5 23.75C5 23.087 5.26339 22.4511 5.73223 21.9822C6.20107 21.5134 6.83696 21.25 7.5 21.25" stroke="white" stroke-width="1.875" stroke-linecap="round" stroke-linejoin="round"/>
<path d="M11.25 8.75H18.75" stroke="white" stroke-width="1.875" stroke-linecap="round"/>
</svg>
