<svg width="1920" height="1030" viewBox="0 0 1920 1030" fill="none" xmlns="http://www.w3.org/2000/svg">
<g clip-path="url(#clip0_813_845)">
<rect width="1920" height="1030" fill="#FFF7EA"/>
<rect x="1240" width="845" height="1030" rx="119" fill="#197065"/>
<circle cx="29.5294" cy="22.5294" r="7.52941" fill="#197065"/>
<circle cx="29.5294" cy="43.6114" r="7.52941" fill="#197065"/>
<circle cx="29.5294" cy="64.6954" r="7.52941" fill="#197065"/>
<circle cx="29.5294" cy="85.7755" r="7.52941" fill="#197065"/>
<circle cx="29.5294" cy="106.859" r="7.52941" fill="#197065"/>
<circle cx="29.5294" cy="127.942" r="7.52941" fill="#197065"/>
<circle cx="52.1175" cy="22.5294" r="7.52941" fill="#197065"/>
<circle cx="52.1175" cy="43.6114" r="7.52941" fill="#197065"/>
<circle cx="52.1175" cy="64.6954" r="7.52941" fill="#197065"/>
<circle cx="52.1175" cy="85.7755" r="7.52941" fill="#197065"/>
<circle cx="52.1175" cy="106.859" r="7.52941" fill="#197065"/>
<circle cx="52.1175" cy="127.942" r="7.52941" fill="#197065"/>
<circle cx="74.7059" cy="22.5294" r="7.52941" fill="#197065"/>
<circle cx="74.7059" cy="43.6114" r="7.52941" fill="#197065"/>
<circle cx="74.7059" cy="64.6954" r="7.52941" fill="#197065"/>
<circle cx="74.7059" cy="85.7755" r="7.52941" fill="#197065"/>
<circle cx="74.7059" cy="106.859" r="7.52941" fill="#197065"/>
<circle cx="74.7059" cy="127.942" r="7.52941" fill="#197065"/>
<circle cx="97.2941" cy="22.5294" r="7.52941" fill="#197065"/>
<circle cx="97.2941" cy="43.6114" r="7.52941" fill="#197065"/>
<circle cx="97.2941" cy="64.6954" r="7.52941" fill="#197065"/>
<circle cx="97.2941" cy="85.7755" r="7.52941" fill="#197065"/>
<circle cx="97.2941" cy="106.859" r="7.52941" fill="#197065"/>
<circle cx="97.2941" cy="127.942" r="7.52941" fill="#197065"/>
<circle cx="119.882" cy="22.5294" r="7.52941" fill="#197065"/>
<circle cx="119.882" cy="43.6114" r="7.52941" fill="#197065"/>
<circle cx="119.882" cy="64.6954" r="7.52941" fill="#197065"/>
<circle cx="119.882" cy="85.7755" r="7.52941" fill="#197065"/>
<circle cx="119.882" cy="106.859" r="7.52941" fill="#197065"/>
<circle cx="119.882" cy="127.942" r="7.52941" fill="#197065"/>
<circle cx="142.471" cy="22.5294" r="7.52941" fill="#197065"/>
<circle cx="142.471" cy="43.6114" r="7.52941" fill="#197065"/>
<circle cx="142.471" cy="64.6954" r="7.52941" fill="#197065"/>
<circle cx="142.471" cy="85.7755" r="7.52941" fill="#197065"/>
<circle cx="142.471" cy="106.859" r="7.52941" fill="#197065"/>
<circle cx="142.471" cy="127.942" r="7.52941" fill="#197065"/>
<circle cx="1779.53" cy="902.529" r="7.52941" fill="#FFF9F0"/>
<circle cx="1779.53" cy="923.611" r="7.52941" fill="#FFF9F0"/>
<circle cx="1779.53" cy="944.695" r="7.52941" fill="#FFF9F0"/>
<circle cx="1779.53" cy="965.776" r="7.52941" fill="#FFF9F0"/>
<circle cx="1779.53" cy="986.859" r="7.52941" fill="#FFF9F0"/>
<circle cx="1779.53" cy="1007.94" r="7.52941" fill="#FFF9F0"/>
<circle cx="1802.12" cy="902.529" r="7.52941" fill="#FFF9F0"/>
<circle cx="1802.12" cy="923.611" r="7.52941" fill="#FFF9F0"/>
<circle cx="1802.12" cy="944.695" r="7.52941" fill="#FFF9F0"/>
<circle cx="1802.12" cy="965.776" r="7.52941" fill="#FFF9F0"/>
<circle cx="1802.12" cy="986.859" r="7.52941" fill="#FFF9F0"/>
<circle cx="1802.12" cy="1007.94" r="7.52941" fill="#FFF9F0"/>
<circle cx="1824.71" cy="902.529" r="7.52941" fill="#FFF9F0"/>
<circle cx="1824.71" cy="923.611" r="7.52941" fill="#FFF9F0"/>
<circle cx="1824.71" cy="944.695" r="7.52941" fill="#FFF9F0"/>
<circle cx="1824.71" cy="965.776" r="7.52941" fill="#FFF9F0"/>
<circle cx="1824.71" cy="986.859" r="7.52941" fill="#FFF9F0"/>
<circle cx="1824.71" cy="1007.94" r="7.52941" fill="#FFF9F0"/>
<circle cx="1847.29" cy="902.529" r="7.52941" fill="#FFF9F0"/>
<circle cx="1847.29" cy="923.611" r="7.52941" fill="#FFF9F0"/>
<circle cx="1847.29" cy="944.695" r="7.52941" fill="#FFF9F0"/>
<circle cx="1847.29" cy="965.776" r="7.52941" fill="#FFF9F0"/>
<circle cx="1847.29" cy="986.859" r="7.52941" fill="#FFF9F0"/>
<circle cx="1847.29" cy="1007.94" r="7.52941" fill="#FFF9F0"/>
<circle cx="1869.88" cy="902.529" r="7.52941" fill="#FFF9F0"/>
<circle cx="1869.88" cy="923.611" r="7.52941" fill="#FFF9F0"/>
<circle cx="1869.88" cy="944.695" r="7.52941" fill="#FFF9F0"/>
<circle cx="1869.88" cy="965.776" r="7.52941" fill="#FFF9F0"/>
<circle cx="1869.88" cy="986.859" r="7.52941" fill="#FFF9F0"/>
<circle cx="1869.88" cy="1007.94" r="7.52941" fill="#FFF9F0"/>
<circle cx="1892.47" cy="902.529" r="7.52941" fill="#FFF9F0"/>
<circle cx="1892.47" cy="923.611" r="7.52941" fill="#FFF9F0"/>
<circle cx="1892.47" cy="944.695" r="7.52941" fill="#FFF9F0"/>
<circle cx="1892.47" cy="965.776" r="7.52941" fill="#FFF9F0"/>
<circle cx="1892.47" cy="986.859" r="7.52941" fill="#FFF9F0"/>
<circle cx="1892.47" cy="1007.94" r="7.52941" fill="#FFF9F0"/>
</g>
<defs>
<clipPath id="clip0_813_845">
<rect width="1920" height="1030" fill="white"/>
</clipPath>
</defs>
</svg>
