<svg width="1920" height="1030" viewBox="0 0 1920 1030" fill="none" xmlns="http://www.w3.org/2000/svg">
<g clip-path="url(#clip0_672_327)">
<rect width="1920" height="1030" fill="#FFF7EA"/>
<path d="M1172.5 39.2938C1176.18 23.4915 1186 0 1186 0H0V1030H1061.5L1060 1004.5V989.034L1061.5 972.313L1065 943.47L1075 859.03L1125 435.994L1154 194.379L1165 97.3985L1168 67.3011C1168 67.3011 1169.99 50.0827 1172.5 39.2938Z" fill="#197065" stroke="#197065"/>
<path fill-rule="evenodd" clip-rule="evenodd" d="M189.673 45.6417C189.673 46.1292 189.279 47.1493 188.555 48.5368C187.678 50.2177 187.417 50.949 187.346 51.9322C187.244 53.3432 187.609 55.0139 188.02 55.0139C188.354 55.0139 189.738 53.5902 190.115 52.8581C190.267 52.5621 190.512 51.8826 190.66 51.3481C190.902 50.4712 190.93 50.4412 190.948 51.0428C190.975 51.9782 190.497 53.4491 189.815 54.5286C189.497 55.0329 189.339 55.4454 189.465 55.4454C189.934 55.4454 190.924 54.7969 191.559 54.0728C193.304 52.0862 193.057 49.0257 190.911 46.0203C190.033 44.7918 189.673 44.6815 189.673 45.6417ZM214.049 45.8801C214.049 46.0966 213.7 46.7807 213.273 47.4004C212.21 48.9439 211.988 50.0438 212.445 51.5161C212.594 51.9967 213.781 51.2096 214.252 50.3182C214.486 49.8754 214.681 49.664 214.686 49.8484C214.692 50.0328 214.407 50.6396 214.054 51.1966C213.331 52.3354 213.547 52.5052 214.715 51.7178C215.74 51.0271 216.03 50.3734 215.909 49.0321C215.758 47.3633 214.049 44.4676 214.049 45.8801ZM198.086 46.9032C198.086 47.0693 197.844 47.7247 197.549 48.3593C196.964 49.6143 196.895 50.1618 197.216 51.0051C197.463 51.6546 197.837 51.5722 198.38 50.7484C198.733 50.2132 198.735 50.3763 198.386 51.2389C198.18 51.7473 198.697 51.6177 199.307 51.0077C199.798 50.5171 199.851 50.3187 199.767 49.2975C199.698 48.4734 199.502 47.9212 199.083 47.3715C198.47 46.568 198.086 46.3874 198.086 46.9032ZM205.83 47.4954C204.235 48.6052 203.304 50.4185 203.672 51.6992C203.891 52.4644 204.526 53.5039 204.773 53.5039C204.864 53.5039 204.905 52.8486 204.864 52.0478C204.793 50.6629 204.799 50.6424 204.981 51.63C205.086 52.201 205.319 52.8915 205.498 53.1644C205.796 53.6191 205.779 53.7473 205.298 54.6975C205.009 55.2676 204.773 56.1061 204.773 56.5604C204.773 57.2559 204.845 57.3868 205.226 57.3868C205.953 57.3868 207.092 56.7503 207.792 55.9532C208.148 55.547 208.44 55.2927 208.44 55.3878C208.44 55.8013 207.312 57.1664 206.614 57.598C205.679 58.1759 205.643 58.4654 206.506 58.4654C207.374 58.4654 208.584 57.9436 209.122 57.3372C209.473 56.9409 209.463 56.9914 209.066 57.6025C208.254 58.8552 207.149 60.0037 205.212 61.6093C204.199 62.4484 203.099 63.4927 202.766 63.9293C201.321 65.8257 200.266 69.1387 199.868 73.0334L199.692 74.752L199.068 73.7813C197.857 71.9 197.644 70.466 198.212 68.0243C198.608 66.3216 198.517 65.4134 197.855 64.4843C197.405 63.8521 195.821 62.564 195.494 62.564C195.409 62.564 195.57 63.0173 195.85 63.5712C196.494 64.8437 196.522 66.533 195.93 68.4197C195.693 69.1736 195.425 69.9047 195.334 70.044C195.229 70.2049 194.597 69.4558 193.605 67.9947C191.072 64.2639 188.554 61.836 184.739 59.4467C182.084 57.784 179.649 56.4808 179.491 56.6385C179.439 56.6905 179.019 56.5406 178.557 56.305C178.095 56.0695 177.277 55.8669 176.738 55.8548L175.759 55.8328L176.452 55.6104C176.97 55.4439 177.471 55.4704 178.447 55.7161C179.904 56.0833 180.053 55.9314 179.137 55.0148C177.25 53.1284 173.816 54.0866 171.762 57.073C171.409 57.5851 171.121 58.0471 171.121 58.1002C171.121 58.1533 171.534 58.1526 172.038 58.0985C172.542 58.0446 173.533 58.1535 174.24 58.3407C176.114 58.8367 177.315 58.7769 178.629 58.1226C179.245 57.8152 179.75 57.4244 179.75 57.254C179.75 57.0391 180.074 57.1621 180.806 57.6552C183.1 59.2004 186.939 62.7066 186.722 63.0587C186.647 63.1793 186.688 63.2146 186.813 63.1374C187.276 62.8514 191.359 67.968 193.327 71.2986C194.274 72.9036 195.453 75.2607 195.957 76.5621C196.143 77.0412 196.128 77.0565 195.748 76.7778C191.006 73.3016 189.018 72.3013 186.131 71.9406C184.554 71.7434 184.578 72.0923 186.167 72.4607C188.509 73.0034 190.476 74.1536 192.483 76.1542C194.575 78.2391 195.621 80.0058 196.384 82.7433C197.177 85.5907 196.978 89.2935 195.925 91.2604C195.706 91.6698 195.759 91.8213 196.328 92.41C196.688 92.7829 197.271 93.7189 197.623 94.4901C198.549 96.5168 198.676 97.2164 197.815 95.5461C195.729 91.5005 192.593 89.0336 187.912 87.7563C186.321 87.3223 185.616 87.2658 181.799 87.2656C178.524 87.2653 176.965 87.3613 175.328 87.664C168.123 88.9958 159.581 91.9315 151.707 95.7823C149.04 97.0863 149.6 96.9987 152.677 95.6304C160.034 92.3591 166.43 90.3028 172.739 89.1807C175.744 88.6461 182.411 88.6343 184.765 89.1595C190.271 90.3876 194.444 93.3397 196.569 97.5102C196.913 98.1847 196.694 97.9491 195.509 96.3716C193.809 94.1081 191.18 92.3243 187.963 91.2507C181.835 89.2055 173.94 90.1106 164.149 93.981C161.023 95.2167 157.359 96.9348 156.992 97.3374C156.724 97.6307 156.675 97.6495 160.335 96.0409C174.939 89.6227 186.03 89.4978 192.278 95.6815C192.94 96.3364 193.706 97.2714 193.98 97.7593L194.478 98.6461L193.34 97.7462C191.855 96.5727 189.114 95.2566 186.965 94.6862C184.581 94.0535 180.483 93.8986 177.897 94.3437C175.803 94.7039 170.842 96.2204 171.27 96.3694C171.411 96.4184 172.289 96.2178 173.221 95.9234C175.688 95.144 177.389 94.8853 180.068 94.8821C184.335 94.8769 187.703 95.8058 190.864 97.859L192.154 98.6966L172.308 98.8062C153.402 98.9106 152.102 98.9455 160.335 99.1293C175.348 99.4643 180.145 99.6671 186.113 100.219C191.796 100.744 196.711 101.647 196.423 102.112C196.352 102.228 196.402 102.255 196.535 102.173C196.823 101.995 198.26 102.692 198.772 103.258C198.971 103.478 199.24 103.937 199.369 104.277L199.605 104.896L200.102 103.953C200.844 102.546 202.29 101.834 205.938 101.081C211.504 99.9314 227.057 99.0202 241.107 99.0202C244.419 99.0202 247.053 98.9354 247.053 98.8291C247.053 98.7195 238.641 98.6226 227.376 98.6023C216.554 98.5827 207.669 98.5363 207.631 98.4988C207.527 98.395 210.363 96.7228 211.46 96.2405C213.969 95.1377 215.701 94.8314 219.442 94.8282C222.638 94.8256 223.228 94.8853 225.231 95.4153C226.458 95.74 227.655 96.1093 227.892 96.2359C228.129 96.3628 228.378 96.4113 228.446 96.344C228.598 96.1919 227.48 95.7184 225.551 95.1176C224.742 94.8655 223.934 94.6088 223.756 94.5471C223.578 94.4852 223.238 94.4144 223.001 94.3896C222.764 94.365 221.599 94.2224 220.412 94.0729C215.412 93.4428 210.501 94.6383 206.535 97.4513L205.169 98.4201L205.54 97.6955C206.204 96.3984 208.853 94.0233 210.743 93.031C213.255 91.7113 215.267 91.2388 218.984 91.0963C224.918 90.8687 231.31 92.3714 239.18 95.8437C242.465 97.2936 242.574 97.3346 242.408 97.0666C242.179 96.6963 238.093 94.8286 234.65 93.5211C229.257 91.4729 225.731 90.5954 221.123 90.1536C213.612 89.4337 206.868 92.0491 203.557 96.9663C202.736 98.1862 202.592 98.1649 203.307 96.9292C206.852 90.8076 214.011 87.8355 223.258 88.6464C230.621 89.2922 238.652 91.6649 247.892 95.9253C248.768 96.3295 249.531 96.6147 249.586 96.5595C249.852 96.2939 240.168 92.1004 235.944 90.6521C228.285 88.026 223.366 87.0583 217.716 87.0667C214.553 87.0712 213.626 87.1499 211.999 87.552C207.318 88.7089 203.805 91.4194 201.89 95.353C200.787 97.6178 200.696 97.7112 201.298 95.9611C201.828 94.4194 202.215 93.6866 203.138 92.4783L203.894 91.4878L203.479 90.5503C202.079 87.3859 202.519 81.5575 204.488 77.1763C205.263 75.451 206.841 72.9184 207.141 72.9184C207.222 72.9184 207.419 72.676 207.577 72.3796C207.736 72.083 207.898 71.8724 207.937 71.9115C207.976 71.9507 208.423 71.5864 208.93 71.1023C209.972 70.1087 211.761 69.1706 213.427 68.7441C214.044 68.5862 214.461 68.402 214.353 68.3351C214.245 68.2682 213.274 68.1444 212.195 68.0601C209.126 67.82 206.968 68.6056 204.63 70.815C203.329 72.0435 203.294 71.9971 203.508 69.3643C203.777 66.0627 204.664 64.4341 207.968 61.1783C210.488 58.6947 211.193 57.4324 211.394 55.0433C211.556 53.1094 211.22 52.9167 210.596 54.5853C210.331 55.2957 210.099 55.8768 210.082 55.8768C210.064 55.8768 210.08 55.1729 210.117 54.3129C210.187 52.6771 209.799 50.6815 209.384 50.5456C209.251 50.502 209.095 50.647 209.037 50.8681C208.979 51.089 208.354 51.7096 207.647 52.2472L206.362 53.2244L206.77 52.4474C207.115 51.7907 207.153 51.4363 207.013 50.1603C206.922 49.3298 206.854 48.2376 206.862 47.7335C206.87 47.2294 206.86 46.8167 206.84 46.8167C206.821 46.8167 206.366 47.1222 205.83 47.4954ZM182.416 49.4308C181.577 50.8521 181.171 52.256 181.171 53.7345C181.171 54.9902 181.251 55.286 181.783 55.9829C182.405 56.7986 183.459 57.3868 184.298 57.3868C184.718 57.3868 184.688 57.3057 183.972 56.5127C183.161 55.6152 182.76 54.8308 182.783 54.191C182.793 53.9539 182.872 54.015 183.012 54.3668C183.44 55.4437 185.286 56.9431 185.796 56.6279C186.078 56.4536 186.063 54.1146 185.775 53.3562C185.648 53.0222 185.062 52.1939 184.472 51.5152C183.882 50.8368 183.276 49.9245 183.125 49.4884L182.85 48.695L182.416 49.4308ZM194.001 52.7543C193.266 54.246 192.969 55.9517 193.215 57.2624C193.406 58.2799 194.465 59.4737 195.344 59.6616C195.725 59.7429 196.158 59.9073 196.306 60.0268C196.843 60.4593 196.583 59.6262 196.016 59.0962C195.37 58.4924 194.969 57.7669 194.773 56.8475C194.636 56.2069 194.639 56.2079 195.046 56.9595C195.81 58.3716 197.339 59.5006 197.826 59.012C198.12 58.7176 197.961 56.209 197.607 55.5532C197.415 55.1973 196.808 54.3823 196.258 53.7423C195.708 53.1023 195.203 52.3013 195.135 51.9626C195.067 51.624 194.94 51.3468 194.853 51.3468C194.765 51.3468 194.382 51.9801 194.001 52.7543ZM201.342 53.4692C199.487 55.3479 198.9 57.3698 199.748 58.9616C199.95 59.3412 200.096 59.7246 200.072 59.8136C200.047 59.9025 200.1 59.9547 200.189 59.9297C200.278 59.9045 200.578 60.0093 200.855 60.1629C201.518 60.53 201.638 60.368 201.26 59.618C200.869 58.8414 200.636 57.3868 200.904 57.3868C201.015 57.3868 201.106 57.5875 201.106 57.8325C201.106 58.5834 202.168 60.1912 202.664 60.1912C202.988 60.1912 203.685 58.397 203.69 57.551C203.692 57.1073 203.493 56.2336 203.247 55.6095C203.001 54.9853 202.728 53.9893 202.64 53.3961L202.48 52.3175L201.342 53.4692ZM217.177 52.9278C216.085 53.4267 215.243 54.2766 214.705 55.4251C214.423 56.0289 214.253 56.5844 214.329 56.6599C214.404 56.7354 214.811 56.4936 215.234 56.1225C216.167 55.3037 217.349 54.6858 218.363 54.4876C219.034 54.3564 218.987 54.4078 217.942 54.9466C217.295 55.2804 216.607 55.6425 216.412 55.7515C215.986 55.9905 214.816 58.0107 214.999 58.1932C215.07 58.2642 215.637 58.3634 216.26 58.4136C217.862 58.5431 219.514 57.8653 221.437 56.2895C222.297 55.5841 223.372 54.9059 223.826 54.7821C224.874 54.4964 224.674 54.2141 222.836 53.3836C221.23 52.6577 218.287 52.4206 217.177 52.9278ZM188.929 56.0237C189.026 56.2394 189.164 57.3868 189.235 58.5733C189.307 59.7597 189.475 60.9246 189.609 61.1619C190.006 61.8673 191.13 62.8378 191.375 62.6863C191.733 62.465 192.059 60.9697 191.924 60.1663C191.817 59.528 191.834 59.489 192.066 59.8559C192.211 60.0867 192.325 60.8426 192.318 61.5355C192.308 62.6167 192.351 62.7582 192.622 62.5336C193.158 62.0884 193.556 61.1136 193.556 60.244C193.556 58.5845 192.115 57.0352 189.59 55.981C188.791 55.6473 188.76 55.6492 188.929 56.0237ZM211.999 59.0153C211.644 59.1978 211.231 59.5069 211.083 59.7023C210.761 60.1269 210.715 61.3556 211.029 61.1619C211.147 61.0885 211.244 61.18 211.244 61.3649C211.244 61.7965 211.875 61.7965 212.491 61.3651C212.755 61.1802 213.092 61.0987 213.24 61.1839C213.388 61.2691 213.44 61.2615 213.354 61.1668C213.187 60.9818 213.897 59.8294 214.459 59.3738C214.761 59.1287 214.763 59.0712 214.479 58.8917C213.988 58.5813 212.723 58.6445 211.999 59.0153ZM179.24 60.194C178.224 61.0859 177.78 62.3106 177.772 64.2384C177.769 65.1134 177.816 65.8794 177.877 65.9404C177.938 66.0015 178.181 65.8587 178.416 65.6231C178.652 65.3876 179.483 64.8901 180.264 64.5176C181.094 64.1215 181.896 63.5527 182.197 63.1482C182.778 62.3654 183.255 61.1002 183.078 60.8135C182.751 60.2843 180.807 60.8581 179.969 61.7314C179.561 62.157 179.517 62.1693 179.703 61.8067C180.026 61.1765 180.626 60.6851 181.537 60.3044C182.673 59.83 182.531 59.544 181.16 59.544C180.156 59.544 179.87 59.6406 179.24 60.194ZM221.544 59.8447C221.336 60.0026 220.428 60.1987 219.526 60.2805C217.398 60.4733 216.37 60.9019 215.446 61.9812C215.034 62.4631 214.696 62.9215 214.696 62.9996C214.696 63.2776 215.808 63.6426 216.654 63.6426C217.127 63.6426 217.851 63.502 218.262 63.33C219.274 62.9072 219.21 63.1003 218.161 63.6355C217.695 63.8737 216.845 64.0939 216.274 64.1252C215.703 64.1565 215.249 64.2747 215.265 64.3881C215.317 64.7449 216.708 65.3684 217.452 65.3684C218.274 65.3684 219.647 64.7234 220.322 64.0199C220.932 63.3833 222.246 60.6629 222.246 60.0354C222.246 59.4771 222.086 59.4336 221.544 59.8447ZM199.051 61.8867C198.096 63.3294 198.072 64.9367 198.992 65.7937C199.658 66.4142 200.124 66.3861 199.788 65.7459C199.541 65.275 199.546 65.2717 199.959 65.638C200.598 66.2043 200.854 66.1005 201.022 65.2089C201.127 64.6479 201.058 64.1062 200.795 63.4293C200.587 62.8941 200.305 62.1406 200.169 61.7551C200.033 61.3696 199.85 61.054 199.762 61.054C199.674 61.054 199.354 61.4287 199.051 61.8867ZM212.323 62.6898C212.026 62.8544 211.358 62.9905 210.838 62.9922C210.318 62.994 209.524 63.1059 209.073 63.241C208.107 63.5302 206.6 64.9745 206.778 65.4395C206.943 65.8682 208.423 66.0934 209.181 65.8052C209.518 65.677 209.843 65.6205 209.902 65.6799C210.071 65.849 208.858 66.2685 207.844 66.3919C206.708 66.53 206.908 66.9109 208.325 67.3077C209.188 67.5495 209.375 67.5292 210.268 67.0969C211.421 66.5391 212.19 65.6132 212.77 64.0844C213.425 62.363 213.347 62.1216 212.323 62.6898ZM193.556 64.5577C193.556 65.6363 193.662 66.2869 193.892 66.6146C194.33 67.2406 194.498 67.2194 194.8 66.5009C194.969 66.0994 195.012 66.0645 194.935 66.393C194.872 66.6599 194.921 66.8784 195.044 66.8784C195.357 66.8784 195.713 66.1447 195.713 65.498C195.713 64.9374 194.679 63.5816 193.958 63.1954C193.583 62.9946 193.556 63.0859 193.556 64.5577ZM227.512 63.4196C227.404 63.5246 226.598 63.7088 225.722 63.8288C224.369 64.0141 224.019 64.153 223.403 64.7499C222.322 65.7978 222.504 66.2312 224.025 66.2312C224.391 66.2312 224.633 66.2895 224.561 66.3607C224.49 66.4318 224.086 66.4901 223.663 66.4901C223.239 66.4901 222.893 66.5749 222.893 66.6786C222.893 66.9207 224.056 67.5255 224.522 67.5255C225.719 67.5255 227.085 66.1721 227.726 64.3493C228.034 63.477 227.927 63.0153 227.512 63.4196ZM183.255 63.9584C182.094 64.4992 181.783 64.9369 182.561 64.9369C182.802 64.9369 183.05 65.0694 183.112 65.2312C183.174 65.3932 183.729 65.7799 184.346 66.0908C185.212 66.5276 185.65 66.6258 186.275 66.5233C186.72 66.4502 187.084 66.2998 187.084 66.1887C187.084 65.7588 186.616 65.1468 186.054 64.8418C185.731 64.6664 185.574 64.5189 185.706 64.5141C185.838 64.5094 186.299 64.7451 186.73 65.0383C187.492 65.555 187.516 65.5578 187.516 65.1296C187.516 64.8867 187.232 64.4043 186.885 64.0574C186.074 63.2461 184.856 63.2129 183.255 63.9584ZM225.05 66.0155C224.856 66.1411 224.829 66.2258 224.984 66.228C225.125 66.2297 225.301 66.1342 225.374 66.0155C225.539 65.7476 225.465 65.7476 225.05 66.0155ZM217.412 66.6998C216.948 66.8022 216.22 67.1027 215.794 67.3676L215.02 67.8491L216.776 67.9947C217.875 68.086 218.859 68.3068 219.404 68.5849C220.673 69.2323 220.694 69.4916 219.439 69.0148C218.097 68.5044 216.576 68.4975 215.465 68.9967L214.617 69.3779L215.43 70.2789C216.692 71.6757 218.122 72.2642 220.87 72.5189C223.292 72.7433 224.617 73.1279 224.622 73.6085C224.625 73.8245 224.669 73.8199 224.816 73.5887C225.043 73.2291 224.426 71.3144 223.662 70.011C223.019 68.913 221.378 67.3726 220.453 66.9987C219.452 66.5936 218.372 66.4875 217.412 66.6998ZM180.647 69.1324C180.707 70.3326 180.841 70.8924 181.177 71.3435C181.806 72.1917 182.575 72.5826 183.27 72.4083C183.877 72.256 184.072 71.8399 183.537 71.8399C183.365 71.8399 182.997 71.6216 182.717 71.3545C182.438 71.0874 182.36 70.9789 182.544 71.1133C183.04 71.4759 183.744 71.6509 184.122 71.5055C184.385 71.4048 184.416 71.2356 184.267 70.716C184.01 69.821 183.504 69.3032 182.274 68.6798C181.705 68.3912 181.185 68.0135 181.119 67.8403C181.052 67.6672 180.901 67.5255 180.782 67.5255C180.649 67.5255 180.597 68.1485 180.647 69.1324ZM189.858 69.5265C189.313 69.7789 187.731 71.0779 187.731 71.273C187.731 71.4969 189.177 71.8399 190.121 71.8399C190.977 71.8399 191.227 71.7439 191.599 71.2714C192.036 70.7151 192.192 70.1141 191.898 70.1141C191.816 70.1141 191.502 70.3324 191.198 70.5995C190.667 71.0672 190.661 71.0678 191.042 70.6155C191.849 69.6555 191.089 68.9559 189.858 69.5265ZM211.46 71.6996C211.46 72.2849 212.437 73.7162 213.3 74.3946C214.19 75.0952 213.596 74.9535 212.591 74.2259C212.11 73.8771 211.54 73.2947 211.326 72.9316C211.111 72.5683 210.847 72.2713 210.739 72.2713C210.411 72.2713 210.795 74.0626 211.261 74.7026C211.5 75.0316 211.638 75.3944 211.567 75.5092C211.496 75.624 211.573 75.666 211.738 75.6026C211.903 75.5392 212.164 75.6384 212.317 75.8231C213.065 76.7243 216.019 77.0043 217.891 76.3516C218.678 76.0776 218.771 75.8127 218.15 75.6158C217.914 75.5409 217.122 74.746 216.389 73.8493C214.959 72.0992 213.525 71.199 212.161 71.1949C211.569 71.1931 211.46 71.271 211.46 71.6996ZM178.733 73L177.937 73.7289L179.047 73.8814C179.657 73.9653 180.345 73.9739 180.576 73.9006C181.158 73.7162 181.319 72.7498 180.814 72.4795C180.125 72.1104 179.545 72.2553 178.733 73ZM182.851 73.1307C182.14 73.4183 181.476 75.0159 181.476 76.4411V77.6703L182.285 77.1758C182.73 76.904 183.383 76.536 183.736 76.3583C184.468 75.9898 185.405 74.721 185.309 74.2261C185.219 73.7539 184.605 73.695 183.827 74.0833C183.321 74.3357 183.217 74.3452 183.403 74.1224C183.537 73.9604 183.942 73.7058 184.302 73.5565C184.778 73.3594 184.879 73.2364 184.672 73.1053C184.313 72.8779 183.447 72.89 182.851 73.1307ZM187.731 74.4257C187.731 74.5426 188.059 74.7753 188.46 74.9429C188.861 75.1103 189.26 75.3623 189.347 75.5029C189.441 75.6552 189.238 75.6207 188.844 75.4171C188.101 75.0327 187.388 74.9738 187.198 75.2812C187.128 75.3942 187.244 75.8554 187.455 76.3058C187.743 76.9196 188.132 77.2733 189.007 77.7162C189.649 78.0415 190.352 78.4691 190.571 78.6664C190.789 78.8638 190.974 78.9861 190.983 78.938C190.992 78.8899 191.043 78.6114 191.097 78.3191C191.273 77.3585 190.76 75.5623 190.112 74.8681C189.623 74.3443 189.322 74.2127 188.616 74.2127C188.129 74.2127 187.731 74.3085 187.731 74.4257ZM207.793 74.7661C207.793 75.0862 207.995 75.6753 208.242 76.0748C208.489 76.4743 208.639 76.8013 208.575 76.8013C208.511 76.8013 208.187 76.3404 207.856 75.7767C207.263 74.7671 207.253 74.7611 207.183 75.3714C206.972 77.2196 208.436 78.4714 210.854 78.5107C212.026 78.5297 212.27 78.3099 211.674 77.7706C211.442 77.5602 210.96 76.8706 210.603 76.2383C209.992 75.1563 209.416 74.6843 208.278 74.3333C207.858 74.2037 207.793 74.2615 207.793 74.7661Z" fill="#197065"/>
<path d="M151.082 115.105V106.958H151.826V114.437H155.709V115.105H151.082ZM162.329 106.958V115.105H161.585V106.958H162.329ZM168.696 115.105V106.958H173.41V107.626H169.44V110.694H173.04V111.362H169.44V115.105H168.696ZM179.461 115.105V106.958H184.187V107.626H180.205V110.694H183.937V111.362H180.205V114.437H184.267V115.105H179.461ZM194.738 108.995C194.692 108.541 194.492 108.181 194.137 107.913C193.781 107.645 193.335 107.511 192.796 107.511C192.417 107.511 192.083 107.576 191.794 107.706C191.507 107.836 191.282 108.016 191.117 108.247C190.956 108.475 190.875 108.735 190.875 109.027C190.875 109.242 190.921 109.43 191.014 109.592C191.107 109.753 191.231 109.893 191.388 110.009C191.547 110.123 191.722 110.221 191.913 110.304C192.107 110.386 192.302 110.455 192.498 110.511L193.357 110.757C193.617 110.829 193.877 110.92 194.137 111.032C194.397 111.143 194.634 111.284 194.849 111.453C195.066 111.621 195.24 111.826 195.37 112.07C195.503 112.311 195.569 112.602 195.569 112.941C195.569 113.376 195.456 113.767 195.231 114.115C195.005 114.462 194.682 114.738 194.26 114.942C193.838 115.144 193.333 115.245 192.744 115.245C192.19 115.245 191.709 115.153 191.3 114.97C190.892 114.785 190.571 114.529 190.338 114.202C190.104 113.876 189.973 113.498 189.944 113.069H190.708C190.734 113.39 190.84 113.661 191.026 113.884C191.211 114.107 191.453 114.277 191.75 114.393C192.047 114.507 192.378 114.564 192.744 114.564C193.15 114.564 193.511 114.497 193.826 114.362C194.145 114.224 194.394 114.033 194.574 113.789C194.757 113.542 194.849 113.256 194.849 112.929C194.849 112.654 194.777 112.423 194.634 112.237C194.491 112.049 194.291 111.891 194.033 111.764C193.779 111.636 193.483 111.524 193.146 111.426L192.172 111.139C191.532 110.948 191.036 110.684 190.684 110.347C190.331 110.011 190.155 109.581 190.155 109.059C190.155 108.621 190.271 108.236 190.505 107.905C190.741 107.571 191.059 107.311 191.459 107.125C191.863 106.937 192.315 106.843 192.816 106.843C193.323 106.843 193.771 106.935 194.161 107.121C194.551 107.307 194.86 107.563 195.088 107.889C195.318 108.212 195.442 108.581 195.458 108.995H194.738ZM207.941 109.504H207.193C207.138 109.226 207.037 108.968 206.891 108.732C206.748 108.494 206.568 108.285 206.35 108.108C206.133 107.93 205.886 107.792 205.61 107.694C205.334 107.596 205.036 107.547 204.715 107.547C204.2 107.547 203.731 107.681 203.307 107.949C202.885 108.216 202.547 108.61 202.292 109.13C202.04 109.647 201.914 110.281 201.914 111.032C201.914 111.788 202.04 112.424 202.292 112.941C202.547 113.458 202.885 113.851 203.307 114.119C203.731 114.384 204.2 114.517 204.715 114.517C205.036 114.517 205.334 114.468 205.61 114.369C205.886 114.271 206.133 114.135 206.35 113.96C206.568 113.782 206.748 113.574 206.891 113.335C207.037 113.096 207.138 112.838 207.193 112.559H207.941C207.875 112.933 207.75 113.282 207.567 113.606C207.387 113.927 207.156 114.208 206.875 114.449C206.597 114.69 206.276 114.879 205.912 115.014C205.549 115.149 205.15 115.217 204.715 115.217C204.031 115.217 203.423 115.046 202.893 114.704C202.363 114.359 201.946 113.874 201.644 113.248C201.344 112.622 201.194 111.883 201.194 111.032C201.194 110.18 201.344 109.442 201.644 108.816C201.946 108.19 202.363 107.706 202.893 107.364C203.423 107.019 204.031 106.847 204.715 106.847C205.15 106.847 205.549 106.914 205.912 107.049C206.276 107.182 206.597 107.37 206.875 107.614C207.156 107.856 207.387 108.137 207.567 108.458C207.75 108.779 207.875 109.127 207.941 109.504ZM213.89 115.105V106.958H216.519C217.098 106.958 217.58 107.063 217.968 107.272C218.357 107.479 218.651 107.767 218.847 108.136C219.046 108.502 219.145 108.922 219.145 109.397C219.145 109.871 219.046 110.29 218.847 110.654C218.651 111.017 218.359 111.301 217.972 111.505C217.584 111.709 217.104 111.811 216.531 111.811H214.292V111.131H216.512C216.936 111.131 217.289 111.061 217.57 110.92C217.854 110.78 218.064 110.58 218.202 110.32C218.343 110.06 218.413 109.752 218.413 109.397C218.413 109.041 218.343 108.731 218.202 108.466C218.062 108.198 217.85 107.991 217.566 107.845C217.285 107.699 216.929 107.626 216.5 107.626H214.634V115.105H213.89ZM217.482 111.43L219.487 115.105H218.628L216.643 111.43H217.482ZM225.902 106.958V115.105H225.158V106.958H225.902ZM232.269 115.105V106.958H234.899C235.477 106.958 235.96 107.069 236.347 107.292C236.737 107.512 237.03 107.812 237.226 108.191C237.425 108.571 237.525 108.998 237.525 109.472C237.525 109.947 237.427 110.375 237.23 110.757C237.034 111.136 236.742 111.438 236.355 111.66C235.968 111.88 235.487 111.99 234.911 111.99H232.842V111.322H234.891C235.318 111.322 235.672 111.243 235.953 111.083C236.234 110.922 236.444 110.702 236.582 110.423C236.722 110.145 236.793 109.828 236.793 109.472C236.793 109.117 236.722 108.8 236.582 108.521C236.444 108.243 236.233 108.024 235.949 107.865C235.668 107.706 235.311 107.626 234.879 107.626H233.013V115.105H232.269ZM242.979 107.626V106.958H248.887V107.626H246.305V115.105H245.561V107.626H242.979Z" fill="#197065"/>
<circle cx="104" cy="887" r="3" fill="#D9D9D9"/>
<circle cx="104" cy="907" r="3" fill="#D9D9D9"/>
<circle cx="104" cy="927" r="3" fill="#D9D9D9"/>
<circle cx="104" cy="947" r="3" fill="#D9D9D9"/>
<circle cx="104" cy="967" r="3" fill="#D9D9D9"/>
<circle cx="104" cy="987" r="3" fill="#D9D9D9"/>
<circle cx="104" cy="1007" r="3" fill="#D9D9D9"/>
<circle cx="104" cy="1027" r="3" fill="#D9D9D9"/>
<circle cx="122" cy="887" r="3" fill="#D9D9D9"/>
<circle cx="122" cy="907" r="3" fill="#D9D9D9"/>
<circle cx="122" cy="927" r="3" fill="#D9D9D9"/>
<circle cx="122" cy="947" r="3" fill="#D9D9D9"/>
<circle cx="122" cy="967" r="3" fill="#D9D9D9"/>
<circle cx="122" cy="987" r="3" fill="#D9D9D9"/>
<circle cx="122" cy="1007" r="3" fill="#D9D9D9"/>
<circle cx="122" cy="1027" r="3" fill="#D9D9D9"/>
<circle cx="140" cy="887" r="3" fill="#D9D9D9"/>
<circle cx="140" cy="907" r="3" fill="#D9D9D9"/>
<circle cx="140" cy="927" r="3" fill="#D9D9D9"/>
<circle cx="140" cy="947" r="3" fill="#D9D9D9"/>
<circle cx="140" cy="967" r="3" fill="#D9D9D9"/>
<circle cx="140" cy="987" r="3" fill="#D9D9D9"/>
<circle cx="140" cy="1007" r="3" fill="#D9D9D9"/>
<circle cx="140" cy="1027" r="3" fill="#D9D9D9"/>
<circle cx="158" cy="887" r="3" fill="#D9D9D9"/>
<circle cx="158" cy="907" r="3" fill="#D9D9D9"/>
<circle cx="158" cy="927" r="3" fill="#D9D9D9"/>
<circle cx="158" cy="947" r="3" fill="#D9D9D9"/>
<circle cx="158" cy="967" r="3" fill="#D9D9D9"/>
<circle cx="158" cy="987" r="3" fill="#D9D9D9"/>
<circle cx="158" cy="1007" r="3" fill="#D9D9D9"/>
<circle cx="158" cy="1027" r="3" fill="#D9D9D9"/>
<circle cx="176" cy="887" r="3" fill="#D9D9D9"/>
<circle cx="176" cy="907" r="3" fill="#D9D9D9"/>
<circle cx="176" cy="927" r="3" fill="#D9D9D9"/>
<circle cx="176" cy="947" r="3" fill="#D9D9D9"/>
<circle cx="176" cy="967" r="3" fill="#D9D9D9"/>
<circle cx="176" cy="987" r="3" fill="#D9D9D9"/>
<circle cx="176" cy="1007" r="3" fill="#D9D9D9"/>
<circle cx="176" cy="1027" r="3" fill="#D9D9D9"/>
<circle cx="194" cy="887" r="3" fill="#D9D9D9"/>
<circle cx="194" cy="907" r="3" fill="#D9D9D9"/>
<circle cx="194" cy="927" r="3" fill="#D9D9D9"/>
<circle cx="194" cy="947" r="3" fill="#D9D9D9"/>
<circle cx="194" cy="967" r="3" fill="#D9D9D9"/>
<circle cx="194" cy="987" r="3" fill="#D9D9D9"/>
<circle cx="194" cy="1007" r="3" fill="#D9D9D9"/>
<circle cx="194" cy="1027" r="3" fill="#D9D9D9"/>
<circle cx="212" cy="887" r="3" fill="#D9D9D9"/>
<circle cx="212" cy="907" r="3" fill="#D9D9D9"/>
<circle cx="212" cy="927" r="3" fill="#D9D9D9"/>
<circle cx="212" cy="947" r="3" fill="#D9D9D9"/>
<circle cx="212" cy="967" r="3" fill="#D9D9D9"/>
<circle cx="212" cy="987" r="3" fill="#D9D9D9"/>
<circle cx="212" cy="1007" r="3" fill="#D9D9D9"/>
<circle cx="212" cy="1027" r="3" fill="#D9D9D9"/>
<circle cx="230" cy="887" r="3" fill="#D9D9D9"/>
<circle cx="230" cy="907" r="3" fill="#D9D9D9"/>
<circle cx="230" cy="927" r="3" fill="#D9D9D9"/>
<circle cx="230" cy="947" r="3" fill="#D9D9D9"/>
<circle cx="230" cy="967" r="3" fill="#D9D9D9"/>
<circle cx="230" cy="987" r="3" fill="#D9D9D9"/>
<circle cx="230" cy="1007" r="3" fill="#D9D9D9"/>
<circle cx="230" cy="1027" r="3" fill="#D9D9D9"/>
<circle cx="248" cy="887" r="3" fill="#D9D9D9"/>
<circle cx="248" cy="907" r="3" fill="#D9D9D9"/>
<circle cx="248" cy="927" r="3" fill="#D9D9D9"/>
<circle cx="248" cy="947" r="3" fill="#D9D9D9"/>
<circle cx="248" cy="967" r="3" fill="#D9D9D9"/>
<circle cx="248" cy="987" r="3" fill="#D9D9D9"/>
<circle cx="248" cy="1007" r="3" fill="#D9D9D9"/>
<circle cx="248" cy="1027" r="3" fill="#D9D9D9"/>
<circle cx="266" cy="887" r="3" fill="#D9D9D9"/>
<circle cx="266" cy="907" r="3" fill="#D9D9D9"/>
<circle cx="266" cy="927" r="3" fill="#D9D9D9"/>
<circle cx="266" cy="947" r="3" fill="#D9D9D9"/>
<circle cx="266" cy="967" r="3" fill="#D9D9D9"/>
<circle cx="266" cy="987" r="3" fill="#D9D9D9"/>
<circle cx="266" cy="1007" r="3" fill="#D9D9D9"/>
<circle cx="266" cy="1027" r="3" fill="#D9D9D9"/>
<circle cx="284" cy="887" r="3" fill="#D9D9D9"/>
<circle cx="284" cy="907" r="3" fill="#D9D9D9"/>
<circle cx="284" cy="927" r="3" fill="#D9D9D9"/>
<circle cx="284" cy="947" r="3" fill="#D9D9D9"/>
<circle cx="284" cy="967" r="3" fill="#D9D9D9"/>
<circle cx="284" cy="987" r="3" fill="#D9D9D9"/>
<circle cx="284" cy="1007" r="3" fill="#D9D9D9"/>
<circle cx="284" cy="1027" r="3" fill="#D9D9D9"/>
<circle cx="302" cy="887" r="3" fill="#D9D9D9"/>
<circle cx="302" cy="907" r="3" fill="#D9D9D9"/>
<circle cx="302" cy="927" r="3" fill="#D9D9D9"/>
<circle cx="302" cy="947" r="3" fill="#D9D9D9"/>
<circle cx="302" cy="967" r="3" fill="#D9D9D9"/>
<circle cx="302" cy="987" r="3" fill="#D9D9D9"/>
<circle cx="302" cy="1007" r="3" fill="#D9D9D9"/>
<circle cx="302" cy="1027" r="3" fill="#D9D9D9"/>
<circle cx="320" cy="887" r="3" fill="#D9D9D9"/>
<circle cx="320" cy="907" r="3" fill="#D9D9D9"/>
<circle cx="320" cy="927" r="3" fill="#D9D9D9"/>
<circle cx="320" cy="947" r="3" fill="#D9D9D9"/>
<circle cx="320" cy="967" r="3" fill="#D9D9D9"/>
<circle cx="320" cy="987" r="3" fill="#D9D9D9"/>
<circle cx="320" cy="1007" r="3" fill="#D9D9D9"/>
<circle cx="320" cy="1027" r="3" fill="#D9D9D9"/>
<circle cx="338" cy="887" r="3" fill="#D9D9D9"/>
<circle cx="338" cy="907" r="3" fill="#D9D9D9"/>
<circle cx="338" cy="927" r="3" fill="#D9D9D9"/>
<circle cx="338" cy="947" r="3" fill="#D9D9D9"/>
<circle cx="338" cy="967" r="3" fill="#D9D9D9"/>
<circle cx="338" cy="987" r="3" fill="#D9D9D9"/>
<circle cx="338" cy="1007" r="3" fill="#D9D9D9"/>
<circle cx="338" cy="1027" r="3" fill="#D9D9D9"/>
<circle cx="356" cy="887" r="3" fill="#D9D9D9"/>
<circle cx="356" cy="907" r="3" fill="#D9D9D9"/>
<circle cx="356" cy="927" r="3" fill="#D9D9D9"/>
<circle cx="356" cy="947" r="3" fill="#D9D9D9"/>
<circle cx="356" cy="967" r="3" fill="#D9D9D9"/>
<circle cx="356" cy="987" r="3" fill="#D9D9D9"/>
<circle cx="356" cy="1007" r="3" fill="#D9D9D9"/>
<circle cx="356" cy="1027" r="3" fill="#D9D9D9"/>
<circle cx="374" cy="887" r="3" fill="#D9D9D9"/>
<circle cx="374" cy="907" r="3" fill="#D9D9D9"/>
<circle cx="374" cy="927" r="3" fill="#D9D9D9"/>
<circle cx="374" cy="947" r="3" fill="#D9D9D9"/>
<circle cx="374" cy="967" r="3" fill="#D9D9D9"/>
<circle cx="374" cy="987" r="3" fill="#D9D9D9"/>
<circle cx="374" cy="1007" r="3" fill="#D9D9D9"/>
<circle cx="374" cy="1027" r="3" fill="#D9D9D9"/>
<circle cx="392" cy="887" r="3" fill="#D9D9D9"/>
<circle cx="392" cy="907" r="3" fill="#D9D9D9"/>
<circle cx="392" cy="927" r="3" fill="#D9D9D9"/>
<circle cx="392" cy="947" r="3" fill="#D9D9D9"/>
<circle cx="392" cy="967" r="3" fill="#D9D9D9"/>
<circle cx="392" cy="987" r="3" fill="#D9D9D9"/>
<circle cx="392" cy="1007" r="3" fill="#D9D9D9"/>
<circle cx="392" cy="1027" r="3" fill="#D9D9D9"/>
<circle cx="410" cy="887" r="3" fill="#D9D9D9"/>
<circle cx="410" cy="907" r="3" fill="#D9D9D9"/>
<circle cx="410" cy="927" r="3" fill="#D9D9D9"/>
<circle cx="410" cy="947" r="3" fill="#D9D9D9"/>
<circle cx="410" cy="967" r="3" fill="#D9D9D9"/>
<circle cx="410" cy="987" r="3" fill="#D9D9D9"/>
<circle cx="410" cy="1007" r="3" fill="#D9D9D9"/>
<circle cx="410" cy="1027" r="3" fill="#D9D9D9"/>
<circle cx="428" cy="887" r="3" fill="#D9D9D9"/>
<circle cx="428" cy="907" r="3" fill="#D9D9D9"/>
<circle cx="428" cy="927" r="3" fill="#D9D9D9"/>
<circle cx="428" cy="947" r="3" fill="#D9D9D9"/>
<circle cx="428" cy="967" r="3" fill="#D9D9D9"/>
<circle cx="428" cy="987" r="3" fill="#D9D9D9"/>
<circle cx="428" cy="1007" r="3" fill="#D9D9D9"/>
<circle cx="428" cy="1027" r="3" fill="#D9D9D9"/>
<circle cx="446" cy="887" r="3" fill="#D9D9D9"/>
<circle cx="446" cy="907" r="3" fill="#D9D9D9"/>
<circle cx="446" cy="927" r="3" fill="#D9D9D9"/>
<circle cx="446" cy="947" r="3" fill="#D9D9D9"/>
<circle cx="446" cy="967" r="3" fill="#D9D9D9"/>
<circle cx="446" cy="987" r="3" fill="#D9D9D9"/>
<circle cx="446" cy="1007" r="3" fill="#D9D9D9"/>
<circle cx="446" cy="1027" r="3" fill="#D9D9D9"/>
<circle cx="464" cy="887" r="3" fill="#D9D9D9"/>
<circle cx="464" cy="907" r="3" fill="#D9D9D9"/>
<circle cx="464" cy="927" r="3" fill="#D9D9D9"/>
<circle cx="464" cy="947" r="3" fill="#D9D9D9"/>
<circle cx="464" cy="967" r="3" fill="#D9D9D9"/>
<circle cx="464" cy="987" r="3" fill="#D9D9D9"/>
<circle cx="464" cy="1007" r="3" fill="#D9D9D9"/>
<circle cx="464" cy="1027" r="3" fill="#D9D9D9"/>
<circle cx="482" cy="887" r="3" fill="#D9D9D9"/>
<circle cx="482" cy="907" r="3" fill="#D9D9D9"/>
<circle cx="482" cy="927" r="3" fill="#D9D9D9"/>
<circle cx="482" cy="947" r="3" fill="#D9D9D9"/>
<circle cx="482" cy="967" r="3" fill="#D9D9D9"/>
<circle cx="482" cy="987" r="3" fill="#D9D9D9"/>
<circle cx="482" cy="1007" r="3" fill="#D9D9D9"/>
<circle cx="482" cy="1027" r="3" fill="#D9D9D9"/>
<circle cx="500" cy="887" r="3" fill="#D9D9D9"/>
<circle cx="500" cy="907" r="3" fill="#D9D9D9"/>
<circle cx="500" cy="927" r="3" fill="#D9D9D9"/>
<circle cx="500" cy="947" r="3" fill="#D9D9D9"/>
<circle cx="500" cy="967" r="3" fill="#D9D9D9"/>
<circle cx="500" cy="987" r="3" fill="#D9D9D9"/>
<circle cx="500" cy="1007" r="3" fill="#D9D9D9"/>
<circle cx="500" cy="1027" r="3" fill="#D9D9D9"/>
<circle cx="518" cy="887" r="3" fill="#D9D9D9"/>
<circle cx="518" cy="907" r="3" fill="#D9D9D9"/>
<circle cx="518" cy="927" r="3" fill="#D9D9D9"/>
<circle cx="518" cy="947" r="3" fill="#D9D9D9"/>
<circle cx="518" cy="967" r="3" fill="#D9D9D9"/>
<circle cx="518" cy="987" r="3" fill="#D9D9D9"/>
<circle cx="518" cy="1007" r="3" fill="#D9D9D9"/>
<circle cx="518" cy="1027" r="3" fill="#D9D9D9"/>
<circle cx="536" cy="887" r="3" fill="#D9D9D9"/>
<circle cx="536" cy="907" r="3" fill="#D9D9D9"/>
<circle cx="536" cy="927" r="3" fill="#D9D9D9"/>
<circle cx="536" cy="947" r="3" fill="#D9D9D9"/>
<circle cx="536" cy="967" r="3" fill="#D9D9D9"/>
<circle cx="536" cy="987" r="3" fill="#D9D9D9"/>
<circle cx="536" cy="1007" r="3" fill="#D9D9D9"/>
<circle cx="536" cy="1027" r="3" fill="#D9D9D9"/>
<circle cx="554" cy="887" r="3" fill="#D9D9D9"/>
<circle cx="554" cy="907" r="3" fill="#D9D9D9"/>
<circle cx="554" cy="927" r="3" fill="#D9D9D9"/>
<circle cx="554" cy="947" r="3" fill="#D9D9D9"/>
<circle cx="554" cy="967" r="3" fill="#D9D9D9"/>
<circle cx="554" cy="987" r="3" fill="#D9D9D9"/>
<circle cx="554" cy="1007" r="3" fill="#D9D9D9"/>
<circle cx="554" cy="1027" r="3" fill="#D9D9D9"/>
<circle cx="572" cy="887" r="3" fill="#D9D9D9"/>
<circle cx="572" cy="907" r="3" fill="#D9D9D9"/>
<circle cx="572" cy="927" r="3" fill="#D9D9D9"/>
<circle cx="572" cy="947" r="3" fill="#D9D9D9"/>
<circle cx="572" cy="967" r="3" fill="#D9D9D9"/>
<circle cx="572" cy="987" r="3" fill="#D9D9D9"/>
<circle cx="572" cy="1007" r="3" fill="#D9D9D9"/>
<circle cx="572" cy="1027" r="3" fill="#D9D9D9"/>
<circle cx="590" cy="887" r="3" fill="#D9D9D9"/>
<circle cx="590" cy="907" r="3" fill="#D9D9D9"/>
<circle cx="590" cy="927" r="3" fill="#D9D9D9"/>
<circle cx="590" cy="947" r="3" fill="#D9D9D9"/>
<circle cx="590" cy="967" r="3" fill="#D9D9D9"/>
<circle cx="590" cy="987" r="3" fill="#D9D9D9"/>
<circle cx="590" cy="1007" r="3" fill="#D9D9D9"/>
<circle cx="590" cy="1027" r="3" fill="#D9D9D9"/>
<circle cx="608" cy="887" r="3" fill="#D9D9D9"/>
<circle cx="608" cy="907" r="3" fill="#D9D9D9"/>
<circle cx="608" cy="927" r="3" fill="#D9D9D9"/>
<circle cx="608" cy="947" r="3" fill="#D9D9D9"/>
<circle cx="608" cy="967" r="3" fill="#D9D9D9"/>
<circle cx="608" cy="987" r="3" fill="#D9D9D9"/>
<circle cx="608" cy="1007" r="3" fill="#D9D9D9"/>
<circle cx="608" cy="1027" r="3" fill="#D9D9D9"/>
<circle cx="626" cy="887" r="3" fill="#D9D9D9"/>
<circle cx="626" cy="907" r="3" fill="#D9D9D9"/>
<circle cx="626" cy="927" r="3" fill="#D9D9D9"/>
<circle cx="626" cy="947" r="3" fill="#D9D9D9"/>
<circle cx="626" cy="967" r="3" fill="#D9D9D9"/>
<circle cx="626" cy="987" r="3" fill="#D9D9D9"/>
<circle cx="626" cy="1007" r="3" fill="#D9D9D9"/>
<circle cx="626" cy="1027" r="3" fill="#D9D9D9"/>
<circle cx="644" cy="887" r="3" fill="#D9D9D9"/>
<circle cx="644" cy="907" r="3" fill="#D9D9D9"/>
<circle cx="644" cy="927" r="3" fill="#D9D9D9"/>
<circle cx="644" cy="947" r="3" fill="#D9D9D9"/>
<circle cx="644" cy="967" r="3" fill="#D9D9D9"/>
<circle cx="644" cy="987" r="3" fill="#D9D9D9"/>
<circle cx="644" cy="1007" r="3" fill="#D9D9D9"/>
<circle cx="644" cy="1027" r="3" fill="#D9D9D9"/>
<circle cx="662" cy="887" r="3" fill="#D9D9D9"/>
<circle cx="662" cy="907" r="3" fill="#D9D9D9"/>
<circle cx="662" cy="927" r="3" fill="#D9D9D9"/>
<circle cx="662" cy="947" r="3" fill="#D9D9D9"/>
<circle cx="662" cy="967" r="3" fill="#D9D9D9"/>
<circle cx="662" cy="987" r="3" fill="#D9D9D9"/>
<circle cx="662" cy="1007" r="3" fill="#D9D9D9"/>
<circle cx="662" cy="1027" r="3" fill="#D9D9D9"/>
<circle cx="680" cy="887" r="3" fill="#D9D9D9"/>
<circle cx="680" cy="907" r="3" fill="#D9D9D9"/>
<circle cx="680" cy="927" r="3" fill="#D9D9D9"/>
<circle cx="680" cy="947" r="3" fill="#D9D9D9"/>
<circle cx="680" cy="967" r="3" fill="#D9D9D9"/>
<circle cx="680" cy="987" r="3" fill="#D9D9D9"/>
<circle cx="680" cy="1007" r="3" fill="#D9D9D9"/>
<circle cx="680" cy="1027" r="3" fill="#D9D9D9"/>
<circle cx="698" cy="887" r="3" fill="#D9D9D9"/>
<circle cx="698" cy="907" r="3" fill="#D9D9D9"/>
<circle cx="698" cy="927" r="3" fill="#D9D9D9"/>
<circle cx="698" cy="947" r="3" fill="#D9D9D9"/>
<circle cx="698" cy="967" r="3" fill="#D9D9D9"/>
<circle cx="698" cy="987" r="3" fill="#D9D9D9"/>
<circle cx="698" cy="1007" r="3" fill="#D9D9D9"/>
<circle cx="698" cy="1027" r="3" fill="#D9D9D9"/>
<circle cx="716" cy="887" r="3" fill="#D9D9D9"/>
<circle cx="716" cy="907" r="3" fill="#D9D9D9"/>
<circle cx="716" cy="927" r="3" fill="#D9D9D9"/>
<circle cx="716" cy="947" r="3" fill="#D9D9D9"/>
<circle cx="716" cy="967" r="3" fill="#D9D9D9"/>
<circle cx="716" cy="987" r="3" fill="#D9D9D9"/>
<circle cx="716" cy="1007" r="3" fill="#D9D9D9"/>
<circle cx="716" cy="1027" r="3" fill="#D9D9D9"/>
<circle cx="734" cy="887" r="3" fill="#D9D9D9"/>
<circle cx="734" cy="907" r="3" fill="#D9D9D9"/>
<circle cx="734" cy="927" r="3" fill="#D9D9D9"/>
<circle cx="734" cy="947" r="3" fill="#D9D9D9"/>
<circle cx="734" cy="967" r="3" fill="#D9D9D9"/>
<circle cx="734" cy="987" r="3" fill="#D9D9D9"/>
<circle cx="734" cy="1007" r="3" fill="#D9D9D9"/>
<circle cx="734" cy="1027" r="3" fill="#D9D9D9"/>
<circle cx="752" cy="887" r="3" fill="#D9D9D9"/>
<circle cx="752" cy="907" r="3" fill="#D9D9D9"/>
<circle cx="752" cy="927" r="3" fill="#D9D9D9"/>
<circle cx="752" cy="947" r="3" fill="#D9D9D9"/>
<circle cx="752" cy="967" r="3" fill="#D9D9D9"/>
<circle cx="752" cy="987" r="3" fill="#D9D9D9"/>
<circle cx="752" cy="1007" r="3" fill="#D9D9D9"/>
<circle cx="752" cy="1027" r="3" fill="#D9D9D9"/>
<circle cx="770" cy="887" r="3" fill="#D9D9D9"/>
<circle cx="770" cy="907" r="3" fill="#D9D9D9"/>
<circle cx="770" cy="927" r="3" fill="#D9D9D9"/>
<circle cx="770" cy="947" r="3" fill="#D9D9D9"/>
<circle cx="770" cy="967" r="3" fill="#D9D9D9"/>
<circle cx="770" cy="987" r="3" fill="#D9D9D9"/>
<circle cx="770" cy="1007" r="3" fill="#D9D9D9"/>
<circle cx="770" cy="1027" r="3" fill="#D9D9D9"/>
<circle cx="788" cy="887" r="3" fill="#D9D9D9"/>
<circle cx="788" cy="907" r="3" fill="#D9D9D9"/>
<circle cx="788" cy="927" r="3" fill="#D9D9D9"/>
<circle cx="788" cy="947" r="3" fill="#D9D9D9"/>
<circle cx="788" cy="967" r="3" fill="#D9D9D9"/>
<circle cx="788" cy="987" r="3" fill="#D9D9D9"/>
<circle cx="788" cy="1007" r="3" fill="#D9D9D9"/>
<circle cx="788" cy="1027" r="3" fill="#D9D9D9"/>
<circle cx="806" cy="887" r="3" fill="#D9D9D9"/>
<circle cx="806" cy="907" r="3" fill="#D9D9D9"/>
<circle cx="806" cy="927" r="3" fill="#D9D9D9"/>
<circle cx="806" cy="947" r="3" fill="#D9D9D9"/>
<circle cx="806" cy="967" r="3" fill="#D9D9D9"/>
<circle cx="806" cy="987" r="3" fill="#D9D9D9"/>
<circle cx="806" cy="1007" r="3" fill="#D9D9D9"/>
<circle cx="806" cy="1027" r="3" fill="#D9D9D9"/>
<circle cx="824" cy="887" r="3" fill="#D9D9D9"/>
<circle cx="824" cy="907" r="3" fill="#D9D9D9"/>
<circle cx="824" cy="927" r="3" fill="#D9D9D9"/>
<circle cx="824" cy="947" r="3" fill="#D9D9D9"/>
<circle cx="824" cy="967" r="3" fill="#D9D9D9"/>
<circle cx="824" cy="987" r="3" fill="#D9D9D9"/>
<circle cx="824" cy="1007" r="3" fill="#D9D9D9"/>
<circle cx="824" cy="1027" r="3" fill="#D9D9D9"/>
<circle cx="842" cy="887" r="3" fill="#D9D9D9"/>
<circle cx="842" cy="907" r="3" fill="#D9D9D9"/>
<circle cx="842" cy="927" r="3" fill="#D9D9D9"/>
<circle cx="842" cy="947" r="3" fill="#D9D9D9"/>
<circle cx="842" cy="967" r="3" fill="#D9D9D9"/>
<circle cx="842" cy="987" r="3" fill="#D9D9D9"/>
<circle cx="842" cy="1007" r="3" fill="#D9D9D9"/>
<circle cx="842" cy="1027" r="3" fill="#D9D9D9"/>
<circle cx="860" cy="887" r="3" fill="#D9D9D9"/>
<circle cx="860" cy="907" r="3" fill="#D9D9D9"/>
<circle cx="860" cy="927" r="3" fill="#D9D9D9"/>
<circle cx="860" cy="947" r="3" fill="#D9D9D9"/>
<circle cx="860" cy="967" r="3" fill="#D9D9D9"/>
<circle cx="860" cy="987" r="3" fill="#D9D9D9"/>
<circle cx="860" cy="1007" r="3" fill="#D9D9D9"/>
<circle cx="860" cy="1027" r="3" fill="#D9D9D9"/>
<circle cx="878" cy="887" r="3" fill="#D9D9D9"/>
<circle cx="878" cy="907" r="3" fill="#D9D9D9"/>
<circle cx="878" cy="927" r="3" fill="#D9D9D9"/>
<circle cx="878" cy="947" r="3" fill="#D9D9D9"/>
<circle cx="878" cy="967" r="3" fill="#D9D9D9"/>
<circle cx="878" cy="987" r="3" fill="#D9D9D9"/>
<circle cx="878" cy="1007" r="3" fill="#D9D9D9"/>
<circle cx="878" cy="1027" r="3" fill="#D9D9D9"/>
<circle cx="896" cy="887" r="3" fill="#D9D9D9"/>
<circle cx="896" cy="907" r="3" fill="#D9D9D9"/>
<circle cx="896" cy="927" r="3" fill="#D9D9D9"/>
<circle cx="896" cy="947" r="3" fill="#D9D9D9"/>
<circle cx="896" cy="967" r="3" fill="#D9D9D9"/>
<circle cx="896" cy="987" r="3" fill="#D9D9D9"/>
<circle cx="896" cy="1007" r="3" fill="#D9D9D9"/>
<circle cx="896" cy="1027" r="3" fill="#D9D9D9"/>
<circle cx="914" cy="887" r="3" fill="#D9D9D9"/>
<circle cx="914" cy="907" r="3" fill="#D9D9D9"/>
<circle cx="914" cy="927" r="3" fill="#D9D9D9"/>
<circle cx="914" cy="947" r="3" fill="#D9D9D9"/>
<circle cx="914" cy="967" r="3" fill="#D9D9D9"/>
<circle cx="914" cy="987" r="3" fill="#D9D9D9"/>
<circle cx="914" cy="1007" r="3" fill="#D9D9D9"/>
<circle cx="914" cy="1027" r="3" fill="#D9D9D9"/>
<circle cx="830" cy="3" r="3" fill="#D9D9D9"/>
<circle cx="830" cy="23" r="3" fill="#D9D9D9"/>
<circle cx="830" cy="43" r="3" fill="#D9D9D9"/>
<circle cx="830" cy="63" r="3" fill="#D9D9D9"/>
<circle cx="830" cy="83" r="3" fill="#D9D9D9"/>
<circle cx="830" cy="103" r="3" fill="#D9D9D9"/>
<circle cx="830" cy="123" r="3" fill="#D9D9D9"/>
<circle cx="830" cy="143" r="3" fill="#D9D9D9"/>
<circle cx="848" cy="3" r="3" fill="#D9D9D9"/>
<circle cx="848" cy="23" r="3" fill="#D9D9D9"/>
<circle cx="848" cy="43" r="3" fill="#D9D9D9"/>
<circle cx="848" cy="63" r="3" fill="#D9D9D9"/>
<circle cx="848" cy="83" r="3" fill="#D9D9D9"/>
<circle cx="848" cy="103" r="3" fill="#D9D9D9"/>
<circle cx="848" cy="123" r="3" fill="#D9D9D9"/>
<circle cx="848" cy="143" r="3" fill="#D9D9D9"/>
<circle cx="866" cy="3" r="3" fill="#D9D9D9"/>
<circle cx="866" cy="23" r="3" fill="#D9D9D9"/>
<circle cx="866" cy="43" r="3" fill="#D9D9D9"/>
<circle cx="866" cy="63" r="3" fill="#D9D9D9"/>
<circle cx="866" cy="83" r="3" fill="#D9D9D9"/>
<circle cx="866" cy="103" r="3" fill="#D9D9D9"/>
<circle cx="866" cy="123" r="3" fill="#D9D9D9"/>
<circle cx="866" cy="143" r="3" fill="#D9D9D9"/>
<circle cx="884" cy="3" r="3" fill="#D9D9D9"/>
<circle cx="884" cy="23" r="3" fill="#D9D9D9"/>
<circle cx="884" cy="43" r="3" fill="#D9D9D9"/>
<circle cx="884" cy="63" r="3" fill="#D9D9D9"/>
<circle cx="884" cy="83" r="3" fill="#D9D9D9"/>
<circle cx="884" cy="103" r="3" fill="#D9D9D9"/>
<circle cx="884" cy="123" r="3" fill="#D9D9D9"/>
<circle cx="884" cy="143" r="3" fill="#D9D9D9"/>
<circle cx="902" cy="3" r="3" fill="#D9D9D9"/>
<circle cx="902" cy="23" r="3" fill="#D9D9D9"/>
<circle cx="902" cy="43" r="3" fill="#D9D9D9"/>
<circle cx="902" cy="63" r="3" fill="#D9D9D9"/>
<circle cx="902" cy="83" r="3" fill="#D9D9D9"/>
<circle cx="902" cy="103" r="3" fill="#D9D9D9"/>
<circle cx="902" cy="123" r="3" fill="#D9D9D9"/>
<circle cx="902" cy="143" r="3" fill="#D9D9D9"/>
<circle cx="920" cy="3" r="3" fill="#D9D9D9"/>
<circle cx="920" cy="23" r="3" fill="#D9D9D9"/>
<circle cx="920" cy="43" r="3" fill="#D9D9D9"/>
<circle cx="920" cy="63" r="3" fill="#D9D9D9"/>
<circle cx="920" cy="83" r="3" fill="#D9D9D9"/>
<circle cx="920" cy="103" r="3" fill="#D9D9D9"/>
<circle cx="920" cy="123" r="3" fill="#D9D9D9"/>
<circle cx="920" cy="143" r="3" fill="#D9D9D9"/>
<circle cx="938" cy="3" r="3" fill="#D9D9D9"/>
<circle cx="938" cy="23" r="3" fill="#D9D9D9"/>
<circle cx="938" cy="43" r="3" fill="#D9D9D9"/>
<circle cx="938" cy="63" r="3" fill="#D9D9D9"/>
<circle cx="938" cy="83" r="3" fill="#D9D9D9"/>
<circle cx="938" cy="103" r="3" fill="#D9D9D9"/>
<circle cx="938" cy="123" r="3" fill="#D9D9D9"/>
<circle cx="938" cy="143" r="3" fill="#D9D9D9"/>
<circle cx="956" cy="3" r="3" fill="#D9D9D9"/>
<circle cx="956" cy="23" r="3" fill="#D9D9D9"/>
<circle cx="956" cy="43" r="3" fill="#D9D9D9"/>
<circle cx="956" cy="63" r="3" fill="#D9D9D9"/>
<circle cx="956" cy="83" r="3" fill="#D9D9D9"/>
<circle cx="956" cy="103" r="3" fill="#D9D9D9"/>
<circle cx="956" cy="123" r="3" fill="#D9D9D9"/>
<circle cx="956" cy="143" r="3" fill="#D9D9D9"/>
<circle cx="974" cy="3" r="3" fill="#D9D9D9"/>
<circle cx="974" cy="23" r="3" fill="#D9D9D9"/>
<circle cx="974" cy="43" r="3" fill="#D9D9D9"/>
<circle cx="974" cy="63" r="3" fill="#D9D9D9"/>
<circle cx="974" cy="83" r="3" fill="#D9D9D9"/>
<circle cx="974" cy="103" r="3" fill="#D9D9D9"/>
<circle cx="974" cy="123" r="3" fill="#D9D9D9"/>
<circle cx="974" cy="143" r="3" fill="#D9D9D9"/>
<circle cx="992" cy="3" r="3" fill="#D9D9D9"/>
<circle cx="992" cy="23" r="3" fill="#D9D9D9"/>
<circle cx="992" cy="43" r="3" fill="#D9D9D9"/>
<circle cx="992" cy="63" r="3" fill="#D9D9D9"/>
<circle cx="992" cy="83" r="3" fill="#D9D9D9"/>
<circle cx="992" cy="103" r="3" fill="#D9D9D9"/>
<circle cx="992" cy="123" r="3" fill="#D9D9D9"/>
<circle cx="992" cy="143" r="3" fill="#D9D9D9"/>
<circle cx="1010" cy="3" r="3" fill="#D9D9D9"/>
<circle cx="1010" cy="23" r="3" fill="#D9D9D9"/>
<circle cx="1010" cy="43" r="3" fill="#D9D9D9"/>
<circle cx="1010" cy="63" r="3" fill="#D9D9D9"/>
<circle cx="1010" cy="83" r="3" fill="#D9D9D9"/>
<circle cx="1010" cy="103" r="3" fill="#D9D9D9"/>
<circle cx="1010" cy="123" r="3" fill="#D9D9D9"/>
<circle cx="1010" cy="143" r="3" fill="#D9D9D9"/>
<circle cx="1028" cy="3" r="3" fill="#D9D9D9"/>
<circle cx="1028" cy="23" r="3" fill="#D9D9D9"/>
<circle cx="1028" cy="43" r="3" fill="#D9D9D9"/>
<circle cx="1028" cy="63" r="3" fill="#D9D9D9"/>
<circle cx="1028" cy="83" r="3" fill="#D9D9D9"/>
<circle cx="1028" cy="103" r="3" fill="#D9D9D9"/>
<circle cx="1028" cy="123" r="3" fill="#D9D9D9"/>
<circle cx="1028" cy="143" r="3" fill="#D9D9D9"/>
<circle cx="1046" cy="3" r="3" fill="#D9D9D9"/>
<circle cx="1046" cy="23" r="3" fill="#D9D9D9"/>
<circle cx="1046" cy="43" r="3" fill="#D9D9D9"/>
<circle cx="1046" cy="63" r="3" fill="#D9D9D9"/>
<circle cx="1046" cy="83" r="3" fill="#D9D9D9"/>
<circle cx="1046" cy="103" r="3" fill="#D9D9D9"/>
<circle cx="1046" cy="123" r="3" fill="#D9D9D9"/>
<circle cx="1046" cy="143" r="3" fill="#D9D9D9"/>
<circle cx="1064" cy="3" r="3" fill="#D9D9D9"/>
<circle cx="1064" cy="23" r="3" fill="#D9D9D9"/>
<circle cx="1064" cy="43" r="3" fill="#D9D9D9"/>
<circle cx="1064" cy="63" r="3" fill="#D9D9D9"/>
<circle cx="1064" cy="83" r="3" fill="#D9D9D9"/>
<circle cx="1064" cy="103" r="3" fill="#D9D9D9"/>
<circle cx="1064" cy="123" r="3" fill="#D9D9D9"/>
<circle cx="1064" cy="143" r="3" fill="#D9D9D9"/>
<circle cx="1082" cy="3" r="3" fill="#D9D9D9"/>
<circle cx="1082" cy="23" r="3" fill="#D9D9D9"/>
<circle cx="1082" cy="43" r="3" fill="#D9D9D9"/>
<circle cx="1082" cy="63" r="3" fill="#D9D9D9"/>
<circle cx="1082" cy="83" r="3" fill="#D9D9D9"/>
<circle cx="1082" cy="103" r="3" fill="#D9D9D9"/>
<circle cx="1082" cy="123" r="3" fill="#D9D9D9"/>
<circle cx="1082" cy="143" r="3" fill="#D9D9D9"/>
<circle cx="1100" cy="3" r="3" fill="#D9D9D9"/>
<circle cx="1100" cy="23" r="3" fill="#D9D9D9"/>
<circle cx="1100" cy="43" r="3" fill="#D9D9D9"/>
<circle cx="1100" cy="63" r="3" fill="#D9D9D9"/>
<circle cx="1100" cy="83" r="3" fill="#D9D9D9"/>
<circle cx="1100" cy="103" r="3" fill="#D9D9D9"/>
<circle cx="1100" cy="123" r="3" fill="#D9D9D9"/>
<circle cx="1100" cy="143" r="3" fill="#D9D9D9"/>
<circle cx="1118" cy="3" r="3" fill="#D9D9D9"/>
<circle cx="1118" cy="23" r="3" fill="#D9D9D9"/>
<circle cx="1118" cy="43" r="3" fill="#D9D9D9"/>
<circle cx="1118" cy="63" r="3" fill="#D9D9D9"/>
<circle cx="1118" cy="83" r="3" fill="#D9D9D9"/>
<circle cx="1118" cy="103" r="3" fill="#D9D9D9"/>
<circle cx="1118" cy="123" r="3" fill="#D9D9D9"/>
<circle cx="1118" cy="143" r="3" fill="#D9D9D9"/>
<circle cx="1136" cy="3" r="3" fill="#D9D9D9"/>
<circle cx="1136" cy="23" r="3" fill="#D9D9D9"/>
<circle cx="1136" cy="43" r="3" fill="#D9D9D9"/>
<circle cx="1136" cy="63" r="3" fill="#D9D9D9"/>
<circle cx="1136" cy="83" r="3" fill="#D9D9D9"/>
<circle cx="1136" cy="103" r="3" fill="#D9D9D9"/>
<circle cx="1136" cy="123" r="3" fill="#D9D9D9"/>
<circle cx="1136" cy="143" r="3" fill="#D9D9D9"/>
<circle cx="1154" cy="3" r="3" fill="#D9D9D9"/>
<circle cx="1154" cy="23" r="3" fill="#D9D9D9"/>
<circle cx="1154" cy="43" r="3" fill="#D9D9D9"/>
<circle cx="1154" cy="63" r="3" fill="#D9D9D9"/>
<circle cx="1154" cy="83" r="3" fill="#D9D9D9"/>
<circle cx="1154" cy="103" r="3" fill="#D9D9D9"/>
<circle cx="1154" cy="123" r="3" fill="#D9D9D9"/>
<circle cx="1154" cy="143" r="3" fill="#D9D9D9"/>
<circle cx="1172" cy="3" r="3" fill="#D9D9D9"/>
<circle cx="1172" cy="23" r="3" fill="#D9D9D9"/>
<circle cx="1172" cy="43" r="3" fill="#D9D9D9"/>
<circle cx="1172" cy="63" r="3" fill="#D9D9D9"/>
<circle cx="1172" cy="83" r="3" fill="#D9D9D9"/>
<circle cx="1172" cy="103" r="3" fill="#D9D9D9"/>
<circle cx="1172" cy="123" r="3" fill="#D9D9D9"/>
<circle cx="1172" cy="143" r="3" fill="#D9D9D9"/>
<circle cx="1190" cy="3" r="3" fill="#D9D9D9"/>
<circle cx="1190" cy="23" r="3" fill="#D9D9D9"/>
<circle cx="1190" cy="43" r="3" fill="#D9D9D9"/>
<circle cx="1190" cy="63" r="3" fill="#D9D9D9"/>
<circle cx="1190" cy="83" r="3" fill="#D9D9D9"/>
<circle cx="1190" cy="103" r="3" fill="#D9D9D9"/>
<circle cx="1190" cy="123" r="3" fill="#D9D9D9"/>
<circle cx="1190" cy="143" r="3" fill="#D9D9D9"/>
<circle cx="1208" cy="3" r="3" fill="#D9D9D9"/>
<circle cx="1208" cy="23" r="3" fill="#D9D9D9"/>
<circle cx="1208" cy="43" r="3" fill="#D9D9D9"/>
<circle cx="1208" cy="63" r="3" fill="#D9D9D9"/>
<circle cx="1208" cy="83" r="3" fill="#D9D9D9"/>
<circle cx="1208" cy="103" r="3" fill="#D9D9D9"/>
<circle cx="1208" cy="123" r="3" fill="#D9D9D9"/>
<circle cx="1208" cy="143" r="3" fill="#D9D9D9"/>
<circle cx="1226" cy="3" r="3" fill="#D9D9D9"/>
<circle cx="1226" cy="23" r="3" fill="#D9D9D9"/>
<circle cx="1226" cy="43" r="3" fill="#D9D9D9"/>
<circle cx="1226" cy="63" r="3" fill="#D9D9D9"/>
<circle cx="1226" cy="83" r="3" fill="#D9D9D9"/>
<circle cx="1226" cy="103" r="3" fill="#D9D9D9"/>
<circle cx="1226" cy="123" r="3" fill="#D9D9D9"/>
<circle cx="1226" cy="143" r="3" fill="#D9D9D9"/>
<circle cx="1244" cy="3" r="3" fill="#D9D9D9"/>
<circle cx="1244" cy="23" r="3" fill="#D9D9D9"/>
<circle cx="1244" cy="43" r="3" fill="#D9D9D9"/>
<circle cx="1244" cy="63" r="3" fill="#D9D9D9"/>
<circle cx="1244" cy="83" r="3" fill="#D9D9D9"/>
<circle cx="1244" cy="103" r="3" fill="#D9D9D9"/>
<circle cx="1244" cy="123" r="3" fill="#D9D9D9"/>
<circle cx="1244" cy="143" r="3" fill="#D9D9D9"/>
<circle cx="1262" cy="3" r="3" fill="#D9D9D9"/>
<circle cx="1262" cy="23" r="3" fill="#D9D9D9"/>
<circle cx="1262" cy="43" r="3" fill="#D9D9D9"/>
<circle cx="1262" cy="63" r="3" fill="#D9D9D9"/>
<circle cx="1262" cy="83" r="3" fill="#D9D9D9"/>
<circle cx="1262" cy="103" r="3" fill="#D9D9D9"/>
<circle cx="1262" cy="123" r="3" fill="#D9D9D9"/>
<circle cx="1262" cy="143" r="3" fill="#D9D9D9"/>
<circle cx="1280" cy="3" r="3" fill="#D9D9D9"/>
<circle cx="1280" cy="23" r="3" fill="#D9D9D9"/>
<circle cx="1280" cy="43" r="3" fill="#D9D9D9"/>
<circle cx="1280" cy="63" r="3" fill="#D9D9D9"/>
<circle cx="1280" cy="83" r="3" fill="#D9D9D9"/>
<circle cx="1280" cy="103" r="3" fill="#D9D9D9"/>
<circle cx="1280" cy="123" r="3" fill="#D9D9D9"/>
<circle cx="1280" cy="143" r="3" fill="#D9D9D9"/>
<circle cx="1298" cy="3" r="3" fill="#D9D9D9"/>
<circle cx="1298" cy="23" r="3" fill="#D9D9D9"/>
<circle cx="1298" cy="43" r="3" fill="#D9D9D9"/>
<circle cx="1298" cy="63" r="3" fill="#D9D9D9"/>
<circle cx="1298" cy="83" r="3" fill="#D9D9D9"/>
<circle cx="1298" cy="103" r="3" fill="#D9D9D9"/>
<circle cx="1298" cy="123" r="3" fill="#D9D9D9"/>
<circle cx="1298" cy="143" r="3" fill="#D9D9D9"/>
<circle cx="1316" cy="3" r="3" fill="#D9D9D9"/>
<circle cx="1316" cy="23" r="3" fill="#D9D9D9"/>
<circle cx="1316" cy="43" r="3" fill="#D9D9D9"/>
<circle cx="1316" cy="63" r="3" fill="#D9D9D9"/>
<circle cx="1316" cy="83" r="3" fill="#D9D9D9"/>
<circle cx="1316" cy="103" r="3" fill="#D9D9D9"/>
<circle cx="1316" cy="123" r="3" fill="#D9D9D9"/>
<circle cx="1316" cy="143" r="3" fill="#D9D9D9"/>
<circle cx="1334" cy="3" r="3" fill="#D9D9D9"/>
<circle cx="1334" cy="23" r="3" fill="#D9D9D9"/>
<circle cx="1334" cy="43" r="3" fill="#D9D9D9"/>
<circle cx="1334" cy="63" r="3" fill="#D9D9D9"/>
<circle cx="1334" cy="83" r="3" fill="#D9D9D9"/>
<circle cx="1334" cy="103" r="3" fill="#D9D9D9"/>
<circle cx="1334" cy="123" r="3" fill="#D9D9D9"/>
<circle cx="1334" cy="143" r="3" fill="#D9D9D9"/>
<circle cx="1352" cy="3" r="3" fill="#D9D9D9"/>
<circle cx="1352" cy="23" r="3" fill="#D9D9D9"/>
<circle cx="1352" cy="43" r="3" fill="#D9D9D9"/>
<circle cx="1352" cy="63" r="3" fill="#D9D9D9"/>
<circle cx="1352" cy="83" r="3" fill="#D9D9D9"/>
<circle cx="1352" cy="103" r="3" fill="#D9D9D9"/>
<circle cx="1352" cy="123" r="3" fill="#D9D9D9"/>
<circle cx="1352" cy="143" r="3" fill="#D9D9D9"/>
<circle cx="1370" cy="3" r="3" fill="#D9D9D9"/>
<circle cx="1370" cy="23" r="3" fill="#D9D9D9"/>
<circle cx="1370" cy="43" r="3" fill="#D9D9D9"/>
<circle cx="1370" cy="63" r="3" fill="#D9D9D9"/>
<circle cx="1370" cy="83" r="3" fill="#D9D9D9"/>
<circle cx="1370" cy="103" r="3" fill="#D9D9D9"/>
<circle cx="1370" cy="123" r="3" fill="#D9D9D9"/>
<circle cx="1370" cy="143" r="3" fill="#D9D9D9"/>
<circle cx="1388" cy="3" r="3" fill="#D9D9D9"/>
<circle cx="1388" cy="23" r="3" fill="#D9D9D9"/>
<circle cx="1388" cy="43" r="3" fill="#D9D9D9"/>
<circle cx="1388" cy="63" r="3" fill="#D9D9D9"/>
<circle cx="1388" cy="83" r="3" fill="#D9D9D9"/>
<circle cx="1388" cy="103" r="3" fill="#D9D9D9"/>
<circle cx="1388" cy="123" r="3" fill="#D9D9D9"/>
<circle cx="1388" cy="143" r="3" fill="#D9D9D9"/>
<circle cx="1406" cy="3" r="3" fill="#D9D9D9"/>
<circle cx="1406" cy="23" r="3" fill="#D9D9D9"/>
<circle cx="1406" cy="43" r="3" fill="#D9D9D9"/>
<circle cx="1406" cy="63" r="3" fill="#D9D9D9"/>
<circle cx="1406" cy="83" r="3" fill="#D9D9D9"/>
<circle cx="1406" cy="103" r="3" fill="#D9D9D9"/>
<circle cx="1406" cy="123" r="3" fill="#D9D9D9"/>
<circle cx="1406" cy="143" r="3" fill="#D9D9D9"/>
<circle cx="1424" cy="3" r="3" fill="#D9D9D9"/>
<circle cx="1424" cy="23" r="3" fill="#D9D9D9"/>
<circle cx="1424" cy="43" r="3" fill="#D9D9D9"/>
<circle cx="1424" cy="63" r="3" fill="#D9D9D9"/>
<circle cx="1424" cy="83" r="3" fill="#D9D9D9"/>
<circle cx="1424" cy="103" r="3" fill="#D9D9D9"/>
<circle cx="1424" cy="123" r="3" fill="#D9D9D9"/>
<circle cx="1424" cy="143" r="3" fill="#D9D9D9"/>
<circle cx="1442" cy="3" r="3" fill="#D9D9D9"/>
<circle cx="1442" cy="23" r="3" fill="#D9D9D9"/>
<circle cx="1442" cy="43" r="3" fill="#D9D9D9"/>
<circle cx="1442" cy="63" r="3" fill="#D9D9D9"/>
<circle cx="1442" cy="83" r="3" fill="#D9D9D9"/>
<circle cx="1442" cy="103" r="3" fill="#D9D9D9"/>
<circle cx="1442" cy="123" r="3" fill="#D9D9D9"/>
<circle cx="1442" cy="143" r="3" fill="#D9D9D9"/>
<circle cx="1460" cy="3" r="3" fill="#D9D9D9"/>
<circle cx="1460" cy="23" r="3" fill="#D9D9D9"/>
<circle cx="1460" cy="43" r="3" fill="#D9D9D9"/>
<circle cx="1460" cy="63" r="3" fill="#D9D9D9"/>
<circle cx="1460" cy="83" r="3" fill="#D9D9D9"/>
<circle cx="1460" cy="103" r="3" fill="#D9D9D9"/>
<circle cx="1460" cy="123" r="3" fill="#D9D9D9"/>
<circle cx="1460" cy="143" r="3" fill="#D9D9D9"/>
<circle cx="1478" cy="3" r="3" fill="#D9D9D9"/>
<circle cx="1478" cy="23" r="3" fill="#D9D9D9"/>
<circle cx="1478" cy="43" r="3" fill="#D9D9D9"/>
<circle cx="1478" cy="63" r="3" fill="#D9D9D9"/>
<circle cx="1478" cy="83" r="3" fill="#D9D9D9"/>
<circle cx="1478" cy="103" r="3" fill="#D9D9D9"/>
<circle cx="1478" cy="123" r="3" fill="#D9D9D9"/>
<circle cx="1478" cy="143" r="3" fill="#D9D9D9"/>
<circle cx="1496" cy="3" r="3" fill="#D9D9D9"/>
<circle cx="1496" cy="23" r="3" fill="#D9D9D9"/>
<circle cx="1496" cy="43" r="3" fill="#D9D9D9"/>
<circle cx="1496" cy="63" r="3" fill="#D9D9D9"/>
<circle cx="1496" cy="83" r="3" fill="#D9D9D9"/>
<circle cx="1496" cy="103" r="3" fill="#D9D9D9"/>
<circle cx="1496" cy="123" r="3" fill="#D9D9D9"/>
<circle cx="1496" cy="143" r="3" fill="#D9D9D9"/>
<circle cx="1514" cy="3" r="3" fill="#D9D9D9"/>
<circle cx="1514" cy="23" r="3" fill="#D9D9D9"/>
<circle cx="1514" cy="43" r="3" fill="#D9D9D9"/>
<circle cx="1514" cy="63" r="3" fill="#D9D9D9"/>
<circle cx="1514" cy="83" r="3" fill="#D9D9D9"/>
<circle cx="1514" cy="103" r="3" fill="#D9D9D9"/>
<circle cx="1514" cy="123" r="3" fill="#D9D9D9"/>
<circle cx="1514" cy="143" r="3" fill="#D9D9D9"/>
<circle cx="1532" cy="3" r="3" fill="#D9D9D9"/>
<circle cx="1532" cy="23" r="3" fill="#D9D9D9"/>
<circle cx="1532" cy="43" r="3" fill="#D9D9D9"/>
<circle cx="1532" cy="63" r="3" fill="#D9D9D9"/>
<circle cx="1532" cy="83" r="3" fill="#D9D9D9"/>
<circle cx="1532" cy="103" r="3" fill="#D9D9D9"/>
<circle cx="1532" cy="123" r="3" fill="#D9D9D9"/>
<circle cx="1532" cy="143" r="3" fill="#D9D9D9"/>
<circle cx="1550" cy="3" r="3" fill="#D9D9D9"/>
<circle cx="1550" cy="23" r="3" fill="#D9D9D9"/>
<circle cx="1550" cy="43" r="3" fill="#D9D9D9"/>
<circle cx="1550" cy="63" r="3" fill="#D9D9D9"/>
<circle cx="1550" cy="83" r="3" fill="#D9D9D9"/>
<circle cx="1550" cy="103" r="3" fill="#D9D9D9"/>
<circle cx="1550" cy="123" r="3" fill="#D9D9D9"/>
<circle cx="1550" cy="143" r="3" fill="#D9D9D9"/>
<circle cx="1568" cy="3" r="3" fill="#D9D9D9"/>
<circle cx="1568" cy="23" r="3" fill="#D9D9D9"/>
<circle cx="1568" cy="43" r="3" fill="#D9D9D9"/>
<circle cx="1568" cy="63" r="3" fill="#D9D9D9"/>
<circle cx="1568" cy="83" r="3" fill="#D9D9D9"/>
<circle cx="1568" cy="103" r="3" fill="#D9D9D9"/>
<circle cx="1568" cy="123" r="3" fill="#D9D9D9"/>
<circle cx="1568" cy="143" r="3" fill="#D9D9D9"/>
<circle cx="1586" cy="3" r="3" fill="#D9D9D9"/>
<circle cx="1586" cy="23" r="3" fill="#D9D9D9"/>
<circle cx="1586" cy="43" r="3" fill="#D9D9D9"/>
<circle cx="1586" cy="63" r="3" fill="#D9D9D9"/>
<circle cx="1586" cy="83" r="3" fill="#D9D9D9"/>
<circle cx="1586" cy="103" r="3" fill="#D9D9D9"/>
<circle cx="1586" cy="123" r="3" fill="#D9D9D9"/>
<circle cx="1586" cy="143" r="3" fill="#D9D9D9"/>
<circle cx="1604" cy="3" r="3" fill="#D9D9D9"/>
<circle cx="1604" cy="23" r="3" fill="#D9D9D9"/>
<circle cx="1604" cy="43" r="3" fill="#D9D9D9"/>
<circle cx="1604" cy="63" r="3" fill="#D9D9D9"/>
<circle cx="1604" cy="83" r="3" fill="#D9D9D9"/>
<circle cx="1604" cy="103" r="3" fill="#D9D9D9"/>
<circle cx="1604" cy="123" r="3" fill="#D9D9D9"/>
<circle cx="1604" cy="143" r="3" fill="#D9D9D9"/>
<circle cx="1622" cy="3" r="3" fill="#D9D9D9"/>
<circle cx="1622" cy="23" r="3" fill="#D9D9D9"/>
<circle cx="1622" cy="43" r="3" fill="#D9D9D9"/>
<circle cx="1622" cy="63" r="3" fill="#D9D9D9"/>
<circle cx="1622" cy="83" r="3" fill="#D9D9D9"/>
<circle cx="1622" cy="103" r="3" fill="#D9D9D9"/>
<circle cx="1622" cy="123" r="3" fill="#D9D9D9"/>
<circle cx="1622" cy="143" r="3" fill="#D9D9D9"/>
<circle cx="1640" cy="3" r="3" fill="#D9D9D9"/>
<circle cx="1640" cy="23" r="3" fill="#D9D9D9"/>
<circle cx="1640" cy="43" r="3" fill="#D9D9D9"/>
<circle cx="1640" cy="63" r="3" fill="#D9D9D9"/>
<circle cx="1640" cy="83" r="3" fill="#D9D9D9"/>
<circle cx="1640" cy="103" r="3" fill="#D9D9D9"/>
<circle cx="1640" cy="123" r="3" fill="#D9D9D9"/>
<circle cx="1640" cy="143" r="3" fill="#D9D9D9"/>
</g>
<defs>
<clipPath id="clip0_672_327">
<rect width="1920" height="1030" fill="white"/>
</clipPath>
</defs>
</svg>
