<svg width="184" height="137" viewBox="0 0 184 137" fill="none" xmlns="http://www.w3.org/2000/svg">
<path fill-rule="evenodd" clip-rule="evenodd" d="M73.6835 1.16914C73.6835 2.05738 72.9659 3.91599 71.6465 6.44392C70.0485 9.50636 69.5741 10.8387 69.4444 12.6301C69.2585 15.2009 69.9235 18.2449 70.6714 18.2449C71.2806 18.2449 73.8014 15.6509 74.4884 14.317C74.7659 13.7778 75.2132 12.5397 75.4824 11.5658C75.9234 9.96817 75.9749 9.91354 76.0067 11.0097C76.0558 12.7138 75.1849 15.3939 73.9425 17.3606C73.3624 18.2794 73.0755 19.0309 73.3051 19.0309C74.1599 19.0309 75.9623 17.8495 77.1209 16.5301C80.2985 12.9107 79.8493 7.33451 75.9387 1.8589C74.3403 -0.379373 73.6835 -0.580208 73.6835 1.16914ZM118.095 1.60343C118.095 1.99803 117.459 3.24431 116.682 4.37347C114.744 7.18556 114.341 9.18959 115.174 11.872C115.445 12.7476 117.608 11.3135 118.465 9.68951C118.891 8.88263 119.247 8.49747 119.257 8.83351C119.266 9.16954 118.748 10.2751 118.104 11.2899C116.788 13.3647 117.18 13.674 119.309 12.2395C121.176 10.981 121.706 9.79013 121.484 7.3463C121.209 4.30587 118.095 -0.970088 118.095 1.60343ZM89.0115 3.46755C89.0115 3.77018 88.5709 4.96418 88.0329 6.12046C86.9681 8.40708 86.8428 9.40457 87.4268 10.9409C87.8768 12.1243 88.5575 11.9742 89.5476 10.4732C90.1913 9.49811 90.1949 9.79524 89.559 11.3669C89.184 12.2933 90.1257 12.0571 91.2372 10.9456C92.1309 10.0519 92.228 9.6903 92.0739 7.82972C91.9493 6.32837 91.5921 5.32223 90.8284 4.3208C89.7118 2.85679 89.0115 2.52783 89.0115 3.46755ZM103.121 4.5464C100.216 6.56851 98.5195 9.87227 99.1888 12.2057C99.5885 13.5997 100.744 15.4937 101.195 15.4937C101.361 15.4937 101.437 14.2997 101.362 12.8408C101.233 10.3176 101.243 10.2802 101.574 12.0795C101.766 13.1198 102.19 14.3779 102.515 14.8751C103.059 15.7036 103.028 15.937 102.151 17.6683C101.626 18.7071 101.195 20.2347 101.195 21.0625C101.195 22.3296 101.326 22.5681 102.02 22.5681C103.344 22.5681 105.42 21.4083 106.695 19.9561C107.345 19.216 107.877 18.7527 107.877 18.926C107.877 19.6794 105.822 22.1665 104.549 22.9529C102.846 24.0058 102.78 24.5333 104.352 24.5333C105.934 24.5333 108.139 23.5825 109.119 22.4777C109.759 21.7557 109.74 21.8477 109.018 22.9612C107.537 25.2434 105.524 27.3359 101.995 30.2612C100.15 31.79 98.1446 33.6927 97.5381 34.4882C94.9057 37.9432 92.9846 43.9793 92.259 51.0754L91.9387 54.2066L90.8005 52.438C88.5945 49.0104 88.2062 46.3976 89.2414 41.9489C89.9634 38.8468 89.7963 37.1922 88.5909 35.4994C87.7707 34.3475 84.8855 32.0007 84.2897 32.0007C84.1352 32.0007 84.4272 32.8265 84.9382 33.8357C86.1117 36.1542 86.1624 39.232 85.0832 42.6694C84.6517 44.043 84.1631 45.3749 83.9973 45.6288C83.8059 45.922 82.6547 44.557 80.8476 41.8951C76.2335 35.0977 71.6453 30.6743 64.6951 26.3211C59.8577 23.2917 55.4209 20.9174 55.1336 21.2047C55.0389 21.2994 54.2729 21.0263 53.431 20.5971C52.5895 20.1679 51.0984 19.7989 50.1174 19.7769L48.3335 19.7368L49.5951 19.3316C50.5399 19.0282 51.4525 19.0765 53.2306 19.5242C55.8854 20.1931 56.1574 19.9164 54.4874 18.2464C51.0501 14.8094 44.7939 16.5553 41.0503 21.9963C40.4085 22.9293 39.8834 23.7712 39.8834 23.8679C39.8834 23.9645 40.6349 23.9634 41.5538 23.8647C42.4727 23.7665 44.2782 23.9649 45.5666 24.3061C48.98 25.2096 51.1691 25.1008 53.5623 23.9087C54.6855 23.3487 55.6044 22.6365 55.6044 22.326C55.6044 21.9346 56.1947 22.1586 57.5283 23.0571C61.7089 25.8723 68.7027 32.2605 68.3066 32.9019C68.171 33.1216 68.246 33.1861 68.474 33.0454C69.317 32.5242 76.7562 41.8464 80.3406 47.9147C82.0675 50.8388 84.2138 55.1333 85.1327 57.5044C85.4711 58.3774 85.444 58.4053 84.7515 57.8975C76.1132 51.5639 72.4903 49.7414 67.2312 49.0843C64.3567 48.7251 64.4007 49.3606 67.2969 50.0319C71.5636 51.0207 75.1468 53.1163 78.8039 56.7612C82.6154 60.5598 84.5208 63.7787 85.9105 68.7662C87.3564 73.9541 86.9933 80.7003 85.0753 84.2839C84.676 85.0299 84.7727 85.3058 85.8083 86.3784C86.4643 87.0579 87.5266 88.7632 88.1684 90.1683C89.8553 93.8607 90.0868 95.1353 88.5182 92.0921C84.7185 84.7214 79.0043 80.2267 70.4757 77.8996C67.5767 77.1089 66.2919 77.0059 59.3381 77.0055C53.3709 77.0051 50.5313 77.18 47.5474 77.7314C34.4204 80.158 18.8578 85.5066 4.51127 92.5225C-0.347299 94.8983 0.673385 94.7388 6.27988 92.2458C19.6836 86.2856 31.3371 82.5393 42.8311 80.4948C48.3067 79.5209 60.4536 79.4993 64.7426 80.4563C74.773 82.6938 82.3757 88.0723 86.2489 95.6706C86.875 96.8996 86.4753 96.4704 84.3164 93.5962C81.2186 89.4722 76.43 86.2223 70.5692 84.2662C59.4042 80.54 45.0195 82.1891 27.1805 89.2408C21.486 91.492 14.8097 94.6224 14.1404 95.3558C13.6526 95.8903 13.5634 95.9245 20.2322 92.9937C46.8396 81.3001 67.0461 81.0725 78.4305 92.339C79.6363 93.5322 81.0315 95.2355 81.5311 96.1246L82.4389 97.7403L80.3649 96.1006C77.6598 93.9625 72.6648 91.5647 68.7495 90.5256C64.4062 89.3728 56.9411 89.0906 52.2283 89.9014C48.4133 90.5578 39.3745 93.3207 40.1542 93.5923C40.4109 93.6815 42.0105 93.316 43.7088 92.7795C48.2042 91.3596 51.3039 90.8883 56.1845 90.8824C63.9581 90.873 70.0952 92.5653 75.8542 96.3062L78.2033 97.8323L42.0451 98.0319C7.60004 98.2221 5.23207 98.2858 20.2322 98.6207C47.5852 99.231 56.3248 99.6005 67.1986 100.606C77.5513 101.563 86.5067 103.207 85.9828 104.055C85.8523 104.266 85.9439 104.316 86.186 104.167C86.7111 103.842 89.3286 105.111 90.2613 106.143C90.6248 106.544 91.1145 107.38 91.3504 108L91.7788 109.127L92.6843 107.41C94.0375 104.845 96.6707 103.549 103.317 102.176C113.459 100.082 141.795 98.4218 167.394 98.4218C173.428 98.4218 178.228 98.2673 178.228 98.0736C178.228 97.8739 162.9 97.6974 142.377 97.6605C122.659 97.6247 106.471 97.5402 106.403 97.4719C106.214 97.2828 111.379 94.2361 113.379 93.3573C117.95 91.3482 121.105 90.79 127.921 90.7841C133.745 90.7794 134.82 90.8883 138.469 91.854C140.704 92.4455 142.886 93.1183 143.317 93.349C143.749 93.5801 144.203 93.6686 144.325 93.5459C144.602 93.2689 142.567 92.4062 139.053 91.3116C137.577 90.8521 136.106 90.3845 135.781 90.272C135.457 90.1593 134.838 90.0303 134.406 89.9851C133.973 89.9403 131.851 89.6805 129.689 89.4082C120.579 88.2602 111.631 90.4383 104.405 95.5633L101.917 97.3284L102.593 96.0082C103.803 93.645 108.629 89.3178 112.071 87.5099C116.649 85.1053 120.314 84.2446 127.086 83.9848C137.898 83.5702 149.545 86.308 163.883 92.6345C169.869 95.276 170.066 95.3507 169.765 94.8626C169.347 94.1877 161.902 90.7849 155.629 88.4028C145.803 84.6711 139.38 83.0722 130.985 82.2673C117.3 80.9558 105.013 85.7208 98.9798 94.6798C97.4831 96.9024 97.221 96.8635 98.5246 94.6122C104.984 83.459 118.026 78.0439 134.873 79.5213C148.29 80.698 162.92 85.0209 179.756 92.7831C181.353 93.5196 182.741 94.0392 182.842 93.9386C183.326 93.4548 165.683 85.8144 157.987 83.1756C144.033 78.3909 135.071 76.6278 124.777 76.6432C119.013 76.6514 117.326 76.7949 114.362 77.5275C105.833 79.6352 99.4325 84.5736 95.9421 91.7404C93.9321 95.8667 93.7667 96.0369 94.8636 92.8483C95.8301 90.0394 96.5351 88.7043 98.2157 86.5029L99.5933 84.6982L98.8375 82.9901C96.2871 77.2248 97.0881 66.6057 100.676 58.6234C102.088 55.48 104.963 50.8659 105.509 50.8659C105.657 50.8659 106.015 50.4241 106.304 49.8841C106.593 49.3437 106.888 48.9601 106.959 49.0312C107.03 49.1028 107.845 48.4389 108.77 47.557C110.667 45.7467 113.926 44.0375 116.962 43.2605C118.087 42.9728 118.847 42.6371 118.649 42.5153C118.452 42.3935 116.683 42.1679 114.718 42.0142C109.126 41.5767 105.195 43.0081 100.934 47.0335C98.5651 49.2718 98.4999 49.1873 98.8901 44.3904C99.3802 38.3752 100.997 35.4078 107.017 29.4759C111.608 24.951 112.893 22.6511 113.258 18.2983C113.553 14.7749 112.942 14.4239 111.805 17.4639C111.321 18.7582 110.899 19.817 110.867 19.817C110.835 19.817 110.864 18.5345 110.931 16.9675C111.059 13.9872 110.353 10.3514 109.597 10.1038C109.354 10.0244 109.069 10.2885 108.965 10.6913C108.859 11.0938 107.719 12.2245 106.431 13.2039L104.09 14.9843L104.834 13.5687C105.463 12.3723 105.531 11.7266 105.276 9.40182C105.111 7.88868 104.986 5.8988 105.001 4.9803C105.015 4.0618 104.997 3.30995 104.962 3.30995C104.926 3.30995 104.098 3.86647 103.121 4.5464ZM60.4614 8.07261C58.9333 10.6622 58.1937 13.22 58.1937 15.9138C58.1937 18.2016 58.3403 18.7405 59.3091 20.0103C60.4425 21.4964 62.3625 22.5681 63.8909 22.5681C64.6569 22.5681 64.6019 22.4204 63.2967 20.9756C61.8193 19.3402 61.0879 17.9112 61.1315 16.7455C61.148 16.3135 61.2923 16.4248 61.5473 17.0658C62.3271 19.0278 65.6914 21.7597 66.6205 21.1855C67.1342 20.8679 67.1067 16.6063 66.582 15.2245C66.3509 14.6161 65.2822 13.1069 64.2073 11.8704C63.1324 10.6343 62.028 8.97224 61.7529 8.17755L61.2522 6.73201L60.4614 8.07261ZM81.5684 14.1279C80.2305 16.8457 79.6889 19.9533 80.137 22.3414C80.4844 24.1952 82.4154 26.3702 84.0169 26.7126C84.7102 26.8607 85.499 27.1602 85.769 27.378C86.7473 28.166 86.2741 26.6481 85.2404 25.6825C84.0629 24.5824 83.3323 23.2606 82.9754 21.5856C82.7266 20.4183 82.7317 20.4203 83.4726 21.7895C84.8647 24.3623 87.6512 26.4194 88.5387 25.5292C89.0732 24.9927 88.7839 20.4222 88.1394 19.2274C87.7896 18.5789 86.6836 17.0941 85.6814 15.928C84.6796 14.7619 83.7587 13.3026 83.6353 12.6855C83.5119 12.0685 83.2804 11.5635 83.1208 11.5635C82.9617 11.5635 82.2629 12.7174 81.5684 14.1279ZM94.9446 15.4304C91.5638 18.8533 90.4944 22.5371 92.0401 25.4372C92.4088 26.1289 92.6741 26.8273 92.6297 26.9897C92.5852 27.1516 92.6815 27.2467 92.8435 27.2011C93.0058 27.1551 93.5513 27.3461 94.0563 27.626C95.2641 28.2949 95.4834 27.9997 94.7948 26.6332C94.0819 25.2183 93.6586 22.5681 94.1455 22.5681C94.348 22.5681 94.5138 22.9336 94.5138 23.3801C94.5138 24.7482 96.4491 27.6774 97.3526 27.6774C97.9426 27.6774 99.2124 24.4087 99.2215 22.8672C99.2262 22.0588 98.8634 20.467 98.415 19.33C97.9669 18.1926 97.469 16.378 97.3086 15.2972L97.017 13.3321L94.9446 15.4304ZM123.794 14.4439C121.804 15.353 120.271 16.9015 119.292 18.994C118.776 20.094 118.467 21.1061 118.605 21.2436C118.743 21.3812 119.485 20.9406 120.255 20.2646C121.954 18.7727 124.109 17.6471 125.956 17.2859C127.178 17.0469 127.092 17.1405 125.189 18.1222C124.01 18.7302 122.756 19.3901 122.401 19.5886C121.624 20.0241 119.494 23.7048 119.826 24.0373C119.955 24.1666 120.99 24.3474 122.124 24.4389C125.044 24.6747 128.053 23.4399 131.556 20.5688C133.123 19.2836 135.082 18.048 135.909 17.8224C137.818 17.302 137.453 16.7875 134.105 15.2744C131.178 13.9519 125.817 13.5199 123.794 14.4439ZM72.328 20.0846C72.5049 20.4776 72.7564 22.5681 72.8865 24.7298C73.017 26.8914 73.3227 29.0137 73.5664 29.4461C74.29 30.7312 76.3388 32.4995 76.7853 32.2236C77.4373 31.8203 78.0308 29.0959 77.7851 27.6322C77.5894 26.4693 77.622 26.3982 78.0433 27.0667C78.3082 27.4872 78.5154 28.8644 78.5036 30.1268C78.4851 32.0966 78.5633 32.3544 79.0562 31.9453C80.0332 31.1341 80.758 29.358 80.758 27.7737C80.758 24.7502 78.1322 21.9275 73.5326 20.0068C72.0765 19.3988 72.021 19.4023 72.328 20.0846ZM114.362 25.5351C113.713 25.8676 112.962 26.4308 112.691 26.7869C112.105 27.5603 112.022 29.799 112.593 29.4461C112.809 29.3124 112.986 29.4791 112.986 29.8159C112.986 30.6023 114.135 30.6023 115.257 29.8163C115.738 29.4795 116.352 29.3309 116.622 29.4861C116.892 29.6414 116.985 29.6276 116.83 29.4551C116.525 29.1179 117.818 27.0183 118.842 26.1883C119.392 25.7418 119.397 25.6369 118.879 25.3099C117.985 24.7443 115.681 24.8595 114.362 25.5351ZM54.6761 27.6826C52.825 29.3077 52.0153 31.5389 52.0016 35.0514C51.9953 36.6455 52.081 38.0411 52.1922 38.1523C52.3038 38.2636 52.746 38.0034 53.1751 37.5742C53.6043 37.145 55.119 36.2387 56.5414 35.5599C58.053 34.8383 59.5154 33.8019 60.0625 33.065C61.1209 31.6387 61.9911 29.3337 61.6684 28.8113C61.0726 27.8472 57.531 28.8927 56.0045 30.4836C55.2605 31.2591 55.1807 31.2815 55.5195 30.6208C56.1079 29.4728 57.2009 28.5775 58.8614 27.8838C60.9295 27.0195 60.6709 26.4984 58.1728 26.4984C56.3445 26.4984 55.8241 26.6744 54.6761 27.6826ZM131.752 27.0462C131.373 27.3339 129.718 27.6912 128.074 27.8402C124.198 28.1915 122.324 28.9725 120.641 30.9388C119.889 31.8168 119.274 32.652 119.274 32.7942C119.274 33.3008 121.3 33.9658 122.843 33.9658C123.704 33.9658 125.022 33.7096 125.772 33.3963C127.616 32.626 127.5 32.9778 125.588 33.9529C124.738 34.3868 123.19 34.788 122.149 34.845C121.109 34.902 120.282 35.1174 120.312 35.3241C120.407 35.9742 122.94 37.11 124.295 37.11C125.794 37.11 128.295 35.9349 129.524 34.6532C130.637 33.4934 133.03 28.537 133.03 27.3937C133.03 26.3765 132.739 26.2971 131.752 27.0462ZM90.7699 30.7666C89.0303 33.3952 88.9859 36.3236 90.6626 37.8851C91.8754 39.0154 92.7244 38.9643 92.1124 37.7978C91.662 36.9398 91.6711 36.934 92.4241 37.6013C93.5882 38.633 94.0559 38.444 94.3609 36.8196C94.5527 35.7973 94.4266 34.8104 93.9471 33.5771C93.5678 32.602 93.0545 31.2292 92.8069 30.5269C92.5589 29.8245 92.2252 29.2495 92.0649 29.2495C91.9049 29.2495 91.3221 29.9322 90.7699 30.7666ZM114.951 32.2298C114.411 32.5297 113.193 32.7777 112.245 32.7809C111.298 32.784 109.851 32.988 109.03 33.234C107.27 33.7611 104.524 36.3924 104.849 37.2397C105.149 38.0207 107.845 38.431 109.226 37.9059C109.841 37.6724 110.432 37.5695 110.54 37.6776C110.848 37.9857 108.638 38.7501 106.791 38.9749C104.721 39.2265 105.085 39.9205 107.667 40.6433C109.239 41.0839 109.58 41.0469 111.207 40.2593C113.307 39.243 114.708 37.5561 115.766 34.7707C116.958 31.6344 116.817 31.1946 114.951 32.2298ZM80.758 35.633C80.758 37.5982 80.9513 38.7835 81.3699 39.3805C82.1685 40.5211 82.4755 40.4826 83.0253 39.1734C83.3327 38.442 83.4121 38.3783 83.2714 38.9769C83.157 39.4631 83.2458 39.8612 83.4687 39.8612C84.0401 39.8612 84.6882 38.5245 84.6882 37.3462C84.6882 36.3248 82.8052 33.8546 81.4902 33.1511C80.8071 32.7852 80.758 32.9514 80.758 35.633ZM142.624 33.5594C142.427 33.7509 140.96 34.0865 139.363 34.305C136.898 34.6426 136.26 34.8957 135.138 35.9832C133.168 37.8925 133.5 38.6821 136.272 38.6821C136.939 38.6821 137.378 38.7882 137.249 38.9179C137.119 39.0476 136.382 39.1538 135.611 39.1538C134.84 39.1538 134.209 39.3082 134.209 39.4973C134.209 39.9382 136.328 41.0403 137.176 41.0403C139.357 41.0403 141.846 38.5744 143.015 35.2534C143.575 33.664 143.38 32.8229 142.624 33.5594ZM61.9911 34.5412C59.8746 35.5265 59.3087 36.324 60.7259 36.324C61.1653 36.324 61.6169 36.5653 61.7301 36.8601C61.8433 37.1552 62.8549 37.8599 63.9778 38.4263C65.5554 39.2221 66.3544 39.401 67.4934 39.2143C68.3042 39.081 68.9672 38.8071 68.9672 38.6047C68.9672 37.8214 68.1144 36.7064 67.0906 36.1507C66.5014 35.8311 66.2161 35.5623 66.4558 35.5536C66.696 35.545 67.5362 35.9746 68.3227 36.5087C69.7101 37.45 69.7533 37.4551 69.7533 36.6749C69.7533 36.2324 69.2365 35.3536 68.6045 34.7216C67.1263 33.2435 64.9085 33.1829 61.9911 34.5412ZM138.14 38.2891C137.785 38.5178 137.737 38.6723 138.018 38.6762C138.275 38.6794 138.595 38.5053 138.729 38.2891C139.03 37.801 138.895 37.801 138.14 38.2891ZM124.222 39.5358C123.377 39.7225 122.05 40.2699 121.274 40.7526L119.864 41.6298L123.065 41.8951C125.067 42.0613 126.86 42.4638 127.852 42.9704C130.164 44.1499 130.203 44.6223 127.917 43.7537C125.47 42.8238 122.7 42.8112 120.676 43.7207L119.13 44.4152L120.613 46.0568C122.912 48.6017 125.516 49.6738 130.523 50.138C134.936 50.5467 137.349 51.2475 137.359 52.1232C137.364 52.5166 137.445 52.5083 137.712 52.087C138.127 51.4318 137.002 47.9433 135.611 45.5687C134.438 43.5682 131.448 40.7616 129.764 40.0805C127.939 39.3424 125.972 39.149 124.222 39.5358ZM57.2386 43.9679C57.3491 46.1547 57.5931 47.1746 58.2039 47.9964C59.3515 49.5418 60.7522 50.2539 62.0182 49.9364C63.1241 49.6589 63.4798 48.9007 62.5043 48.9007C62.1919 48.9007 61.5202 48.503 61.0113 48.0164C60.5023 47.5299 60.3596 47.3322 60.6945 47.577C61.5988 48.2377 62.8809 48.5565 63.5706 48.2916C64.0493 48.108 64.1059 47.7999 63.8343 46.8531C63.3666 45.2224 62.4434 44.2792 60.204 43.1433C59.1672 42.6175 58.2196 41.9293 58.0985 41.6137C57.9775 41.2985 57.7012 41.0403 57.4846 41.0403C57.2433 41.0403 57.1478 42.1753 57.2386 43.9679ZM74.0207 44.686C73.028 45.1458 70.1463 47.5126 70.1463 47.8679C70.1463 48.2758 72.78 48.9007 74.4998 48.9007C76.0605 48.9007 76.5153 48.7259 77.1921 47.8651C77.9895 46.8515 78.2725 45.7566 77.7372 45.7566C77.589 45.7566 77.0156 46.1543 76.463 46.6409C75.4942 47.4929 75.484 47.4941 76.1773 46.6699C77.6488 44.921 76.2637 43.6464 74.0207 44.686ZM113.379 48.6453C113.379 49.7116 115.159 52.3193 116.73 53.5553C118.353 54.8319 117.27 54.5737 115.439 53.248C114.562 52.6125 113.525 51.5513 113.134 50.8898C112.743 50.228 112.262 49.6868 112.065 49.6868C111.467 49.6868 112.167 52.9505 113.016 54.1166C113.451 54.7159 113.702 55.377 113.573 55.5861C113.444 55.7952 113.584 55.8718 113.885 55.7563C114.186 55.6407 114.661 55.8215 114.94 56.1579C116.302 57.8 121.685 58.3101 125.096 57.1208C126.529 56.6217 126.699 56.1391 125.567 55.7802C125.138 55.6439 123.694 54.1956 122.359 52.5618C119.753 49.3732 117.141 47.7331 114.656 47.7256C113.577 47.7225 113.379 47.8643 113.379 48.6453ZM53.7509 51.0144L52.3022 52.3425L54.3236 52.6203C55.435 52.7732 56.6892 52.7889 57.1101 52.6553C58.1697 52.3193 58.4641 50.5585 57.5436 50.0661C56.2871 49.3936 55.2318 49.6577 53.7509 51.0144ZM61.2553 51.2526C59.9583 51.7765 58.7486 54.6872 58.7486 57.284V59.5234L60.2225 58.6226C61.0333 58.1274 62.2229 57.4569 62.8663 57.133C64.2014 56.4618 65.9075 54.15 65.7338 53.2484C65.5684 52.3881 64.451 52.2808 63.0326 52.9882C62.1109 53.448 61.9223 53.4653 62.2595 53.0593C62.5043 52.7642 63.2417 52.3004 63.8976 52.0284C64.765 51.6692 64.949 51.4452 64.5721 51.2062C63.9188 50.792 62.3412 50.814 61.2553 51.2526ZM70.1463 53.6119C70.1463 53.825 70.7437 54.249 71.474 54.5544C72.2042 54.8594 72.9309 55.3184 73.0893 55.5747C73.261 55.8522 72.8916 55.7893 72.1743 55.4183C70.82 54.7179 69.5214 54.6106 69.1752 55.1707C69.0478 55.3766 69.2585 56.2169 69.6432 57.0375C70.1671 58.1557 70.8766 58.8002 72.4699 59.6071C73.6395 60.1998 74.9216 60.9788 75.3193 61.3384C75.7166 61.698 76.0546 61.9209 76.0708 61.8332C76.0869 61.7456 76.18 61.2382 76.2779 60.7056C76.599 58.9555 75.6648 55.6828 74.4837 54.418C73.592 53.4638 73.0449 53.224 71.7573 53.224C70.871 53.224 70.1463 53.3985 70.1463 53.6119ZM106.698 54.2321C106.698 54.8154 107.066 55.8887 107.516 56.6166C107.965 57.3445 108.238 57.9403 108.122 57.9403C108.005 57.9403 107.416 57.1004 106.812 56.0734C105.731 54.2341 105.713 54.2231 105.586 55.3349C105.201 58.7024 107.868 60.9831 112.275 61.0546C114.41 61.0892 114.854 60.6887 113.769 59.7062C113.346 59.323 112.467 58.0665 111.817 56.9145C110.704 54.9431 109.655 54.0832 107.582 53.4437C106.816 53.2075 106.698 53.3128 106.698 54.2321Z" fill="#186F65"/>
<path d="M1.87147 131.164V117.228H4.45968V128.974H11.7465V131.164H1.87147ZM21.654 131.164V117.228H23.1273V131.164H21.654ZM44.6842 118.502H36.601V123.977H43.8082V125.251H36.601V131.164H35.1277V117.228H44.6842V118.502ZM56.6658 129.89H65.0477V131.164H55.1926V117.228H64.749V118.502H56.6658V123.459H63.873V124.713H56.6658V129.89ZM79.8989 131.363C77.7288 131.363 75.5587 130.686 74.4039 129.691L75.2998 127.68C76.4148 128.576 78.1867 129.213 79.8989 129.213C82.069 129.213 82.9848 128.436 82.9848 127.401C82.9848 124.395 74.7026 126.366 74.7026 121.19C74.7026 118.94 76.4944 117.028 80.317 117.028C81.9894 117.028 83.7414 117.466 84.9558 118.263L84.1396 120.274C82.8853 119.537 81.5115 119.179 80.2971 119.179C78.1469 119.179 77.2709 120.015 77.2709 121.07C77.2709 124.037 85.5332 122.105 85.5332 127.222C85.5332 129.452 83.7215 131.363 79.8989 131.363ZM102.016 131.284C97.8353 131.284 94.7294 128.277 94.7294 124.196C94.7294 120.114 97.8353 117.108 102.036 117.108C104.067 117.108 105.899 117.785 107.133 119.139L106.197 120.075C105.062 118.92 103.669 118.422 102.076 118.422C98.7113 118.422 96.1828 120.891 96.1828 124.196C96.1828 127.501 98.7113 129.97 102.076 129.97C103.669 129.97 105.062 129.472 106.197 128.297L107.133 129.233C105.899 130.587 104.067 131.284 102.016 131.284ZM128.869 131.164H127.256L124.071 126.684C123.712 126.724 123.354 126.744 122.956 126.744H119.213V131.164H117.74V117.228H122.956C126.5 117.228 128.65 119.019 128.65 122.006C128.65 124.196 127.495 125.729 125.464 126.386L128.869 131.164ZM122.916 125.49C125.703 125.49 127.177 124.196 127.177 122.006C127.177 119.776 125.703 118.502 122.916 118.502H119.213V125.49H122.916ZM139.593 131.164V117.228H141.066V131.164H139.593ZM158.283 117.228C161.827 117.228 163.977 119.019 163.977 122.006C163.977 124.972 161.827 126.764 158.283 126.764H154.54V131.164H153.067V117.228H158.283ZM158.243 125.47C161.031 125.47 162.504 124.196 162.504 122.006C162.504 119.776 161.031 118.502 158.243 118.502H154.54V125.47H158.243ZM176.87 131.164V118.502H171.972V117.228H183.241V118.502H178.343V131.164H176.87Z" fill="#186F65"/>
</svg>
