<svg width="359" height="346" viewBox="0 0 359 346" fill="none" xmlns="http://www.w3.org/2000/svg">
<path fill-rule="evenodd" clip-rule="evenodd" d="M43.1793 80.6056C34.9463 81.4666 27.3814 85.1572 21.2005 91.3283C7.01534 105.491 6.66951 127.342 20.39 142.521C27.108 149.952 34.4681 153.422 45.9849 154.589C53.1551 155.315 57.8216 156.735 62.7226 159.682C80.637 170.453 83.7754 194.449 69.1764 209.025C62.6156 215.575 55.2567 218.298 44.1129 218.298C36.0457 218.298 31.2851 219.069 26.2202 221.195C13.1969 226.663 4.72694 236.762 1.15855 251.079C-1.02839 259.851 -0.115258 268.7 3.86454 277.3C8.32441 286.938 13.8193 292.839 22.3258 297.125C30.7549 301.374 19.1694 301.095 180.047 300.917L325.616 300.757L330.056 299.136C339.024 295.862 349.334 287.024 354.088 278.537C363.664 261.441 357.799 236.908 341.557 226.128C336.492 222.767 333.98 221.647 323.908 218.262C311.392 214.055 305.386 209.923 301.28 202.694C293.968 189.823 295.87 174.829 306.119 164.523C312.436 158.171 315.217 156.921 330.84 153.407C337.739 151.855 342.639 148.984 348.327 143.161C352.763 138.621 354.424 136.145 356.485 130.999C360.859 120.084 359.45 106.832 352.862 96.9232C349.714 92.1881 343.302 86.5951 338.048 84.004C329.318 79.697 338.901 79.9465 185.942 80.0367C109.986 80.0812 45.743 80.3375 43.1793 80.6056Z" fill="#EDEDED"/>
<path d="M13 47.5H42.5" stroke="#B5B5B5" stroke-width="4" stroke-linecap="round"/>
<path d="M26 16L47.7769 35.9002" stroke="#B5B5B5" stroke-width="4" stroke-linecap="round"/>
<path d="M58 2L58 31.5" stroke="#B5B5B5" stroke-width="4" stroke-linecap="round"/>
<rect x="97" y="28" width="218" height="40" rx="20" fill="#EDEDED"/>
<path d="M75 254H217C227.493 254 236 245.493 236 235V92.0113C236 86.8888 233.932 81.9833 230.264 78.4073L201.534 50.396C197.986 46.9363 193.226 45 188.27 45H75C64.5066 45 56 53.5066 56 64V235C56 245.493 64.5066 254 75 254Z" stroke="#B5B5B5" stroke-width="4" stroke-linecap="round" stroke-dasharray="10 10"/>
<circle cx="185.5" cy="189.5" r="72.5" fill="white"/>
<path fill-rule="evenodd" clip-rule="evenodd" d="M174.706 114.249C151.725 117.056 131.634 129.484 118.613 148.948C116.05 152.778 111.775 161.387 110.271 165.746C107.413 174.027 106.039 182.256 106.001 191.316C105.972 198.284 106.415 202.56 107.83 208.991C114.435 239.019 138.75 262.565 169.139 268.363C188.986 272.149 209.409 268.055 226.694 256.822L230.023 254.659L231.035 256.024C231.593 256.775 233.816 259.138 235.976 261.274L239.903 265.16L249.439 255.648C254.684 250.417 258.975 245.964 258.975 245.753C258.975 245.542 256.626 243.069 253.754 240.257L248.534 235.144L250.385 232.064C261.044 214.334 264.252 192.571 259.168 172.492C251.592 142.568 227.004 119.982 196.333 114.771C192.152 114.06 178.872 113.74 174.706 114.249ZM176.757 124.349C146.561 127.64 122.659 150.03 117.025 180.304C116.518 183.029 116.368 185.753 116.376 192.063C116.386 199.517 116.479 200.709 117.383 204.963C119.289 213.941 122.697 222.093 127.756 229.766C131.478 235.412 140 243.951 145.77 247.815C153.336 252.884 161.432 256.274 170.604 258.216C174.78 259.1 176.099 259.206 183.282 259.229C191.931 259.258 194.053 259.011 201.18 257.146C222.871 251.471 240.67 234.78 247.695 213.527C253.432 196.171 252.365 178.637 244.581 162.386C235.071 142.529 216.252 128.443 194.468 124.875C189.969 124.138 181.109 123.875 176.757 124.349ZM178.062 126.576C161.195 127.979 144.852 136.372 134.136 149.134C126.41 158.337 121.398 168.923 119.292 180.491C118.352 185.652 118.338 198.042 119.266 202.977C121.857 216.749 127.783 228.12 137.419 237.811C142.197 242.617 145.15 244.933 150.654 248.192C173.287 261.593 202.483 259.854 223.296 243.866C235.969 234.131 244.694 220.122 247.888 204.382C248.614 200.803 248.719 199.149 248.706 191.503C248.692 183.83 248.584 182.239 247.845 178.811C241.583 149.74 218.403 129.154 189.027 126.574C184.138 126.145 183.241 126.145 178.062 126.576ZM176.198 129.57C160.973 131.532 147.16 138.783 137.149 150.068C123.79 165.126 118.492 184.859 122.509 204.593C124.979 216.73 131.332 228.132 140.506 236.894C145.346 241.516 149.63 244.579 155.315 247.481C168.022 253.967 182.46 255.927 196.474 253.068C217.92 248.692 236.028 232.573 242.949 211.698C245.572 203.787 246.501 197.3 246.163 189.263C244.981 161.137 225.862 137.806 198.299 130.853C192.256 129.329 182.477 128.761 176.198 129.57ZM124.564 184.224C121.421 212.537 138.141 238.707 164.992 247.5C191.123 256.058 219.515 245.537 234.002 221.926C238.026 215.368 241.085 206.616 241.961 199.156C242.154 197.508 242.077 197.639 241.304 200.275C237.33 213.819 229.67 224.73 218.51 232.746C197.347 247.947 168.004 247.223 147.608 230.996C133.865 220.063 126.039 204.602 125.16 186.65L124.895 181.238L124.564 184.224ZM252.446 258.326L242.762 268.026L244.718 269.985L246.674 271.942L256.373 262.232L266.072 252.523L264.101 250.574L262.13 248.626L252.446 258.326ZM259.002 265.266L249.52 274.8L280.534 305.849L311.548 336.898L321.244 327.195L330.941 317.493L300.086 286.601C283.116 269.611 269.063 255.715 268.857 255.721C268.652 255.727 264.217 260.023 259.002 265.266ZM324.041 329.998L314.347 339.738L317.037 342.322C320.527 345.674 321.659 346.149 325.719 345.966C329.691 345.787 331.909 344.695 335.443 341.176C338.418 338.215 339.906 335.32 340.175 331.974C340.48 328.164 339.815 326.546 336.553 323.172L333.736 320.257L324.041 329.998Z" fill="#B2B2B2"/>
<circle cx="184.454" cy="191.334" r="61.6425" fill="white"/>
<path d="M170.535 177.014C170.535 171.219 175.26 166.507 181.071 166.507H186.338C192.149 166.507 196.873 171.219 196.873 177.014V177.606C196.873 181.185 195.046 184.517 192.034 186.438L185.087 190.887C183.047 192.195 181.37 193.993 180.208 196.116C179.046 198.238 178.437 200.618 178.437 203.036V203.283C178.437 206.189 180.791 208.536 183.704 208.536C186.618 208.536 188.972 206.189 188.972 203.283V203.053C188.972 201.707 189.663 200.459 190.783 199.736L197.729 195.287C203.754 191.413 207.409 184.764 207.409 177.606V177.014C207.409 165.407 197.976 156 186.338 156H181.071C169.432 156 160 165.407 160 177.014C160 179.92 162.354 182.268 165.268 182.268C168.181 182.268 170.535 179.92 170.535 177.014ZM183.704 229.551C185.451 229.551 187.125 228.859 188.36 227.627C189.595 226.396 190.289 224.725 190.289 222.984C190.289 221.242 189.595 219.572 188.36 218.34C187.125 217.109 185.451 216.417 183.704 216.417C181.958 216.417 180.283 217.109 179.048 218.34C177.814 219.572 177.12 221.242 177.12 222.984C177.12 224.725 177.814 226.396 179.048 227.627C180.283 228.859 181.958 229.551 183.704 229.551Z" fill="#B2B2B2"/>
</svg>
