<svg width="50" height="50" viewBox="0 0 50 50" fill="none" xmlns="http://www.w3.org/2000/svg">
<circle cx="25" cy="25" r="25" fill="#197065"/>
<path fill-rule="evenodd" clip-rule="evenodd" d="M25.3377 11.6656C25.1869 11.8476 25.0789 13.4664 25.1721 14.1481C25.3808 15.6746 26.182 17.0984 27.3619 18.0397C28.1719 18.686 28.193 18.7093 28.193 18.9587C28.193 19.3861 27.3787 19.9025 26.4663 20.0537C26.2747 20.0855 26.0417 20.1937 25.908 20.313L25.6784 20.5177L25.6097 21.7163C25.572 22.3756 25.5228 22.9331 25.5005 22.9553C25.4781 22.9775 24.7232 22.9956 23.8229 22.9956C22.0614 22.9956 21.9391 23.0188 21.5716 23.4221C20.9956 24.054 21.048 25.1468 21.6994 26.0874C22.1871 26.7915 23.1101 27.489 23.901 27.7512C24.1939 27.8484 24.2636 27.9017 24.2247 27.9992C24.0504 28.4377 23.9509 29.2293 23.9944 29.8319C24.0521 30.6287 23.9354 30.9837 23.4911 31.3632C23.084 31.7109 22.6951 31.781 21.1812 31.7792C17.7198 31.7752 15.0005 30.8535 13.2497 29.0911C12.6723 28.5098 12.5008 28.4392 12.1914 28.6555C11.959 28.818 11.9783 28.9326 12.3237 29.4401C12.9551 30.368 14.0224 31.2482 15.3274 31.9172L16.0812 32.3037L15.9108 32.941C15.658 33.8857 15.5479 34.8497 15.5482 36.1166C15.5487 37.7803 15.6259 37.9604 16.3399 37.9631C16.6052 37.9641 16.6191 37.9502 16.7718 37.5305C17.1507 36.4894 17.312 35.3727 17.3123 33.789C17.3125 32.7437 17.3126 32.7434 17.4825 32.7813C19.0716 33.1363 19.8911 33.2607 21.0905 33.3287C22.3154 33.3982 23.3199 33.2803 23.9295 32.9957C24.5524 32.7047 25.0764 32.1786 25.4034 31.5159C25.6544 31.0072 25.6622 30.964 25.6743 30.0102C25.6851 29.1776 25.7167 28.9391 25.8821 28.4415C26.1059 27.769 26.1102 27.7222 25.9847 27.3044C25.8567 26.8782 25.4287 26.4738 24.9342 26.3122C24.0099 26.0101 23.3285 25.529 23.048 24.9802L22.9008 24.6923H24.0303C25.8179 24.6923 26.7285 24.5248 27.0118 24.1438C27.15 23.958 27.1708 23.7996 27.1982 22.724C27.2246 21.6904 27.2471 21.5073 27.3521 21.4719C27.8355 21.3085 28.6124 20.8699 28.9416 20.5746C29.4214 20.144 29.6332 19.7477 29.6843 19.1846C29.7622 18.3277 29.411 17.7373 28.4506 17.1102C27.8848 16.7408 27.1707 16.011 26.8465 15.4709C26.3898 14.7101 26.2175 14.0686 26.1464 12.8643C26.1102 12.252 26.0444 11.7356 25.995 11.6763C25.8864 11.5458 25.4431 11.5385 25.3377 11.6656ZM38.3891 22.4262C37.8833 22.5793 37.8794 22.5871 37.9852 23.2502C38.2 24.5974 38.2687 25.9043 38.1761 26.8785C37.9122 29.6517 37.0976 31.6498 35.1704 34.2506L34.7651 34.7976L35.0219 35.0771C35.2489 35.3245 35.2993 35.3473 35.4571 35.2748C35.8073 35.1142 36.5807 34.4794 37.0772 33.9451C39.4309 31.4121 40.3749 27.6338 39.4842 24.312C39.2932 23.5993 38.7548 22.3495 38.6439 22.3611C38.6101 22.3647 38.4954 22.394 38.3891 22.4262ZM34.2377 23.7687L33.9733 23.9005L34.0111 24.4661C34.2 27.2946 33.824 28.8624 32.4495 30.9761C32.1468 31.4418 31.9811 31.7691 32.0069 31.8503C32.0297 31.9218 32.1467 32.0745 32.267 32.1895L32.4857 32.3986L32.8517 32.1889C33.4009 31.8743 34.3801 30.8511 34.7578 30.1971C34.9375 29.886 35.2078 29.2752 35.3583 28.8398C35.6282 28.0595 35.6322 28.0303 35.6339 26.8414C35.6355 25.7151 35.6212 25.5912 35.4193 24.9766C35.1695 24.216 34.8308 23.6365 34.6361 23.6368C34.5624 23.6368 34.3832 23.6962 34.2377 23.7687ZM30.3464 25.0158L30.0442 25.1859L29.9815 25.8629C29.8848 26.9068 29.7962 27.2678 29.4735 27.9338C29.1297 28.6434 29.1187 28.7354 29.3339 29.0994C29.5194 29.4132 29.7137 29.4428 30.1455 29.2229C31.2801 28.6452 31.8455 27.1215 31.4338 25.7504C31.337 25.4278 30.8868 24.8423 30.7372 24.8443C30.6885 24.845 30.5127 24.9222 30.3464 25.0158Z" fill="white"/>
</svg>
