<svg width="18" height="18" viewBox="0 0 18 18" fill="none" xmlns="http://www.w3.org/2000/svg">
<path d="M8.87435 7.58268C10.4392 7.58268 11.7077 6.31416 11.7077 4.74935C11.7077 3.18454 10.4392 1.91602 8.87435 1.91602C7.30954 1.91602 6.04102 3.18454 6.04102 4.74935C6.04102 6.31416 7.30954 7.58268 8.87435 7.58268Z" stroke="#30422E" stroke-width="1.5"/>
<path d="M14.5392 13.2487C14.5413 13.1325 14.5413 13.0142 14.5413 12.8945C14.5413 11.1343 12.0041 9.70703 8.87467 9.70703C5.74526 9.70703 3.20801 11.1343 3.20801 12.8945C3.20801 14.6547 3.20801 16.082 8.87467 16.082C10.455 16.082 11.5947 15.9708 12.4163 15.7725" stroke="#30422E" stroke-width="1.5" stroke-linecap="round"/>
</svg>
