<svg width="20" height="20" viewBox="0 0 20 20" fill="none" xmlns="http://www.w3.org/2000/svg">
<g clip-path="url(#clip0_1870_6738)">
<mask id="path-1-outside-1_1870_6738" maskUnits="userSpaceOnUse" x="-0.28418" y="-0.164062" width="20" height="20" fill="black">
<rect fill="#30422E" x="-0.28418" y="-0.164062" width="20" height="20"/>
<path fill-rule="evenodd" clip-rule="evenodd" d="M17.7305 0.87107C17.6731 0.888326 17.5729 0.943211 17.5079 0.993049C17.4429 1.04292 16.9974 1.6536 16.518 2.35014L15.6463 3.61653H10.9872C5.8962 3.61653 6.12238 3.60737 5.70301 3.83051C5.44424 3.96818 5.01819 4.40307 4.87654 4.67415C4.62591 5.15379 4.64071 4.69838 4.65148 11.5835L4.66116 17.8109L4.74837 18.027C4.93599 18.4921 5.33562 18.8812 5.81155 19.0622L6.03421 19.1468L11.5042 19.1567C16.5719 19.1658 16.9794 19.162 17.0428 19.1045C17.0994 19.0533 17.1114 18.9865 17.1114 18.7198C17.1114 18.4467 17.0984 18.3776 17.0276 18.271C16.9132 18.0988 16.6627 17.9779 16.4207 17.9779H16.2281L16.1824 17.7871C16.1329 17.5806 16.152 17.1825 16.2207 16.9894C16.2604 16.8778 16.2722 16.8723 16.5008 16.8578C16.7651 16.8409 16.8883 16.7732 17.0279 16.5681L17.1114 16.4454V11.5768C17.1114 6.90721 17.1086 6.70559 17.0435 6.6467C16.9602 6.57137 16.8522 6.56806 16.7566 6.63794C16.6861 6.68952 16.6844 6.78434 16.6749 11.1467L16.6652 15.6029H11.4721C7.82425 15.6029 6.22057 15.6151 6.08241 15.6439C5.80372 15.702 5.43738 15.884 5.24845 16.0581L5.08695 16.207L5.09671 10.7189L5.10647 5.23079L5.22526 4.97997C5.3832 4.64658 5.66608 4.35219 5.97443 4.20041L6.21816 4.0804L10.7759 4.07057L15.3337 4.0607L15.1758 4.29322C15.0889 4.4211 14.0726 5.89661 12.9172 7.5721L10.8165 10.6185L10.6362 11.4779L10.4559 12.3372H10.0427C9.58131 12.3372 9.49466 12.3696 9.49466 12.542C9.49466 12.7459 9.59741 12.7825 10.1693 12.7825H10.678L10.9039 12.6434C11.0282 12.5669 11.4074 12.3289 11.7466 12.1146L12.3634 11.7249L15.6492 6.9638C17.4564 4.34518 18.9589 2.14559 18.9881 2.07583C19.0599 1.90386 19.0534 1.69842 18.9705 1.51985C18.8835 1.33253 18.797 1.24279 18.5303 1.06311C18.2026 0.842236 17.9937 0.792064 17.7305 0.87107ZM17.808 1.31638C17.7727 1.33798 17.6933 1.42908 17.6316 1.51885L17.5193 1.6821L17.9315 1.96776L18.3438 2.25347L18.4308 2.14641C18.662 1.862 18.6402 1.71297 18.3323 1.47391C18.1168 1.30659 17.9205 1.24758 17.808 1.31638ZM17.0645 2.34413C16.9533 2.5031 15.6135 4.44441 14.0872 6.65817L11.3123 10.6832L11.4956 10.8518C11.6576 11.0007 12.1282 11.2895 12.1534 11.2553C12.3701 10.9624 18.0759 2.6502 18.0753 2.62831C18.0746 2.60052 17.9544 2.51461 17.3661 2.12147L17.2669 2.05516L17.0645 2.34413ZM1.22892 2.18099C1.04882 2.23833 0.796777 2.50065 0.748089 2.68145C0.720257 2.78484 0.711202 5.19921 0.717956 10.7309L0.727568 18.6327L0.829952 18.7874C0.886247 18.8725 1.00188 18.9881 1.0869 19.0444L1.2415 19.1468L2.42061 19.158C3.56781 19.1689 3.60176 19.1671 3.67583 19.0931L3.75198 19.0169V10.6488C3.75198 2.33006 3.75154 2.28015 3.67776 2.20638C3.60662 2.13524 3.55675 2.13231 2.48099 2.13594C1.77068 2.13836 1.31085 2.15487 1.22892 2.18099ZM1.35312 2.61428C1.30937 2.63191 1.24676 2.68468 1.21396 2.73151C1.15963 2.80903 1.15433 3.51608 1.15433 10.6599V18.5031L1.2628 18.6116L1.37127 18.72H2.33897H3.30667V18.2191V17.7181H3.07373C2.7959 17.7181 2.67581 17.652 2.67581 17.4991C2.67581 17.3322 2.77641 17.2728 3.05911 17.2728H3.30667V16.9227V16.5727L2.69128 16.5609C2.13264 16.5502 2.07108 16.5425 2.02332 16.4771C1.95407 16.3823 1.95656 16.2532 2.02903 16.1807C2.07731 16.1324 2.19227 16.1224 2.697 16.1224H3.30667V15.7513V15.3802H3.04954C2.75879 15.3802 2.67581 15.3307 2.67581 15.157C2.67581 15.0007 2.79374 14.9349 3.07373 14.9349H3.30667V14.5824V14.2298H3.05266C2.77088 14.2298 2.67581 14.172 2.67581 14.0007C2.67581 13.8439 2.78116 13.7845 3.05911 13.7845H3.30667V13.432V13.0794H2.72119C2.06748 13.0794 1.97073 13.0512 1.97073 12.8604C1.97073 12.6567 2.04406 12.6341 2.70657 12.6341H3.30667V12.2816V11.929L3.09329 11.9285C2.81423 11.9278 2.69767 11.8684 2.68308 11.7195C2.66527 11.5379 2.74951 11.4837 3.04954 11.4837H3.30667V11.1126V10.7415H3.04954C2.75879 10.7415 2.67581 10.692 2.67581 10.5183C2.67581 10.3621 2.79374 10.2962 3.07373 10.2962H3.30667V9.94368V9.59114H2.70012C2.15962 9.59114 2.08688 9.58376 2.03215 9.52327C1.9445 9.42641 1.95463 9.27267 2.05323 9.20361C2.11939 9.15722 2.25132 9.14583 2.72119 9.14583H3.30667V8.79329V8.44075H3.07373C2.7959 8.44075 2.67581 8.37466 2.67581 8.22173C2.67581 8.05485 2.77641 7.99544 3.05911 7.99544H3.30667V7.6429V7.29036L3.09329 7.2898C2.81423 7.2891 2.69767 7.22972 2.68308 7.0808C2.66527 6.89923 2.74951 6.84505 3.04954 6.84505H3.30667V6.47396V6.10286H2.697C2.19227 6.10286 2.07731 6.09284 2.02903 6.04456C1.94873 5.96422 1.956 5.82072 2.04495 5.73177C2.11297 5.66375 2.16864 5.65755 2.71292 5.65755H3.30667V5.30501V4.95247H3.05266C2.76929 4.95247 2.67581 4.89473 2.67581 4.71972C2.67581 4.57381 2.80053 4.50716 3.07373 4.50716H3.30667V4.15462V3.80208H3.07373C2.7959 3.80208 2.67581 3.73599 2.67581 3.58306C2.67581 3.41618 2.77641 3.35677 3.05911 3.35677H3.30667V2.96712V2.57747L2.36966 2.57981C1.85428 2.58111 1.39687 2.59662 1.35312 2.61428ZM11.0337 8.3872C10.9357 8.45578 10.923 8.62986 11.0095 8.71644C11.0941 8.80097 11.404 8.79474 11.4835 8.70686C11.635 8.5395 11.504 8.32942 11.2481 8.32942C11.1755 8.32942 11.079 8.35544 11.0337 8.3872ZM9.99552 8.59034C9.7955 8.67922 9.72804 8.80758 9.81313 8.93739C9.90642 9.07981 9.99697 9.08716 10.2354 8.9716C10.4219 8.88124 10.4517 8.85222 10.4615 8.75154C10.4838 8.52258 10.295 8.45727 9.99552 8.59034ZM8.98281 9.2808C8.88165 9.37543 8.79886 9.4826 8.79886 9.51896C8.79886 9.71527 8.95679 9.81205 9.1305 9.72225C9.39632 9.58476 9.51392 9.28325 9.34722 9.1665C9.22402 9.08018 9.18379 9.0928 8.98281 9.2808ZM8.39622 10.0994C8.33443 10.124 8.16885 10.4718 8.16837 10.5781C8.16755 10.7513 8.43244 10.8464 8.54614 10.7137C8.60993 10.6393 8.72464 10.3586 8.72464 10.2769C8.72464 10.1449 8.53683 10.0434 8.39622 10.0994ZM11.0651 11.5986C11.02 11.8251 10.9914 12.0187 11.0016 12.029C11.0119 12.0392 11.181 11.9434 11.3776 11.8161C11.5741 11.6887 11.7214 11.5731 11.7049 11.5591C11.6403 11.5044 11.1782 11.1868 11.1631 11.1868C11.1543 11.1868 11.1103 11.3721 11.0651 11.5986ZM8.11233 11.2683C8.00223 11.3308 7.98364 11.3734 7.98301 11.5651C7.98256 11.7034 7.99945 11.7512 8.06494 11.797C8.25112 11.9275 8.42813 11.8061 8.42721 11.5487C8.42654 11.3699 8.40583 11.327 8.29105 11.2666C8.1946 11.2159 8.20496 11.2158 8.11233 11.2683ZM8.15156 12.4197C8.07381 12.5307 8.07882 12.6192 8.168 12.7083C8.22808 12.7684 8.29168 12.7825 8.50198 12.7825C8.71228 12.7825 8.77589 12.7684 8.83597 12.7083C8.92514 12.6192 8.93015 12.5307 8.85241 12.4197C8.80101 12.3463 8.76234 12.3372 8.50198 12.3372C8.24162 12.3372 8.20295 12.3463 8.15156 12.4197ZM6.08724 16.0989C5.69306 16.2052 5.30226 16.5543 5.16414 16.9234C4.95292 17.488 5.17579 18.1749 5.6725 18.4903C6.05536 18.7334 5.71889 18.72 11.4589 18.72H16.666V18.6109C16.666 18.5509 16.6452 18.4883 16.6197 18.4717C16.5942 18.4552 14.2187 18.4334 11.3408 18.4232L6.10843 18.4046L5.95747 18.3238C5.77251 18.2248 5.55535 17.9901 5.47501 17.8024C5.44202 17.7254 5.41452 17.561 5.41385 17.4371C5.41174 17.0489 5.6096 16.7205 5.95554 16.5381L6.14554 16.4378L11.3562 16.428C15.1031 16.421 16.5808 16.4067 16.6165 16.3771C16.6437 16.3545 16.666 16.2712 16.666 16.1921V16.0482L11.4615 16.0507C7.46058 16.0526 6.21764 16.0638 6.08724 16.0989ZM6.16353 16.9481C5.95851 17.052 5.85471 17.2223 5.85812 17.4492C5.86098 17.6388 5.9375 17.7657 6.12661 17.8944L6.24929 17.9779H11.0163C15.1332 17.9779 15.7806 17.9706 15.763 17.9248C15.7518 17.8957 15.7315 17.8122 15.7178 17.7393L15.6929 17.6068H12.1346C8.62567 17.6068 8.57516 17.6057 8.50198 17.5325C8.46116 17.4917 8.42776 17.4249 8.42776 17.3841C8.42776 17.3433 8.46116 17.2765 8.50198 17.2357C8.57516 17.1625 8.62567 17.1615 12.1573 17.1615C15.5429 17.1615 15.7383 17.1579 15.7388 17.0965C15.7391 17.0608 15.7494 16.994 15.7617 16.9481L15.7841 16.8646H11.0562H6.32826L6.16353 16.9481ZM7.40354 17.1898C7.38109 17.2048 7.34179 17.2568 7.31626 17.3053C7.21225 17.5026 7.55321 17.7045 7.72617 17.5479C7.81583 17.4668 7.81728 17.3027 7.72903 17.2229C7.65941 17.1599 7.47628 17.1413 7.40354 17.1898Z"/>
</mask>
<path fill-rule="evenodd" clip-rule="evenodd" d="M17.7305 0.87107C17.6731 0.888326 17.5729 0.943211 17.5079 0.993049C17.4429 1.04292 16.9974 1.6536 16.518 2.35014L15.6463 3.61653H10.9872C5.8962 3.61653 6.12238 3.60737 5.70301 3.83051C5.44424 3.96818 5.01819 4.40307 4.87654 4.67415C4.62591 5.15379 4.64071 4.69838 4.65148 11.5835L4.66116 17.8109L4.74837 18.027C4.93599 18.4921 5.33562 18.8812 5.81155 19.0622L6.03421 19.1468L11.5042 19.1567C16.5719 19.1658 16.9794 19.162 17.0428 19.1045C17.0994 19.0533 17.1114 18.9865 17.1114 18.7198C17.1114 18.4467 17.0984 18.3776 17.0276 18.271C16.9132 18.0988 16.6627 17.9779 16.4207 17.9779H16.2281L16.1824 17.7871C16.1329 17.5806 16.152 17.1825 16.2207 16.9894C16.2604 16.8778 16.2722 16.8723 16.5008 16.8578C16.7651 16.8409 16.8883 16.7732 17.0279 16.5681L17.1114 16.4454V11.5768C17.1114 6.90721 17.1086 6.70559 17.0435 6.6467C16.9602 6.57137 16.8522 6.56806 16.7566 6.63794C16.6861 6.68952 16.6844 6.78434 16.6749 11.1467L16.6652 15.6029H11.4721C7.82425 15.6029 6.22057 15.6151 6.08241 15.6439C5.80372 15.702 5.43738 15.884 5.24845 16.0581L5.08695 16.207L5.09671 10.7189L5.10647 5.23079L5.22526 4.97997C5.3832 4.64658 5.66608 4.35219 5.97443 4.20041L6.21816 4.0804L10.7759 4.07057L15.3337 4.0607L15.1758 4.29322C15.0889 4.4211 14.0726 5.89661 12.9172 7.5721L10.8165 10.6185L10.6362 11.4779L10.4559 12.3372H10.0427C9.58131 12.3372 9.49466 12.3696 9.49466 12.542C9.49466 12.7459 9.59741 12.7825 10.1693 12.7825H10.678L10.9039 12.6434C11.0282 12.5669 11.4074 12.3289 11.7466 12.1146L12.3634 11.7249L15.6492 6.9638C17.4564 4.34518 18.9589 2.14559 18.9881 2.07583C19.0599 1.90386 19.0534 1.69842 18.9705 1.51985C18.8835 1.33253 18.797 1.24279 18.5303 1.06311C18.2026 0.842236 17.9937 0.792064 17.7305 0.87107ZM17.808 1.31638C17.7727 1.33798 17.6933 1.42908 17.6316 1.51885L17.5193 1.6821L17.9315 1.96776L18.3438 2.25347L18.4308 2.14641C18.662 1.862 18.6402 1.71297 18.3323 1.47391C18.1168 1.30659 17.9205 1.24758 17.808 1.31638ZM17.0645 2.34413C16.9533 2.5031 15.6135 4.44441 14.0872 6.65817L11.3123 10.6832L11.4956 10.8518C11.6576 11.0007 12.1282 11.2895 12.1534 11.2553C12.3701 10.9624 18.0759 2.6502 18.0753 2.62831C18.0746 2.60052 17.9544 2.51461 17.3661 2.12147L17.2669 2.05516L17.0645 2.34413ZM1.22892 2.18099C1.04882 2.23833 0.796777 2.50065 0.748089 2.68145C0.720257 2.78484 0.711202 5.19921 0.717956 10.7309L0.727568 18.6327L0.829952 18.7874C0.886247 18.8725 1.00188 18.9881 1.0869 19.0444L1.2415 19.1468L2.42061 19.158C3.56781 19.1689 3.60176 19.1671 3.67583 19.0931L3.75198 19.0169V10.6488C3.75198 2.33006 3.75154 2.28015 3.67776 2.20638C3.60662 2.13524 3.55675 2.13231 2.48099 2.13594C1.77068 2.13836 1.31085 2.15487 1.22892 2.18099ZM1.35312 2.61428C1.30937 2.63191 1.24676 2.68468 1.21396 2.73151C1.15963 2.80903 1.15433 3.51608 1.15433 10.6599V18.5031L1.2628 18.6116L1.37127 18.72H2.33897H3.30667V18.2191V17.7181H3.07373C2.7959 17.7181 2.67581 17.652 2.67581 17.4991C2.67581 17.3322 2.77641 17.2728 3.05911 17.2728H3.30667V16.9227V16.5727L2.69128 16.5609C2.13264 16.5502 2.07108 16.5425 2.02332 16.4771C1.95407 16.3823 1.95656 16.2532 2.02903 16.1807C2.07731 16.1324 2.19227 16.1224 2.697 16.1224H3.30667V15.7513V15.3802H3.04954C2.75879 15.3802 2.67581 15.3307 2.67581 15.157C2.67581 15.0007 2.79374 14.9349 3.07373 14.9349H3.30667V14.5824V14.2298H3.05266C2.77088 14.2298 2.67581 14.172 2.67581 14.0007C2.67581 13.8439 2.78116 13.7845 3.05911 13.7845H3.30667V13.432V13.0794H2.72119C2.06748 13.0794 1.97073 13.0512 1.97073 12.8604C1.97073 12.6567 2.04406 12.6341 2.70657 12.6341H3.30667V12.2816V11.929L3.09329 11.9285C2.81423 11.9278 2.69767 11.8684 2.68308 11.7195C2.66527 11.5379 2.74951 11.4837 3.04954 11.4837H3.30667V11.1126V10.7415H3.04954C2.75879 10.7415 2.67581 10.692 2.67581 10.5183C2.67581 10.3621 2.79374 10.2962 3.07373 10.2962H3.30667V9.94368V9.59114H2.70012C2.15962 9.59114 2.08688 9.58376 2.03215 9.52327C1.9445 9.42641 1.95463 9.27267 2.05323 9.20361C2.11939 9.15722 2.25132 9.14583 2.72119 9.14583H3.30667V8.79329V8.44075H3.07373C2.7959 8.44075 2.67581 8.37466 2.67581 8.22173C2.67581 8.05485 2.77641 7.99544 3.05911 7.99544H3.30667V7.6429V7.29036L3.09329 7.2898C2.81423 7.2891 2.69767 7.22972 2.68308 7.0808C2.66527 6.89923 2.74951 6.84505 3.04954 6.84505H3.30667V6.47396V6.10286H2.697C2.19227 6.10286 2.07731 6.09284 2.02903 6.04456C1.94873 5.96422 1.956 5.82072 2.04495 5.73177C2.11297 5.66375 2.16864 5.65755 2.71292 5.65755H3.30667V5.30501V4.95247H3.05266C2.76929 4.95247 2.67581 4.89473 2.67581 4.71972C2.67581 4.57381 2.80053 4.50716 3.07373 4.50716H3.30667V4.15462V3.80208H3.07373C2.7959 3.80208 2.67581 3.73599 2.67581 3.58306C2.67581 3.41618 2.77641 3.35677 3.05911 3.35677H3.30667V2.96712V2.57747L2.36966 2.57981C1.85428 2.58111 1.39687 2.59662 1.35312 2.61428ZM11.0337 8.3872C10.9357 8.45578 10.923 8.62986 11.0095 8.71644C11.0941 8.80097 11.404 8.79474 11.4835 8.70686C11.635 8.5395 11.504 8.32942 11.2481 8.32942C11.1755 8.32942 11.079 8.35544 11.0337 8.3872ZM9.99552 8.59034C9.7955 8.67922 9.72804 8.80758 9.81313 8.93739C9.90642 9.07981 9.99697 9.08716 10.2354 8.9716C10.4219 8.88124 10.4517 8.85222 10.4615 8.75154C10.4838 8.52258 10.295 8.45727 9.99552 8.59034ZM8.98281 9.2808C8.88165 9.37543 8.79886 9.4826 8.79886 9.51896C8.79886 9.71527 8.95679 9.81205 9.1305 9.72225C9.39632 9.58476 9.51392 9.28325 9.34722 9.1665C9.22402 9.08018 9.18379 9.0928 8.98281 9.2808ZM8.39622 10.0994C8.33443 10.124 8.16885 10.4718 8.16837 10.5781C8.16755 10.7513 8.43244 10.8464 8.54614 10.7137C8.60993 10.6393 8.72464 10.3586 8.72464 10.2769C8.72464 10.1449 8.53683 10.0434 8.39622 10.0994ZM11.0651 11.5986C11.02 11.8251 10.9914 12.0187 11.0016 12.029C11.0119 12.0392 11.181 11.9434 11.3776 11.8161C11.5741 11.6887 11.7214 11.5731 11.7049 11.5591C11.6403 11.5044 11.1782 11.1868 11.1631 11.1868C11.1543 11.1868 11.1103 11.3721 11.0651 11.5986ZM8.11233 11.2683C8.00223 11.3308 7.98364 11.3734 7.98301 11.5651C7.98256 11.7034 7.99945 11.7512 8.06494 11.797C8.25112 11.9275 8.42813 11.8061 8.42721 11.5487C8.42654 11.3699 8.40583 11.327 8.29105 11.2666C8.1946 11.2159 8.20496 11.2158 8.11233 11.2683ZM8.15156 12.4197C8.07381 12.5307 8.07882 12.6192 8.168 12.7083C8.22808 12.7684 8.29168 12.7825 8.50198 12.7825C8.71228 12.7825 8.77589 12.7684 8.83597 12.7083C8.92514 12.6192 8.93015 12.5307 8.85241 12.4197C8.80101 12.3463 8.76234 12.3372 8.50198 12.3372C8.24162 12.3372 8.20295 12.3463 8.15156 12.4197ZM6.08724 16.0989C5.69306 16.2052 5.30226 16.5543 5.16414 16.9234C4.95292 17.488 5.17579 18.1749 5.6725 18.4903C6.05536 18.7334 5.71889 18.72 11.4589 18.72H16.666V18.6109C16.666 18.5509 16.6452 18.4883 16.6197 18.4717C16.5942 18.4552 14.2187 18.4334 11.3408 18.4232L6.10843 18.4046L5.95747 18.3238C5.77251 18.2248 5.55535 17.9901 5.47501 17.8024C5.44202 17.7254 5.41452 17.561 5.41385 17.4371C5.41174 17.0489 5.6096 16.7205 5.95554 16.5381L6.14554 16.4378L11.3562 16.428C15.1031 16.421 16.5808 16.4067 16.6165 16.3771C16.6437 16.3545 16.666 16.2712 16.666 16.1921V16.0482L11.4615 16.0507C7.46058 16.0526 6.21764 16.0638 6.08724 16.0989ZM6.16353 16.9481C5.95851 17.052 5.85471 17.2223 5.85812 17.4492C5.86098 17.6388 5.9375 17.7657 6.12661 17.8944L6.24929 17.9779H11.0163C15.1332 17.9779 15.7806 17.9706 15.763 17.9248C15.7518 17.8957 15.7315 17.8122 15.7178 17.7393L15.6929 17.6068H12.1346C8.62567 17.6068 8.57516 17.6057 8.50198 17.5325C8.46116 17.4917 8.42776 17.4249 8.42776 17.3841C8.42776 17.3433 8.46116 17.2765 8.50198 17.2357C8.57516 17.1625 8.62567 17.1615 12.1573 17.1615C15.5429 17.1615 15.7383 17.1579 15.7388 17.0965C15.7391 17.0608 15.7494 16.994 15.7617 16.9481L15.7841 16.8646H11.0562H6.32826L6.16353 16.9481ZM7.40354 17.1898C7.38109 17.2048 7.34179 17.2568 7.31626 17.3053C7.21225 17.5026 7.55321 17.7045 7.72617 17.5479C7.81583 17.4668 7.81728 17.3027 7.72903 17.2229C7.65941 17.1599 7.47628 17.1413 7.40354 17.1898Z" fill="#30422E"/>
<path fill-rule="evenodd" clip-rule="evenodd" d="M17.7305 0.87107C17.6731 0.888326 17.5729 0.943211 17.5079 0.993049C17.4429 1.04292 16.9974 1.6536 16.518 2.35014L15.6463 3.61653H10.9872C5.8962 3.61653 6.12238 3.60737 5.70301 3.83051C5.44424 3.96818 5.01819 4.40307 4.87654 4.67415C4.62591 5.15379 4.64071 4.69838 4.65148 11.5835L4.66116 17.8109L4.74837 18.027C4.93599 18.4921 5.33562 18.8812 5.81155 19.0622L6.03421 19.1468L11.5042 19.1567C16.5719 19.1658 16.9794 19.162 17.0428 19.1045C17.0994 19.0533 17.1114 18.9865 17.1114 18.7198C17.1114 18.4467 17.0984 18.3776 17.0276 18.271C16.9132 18.0988 16.6627 17.9779 16.4207 17.9779H16.2281L16.1824 17.7871C16.1329 17.5806 16.152 17.1825 16.2207 16.9894C16.2604 16.8778 16.2722 16.8723 16.5008 16.8578C16.7651 16.8409 16.8883 16.7732 17.0279 16.5681L17.1114 16.4454V11.5768C17.1114 6.90721 17.1086 6.70559 17.0435 6.6467C16.9602 6.57137 16.8522 6.56806 16.7566 6.63794C16.6861 6.68952 16.6844 6.78434 16.6749 11.1467L16.6652 15.6029H11.4721C7.82425 15.6029 6.22057 15.6151 6.08241 15.6439C5.80372 15.702 5.43738 15.884 5.24845 16.0581L5.08695 16.207L5.09671 10.7189L5.10647 5.23079L5.22526 4.97997C5.3832 4.64658 5.66608 4.35219 5.97443 4.20041L6.21816 4.0804L10.7759 4.07057L15.3337 4.0607L15.1758 4.29322C15.0889 4.4211 14.0726 5.89661 12.9172 7.5721L10.8165 10.6185L10.6362 11.4779L10.4559 12.3372H10.0427C9.58131 12.3372 9.49466 12.3696 9.49466 12.542C9.49466 12.7459 9.59741 12.7825 10.1693 12.7825H10.678L10.9039 12.6434C11.0282 12.5669 11.4074 12.3289 11.7466 12.1146L12.3634 11.7249L15.6492 6.9638C17.4564 4.34518 18.9589 2.14559 18.9881 2.07583C19.0599 1.90386 19.0534 1.69842 18.9705 1.51985C18.8835 1.33253 18.797 1.24279 18.5303 1.06311C18.2026 0.842236 17.9937 0.792064 17.7305 0.87107ZM17.808 1.31638C17.7727 1.33798 17.6933 1.42908 17.6316 1.51885L17.5193 1.6821L17.9315 1.96776L18.3438 2.25347L18.4308 2.14641C18.662 1.862 18.6402 1.71297 18.3323 1.47391C18.1168 1.30659 17.9205 1.24758 17.808 1.31638ZM17.0645 2.34413C16.9533 2.5031 15.6135 4.44441 14.0872 6.65817L11.3123 10.6832L11.4956 10.8518C11.6576 11.0007 12.1282 11.2895 12.1534 11.2553C12.3701 10.9624 18.0759 2.6502 18.0753 2.62831C18.0746 2.60052 17.9544 2.51461 17.3661 2.12147L17.2669 2.05516L17.0645 2.34413ZM1.22892 2.18099C1.04882 2.23833 0.796777 2.50065 0.748089 2.68145C0.720257 2.78484 0.711202 5.19921 0.717956 10.7309L0.727568 18.6327L0.829952 18.7874C0.886247 18.8725 1.00188 18.9881 1.0869 19.0444L1.2415 19.1468L2.42061 19.158C3.56781 19.1689 3.60176 19.1671 3.67583 19.0931L3.75198 19.0169V10.6488C3.75198 2.33006 3.75154 2.28015 3.67776 2.20638C3.60662 2.13524 3.55675 2.13231 2.48099 2.13594C1.77068 2.13836 1.31085 2.15487 1.22892 2.18099ZM1.35312 2.61428C1.30937 2.63191 1.24676 2.68468 1.21396 2.73151C1.15963 2.80903 1.15433 3.51608 1.15433 10.6599V18.5031L1.2628 18.6116L1.37127 18.72H2.33897H3.30667V18.2191V17.7181H3.07373C2.7959 17.7181 2.67581 17.652 2.67581 17.4991C2.67581 17.3322 2.77641 17.2728 3.05911 17.2728H3.30667V16.9227V16.5727L2.69128 16.5609C2.13264 16.5502 2.07108 16.5425 2.02332 16.4771C1.95407 16.3823 1.95656 16.2532 2.02903 16.1807C2.07731 16.1324 2.19227 16.1224 2.697 16.1224H3.30667V15.7513V15.3802H3.04954C2.75879 15.3802 2.67581 15.3307 2.67581 15.157C2.67581 15.0007 2.79374 14.9349 3.07373 14.9349H3.30667V14.5824V14.2298H3.05266C2.77088 14.2298 2.67581 14.172 2.67581 14.0007C2.67581 13.8439 2.78116 13.7845 3.05911 13.7845H3.30667V13.432V13.0794H2.72119C2.06748 13.0794 1.97073 13.0512 1.97073 12.8604C1.97073 12.6567 2.04406 12.6341 2.70657 12.6341H3.30667V12.2816V11.929L3.09329 11.9285C2.81423 11.9278 2.69767 11.8684 2.68308 11.7195C2.66527 11.5379 2.74951 11.4837 3.04954 11.4837H3.30667V11.1126V10.7415H3.04954C2.75879 10.7415 2.67581 10.692 2.67581 10.5183C2.67581 10.3621 2.79374 10.2962 3.07373 10.2962H3.30667V9.94368V9.59114H2.70012C2.15962 9.59114 2.08688 9.58376 2.03215 9.52327C1.9445 9.42641 1.95463 9.27267 2.05323 9.20361C2.11939 9.15722 2.25132 9.14583 2.72119 9.14583H3.30667V8.79329V8.44075H3.07373C2.7959 8.44075 2.67581 8.37466 2.67581 8.22173C2.67581 8.05485 2.77641 7.99544 3.05911 7.99544H3.30667V7.6429V7.29036L3.09329 7.2898C2.81423 7.2891 2.69767 7.22972 2.68308 7.0808C2.66527 6.89923 2.74951 6.84505 3.04954 6.84505H3.30667V6.47396V6.10286H2.697C2.19227 6.10286 2.07731 6.09284 2.02903 6.04456C1.94873 5.96422 1.956 5.82072 2.04495 5.73177C2.11297 5.66375 2.16864 5.65755 2.71292 5.65755H3.30667V5.30501V4.95247H3.05266C2.76929 4.95247 2.67581 4.89473 2.67581 4.71972C2.67581 4.57381 2.80053 4.50716 3.07373 4.50716H3.30667V4.15462V3.80208H3.07373C2.7959 3.80208 2.67581 3.73599 2.67581 3.58306C2.67581 3.41618 2.77641 3.35677 3.05911 3.35677H3.30667V2.96712V2.57747L2.36966 2.57981C1.85428 2.58111 1.39687 2.59662 1.35312 2.61428ZM11.0337 8.3872C10.9357 8.45578 10.923 8.62986 11.0095 8.71644C11.0941 8.80097 11.404 8.79474 11.4835 8.70686C11.635 8.5395 11.504 8.32942 11.2481 8.32942C11.1755 8.32942 11.079 8.35544 11.0337 8.3872ZM9.99552 8.59034C9.7955 8.67922 9.72804 8.80758 9.81313 8.93739C9.90642 9.07981 9.99697 9.08716 10.2354 8.9716C10.4219 8.88124 10.4517 8.85222 10.4615 8.75154C10.4838 8.52258 10.295 8.45727 9.99552 8.59034ZM8.98281 9.2808C8.88165 9.37543 8.79886 9.4826 8.79886 9.51896C8.79886 9.71527 8.95679 9.81205 9.1305 9.72225C9.39632 9.58476 9.51392 9.28325 9.34722 9.1665C9.22402 9.08018 9.18379 9.0928 8.98281 9.2808ZM8.39622 10.0994C8.33443 10.124 8.16885 10.4718 8.16837 10.5781C8.16755 10.7513 8.43244 10.8464 8.54614 10.7137C8.60993 10.6393 8.72464 10.3586 8.72464 10.2769C8.72464 10.1449 8.53683 10.0434 8.39622 10.0994ZM11.0651 11.5986C11.02 11.8251 10.9914 12.0187 11.0016 12.029C11.0119 12.0392 11.181 11.9434 11.3776 11.8161C11.5741 11.6887 11.7214 11.5731 11.7049 11.5591C11.6403 11.5044 11.1782 11.1868 11.1631 11.1868C11.1543 11.1868 11.1103 11.3721 11.0651 11.5986ZM8.11233 11.2683C8.00223 11.3308 7.98364 11.3734 7.98301 11.5651C7.98256 11.7034 7.99945 11.7512 8.06494 11.797C8.25112 11.9275 8.42813 11.8061 8.42721 11.5487C8.42654 11.3699 8.40583 11.327 8.29105 11.2666C8.1946 11.2159 8.20496 11.2158 8.11233 11.2683ZM8.15156 12.4197C8.07381 12.5307 8.07882 12.6192 8.168 12.7083C8.22808 12.7684 8.29168 12.7825 8.50198 12.7825C8.71228 12.7825 8.77589 12.7684 8.83597 12.7083C8.92514 12.6192 8.93015 12.5307 8.85241 12.4197C8.80101 12.3463 8.76234 12.3372 8.50198 12.3372C8.24162 12.3372 8.20295 12.3463 8.15156 12.4197ZM6.08724 16.0989C5.69306 16.2052 5.30226 16.5543 5.16414 16.9234C4.95292 17.488 5.17579 18.1749 5.6725 18.4903C6.05536 18.7334 5.71889 18.72 11.4589 18.72H16.666V18.6109C16.666 18.5509 16.6452 18.4883 16.6197 18.4717C16.5942 18.4552 14.2187 18.4334 11.3408 18.4232L6.10843 18.4046L5.95747 18.3238C5.77251 18.2248 5.55535 17.9901 5.47501 17.8024C5.44202 17.7254 5.41452 17.561 5.41385 17.4371C5.41174 17.0489 5.6096 16.7205 5.95554 16.5381L6.14554 16.4378L11.3562 16.428C15.1031 16.421 16.5808 16.4067 16.6165 16.3771C16.6437 16.3545 16.666 16.2712 16.666 16.1921V16.0482L11.4615 16.0507C7.46058 16.0526 6.21764 16.0638 6.08724 16.0989ZM6.16353 16.9481C5.95851 17.052 5.85471 17.2223 5.85812 17.4492C5.86098 17.6388 5.9375 17.7657 6.12661 17.8944L6.24929 17.9779H11.0163C15.1332 17.9779 15.7806 17.9706 15.763 17.9248C15.7518 17.8957 15.7315 17.8122 15.7178 17.7393L15.6929 17.6068H12.1346C8.62567 17.6068 8.57516 17.6057 8.50198 17.5325C8.46116 17.4917 8.42776 17.4249 8.42776 17.3841C8.42776 17.3433 8.46116 17.2765 8.50198 17.2357C8.57516 17.1625 8.62567 17.1615 12.1573 17.1615C15.5429 17.1615 15.7383 17.1579 15.7388 17.0965C15.7391 17.0608 15.7494 16.994 15.7617 16.9481L15.7841 16.8646H11.0562H6.32826L6.16353 16.9481ZM7.40354 17.1898C7.38109 17.2048 7.34179 17.2568 7.31626 17.3053C7.21225 17.5026 7.55321 17.7045 7.72617 17.5479C7.81583 17.4668 7.81728 17.3027 7.72903 17.2229C7.65941 17.1599 7.47628 17.1413 7.40354 17.1898Z" stroke="#30422E" stroke-width="0.4" mask="url(#path-1-outside-1_1870_6738)"/>
</g>
<defs>
<clipPath id="clip0_1870_6738">
<rect width="19" height="19" fill="#30422E" transform="translate(0.375 0.5)"/>
</clipPath>
</defs>
</svg>
