<svg width="20" height="20" viewBox="0 0 20 20" fill="none" xmlns="http://www.w3.org/2000/svg">
<path d="M9.95833 0.416016C4.6875 0.416016 0.375 4.72852 0.375 9.99935C0.375 15.2702 4.6875 19.5827 9.95833 19.5827C15.2292 19.5827 19.5417 15.2702 19.5417 9.99935C19.5417 4.72852 15.2292 0.416016 9.95833 0.416016ZM9.95833 17.666C5.73208 17.666 2.29167 14.2256 2.29167 9.99935C2.29167 5.7731 5.73208 2.33268 9.95833 2.33268C14.1846 2.33268 17.625 5.7731 17.625 9.99935C17.625 14.2256 14.1846 17.666 9.95833 17.666ZM14.3571 5.76352L8.04167 12.0789L5.55958 9.60643L4.20833 10.9577L8.04167 14.791L15.7083 7.12435L14.3571 5.76352Z" fill="#30422E"/>
</svg>
