<svg xmlns="http://www.w3.org/2000/svg" width="13" height="11" viewBox="0 0 13 11" fill="none">
  <path d="M11.0362 8.6875C11.4343 8.6875 11.7509 8.437 12.0352 8.08673C12.6171 7.36971 11.6616 6.7967 11.2972 6.51607C10.9268 6.2308 10.5131 6.06919 10.0937 6.03125M9.5625 4.96875C10.296 4.96875 10.8906 4.37413 10.8906 3.64062C10.8906 2.90712 10.296 2.3125 9.5625 2.3125" stroke="white" stroke-width="0.826172" stroke-linecap="round"/>
  <path d="M1.71379 8.6875C1.31572 8.6875 0.999105 8.437 0.714821 8.08673C0.13286 7.36971 1.08836 6.7967 1.45278 6.51607C1.82324 6.2308 2.23687 6.06919 2.65625 6.03125M2.92187 4.96875C2.18837 4.96875 1.59375 4.37413 1.59375 3.64062C1.59375 2.90712 2.18837 2.3125 2.92187 2.3125" stroke="white" stroke-width="0.826172" stroke-linecap="round"/>
  <path d="M4.29452 7.15282C3.7517 7.48847 2.32846 8.17383 3.19531 9.03144C3.61876 9.45038 4.09037 9.75 4.6833 9.75H8.0667C8.65963 9.75 9.13124 9.45038 9.55469 9.03144C10.4215 8.17383 8.9983 7.48847 8.45548 7.15282C7.18257 6.36573 5.56742 6.36573 4.29452 7.15282Z" stroke="white" stroke-width="0.826172" stroke-linecap="round" stroke-linejoin="round"/>
  <path d="M8.23437 3.10937C8.23437 4.13628 7.4019 4.96875 6.375 4.96875C5.3481 4.96875 4.51562 4.13628 4.51562 3.10937C4.51562 2.08247 5.3481 1.25 6.375 1.25C7.4019 1.25 8.23437 2.08247 8.23437 3.10937Z" stroke="white" stroke-width="0.826172"/>
</svg>