<svg width="18" height="18" viewBox="0 0 13 13" fill="none" xmlns="http://www.w3.org/2000/svg">
<mask id="path-1-inside-1_386_13898" fill="white">
<path fill-rule="evenodd" clip-rule="evenodd" d="M6.10028 0.175567C5.81253 0.249748 5.57632 0.38454 5.3559 0.600311C4.88159 1.06462 4.74643 1.76582 5.01568 2.36499C5.06907 2.48376 5.12972 2.54272 5.12972 2.47581C5.12972 2.42365 5.39382 2.1443 5.53718 2.0448C5.64646 1.96894 5.68496 1.92805 5.67295 1.90056C5.60324 1.7408 5.58066 1.6391 5.58119 1.48726C5.58206 1.2509 5.65647 1.06334 5.81875 0.888613C6.19699 0.481315 6.80699 0.48314 7.18734 0.892687C7.41522 1.13808 7.48681 1.49853 7.36748 1.79968L7.313 1.93715L7.36958 1.97464C7.54149 2.08854 7.68458 2.21975 7.77895 2.35005C7.83742 2.43078 7.89446 2.49741 7.90571 2.49816C7.94299 2.50061 8.04737 2.23145 8.09062 2.0214C8.19805 1.49961 8.03676 0.985489 7.6445 0.599486C7.23269 0.194187 6.64923 0.0340026 6.10028 0.175567ZM6.28527 1.09664C6.11933 1.19806 6.04397 1.32645 6.04405 1.50763C6.04415 1.82945 6.40743 2.04872 6.69842 1.90263C7.04029 1.73098 7.04224 1.25935 6.7018 1.08609C6.59973 1.03415 6.37832 1.03975 6.28527 1.09664ZM1.36483 2.19876C0.81402 2.29758 0.359926 2.6434 0.140854 3.13088C0.0632162 3.30366 -0.000555085 3.60298 3.64371e-06 3.79188C0.000613166 3.98901 0.0602447 4.25097 0.145019 4.42898L0.215444 4.57681L0.325488 4.42753C0.420752 4.29828 0.497704 4.22778 0.767341 4.02263C0.81656 3.98519 0.81689 3.98044 0.775671 3.90203C0.711976 3.78079 0.684446 3.57042 0.711163 3.40893C0.758198 3.12438 0.932293 2.88834 1.19777 2.74907C1.3329 2.67819 1.39111 2.66317 1.56559 2.65415C1.71461 2.64645 1.81097 2.65524 1.90844 2.68544C2.17376 2.76767 2.41518 3.00101 2.50461 3.26167C2.56558 3.43932 2.55936 3.70973 2.49082 3.86222C2.46095 3.92865 2.44536 3.99026 2.45615 3.99908C2.46692 4.00793 2.5507 4.07266 2.64231 4.14295C2.73391 4.21323 2.85963 4.3396 2.92167 4.42375L3.03448 4.57681L3.10491 4.42898C3.2454 4.134 3.282 3.79783 3.21061 3.45777C3.09018 2.88391 2.68195 2.43468 2.12218 2.25999C1.89623 2.18949 1.56559 2.16274 1.36483 2.19876ZM11.0853 2.20998C10.4257 2.33602 9.94161 2.79756 9.79335 3.4417C9.71772 3.77017 9.75581 4.13065 9.8979 4.4312L9.96884 4.58126L10.0409 4.47406C10.1277 4.345 10.3036 4.17346 10.4526 4.07256L10.5618 3.99863L10.5231 3.90758C10.3378 3.47104 10.5209 2.97421 10.9501 2.74907C11.0853 2.67819 11.1435 2.66317 11.3179 2.65415C11.467 2.64645 11.5633 2.65524 11.6608 2.68544C11.9261 2.76767 12.1675 3.00101 12.257 3.26167C12.3179 3.43932 12.3117 3.70973 12.2432 3.86222C12.2133 3.92865 12.1977 3.99026 12.2085 3.99908C12.2193 4.00793 12.3031 4.07266 12.3947 4.14295C12.4863 4.21323 12.612 4.3396 12.674 4.42375L12.7868 4.57681L12.8573 4.42898C13.2171 3.67344 12.8717 2.72508 12.1002 2.35105C11.794 2.20256 11.4062 2.14865 11.0853 2.20998ZM5.87435 2.37132C5.70465 2.47929 5.55549 2.6377 5.47798 2.79239C5.42671 2.89468 5.42653 2.89933 5.47158 2.94832C5.54409 3.02718 5.7431 3.14475 5.91867 3.21246C6.28019 3.3519 6.73855 3.35207 7.08819 3.21293C7.27864 3.13712 7.5678 2.9514 7.5678 2.90486C7.5678 2.78351 7.33827 2.50513 7.12793 2.37132L6.9784 2.27622L6.8731 2.33163C6.78355 2.37874 6.72793 2.38704 6.50114 2.38704C6.27435 2.38704 6.21873 2.37874 6.12918 2.33163L6.02388 2.27622L5.87435 2.37132ZM1.43449 3.13867C1.14321 3.28776 1.07391 3.6328 1.29008 3.85764C1.38982 3.96139 1.47916 3.99913 1.62496 3.99913C2.10727 3.99913 2.25643 3.37192 1.82791 3.14572C1.72076 3.08919 1.5376 3.08589 1.43449 3.13867ZM11.1868 3.13867C10.8956 3.28776 10.8263 3.6328 11.0424 3.85764C11.1422 3.96139 11.2315 3.99913 11.3773 3.99913C11.8596 3.99913 12.0088 3.37192 11.5803 3.14572C11.4731 3.08919 11.29 3.08589 11.1868 3.13867ZM6.1303 3.8302C6.13797 3.86789 6.15704 4.05029 6.17273 4.23555C6.23239 4.94045 6.1065 5.40261 5.81497 5.54897C5.48128 5.7165 4.80095 5.46831 3.81627 4.81985C3.67357 4.72588 3.54783 4.64897 3.53688 4.64897C3.52591 4.64897 3.48837 4.70223 3.45348 4.76731C3.41858 4.83242 3.35288 4.93375 3.3075 4.99248C3.26211 5.05122 3.22496 5.10471 3.22496 5.11133C3.22496 5.11793 3.33069 5.17536 3.45988 5.23895C3.86006 5.43585 4.64286 5.84712 5.01543 6.05619C5.51915 6.3389 5.83798 6.55024 5.96463 6.68546C6.30063 7.04419 6.28981 7.52355 5.93868 7.83422C5.76791 7.98533 5.56451 8.04812 5.2458 8.04812C4.97053 8.04812 4.61254 7.99238 4.33368 7.90613C4.22412 7.87224 4.13048 7.84847 4.12558 7.85329C4.12068 7.85811 4.12718 7.90675 4.14003 7.96134C4.15291 8.01595 4.1637 8.10915 4.16403 8.16849C4.16497 8.33577 4.19646 8.37304 4.33696 8.37306C4.49729 8.37311 4.85017 8.43567 5.05353 8.5001C5.55925 8.66034 5.89302 8.94874 6.00367 9.3211C6.03747 9.43489 6.044 9.6151 6.044 10.4361C6.044 10.9977 6.03295 11.4728 6.01807 11.55C5.96044 11.849 5.77274 12.1279 5.52296 12.2857C5.33959 12.4014 5.18607 12.4453 4.87941 12.4696C4.57073 12.494 4.43628 12.5438 4.25439 12.7014C4.19105 12.7563 4.13924 12.8092 4.13924 12.8191C4.13924 12.829 4.23354 12.8235 4.34877 12.8069C5.20299 12.6843 5.90767 12.6935 6.33256 12.8328L6.50683 12.89L6.63412 12.8424C7.01913 12.6984 7.80204 12.6847 8.65352 12.8069C8.76877 12.8235 8.86304 12.8293 8.86304 12.8199C8.86304 12.7836 8.65555 12.6207 8.52877 12.5574C8.42362 12.505 8.3389 12.4867 8.1231 12.4696C7.72808 12.4383 7.47356 12.3315 7.26576 12.1096C7.13847 11.9737 7.02078 11.7398 6.98421 11.55C6.96933 11.4728 6.95828 10.9977 6.95828 10.4361C6.95828 9.6151 6.96481 9.43489 6.99861 9.3211C7.15386 8.79863 7.74733 8.44812 8.59637 8.37746L8.79955 8.36054L8.81704 8.27306C8.84511 8.13277 8.88237 7.86139 8.87477 7.85259C8.87094 7.84814 8.77816 7.87234 8.6686 7.90633C8.17895 8.05829 7.54408 8.09126 7.28412 7.97821C6.84034 7.78523 6.66807 7.28778 6.8999 6.86861C7.06251 6.57456 7.53888 6.27029 9.07256 5.48084C9.46017 5.28131 9.77732 5.11383 9.77732 5.10868C9.77732 5.10351 9.7358 5.04577 9.68503 4.98036C9.63429 4.91493 9.56914 4.81363 9.54029 4.75519C9.51144 4.69676 9.47881 4.64897 9.46776 4.64897C9.45671 4.64897 9.33042 4.72593 9.1871 4.81998C8.1916 5.47329 7.52242 5.71723 7.18731 5.54897C6.89578 5.40261 6.76989 4.94045 6.82955 4.23555C6.84524 4.05029 6.86431 3.86789 6.87198 3.8302L6.8859 3.76169H6.50114H6.11638L6.1303 3.8302ZM1.05354 4.39076C0.851734 4.49596 0.5583 4.8272 0.5583 4.94982C0.5583 5.01615 0.866566 5.20803 1.1053 5.29031C1.28434 5.35202 1.34387 5.36007 1.62496 5.36064C1.87119 5.36114 1.97376 5.35069 2.08211 5.3141C2.37605 5.21478 2.69163 5.025 2.69163 4.94749C2.69163 4.87954 2.49452 4.60713 2.37838 4.51458C2.3202 4.46819 2.23484 4.41138 2.18872 4.38834C2.10852 4.34825 2.09856 4.34885 1.96015 4.40181C1.76302 4.47724 1.48706 4.47786 1.29481 4.40326C1.13107 4.33975 1.14959 4.3407 1.05354 4.39076ZM10.8059 4.39076C10.6041 4.49596 10.3107 4.8272 10.3107 4.94982C10.3107 5.01615 10.6189 5.20803 10.8576 5.29031C11.0367 5.35202 11.0962 5.36007 11.3773 5.36064C11.6235 5.36114 11.7261 5.35069 11.8345 5.3141C12.1284 5.21478 12.444 5.025 12.444 4.94749C12.444 4.87954 12.2469 4.60713 12.1307 4.51458C12.0726 4.46819 11.9872 4.41138 11.9411 4.38834C11.8609 4.34825 11.8509 4.34885 11.7125 4.40181C11.5154 4.47724 11.2394 4.47786 11.0472 4.40326C10.8834 4.33975 10.9019 4.3407 10.8059 4.39076ZM1.70115 6.8001C1.04841 6.96774 0.596523 7.45549 0.487901 8.10968C0.452294 8.32402 0.452193 8.37146 0.48691 8.58051C0.523151 8.79868 0.642541 9.12285 0.686681 9.12285C0.697602 9.12285 0.729856 9.08571 0.758376 9.04029C0.810287 8.95764 1.07022 8.7044 1.19959 8.61048L1.26842 8.56049L1.21895 8.42302C1.04711 7.94552 1.31479 7.40923 1.80005 7.25886C2.12599 7.15787 2.46222 7.23262 2.71408 7.46209C2.92629 7.65544 3.00792 7.84002 3.0064 8.1231C3.00553 8.28466 2.99227 8.36394 2.951 8.45411L2.89673 8.57269L2.96561 8.60783C3.07806 8.66516 3.27756 8.85019 3.3922 9.00343L3.4993 9.14664L3.54958 9.04102C3.70481 8.71502 3.75016 8.31922 3.66988 7.99153C3.55448 7.52052 3.24325 7.13322 2.81201 6.92402C2.44937 6.74812 2.06887 6.70568 1.70115 6.8001ZM10.5818 6.78536C9.98451 6.90805 9.47241 7.3972 9.33334 7.97783C9.25618 8.29985 9.29524 8.70298 9.43337 9.01038L9.49775 9.15361L9.60762 9.007C9.72429 8.85131 9.84668 8.73619 10.0056 8.63272L10.103 8.56929L10.049 8.45241C9.96417 8.26879 9.97217 7.95931 10.067 7.75514C10.2923 7.26989 10.8775 7.07646 11.3579 7.32845C11.7472 7.53265 11.9316 7.99818 11.7866 8.41065L11.7339 8.56049L11.8027 8.61048C11.9322 8.7045 12.192 8.95766 12.2439 9.04029C12.2724 9.08571 12.3047 9.12285 12.3156 9.12285C12.3597 9.12285 12.4791 8.79868 12.5154 8.58051C12.55 8.37164 12.55 8.32395 12.5146 8.11075C12.3872 7.34359 11.7709 6.79806 10.9898 6.76091C10.8413 6.75384 10.6914 6.76281 10.5818 6.78536ZM1.89168 7.71258C1.77717 7.77134 1.72421 7.8253 1.67274 7.93564C1.49153 8.32397 1.9027 8.71132 2.29678 8.52357C2.61503 8.37196 2.62938 7.91088 2.32142 7.73325C2.19819 7.66219 2.00777 7.65302 1.89168 7.71258ZM10.6784 7.7325C10.4623 7.86299 10.3936 8.13967 10.5232 8.35726C10.6398 8.55304 10.9108 8.62975 11.118 8.52565C11.2344 8.46719 11.2878 8.41043 11.3383 8.29171C11.4179 8.10413 11.3557 7.88578 11.1866 7.75879C11.0504 7.65657 10.8235 7.64484 10.6784 7.7325ZM1.49288 8.97303C1.3582 9.04437 1.16719 9.24134 1.08109 9.3977L1.00706 9.53214L1.10649 9.61687C1.2417 9.73212 1.53427 9.86696 1.74395 9.91067C2.19715 10.0052 2.67718 9.90348 3.05452 9.63302L3.17612 9.54587L3.0947 9.39553C3.00937 9.23797 2.78968 9.01925 2.6517 8.95449C2.57744 8.91965 2.5602 8.92102 2.42199 8.97298C2.23664 9.04267 1.96876 9.04852 1.80274 8.98648C1.62712 8.92087 1.59408 8.91945 1.49288 8.97303ZM10.2795 8.9985C10.1247 9.09948 9.97277 9.26514 9.89298 9.42012L9.82768 9.54694L9.94852 9.63357C10.3251 9.90345 10.8055 10.0051 11.2583 9.91067C11.468 9.86696 11.7606 9.73212 11.8958 9.61687L11.9952 9.53214L11.9212 9.3973C11.8298 9.23082 11.6195 9.02277 11.4801 8.96091C11.3825 8.91762 11.3697 8.9172 11.2899 8.95466C11.0746 9.05569 10.7861 9.05829 10.5502 8.96129C10.4248 8.90973 10.4133 8.91132 10.2795 8.9985Z"/>
</mask>
<path fill-rule="evenodd" clip-rule="evenodd" d="M6.10028 0.175567C5.81253 0.249748 5.57632 0.38454 5.3559 0.600311C4.88159 1.06462 4.74643 1.76582 5.01568 2.36499C5.06907 2.48376 5.12972 2.54272 5.12972 2.47581C5.12972 2.42365 5.39382 2.1443 5.53718 2.0448C5.64646 1.96894 5.68496 1.92805 5.67295 1.90056C5.60324 1.7408 5.58066 1.6391 5.58119 1.48726C5.58206 1.2509 5.65647 1.06334 5.81875 0.888613C6.19699 0.481315 6.80699 0.48314 7.18734 0.892687C7.41522 1.13808 7.48681 1.49853 7.36748 1.79968L7.313 1.93715L7.36958 1.97464C7.54149 2.08854 7.68458 2.21975 7.77895 2.35005C7.83742 2.43078 7.89446 2.49741 7.90571 2.49816C7.94299 2.50061 8.04737 2.23145 8.09062 2.0214C8.19805 1.49961 8.03676 0.985489 7.6445 0.599486C7.23269 0.194187 6.64923 0.0340026 6.10028 0.175567ZM6.28527 1.09664C6.11933 1.19806 6.04397 1.32645 6.04405 1.50763C6.04415 1.82945 6.40743 2.04872 6.69842 1.90263C7.04029 1.73098 7.04224 1.25935 6.7018 1.08609C6.59973 1.03415 6.37832 1.03975 6.28527 1.09664ZM1.36483 2.19876C0.81402 2.29758 0.359926 2.6434 0.140854 3.13088C0.0632162 3.30366 -0.000555085 3.60298 3.64371e-06 3.79188C0.000613166 3.98901 0.0602447 4.25097 0.145019 4.42898L0.215444 4.57681L0.325488 4.42753C0.420752 4.29828 0.497704 4.22778 0.767341 4.02263C0.81656 3.98519 0.81689 3.98044 0.775671 3.90203C0.711976 3.78079 0.684446 3.57042 0.711163 3.40893C0.758198 3.12438 0.932293 2.88834 1.19777 2.74907C1.3329 2.67819 1.39111 2.66317 1.56559 2.65415C1.71461 2.64645 1.81097 2.65524 1.90844 2.68544C2.17376 2.76767 2.41518 3.00101 2.50461 3.26167C2.56558 3.43932 2.55936 3.70973 2.49082 3.86222C2.46095 3.92865 2.44536 3.99026 2.45615 3.99908C2.46692 4.00793 2.5507 4.07266 2.64231 4.14295C2.73391 4.21323 2.85963 4.3396 2.92167 4.42375L3.03448 4.57681L3.10491 4.42898C3.2454 4.134 3.282 3.79783 3.21061 3.45777C3.09018 2.88391 2.68195 2.43468 2.12218 2.25999C1.89623 2.18949 1.56559 2.16274 1.36483 2.19876ZM11.0853 2.20998C10.4257 2.33602 9.94161 2.79756 9.79335 3.4417C9.71772 3.77017 9.75581 4.13065 9.8979 4.4312L9.96884 4.58126L10.0409 4.47406C10.1277 4.345 10.3036 4.17346 10.4526 4.07256L10.5618 3.99863L10.5231 3.90758C10.3378 3.47104 10.5209 2.97421 10.9501 2.74907C11.0853 2.67819 11.1435 2.66317 11.3179 2.65415C11.467 2.64645 11.5633 2.65524 11.6608 2.68544C11.9261 2.76767 12.1675 3.00101 12.257 3.26167C12.3179 3.43932 12.3117 3.70973 12.2432 3.86222C12.2133 3.92865 12.1977 3.99026 12.2085 3.99908C12.2193 4.00793 12.3031 4.07266 12.3947 4.14295C12.4863 4.21323 12.612 4.3396 12.674 4.42375L12.7868 4.57681L12.8573 4.42898C13.2171 3.67344 12.8717 2.72508 12.1002 2.35105C11.794 2.20256 11.4062 2.14865 11.0853 2.20998ZM5.87435 2.37132C5.70465 2.47929 5.55549 2.6377 5.47798 2.79239C5.42671 2.89468 5.42653 2.89933 5.47158 2.94832C5.54409 3.02718 5.7431 3.14475 5.91867 3.21246C6.28019 3.3519 6.73855 3.35207 7.08819 3.21293C7.27864 3.13712 7.5678 2.9514 7.5678 2.90486C7.5678 2.78351 7.33827 2.50513 7.12793 2.37132L6.9784 2.27622L6.8731 2.33163C6.78355 2.37874 6.72793 2.38704 6.50114 2.38704C6.27435 2.38704 6.21873 2.37874 6.12918 2.33163L6.02388 2.27622L5.87435 2.37132ZM1.43449 3.13867C1.14321 3.28776 1.07391 3.6328 1.29008 3.85764C1.38982 3.96139 1.47916 3.99913 1.62496 3.99913C2.10727 3.99913 2.25643 3.37192 1.82791 3.14572C1.72076 3.08919 1.5376 3.08589 1.43449 3.13867ZM11.1868 3.13867C10.8956 3.28776 10.8263 3.6328 11.0424 3.85764C11.1422 3.96139 11.2315 3.99913 11.3773 3.99913C11.8596 3.99913 12.0088 3.37192 11.5803 3.14572C11.4731 3.08919 11.29 3.08589 11.1868 3.13867ZM6.1303 3.8302C6.13797 3.86789 6.15704 4.05029 6.17273 4.23555C6.23239 4.94045 6.1065 5.40261 5.81497 5.54897C5.48128 5.7165 4.80095 5.46831 3.81627 4.81985C3.67357 4.72588 3.54783 4.64897 3.53688 4.64897C3.52591 4.64897 3.48837 4.70223 3.45348 4.76731C3.41858 4.83242 3.35288 4.93375 3.3075 4.99248C3.26211 5.05122 3.22496 5.10471 3.22496 5.11133C3.22496 5.11793 3.33069 5.17536 3.45988 5.23895C3.86006 5.43585 4.64286 5.84712 5.01543 6.05619C5.51915 6.3389 5.83798 6.55024 5.96463 6.68546C6.30063 7.04419 6.28981 7.52355 5.93868 7.83422C5.76791 7.98533 5.56451 8.04812 5.2458 8.04812C4.97053 8.04812 4.61254 7.99238 4.33368 7.90613C4.22412 7.87224 4.13048 7.84847 4.12558 7.85329C4.12068 7.85811 4.12718 7.90675 4.14003 7.96134C4.15291 8.01595 4.1637 8.10915 4.16403 8.16849C4.16497 8.33577 4.19646 8.37304 4.33696 8.37306C4.49729 8.37311 4.85017 8.43567 5.05353 8.5001C5.55925 8.66034 5.89302 8.94874 6.00367 9.3211C6.03747 9.43489 6.044 9.6151 6.044 10.4361C6.044 10.9977 6.03295 11.4728 6.01807 11.55C5.96044 11.849 5.77274 12.1279 5.52296 12.2857C5.33959 12.4014 5.18607 12.4453 4.87941 12.4696C4.57073 12.494 4.43628 12.5438 4.25439 12.7014C4.19105 12.7563 4.13924 12.8092 4.13924 12.8191C4.13924 12.829 4.23354 12.8235 4.34877 12.8069C5.20299 12.6843 5.90767 12.6935 6.33256 12.8328L6.50683 12.89L6.63412 12.8424C7.01913 12.6984 7.80204 12.6847 8.65352 12.8069C8.76877 12.8235 8.86304 12.8293 8.86304 12.8199C8.86304 12.7836 8.65555 12.6207 8.52877 12.5574C8.42362 12.505 8.3389 12.4867 8.1231 12.4696C7.72808 12.4383 7.47356 12.3315 7.26576 12.1096C7.13847 11.9737 7.02078 11.7398 6.98421 11.55C6.96933 11.4728 6.95828 10.9977 6.95828 10.4361C6.95828 9.6151 6.96481 9.43489 6.99861 9.3211C7.15386 8.79863 7.74733 8.44812 8.59637 8.37746L8.79955 8.36054L8.81704 8.27306C8.84511 8.13277 8.88237 7.86139 8.87477 7.85259C8.87094 7.84814 8.77816 7.87234 8.6686 7.90633C8.17895 8.05829 7.54408 8.09126 7.28412 7.97821C6.84034 7.78523 6.66807 7.28778 6.8999 6.86861C7.06251 6.57456 7.53888 6.27029 9.07256 5.48084C9.46017 5.28131 9.77732 5.11383 9.77732 5.10868C9.77732 5.10351 9.7358 5.04577 9.68503 4.98036C9.63429 4.91493 9.56914 4.81363 9.54029 4.75519C9.51144 4.69676 9.47881 4.64897 9.46776 4.64897C9.45671 4.64897 9.33042 4.72593 9.1871 4.81998C8.1916 5.47329 7.52242 5.71723 7.18731 5.54897C6.89578 5.40261 6.76989 4.94045 6.82955 4.23555C6.84524 4.05029 6.86431 3.86789 6.87198 3.8302L6.8859 3.76169H6.50114H6.11638L6.1303 3.8302ZM1.05354 4.39076C0.851734 4.49596 0.5583 4.8272 0.5583 4.94982C0.5583 5.01615 0.866566 5.20803 1.1053 5.29031C1.28434 5.35202 1.34387 5.36007 1.62496 5.36064C1.87119 5.36114 1.97376 5.35069 2.08211 5.3141C2.37605 5.21478 2.69163 5.025 2.69163 4.94749C2.69163 4.87954 2.49452 4.60713 2.37838 4.51458C2.3202 4.46819 2.23484 4.41138 2.18872 4.38834C2.10852 4.34825 2.09856 4.34885 1.96015 4.40181C1.76302 4.47724 1.48706 4.47786 1.29481 4.40326C1.13107 4.33975 1.14959 4.3407 1.05354 4.39076ZM10.8059 4.39076C10.6041 4.49596 10.3107 4.8272 10.3107 4.94982C10.3107 5.01615 10.6189 5.20803 10.8576 5.29031C11.0367 5.35202 11.0962 5.36007 11.3773 5.36064C11.6235 5.36114 11.7261 5.35069 11.8345 5.3141C12.1284 5.21478 12.444 5.025 12.444 4.94749C12.444 4.87954 12.2469 4.60713 12.1307 4.51458C12.0726 4.46819 11.9872 4.41138 11.9411 4.38834C11.8609 4.34825 11.8509 4.34885 11.7125 4.40181C11.5154 4.47724 11.2394 4.47786 11.0472 4.40326C10.8834 4.33975 10.9019 4.3407 10.8059 4.39076ZM1.70115 6.8001C1.04841 6.96774 0.596523 7.45549 0.487901 8.10968C0.452294 8.32402 0.452193 8.37146 0.48691 8.58051C0.523151 8.79868 0.642541 9.12285 0.686681 9.12285C0.697602 9.12285 0.729856 9.08571 0.758376 9.04029C0.810287 8.95764 1.07022 8.7044 1.19959 8.61048L1.26842 8.56049L1.21895 8.42302C1.04711 7.94552 1.31479 7.40923 1.80005 7.25886C2.12599 7.15787 2.46222 7.23262 2.71408 7.46209C2.92629 7.65544 3.00792 7.84002 3.0064 8.1231C3.00553 8.28466 2.99227 8.36394 2.951 8.45411L2.89673 8.57269L2.96561 8.60783C3.07806 8.66516 3.27756 8.85019 3.3922 9.00343L3.4993 9.14664L3.54958 9.04102C3.70481 8.71502 3.75016 8.31922 3.66988 7.99153C3.55448 7.52052 3.24325 7.13322 2.81201 6.92402C2.44937 6.74812 2.06887 6.70568 1.70115 6.8001ZM10.5818 6.78536C9.98451 6.90805 9.47241 7.3972 9.33334 7.97783C9.25618 8.29985 9.29524 8.70298 9.43337 9.01038L9.49775 9.15361L9.60762 9.007C9.72429 8.85131 9.84668 8.73619 10.0056 8.63272L10.103 8.56929L10.049 8.45241C9.96417 8.26879 9.97217 7.95931 10.067 7.75514C10.2923 7.26989 10.8775 7.07646 11.3579 7.32845C11.7472 7.53265 11.9316 7.99818 11.7866 8.41065L11.7339 8.56049L11.8027 8.61048C11.9322 8.7045 12.192 8.95766 12.2439 9.04029C12.2724 9.08571 12.3047 9.12285 12.3156 9.12285C12.3597 9.12285 12.4791 8.79868 12.5154 8.58051C12.55 8.37164 12.55 8.32395 12.5146 8.11075C12.3872 7.34359 11.7709 6.79806 10.9898 6.76091C10.8413 6.75384 10.6914 6.76281 10.5818 6.78536ZM1.89168 7.71258C1.77717 7.77134 1.72421 7.8253 1.67274 7.93564C1.49153 8.32397 1.9027 8.71132 2.29678 8.52357C2.61503 8.37196 2.62938 7.91088 2.32142 7.73325C2.19819 7.66219 2.00777 7.65302 1.89168 7.71258ZM10.6784 7.7325C10.4623 7.86299 10.3936 8.13967 10.5232 8.35726C10.6398 8.55304 10.9108 8.62975 11.118 8.52565C11.2344 8.46719 11.2878 8.41043 11.3383 8.29171C11.4179 8.10413 11.3557 7.88578 11.1866 7.75879C11.0504 7.65657 10.8235 7.64484 10.6784 7.7325ZM1.49288 8.97303C1.3582 9.04437 1.16719 9.24134 1.08109 9.3977L1.00706 9.53214L1.10649 9.61687C1.2417 9.73212 1.53427 9.86696 1.74395 9.91067C2.19715 10.0052 2.67718 9.90348 3.05452 9.63302L3.17612 9.54587L3.0947 9.39553C3.00937 9.23797 2.78968 9.01925 2.6517 8.95449C2.57744 8.91965 2.5602 8.92102 2.42199 8.97298C2.23664 9.04267 1.96876 9.04852 1.80274 8.98648C1.62712 8.92087 1.59408 8.91945 1.49288 8.97303ZM10.2795 8.9985C10.1247 9.09948 9.97277 9.26514 9.89298 9.42012L9.82768 9.54694L9.94852 9.63357C10.3251 9.90345 10.8055 10.0051 11.2583 9.91067C11.468 9.86696 11.7606 9.73212 11.8958 9.61687L11.9952 9.53214L11.9212 9.3973C11.8298 9.23082 11.6195 9.02277 11.4801 8.96091C11.3825 8.91762 11.3697 8.9172 11.2899 8.95466C11.0746 9.05569 10.7861 9.05829 10.5502 8.96129C10.4248 8.90973 10.4133 8.91132 10.2795 8.9985Z" fill="#30422E" stroke="#F3ECDA" stroke-width="0.2" mask="url(#path-1-inside-1_386_13898)"/>
</svg>
