<svg xmlns="http://www.w3.org/2000/svg" width="18" height="18" viewBox="0 0 13 13" fill="none">
  <mask id="path-1-inside-1_260_9937" fill="white">
    <path fill-rule="evenodd" clip-rule="evenodd" d="M6.10028 0.168243C5.81253 0.242424 5.57632 0.377215 5.3559 0.592986C4.88159 1.05729 4.74643 1.75849 5.01568 2.35767C5.06907 2.47644 5.12972 2.5354 5.12972 2.46849C5.12972 2.41633 5.39382 2.13697 5.53718 2.03747C5.64646 1.96162 5.68497 1.92073 5.67295 1.89324C5.60324 1.73348 5.58066 1.63178 5.58119 1.47994C5.58206 1.24357 5.65647 1.05602 5.81876 0.881289C6.19699 0.473991 6.80699 0.475816 7.18734 0.885363C7.41522 1.13075 7.48681 1.49121 7.36748 1.79236L7.313 1.92983L7.36958 1.96732C7.54149 2.08121 7.68458 2.21243 7.77895 2.34272C7.83742 2.42345 7.89446 2.49009 7.90571 2.49083C7.94299 2.49328 8.04737 2.22413 8.09062 2.01408C8.19805 1.49229 8.03676 0.978165 7.6445 0.592161C7.23269 0.186863 6.64923 0.0266784 6.10028 0.168243ZM6.28527 1.08931C6.11933 1.19074 6.04397 1.31913 6.04405 1.50031C6.04415 1.82213 6.40743 2.0414 6.69842 1.89531C7.04029 1.72365 7.04224 1.25202 6.7018 1.07876C6.59973 1.02683 6.37832 1.03243 6.28527 1.08931ZM1.36483 2.19144C0.81402 2.29026 0.359926 2.63607 0.140854 3.12355C0.0632162 3.29633 -0.000555085 3.59566 3.64371e-06 3.78456C0.000613166 3.98169 0.0602447 4.24365 0.145019 4.42165L0.215444 4.56949L0.325488 4.4202C0.420752 4.29096 0.497704 4.22045 0.767341 4.0153C0.81656 3.97786 0.81689 3.97311 0.775671 3.89471C0.711976 3.77346 0.684446 3.56309 0.711164 3.40161C0.758198 3.11705 0.932293 2.88101 1.19777 2.74175C1.3329 2.67086 1.39111 2.65584 1.56559 2.64682C1.71461 2.63912 1.81097 2.64792 1.90844 2.67811C2.17376 2.76034 2.41518 2.99368 2.50461 3.25434C2.56558 3.432 2.55936 3.70241 2.49082 3.85489C2.46095 3.92133 2.44536 3.98294 2.45615 3.99176C2.46692 4.00061 2.5507 4.06534 2.64231 4.13562C2.73391 4.2059 2.85963 4.33227 2.92167 4.41643L3.03448 4.56949L3.10491 4.42165C3.2454 4.12667 3.282 3.79051 3.21061 3.45044C3.09018 2.87659 2.68195 2.42735 2.12218 2.25267C1.89623 2.18216 1.56559 2.15542 1.36483 2.19144ZM11.0853 2.20266C10.4257 2.3287 9.94161 2.79024 9.79335 3.43437C9.71772 3.76284 9.75581 4.12333 9.89791 4.42388L9.96884 4.57394L10.0409 4.46674C10.1277 4.33767 10.3036 4.16614 10.4526 4.06524L10.5618 3.99131L10.5231 3.90026C10.3378 3.46372 10.5209 2.96689 10.9501 2.74175C11.0853 2.67086 11.1435 2.65584 11.3179 2.64682C11.467 2.63912 11.5633 2.64792 11.6608 2.67811C11.9261 2.76034 12.1675 2.99368 12.257 3.25434C12.3179 3.432 12.3117 3.70241 12.2432 3.85489C12.2133 3.92133 12.1977 3.98294 12.2085 3.99176C12.2193 4.00061 12.3031 4.06534 12.3947 4.13562C12.4863 4.2059 12.612 4.33227 12.674 4.41643L12.7868 4.56949L12.8573 4.42165C13.2171 3.66612 12.8717 2.71775 12.1002 2.34372C11.794 2.19523 11.4062 2.14132 11.0853 2.20266ZM5.87435 2.36399C5.70465 2.47196 5.55549 2.63037 5.47798 2.78506C5.42671 2.88736 5.42653 2.89201 5.47158 2.941C5.54409 3.01985 5.7431 3.13742 5.91867 3.20513C6.28019 3.34457 6.73855 3.34475 7.08819 3.20561C7.27864 3.1298 7.5678 2.94407 7.5678 2.89753C7.5678 2.77619 7.33827 2.49781 7.12793 2.36399L6.9784 2.26889L6.8731 2.3243C6.78355 2.37141 6.72793 2.37971 6.50114 2.37971C6.27435 2.37971 6.21873 2.37141 6.12918 2.3243L6.02388 2.26889L5.87435 2.36399ZM1.43449 3.13135C1.14321 3.28044 1.07391 3.62548 1.29008 3.85032C1.38982 3.95407 1.47916 3.99181 1.62496 3.99181C2.10727 3.99181 2.25643 3.36459 1.82791 3.1384C1.72076 3.08186 1.5376 3.07856 1.43449 3.13135ZM11.1868 3.13135C10.8956 3.28044 10.8263 3.62548 11.0424 3.85032C11.1422 3.95407 11.2315 3.99181 11.3773 3.99181C11.8596 3.99181 12.0088 3.36459 11.5803 3.1384C11.4731 3.08186 11.29 3.07856 11.1868 3.13135ZM6.1303 3.82288C6.13797 3.86057 6.15704 4.04297 6.17274 4.22822C6.23239 4.93312 6.1065 5.39528 5.81497 5.54164C5.48128 5.70918 4.80096 5.46099 3.81627 4.81253C3.67357 4.71855 3.54783 4.64165 3.53688 4.64165C3.52591 4.64165 3.48837 4.69491 3.45348 4.75999C3.41858 4.8251 3.35288 4.92642 3.3075 4.98516C3.26212 5.04389 3.22496 5.09738 3.22496 5.104C3.22496 5.1106 3.33069 5.16804 3.45988 5.23162C3.86006 5.42852 4.64286 5.83979 5.01543 6.04887C5.51915 6.33157 5.83798 6.54292 5.96463 6.67813C6.30063 7.03687 6.28981 7.51622 5.93868 7.8269C5.76791 7.97801 5.56451 8.04079 5.2458 8.04079C4.97053 8.04079 4.61254 7.98506 4.33368 7.8988C4.22412 7.86491 4.13048 7.84114 4.12558 7.84597C4.12068 7.85079 4.12718 7.89943 4.14003 7.95401C4.15291 8.00863 4.1637 8.10183 4.16403 8.16116C4.16497 8.32845 4.19646 8.36571 4.33696 8.36574C4.49729 8.36579 4.85017 8.42835 5.05353 8.49278C5.55925 8.65301 5.89302 8.94142 6.00367 9.31377C6.03747 9.42757 6.044 9.60777 6.044 10.4288C6.044 10.9904 6.03295 11.4655 6.01807 11.5426C5.96044 11.8417 5.77274 12.1206 5.52296 12.2783C5.33959 12.3941 5.18607 12.438 4.87941 12.4622C4.57073 12.4867 4.43628 12.5365 4.25439 12.6941C4.19105 12.749 4.13924 12.8019 4.13924 12.8118C4.13924 12.8216 4.23354 12.8162 4.34877 12.7996C5.20299 12.677 5.90767 12.6862 6.33256 12.8255L6.50683 12.8827L6.63412 12.835C7.01913 12.6911 7.80204 12.6774 8.65352 12.7996C8.76877 12.8162 8.86304 12.822 8.86304 12.8126C8.86304 12.7763 8.65555 12.6133 8.52877 12.5501C8.42362 12.4977 8.3389 12.4793 8.12311 12.4623C7.72808 12.431 7.47356 12.3241 7.26576 12.1023C7.13847 11.9664 7.02078 11.7324 6.98421 11.5426C6.96933 11.4655 6.95828 10.9904 6.95828 10.4288C6.95828 9.60777 6.96481 9.42757 6.99861 9.31377C7.15386 8.7913 7.74733 8.44079 8.59637 8.37013L8.79955 8.35321L8.81705 8.26574C8.84511 8.12545 8.88237 7.85406 8.87477 7.84527C8.87094 7.84082 8.77816 7.86501 8.6686 7.899C8.17895 8.05096 7.54408 8.08393 7.28412 7.97088C6.84034 7.77791 6.66807 7.28046 6.8999 6.86129C7.06251 6.56724 7.53888 6.26296 9.07256 5.47351C9.46017 5.27399 9.77732 5.1065 9.77732 5.10136C9.77732 5.09618 9.7358 5.03845 9.68503 4.97304C9.63429 4.9076 9.56915 4.8063 9.54029 4.74787C9.51144 4.68943 9.47881 4.64165 9.46776 4.64165C9.45671 4.64165 9.33042 4.7186 9.1871 4.81265C8.1916 5.46596 7.52242 5.7099 7.18731 5.54164C6.89578 5.39528 6.76989 4.93312 6.82955 4.22822C6.84524 4.04297 6.86431 3.86057 6.87198 3.82288L6.8859 3.75437H6.50114H6.11638L6.1303 3.82288ZM1.05354 4.38344C0.851735 4.48863 0.5583 4.81988 0.5583 4.94249C0.5583 5.00883 0.866566 5.20071 1.1053 5.28298C1.28434 5.34469 1.34387 5.35274 1.62496 5.35332C1.87119 5.35382 1.97376 5.34337 2.08211 5.30678C2.37605 5.20745 2.69163 5.01768 2.69163 4.94017C2.69163 4.87221 2.49452 4.59981 2.37838 4.50725C2.3202 4.46087 2.23484 4.40406 2.18872 4.38101C2.10852 4.34092 2.09856 4.34152 1.96015 4.39448C1.76302 4.46991 1.48706 4.47054 1.29481 4.39593C1.13107 4.33242 1.14959 4.33337 1.05354 4.38344ZM10.8059 4.38344C10.6041 4.48863 10.3107 4.81988 10.3107 4.94249C10.3107 5.00883 10.6189 5.20071 10.8576 5.28298C11.0367 5.34469 11.0962 5.35274 11.3773 5.35332C11.6235 5.35382 11.7261 5.34337 11.8345 5.30678C12.1284 5.20745 12.444 5.01768 12.444 4.94017C12.444 4.87221 12.2469 4.59981 12.1307 4.50725C12.0726 4.46087 11.9872 4.40406 11.9411 4.38101C11.8609 4.34092 11.8509 4.34152 11.7125 4.39448C11.5154 4.46991 11.2394 4.47054 11.0472 4.39593C10.8834 4.33242 10.9019 4.33337 10.8059 4.38344ZM1.70115 6.79278C1.04841 6.96041 0.596523 7.44817 0.487901 8.10235C0.452294 8.3167 0.452193 8.36414 0.48691 8.57318C0.523151 8.79135 0.642542 9.11552 0.686681 9.11552C0.697602 9.11552 0.729856 9.07838 0.758376 9.03297C0.810287 8.95031 1.07022 8.69708 1.19959 8.60315L1.26842 8.55316L1.21895 8.4157C1.04711 7.93819 1.31479 7.4019 1.80005 7.25154C2.12599 7.15054 2.46222 7.2253 2.71408 7.45476C2.92629 7.64812 3.00792 7.83269 3.0064 8.11577C3.00553 8.27733 2.99227 8.35661 2.951 8.44679L2.89673 8.56536L2.96561 8.6005C3.07806 8.65784 3.27756 8.84286 3.3922 8.9961L3.4993 9.13932L3.54958 9.03369C3.70481 8.7077 3.75016 8.3119 3.66989 7.98421C3.55448 7.5132 3.24325 7.1259 2.81201 6.9167C2.44937 6.74079 2.06887 6.69835 1.70115 6.79278ZM10.5818 6.77803C9.98451 6.90073 9.47241 7.38988 9.33334 7.97051C9.25618 8.29253 9.29524 8.69565 9.43337 9.00305L9.49776 9.14629L9.60762 8.99968C9.72429 8.84399 9.84668 8.72887 10.0056 8.6254L10.103 8.56196L10.049 8.44509C9.96417 8.26146 9.97217 7.95199 10.067 7.74782C10.2923 7.26256 10.8775 7.06914 11.3579 7.32112C11.7472 7.52532 11.9316 7.99085 11.7866 8.40333L11.7339 8.55316L11.8027 8.60315C11.9322 8.69718 12.192 8.95034 12.2439 9.03297C12.2724 9.07838 12.3047 9.11552 12.3156 9.11552C12.3597 9.11552 12.4791 8.79135 12.5154 8.57318C12.55 8.36431 12.55 8.31662 12.5146 8.10343C12.3872 7.33627 11.7709 6.79073 10.9898 6.75359C10.8413 6.74652 10.6914 6.75549 10.5818 6.77803ZM1.89168 7.70525C1.77717 7.76401 1.72421 7.81797 1.67274 7.92832C1.49153 8.31665 1.9027 8.704 2.29678 8.51625C2.61503 8.36464 2.62938 7.90355 2.32142 7.72592C2.19819 7.65486 2.00777 7.64569 1.89168 7.70525ZM10.6784 7.72517C10.4623 7.85566 10.3937 8.13234 10.5232 8.34994C10.6398 8.54572 10.9108 8.62242 11.118 8.51832C11.2344 8.45986 11.2878 8.4031 11.3383 8.28438C11.4179 8.0968 11.3557 7.87846 11.1866 7.75147C11.0504 7.64924 10.8235 7.63752 10.6784 7.72517ZM1.49288 8.96571C1.3582 9.03704 1.16719 9.23402 1.08109 9.39038L1.00706 9.52482L1.10649 9.60955C1.2417 9.72479 1.53427 9.85964 1.74395 9.90335C2.19715 9.99785 2.67718 9.89615 3.05452 9.62569L3.17612 9.53854L3.0947 9.3882C3.00937 9.23064 2.78968 9.01192 2.6517 8.94716C2.57744 8.91232 2.5602 8.9137 2.42199 8.96566C2.23665 9.03534 1.96876 9.04119 1.80274 8.97916C1.62712 8.91355 1.59408 8.91212 1.49288 8.96571ZM10.2795 8.99118C10.1247 9.09215 9.97278 9.25781 9.89298 9.4128L9.82768 9.53962L9.94852 9.62624C10.3251 9.89613 10.8055 9.99778 11.2583 9.90335C11.468 9.85964 11.7606 9.72479 11.8958 9.60955L11.9952 9.52482L11.9212 9.38998C11.8298 9.2235 11.6195 9.01545 11.4801 8.95359C11.3825 8.9103 11.3697 8.90987 11.2899 8.94734C11.0746 9.04836 10.7861 9.05096 10.5502 8.95396C10.4248 8.9024 10.4133 8.904 10.2795 8.99118Z"/>
  </mask>
  <path fill-rule="evenodd" clip-rule="evenodd" d="M6.10028 0.168243C5.81253 0.242424 5.57632 0.377215 5.3559 0.592986C4.88159 1.05729 4.74643 1.75849 5.01568 2.35767C5.06907 2.47644 5.12972 2.5354 5.12972 2.46849C5.12972 2.41633 5.39382 2.13697 5.53718 2.03747C5.64646 1.96162 5.68497 1.92073 5.67295 1.89324C5.60324 1.73348 5.58066 1.63178 5.58119 1.47994C5.58206 1.24357 5.65647 1.05602 5.81876 0.881289C6.19699 0.473991 6.80699 0.475816 7.18734 0.885363C7.41522 1.13075 7.48681 1.49121 7.36748 1.79236L7.313 1.92983L7.36958 1.96732C7.54149 2.08121 7.68458 2.21243 7.77895 2.34272C7.83742 2.42345 7.89446 2.49009 7.90571 2.49083C7.94299 2.49328 8.04737 2.22413 8.09062 2.01408C8.19805 1.49229 8.03676 0.978165 7.6445 0.592161C7.23269 0.186863 6.64923 0.0266784 6.10028 0.168243ZM6.28527 1.08931C6.11933 1.19074 6.04397 1.31913 6.04405 1.50031C6.04415 1.82213 6.40743 2.0414 6.69842 1.89531C7.04029 1.72365 7.04224 1.25202 6.7018 1.07876C6.59973 1.02683 6.37832 1.03243 6.28527 1.08931ZM1.36483 2.19144C0.81402 2.29026 0.359926 2.63607 0.140854 3.12355C0.0632162 3.29633 -0.000555085 3.59566 3.64371e-06 3.78456C0.000613166 3.98169 0.0602447 4.24365 0.145019 4.42165L0.215444 4.56949L0.325488 4.4202C0.420752 4.29096 0.497704 4.22045 0.767341 4.0153C0.81656 3.97786 0.81689 3.97311 0.775671 3.89471C0.711976 3.77346 0.684446 3.56309 0.711164 3.40161C0.758198 3.11705 0.932293 2.88101 1.19777 2.74175C1.3329 2.67086 1.39111 2.65584 1.56559 2.64682C1.71461 2.63912 1.81097 2.64792 1.90844 2.67811C2.17376 2.76034 2.41518 2.99368 2.50461 3.25434C2.56558 3.432 2.55936 3.70241 2.49082 3.85489C2.46095 3.92133 2.44536 3.98294 2.45615 3.99176C2.46692 4.00061 2.5507 4.06534 2.64231 4.13562C2.73391 4.2059 2.85963 4.33227 2.92167 4.41643L3.03448 4.56949L3.10491 4.42165C3.2454 4.12667 3.282 3.79051 3.21061 3.45044C3.09018 2.87659 2.68195 2.42735 2.12218 2.25267C1.89623 2.18216 1.56559 2.15542 1.36483 2.19144ZM11.0853 2.20266C10.4257 2.3287 9.94161 2.79024 9.79335 3.43437C9.71772 3.76284 9.75581 4.12333 9.89791 4.42388L9.96884 4.57394L10.0409 4.46674C10.1277 4.33767 10.3036 4.16614 10.4526 4.06524L10.5618 3.99131L10.5231 3.90026C10.3378 3.46372 10.5209 2.96689 10.9501 2.74175C11.0853 2.67086 11.1435 2.65584 11.3179 2.64682C11.467 2.63912 11.5633 2.64792 11.6608 2.67811C11.9261 2.76034 12.1675 2.99368 12.257 3.25434C12.3179 3.432 12.3117 3.70241 12.2432 3.85489C12.2133 3.92133 12.1977 3.98294 12.2085 3.99176C12.2193 4.00061 12.3031 4.06534 12.3947 4.13562C12.4863 4.2059 12.612 4.33227 12.674 4.41643L12.7868 4.56949L12.8573 4.42165C13.2171 3.66612 12.8717 2.71775 12.1002 2.34372C11.794 2.19523 11.4062 2.14132 11.0853 2.20266ZM5.87435 2.36399C5.70465 2.47196 5.55549 2.63037 5.47798 2.78506C5.42671 2.88736 5.42653 2.89201 5.47158 2.941C5.54409 3.01985 5.7431 3.13742 5.91867 3.20513C6.28019 3.34457 6.73855 3.34475 7.08819 3.20561C7.27864 3.1298 7.5678 2.94407 7.5678 2.89753C7.5678 2.77619 7.33827 2.49781 7.12793 2.36399L6.9784 2.26889L6.8731 2.3243C6.78355 2.37141 6.72793 2.37971 6.50114 2.37971C6.27435 2.37971 6.21873 2.37141 6.12918 2.3243L6.02388 2.26889L5.87435 2.36399ZM1.43449 3.13135C1.14321 3.28044 1.07391 3.62548 1.29008 3.85032C1.38982 3.95407 1.47916 3.99181 1.62496 3.99181C2.10727 3.99181 2.25643 3.36459 1.82791 3.1384C1.72076 3.08186 1.5376 3.07856 1.43449 3.13135ZM11.1868 3.13135C10.8956 3.28044 10.8263 3.62548 11.0424 3.85032C11.1422 3.95407 11.2315 3.99181 11.3773 3.99181C11.8596 3.99181 12.0088 3.36459 11.5803 3.1384C11.4731 3.08186 11.29 3.07856 11.1868 3.13135ZM6.1303 3.82288C6.13797 3.86057 6.15704 4.04297 6.17274 4.22822C6.23239 4.93312 6.1065 5.39528 5.81497 5.54164C5.48128 5.70918 4.80096 5.46099 3.81627 4.81253C3.67357 4.71855 3.54783 4.64165 3.53688 4.64165C3.52591 4.64165 3.48837 4.69491 3.45348 4.75999C3.41858 4.8251 3.35288 4.92642 3.3075 4.98516C3.26212 5.04389 3.22496 5.09738 3.22496 5.104C3.22496 5.1106 3.33069 5.16804 3.45988 5.23162C3.86006 5.42852 4.64286 5.83979 5.01543 6.04887C5.51915 6.33157 5.83798 6.54292 5.96463 6.67813C6.30063 7.03687 6.28981 7.51622 5.93868 7.8269C5.76791 7.97801 5.56451 8.04079 5.2458 8.04079C4.97053 8.04079 4.61254 7.98506 4.33368 7.8988C4.22412 7.86491 4.13048 7.84114 4.12558 7.84597C4.12068 7.85079 4.12718 7.89943 4.14003 7.95401C4.15291 8.00863 4.1637 8.10183 4.16403 8.16116C4.16497 8.32845 4.19646 8.36571 4.33696 8.36574C4.49729 8.36579 4.85017 8.42835 5.05353 8.49278C5.55925 8.65301 5.89302 8.94142 6.00367 9.31377C6.03747 9.42757 6.044 9.60777 6.044 10.4288C6.044 10.9904 6.03295 11.4655 6.01807 11.5426C5.96044 11.8417 5.77274 12.1206 5.52296 12.2783C5.33959 12.3941 5.18607 12.438 4.87941 12.4622C4.57073 12.4867 4.43628 12.5365 4.25439 12.6941C4.19105 12.749 4.13924 12.8019 4.13924 12.8118C4.13924 12.8216 4.23354 12.8162 4.34877 12.7996C5.20299 12.677 5.90767 12.6862 6.33256 12.8255L6.50683 12.8827L6.63412 12.835C7.01913 12.6911 7.80204 12.6774 8.65352 12.7996C8.76877 12.8162 8.86304 12.822 8.86304 12.8126C8.86304 12.7763 8.65555 12.6133 8.52877 12.5501C8.42362 12.4977 8.3389 12.4793 8.12311 12.4623C7.72808 12.431 7.47356 12.3241 7.26576 12.1023C7.13847 11.9664 7.02078 11.7324 6.98421 11.5426C6.96933 11.4655 6.95828 10.9904 6.95828 10.4288C6.95828 9.60777 6.96481 9.42757 6.99861 9.31377C7.15386 8.7913 7.74733 8.44079 8.59637 8.37013L8.79955 8.35321L8.81705 8.26574C8.84511 8.12545 8.88237 7.85406 8.87477 7.84527C8.87094 7.84082 8.77816 7.86501 8.6686 7.899C8.17895 8.05096 7.54408 8.08393 7.28412 7.97088C6.84034 7.77791 6.66807 7.28046 6.8999 6.86129C7.06251 6.56724 7.53888 6.26296 9.07256 5.47351C9.46017 5.27399 9.77732 5.1065 9.77732 5.10136C9.77732 5.09618 9.7358 5.03845 9.68503 4.97304C9.63429 4.9076 9.56915 4.8063 9.54029 4.74787C9.51144 4.68943 9.47881 4.64165 9.46776 4.64165C9.45671 4.64165 9.33042 4.7186 9.1871 4.81265C8.1916 5.46596 7.52242 5.7099 7.18731 5.54164C6.89578 5.39528 6.76989 4.93312 6.82955 4.22822C6.84524 4.04297 6.86431 3.86057 6.87198 3.82288L6.8859 3.75437H6.50114H6.11638L6.1303 3.82288ZM1.05354 4.38344C0.851735 4.48863 0.5583 4.81988 0.5583 4.94249C0.5583 5.00883 0.866566 5.20071 1.1053 5.28298C1.28434 5.34469 1.34387 5.35274 1.62496 5.35332C1.87119 5.35382 1.97376 5.34337 2.08211 5.30678C2.37605 5.20745 2.69163 5.01768 2.69163 4.94017C2.69163 4.87221 2.49452 4.59981 2.37838 4.50725C2.3202 4.46087 2.23484 4.40406 2.18872 4.38101C2.10852 4.34092 2.09856 4.34152 1.96015 4.39448C1.76302 4.46991 1.48706 4.47054 1.29481 4.39593C1.13107 4.33242 1.14959 4.33337 1.05354 4.38344ZM10.8059 4.38344C10.6041 4.48863 10.3107 4.81988 10.3107 4.94249C10.3107 5.00883 10.6189 5.20071 10.8576 5.28298C11.0367 5.34469 11.0962 5.35274 11.3773 5.35332C11.6235 5.35382 11.7261 5.34337 11.8345 5.30678C12.1284 5.20745 12.444 5.01768 12.444 4.94017C12.444 4.87221 12.2469 4.59981 12.1307 4.50725C12.0726 4.46087 11.9872 4.40406 11.9411 4.38101C11.8609 4.34092 11.8509 4.34152 11.7125 4.39448C11.5154 4.46991 11.2394 4.47054 11.0472 4.39593C10.8834 4.33242 10.9019 4.33337 10.8059 4.38344ZM1.70115 6.79278C1.04841 6.96041 0.596523 7.44817 0.487901 8.10235C0.452294 8.3167 0.452193 8.36414 0.48691 8.57318C0.523151 8.79135 0.642542 9.11552 0.686681 9.11552C0.697602 9.11552 0.729856 9.07838 0.758376 9.03297C0.810287 8.95031 1.07022 8.69708 1.19959 8.60315L1.26842 8.55316L1.21895 8.4157C1.04711 7.93819 1.31479 7.4019 1.80005 7.25154C2.12599 7.15054 2.46222 7.2253 2.71408 7.45476C2.92629 7.64812 3.00792 7.83269 3.0064 8.11577C3.00553 8.27733 2.99227 8.35661 2.951 8.44679L2.89673 8.56536L2.96561 8.6005C3.07806 8.65784 3.27756 8.84286 3.3922 8.9961L3.4993 9.13932L3.54958 9.03369C3.70481 8.7077 3.75016 8.3119 3.66989 7.98421C3.55448 7.5132 3.24325 7.1259 2.81201 6.9167C2.44937 6.74079 2.06887 6.69835 1.70115 6.79278ZM10.5818 6.77803C9.98451 6.90073 9.47241 7.38988 9.33334 7.97051C9.25618 8.29253 9.29524 8.69565 9.43337 9.00305L9.49776 9.14629L9.60762 8.99968C9.72429 8.84399 9.84668 8.72887 10.0056 8.6254L10.103 8.56196L10.049 8.44509C9.96417 8.26146 9.97217 7.95199 10.067 7.74782C10.2923 7.26256 10.8775 7.06914 11.3579 7.32112C11.7472 7.52532 11.9316 7.99085 11.7866 8.40333L11.7339 8.55316L11.8027 8.60315C11.9322 8.69718 12.192 8.95034 12.2439 9.03297C12.2724 9.07838 12.3047 9.11552 12.3156 9.11552C12.3597 9.11552 12.4791 8.79135 12.5154 8.57318C12.55 8.36431 12.55 8.31662 12.5146 8.10343C12.3872 7.33627 11.7709 6.79073 10.9898 6.75359C10.8413 6.74652 10.6914 6.75549 10.5818 6.77803ZM1.89168 7.70525C1.77717 7.76401 1.72421 7.81797 1.67274 7.92832C1.49153 8.31665 1.9027 8.704 2.29678 8.51625C2.61503 8.36464 2.62938 7.90355 2.32142 7.72592C2.19819 7.65486 2.00777 7.64569 1.89168 7.70525ZM10.6784 7.72517C10.4623 7.85566 10.3937 8.13234 10.5232 8.34994C10.6398 8.54572 10.9108 8.62242 11.118 8.51832C11.2344 8.45986 11.2878 8.4031 11.3383 8.28438C11.4179 8.0968 11.3557 7.87846 11.1866 7.75147C11.0504 7.64924 10.8235 7.63752 10.6784 7.72517ZM1.49288 8.96571C1.3582 9.03704 1.16719 9.23402 1.08109 9.39038L1.00706 9.52482L1.10649 9.60955C1.2417 9.72479 1.53427 9.85964 1.74395 9.90335C2.19715 9.99785 2.67718 9.89615 3.05452 9.62569L3.17612 9.53854L3.0947 9.3882C3.00937 9.23064 2.78968 9.01192 2.6517 8.94716C2.57744 8.91232 2.5602 8.9137 2.42199 8.96566C2.23665 9.03534 1.96876 9.04119 1.80274 8.97916C1.62712 8.91355 1.59408 8.91212 1.49288 8.96571ZM10.2795 8.99118C10.1247 9.09215 9.97278 9.25781 9.89298 9.4128L9.82768 9.53962L9.94852 9.62624C10.3251 9.89613 10.8055 9.99778 11.2583 9.90335C11.468 9.85964 11.7606 9.72479 11.8958 9.60955L11.9952 9.52482L11.9212 9.38998C11.8298 9.2235 11.6195 9.01545 11.4801 8.95359C11.3825 8.9103 11.3697 8.90987 11.2899 8.94734C11.0746 9.04836 10.7861 9.05096 10.5502 8.95396C10.4248 8.9024 10.4133 8.904 10.2795 8.99118Z" fill="white" stroke="white" stroke-width="0.2" mask="url(#path-1-inside-1_260_9937)"/>
</svg>