<svg xmlns="http://www.w3.org/2000/svg" width="35" height="31" viewBox="0 0 35 31" fill="none">
  <path fill-rule="evenodd" clip-rule="evenodd" d="M16.4238 0.122803C15.6491 0.302954 15.0132 0.630297 14.4197 1.1543C13.1427 2.28188 12.7788 3.98476 13.5038 5.43987C13.6475 5.7283 13.8108 5.87149 13.8108 5.709C13.8108 5.58232 14.5218 4.90391 14.9078 4.66227C15.202 4.47805 15.3057 4.37875 15.2733 4.31198C15.0856 3.924 15.0249 3.67702 15.0263 3.30828C15.0286 2.73426 15.229 2.27879 15.6659 1.85445C16.6842 0.865319 18.3265 0.86975 19.3505 1.86434C19.9641 2.46027 20.1568 3.33566 19.8355 4.067L19.6888 4.40084L19.8412 4.49189C20.304 4.76849 20.6892 5.08715 20.9433 5.40357C21.1007 5.59962 21.2543 5.76144 21.2846 5.76326C21.385 5.76921 21.666 5.11556 21.7824 4.60545C22.0717 3.33827 21.6374 2.08971 20.5814 1.1523C19.4726 0.168023 17.9018 -0.220989 16.4238 0.122803ZM16.9219 2.35964C16.4751 2.60595 16.2722 2.91775 16.2724 3.35775C16.2727 4.1393 17.2508 4.6718 18.0342 4.31702C18.9546 3.90015 18.9599 2.75478 18.0433 2.33402C17.7685 2.20789 17.1724 2.22149 16.9219 2.35964ZM3.67453 5.03617C2.19159 5.27617 0.969033 6.11598 0.379222 7.29983C0.170197 7.71943 -0.00149446 8.44635 9.80999e-06 8.9051C0.00165083 9.38383 0.162197 10.02 0.390436 10.4523L0.580042 10.8113L0.876315 10.4488C1.13279 10.1349 1.33997 9.96367 2.06592 9.46546C2.19843 9.37454 2.19932 9.36301 2.08835 9.1726C1.91686 8.87815 1.84274 8.36726 1.91467 7.97509C2.0413 7.28405 2.51002 6.71082 3.22475 6.37261C3.58858 6.20047 3.7453 6.16399 4.21504 6.14208C4.61627 6.12338 4.87569 6.14475 5.13812 6.21807C5.85244 6.41777 6.50242 6.98444 6.74317 7.61746C6.90734 8.0489 6.89059 8.70559 6.70604 9.07591C6.62563 9.23724 6.58365 9.38686 6.61271 9.40829C6.6417 9.42977 6.86727 9.58698 7.1139 9.75766C7.36054 9.92835 7.699 10.2352 7.86604 10.4396L8.16976 10.8113L8.35937 10.4523C8.73763 9.73593 8.83616 8.91955 8.64395 8.09369C8.31971 6.70007 7.22064 5.60909 5.71357 5.18488C5.10523 5.01365 4.21504 4.9487 3.67453 5.03617ZM29.8449 5.06342C28.0692 5.36952 26.7659 6.49036 26.3667 8.05467C26.1631 8.85236 26.2656 9.7278 26.6482 10.4577L26.8392 10.8221L27.0333 10.5618C27.2669 10.2483 27.7405 9.83178 28.1417 9.58674L28.4357 9.4072L28.3316 9.18607C27.8326 8.12593 28.3255 6.91938 29.4811 6.37261C29.8449 6.20047 30.0016 6.16399 30.4714 6.14208C30.8726 6.12338 31.132 6.14475 31.3944 6.21807C32.1088 6.41777 32.7588 6.98444 32.9995 7.61746C33.1637 8.0489 33.1469 8.70559 32.9624 9.07591C32.882 9.23724 32.84 9.38686 32.869 9.40829C32.898 9.42977 33.1236 9.58698 33.3702 9.75766C33.6169 9.92835 33.9553 10.2352 34.1224 10.4396L34.4261 10.8113L34.6157 10.4523C35.5846 8.61746 34.6545 6.31434 32.5776 5.406C31.753 5.04539 30.709 4.91447 29.8449 5.06342ZM15.8156 5.45522C15.3587 5.71744 14.9571 6.10214 14.7484 6.4778C14.6104 6.72623 14.6099 6.73752 14.7312 6.85649C14.9264 7.04799 15.4622 7.33352 15.9349 7.49795C16.9082 7.83658 18.1422 7.837 19.0836 7.4991C19.5963 7.315 20.3749 6.86396 20.3749 6.75094C20.3749 6.45625 19.7569 5.7802 19.1906 5.45522L18.788 5.22427L18.5045 5.35884C18.2634 5.47325 18.1137 5.4934 17.5031 5.4934C16.8925 5.4934 16.7427 5.47325 16.5016 5.35884L16.2182 5.22427L15.8156 5.45522ZM3.86208 7.31877C3.07788 7.68083 2.89128 8.51876 3.4733 9.0648C3.74181 9.31676 3.98236 9.40841 4.3749 9.40841C5.67343 9.40841 6.075 7.8852 4.9213 7.33588C4.63282 7.19859 4.13969 7.19057 3.86208 7.31877ZM30.1184 7.31877C29.3342 7.68083 29.1476 8.51876 29.7296 9.0648C29.9981 9.31676 30.2387 9.40841 30.6312 9.40841C31.9298 9.40841 32.3313 7.8852 31.1776 7.33588C30.8892 7.19859 30.396 7.19057 30.1184 7.31877ZM16.5046 8.99815C16.5253 9.08968 16.5766 9.53266 16.6189 9.98255C16.7795 11.6944 16.4406 12.8168 15.6557 13.1722C14.7573 13.5791 12.9256 12.9763 10.2746 11.4015C9.89037 11.1733 9.55184 10.9866 9.52238 10.9866C9.49284 10.9866 9.39178 11.1159 9.29783 11.274C9.20388 11.4321 9.02699 11.6781 8.90481 11.8208C8.78262 11.9634 8.68258 12.0933 8.68258 12.1094C8.68258 12.1254 8.96723 12.2649 9.31506 12.4193C10.3925 12.8975 12.5 13.8963 13.5031 14.404C14.8592 15.0906 15.7176 15.6038 16.0586 15.9322C16.9632 16.8034 16.9341 17.9675 15.9888 18.722C15.529 19.089 14.9814 19.2414 14.1233 19.2414C13.3822 19.2414 12.4184 19.1061 11.6676 18.8966C11.3726 18.8143 11.1205 18.7566 11.1073 18.7683C11.0941 18.78 11.1116 18.8981 11.1462 19.0307C11.1809 19.1633 11.21 19.3897 11.2108 19.5338C11.2134 19.94 11.2982 20.0305 11.6764 20.0306C12.1081 20.0307 13.0582 20.1826 13.6056 20.3391C14.9672 20.7282 15.8658 21.4286 16.1637 22.3329C16.2547 22.6093 16.2723 23.0469 16.2723 25.0408C16.2723 26.4046 16.2426 27.5584 16.2025 27.7458C16.0473 28.4721 15.542 29.1494 14.8695 29.5324C14.3758 29.8135 13.9625 29.9201 13.1369 29.979C12.3058 30.0383 11.9438 30.1594 11.4541 30.5421C11.2836 30.6753 11.1441 30.8039 11.1441 30.8279C11.1441 30.8518 11.398 30.8385 11.7082 30.7984C14.008 30.5005 15.9053 30.5228 17.0492 30.8612L17.5184 31L17.8611 30.8844C18.8977 30.5348 21.0055 30.5014 23.2979 30.7984C23.6082 30.8385 23.862 30.8527 23.862 30.8298C23.862 30.7416 23.3034 30.346 22.9621 30.1924C22.679 30.0651 22.4509 30.0205 21.8699 29.9791C20.8064 29.9031 20.1211 29.6436 19.5617 29.1048C19.219 28.7748 18.9021 28.2067 18.8036 27.7458C18.7636 27.5584 18.7338 26.4046 18.7338 25.0408C18.7338 23.0469 18.7514 22.6093 18.8424 22.3329C19.2604 21.0641 20.8582 20.2129 23.1441 20.0413L23.6911 20.0002L23.7382 19.7877C23.8138 19.447 23.9141 18.788 23.8936 18.7666C23.8833 18.7558 23.6335 18.8146 23.3385 18.8971C22.0203 19.2661 20.311 19.3462 19.6111 19.0717C18.4163 18.603 17.9525 17.395 18.5766 16.377C19.0145 15.6629 20.297 14.924 24.4261 13.0068C25.4697 12.5222 26.3236 12.1155 26.3236 12.103C26.3236 12.0904 26.2118 11.9502 26.0751 11.7913C25.9385 11.6324 25.7631 11.3864 25.6854 11.2445C25.6077 11.1026 25.5199 10.9866 25.4901 10.9866C25.4604 10.9866 25.1203 11.1734 24.7345 11.4018C22.0543 12.9884 20.2527 13.5808 19.3505 13.1722C18.5656 12.8168 18.2266 11.6944 18.3872 9.98255C18.4295 9.53266 18.4808 9.08968 18.5015 8.99815L18.539 8.83178H17.5031H16.4672L16.5046 8.99815ZM2.83645 10.3595C2.29313 10.615 1.50312 11.4194 1.50312 11.7172C1.50312 11.8783 2.33306 12.3442 2.9758 12.5441C3.45785 12.6939 3.61812 12.7135 4.3749 12.7149C5.03781 12.7161 5.31398 12.6907 5.60567 12.6018C6.39705 12.3606 7.24669 11.8997 7.24669 11.7115C7.24669 11.5465 6.71603 10.8849 6.40334 10.6602C6.24669 10.5475 6.01688 10.4096 5.89271 10.3536C5.67678 10.2562 5.64998 10.2577 5.27733 10.3863C4.74659 10.5695 4.00362 10.571 3.48602 10.3898C3.0452 10.2356 3.09504 10.2379 2.83645 10.3595ZM29.0928 10.3595C28.5495 10.615 27.7595 11.4194 27.7595 11.7172C27.7595 11.8783 28.5894 12.3442 29.2321 12.5441C29.7142 12.6939 29.8745 12.7135 30.6312 12.7149C31.2941 12.7161 31.5703 12.6907 31.862 12.6018C32.6534 12.3606 33.503 11.8997 33.503 11.7115C33.503 11.5465 32.9724 10.8849 32.6597 10.6602C32.503 10.5475 32.2732 10.4096 32.149 10.3536C31.9331 10.2562 31.9063 10.2577 31.5337 10.3863C31.0029 10.5695 30.26 10.571 29.7424 10.3898C29.3015 10.2356 29.3514 10.2379 29.0928 10.3595ZM4.58003 16.2106C2.82263 16.6177 1.60602 17.8022 1.31358 19.3909C1.21772 19.9115 1.21744 20.0267 1.31091 20.5344C1.40848 21.0642 1.72992 21.8515 1.84876 21.8515C1.87816 21.8515 1.965 21.7613 2.04178 21.651C2.18154 21.4502 2.88137 20.8352 3.22968 20.6071L3.41497 20.4858L3.28178 20.1519C2.81915 18.9923 3.53983 17.6899 4.84629 17.3247C5.72382 17.0795 6.62905 17.261 7.30714 17.8183C7.87848 18.2878 8.09824 18.7361 8.09414 19.4235C8.09182 19.8159 8.05612 20.0084 7.94501 20.2274L7.79889 20.5154L7.98433 20.6007C8.2871 20.74 8.82419 21.1893 9.13284 21.5614L9.42118 21.9092L9.55656 21.6527C9.97448 20.861 10.0966 19.8998 9.88046 19.104C9.56976 17.9602 8.73181 17.0196 7.57079 16.5116C6.59445 16.0844 5.57005 15.9813 4.58003 16.2106ZM28.4894 16.1748C26.8814 16.4728 25.5026 17.6607 25.1282 19.0708C24.9205 19.8528 25.0256 20.8318 25.3975 21.5783L25.5709 21.9262L25.8667 21.5701C26.1808 21.192 26.5103 20.9125 26.9381 20.6612L27.2003 20.5071L27.055 20.2233C26.8266 19.7773 26.8481 19.0258 27.1034 18.5299C27.71 17.3515 29.2855 16.8818 30.5789 17.4937C31.6271 17.9896 32.1235 19.1202 31.7331 20.1219L31.5913 20.4858L31.7766 20.6071C32.125 20.8355 32.8247 21.4503 32.9644 21.651C33.0411 21.7613 33.128 21.8515 33.1574 21.8515C33.2762 21.8515 33.5977 21.0642 33.6952 20.5344C33.7886 20.0271 33.7884 19.9113 33.693 19.3936C33.3501 17.5305 31.691 16.2056 29.588 16.1155C29.1882 16.0983 28.7846 16.1201 28.4894 16.1748ZM5.09299 18.4266C4.78468 18.5693 4.64212 18.7003 4.50352 18.9683C4.01566 19.9114 5.12266 20.8521 6.18365 20.3961C7.04047 20.0279 7.0791 18.9082 6.24998 18.4768C5.91822 18.3042 5.40553 18.2819 5.09299 18.4266ZM28.7495 18.475C28.1679 18.7919 27.9829 19.4638 28.3318 19.9922C28.6457 20.4677 29.3752 20.6539 29.9331 20.4011C30.2465 20.2592 30.3904 20.1213 30.5261 19.833C30.7405 19.3775 30.5731 18.8472 30.1177 18.5388C29.7511 18.2906 29.1401 18.2621 28.7495 18.475ZM4.01928 21.4876C3.65668 21.6609 3.14243 22.1392 2.91063 22.5189L2.71132 22.8454L2.97901 23.0512C3.34304 23.3311 4.13073 23.6585 4.69524 23.7647C5.91541 23.9942 7.20778 23.7472 8.22371 23.0904L8.5511 22.8788L8.33188 22.5137C8.10214 22.131 7.51069 21.5999 7.1392 21.4426C6.93927 21.358 6.89285 21.3613 6.52074 21.4875C6.02174 21.6567 5.30051 21.6709 4.85353 21.5203C4.38072 21.361 4.29176 21.3575 4.01928 21.4876ZM27.6757 21.5495C27.2587 21.7947 26.8498 22.197 26.6349 22.5734L26.4591 22.8814L26.7845 23.0917C27.7982 23.7472 29.0918 23.994 30.3109 23.7647C30.8754 23.6585 31.6631 23.3311 32.0271 23.0512L32.2948 22.8454L32.0955 22.518C31.8494 22.1137 31.2833 21.6084 30.9079 21.4582C30.6453 21.3531 30.6108 21.352 30.3959 21.443C29.8163 21.6884 29.0395 21.6947 28.4044 21.4591C28.0668 21.3339 28.0358 21.3378 27.6757 21.5495Z" fill="white"/>
</svg>