<svg width="22" height="14" viewBox="0 0 22 14" fill="none" xmlns="http://www.w3.org/2000/svg">
<path d="M7.1875 9.86328C9.65556 9.86328 11.6562 7.86259 11.6562 5.39453C11.6562 2.92651 9.65556 0.925781 7.1875 0.925781C4.71948 0.925781 2.71875 2.92651 2.71875 5.39453C2.71875 7.86259 4.71948 9.86328 7.1875 9.86328Z" stroke="#30422E" stroke-width="1.375" stroke-miterlimit="10"/>
<path d="M12.9805 1.09131C13.5951 0.91814 14.2398 0.878685 14.8709 0.975615C15.5021 1.07255 16.1052 1.30361 16.6395 1.65324C17.1739 2.00287 17.6271 2.46295 17.9686 3.00246C18.3102 3.54201 18.5322 4.14852 18.6197 4.78109C18.7071 5.41359 18.658 6.05757 18.4756 6.66952C18.2932 7.28153 17.9818 7.84727 17.5624 8.3288C17.1429 8.81026 16.6251 9.19629 16.044 9.46084C15.4628 9.72539 14.8316 9.86227 14.193 9.86234" stroke="#30422E" stroke-width="1.375" stroke-linecap="round" stroke-linejoin="round"/>
<path d="M1 13.0771C1.69793 12.0843 2.62447 11.274 3.7014 10.7147C4.77834 10.1553 5.97404 9.86335 7.18756 9.86328C8.40114 9.86321 9.59684 10.1552 10.6738 10.7144C11.7508 11.2737 12.6774 12.0839 13.3754 13.0766" stroke="#30422E" stroke-width="1.375" stroke-linecap="round" stroke-linejoin="round"/>
<path d="M14.1934 9.86328C15.407 9.86239 16.603 10.154 17.68 10.7133C18.7571 11.2727 19.6835 12.0833 20.3809 13.0766" stroke="#30422E" stroke-width="1.375" stroke-linecap="round" stroke-linejoin="round"/>
</svg>
