<svg xmlns="http://www.w3.org/2000/svg" width="15" height="13" viewBox="0 0 15 13" fill="none">
  <path fill-rule="evenodd" clip-rule="evenodd" d="M2.19258 0.258501C2.09529 0.290434 2.01554 0.533752 2.01554 0.799254C2.01554 1.24025 1.97861 1.28207 1.58947 1.28207C1.31055 1.28207 1.11037 1.37957 1.00964 1.56467C0.908617 1.7502 0.70873 1.84727 0.427939 1.84727H0L0.0377932 6.68678L0.0755865 11.5263L1.94858 11.6108C3.99171 11.7031 4.91541 11.8729 6.29536 12.4098L7.19823 12.7611L7.93771 12.459C9.25961 11.9188 10.3865 11.7036 12.362 11.6142L14.3019 11.5263L14.3397 6.68678L14.3775 1.84727H13.9496C13.6688 1.84727 13.4689 1.7502 13.3679 1.56467C13.2671 1.37957 13.067 1.28207 12.788 1.28207C12.3969 1.28207 12.362 1.24152 12.362 0.787526C12.362 0.494471 12.2888 0.286619 12.1823 0.277294C11.3792 0.20735 9.77952 0.700344 8.85438 1.30299C8.49053 1.53995 7.96689 1.99338 7.69084 2.31045L7.18875 2.88724L6.69945 2.32515C6.07364 1.60636 5.27049 1.06094 4.30756 0.701192C3.44493 0.378888 2.45656 0.172025 2.19258 0.258501ZM2.59034 4.93862V9.01921L3.56032 9.25871C4.72027 9.54513 5.30814 9.87054 6.21877 10.7301L6.90135 11.3744V7.44881V3.52308L6.46622 2.90123C5.78609 1.92923 3.93983 0.858176 2.94427 0.858176H2.59034V4.93862ZM10.3188 1.13201C9.38851 1.48964 8.31335 2.29279 7.85681 2.97117L7.47615 3.53679V7.45559V11.3744L8.15873 10.7176C8.92925 9.97623 9.9215 9.45159 11.0327 9.19767L11.7872 9.02543V4.94173V0.858176L11.392 0.864817C11.1746 0.868491 10.6917 0.988595 10.3188 1.13201ZM1.58444 5.93041V10.0137L2.55442 10.1749C3.68864 10.3635 4.73047 10.6755 5.5362 11.0676L6.111 11.3474L5.7016 10.92C5.186 10.3816 3.87631 9.79735 2.86438 9.65421L2.08739 9.54428L2.04917 5.69585C2.0164 2.40456 1.98005 1.84727 1.79769 1.84727C1.61404 1.84727 1.58444 2.41487 1.58444 5.93041ZM12.3283 5.69585L12.2901 9.54428L11.5131 9.65421C10.5012 9.79735 9.1915 10.3816 8.6759 10.92L8.2665 11.3474L8.8413 11.0676C9.64703 10.6755 10.6889 10.3635 11.8231 10.1749L12.7931 10.0137V5.93041C12.7931 2.41487 12.7635 1.84727 12.5798 1.84727C12.3975 1.84727 12.3611 2.40456 12.3283 5.69585ZM0.578537 6.62984V10.9885L2.19517 11.0835C3.08438 11.1357 4.00579 11.2129 4.24289 11.255C4.54898 11.3094 4.61149 11.2926 4.45844 11.1971C4.20683 11.0399 2.31501 10.6307 1.58444 10.5753L1.08149 10.5372L1.04341 6.40418C1.01079 2.86011 0.974863 2.27117 0.791932 2.27117C0.607852 2.27117 0.578537 2.86943 0.578537 6.62984ZM13.3341 6.40418L13.296 10.5372L12.7931 10.5753C12.0599 10.631 10.17 11.0402 9.91905 11.1978C9.76975 11.2916 9.85812 11.3071 10.2065 11.2486C10.4831 11.2021 11.4046 11.1246 12.2542 11.0764L13.799 10.9885V6.62984C13.799 2.86943 13.7696 2.27117 13.5856 2.27117C13.4026 2.27117 13.3667 2.86011 13.3341 6.40418Z" fill="#30422E"/>
</svg>