<svg width="17" height="18" viewBox="0 0 17 18" fill="none" xmlns="http://www.w3.org/2000/svg">
<path d="M10.6245 16.0983V11.9731C10.6245 11.7908 10.5521 11.616 10.4231 11.487C10.2942 11.3581 10.1193 11.2856 9.93702 11.2856H7.18702C7.00469 11.2856 6.82979 11.3581 6.70089 11.487C6.57191 11.616 6.49952 11.7908 6.49952 11.9731V16.0983C6.49952 16.2806 6.42706 16.4554 6.29815 16.5843C6.16924 16.7133 5.99441 16.7857 5.81209 16.7858L1.68758 16.7863C1.59729 16.7863 1.50788 16.7685 1.42446 16.734C1.34104 16.6994 1.26524 16.6488 1.2014 16.585C1.13755 16.5212 1.08689 16.4453 1.05234 16.3619C1.01779 16.2785 1 16.1891 1 16.0988V8.15298C1 8.05721 1.02001 7.96248 1.05876 7.87489C1.09751 7.7873 1.15412 7.70879 1.22499 7.6443L8.09954 1.39368C8.22604 1.27862 8.39097 1.21485 8.56202 1.21484C8.73307 1.21484 8.89793 1.27859 9.0245 1.39365L15.9 7.6443C15.9709 7.70879 16.0275 7.7873 16.0662 7.87489C16.105 7.96248 16.125 8.05721 16.125 8.15305V16.0988C16.125 16.1891 16.1072 16.2785 16.0727 16.3619C16.0381 16.4453 15.9874 16.5212 15.9236 16.585C15.8598 16.6488 15.7839 16.6994 15.7005 16.734C15.6171 16.7685 15.5277 16.7863 15.4374 16.7863L11.3119 16.7858C11.1296 16.7857 10.9547 16.7133 10.8258 16.5843C10.6969 16.4554 10.6245 16.2806 10.6245 16.0983Z" stroke="white" stroke-width="1.375" stroke-linecap="round" stroke-linejoin="round"/>
</svg>
