<svg width="18" height="18" viewBox="0 0 14 14" fill="none" xmlns="http://www.w3.org/2000/svg">
<path d="M0.78125 7.01064C0.78125 5.88864 1.06175 4.84914 1.61725 3.89764C2.17275 2.94614 2.92625 2.19264 3.87775 1.63714C4.82925 1.08164 5.86325 0.806641 6.97975 0.806641C7.81575 0.806641 8.61875 0.971641 9.38325 1.29614C10.1477 1.62064 10.8022 2.06614 11.3577 2.61614C11.9132 3.16614 12.3532 3.82614 12.6777 4.59614C13.0022 5.36614 13.1672 6.16364 13.1672 7.01064C13.1672 7.84664 13.0022 8.64964 12.6777 9.41414C12.3532 10.1786 11.9077 10.8386 11.3577 11.3886C10.8077 11.9386 10.1477 12.3786 9.38325 12.7031C8.61875 13.0276 7.82125 13.1926 6.97975 13.1926C6.13825 13.1926 5.32975 13.0276 4.56525 12.7031C3.80075 12.3786 3.14075 11.9331 2.58525 11.3831C2.02975 10.8331 1.59525 10.1731 1.26525 9.41414C0.93525 8.65514 0.78125 7.85214 0.78125 7.01064ZM2.14525 7.01064C2.14525 8.31414 2.61825 9.44714 3.56975 10.4096C4.52125 11.3611 5.65425 11.8341 6.97975 11.8341C7.84875 11.8341 8.65725 11.6196 9.39425 11.1851C10.1312 10.7506 10.7252 10.1676 11.1597 9.42514C11.5942 8.68264 11.8142 7.87964 11.8142 7.01064C11.8142 6.14164 11.5942 5.33314 11.1597 4.59064C10.7252 3.84814 10.1367 3.25964 9.39425 2.82514C8.65175 2.39064 7.84875 2.17614 6.97975 2.17614C6.11075 2.17614 5.30225 2.39064 4.56525 2.82514C3.82825 3.25964 3.23425 3.84814 2.79425 4.59064C2.35425 5.33314 2.14525 6.14164 2.14525 7.01064ZM6.50125 7.01064V3.34764C6.50125 3.22114 6.54525 3.11114 6.63325 3.02314C6.72125 2.93514 6.83125 2.89114 6.95775 2.89114C7.08425 2.89114 7.19425 2.93514 7.28225 3.02314C7.37025 3.11114 7.41425 3.22114 7.41425 3.34764V6.73014L9.38875 7.87964C9.49875 7.94564 9.56475 8.03914 9.59775 8.16014C9.63075 8.28114 9.61425 8.39664 9.54825 8.50114C9.46025 8.65514 9.32825 8.73214 9.15225 8.73214C9.05875 8.73214 8.98175 8.71014 8.92125 8.66614L6.82025 7.43964C6.72675 7.41214 6.64975 7.35714 6.58925 7.28014C6.52875 7.20314 6.50125 7.11514 6.50125 7.01064Z" fill="#30422E"/>
</svg>
