<svg width="21" height="20" viewBox="0 0 21 20" fill="none" xmlns="http://www.w3.org/2000/svg">
<path d="M7.875 2.92969V8.55469L3 11.3672C2.67457 9.61066 2.98681 7.79565 3.88052 6.24885C4.77422 4.70205 6.1907 3.52504 7.875 2.92969Z" fill="#1C1C1C" fill-opacity="0.1"/>
<path d="M8.1875 9.09609C8.28253 9.04123 8.36144 8.96231 8.4163 8.86727C8.47116 8.77223 8.50002 8.66442 8.5 8.55469V2.92969C8.49944 2.83004 8.47507 2.73198 8.42891 2.64367C8.38275 2.55536 8.31614 2.47936 8.23465 2.42202C8.15315 2.36469 8.05912 2.32766 7.96041 2.31405C7.8617 2.30043 7.76116 2.31062 7.66719 2.34375C5.84295 2.98939 4.30884 4.26457 3.34064 5.94005C2.37243 7.61554 2.03364 9.58145 2.38516 11.4844C2.40338 11.5828 2.44496 11.6754 2.50641 11.7544C2.56786 11.8333 2.64738 11.8964 2.73828 11.9383C2.8202 11.9766 2.90957 11.9963 3 11.9961C3.1097 11.9961 3.21747 11.9673 3.3125 11.9125L8.1875 9.09609ZM7.25 3.87656V8.19375L3.50937 10.3523C3.5 10.2344 3.5 10.1156 3.5 10C3.50111 8.73309 3.85179 7.49106 4.51343 6.41066C5.17508 5.33025 6.12202 4.45337 7.25 3.87656ZM17.4328 5.97812C17.4258 5.96406 17.4187 5.94922 17.4102 5.93516C17.4016 5.92109 17.3945 5.90938 17.3859 5.89688C16.6696 4.67328 15.6456 3.65834 14.4158 2.95282C13.1859 2.24729 11.7929 1.87572 10.375 1.875C10.2092 1.875 10.0503 1.94085 9.93306 2.05806C9.81585 2.17527 9.75 2.33424 9.75 2.5V9.67422L3.59297 13.2602C3.52152 13.3016 3.45899 13.3567 3.40899 13.4225C3.35899 13.4882 3.32251 13.5632 3.30166 13.6431C3.28081 13.723 3.276 13.8062 3.28752 13.888C3.29904 13.9698 3.32664 14.0485 3.36875 14.1195C4.27209 15.6578 5.65657 16.856 7.30853 17.5293C8.9605 18.2025 10.7881 18.3134 12.5094 17.8448C14.2306 17.3762 15.7498 16.3541 16.8325 14.9364C17.9151 13.5186 18.5011 11.7839 18.5 10C18.5018 8.58916 18.1338 7.20247 17.4328 5.97812ZM11 3.15313C11.9912 3.24437 12.9509 3.54965 13.8127 4.04791C14.6744 4.54617 15.4178 5.22552 15.9914 6.03906L11 8.94609V3.15313ZM10.375 16.875C9.28392 16.8722 8.20901 16.6111 7.23824 16.113C6.26748 15.6149 5.42845 14.894 4.78984 14.0094L10.6805 10.5789L10.6977 10.568L16.6172 7.12031C17.1004 8.16777 17.3122 9.31996 17.2332 10.4708C17.1542 11.6216 16.7869 12.734 16.1652 13.7057C15.5434 14.6773 14.6872 15.4768 13.6753 16.0307C12.6635 16.5845 11.5285 16.8749 10.375 16.875Z" fill="#30422E"/>
</svg>
