<svg width="18" height="18" viewBox="0 0 18 18" fill="none" xmlns="http://www.w3.org/2000/svg">
<path fill-rule="evenodd" clip-rule="evenodd" d="M1.375 11.3414V1.78125H12.375V5.21263C12.375 5.21467 12.375 5.21671 12.375 5.21875C12.375 5.22079 12.375 5.22283 12.375 5.22487V9.34378H4.81862C4.81658 9.34376 4.81454 9.34375 4.8125 9.34375C4.81046 9.34375 4.80842 9.34376 4.80638 9.34378H4.08915C3.93183 9.34378 3.77927 9.39773 3.65693 9.49664L1.375 11.3414ZM4.125 10.8864L1.11972 13.3159C0.913707 13.4825 0.630331 13.5158 0.39127 13.4017C0.152209 13.2875 0 13.0462 0 12.7813V1.78125C0 1.41657 0.144872 1.06684 0.402713 0.808989L0.402739 0.808963C0.660593 0.551122 1.01032 0.40625 1.375 0.40625H12.375C12.7398 0.40625 13.0894 0.551164 13.3472 0.808885L13.3473 0.809028C13.6051 1.06682 13.75 1.4165 13.75 1.78125V4.53125H16.5C16.8646 4.53125 17.2143 4.67606 17.4723 4.93398C17.7301 5.19177 17.875 5.54145 17.875 5.90625V16.9062C17.875 17.1712 17.7228 17.4125 17.4837 17.5267C17.2447 17.6408 16.9613 17.6074 16.7553 17.4409L13.5427 14.8437H5.5C5.1352 14.8437 4.78552 14.6988 4.52773 14.441C4.26981 14.1831 4.125 13.8334 4.125 13.4687V10.8864ZM5.5 10.7188V13.4687H13.7858C13.9431 13.4687 14.0957 13.5227 14.218 13.6216L16.5 15.4664V5.90625H13.75V9.34378C13.75 9.70857 13.605 10.0582 13.3474 10.3159L13.3472 10.3162C13.0894 10.5738 12.7398 10.7188 12.375 10.7188H5.5Z" fill="#30422E"/>
</svg>
