<svg width="20" height="20" viewBox="0 0 20 20" fill="none" xmlns="http://www.w3.org/2000/svg">
<path fill-rule="evenodd" clip-rule="evenodd" d="M9.07476 0.452143C8.46336 0.573048 8.04256 0.800311 7.59068 1.25362C7.19964 1.64585 7.04061 1.89401 6.8766 2.36789C6.7151 2.83448 6.68679 3.46696 6.8062 3.9403C7.01002 4.74805 7.48854 5.37825 8.22617 5.81023L8.39756 5.91061L8.44361 6.24815C8.56229 7.11836 8.53307 7.88576 8.3758 8.02818C8.31457 8.08362 8.28755 8.08393 8.08271 8.03145C7.6653 7.92452 6.94088 7.53934 6.13167 6.99407L5.73812 6.72891L5.73173 6.1432C5.72568 5.59226 5.71826 5.53776 5.60638 5.22391C5.43594 4.74566 5.27744 4.49943 4.88888 4.10933C4.50294 3.72183 4.14254 3.50656 3.65112 3.37004C2.23419 2.97633 0.75578 3.71048 0.201836 5.08286C-0.0672785 5.74957 -0.0672785 6.54598 0.201836 7.21269C0.353897 7.58941 0.532863 7.85891 0.836187 8.16797C1.75822 9.10733 3.16262 9.29975 4.3121 8.64424L4.58776 8.48704L5.38525 8.89995C7.07079 9.77267 8.12015 10.3874 8.37743 10.6527C8.62668 10.9097 8.60393 11.2289 8.3237 11.4054C8.21171 11.476 8.15482 11.482 7.74289 11.4669C7.24211 11.4485 6.95199 11.3842 6.33491 11.1546C5.96888 11.0185 5.94783 11.0043 5.78314 10.7837C5.42536 10.3045 4.8256 9.92012 4.18607 9.76018C3.91696 9.69289 3.7883 9.68269 3.40597 9.69822C2.61515 9.7304 2.05843 9.98009 1.48154 10.5613C1.21326 10.8316 1.12562 10.9519 0.979306 11.2505C0.69067 11.8396 0.598695 12.3582 0.68188 12.9274C0.822678 13.8909 1.3896 14.685 2.2442 15.1157C3.81741 15.9085 5.73386 15.0942 6.26212 13.4085L6.33172 13.1865L6.59969 13.2123C7.46335 13.2954 8.03468 13.5529 8.2463 13.9542L8.33668 14.1256L8.32518 15.5536L8.31369 16.9816L8.1955 17.1911C8.01904 17.5037 7.83559 17.6032 7.31715 17.6672C6.65833 17.7487 6.32285 17.906 5.94429 18.3109C5.69763 18.5748 5.49869 18.9376 5.45675 19.2001C5.43403 19.3422 5.44328 19.3701 5.54728 19.4742C5.68039 19.6074 5.68998 19.6086 6.03752 19.5357C7.32776 19.2653 8.71873 19.2331 9.26271 19.4611C9.60496 19.6046 9.61208 19.6053 9.78198 19.5167C10.3147 19.2389 11.6213 19.2395 13.0793 19.5182C13.4358 19.5863 13.4785 19.5876 13.583 19.5336C13.7853 19.4288 13.7855 19.1964 13.5836 18.7819C13.3664 18.3362 12.9861 17.9848 12.5235 17.8023C12.4156 17.7597 12.1335 17.701 11.8967 17.6717C11.4149 17.6123 11.2918 17.563 11.1115 17.3576C10.8815 17.0954 10.8823 17.102 10.8823 15.5148C10.8823 13.9113 10.8738 13.9713 11.136 13.7184C11.4078 13.4562 11.9151 13.281 12.6003 13.2126L12.8532 13.1874L12.919 13.3899C13.486 15.1344 15.399 15.9275 17.0198 15.0899C17.2606 14.9654 17.4109 14.8493 17.6748 14.5838C18.0666 14.1898 18.2254 13.9417 18.3887 13.4691C18.483 13.1962 18.5074 13.0551 18.5225 12.6934C18.5458 12.1374 18.4749 11.7828 18.2455 11.3076C17.9469 10.6892 17.5318 10.2738 16.9138 9.97495C16.4413 9.74647 16.0889 9.67568 15.5309 9.69716C14.9997 9.71761 14.5906 9.84228 14.1471 10.1189C13.8907 10.2788 13.4823 10.6643 13.2987 10.9195C13.2403 11.0007 13.1206 11.0611 12.785 11.1787C12.5443 11.2631 12.2104 11.3651 12.0429 11.4053C11.7118 11.4849 11.1069 11.5046 10.9404 11.4413C10.6325 11.3242 10.5515 10.9516 10.7777 10.6928C10.92 10.5297 11.4166 10.2002 12.1 9.81517C12.7666 9.43966 14.5484 8.50875 14.6008 8.50875C14.6246 8.50875 14.7438 8.56777 14.8657 8.63986C15.3644 8.93506 16.0777 9.08182 16.646 9.00615C17.3197 8.91644 17.8764 8.64112 18.3408 8.16797C18.9393 7.55819 19.205 6.86494 19.1663 6.01449C19.1174 4.94272 18.5412 4.06272 17.5659 3.57054C16.8033 3.18574 15.8073 3.1857 15.044 3.57038C14.2945 3.94806 13.744 4.61835 13.5212 5.42425C13.4712 5.60543 13.4523 5.81381 13.4509 6.20165L13.4489 6.7315L13.1455 6.93664C12.2096 7.56938 11.4044 7.99135 10.9887 8.06702C10.868 8.08899 10.8396 8.08 10.7899 8.00426C10.6816 7.8388 10.641 7.37567 10.6882 6.8438C10.712 6.57617 10.7499 6.25066 10.7725 6.12043L10.8136 5.88361L11.0667 5.7421C11.3733 5.57078 11.8756 5.07532 12.059 4.76344C12.3419 4.28252 12.5124 3.56402 12.4624 3.06327C12.3829 2.26747 11.9878 1.51279 11.4076 1.04863C11.1183 0.817256 10.6485 0.579597 10.3115 0.49426C9.96727 0.407094 9.40023 0.387787 9.07476 0.452143ZM9.09379 1.1024C8.4382 1.26234 7.90386 1.68252 7.60533 2.27284C7.3017 2.87321 7.29146 3.61974 7.5785 4.23081L7.65529 4.39425L7.81607 4.1762C7.97064 3.96665 8.22533 3.73112 8.39391 3.64194L8.47416 3.59948L8.39943 3.37899C8.2963 3.07469 8.31997 2.6624 8.45586 2.3961C8.85005 1.6238 9.88606 1.45548 10.4953 2.0648C10.8394 2.40894 10.9596 2.94663 10.7905 3.38535L10.7178 3.57412L10.8273 3.65191C11.0202 3.78889 11.338 4.09989 11.4189 4.23092C11.462 4.30084 11.511 4.358 11.5276 4.358C11.5732 4.358 11.7115 4.01478 11.7757 3.74232C11.8904 3.25546 11.8099 2.68848 11.5587 2.21355C11.3957 1.90548 10.968 1.47669 10.6659 1.31866C10.1911 1.07019 9.57391 0.985305 9.09379 1.1024ZM9.29235 2.40307C8.94313 2.57535 8.85801 3.0579 9.12157 3.37138C9.51451 3.8387 10.2784 3.51437 10.2246 2.90303C10.2066 2.69892 10.0681 2.48753 9.89283 2.39683C9.74876 2.32227 9.44985 2.32539 9.29235 2.40307ZM2.30535 3.99707C1.72298 4.15709 1.14412 4.63526 0.893533 5.16332C0.7116 5.54664 0.632487 5.93646 0.661826 6.30481C0.685609 6.60333 0.797943 7.01147 0.900231 7.17099L0.958072 7.2612L1.02824 7.15416C1.13129 6.99696 1.47784 6.6523 1.62328 6.56235C1.76941 6.47195 1.76857 6.47587 1.68824 6.25729C1.65456 6.16563 1.62602 5.9699 1.62481 5.82234C1.62085 5.33708 1.88916 4.91964 2.35148 4.69189C2.57154 4.58347 2.63931 4.56835 2.89606 4.57049C3.61843 4.57654 4.14825 5.12063 4.146 5.8541C4.14543 6.04233 4.12214 6.17953 4.07195 6.29015L3.99873 6.45158L4.15841 6.5617C4.32592 6.67728 4.65634 7.01414 4.76026 7.17529L4.82122 7.26985L4.89839 7.11817C5.29605 6.33703 5.14551 5.31808 4.53472 4.65594C4.08207 4.16524 3.55168 3.93664 2.87958 3.9425C2.66614 3.94441 2.40776 3.96893 2.30535 3.99707ZM15.7198 3.99921C14.958 4.20423 14.3129 4.87033 14.1327 5.63799C14.0421 6.02386 14.0748 6.57865 14.2088 6.92838C14.2649 7.07495 14.3248 7.20892 14.3419 7.22601C14.3591 7.24315 14.4378 7.16882 14.517 7.06086C14.6464 6.88455 15.0399 6.5202 15.1388 6.48516C15.1628 6.47671 15.1499 6.39141 15.1051 6.26201C14.8545 5.53795 15.272 4.78682 16.0285 4.60076C16.3181 4.52955 16.588 4.56135 16.8752 4.70049C17.423 4.96587 17.7019 5.63917 17.505 6.22096C17.4336 6.43215 17.4299 6.46982 17.4784 6.49697C17.6442 6.58977 17.9389 6.85862 18.0801 7.04582L18.2409 7.25884L18.3291 7.08516C18.5243 6.70074 18.5863 6.07664 18.4734 5.63216C18.272 4.83926 17.6448 4.19829 16.8737 3.9973C16.594 3.92442 15.994 3.92537 15.7198 3.99921ZM8.76052 4.16939C8.55172 4.28869 8.28823 4.56645 8.17659 4.78488C8.1369 4.8626 8.1044 4.93411 8.1044 4.94379C8.1044 4.98849 8.64217 5.30901 8.84644 5.38613C9.13161 5.4937 9.75881 5.53338 10.0777 5.464C10.3407 5.40673 10.7796 5.20087 10.956 5.05197L11.0867 4.94162L11.0003 4.77357C10.8943 4.56725 10.652 4.30804 10.432 4.16558L10.2671 4.0588L10.0895 4.13839C9.83572 4.25214 9.36846 4.25423 9.1264 4.14265L8.94972 4.06124L8.76052 4.16939ZM2.643 5.24885C2.48097 5.31949 2.29063 5.5501 2.26015 5.7127C2.17673 6.15763 2.61591 6.56757 3.05052 6.45047C3.37603 6.36273 3.59468 5.99225 3.50255 5.68453C3.38725 5.29942 2.98944 5.09778 2.643 5.24885ZM16.0348 5.26831C15.8245 5.36389 15.7053 5.54005 15.685 5.7854C15.6278 6.47629 16.5185 6.74179 16.8591 6.13536C16.9665 5.94416 16.949 5.64553 16.8198 5.46393C16.7199 5.32349 16.4763 5.19744 16.3049 5.19744C16.2421 5.19744 16.1206 5.22935 16.0348 5.26831ZM9.10018 6.33817C9.20593 7.09803 9.17024 7.83694 9.00954 8.21332C8.92403 8.41366 8.69251 8.64572 8.53992 8.68403C8.35315 8.73095 7.93681 8.67108 7.60639 8.5498C7.21672 8.40677 6.62374 8.08259 5.9763 7.65861C5.68112 7.46531 5.49766 7.36653 5.48796 7.3957C5.47939 7.42137 5.38727 7.57289 5.28323 7.73237C5.17923 7.89185 5.09928 8.02665 5.10563 8.03195C5.11199 8.03728 5.51962 8.25178 6.01146 8.50863C8.22328 9.66384 8.89408 10.1135 9.09668 10.5768C9.34231 11.1386 9.07598 11.7911 8.50103 12.036C8.14633 12.1872 7.27365 12.1342 6.6022 11.9208L6.31128 11.8284L6.33586 11.9403C6.34937 12.0018 6.37179 12.1674 6.38571 12.3082L6.41102 12.5643L6.71807 12.5898C7.74993 12.6755 8.52462 13.0854 8.8308 13.7078L8.94473 13.9394L8.93362 15.5557L8.92255 17.172L8.81995 17.3911C8.67946 17.6911 8.37519 18.0031 8.08248 18.1473C7.88491 18.2447 7.77486 18.2701 7.43431 18.2974C7.09735 18.3244 6.98292 18.3506 6.7933 18.444C6.58078 18.5487 6.3179 18.767 6.3571 18.8063C6.36627 18.8154 6.52769 18.7981 6.71583 18.7677C6.904 18.7373 7.40897 18.7022 7.83802 18.6895C8.66272 18.6653 9.00337 18.6952 9.38969 18.8257C9.58171 18.8906 9.6147 18.8919 9.75634 18.841C10.076 18.726 10.4721 18.6762 11.0666 18.6762C11.578 18.6762 12.3734 18.7394 12.7659 18.8111C12.8758 18.8312 12.8726 18.8249 12.6788 18.6409C12.4432 18.4172 12.1165 18.2954 11.7523 18.2954C11.6251 18.2954 11.4251 18.2611 11.2933 18.2167C10.8604 18.0707 10.5762 17.8135 10.3725 17.3832L10.2544 17.1339V15.5155V13.8971L10.3615 13.6938C10.7054 13.0401 11.4818 12.6573 12.6322 12.5739L12.7648 12.5643L12.8131 12.2248C12.8396 12.0382 12.8543 11.8784 12.8458 11.8699C12.8373 11.8614 12.7131 11.8892 12.5698 11.9318C11.8409 12.1485 11.0471 12.1832 10.6649 12.015C10.4219 11.9082 10.1577 11.6343 10.0661 11.3942C9.98093 11.1711 9.99809 10.7652 10.102 10.546C10.2319 10.2721 10.5953 9.96201 11.2262 9.58707C11.8668 9.20638 12.7822 8.7057 13.5746 8.30262C13.8519 8.16157 14.0788 8.03255 14.0788 8.01591C14.0788 7.99931 14.006 7.87475 13.9171 7.73915C13.8281 7.60354 13.7378 7.46223 13.7164 7.4251C13.6814 7.36459 13.6252 7.39185 13.17 7.68998C12.5517 8.09489 11.8424 8.46911 11.4353 8.60524C11.0232 8.74302 10.6575 8.73091 10.4501 8.57257C10.2787 8.44173 10.1435 8.18351 10.0815 7.86854C10.0352 7.63264 10.051 6.44019 10.1033 6.22393L10.1264 6.12873H9.59872H9.07103L9.10018 6.33817ZM1.94244 7.11985C1.72576 7.27948 1.40699 7.68576 1.40699 7.80232C1.40699 7.87917 1.93848 8.20064 2.19987 8.28187C2.89853 8.499 3.75797 8.35049 4.2333 7.93042L4.37607 7.80426L4.28999 7.63496C4.18683 7.43199 3.87426 7.10945 3.68076 7.00629C3.54407 6.93341 3.53813 6.93333 3.39688 7.00256C3.16833 7.11459 2.69422 7.12689 2.43443 7.02754C2.31932 6.98352 2.21418 6.9475 2.20078 6.9475C2.18739 6.94746 2.07114 7.02503 1.94244 7.11985ZM15.4487 7.05385C15.1087 7.27175 14.7791 7.71847 14.8617 7.84943C14.9223 7.94562 15.3583 8.19295 15.6334 8.28716C15.9878 8.40856 16.5744 8.4105 16.9518 8.2915C17.2325 8.203 17.6834 7.95217 17.7491 7.84794C17.8296 7.72022 17.4532 7.22308 17.1344 7.03618C16.9653 6.93695 16.9637 6.93679 16.8249 7.00484C16.6226 7.10416 16.1253 7.12522 15.9054 7.04384C15.8112 7.009 15.7084 6.97232 15.677 6.96231C15.6456 6.95229 15.5429 6.9935 15.4487 7.05385ZM3.2108 10.3348C2.94153 10.3767 2.76032 10.439 2.47249 10.5889C2.13019 10.7671 1.9002 10.9756 1.67618 11.3107C1.25025 11.948 1.18034 12.7465 1.48781 13.4618C1.56057 13.6309 1.63531 13.7078 1.63531 13.6135C1.63531 13.537 2.01322 13.1279 2.20056 13.0015C2.35684 12.8962 2.3925 12.8533 2.37427 12.7928C2.25295 12.3898 2.24097 12.3183 2.26057 12.1133C2.28873 11.8182 2.39078 11.5986 2.60769 11.3666C2.86969 11.0863 3.13743 10.9689 3.51975 10.9667C3.78997 10.9651 3.85417 10.9793 4.07944 11.0903C4.51082 11.3028 4.75501 11.6666 4.78484 12.1414C4.79763 12.3451 4.78336 12.4665 4.727 12.6328L4.65211 12.8535L4.80855 12.9614C4.98793 13.0852 5.32939 13.4365 5.40173 13.5718C5.44918 13.6605 5.4523 13.6611 5.50386 13.5905C5.62936 13.4187 5.74508 12.9294 5.74508 12.5703C5.74508 11.9114 5.55478 11.4435 5.09817 10.9797C4.69074 10.5658 4.25948 10.3702 3.65214 10.3236C3.5161 10.3132 3.3175 10.3182 3.2108 10.3348ZM15.3327 10.3372C14.0349 10.5388 13.1823 11.823 13.5058 13.0888C13.5464 13.2478 13.6115 13.44 13.6503 13.5158L13.721 13.6536L13.9005 13.4223C13.9992 13.2951 14.1821 13.1186 14.307 13.03C14.4871 12.9022 14.5295 12.8532 14.5122 12.7928C14.5002 12.7509 14.4652 12.6309 14.4344 12.5262C14.2727 11.9766 14.5777 11.346 15.138 11.071C15.3191 10.9822 15.4024 10.9652 15.6588 10.9651C15.9273 10.965 15.9947 10.98 16.2185 11.0903C16.6499 11.3028 16.8941 11.6666 16.9239 12.1414C16.9367 12.3451 16.9224 12.4665 16.8661 12.6328L16.7912 12.8535L16.9476 12.9613C17.1095 13.0728 17.3867 13.3551 17.5299 13.5544L17.612 13.6686L17.6939 13.4782C17.8905 13.0207 17.9419 12.4404 17.8254 11.9929C17.6663 11.3816 17.2052 10.8109 16.6641 10.5555C16.2236 10.3477 15.7575 10.2713 15.3327 10.3372ZM3.23371 11.6765C2.65438 11.975 2.8625 12.8494 3.51519 12.8593C3.87867 12.8648 4.11624 12.6372 4.13934 12.2613C4.15121 12.0683 4.13919 12.0103 4.06457 11.9014C3.85942 11.6021 3.54377 11.5166 3.23371 11.6765ZM15.3728 11.6765C14.7902 11.9767 15.0038 12.8563 15.6593 12.8563C16.0284 12.8563 16.2552 12.6382 16.2784 12.2613C16.2903 12.0683 16.2782 12.0103 16.2036 11.9014C15.9985 11.6021 15.6828 11.5166 15.3728 11.6765ZM2.6607 13.4528C2.56766 13.5121 2.42804 13.6313 2.35045 13.7176C2.22015 13.8627 2.0539 14.1387 2.0539 14.2101C2.0539 14.2752 2.54749 14.5707 2.80694 14.6611C3.48593 14.8974 4.27097 14.7743 4.86095 14.3391L5.02332 14.2194L4.96069 14.0963C4.83526 13.8499 4.63754 13.618 4.4319 13.4763L4.22157 13.3313L3.98443 13.4147C3.68985 13.5182 3.36381 13.5205 3.08134 13.4211C2.96623 13.3806 2.86257 13.3469 2.85097 13.3462C2.83936 13.3455 2.75374 13.3935 2.6607 13.4528ZM14.8399 13.425C14.5762 13.583 14.2633 13.9439 14.2127 14.1483C14.1931 14.2277 14.2221 14.2615 14.4313 14.4029C15.2062 14.9266 16.2386 14.9007 17.001 14.3384L17.1644 14.218L17.0595 14.0252C16.9347 13.7957 16.7289 13.5757 16.5088 13.4368L16.3487 13.3356L16.1175 13.4168C15.8208 13.5211 15.4784 13.5227 15.2113 13.4211C14.9686 13.3288 15.001 13.3285 14.8399 13.425Z" fill="#30422E"/>
</svg>
