<svg xmlns="http://www.w3.org/2000/svg" width="13" height="13" viewBox="0 0 13 13" fill="none">
  <path fill-rule="evenodd" clip-rule="evenodd" d="M7.14076 2.16531C7.73205 1.57313 8.69071 1.57241 9.28199 2.16369L10.5515 3.43317C11.1377 4.01941 11.1434 4.96881 10.5643 5.56298L5.70413 10.5496C5.3152 10.9486 4.78182 11.1737 4.22502 11.1736L2.8179 11.1736C2.11368 11.1735 1.55158 10.5868 1.5812 9.88264L1.64173 8.44346C1.6635 7.92597 1.87867 7.43538 2.24463 7.06887L7.14076 2.16531ZM8.69802 2.74855C8.42925 2.47978 7.9935 2.48011 7.72474 2.74928L6.87982 3.59548L9.13283 5.84849L9.97335 4.98612C10.2366 4.71604 10.234 4.2845 9.9675 4.01803L8.69802 2.74855ZM2.8286 7.65284L6.29585 4.18033L8.55592 6.4404L5.11315 9.97271C4.87979 10.2121 4.55976 10.3472 4.22568 10.3472L2.81856 10.3471C2.58382 10.3471 2.39645 10.1515 2.40633 9.91678L2.46686 8.47759C2.47992 8.1671 2.60902 7.87275 2.8286 7.65284ZM10.8988 11.1346C11.1268 11.1346 11.3117 10.9496 11.3117 10.7214C11.3117 10.4931 11.1268 10.3081 10.8988 10.3081H7.64661C7.41855 10.3081 7.23368 10.4931 7.23368 10.7214C7.23368 10.9496 7.41855 11.1346 7.64661 11.1346H10.8988Z" fill="#30422E"/>
</svg>