<svg width="20" height="18" viewBox="0 0 20 18" fill="none" xmlns="http://www.w3.org/2000/svg">
<path fill-rule="evenodd" clip-rule="evenodd" d="M2.92344 0.678652C2.79373 0.72123 2.68739 1.04565 2.68739 1.39966C2.68739 1.98765 2.63815 2.04342 2.11929 2.04342C1.7474 2.04342 1.4805 2.17341 1.34618 2.42022C1.21149 2.66758 0.944973 2.79701 0.570586 2.79701H0L0.050391 9.24969L0.100782 15.7024L2.5981 15.815C5.32228 15.9381 6.55388 16.1645 8.39382 16.8804L9.59765 17.3488L10.5836 16.946C12.3462 16.2257 13.8487 15.9388 16.4826 15.8196L19.0692 15.7024L19.1196 9.24969L19.17 2.79701H18.5994C18.225 2.79701 17.9585 2.66758 17.8238 2.42022C17.6895 2.17341 17.4226 2.04342 17.0507 2.04342C16.5292 2.04342 16.4826 1.98935 16.4826 1.38402C16.4826 0.993279 16.3851 0.716143 16.2431 0.703709C15.1723 0.610451 13.0394 1.26778 11.8058 2.0713C11.3207 2.38725 10.6225 2.99182 10.2545 3.41459L9.585 4.18363L8.9326 3.43418C8.09818 2.47579 7.02733 1.74857 5.74341 1.26891C4.59324 0.839168 3.27541 0.563352 2.92344 0.678652ZM3.45379 6.91882V12.3596L4.74709 12.6789C6.29369 13.0608 7.07753 13.4947 8.2917 14.6407L9.2018 15.4998V10.2657V5.03143L8.62163 4.20229C7.71479 2.90629 5.25311 1.47822 3.9257 1.47822H3.45379V6.91882ZM13.7584 1.84334C12.518 2.32018 11.0845 3.39104 10.4758 4.29554L9.9682 5.04971V10.2748V15.4998L10.8783 14.6242C11.9057 13.6356 13.2287 12.9361 14.7103 12.5976L15.7162 12.3679V6.92296V1.47822L15.1893 1.48707C14.8994 1.49197 14.2556 1.65211 13.7584 1.84334ZM2.11259 8.24119V13.6856L3.40589 13.9005C4.91819 14.152 6.30729 14.568 7.3816 15.0908L8.148 15.4639L7.60213 14.894C6.91467 14.1762 5.16842 13.3971 3.81917 13.2063L2.78319 13.0597L2.73222 7.92845C2.68854 3.54006 2.64006 2.79701 2.39692 2.79701C2.15206 2.79701 2.11259 3.55382 2.11259 8.24119ZM16.4378 7.92845L16.3868 13.0597L15.3508 13.2063C14.0016 13.3971 12.2553 14.1762 11.5679 14.894L11.022 15.4639L11.7884 15.0908C12.8627 14.568 14.2518 14.152 15.7641 13.9005L17.0574 13.6856V8.24119C17.0574 3.55382 17.0179 2.79701 16.7731 2.79701C16.5299 2.79701 16.4815 3.54006 16.4378 7.92845ZM0.771383 9.17377V14.9853L2.92689 15.1119C4.11251 15.1816 5.34105 15.2845 5.65719 15.3406C6.0653 15.4132 6.14865 15.3908 5.94459 15.2634C5.6091 15.0539 3.08668 14.5083 2.11259 14.4344L1.44198 14.3836L1.39121 8.8729C1.34772 4.14746 1.29982 3.36221 1.05591 3.36221C0.81047 3.36221 0.771383 4.1599 0.771383 9.17377ZM17.7788 8.8729L17.728 14.3836L17.0574 14.4344C16.0799 14.5087 13.5599 15.0543 13.2254 15.2643C13.0263 15.3894 13.1442 15.4102 13.6086 15.3322C13.9774 15.2702 15.2062 15.1668 16.3389 15.1025L18.3986 14.9853V9.17377C18.3986 4.1599 18.3595 3.36221 18.1141 3.36221C17.8702 3.36221 17.8223 4.14746 17.7788 8.8729Z" fill="#30422E"/>
</svg>
